<?xml version="1.0" encoding="utf-8"?>
<!-- Generator: Adobe Illustrator 21.1.0, SVG Export Plug-In . SVG Version: 6.00 Build 0)  -->
<svg version="1.1" id="Layer_1" xmlns="http://www.w3.org/2000/svg" xmlns:xlink="http://www.w3.org/1999/xlink" x="0px" y="0px"
	 viewBox="0 0 1001 545" style="enable-background:new 0 0 1001 545;" xml:space="preserve">
<style type="text/css">
	.st0{fill:#005B88;}
	.st1{fill:#666666;}
</style>
<g id="ISE_x5F_color">
	<path class="st0" d="M182.6,341.2h28.7V202.8h-28.7v-81h135.9v119.5l53.9-225h-72.2c2.3,5.5,3.6,11.5,3.6,17.8
		c0,26.1-20.4,46.6-45.9,46.6c-26.1,0-46.6-20.4-46.6-46.6c0-6.3,1.3-12.4,3.6-17.8H98.1L1.8,418.8h180.8V341.2z"/>
	<polygon class="st0" points="512.7,220.9 629.1,249.5 629.2,249.2 512.7,220.6 	"/>
	<path class="st0" d="M512.7,328v22.3h45.9v-35.7l-151.2-36.3v-84.2c0.6-56.1,15.3-72.1,73.4-72.7h178.9l25.2-105.2H410.8
		l-96.4,402.6h93V328H512.7z"/>
	<rect x="562.1" y="193.4" class="st0" width="0.4" height="19.4"/>
	<path class="st0" d="M767.7,418.8c-29.9-6.6-41.3-25.8-41.3-71.6V204.9c0-19.1,0-39.5,7.7-54.8c14-28.7,43.4-28.7,61.9-28.7h111
		c30,0.3,49.7,3.7,62.1,14.2l28.6-119.4H723.5l-96.4,402.6H767.7z"/>
	<polygon class="st0" points="884.2,348.7 836.1,348.7 836.1,349.1 884.6,349.1 884.6,315.3 926,315.3 926.1,314.9 884.2,314.9 	"/>
	<polygon class="st0" points="884.2,235.1 836.1,235.1 836.1,235.5 884.6,235.5 884.6,193.4 884.2,193.4 	"/>
	<polygon class="st0" points="629.2,249.2 629.2,249.2 637.8,213.2 637.8,213.2 	"/>
	<polygon class="st0" points="562.4,213.2 562.4,212.8 562.1,212.8 562.1,193.4 512.7,193.4 512.7,220.6 629.2,249.2 637.8,213.2 	
		"/>
	<rect x="836.1" y="193.4" class="st0" width="48.1" height="41.7"/>
	<polygon class="st0" points="926.1,314.9 926.1,314.9 931.4,292.9 931.4,292.9 	"/>
	<polygon class="st0" points="836.1,292.9 836.1,348.7 884.2,348.7 884.2,314.9 926.1,314.9 931.4,292.9 	"/>
	<rect x="4.9" y="471.7" class="st1" width="7.7" height="8.1"/>
	<polygon class="st1" points="12.6,483 0.7,483 0.7,490.2 4.9,490.2 4.9,509.4 0.6,509.4 0.6,516.6 16.9,516.6 16.9,509.4 
		12.6,509.4 	"/>
	<path class="st1" d="M53.6,496.3c0-3.8-0.1-6.8-2.8-9.8c-2.5-2.6-6-4.1-9.7-4.1c-4.1,0-7.9,1.8-9.9,5.5V483h-12v7.2h4.3v19.2h-4.3
		v7.2h16.3v-7.2h-4.3v-9.7c0-2.3,0-5.2,1.5-7c1.4-1.9,3.8-2.8,6.1-2.8c2.2,0,4.5,0.9,5.9,2.7c1.3,1.8,1.3,4,1.3,6v10.9h-4.3v7.2H58
		v-7.2h-4.3L53.6,496.3L53.6,496.3z"/>
	<path class="st1" d="M94.8,471.7H82.7v7.1h4.4v9c-2.6-3.5-6.8-5.5-11-5.5c-9.5,0-17,8-17,17.3c0,9.3,7.7,17.3,17.1,17.3
		c4.5,0,8.5-1.7,11-5.5v5h12v-7.2h-4.3L94.8,471.7L94.8,471.7z M77.2,510c-5.6,0-10.1-4.6-10.1-10.1c0-5.7,4.5-10.3,10.2-10.3
		c5.5,0,10.1,4.5,10.1,10C87.3,505.3,82.9,510,77.2,510z"/>
	<path class="st1" d="M118,482.1c-10,0-17.4,8-17.4,17.9c0,9.9,7.9,17.5,17.6,17.5c7,0,13.2-4.3,15.8-10.7h-8c-1.9,2.8-4.8,4-8.1,4
		c-4.8,0-9-3.4-10-8H135l0.2-2.7c0-4.8-1.4-9.1-4.7-12.6C127.3,484.1,122.7,482.1,118,482.1z M107.8,496.8c0.9-4.4,5.3-7.9,9.8-7.9
		c5,0,9.2,3.1,10.6,7.9H107.8z"/>
	<path class="st1" d="M160.2,482.7c-4.5,0-8.5,1.8-11,5.6V483h-12v7.2h4.3v31.4h-4.3v7.2h16.3v-7.2h-4.3v-9.8
		c2.7,3.5,7,5.2,11.4,5.2c9.3,0,16.7-8,16.7-17.1C177.3,490.5,169.7,482.7,160.2,482.7z M159.3,510c-5.6,0-10.1-4.5-10.1-10.1
		c0-5.8,4.7-10.2,10.3-10.2c5.6,0,9.9,4.8,9.9,10.2C169.4,505.5,164.8,510,159.3,510z"/>
	<path class="st1" d="M195.9,482.1c-10,0-17.5,8-17.5,17.9c0,9.9,7.9,17.5,17.7,17.5c7,0,13.2-4.3,15.8-10.7h-8
		c-1.9,2.8-4.8,4-8.1,4c-4.8,0-9.1-3.4-10.1-8h27.1l0.3-2.7c0-4.8-1.4-9.1-4.7-12.6C205.2,484.1,200.5,482.1,195.9,482.1z
		 M185.7,496.8c0.9-4.4,5.3-7.9,9.8-7.9c5,0,9.2,3.1,10.6,7.9H185.7z"/>
	<path class="st1" d="M249.5,496.3c0-3.8-0.1-6.8-2.8-9.8c-2.4-2.6-6-4.1-9.7-4.1c-4.1,0-7.9,1.8-9.9,5.5V483h-12v7.2h4.3v19.2h-4.3
		v7.2h16.3v-7.2h-4.3v-9.7c0-2.3,0-5.2,1.5-7c1.4-1.9,3.8-2.8,6.1-2.8s4.5,0.9,5.9,2.7c1.3,1.8,1.3,4,1.3,6v10.9h-4.3v7.2h16.3v-7.2
		h-4.3L249.5,496.3L249.5,496.3z"/>
	<path class="st1" d="M290.7,471.7h-12.1v7.1h4.4v9c-2.6-3.5-6.8-5.5-11-5.5c-9.5,0-17,8-17,17.3c0,9.3,7.7,17.3,17.1,17.3
		c4.5,0,8.5-1.7,11-5.5v5h12v-7.2h-4.3L290.7,471.7L290.7,471.7z M273,510c-5.6,0-10.1-4.6-10.1-10.1c0-5.7,4.5-10.3,10.2-10.3
		c5.5,0,10.1,4.5,10.1,10C283.2,505.3,278.8,510,273,510z"/>
	<path class="st1" d="M313.9,482.1c-10,0-17.5,8-17.5,17.9c0,9.9,7.8,17.5,17.6,17.5c7,0,13.2-4.3,15.8-10.7h-8
		c-1.9,2.8-4.8,4-8.1,4c-4.8,0-9-3.4-10-8h27.1l0.3-2.7c0-4.8-1.4-9.1-4.7-12.6C323.2,484.1,318.6,482.1,313.9,482.1z M303.7,496.8
		c0.9-4.4,5.3-7.9,9.8-7.9c5,0,9.2,3.1,10.5,7.9H303.7z"/>
	<path class="st1" d="M367.5,496.3c0-3.8-0.1-6.8-2.8-9.8c-2.4-2.6-6-4.1-9.7-4.1c-4.1,0-7.9,1.8-9.9,5.5V483h-12v7.2h4.3v19.2h-4.3
		v7.2h16.3v-7.2h-4.3v-9.7c0-2.3,0-5.2,1.4-7c1.4-1.9,3.8-2.8,6.1-2.8c2.3,0,4.5,0.9,5.9,2.7c1.3,1.8,1.3,4,1.3,6v10.9h-4.3v7.2
		h16.3v-7.2h-4.3V496.3z"/>
	<polygon class="st1" points="385.9,490.2 391.6,490.2 391.6,483 385.9,483 385.9,471.7 378.3,471.7 378.3,483 373,483 373,490.2 
		378.3,490.2 378.3,516.6 392,516.6 392,509.4 385.9,509.4 	"/>
	<path class="st1" d="M428,496.1c-2.4-0.6-5.5-1.2-5.5-4.4c0-2.3,2.2-3.5,4.3-3.5c2.4,0,4.2,1.6,4.3,4h7.4V483h-5.7v2.3
		c-1.9-2.4-4.6-3-7.6-3c-6,0-11.4,3.7-11.4,10.1c0,7.3,6.4,9.2,12.2,10.7c2.6,0.7,5.7,1.3,5.7,4.6c0,2.5-2.3,4.1-4.6,4.1
		c-3.2,0-5.2-2-5.4-5H414v9.7h5.8v-2.8c2.2,2.6,5.3,3.6,8.7,3.6c6.3,0,12-3.7,12-10.5C440.5,499.4,434,497.5,428,496.1z"/>
	<path class="st1" d="M459.6,482.1c-10,0-17.4,8-17.4,17.9c0,9.9,7.8,17.5,17.6,17.5c7,0,13.2-4.3,15.8-10.7h-8
		c-1.9,2.8-4.8,4-8.1,4c-4.8,0-9-3.4-10-8h27.1l0.2-2.7c0-4.8-1.4-9.1-4.7-12.6C468.8,484.1,464.2,482.1,459.6,482.1z M449.4,496.8
		c0.9-4.4,5.3-7.9,9.8-7.9c5,0,9.2,3.1,10.6,7.9H449.4z"/>
	<path class="st1" d="M496.2,509.9c-5.6,0-10.1-4.4-10.1-10.1c0-5.6,4.2-10.2,9.9-10.2c1.7,0,3.3,0.4,4.8,1.3c1.4,0.8,2.6,2,3.6,3.3
		h7.1V483H505v3.2c-2.5-2.7-5.8-4.2-9.6-4.2c-9.5,0-16.9,8.5-16.9,17.8c0,9.8,8,17.6,17.7,17.6c7.3,0,14.6-5.1,16.6-12.2h-8.5
		C502.8,508.2,499.5,509.9,496.2,509.9z"/>
	<path class="st1" d="M548.6,483h-12v7.2h4.3V501c0,2.3,0,4.6-1.4,6.6c-1.3,1.7-3.5,2.7-5.7,2.7c-2.3,0-4.4-0.9-5.6-2.9
		c-1.2-1.8-1.3-4.1-1.3-6.3V483h-12v7.2h4.3v13.2c0,3.6,0.5,6.8,3,9.7c2.3,2.8,5.7,4.3,9.3,4.3c3.9,0,7.9-1.8,10.1-5v4.1H553v-7.2
		h-4.3V483H548.6z"/>
	<path class="st1" d="M566.8,488.8V483h-11.4v7.2h4.3v19.2h-4.3v7.2h16.3v-7.2h-4.3v-8.5c0-3.1,0.4-5.9,2.9-8
		c1.9-1.7,4.2-2.3,6.6-2.4v-7.9C572.5,482.9,568.7,484.8,566.8,488.8z"/>
	<polygon class="st1" points="591.4,483 579.4,483 579.4,490.2 583.7,490.2 583.7,509.4 579.4,509.4 579.4,516.6 595.7,516.6 
		595.7,509.4 591.4,509.4 	"/>
	<rect x="583.7" y="471.7" class="st1" width="7.7" height="8.1"/>
	<polygon class="st1" points="610.7,490.2 616.4,490.2 616.4,483 610.7,483 610.7,471.7 603,471.7 603,483 597.7,483 597.7,490.2 
		603,490.2 603,516.6 616.8,516.6 616.8,509.4 610.7,509.4 	"/>
	<polygon class="st1" points="640.4,490.2 643.6,490.2 637.3,506.6 631.3,490.2 634.6,490.2 634.6,483 618.8,483 618.8,490.2 
		623.2,490.2 633.4,516.1 631.1,521.6 626.9,521.6 626.9,528.8 643.2,528.8 643.2,521.6 638.8,521.6 651.8,490.2 656,490.2 656,483 
		640.4,483 	"/>
	<path class="st1" d="M693.1,482.1c-10,0-17.4,8-17.4,17.9c0,9.9,7.9,17.5,17.6,17.5c7,0,13.2-4.3,15.8-10.7h-8
		c-1.9,2.8-4.8,4-8.1,4c-4.8,0-9-3.4-10-8h27.1l0.2-2.7c0-4.8-1.4-9.1-4.7-12.6C702.4,484.1,697.8,482.1,693.1,482.1z M682.9,496.8
		c1-4.4,5.3-7.9,9.8-7.9c5,0,9.2,3.1,10.6,7.9H682.9z"/>
	<polygon class="st1" points="733.2,490.2 736.8,490.2 730.1,507.1 730.1,507.1 723.9,490.2 727.3,490.2 727.3,483 711.7,483 
		711.7,490.2 715.8,490.2 726.1,516.6 734.1,516.6 744.7,490.2 748.6,490.2 748.6,483 733.2,483 	"/>
	<path class="st1" d="M777.7,487.8c-2.3-3.6-6.1-5.7-10.4-5.7c-9.8,0-17.6,8.1-17.6,17.8c0,9.5,7.6,17.4,17.2,17.4
		c4.4,0,8.4-1.7,10.8-5.4v4.5h12v-7.2h-4.2V490h4.2v-7h-12V487.8z M767.6,510c-5.4,0-10-4.5-10-10c0-5.7,4.4-10.4,10.1-10.4
		c5.5,0,10.1,4.5,10.1,10C777.8,505.3,773.3,510,767.6,510z"/>
	<polygon class="st1" points="803.7,471.7 791.8,471.7 791.8,478.9 796.1,478.9 796.1,509.4 791.4,509.4 791.4,516.6 808.1,516.6 
		808.1,509.4 803.7,509.4 	"/>
	<path class="st1" d="M843.7,483h-12v7.2h4.3V501c0,2.3,0,4.6-1.4,6.6c-1.3,1.7-3.5,2.7-5.6,2.7c-2.3,0-4.4-0.9-5.7-2.9
		c-1.2-1.8-1.3-4.1-1.3-6.3V483h-12v7.2h4.3v13.2c0,3.6,0.5,6.8,2.9,9.7c2.3,2.8,5.7,4.3,9.3,4.3c3.9,0,7.9-1.8,10.1-5v4.1H848v-7.2
		h-4.3V483z"/>
	<path class="st1" d="M878.1,487.8c-2.3-3.6-6.1-5.7-10.4-5.7c-9.8,0-17.6,8.1-17.6,17.8c0,9.5,7.6,17.4,17.2,17.4
		c4.4,0,8.4-1.7,10.8-5.4v4.5h12v-7.2h-4.2V490h4.2v-7h-12V487.8z M868,510c-5.4,0-10-4.5-10-10c0-5.7,4.4-10.4,10.1-10.4
		c5.5,0,10.1,4.5,10.1,10C878.3,505.3,873.8,510,868,510z"/>
	<polygon class="st1" points="904.5,490.2 910.2,490.2 910.2,483 904.5,483 904.5,471.7 896.9,471.7 896.9,483 891.6,483 
		891.6,490.2 896.9,490.2 896.9,516.6 910.6,516.6 910.6,509.4 904.5,509.4 	"/>
	<path class="st1" d="M930.6,482.1c-9.7,0-17.7,7.8-17.7,17.6c0,9.7,7.7,17.8,17.5,17.8c9.8,0,17.6-8,17.6-17.8
		C948.1,490.1,940.3,482.1,930.6,482.1z M930.4,509.9c-5.7,0-10-4.8-10-10.3c0-5.6,4.7-10,10.2-10c5.6,0,9.9,4.8,9.9,10.2
		C940.5,505.4,936,509.9,930.4,509.9z"/>
	<path class="st1" d="M961.1,488.8V483h-11.4v7.2h4.3v19.2h-4.3v7.2H966v-7.2h-4.3v-8.5c0-3.1,0.4-5.9,2.9-8
		c1.9-1.7,4.1-2.3,6.6-2.4v-7.9C966.8,482.9,963,484.8,961.1,488.8z"/>
	<path class="st1" d="M988,496.1c-2.4-0.6-5.5-1.2-5.5-4.4c0-2.3,2.2-3.5,4.3-3.5c2.4,0,4.2,1.6,4.4,4h7.4V483H993v2.3
		c-1.9-2.4-4.6-3-7.6-3c-6,0-11.4,3.7-11.4,10.1c0,7.3,6.4,9.2,12.2,10.7c2.6,0.7,5.7,1.3,5.7,4.6c0,2.5-2.3,4.1-4.6,4.1
		c-3.1,0-5.2-2-5.4-5H974v9.7h5.9v-2.8c2.2,2.6,5.3,3.6,8.7,3.6c6.3,0,12-3.7,12-10.5C1000.5,499.4,994,497.5,988,496.1z"/>
</g>
</svg>
