<?xml version="1.0" encoding="UTF-8" standalone="no"?>
<svg
   xmlns:dc="http://purl.org/dc/elements/1.1/"
   xmlns:cc="http://creativecommons.org/ns#"
   xmlns:rdf="http://www.w3.org/1999/02/22-rdf-syntax-ns#"
   xmlns:svg="http://www.w3.org/2000/svg"
   xmlns="http://www.w3.org/2000/svg"
   xmlns:sodipodi="http://sodipodi.sourceforge.net/DTD/sodipodi-0.dtd"
   xmlns:inkscape="http://www.inkscape.org/namespaces/inkscape"
   width="114"
   height="46"
   viewBox="0 0 114 46"
   version="1.1"
   id="svg97"
   sodipodi:docname="brand.svg"
   inkscape:version="0.92.3 (2405546, 2018-03-11)"
   style="fill:none">
  <metadata
     id="metadata103">
    <rdf:RDF>
      <cc:Work
         rdf:about="">
        <dc:format>image/svg+xml</dc:format>
        <dc:type
           rdf:resource="http://purl.org/dc/dcmitype/StillImage" />
        <dc:title></dc:title>
      </cc:Work>
    </rdf:RDF>
  </metadata>
  <defs
     id="defs101" />
  <sodipodi:namedview
     pagecolor="#ffffff"
     bordercolor="#666666"
     borderopacity="1"
     objecttolerance="10"
     gridtolerance="10"
     guidetolerance="10"
     inkscape:pageopacity="0"
     inkscape:pageshadow="2"
     inkscape:window-width="1621"
     inkscape:window-height="989"
     id="namedview99"
     showgrid="false"
     inkscape:zoom="3.3023256"
     inkscape:cx="43"
     inkscape:cy="9.5"
     inkscape:window-x="2335"
     inkscape:window-y="43"
     inkscape:window-maximized="0"
     inkscape:current-layer="svg97" />
  <g
     id="ISE_x5F_color"
     transform="matrix(0.11425733,0,0,0.11425733,-0.51335155,-1.4526038)">
    <path
       class="st0"
       d="m 182.6,341.2 h 28.7 V 202.8 h -28.7 v -81 h 135.9 v 119.5 l 53.9,-225 h -72.2 c 2.3,5.5 3.6,11.5 3.6,17.8 0,26.1 -20.4,46.6 -45.9,46.6 -26.1,0 -46.6,-20.4 -46.6,-46.6 0,-6.3 1.3,-12.4 3.6,-17.8 H 98.1 L 1.8,418.8 h 180.8 z"
       id="path12"
       inkscape:connector-curvature="0"
       style="fill:#005b88" />
    <polygon
       class="st0"
       points="512.7,220.9 629.1,249.5 629.2,249.2 512.7,220.6 "
       id="polygon14"
       style="fill:#005b88" />
    <path
       class="st0"
       d="m 512.7,328 v 22.3 h 45.9 V 314.6 L 407.4,278.3 V 194.1 C 408,138 422.7,122 480.8,121.4 H 659.7 L 684.9,16.2 H 410.8 l -96.4,402.6 h 93 V 328 Z"
       id="path16"
       inkscape:connector-curvature="0"
       style="fill:#005b88" />
    <rect
       x="562.09998"
       y="193.39999"
       class="st0"
       width="0.40000001"
       height="19.4"
       id="rect18"
       style="fill:#005b88" />
    <path
       class="st0"
       d="M 767.7,418.8 C 737.8,412.2 726.4,393 726.4,347.2 V 204.9 c 0,-19.1 0,-39.5 7.7,-54.8 14,-28.7 43.4,-28.7 61.9,-28.7 h 111 c 30,0.3 49.7,3.7 62.1,14.2 L 997.7,16.2 H 723.5 l -96.4,402.6 z"
       id="path20"
       inkscape:connector-curvature="0"
       style="fill:#005b88" />
    <polygon
       class="st0"
       points="884.6,315.3 926,315.3 926.1,314.9 884.2,314.9 884.2,348.7 836.1,348.7 836.1,349.1 884.6,349.1 "
       id="polygon22"
       style="fill:#005b88" />
    <polygon
       class="st0"
       points="836.1,235.5 884.6,235.5 884.6,193.4 884.2,193.4 884.2,235.1 836.1,235.1 "
       id="polygon24"
       style="fill:#005b88" />
    <polygon
       class="st0"
       points="629.2,249.2 637.8,213.2 "
       id="polygon26"
       style="fill:#005b88" />
    <polygon
       class="st0"
       points="512.7,193.4 512.7,220.6 629.2,249.2 637.8,213.2 562.4,213.2 562.4,212.8 562.1,212.8 562.1,193.4 "
       id="polygon28"
       style="fill:#005b88" />
    <rect
       x="836.09998"
       y="193.39999"
       class="st0"
       width="48.099998"
       height="41.700001"
       id="rect30"
       style="fill:#005b88" />
    <polygon
       class="st0"
       points="926.1,314.9 931.4,292.9 "
       id="polygon32"
       style="fill:#005b88" />
    <polygon
       class="st0"
       points="884.2,348.7 884.2,314.9 926.1,314.9 931.4,292.9 836.1,292.9 836.1,348.7 "
       id="polygon34"
       style="fill:#005b88" />
  </g>
</svg>
