<svg width="500" height="600" viewBox="0 0 500 600" fill="none" xmlns="http://www.w3.org/2000/svg">
<rect x="20" y="303" width="260" height="221" rx="12" fill="#EDEDED"/>
<rect x="37" y="329" width="120" height="8" rx="4" fill="#858585"/>
<rect x="217" y="329" width="40" height="8" rx="4" fill="#C4C4C4"/>
<rect x="217" y="349" width="40" height="8" rx="4" fill="#C4C4C4"/>
<rect x="217" y="369" width="40" height="8" rx="4" fill="#C4C4C4"/>
<rect x="217" y="389" width="40" height="8" rx="4" fill="#C4C4C4"/>
<rect x="217" y="409" width="40" height="8" rx="4" fill="#C4C4C4"/>
<rect x="217" y="429" width="40" height="8" rx="4" fill="#C4C4C4"/>
<rect x="217" y="449" width="40" height="8" rx="4" fill="#C4C4C4"/>
<rect x="217" y="469" width="40" height="8" rx="4" fill="#C4C4C4"/>
<rect x="217" y="489" width="40" height="8" rx="4" fill="#C4C4C4"/>
<rect x="37" y="349" width="140" height="8" rx="4" fill="#858585"/>
<rect x="37" y="369" width="100" height="8" rx="4" fill="#858585"/>
<rect x="37" y="449" width="120" height="8" rx="4" fill="#858585"/>
<rect x="37" y="469" width="140" height="8" rx="4" fill="#858585"/>
<rect x="37" y="489" width="100" height="8" rx="4" fill="#858585"/>
<rect x="37" y="389" width="160" height="8" rx="4" fill="#858585"/>
<rect x="37" y="409" width="140" height="8" rx="4" fill="#858585"/>
<rect x="37" y="429" width="100" height="8" rx="4" fill="#858585"/>
<g filter="url(#filter0_d)">
<rect x="310" y="231" width="167" height="341" rx="12" fill="white"/>
</g>
<path d="M330.318 244L323 244L323 256L330.318 256L330.318 244Z" fill="#E5E5E5"/>
<path d="M334.355 277.363L323 277.363L323 289.363L334.355 289.363L334.355 277.363Z" fill="#E5E5E5"/>
<path d="M365.14 310.729L323 310.729L323 322.729L365.14 322.729L365.14 310.729Z" fill="#E5E5E5"/>
<path d="M337.72 344.092L323 344.092L323 356.092L337.72 356.092L337.72 344.092Z" fill="#E5E5E5"/>
<path d="M384.991 377.271L323 377.271L323 389.271L384.991 389.271L384.991 377.271Z" fill="#E5E5E5"/>
<path d="M337.467 410.637L323 410.637L323 422.637L337.467 422.637L337.467 410.637Z" fill="#E5E5E5"/>
<path d="M374.981 444L323 444L323 456L374.981 456L374.981 444Z" fill="#E5E5E5"/>
<path d="M350.084 477.363L323 477.363L323 489.363L350.084 489.363L350.084 477.363Z" fill="#E5E5E5"/>
<path d="M355.551 510.729L323 510.729L323 522.729L355.551 522.729L355.551 510.729Z" fill="#E5E5E5"/>
<path d="M330.318 543.908L323 543.908L323 555.908L330.318 555.908L330.318 543.908Z" fill="#E5E5E5"/>
<path d="M337.636 244L330.318 244L330.318 256L337.636 256L337.636 244Z" fill="#C4C4C4"/>
<path d="M361.187 277.363L334.355 277.363L334.355 289.363L361.187 289.363L361.187 277.363Z" fill="#C4C4C4"/>
<path d="M402.738 310.729L365.14 310.729L365.14 322.729L402.738 322.729L402.738 310.729Z" fill="#C4C4C4"/>
<path d="M347.393 344.092L337.72 344.092L337.72 356.092L347.393 356.092L347.393 344.092Z" fill="#C4C4C4"/>
<path d="M421.495 377.271L384.991 377.271L384.991 389.271L421.495 389.271L421.495 377.271Z" fill="#C4C4C4"/>
<path d="M370.523 410.637L337.467 410.637L337.467 422.637L370.523 422.637L370.523 410.637Z" fill="#C4C4C4"/>
<path d="M414.009 444L374.981 444L374.981 456L414.009 456L414.009 444Z" fill="#C4C4C4"/>
<path d="M371.28 477.363L350.084 477.363L350.084 489.363L371.28 489.363L371.28 477.363Z" fill="#C4C4C4"/>
<path d="M373.047 510.729L355.551 510.729L355.551 522.729L373.047 522.729L373.047 510.729Z" fill="#C4C4C4"/>
<path d="M337.635 543.908L330.318 543.908L330.318 555.908L337.635 555.908L337.635 543.908Z" fill="#C4C4C4"/>
<path d="M344.869 244L337.635 244L337.635 256L344.869 256L344.869 244Z" fill="#EDEDED"/>
<path d="M390.963 277.363L361.187 277.363L361.187 289.363L390.963 289.363L390.963 277.363Z" fill="#EDEDED"/>
<path d="M441.935 310.729L402.738 310.729L402.738 322.729L441.935 322.729L441.935 310.729Z" fill="#EDEDED"/>
<path d="M371.364 344.092L347.393 344.092L347.393 356.092L371.364 356.092L371.364 344.092Z" fill="#EDEDED"/>
<path d="M439.579 377.271L421.495 377.271L421.495 389.271L439.579 389.271L439.579 377.271Z" fill="#EDEDED"/>
<path d="M432.43 410.637L370.523 410.637L370.523 422.637L432.43 422.637L432.43 410.637Z" fill="#EDEDED"/>
<path d="M467 444L414.009 444L414.009 456L467 456L467 444Z" fill="#EDEDED"/>
<path d="M402.15 477.363L371.28 477.363L371.28 489.363L402.15 489.363L402.15 477.363Z" fill="#EDEDED"/>
<path d="M392.981 510.729L373.047 510.729L373.047 522.729L392.981 522.729L392.981 510.729Z" fill="#EDEDED"/>
<path d="M344.869 543.908L337.635 543.908L337.635 555.908L344.869 555.908L344.869 543.908Z" fill="#EDEDED"/>
<g filter="url(#filter1_d)">
<rect x="50" y="99" width="399" height="215" rx="12" fill="white"/>
</g>
<path d="M95 257.682V265H115.092V257.682H95Z" fill="#858585"/>
<path d="M128.363 253.645V265H148.271V253.645H128.363Z" fill="#858585"/>
<path d="M161.728 222.86V265H181.636V222.86H161.728Z" fill="#858585"/>
<path d="M195.092 250.28V265H215V250.28H195.092Z" fill="#858585"/>
<path d="M228.272 203.009V265H248.364V203.009H228.272Z" fill="#858585"/>
<path d="M261.637 250.533V265H281.729V250.533H261.637Z" fill="#858585"/>
<path d="M295 213.019V265H314.908V213.019H295Z" fill="#858585"/>
<path d="M328.363 237.916V265H348.271V237.916H328.363Z" fill="#858585"/>
<path d="M361.728 232.449V265H381.636V232.449H361.728Z" fill="#858585"/>
<path d="M394.908 257.682V265H415V257.682H394.908Z" fill="#858585"/>
<path d="M95 250.365V257.682H115.092V250.365H95Z" fill="#C4C4C4"/>
<path d="M128.363 226.813V253.645H148.271V226.813H128.363Z" fill="#C4C4C4"/>
<path d="M161.728 185.262V222.86H181.636V185.262H161.728Z" fill="#C4C4C4"/>
<path d="M195.092 240.607V250.28H215V240.607H195.092Z" fill="#C4C4C4"/>
<path d="M228.272 166.505V203.009H248.364V166.505H228.272Z" fill="#C4C4C4"/>
<path d="M261.637 217.477V250.533H281.729V217.477H261.637Z" fill="#C4C4C4"/>
<path d="M295 173.991V213.019H314.908V173.991H295Z" fill="#C4C4C4"/>
<path d="M328.363 216.72V237.916H348.271V216.72H328.363Z" fill="#C4C4C4"/>
<path d="M361.728 214.953V232.449H381.636V214.953H361.728Z" fill="#C4C4C4"/>
<path d="M394.908 250.365V257.682H415V250.365H394.908Z" fill="#C4C4C4"/>
<path d="M95 243.131V250.365H115.092V243.131H95Z" fill="#EDEDED"/>
<path d="M128.363 197.037V226.813H148.271V197.037H128.363Z" fill="#EDEDED"/>
<path d="M161.728 146.065V185.262H181.636V146.065H161.728Z" fill="#EDEDED"/>
<path d="M195.092 216.635V240.607H215V216.635H195.092Z" fill="#EDEDED"/>
<path d="M228.272 148.421V166.505H248.364V148.421H228.272Z" fill="#EDEDED"/>
<path d="M261.637 155.57V217.477H281.729V155.57H261.637Z" fill="#EDEDED"/>
<path d="M295 121V173.991H314.908V121H295Z" fill="#EDEDED"/>
<path d="M328.363 185.85V216.72H348.271V185.85H328.363Z" fill="#EDEDED"/>
<path d="M361.728 195.019V214.953H381.636V195.019H361.728Z" fill="#EDEDED"/>
<path d="M394.908 243.131V250.365H415V243.131H394.908Z" fill="#EDEDED"/>
<rect x="83.9792" y="290" width="30" height="4" rx="2" transform="rotate(-45 83.9792 290)" fill="#EDEDED"/>
<rect x="353.979" y="290" width="30" height="4" rx="2" transform="rotate(-45 353.979 290)" fill="#EDEDED"/>
<rect x="106.979" y="301" width="45" height="4" rx="2" transform="rotate(-45 106.979 301)" fill="#EDEDED"/>
<rect x="155.979" y="286" width="24" height="4" rx="2" transform="rotate(-45 155.979 286)" fill="#EDEDED"/>
<rect x="276.979" y="301" width="45" height="4" rx="2" transform="rotate(-45 276.979 301)" fill="#EDEDED"/>
<rect x="325.979" y="286" width="24" height="4" rx="2" transform="rotate(-45 325.979 286)" fill="#EDEDED"/>
<rect x="180.979" y="294" width="36" height="4" rx="2" transform="rotate(-45 180.979 294)" fill="#EDEDED"/>
<rect x="380.979" y="294" width="36" height="4" rx="2" transform="rotate(-45 380.979 294)" fill="#EDEDED"/>
<rect x="238.979" y="304" width="50" height="4" rx="2" transform="rotate(-45 238.979 304)" fill="#EDEDED"/>
<rect x="210.979" y="294" width="36" height="4" rx="2" transform="rotate(-45 210.979 294)" fill="#EDEDED"/>
<rect x="20.5" y="20.5" width="139" height="60" fill="white" stroke="#C4C4C4"/>
<g clip-path="url(#clip0)">
<path d="M50.7083 60H35.2917C34.0275 60 33 58.9725 33 57.7083V43.9583C33 42.6941 34.0275 41.6667 35.2917 41.6667H50.7083C51.9725 41.6667 53 42.6941 53 43.9583V57.7083C53 58.9725 51.9725 60 50.7083 60ZM35.2917 42.9167C34.7175 42.9167 34.25 43.3841 34.25 43.9583V57.7083C34.25 58.2825 34.7175 58.75 35.2917 58.75H50.7083C51.2825 58.75 51.75 58.2825 51.75 57.7083V43.9583C51.75 43.3841 51.2825 42.9167 50.7083 42.9167H35.2917Z" fill="#C4C4C4"/>
<path d="M52.375 47.9167H33.625C33.28 47.9167 33 47.6367 33 47.2917C33 46.9467 33.28 46.6667 33.625 46.6667H52.375C52.72 46.6667 53 46.9467 53 47.2917C53 47.6367 52.72 47.9167 52.375 47.9167Z" fill="#C4C4C4"/>
<path d="M37.7917 45C37.4467 45 37.1667 44.72 37.1667 44.375V40.625C37.1667 40.28 37.4467 40 37.7917 40C38.1367 40 38.4167 40.28 38.4167 40.625V44.375C38.4167 44.72 38.1367 45 37.7917 45Z" fill="#C4C4C4"/>
<path d="M48.2083 45C47.8633 45 47.5833 44.72 47.5833 44.375V40.625C47.5833 40.28 47.8633 40 48.2083 40C48.5533 40 48.8333 40.28 48.8333 40.625V44.375C48.8333 44.72 48.5533 45 48.2083 45Z" fill="#C4C4C4"/>
</g>
<path d="M66.8195 41.8H76.5395V43.3C74.8729 45.0467 73.6662 46.88 72.9195 48.8C72.1862 50.7067 71.8195 52.7733 71.8195 55H70.1795C70.1795 52.8667 70.5595 50.8067 71.3195 48.82C72.0929 46.82 73.2529 44.98 74.7995 43.3H66.8195V41.8ZM81.3905 55V45.32C81.3905 45.0933 81.3905 44.8533 81.3905 44.6C81.4038 44.3333 81.4171 44.06 81.4305 43.78C80.9771 44.22 80.4505 44.6067 79.8505 44.94C79.2505 45.26 78.6371 45.4933 78.0105 45.64L77.5905 44.18C77.8305 44.1533 78.1305 44.0667 78.4905 43.92C78.8638 43.76 79.2505 43.5667 79.6505 43.34C80.0638 43.1 80.4438 42.8467 80.7905 42.58C81.1371 42.3133 81.4038 42.0533 81.5905 41.8H82.9905V55H81.3905ZM97.3398 39.98L98.2598 40.9C96.9398 42.1133 96.0132 43.4133 95.4798 44.8C94.9598 46.1867 94.6998 47.7133 94.6998 49.38C94.6998 51.0467 94.9598 52.5733 95.4798 53.96C96.0132 55.3467 96.9398 56.6467 98.2598 57.86L97.3398 58.78C94.4865 56.3133 93.0598 53.18 93.0598 49.38C93.0598 45.58 94.4865 42.4467 97.3398 39.98ZM104.299 55.2C103.125 55.2 102.179 54.9333 101.459 54.4C100.752 53.8667 100.205 53.1267 99.8186 52.18L101.379 51.36C101.592 52.0533 101.919 52.62 102.359 53.06C102.812 53.4867 103.472 53.7 104.339 53.7C105.245 53.7 105.959 53.4533 106.479 52.96C107.012 52.4533 107.279 51.76 107.279 50.88C107.279 49.9467 107.032 49.24 106.539 48.76C106.059 48.28 105.372 48.04 104.479 48.04C103.839 48.04 103.265 48.14 102.759 48.34C102.252 48.54 101.845 48.8667 101.539 49.32L100.139 49.06L100.919 41.8H108.339V43.3H102.279L101.759 47.46L101.719 47.64H101.759C102.079 47.3067 102.485 47.04 102.979 46.84C103.485 46.64 104.085 46.54 104.779 46.54C105.619 46.54 106.345 46.72 106.959 47.08C107.585 47.4267 108.072 47.92 108.419 48.56C108.765 49.2 108.939 49.9467 108.939 50.8C108.939 51.7067 108.739 52.4933 108.339 53.16C107.952 53.8133 107.412 54.32 106.719 54.68C106.025 55.0267 105.219 55.2 104.299 55.2ZM115.999 55.2C114.826 55.2 113.786 54.9267 112.879 54.38C111.986 53.82 111.379 53.0533 111.059 52.08L112.659 51.26C112.899 51.9933 113.279 52.5867 113.799 53.04C114.333 53.48 115.119 53.7 116.159 53.7C117.026 53.7 117.693 53.4733 118.159 53.02C118.639 52.5533 118.879 51.96 118.879 51.24C118.879 50.52 118.673 49.9867 118.259 49.64C117.859 49.28 117.186 49.1 116.239 49.1C115.946 49.1 115.606 49.12 115.219 49.16V47.56C115.339 47.5733 115.453 47.58 115.559 47.58C115.679 47.58 115.786 47.58 115.879 47.58C116.853 47.58 117.546 47.3933 117.959 47.02C118.373 46.6333 118.579 46.0333 118.579 45.22C118.579 44.5267 118.366 44 117.939 43.64C117.513 43.28 116.906 43.1 116.119 43.1C115.279 43.1 114.639 43.2867 114.199 43.66C113.759 44.02 113.413 44.5133 113.159 45.14L111.639 44.42C111.959 43.5933 112.513 42.9133 113.299 42.38C114.099 41.8467 115.053 41.58 116.159 41.58C117.079 41.58 117.839 41.74 118.439 42.06C119.039 42.3667 119.486 42.78 119.779 43.3C120.086 43.82 120.239 44.3933 120.239 45.02C120.239 45.9667 119.993 46.7267 119.499 47.3C119.006 47.86 118.426 48.1933 117.759 48.3V48.34C118.346 48.3533 118.846 48.5 119.259 48.78C119.673 49.0467 119.986 49.4 120.199 49.84C120.426 50.2667 120.539 50.7267 120.539 51.22C120.539 51.9933 120.346 52.68 119.959 53.28C119.586 53.88 119.059 54.3533 118.379 54.7C117.699 55.0333 116.906 55.2 115.999 55.2ZM125.839 41.6C126.813 41.6 127.586 41.9333 128.159 42.6C128.733 43.2533 129.019 44.1333 129.019 45.24C129.019 46.3333 128.733 47.2133 128.159 47.88C127.586 48.5467 126.813 48.88 125.839 48.88C124.866 48.88 124.093 48.5467 123.519 47.88C122.946 47.2133 122.659 46.3333 122.659 45.24C122.659 44.1333 122.946 43.2533 123.519 42.6C124.093 41.9333 124.866 41.6 125.839 41.6ZM125.459 55L133.859 41.8H135.379L126.979 55H125.459ZM125.839 42.86C125.266 42.86 124.826 43.0733 124.519 43.5C124.226 43.9133 124.079 44.4933 124.079 45.24C124.079 45.9867 124.226 46.5733 124.519 47C124.826 47.4133 125.266 47.62 125.839 47.62C126.413 47.62 126.846 47.4133 127.139 47C127.446 46.5733 127.599 45.9867 127.599 45.24C127.599 44.4933 127.446 43.9133 127.139 43.5C126.846 43.0733 126.413 42.86 125.839 42.86ZM134.999 47.92C135.973 47.92 136.746 48.2533 137.319 48.92C137.893 49.5733 138.179 50.4533 138.179 51.56C138.179 52.6533 137.893 53.5333 137.319 54.2C136.746 54.8667 135.973 55.2 134.999 55.2C134.026 55.2 133.253 54.8667 132.679 54.2C132.106 53.5333 131.819 52.6533 131.819 51.56C131.819 50.4533 132.106 49.5733 132.679 48.92C133.253 48.2533 134.026 47.92 134.999 47.92ZM134.999 49.18C134.426 49.18 133.986 49.3933 133.679 49.82C133.386 50.2333 133.239 50.8133 133.239 51.56C133.239 52.3067 133.386 52.8933 133.679 53.32C133.986 53.7333 134.426 53.94 134.999 53.94C135.573 53.94 136.006 53.7333 136.299 53.32C136.606 52.8933 136.759 52.3067 136.759 51.56C136.759 50.8133 136.606 50.2333 136.299 49.82C136.006 49.3933 135.573 49.18 134.999 49.18ZM140.488 58.78L139.568 57.86C140.888 56.6467 141.808 55.3467 142.328 53.96C142.862 52.5733 143.128 51.0467 143.128 49.38C143.128 47.7133 142.862 46.1867 142.328 44.8C141.808 43.4133 140.888 42.1133 139.568 40.9L140.488 39.98C143.342 42.4467 144.768 45.58 144.768 49.38C144.768 53.18 143.342 56.3133 140.488 58.78Z" fill="black"/>
<rect x="68" y="63" width="60" height="4" rx="2" fill="#EDEDED"/>
<rect x="180.5" y="20.5" width="139" height="60" fill="white" stroke="#C4C4C4"/>
<path d="M231.566 55V45.32C231.566 45.0933 231.566 44.8533 231.566 44.6C231.58 44.3333 231.593 44.06 231.606 43.78C231.153 44.22 230.626 44.6067 230.026 44.94C229.426 45.26 228.813 45.4933 228.186 45.64L227.766 44.18C228.006 44.1533 228.306 44.0667 228.666 43.92C229.04 43.76 229.426 43.5667 229.826 43.34C230.24 43.1 230.62 42.8467 230.966 42.58C231.313 42.3133 231.58 42.0533 231.766 41.8H233.166V55H231.566ZM240.999 55.2C239.826 55.2 238.786 54.9267 237.879 54.38C236.986 53.82 236.379 53.0533 236.059 52.08L237.659 51.26C237.899 51.9933 238.279 52.5867 238.799 53.04C239.333 53.48 240.119 53.7 241.159 53.7C242.026 53.7 242.693 53.4733 243.159 53.02C243.639 52.5533 243.879 51.96 243.879 51.24C243.879 50.52 243.673 49.9867 243.259 49.64C242.859 49.28 242.186 49.1 241.239 49.1C240.946 49.1 240.606 49.12 240.219 49.16V47.56C240.339 47.5733 240.453 47.58 240.559 47.58C240.679 47.58 240.786 47.58 240.879 47.58C241.853 47.58 242.546 47.3933 242.959 47.02C243.373 46.6333 243.579 46.0333 243.579 45.22C243.579 44.5267 243.366 44 242.939 43.64C242.513 43.28 241.906 43.1 241.119 43.1C240.279 43.1 239.639 43.2867 239.199 43.66C238.759 44.02 238.413 44.5133 238.159 45.14L236.639 44.42C236.959 43.5933 237.513 42.9133 238.299 42.38C239.099 41.8467 240.053 41.58 241.159 41.58C242.079 41.58 242.839 41.74 243.439 42.06C244.039 42.3667 244.486 42.78 244.779 43.3C245.086 43.82 245.239 44.3933 245.239 45.02C245.239 45.9667 244.993 46.7267 244.499 47.3C244.006 47.86 243.426 48.1933 242.759 48.3V48.34C243.346 48.3533 243.846 48.5 244.259 48.78C244.673 49.0467 244.986 49.4 245.199 49.84C245.426 50.2667 245.539 50.7267 245.539 51.22C245.539 51.9933 245.346 52.68 244.959 53.28C244.586 53.88 244.059 54.3533 243.379 54.7C242.699 55.0333 241.906 55.2 240.999 55.2ZM259.176 39.98L260.096 40.9C258.776 42.1133 257.849 43.4133 257.316 44.8C256.796 46.1867 256.536 47.7133 256.536 49.38C256.536 51.0467 256.796 52.5733 257.316 53.96C257.849 55.3467 258.776 56.6467 260.096 57.86L259.176 58.78C256.322 56.3133 254.896 53.18 254.896 49.38C254.896 45.58 256.322 42.4467 259.176 39.98ZM264.398 55V45.32C264.398 45.0933 264.398 44.8533 264.398 44.6C264.412 44.3333 264.425 44.06 264.438 43.78C263.985 44.22 263.458 44.6067 262.858 44.94C262.258 45.26 261.645 45.4933 261.018 45.64L260.598 44.18C260.838 44.1533 261.138 44.0667 261.498 43.92C261.872 43.76 262.258 43.5667 262.658 43.34C263.072 43.1 263.452 42.8467 263.798 42.58C264.145 42.3133 264.412 42.0533 264.598 41.8H265.998V55H264.398ZM274.251 55.2C272.758 55.2 271.565 54.62 270.671 53.46C269.778 52.3 269.331 50.6133 269.331 48.4C269.331 46.1867 269.778 44.5 270.671 43.34C271.565 42.18 272.758 41.6 274.251 41.6C275.758 41.6 276.951 42.18 277.831 43.34C278.725 44.5 279.171 46.1867 279.171 48.4C279.171 50.6133 278.725 52.3 277.831 53.46C276.951 54.62 275.758 55.2 274.251 55.2ZM274.251 53.76C275.318 53.76 276.125 53.3 276.671 52.38C277.231 51.46 277.511 50.1333 277.511 48.4C277.511 46.6533 277.231 45.3267 276.671 44.42C276.125 43.5 275.318 43.04 274.251 43.04C273.198 43.04 272.391 43.5 271.831 44.42C271.271 45.3267 270.991 46.6533 270.991 48.4C270.991 50.1333 271.271 51.46 271.831 52.38C272.391 53.3 273.198 53.76 274.251 53.76ZM284.453 41.6C285.426 41.6 286.199 41.9333 286.773 42.6C287.346 43.2533 287.633 44.1333 287.633 45.24C287.633 46.3333 287.346 47.2133 286.773 47.88C286.199 48.5467 285.426 48.88 284.453 48.88C283.479 48.88 282.706 48.5467 282.133 47.88C281.559 47.2133 281.273 46.3333 281.273 45.24C281.273 44.1333 281.559 43.2533 282.133 42.6C282.706 41.9333 283.479 41.6 284.453 41.6ZM284.073 55L292.473 41.8H293.993L285.593 55H284.073ZM284.453 42.86C283.879 42.86 283.439 43.0733 283.133 43.5C282.839 43.9133 282.693 44.4933 282.693 45.24C282.693 45.9867 282.839 46.5733 283.133 47C283.439 47.4133 283.879 47.62 284.453 47.62C285.026 47.62 285.459 47.4133 285.753 47C286.059 46.5733 286.213 45.9867 286.213 45.24C286.213 44.4933 286.059 43.9133 285.753 43.5C285.459 43.0733 285.026 42.86 284.453 42.86ZM293.613 47.92C294.586 47.92 295.359 48.2533 295.933 48.92C296.506 49.5733 296.793 50.4533 296.793 51.56C296.793 52.6533 296.506 53.5333 295.933 54.2C295.359 54.8667 294.586 55.2 293.613 55.2C292.639 55.2 291.866 54.8667 291.293 54.2C290.719 53.5333 290.433 52.6533 290.433 51.56C290.433 50.4533 290.719 49.5733 291.293 48.92C291.866 48.2533 292.639 47.92 293.613 47.92ZM293.613 49.18C293.039 49.18 292.599 49.3933 292.293 49.82C291.999 50.2333 291.853 50.8133 291.853 51.56C291.853 52.3067 291.999 52.8933 292.293 53.32C292.599 53.7333 293.039 53.94 293.613 53.94C294.186 53.94 294.619 53.7333 294.913 53.32C295.219 52.8933 295.373 52.3067 295.373 51.56C295.373 50.8133 295.219 50.2333 294.913 49.82C294.619 49.3933 294.186 49.18 293.613 49.18ZM299.102 58.78L298.182 57.86C299.502 56.6467 300.422 55.3467 300.942 53.96C301.475 52.5733 301.742 51.0467 301.742 49.38C301.742 47.7133 301.475 46.1867 300.942 44.8C300.422 43.4133 299.502 42.1133 298.182 40.9L299.102 39.98C301.955 42.4467 303.382 45.58 303.382 49.38C303.382 53.18 301.955 56.3133 299.102 58.78Z" fill="black"/>
<g clip-path="url(#clip1)">
<path d="M211.067 48.448V57.856H196.133V42.9226H209.435L211.781 40.7893H194V59.9893H213.2V46.4853L211.067 48.448Z" fill="#C4C4C4"/>
<path d="M214.875 40.0107L203.301 50.5281L199.675 46.9121L198.267 48.3201L203.397 53.4507L216.4 41.5041L214.875 40.0107Z" fill="#C4C4C4"/>
</g>
<rect x="228" y="63" width="60" height="4" rx="2" fill="#EDEDED"/>
<rect x="340.5" y="20.5" width="139" height="60" fill="white" stroke="#C4C4C4"/>
<path d="M393.94 41.6C395.047 41.6 395.98 41.8933 396.74 42.48C397.5 43.0533 398.073 43.8533 398.46 44.88C398.847 45.8933 399.04 47.0667 399.04 48.4C399.04 50.6133 398.607 52.3 397.74 53.46C396.887 54.62 395.627 55.2 393.96 55.2C392.867 55.2 391.927 54.9467 391.14 54.44C390.353 53.9333 389.767 53.1933 389.38 52.22L390.96 51.38C391.173 52.0733 391.52 52.6333 392 53.06C392.493 53.4867 393.167 53.7 394.02 53.7C394.94 53.7 395.66 53.46 396.18 52.98C396.7 52.5 397.06 51.82 397.26 50.94C397.473 50.06 397.58 49.0333 397.58 47.86V47.68H397.5C397.34 48.28 397.06 48.7667 396.66 49.14C396.26 49.5 395.807 49.76 395.3 49.92C394.807 50.08 394.313 50.16 393.82 50.16C392.953 50.16 392.187 49.9933 391.52 49.66C390.853 49.3133 390.333 48.8333 389.96 48.22C389.587 47.6067 389.4 46.88 389.4 46.04C389.4 44.6933 389.8 43.62 390.6 42.82C391.413 42.0067 392.527 41.6 393.94 41.6ZM393.96 43.14C393.027 43.14 392.313 43.4 391.82 43.92C391.327 44.4267 391.08 45.14 391.08 46.06C391.08 46.8467 391.34 47.4733 391.86 47.94C392.38 48.3933 393.08 48.62 393.96 48.62C394.827 48.62 395.52 48.3667 396.04 47.86C396.573 47.3533 396.84 46.7 396.84 45.9C396.84 45.0733 396.573 44.4067 396.04 43.9C395.52 43.3933 394.827 43.14 393.96 43.14ZM412.66 39.98L413.58 40.9C412.26 42.1133 411.333 43.4133 410.8 44.8C410.28 46.1867 410.02 47.7133 410.02 49.38C410.02 51.0467 410.28 52.5733 410.8 53.96C411.333 55.3467 412.26 56.6467 413.58 57.86L412.66 58.78C409.807 56.3133 408.38 53.18 408.38 49.38C408.38 45.58 409.807 42.4467 412.66 39.98ZM414.952 41.8H424.672V43.3C423.006 45.0467 421.799 46.88 421.052 48.8C420.319 50.7067 419.952 52.7733 419.952 55H418.312C418.312 52.8667 418.692 50.8067 419.452 48.82C420.226 46.82 421.386 44.98 422.932 43.3H414.952V41.8ZM429.343 41.6C430.317 41.6 431.09 41.9333 431.663 42.6C432.237 43.2533 432.523 44.1333 432.523 45.24C432.523 46.3333 432.237 47.2133 431.663 47.88C431.09 48.5467 430.317 48.88 429.343 48.88C428.37 48.88 427.597 48.5467 427.023 47.88C426.45 47.2133 426.163 46.3333 426.163 45.24C426.163 44.1333 426.45 43.2533 427.023 42.6C427.597 41.9333 428.37 41.6 429.343 41.6ZM428.963 55L437.363 41.8H438.883L430.483 55H428.963ZM429.343 42.86C428.77 42.86 428.33 43.0733 428.023 43.5C427.73 43.9133 427.583 44.4933 427.583 45.24C427.583 45.9867 427.73 46.5733 428.023 47C428.33 47.4133 428.77 47.62 429.343 47.62C429.917 47.62 430.35 47.4133 430.643 47C430.95 46.5733 431.103 45.9867 431.103 45.24C431.103 44.4933 430.95 43.9133 430.643 43.5C430.35 43.0733 429.917 42.86 429.343 42.86ZM438.503 47.92C439.477 47.92 440.25 48.2533 440.823 48.92C441.397 49.5733 441.683 50.4533 441.683 51.56C441.683 52.6533 441.397 53.5333 440.823 54.2C440.25 54.8667 439.477 55.2 438.503 55.2C437.53 55.2 436.757 54.8667 436.183 54.2C435.61 53.5333 435.323 52.6533 435.323 51.56C435.323 50.4533 435.61 49.5733 436.183 48.92C436.757 48.2533 437.53 47.92 438.503 47.92ZM438.503 49.18C437.93 49.18 437.49 49.3933 437.183 49.82C436.89 50.2333 436.743 50.8133 436.743 51.56C436.743 52.3067 436.89 52.8933 437.183 53.32C437.49 53.7333 437.93 53.94 438.503 53.94C439.077 53.94 439.51 53.7333 439.803 53.32C440.11 52.8933 440.263 52.3067 440.263 51.56C440.263 50.8133 440.11 50.2333 439.803 49.82C439.51 49.3933 439.077 49.18 438.503 49.18ZM443.992 58.78L443.072 57.86C444.392 56.6467 445.312 55.3467 445.832 53.96C446.366 52.5733 446.632 51.0467 446.632 49.38C446.632 47.7133 446.366 46.1867 445.832 44.8C445.312 43.4133 444.392 42.1133 443.072 40.9L443.992 39.98C446.846 42.4467 448.272 45.58 448.272 49.38C448.272 53.18 446.846 56.3133 443.992 58.78Z" fill="black"/>
<g clip-path="url(#clip2)">
<path d="M363.688 54.0625C364.119 54.0625 364.469 54.4122 364.469 54.8438C364.469 55.2753 364.119 55.625 363.688 55.625H362.594C362.162 55.625 361.812 55.2753 361.812 54.8438C361.812 54.4122 362.162 54.0625 362.594 54.0625H363.688ZM370.094 49.8828C370.094 49.4513 369.744 49.1016 369.312 49.1016H362.594C362.162 49.1016 361.812 49.4513 361.812 49.8828C361.812 50.3143 362.162 50.6641 362.594 50.6641H369.312C369.744 50.6641 370.094 50.3143 370.094 49.8828ZM362.594 45.9766H369.312C369.744 45.9766 370.094 45.6268 370.094 45.1953C370.094 44.7638 369.744 44.4141 369.312 44.4141H362.594C362.162 44.4141 361.812 44.7638 361.812 45.1953C361.812 45.6268 362.162 45.9766 362.594 45.9766ZM359.469 54.0625H358.688C358.256 54.0625 357.906 54.4122 357.906 54.8438C357.906 55.2753 358.256 55.625 358.688 55.625H359.469C359.9 55.625 360.25 55.2753 360.25 54.8438C360.25 54.4122 359.9 54.0625 359.469 54.0625ZM359.469 49.1016H358.688C358.256 49.1016 357.906 49.4513 357.906 49.8828C357.906 50.3143 358.256 50.6641 358.688 50.6641H359.469C359.9 50.6641 360.25 50.3143 360.25 49.8828C360.25 49.4513 359.9 49.1016 359.469 49.1016ZM359.469 44.4141H358.688C358.256 44.4141 357.906 44.7638 357.906 45.1953C357.906 45.6268 358.256 45.9766 358.688 45.9766H359.469C359.9 45.9766 360.25 45.6268 360.25 45.1953C360.25 44.7638 359.9 44.4141 359.469 44.4141ZM373.771 58.6662C374.076 58.9714 374.076 59.4661 373.771 59.7711C373.619 59.9237 373.419 60 373.219 60C373.019 60 372.819 59.9237 372.666 59.7713L371.345 58.4497C370.818 58.7642 370.203 58.9453 369.547 58.9453C367.608 58.9453 366.031 57.3682 366.031 55.4297C366.031 53.4912 367.608 51.9141 369.547 51.9141C371.485 51.9141 373.062 53.4912 373.062 55.4297C373.062 56.147 372.846 56.8146 372.476 57.3714L373.771 58.6662ZM369.547 57.3828C370.624 57.3828 371.5 56.5067 371.5 55.4297C371.5 54.3527 370.624 53.4766 369.547 53.4766C368.47 53.4766 367.594 54.3527 367.594 55.4297C367.594 56.5067 368.47 57.3828 369.547 57.3828ZM370.875 40H357.125C355.402 40 354 41.4018 354 43.125V56.875C354 58.5982 355.402 60 357.125 60H365.172C365.603 60 365.953 59.6503 365.953 59.2188C365.953 58.7872 365.603 58.4375 365.172 58.4375H357.125C356.263 58.4375 355.562 57.7365 355.562 56.875V43.125C355.562 42.2635 356.263 41.5625 357.125 41.5625H370.875C371.737 41.5625 372.438 42.2635 372.438 43.125V50.8594C372.438 51.2909 372.787 51.6406 373.219 51.6406C373.65 51.6406 374 51.2909 374 50.8594V43.125C374 41.4018 372.598 40 370.875 40Z" fill="#C4C4C4"/>
</g>
<rect x="388" y="63" width="60" height="4" rx="2" fill="#EDEDED"/>
<defs>
<filter id="filter0_d" x="294" y="219" width="199" height="373" filterUnits="userSpaceOnUse" color-interpolation-filters="sRGB">
<feFlood flood-opacity="0" result="BackgroundImageFix"/>
<feColorMatrix in="SourceAlpha" type="matrix" values="0 0 0 0 0 0 0 0 0 0 0 0 0 0 0 0 0 0 127 0" result="hardAlpha"/>
<feOffset dy="4"/>
<feGaussianBlur stdDeviation="8"/>
<feColorMatrix type="matrix" values="0 0 0 0 0 0 0 0 0 0 0 0 0 0 0 0 0 0 0.15 0"/>
<feBlend mode="normal" in2="BackgroundImageFix" result="effect1_dropShadow"/>
<feBlend mode="normal" in="SourceGraphic" in2="effect1_dropShadow" result="shape"/>
</filter>
<filter id="filter1_d" x="20" y="73" width="459" height="275" filterUnits="userSpaceOnUse" color-interpolation-filters="sRGB">
<feFlood flood-opacity="0" result="BackgroundImageFix"/>
<feColorMatrix in="SourceAlpha" type="matrix" values="0 0 0 0 0 0 0 0 0 0 0 0 0 0 0 0 0 0 127 0" result="hardAlpha"/>
<feOffset dy="4"/>
<feGaussianBlur stdDeviation="15"/>
<feColorMatrix type="matrix" values="0 0 0 0 0 0 0 0 0 0 0 0 0 0 0 0 0 0 0.15 0"/>
<feBlend mode="normal" in2="BackgroundImageFix" result="effect1_dropShadow"/>
<feBlend mode="normal" in="SourceGraphic" in2="effect1_dropShadow" result="shape"/>
</filter>
<clipPath id="clip0">
<rect width="20" height="20" fill="white" transform="translate(33 40)"/>
</clipPath>
<clipPath id="clip1">
<rect width="22.4" height="20" fill="white" transform="translate(194 40)"/>
</clipPath>
<clipPath id="clip2">
<rect width="20" height="20" fill="white" transform="translate(354 40)"/>
</clipPath>
</defs>
</svg>
