<svg width="500" height="500" viewBox="0 0 500 500" fill="none" xmlns="http://www.w3.org/2000/svg">
<path d="M411.44 108.87C394.44 91.2504 374.96 76.6104 354.26 66.3504C322.73 50.7204 288 43.1904 253.26 42.7404C151.76 41.4404 144 167.8 112.83 185.37C81.66 202.94 25.05 205 23.1 275.28C21.87 319.49 31.61 364.94 58.99 399.38C84.07 430.92 120.92 446.91 157.21 458.72C198 472 241.21 485 284.08 476.05C328.08 466.86 359 429.94 395.13 404.99C417.88 389.28 438.3 372.74 452.35 347.53C454.03 344.53 455.6 341.45 457.1 338.33C475.91 299.16 479.59 253.98 469.22 211.59C459.92 173.56 438.91 137.33 411.44 108.87Z" fill="#4779A8"/>
<path opacity="0.7" d="M411.44 108.87C394.44 91.2504 374.96 76.6104 354.26 66.3504C322.73 50.7204 288 43.1904 253.26 42.7404C151.76 41.4404 144 167.8 112.83 185.37C81.66 202.94 25.05 205 23.1 275.28C21.87 319.49 31.61 364.94 58.99 399.38C84.07 430.92 120.92 446.91 157.21 458.72C198 472 241.21 485 284.08 476.05C328.08 466.86 359 429.94 395.13 404.99C417.88 389.28 438.3 372.74 452.35 347.53C454.03 344.53 455.6 341.45 457.1 338.33C475.91 299.16 479.59 253.98 469.22 211.59C459.92 173.56 438.91 137.33 411.44 108.87Z" fill="white"/>
<path d="M329.11 58.3105H323.75V81.1305H329.11V58.3105Z" fill="#4779A8" stroke="#263238" stroke-linecap="round" stroke-linejoin="round"/>
<path d="M334.35 86.0199H318.51L320.38 77.1699H332.48L334.35 86.0199Z" fill="#4779A8" stroke="#263238" stroke-linecap="round" stroke-linejoin="round"/>
<path d="M343.89 89.7398H308.97L312.69 81.5898H340.17L343.89 89.7398Z" fill="#4779A8" stroke="#263238" stroke-linecap="round" stroke-linejoin="round"/>
<path d="M308.73 34.1488C306.232 34.1011 303.777 34.7982 301.677 36.1512C299.577 37.5042 297.927 39.4519 296.938 41.746C295.949 44.0401 295.665 46.5767 296.123 49.0326C296.581 51.4885 297.76 53.7524 299.509 55.5358C301.259 57.3192 303.5 58.5414 305.946 59.0466C308.393 59.5518 310.934 59.3171 313.247 58.3724C315.56 57.4277 317.539 55.8158 318.932 53.7421C320.325 51.6685 321.07 49.227 321.07 46.7288C321.086 45.0925 320.779 43.4691 320.168 41.9513C319.556 40.4335 318.651 39.0511 317.506 37.8829C316.36 36.7147 314.995 35.7837 313.489 35.143C311.983 34.5023 310.366 34.1645 308.73 34.1488ZM308.73 56.1488C306.868 56.1825 305.037 55.661 303.472 54.6506C301.907 53.6402 300.679 52.1867 299.943 50.4754C299.207 48.7641 298.997 46.8725 299.341 45.0416C299.684 43.2107 300.565 41.5235 301.87 40.195C303.176 38.8665 304.848 37.9569 306.673 37.5821C308.497 37.2073 310.392 37.3843 312.116 38.0906C313.84 38.7968 315.314 40.0002 316.351 41.5476C317.389 43.0949 317.942 44.916 317.94 46.7788C317.948 49.234 316.984 51.5926 315.258 53.339C313.532 55.0854 311.185 56.0776 308.73 56.0988V56.1488Z" fill="#4779A8" stroke="#263238" stroke-linecap="round" stroke-linejoin="round"/>
<path d="M346 34.1488C343.502 34.1011 341.047 34.7982 338.947 36.1512C336.847 37.5042 335.197 39.4519 334.208 41.746C333.219 44.0401 332.935 46.5767 333.393 49.0326C333.851 51.4885 335.03 53.7524 336.779 55.5358C338.529 57.3192 340.77 58.5414 343.216 59.0466C345.663 59.5518 348.204 59.3171 350.517 58.3724C352.83 57.4277 354.809 55.8158 356.202 53.7421C357.595 51.6685 358.34 49.227 358.34 46.7288C358.356 45.0925 358.049 43.4691 357.438 41.9513C356.826 40.4335 355.921 39.0511 354.776 37.8829C353.63 36.7147 352.265 35.7837 350.759 35.143C349.253 34.5023 347.636 34.1645 346 34.1488ZM346 56.1488C344.137 56.1845 342.306 55.6647 340.74 54.6555C339.173 53.6464 337.943 52.1936 337.206 50.4825C336.468 48.7714 336.257 46.8795 336.6 45.048C336.942 43.2165 337.822 41.5283 339.127 40.1988C340.432 38.8693 342.104 37.9587 343.929 37.5831C345.754 37.2075 347.649 37.3838 349.374 38.0897C351.098 38.7956 352.573 39.9991 353.611 41.5466C354.648 43.0941 355.202 44.9156 355.2 46.7788C355.208 49.2323 354.245 51.5894 352.521 53.3355C350.798 55.0817 348.453 56.075 346 56.0988V56.1488Z" fill="#4779A8" stroke="#263238" stroke-linecap="round" stroke-linejoin="round"/>
<path d="M326.43 64.5897C324.382 64.591 322.353 64.1887 320.461 63.4058C318.568 62.623 316.848 61.4748 315.4 60.027C313.951 58.5792 312.802 56.8602 312.018 54.968C311.234 53.0759 310.83 51.0478 310.83 48.9997V32.9297H342V48.9997C342 53.1309 340.36 57.0933 337.441 60.0164C334.521 62.9395 330.561 64.5844 326.43 64.5897Z" fill="#4779A8" stroke="#263238" stroke-linecap="round" stroke-linejoin="round"/>
<path d="M326 38.0605L328.01 44.2405H334.51L329.25 48.0605L331.26 54.2405L326 50.4205L320.74 54.2405L322.75 48.0605L317.49 44.2405H323.99L326 38.0605Z" fill="#263238"/>
<path d="M377.96 89.8203H275.56V183.18H377.96V89.8203Z" fill="#263238" stroke="#263238" stroke-linejoin="round"/>
<path d="M343.62 89.8203H275.56V183.18H343.62V89.8203Z" fill="white" stroke="#263238" stroke-linejoin="round"/>
<path d="M299.13 136.201H196.73V229.561H299.13V136.201Z" fill="#263238" stroke="#263238" stroke-linejoin="round"/>
<path d="M264.79 136.201H196.73V229.561H264.79V136.201Z" fill="white" stroke="#263238" stroke-linejoin="round"/>
<path d="M243 162.65V155.19H238.33C237.974 153.888 237.442 152.639 236.75 151.48L239.64 148.58L234.36 143.3L231.48 146.18C230.188 145.397 228.786 144.814 227.32 144.45V141H219.85V144.45C218.237 144.864 216.704 145.54 215.31 146.45L213.25 144.39L208 149.64L210.23 151.87C209.396 153.365 208.825 154.992 208.54 156.68H205.7V164.15H209.1C209.617 165.694 210.377 167.145 211.35 168.45L209.05 170.75L214.3 176L217.15 173.15C218.482 173.77 219.897 174.195 221.35 174.41V178.3H228.81V173.65C230.05 173.2 231.226 172.592 232.31 171.84L235.42 174.95L240.7 169.67L237.23 166.2C237.809 165.066 238.242 163.863 238.52 162.62L243 162.65ZM223.59 168.65C221.742 168.652 219.935 168.106 218.398 167.081C216.861 166.056 215.662 164.598 214.954 162.891C214.245 161.185 214.059 159.306 214.418 157.494C214.777 155.682 215.666 154.016 216.972 152.709C218.278 151.402 219.942 150.511 221.754 150.15C223.566 149.789 225.445 149.973 227.152 150.68C228.859 151.387 230.318 152.584 231.345 154.12C232.372 155.656 232.92 157.462 232.92 159.31C232.915 161.782 231.93 164.151 230.181 165.898C228.432 167.645 226.062 168.627 223.59 168.63V168.65Z" fill="#4779A8"/>
<path d="M249.83 192.251V186.761H246.4C246.13 185.803 245.737 184.886 245.23 184.031L247.36 181.901L243.48 178.001L241.36 180.121C240.41 179.545 239.378 179.117 238.3 178.851V176.311H232.81V178.851C231.624 179.146 230.496 179.636 229.47 180.301L228 178.801L224.12 182.681L225.76 184.321C225.149 185.423 224.727 186.619 224.51 187.861H222.43V193.351H224.93C225.308 194.485 225.865 195.552 226.58 196.511L224.89 198.201L228.77 202.081L230.87 199.991C231.848 200.441 232.885 200.75 233.95 200.911V203.771H239.44V200.361C240.348 200.018 241.208 199.561 242 199.001L244.29 201.291L248.17 197.411L245.62 194.861C246.044 194.027 246.36 193.144 246.56 192.231L249.83 192.251ZM235.56 196.641C234.203 196.641 232.877 196.238 231.749 195.484C230.621 194.731 229.741 193.659 229.222 192.406C228.703 191.152 228.567 189.773 228.832 188.442C229.097 187.112 229.75 185.889 230.709 184.93C231.669 183.97 232.891 183.317 234.222 183.052C235.552 182.788 236.932 182.924 238.185 183.443C239.439 183.962 240.51 184.841 241.264 185.969C242.018 187.097 242.42 188.424 242.42 189.781C242.42 190.681 242.243 191.573 241.898 192.406C241.553 193.238 241.048 193.994 240.411 194.631C239.774 195.268 239.018 195.774 238.185 196.118C237.353 196.463 236.461 196.641 235.56 196.641Z" fill="#4779A8"/>
<path d="M355.75 196.439H253.35V289.799H355.75V196.439Z" fill="#263238" stroke="#263238" stroke-linejoin="round"/>
<path d="M321.41 196.439H253.35V289.799H321.41V196.439Z" fill="white" stroke="#263238" stroke-linejoin="round"/>
<path d="M304.73 212.7L298.82 208.34C297.703 207.514 296.362 207.048 294.974 207.004C293.586 206.959 292.217 207.338 291.05 208.09L279.33 215.09C278.711 215.469 278.258 216.066 278.058 216.763C277.858 217.461 277.927 218.208 278.251 218.857C278.575 219.506 279.13 220.01 279.808 220.27C280.485 220.53 281.235 220.526 281.91 220.26L292.86 216.5L306 230.1L314.17 227.25V210.62L304.73 212.7Z" fill="#4779A8"/>
<path d="M291.41 218.34L280.5 222.1C278.5 222.96 276.33 219.64 276.33 217.48C276.33 214.69 278.99 213.92 281.08 212.07L283.08 210.31C282.002 209.329 280.655 208.695 279.213 208.488C277.771 208.281 276.3 208.512 274.99 209.15C271.849 210.689 268.236 210.961 264.9 209.91L262 209V227.48L265.7 227.94L266.05 227.64C267.259 226.603 268.823 226.075 270.414 226.166C272.004 226.257 273.497 226.961 274.58 228.13L287.7 242.24C287.997 242.558 288.404 242.751 288.839 242.781C289.273 242.811 289.702 242.674 290.04 242.4C290.218 242.254 290.365 242.073 290.471 241.869C290.578 241.664 290.642 241.44 290.659 241.211C290.677 240.981 290.648 240.75 290.574 240.532C290.501 240.313 290.383 240.112 290.23 239.94L286.95 236.26L291.5 239.26C291.939 239.525 292.458 239.624 292.964 239.538C293.469 239.452 293.927 239.188 294.254 238.793C294.581 238.398 294.756 237.899 294.746 237.387C294.736 236.874 294.542 236.382 294.2 236L291.56 233.26L295.56 235.79C296.042 236.081 296.611 236.19 297.166 236.098C297.721 236.006 298.225 235.719 298.587 235.288C298.949 234.858 299.145 234.312 299.14 233.749C299.135 233.187 298.93 232.644 298.56 232.22L296.19 229.57L300.53 232.2C300.857 232.398 301.237 232.49 301.619 232.463C302 232.437 302.364 232.292 302.66 232.05C302.863 231.884 303.029 231.678 303.146 231.443C303.263 231.209 303.329 230.952 303.339 230.69C303.35 230.428 303.304 230.167 303.206 229.924C303.108 229.681 302.959 229.461 302.77 229.28L291.41 218.34Z" fill="#4779A8"/>
<path d="M271 234.631L272.68 232.511C273.018 232.054 273.165 231.484 273.091 230.92C273.016 230.357 272.726 229.845 272.281 229.492C271.835 229.139 271.27 228.972 270.705 229.028C270.139 229.084 269.618 229.357 269.25 229.791L267.57 231.911C267.232 232.367 267.084 232.938 267.159 233.501C267.234 234.064 267.524 234.577 267.969 234.93C268.415 235.283 268.98 235.449 269.545 235.393C270.111 235.337 270.632 235.064 271 234.631Z" fill="#4779A8"/>
<path d="M274.24 237.719L275.92 235.599C276.237 235.142 276.368 234.58 276.286 234.029C276.204 233.478 275.915 232.979 275.478 232.634C275.04 232.288 274.488 232.123 273.933 232.17C273.378 232.218 272.862 232.475 272.49 232.889L270.81 234.999C270.493 235.457 270.362 236.019 270.444 236.57C270.526 237.121 270.815 237.62 271.252 237.965C271.69 238.31 272.242 238.476 272.797 238.429C273.352 238.381 273.868 238.124 274.24 237.709V237.719Z" fill="#4779A8"/>
<path d="M277.45 240.81L279.12 238.7C279.458 238.243 279.605 237.673 279.531 237.11C279.456 236.546 279.166 236.034 278.721 235.681C278.275 235.328 277.71 235.162 277.145 235.218C276.579 235.273 276.058 235.547 275.69 235.98L274 238.1C273.641 238.554 273.476 239.132 273.541 239.707C273.607 240.283 273.898 240.809 274.35 241.17C274.576 241.352 274.837 241.487 275.116 241.568C275.395 241.648 275.687 241.673 275.975 241.639C276.264 241.606 276.543 241.515 276.796 241.373C277.049 241.23 277.271 241.039 277.45 240.81Z" fill="#4779A8"/>
<path d="M282 238.721C281.775 238.542 281.517 238.41 281.241 238.331C280.965 238.253 280.675 238.229 280.39 238.263C280.105 238.296 279.829 238.386 279.578 238.526C279.328 238.667 279.107 238.855 278.93 239.081L277.25 241.191C277.06 241.415 276.917 241.675 276.829 241.955C276.742 242.236 276.712 242.531 276.74 242.823C276.769 243.115 276.857 243.399 276.997 243.657C277.138 243.914 277.329 244.141 277.559 244.324C277.789 244.506 278.054 244.641 278.337 244.719C278.62 244.797 278.916 244.818 279.207 244.779C279.498 244.741 279.779 244.644 280.032 244.495C280.285 244.346 280.505 244.147 280.68 243.911L282.36 241.791C282.539 241.566 282.671 241.308 282.75 241.032C282.828 240.756 282.852 240.467 282.818 240.181C282.785 239.896 282.695 239.62 282.555 239.369C282.414 239.119 282.226 238.899 282 238.721Z" fill="#4779A8"/>
<path d="M266.6 256.07H164.2V349.43H266.6V256.07Z" fill="#263238" stroke="#263238" stroke-linejoin="round"/>
<path d="M232.26 256.07H164.2V349.43H232.26V256.07Z" fill="white" stroke="#263238" stroke-linejoin="round"/>
<path d="M182.02 302.84H174.49V315.33H182.02V302.84Z" fill="#4779A8"/>
<path d="M191.16 297.5H183.63V315.34H191.16V297.5Z" fill="#4779A8"/>
<path d="M200.31 293.85H192.78V315.33H200.31V293.85Z" fill="#4779A8"/>
<path d="M209.45 288.99H201.92V315.34H209.45V288.99Z" fill="#4779A8"/>
<path d="M205 281.15L198.93 283.05L200.54 284.53L196.23 289.23L186.11 291.15L175.47 299.32C175.259 299.481 175.121 299.719 175.085 299.981C175.05 300.244 175.12 300.509 175.28 300.72C175.442 300.929 175.68 301.066 175.943 301.1C176.205 301.133 176.47 301.062 176.68 300.9L187 293L197.3 291L202.06 285.82L203.67 287.3L205 281.15Z" fill="#4779A8"/>
<path d="M328.65 326.939H226.25V420.299H328.65V326.939Z" fill="#263238" stroke="#263238" stroke-linejoin="round"/>
<path d="M294.31 326.939H226.25V420.299H294.31V326.939Z" fill="white" stroke="#263238" stroke-linejoin="round"/>
<path d="M271.26 359.89L265 355.76V354.58C266.326 352.819 267.064 350.685 267.11 348.48C267.11 343.07 264.9 342.48 262.16 342.48C259.42 342.48 257.21 343.66 257.21 348.48C257.262 350.732 258.033 352.908 259.41 354.69V355.38L252.55 359.89C251.975 360.269 251.503 360.784 251.177 361.389C250.85 361.995 250.68 362.672 250.68 363.36V364.84L261.58 369.62L273.16 364.84V363.36C273.157 362.67 272.982 361.99 272.65 361.384C272.318 360.779 271.841 360.265 271.26 359.89Z" fill="#4779A8"/>
<path d="M278.13 353.8C278.137 350.694 277.251 347.651 275.578 345.034C273.905 342.417 271.515 340.335 268.693 339.037C265.871 337.74 262.735 337.28 259.659 337.713C256.583 338.146 253.696 339.454 251.342 341.481C248.989 343.508 247.267 346.169 246.382 349.147C245.497 352.124 245.486 355.293 246.351 358.277C247.215 361.261 248.919 363.933 251.259 365.976C253.599 368.019 256.477 369.346 259.55 369.8V382.59C259.088 382.911 258.71 383.339 258.449 383.837C258.188 384.335 258.051 384.888 258.05 385.451V407.15C258.05 408.079 258.419 408.969 259.075 409.625C259.731 410.282 260.622 410.65 261.55 410.65C262.478 410.65 263.368 410.282 264.025 409.625C264.681 408.969 265.05 408.079 265.05 407.15V385.451C265.051 384.888 264.916 384.333 264.654 383.835C264.393 383.336 264.014 382.909 263.55 382.59V369.93C267.545 369.522 271.247 367.647 273.94 364.668C276.633 361.689 278.126 357.817 278.13 353.8ZM248.71 353.8C248.708 351.187 249.481 348.632 250.931 346.459C252.382 344.285 254.444 342.59 256.858 341.589C259.271 340.588 261.928 340.325 264.491 340.833C267.054 341.342 269.409 342.599 271.257 344.446C273.106 346.293 274.365 348.647 274.875 351.21C275.386 353.772 275.125 356.429 274.125 358.843C273.126 361.258 271.433 363.322 269.26 364.774C267.088 366.225 264.533 367 261.92 367C258.42 366.995 255.064 365.603 252.588 363.129C250.113 360.655 248.718 357.301 248.71 353.8Z" fill="#4779A8"/>
<path d="M206.07 394.301H103.67V487.661H206.07V394.301Z" fill="#263238" stroke="#263238" stroke-linejoin="round"/>
<path d="M171.73 394.301H103.67V487.661H171.73V394.301Z" fill="white" stroke="#263238" stroke-linejoin="round"/>
<path d="M161.51 451.631C161.509 450.941 161.337 450.261 161.009 449.654C160.681 449.047 160.207 448.53 159.63 448.151L153.34 444.001V442.821C154.669 441.06 155.41 438.926 155.46 436.721C155.46 431.321 153.24 430.721 150.46 430.721C147.68 430.721 145.51 431.901 145.51 436.721C145.555 438.974 146.326 441.152 147.71 442.931V443.631L140.85 448.131C140.273 448.51 139.799 449.027 139.471 449.634C139.143 450.241 138.971 450.921 138.97 451.611V455.391C138.384 455.278 137.787 455.228 137.19 455.241C136.676 455.234 136.163 455.284 135.66 455.391V451.611C135.659 450.921 135.487 450.241 135.159 449.634C134.831 449.027 134.357 448.51 133.78 448.131L127.54 444.001V442.821C128.869 441.06 129.61 438.926 129.66 436.721C129.66 432.571 128.35 431.251 126.49 430.861L129.7 427.201H135.15L136.61 448.111H137.26L139.36 427.191H146.76L149.57 430.431L149.38 427.191H153V399.871H122.39V427.221H126.85L126.44 430.871C125.869 430.772 125.29 430.725 124.71 430.731C121.97 430.731 119.76 431.911 119.76 436.731C119.803 439.009 120.59 441.211 122 443.001V443.701L115.14 448.201C114.563 448.58 114.089 449.097 113.761 449.704C113.433 450.311 113.261 450.991 113.26 451.681V458.001H132.83C132.466 459.059 132.296 460.173 132.33 461.291C132.378 463.544 133.149 465.721 134.53 467.501V468.191L127.67 472.701C127.093 473.077 126.618 473.592 126.29 474.198C125.962 474.804 125.79 475.482 125.79 476.171V482.521H148.28V476.171C148.28 475.482 148.108 474.804 147.78 474.198C147.452 473.592 146.977 473.077 146.4 472.701L140.11 468.571V467.391C141.439 465.63 142.18 463.496 142.23 461.291C142.26 460.18 142.122 459.071 141.82 458.001H161.55L161.51 451.631ZM123.05 426.561V400.561H152.36V426.561H148.69L148.8 428.561L147.06 426.561H138.76L137 444.231L135.77 426.561H129.4L127.32 429.001L127.58 426.611L123.05 426.561Z" fill="#4779A8"/>
<path d="M134.24 421.629H140.96V420.609H134.25L134.24 421.629Z" fill="#4779A8"/>
<path d="M134.7 423.421H140.5C140.794 423.115 140.959 422.706 140.96 422.281H134.24C134.241 422.706 134.406 423.115 134.7 423.421Z" fill="#4779A8"/>
<path d="M136.74 425.599H138.44C138.659 425.601 138.876 425.559 139.078 425.476C139.281 425.393 139.465 425.271 139.62 425.117C139.775 424.963 139.899 424.779 139.983 424.577C140.067 424.375 140.11 424.158 140.11 423.939H135.11C135.107 424.375 135.277 424.795 135.583 425.106C135.888 425.417 136.304 425.594 136.74 425.599Z" fill="#4779A8"/>
<path d="M133.26 415.511C134.25 416.705 134.791 418.209 134.79 419.761V420.071H140.43V419.761C140.429 418.207 140.974 416.703 141.97 415.511C142.829 414.492 143.3 413.203 143.3 411.871C143.3 411.093 143.141 410.323 142.831 409.61C142.522 408.897 142.069 408.254 141.5 407.724C140.932 407.193 140.26 406.784 139.527 406.524C138.795 406.264 138.016 406.157 137.24 406.211C136.194 406.278 135.188 406.634 134.332 407.238C133.476 407.843 132.803 408.672 132.389 409.635C131.975 410.597 131.836 411.656 131.986 412.693C132.136 413.73 132.57 414.705 133.24 415.511H133.26Z" fill="#4779A8"/>
<path d="M144.18 411.911C144.18 412.054 144.237 412.192 144.338 412.293C144.439 412.394 144.577 412.451 144.72 412.451H147.57C147.713 412.451 147.851 412.394 147.952 412.293C148.053 412.192 148.11 412.054 148.11 411.911C148.11 411.768 148.053 411.631 147.952 411.529C147.851 411.428 147.713 411.371 147.57 411.371H144.72C144.577 411.371 144.439 411.428 144.338 411.529C144.237 411.631 144.18 411.768 144.18 411.911Z" fill="#4779A8"/>
<path d="M130.84 411.911C130.84 411.768 130.783 411.631 130.682 411.529C130.581 411.428 130.443 411.371 130.3 411.371H127.42C127.277 411.371 127.139 411.428 127.038 411.529C126.937 411.631 126.88 411.768 126.88 411.911C126.88 412.054 126.937 412.192 127.038 412.293C127.139 412.394 127.277 412.451 127.42 412.451H130.3C130.443 412.451 130.581 412.394 130.682 412.293C130.783 412.192 130.84 412.054 130.84 411.911Z" fill="#4779A8"/>
<path d="M137.51 405.231C137.653 405.231 137.791 405.174 137.892 405.073C137.993 404.972 138.05 404.834 138.05 404.691V401.831C138.051 401.761 138.039 401.691 138.013 401.625C137.987 401.56 137.948 401.5 137.898 401.45C137.849 401.399 137.79 401.36 137.725 401.332C137.66 401.305 137.59 401.291 137.52 401.291C137.379 401.294 137.244 401.352 137.145 401.453C137.045 401.554 136.99 401.689 136.99 401.831V404.681C136.99 404.822 137.044 404.957 137.14 405.06C137.237 405.162 137.369 405.223 137.51 405.231Z" fill="#4779A8"/>
<path d="M142.66 407.29C142.803 407.288 142.939 407.231 143.04 407.13L145.04 405.13C145.091 405.081 145.131 405.022 145.159 404.956C145.186 404.891 145.201 404.821 145.201 404.75C145.201 404.679 145.186 404.609 145.159 404.544C145.131 404.479 145.091 404.42 145.04 404.37C144.937 404.269 144.799 404.213 144.655 404.213C144.511 404.213 144.373 404.269 144.27 404.37L142.27 406.37C142.17 406.471 142.114 406.608 142.114 406.75C142.114 406.892 142.17 407.029 142.27 407.13C142.376 407.23 142.515 407.287 142.66 407.29Z" fill="#4779A8"/>
<path d="M132 416.66L130 418.66C129.9 418.761 129.844 418.897 129.844 419.04C129.844 419.182 129.9 419.319 130 419.42C130.049 419.471 130.108 419.511 130.174 419.538C130.239 419.566 130.309 419.58 130.38 419.58C130.451 419.58 130.521 419.566 130.586 419.538C130.651 419.511 130.711 419.471 130.76 419.42L132.76 417.42C132.845 417.316 132.888 417.185 132.882 417.051C132.875 416.917 132.819 416.79 132.724 416.695C132.63 416.6 132.503 416.544 132.369 416.538C132.235 416.531 132.104 416.575 132 416.66Z" fill="#4779A8"/>
<path d="M131.9 407.071C131.951 407.122 132.012 407.163 132.079 407.19C132.146 407.218 132.218 407.231 132.29 407.231C132.396 407.23 132.5 407.198 132.588 407.138C132.676 407.079 132.745 406.995 132.785 406.897C132.826 406.798 132.837 406.69 132.816 406.586C132.796 406.482 132.745 406.386 132.67 406.311L130.76 404.401C130.712 404.342 130.653 404.295 130.585 404.261C130.518 404.227 130.444 404.207 130.369 404.204C130.294 404.2 130.219 404.212 130.148 404.239C130.078 404.266 130.014 404.308 129.961 404.361C129.907 404.415 129.866 404.478 129.839 404.549C129.812 404.619 129.8 404.694 129.803 404.77C129.807 404.845 129.826 404.919 129.86 404.986C129.894 405.053 129.942 405.113 130 405.161L131.9 407.071Z" fill="#4779A8"/>
<path d="M143.09 416.751C142.987 416.65 142.849 416.594 142.705 416.594C142.561 416.594 142.423 416.65 142.32 416.751C142.22 416.852 142.164 416.989 142.164 417.131C142.164 417.273 142.22 417.41 142.32 417.511L144.22 419.411C144.269 419.462 144.328 419.502 144.394 419.53C144.459 419.557 144.529 419.572 144.6 419.572C144.671 419.572 144.741 419.557 144.806 419.53C144.871 419.502 144.931 419.462 144.98 419.411C145.08 419.31 145.136 419.173 145.136 419.031C145.136 418.889 145.08 418.752 144.98 418.651L143.09 416.751Z" fill="#4779A8"/>
<path d="M178.24 183.941C178.24 183.941 181.51 187.691 181.02 189.001C180.685 190.281 180.521 191.599 180.53 192.921C180.53 192.921 184.77 195.211 184.77 196.351C184.614 197.434 184.276 198.482 183.77 199.451C183.77 199.451 184.77 205.981 184.1 207.611C183.43 209.241 176.42 210.391 176.42 210.391L173.81 218.391L158.81 213.821L161.26 205.821C161.26 205.821 157.51 196.351 156.85 193.251C156.19 190.151 160.93 184.101 166.85 182.631C170.689 181.844 174.68 182.303 178.24 183.941Z" fill="white" stroke="#263238" stroke-linejoin="round"/>
<path d="M173.18 198.801C173.18 198.801 175.79 198.961 175.47 197.651C175.15 196.341 174.16 195.651 174.65 195.041C175.14 194.431 178.24 192.431 177.26 191.121C176.28 189.811 173.34 188.841 174.65 187.371C175.96 185.901 183.47 182.631 183.47 182.631C183.47 182.631 175.79 179.041 174.65 179.041C173.51 179.041 179.22 177.251 177.26 175.781C175.3 174.311 162.73 174.311 157.67 181.001C152.61 187.691 153.26 191.611 155.22 197.161C157.18 202.711 160.93 209.251 162.89 209.741C164.85 210.231 171.38 210.551 171.71 208.271C172.04 205.991 173.18 198.801 173.18 198.801Z" fill="#263238" stroke="#263238" stroke-linejoin="round"/>
<path d="M175.3 200.27C175.3 200.27 170.68 194.56 170.4 196.74C170.12 198.92 171.76 206.74 174.75 204.89" fill="white"/>
<path d="M175.3 200.27C175.3 200.27 170.68 194.56 170.4 196.74C170.12 198.92 171.76 206.74 174.75 204.89" stroke="#263238" stroke-linejoin="round"/>
<path d="M149.67 216.92C149.67 216.92 153.26 218.06 161.91 219.86C170.56 221.66 177.91 223.45 177.91 223.45C177.91 223.45 175.63 216.59 173.18 215.29C170.73 213.99 157.67 211.37 156.04 211.53C154.41 211.69 149.67 216.92 149.67 216.92Z" fill="white" stroke="#263238" stroke-linejoin="round"/>
<path d="M205 262.471C205 262.471 219.86 249.091 220.67 248.271C221.48 247.451 219.67 241.091 219.67 240.111C219.67 239.131 223.1 237.491 223.1 237.491C223.1 237.491 223.59 234.881 225.22 234.881C226.85 234.881 229.63 237.001 229.63 237.001L229.96 238.801C229.96 238.801 232.24 243.861 232.24 244.681C232.013 246.416 231.21 248.026 229.96 249.251C228.33 250.881 224.57 254.311 224.57 254.311C224.57 254.311 211.51 271.941 208.57 274.391C205.63 276.841 201.71 279.451 200.24 276.521C198.77 273.591 205 262.471 205 262.471Z" fill="white" stroke="#263238" stroke-linejoin="round"/>
<path d="M223.14 237.49L223.63 238.8L222.32 239.78" stroke="#263238" stroke-linejoin="round"/>
<path d="M111.14 243.371C111.14 243.371 105.42 249.251 105.75 251.701C106.08 254.151 119.3 281.411 119.3 281.411C119.3 281.411 120.3 285.501 120.93 285.821C121.56 286.141 123.05 288.601 123.05 288.601C123.05 288.601 123.05 290.721 125.5 288.431C127.95 286.141 131.38 283.541 131.22 281.431C131.028 280.023 130.399 278.711 129.42 277.681C129.42 277.681 128.61 275.681 127.79 275.561C126.97 275.441 123.22 275.391 123.22 275.391L119 253.171L111.14 243.371Z" fill="white" stroke="#263238" stroke-linejoin="round"/>
<path d="M124.52 279.29L126.65 280.43C126.65 280.43 124.03 284.35 125.01 285.17C125.99 285.99 128.93 280.11 129.26 279.29C129.59 278.47 128.77 277.66 128.77 277.66" fill="white"/>
<path d="M124.52 279.29L126.65 280.43C126.65 280.43 124.03 284.35 125.01 285.17C125.99 285.99 128.93 280.11 129.26 279.29C129.59 278.47 128.77 277.66 128.77 277.66" stroke="#263238" stroke-linejoin="round"/>
<path d="M125.83 280.762L121.58 284.522" stroke="#263238" stroke-linejoin="round"/>
<path d="M132.8 363.111L122.21 372.291C122.615 373.363 123.36 374.272 124.33 374.881C125.74 375.591 131.86 381.481 133.74 382.651C137.129 384.805 141.028 386.022 145.04 386.181C150.04 386.181 150.93 384.301 150.93 383.591C150.93 382.881 141.28 376.531 141.28 376.531L139.16 368.061L132.8 363.111Z" fill="white" stroke="#263238" stroke-linejoin="round"/>
<path d="M124.34 370.451L122.21 372.291C122.615 373.363 123.36 374.272 124.33 374.881C125.74 375.591 131.86 381.481 133.74 382.651C137.129 384.804 141.028 386.022 145.04 386.181C147.94 386.181 149.45 385.541 150.22 384.861C148.085 384.351 145.916 383.997 143.73 383.801C140.49 383.801 136.92 380.891 136.92 380.891L124.34 370.451Z" fill="white" stroke="#263238" stroke-linejoin="round"/>
<path d="M129.42 271.451C129.42 271.451 127.12 283.451 129.19 287.241C130.851 290.116 132.695 292.882 134.71 295.521L164.05 333.141L132.3 363.861L139.63 371.351C139.63 371.351 179.63 338.351 182 336.941C184.37 335.531 182 323.821 181.31 322.791C180.62 321.761 166.83 291.591 166.83 291.591L168.12 278.151L129.42 271.451Z" fill="#263238" stroke="#263238" stroke-linejoin="round"/>
<path d="M150.7 379.431C150.7 379.431 157.83 387.371 158.97 388.181C160.11 388.991 168.2 393.691 168.2 393.691C168.2 393.691 168.04 394.821 167.39 394.991C166.74 395.161 150.7 395.311 149.57 395.151C148.44 394.991 139 390.001 137.9 389.471C136.283 388.585 134.714 387.614 133.2 386.561L140.33 375.051L150.7 379.431Z" fill="white" stroke="#263238" stroke-linejoin="round"/>
<path d="M138.63 293.002L145.43 297.872L155.16 329.712L138.63 376.392L153.01 380.392L153.94 375.172L156.8 369.692C156.8 369.692 174.36 331.172 174.6 328.012C174.84 324.852 166.83 291.552 166.83 291.552L165.37 277.452L140.08 275.012" fill="#263238"/>
<path d="M138.63 293.002L145.43 297.872L155.16 329.712L138.63 376.392L153.01 380.392L153.94 375.172L156.8 369.692C156.8 369.692 174.36 331.172 174.6 328.012C174.84 324.852 166.83 291.552 166.83 291.552L165.37 277.452L140.08 275.012" stroke="#263238" stroke-linejoin="round"/>
<path d="M167.39 395C168.04 394.83 168.2 393.7 168.2 393.7L166.77 392.86C160.6 392.39 150.25 391.59 149.57 391.59C148.89 391.59 138.8 385.69 135.11 383.48L133.2 386.57C134.714 387.624 136.283 388.595 137.9 389.48C139.03 389.97 148.43 395 149.57 395.16C150.71 395.32 166.74 395.15 167.39 395Z" fill="white" stroke="#263238" stroke-linejoin="round"/>
<path d="M151.79 216.432C151.79 216.432 135.63 218.062 135.46 218.722C135.29 219.382 113.91 242.552 113.91 242.552L119.63 253.492L133.34 247.622L129.42 271.452C129.42 271.452 126.81 272.452 131.54 274.882C136.27 277.312 147.22 280.432 154.73 280.432C162.24 280.432 166.48 280.432 168.12 278.152C169.185 276.741 169.758 275.019 169.75 273.252C169.91 271.942 177.59 252.022 177.59 252.022C177.59 252.022 194.73 274.022 195.38 274.562C196.03 275.102 199.14 275.562 201.75 272.432C204.36 269.302 203.87 262.152 203.87 262.152C203.87 262.152 194.24 244.682 193.75 242.232C193.26 239.782 191.75 232.232 190.81 230.312C189.87 228.392 188.53 228.192 185.91 226.882C183.29 225.572 176.12 223.132 176.12 223.132L151.79 216.432Z" fill="white" stroke="#263238" stroke-linejoin="round"/>
<path d="M137.1 223.621L133.34 247.621L134.97 224.921" stroke="#263238" stroke-linejoin="round"/>
<path d="M132.85 246.962L128.61 236.512" stroke="#263238" stroke-linejoin="round"/>
<path d="M122.31 240.971L119.79 239.451" stroke="#263238" stroke-linejoin="round"/>
<path d="M133.34 247.622L124.44 242.262" stroke="#263238" stroke-linejoin="round"/>
<path d="M185.23 240.14L189.34 233.74" stroke="#263238" stroke-linejoin="round"/>
<path d="M177.59 252.02L183.93 242.16" stroke="#263238" stroke-linejoin="round"/>
<path d="M189.95 244.161L191.79 243.041" stroke="#263238" stroke-linejoin="round"/>
<path d="M178.57 251.052L187.72 245.512" stroke="#263238" stroke-linejoin="round"/>
<path d="M177.75 250.881L193.75 248.111" stroke="#263238" stroke-linejoin="round"/>
<path d="M131.54 272.111L147.55 268.191" stroke="#263238" stroke-linejoin="round"/>
<path d="M158.46 262.74C159.491 262.339 160.493 261.868 161.46 261.33" stroke="#263238" stroke-linejoin="round"/>
<path d="M138.24 268.19C144.247 267.049 150.178 265.54 156 263.67" stroke="#263238" stroke-linejoin="round"/>
<path d="M203.71 261C203.382 263.652 202.174 266.116 200.28 268C198.417 270.009 195.967 271.377 193.28 271.91C193.28 271.91 194.75 277.47 196.55 277.47C198.35 277.47 201.45 278.47 204.22 274.69C206.99 270.91 207.65 264.57 206.83 262.93C206.01 261.29 205.51 260.51 203.71 261Z" fill="white" stroke="#263238" stroke-linejoin="round"/>
<path d="M116.36 238.801C116.36 238.801 124.2 253.491 123.54 253.801C122.88 254.111 120.12 256.581 119.14 256.741C118.16 256.901 113.75 252.491 112.14 248.741C110.53 244.991 110.02 243.511 110.51 242.861C111 242.211 115.38 238.801 116.36 238.801Z" fill="white" stroke="#263238" stroke-linejoin="round"/>
<path d="M473.43 161.089C474.31 156.089 475.58 143.739 468.05 137.669C458.5 129.969 451.72 143.829 443.4 133.049C435.08 122.269 432.62 98.8493 408 99.1493C383.38 99.4493 381.5 113.329 381.5 117.949C381.5 122.569 374.11 125.949 372.57 125.949C371.03 125.949 362.4 121.949 359.32 130.879C356.24 139.809 358.32 144.979 353.43 145.169C348.54 145.359 342.43 138.679 335.79 142.019C329.15 145.359 329.12 152.449 326.35 154.909C323.58 157.369 318.95 153.069 312.79 155.529C309.06 157.019 307.93 159.419 307.62 161.079L473.43 161.089Z" fill="white" stroke="black" stroke-miterlimit="10"/>
<path d="M203.67 64.4597C204.2 61.4597 204.96 53.9697 200.41 50.2997C194.64 45.6397 190.54 54.0197 185.5 47.4997C180.46 40.9797 179 26.8197 164.07 26.9997C149.14 27.1797 148.07 35.5697 148.07 38.3697C148.07 41.1697 143.59 43.2197 142.66 43.2197C141.73 43.2197 136.51 40.7897 134.66 46.2197C132.81 51.6497 134.06 54.7497 131.1 54.8597C128.14 54.9697 124.46 50.9397 120.43 52.9597C116.4 54.9797 116.43 59.2597 114.72 60.7497C113.01 62.2397 110.25 59.6297 106.52 61.1297C105.748 61.3602 105.051 61.7919 104.501 62.3806C103.951 62.9694 103.568 63.6939 103.39 64.4798L203.67 64.4597Z" fill="white" stroke="black" stroke-miterlimit="10"/>
<path d="M124.5 104.459C124.82 102.649 125.28 98.1691 122.5 95.9691C119.04 93.1691 116.58 98.1991 113.56 94.2891C110.54 90.3791 109.7 81.8891 100.76 81.9991C91.82 82.1091 91.15 87.1391 91.15 88.8191C91.15 90.4991 88.47 91.7191 87.91 91.7191C87.35 91.7191 84.23 90.2691 83.11 93.5091C81.99 96.7491 82.75 98.6191 80.97 98.6891C79.19 98.7591 76.97 96.3391 74.57 97.5491C72.17 98.7591 72.16 101.329 71.15 102.229C70.14 103.129 68.47 101.549 66.24 102.449C65.7769 102.585 65.3585 102.842 65.028 103.193C64.6975 103.545 64.4669 103.979 64.36 104.449L124.5 104.459Z" fill="white" stroke="black" stroke-miterlimit="10"/>
<path d="M439.5 278.459C439.82 276.649 440.28 272.169 437.55 269.969C434.09 267.169 431.63 272.199 428.61 268.289C425.59 264.379 424.7 255.889 415.76 255.999C406.82 256.109 406.15 261.139 406.15 262.819C406.15 264.499 403.47 265.719 402.91 265.719C402.35 265.719 399.23 264.269 398.11 267.509C396.99 270.749 397.75 272.619 395.97 272.689C394.19 272.759 391.97 270.339 389.57 271.549C387.17 272.759 387.16 275.329 386.15 276.229C385.14 277.129 383.47 275.549 381.24 276.449C380.777 276.585 380.359 276.842 380.028 277.193C379.698 277.545 379.467 277.979 379.36 278.449L439.5 278.459Z" fill="white" stroke="black" stroke-miterlimit="10"/>
<path d="M411.36 110.609C411.64 109.029 412.04 105.119 409.66 103.199C406.66 100.759 404.49 105.199 401.85 101.729C399.21 98.2591 398.44 90.8991 390.63 90.9991C382.82 91.0991 382.24 95.4891 382.24 96.9991C382.24 98.5091 379.9 99.5391 379.41 99.5391C378.92 99.5391 376.19 98.2691 375.22 101.099C374.25 103.929 374.9 105.569 373.35 105.629C371.8 105.689 369.88 103.569 367.77 104.629C365.66 105.689 365.66 107.929 364.77 108.709C363.88 109.489 362.43 108.129 360.47 108.909C360.067 109.028 359.702 109.253 359.416 109.561C359.129 109.869 358.93 110.248 358.84 110.659L411.36 110.609Z" fill="white" stroke="black" stroke-miterlimit="10"/>
</svg>
