<svg width="1660" height="520" viewBox="0 0 1660 520" fill="none" xmlns="http://www.w3.org/2000/svg">
<path d="M616.366 205.049C574.216 195.845 558.146 191.316 558.146 172.469C558.146 151.869 574.655 135.359 613.663 135.359C653.11 135.359 669.181 151.43 676.048 173.857H742.523C735.218 120.676 699.424 74.3628 613.225 74.3628C552.229 74.3628 492.182 107.82 492.182 175.245C492.182 238.506 543.536 257.353 600.88 269.26C657.274 281.605 679.773 284.819 679.773 308.707C679.773 331.644 660.488 345.378 623.379 345.378C578.015 345.378 558.73 329.307 550.037 297.676H484C491.305 353.194 529.875 406.374 623.89 406.374C678.02 406.374 745.884 380.661 745.884 305.931C745.665 242.158 702.127 223.384 616.366 205.049Z" fill="#1B344D"/>
<path d="M1159.78 183.938C1142.32 159.612 1115.73 143.103 1080.01 143.103C1015.36 143.103 965.398 196.721 965.398 274.739C965.398 352.244 1014.49 406.374 1080.52 406.374C1115.81 406.374 1141.96 390.815 1159.42 366.927V400.896H1225.02L1225.46 148.728H1159.86V183.938H1159.78ZM1095.13 343.99C1058.9 343.99 1031.36 316.45 1031.36 274.739C1031.36 233.465 1058.39 205.487 1095.13 205.487C1131.81 205.487 1159.78 233.465 1159.78 274.739C1159.78 316.45 1131.88 343.99 1095.13 343.99Z" fill="#1B344D"/>
<path d="M1334.59 192.631V148.582H1268.99V400.75H1334.59V288.399C1334.59 228.79 1370.39 210.455 1412.1 210.455C1419.4 210.455 1423.13 210.893 1428.17 211.404V143.979C1424.08 143.541 1419.48 143.03 1413.49 143.03C1377.69 143.103 1350.15 159.612 1334.59 192.631Z" fill="#1B344D"/>
<path d="M886.505 345.305C860.353 345.305 846.182 329.745 846.182 299.941V210.528H939.758V148.654H846.182V79.8416L780.583 94.0864V148.654V210.528V303.593C780.583 376.059 824.632 406.301 875.036 406.301C905.279 406.301 936.471 395.271 950.205 386.14L939.174 332.959C918.574 340.264 901.188 345.305 886.505 345.305Z" fill="#1B344D"/>
<path d="M1619.27 332.959C1598.67 340.264 1581.21 345.305 1566.53 345.305C1540.37 345.305 1526.2 329.745 1526.2 299.941V210.528H1619.78V148.654H1526.2V79.8416L1460.6 94.0864V148.654V210.528V303.593C1460.6 376.059 1504.65 406.301 1555.06 406.301C1585.3 406.301 1616.49 395.271 1630.22 386.14L1619.27 332.959Z" fill="#1B344D"/>
<path d="M335.485 118.924L74.1124 241.209C35.8342 259.106 19.325 304.762 37.2222 343.04L81.2712 322.44C74.7698 308.488 80.7598 291.833 94.7123 285.258L138.981 264.512L356.085 162.973C394.363 145.075 410.872 99.4192 392.975 61.1411C384.282 42.5864 368.941 28.5608 349.729 21.6211C330.517 14.6813 309.698 15.558 291.143 24.2509L74.1124 125.863C35.8342 143.76 19.325 189.417 37.2222 227.695L81.2712 207.095C74.7698 193.142 80.7598 176.487 94.7123 169.912L311.743 68.2999C318.537 65.1588 326.061 64.7936 333.074 67.3503C340.087 69.9071 345.712 75.0206 348.853 81.7412C355.5 95.6937 349.437 112.349 335.485 118.924Z" fill="#4779A8"/>
<path d="M94.7123 400.604L356.085 278.318C394.363 260.421 410.872 214.765 392.975 176.487L348.926 197.087C355.427 211.04 349.437 227.695 335.485 234.269L74.1124 356.555C35.8342 374.452 19.325 420.108 37.2222 458.386C45.9151 476.941 61.2555 490.967 80.4677 497.906C89.0145 500.974 97.7805 502.508 106.62 502.508C117.65 502.508 128.681 500.098 139.054 495.276L356.085 393.664C394.363 375.767 410.872 330.111 392.975 291.833L348.926 312.433C355.427 326.385 349.437 343.041 335.485 349.615L118.454 451.227C111.66 454.369 104.136 454.734 97.123 452.177C90.1102 449.62 84.4854 444.507 81.3442 437.786C74.7697 423.834 80.7598 407.178 94.7123 400.604Z" fill="#4779A8"/>
</svg>
