<svg width="400" height="400" viewBox="0 0 400 400" fill="none" xmlns="http://www.w3.org/2000/svg">
<path d="M377.952 191.999C371.999 163.108 359.539 135.953 341.518 112.599C323.497 89.2455 300.39 70.307 273.952 57.2231C268.309 54.4285 262.325 51.6205 256 48.7991C176.8 13.5991 131.2 43.9991 108 79.1991C84.7998 114.399 55.9998 175.199 37.5998 204.799C19.1998 234.399 -4.80023 296.799 41.5998 339.999C87.9998 383.199 132 368.799 162.4 356.799C192.8 344.799 223.2 355.199 279.2 355.199C335.2 355.199 381.6 311.999 384.8 258.399C385.968 238.783 382.64 214.663 377.952 191.999Z" fill="#4779A8"/>
<path opacity="0.7" d="M377.952 191.999C371.999 163.108 359.539 135.953 341.518 112.599C323.497 89.2455 300.39 70.307 273.952 57.2231C268.309 54.4285 262.325 51.6205 256 48.7991C176.8 13.5991 131.2 43.9991 108 79.1991C84.7998 114.399 55.9998 175.199 37.5998 204.799C19.1998 234.399 -4.80023 296.799 41.5998 339.999C87.9998 383.199 132 368.799 162.4 356.799C192.8 344.799 223.2 355.199 279.2 355.199C335.2 355.199 381.6 311.999 384.8 258.399C385.968 238.783 382.64 214.663 377.952 191.999Z" fill="white"/>
<path d="M284.664 205.442C280.159 189.545 270.952 175.382 258.251 164.813C245.55 154.244 229.949 147.764 213.498 146.224C197.047 144.684 180.515 148.155 166.072 156.182C151.63 164.209 139.954 176.417 132.576 191.202" stroke="#263238" stroke-linecap="round" stroke-linejoin="round"/>
<path d="M287.72 226.042C287.64 222.179 287.29 218.327 286.672 214.514" stroke="#263238" stroke-linecap="round" stroke-linejoin="round"/>
<path d="M136.296 270.913C145.279 285.356 158.536 296.643 174.227 303.207C189.917 309.771 207.262 311.287 223.854 307.543C240.445 303.8 255.459 294.983 266.811 282.317C278.162 269.652 285.289 253.766 287.2 236.865" stroke="#263238" stroke-linecap="round" stroke-linejoin="round"/>
<path d="M131.104 261.145C131.904 262.913 132.752 264.657 133.664 266.361" stroke="#263238" stroke-linecap="round" stroke-linejoin="round"/>
<path d="M129.6 197.904C122.436 216.292 122.126 236.643 128.728 255.24" stroke="#263238" stroke-linecap="round" stroke-linejoin="round"/>
<path d="M262.4 244.305C263.191 241.599 263.788 238.84 264.184 236.049L260.288 235.641C260.025 235.613 259.771 235.535 259.538 235.409C259.306 235.283 259.101 235.113 258.935 234.908C258.768 234.703 258.644 234.467 258.569 234.214C258.493 233.961 258.469 233.695 258.496 233.433C258.523 233.17 258.602 232.915 258.728 232.683C258.854 232.451 259.024 232.246 259.229 232.079C259.434 231.913 259.67 231.789 259.923 231.713C260.176 231.638 260.441 231.613 260.704 231.641L264.6 232.049C264.704 230.617 264.776 229.169 264.776 227.713C264.777 222.239 264.012 216.791 262.504 211.529L258.504 212.825C258.305 212.887 258.097 212.92 257.888 212.921C257.411 212.922 256.949 212.752 256.586 212.442C256.223 212.133 255.983 211.704 255.909 211.232C255.834 210.761 255.931 210.279 256.181 209.873C256.431 209.466 256.818 209.163 257.272 209.017L261.272 207.713C258.896 201.157 255.375 195.076 250.872 189.753L247.568 192.729C247.201 193.058 246.725 193.241 246.232 193.241C245.952 193.243 245.674 193.186 245.417 193.073C245.161 192.96 244.931 192.793 244.744 192.585C244.389 192.191 244.204 191.673 244.231 191.143C244.258 190.613 244.495 190.116 244.888 189.761L248.192 186.785C243.336 181.748 237.623 177.614 231.32 174.577L229.44 178.809C229.281 179.162 229.024 179.461 228.699 179.671C228.374 179.881 227.995 179.993 227.608 179.993C227.332 179.992 227.059 179.932 226.808 179.817C226.568 179.71 226.351 179.557 226.17 179.367C225.989 179.177 225.848 178.952 225.753 178.707C225.659 178.462 225.614 178.201 225.62 177.938C225.627 177.676 225.685 177.417 225.792 177.177L227.664 172.977C221.171 170.385 214.269 168.97 207.28 168.801V173.449C207.28 173.979 207.069 174.488 206.694 174.863C206.319 175.238 205.81 175.449 205.28 175.449C204.75 175.449 204.241 175.238 203.866 174.863C203.491 174.488 203.28 173.979 203.28 173.449V168.833C196.278 169.128 189.385 170.675 182.928 173.401L184.8 177.601C184.907 177.841 184.965 178.1 184.972 178.362C184.978 178.625 184.933 178.886 184.839 179.131C184.745 179.376 184.603 179.601 184.422 179.791C184.241 179.981 184.024 180.134 183.784 180.241C183.533 180.356 183.26 180.416 182.984 180.417C182.597 180.417 182.218 180.305 181.893 180.095C181.568 179.885 181.311 179.586 181.152 179.233L179.312 175.097C173.077 178.252 167.452 182.489 162.696 187.609L165.96 190.545C166.261 190.815 166.473 191.171 166.568 191.564C166.663 191.957 166.636 192.37 166.491 192.748C166.347 193.126 166.091 193.451 165.757 193.681C165.424 193.91 165.029 194.033 164.624 194.033C164.129 194.033 163.653 193.847 163.288 193.513L160.088 190.625C155.7 196.044 152.307 202.198 150.064 208.801L154 210.073C154.454 210.219 154.841 210.522 155.091 210.929C155.341 211.335 155.438 211.817 155.363 212.288C155.289 212.76 155.049 213.189 154.686 213.498C154.323 213.808 153.861 213.978 153.384 213.977C153.172 213.976 152.962 213.944 152.76 213.881L148.904 212.625C147.596 217.561 146.934 222.646 146.936 227.753C146.936 229.569 147.032 231.361 147.192 233.137L151.008 232.737C151.538 232.682 152.069 232.839 152.483 233.175C152.897 233.512 153.161 233.998 153.216 234.529C153.271 235.059 153.113 235.59 152.777 236.004C152.441 236.418 151.954 236.682 151.424 236.737L147.68 237.137C148.77 243.911 151.044 250.44 154.4 256.425L157.496 254.641C157.955 254.38 158.499 254.311 159.009 254.449C159.518 254.588 159.953 254.922 160.217 255.379C160.481 255.837 160.553 256.38 160.418 256.891C160.283 257.401 159.952 257.838 159.496 258.105L156.472 259.849C160.203 265.581 164.899 270.624 170.352 274.753L172.328 272.033C172.663 271.676 173.116 271.454 173.603 271.41C174.09 271.365 174.577 271.5 174.971 271.79C175.365 272.079 175.639 272.503 175.742 272.982C175.845 273.46 175.769 273.959 175.528 274.385L173.6 277.057C179.307 280.786 185.62 283.493 192.256 285.057L192.936 281.857C193.068 281.364 193.382 280.94 193.816 280.672C194.25 280.404 194.769 280.311 195.269 280.414C195.769 280.516 196.21 280.805 196.504 281.222C196.797 281.639 196.92 282.152 196.848 282.657L196.176 285.809C202.897 286.929 209.762 286.872 216.464 285.641L215.784 282.441C215.714 282.177 215.698 281.902 215.738 281.633C215.777 281.363 215.872 281.104 216.015 280.872C216.159 280.641 216.348 280.44 216.572 280.284C216.795 280.128 217.048 280.02 217.316 279.965C217.583 279.911 217.858 279.911 218.125 279.967C218.392 280.023 218.645 280.132 218.867 280.289C219.09 280.446 219.279 280.647 219.421 280.879C219.564 281.112 219.657 281.371 219.696 281.641L220.376 284.841C226.995 283.161 233.27 280.34 238.92 276.505L236.912 273.745C236.719 273.539 236.571 273.294 236.479 273.026C236.387 272.759 236.353 272.475 236.379 272.193C236.405 271.912 236.49 271.639 236.629 271.392C236.768 271.146 236.958 270.932 237.186 270.765C237.414 270.597 237.675 270.48 237.951 270.421C238.228 270.362 238.514 270.362 238.79 270.421C239.067 270.48 239.328 270.598 239.555 270.765C239.783 270.933 239.973 271.147 240.112 271.393L242.104 274.137C247.499 269.913 252.122 264.786 255.768 258.985L252.624 257.169C252.395 257.038 252.193 256.864 252.032 256.656C251.87 256.447 251.751 256.209 251.682 255.954C251.613 255.7 251.595 255.434 251.629 255.172C251.663 254.911 251.749 254.659 251.88 254.43C252.012 254.202 252.188 254.002 252.398 253.841C252.607 253.681 252.846 253.564 253.101 253.497C253.356 253.429 253.622 253.413 253.883 253.449C254.145 253.484 254.396 253.571 254.624 253.705L257.824 255.529C259.12 253.109 260.245 250.601 261.192 248.025" stroke="#263238" stroke-linecap="round" stroke-linejoin="round"/>
<path d="M171.656 208.585C166.709 217.409 165.365 227.804 167.906 237.596C170.446 247.389 176.674 255.82 185.286 261.126C193.899 266.433 204.23 268.205 214.119 266.071C224.007 263.937 232.688 258.062 238.346 249.676C244.004 241.289 246.2 231.04 244.476 221.072C242.752 211.104 237.241 202.188 229.095 196.189C220.949 190.19 210.8 187.572 200.769 188.884C190.738 190.195 181.602 195.333 175.272 203.225" stroke="#263238" stroke-linecap="round" stroke-linejoin="round"/>
<path d="M163.368 93.5295C166.911 83.5054 173.883 75.0563 183.053 69.6754C192.222 64.2946 202.999 62.3284 213.478 64.1244C223.957 65.9203 233.464 71.3628 240.318 79.49C247.173 87.6171 250.934 97.9057 250.936 108.537V130.297" stroke="#263238" stroke-linecap="round" stroke-linejoin="round"/>
<path d="M265.336 162.481V108.537C265.427 100.669 263.956 92.8619 261.009 85.5669C258.061 78.2718 253.695 71.6342 248.164 66.0385C242.633 60.4428 236.046 56.0003 228.786 52.9683C221.526 49.9362 213.736 48.375 205.868 48.375C198 48.375 190.21 49.9362 182.95 52.9683C175.689 56.0003 169.103 60.4428 163.572 66.0385C158.041 71.6342 153.675 78.2718 150.727 85.5669C147.78 92.8619 146.309 100.669 146.4 108.537V171.473C150.721 166.905 155.553 162.849 160.8 159.385V108.537C160.801 105.309 161.15 102.09 161.84 98.9368" stroke="#263238" stroke-linecap="round" stroke-linejoin="round"/>
<path d="M250.936 138.24V159.384C256.183 162.849 261.015 166.905 265.336 171.472V165.824" stroke="#263238" stroke-linecap="round" stroke-linejoin="round"/>
<path d="M261.336 352.264H150.4C147.501 352.264 144.72 351.113 142.67 349.064C140.619 347.015 139.466 344.235 139.464 341.336C139.464 338.436 140.616 335.654 142.667 333.603C144.718 331.553 147.499 330.4 150.4 330.4H261.336C264.235 330.403 267.014 331.556 269.064 333.606C271.113 335.657 272.264 338.437 272.264 341.336C272.262 344.234 271.11 347.012 269.061 349.061C267.012 351.11 264.233 352.262 261.336 352.264Z" fill="#263238" stroke="#263238" stroke-linecap="round" stroke-linejoin="round"/>
<path d="M154.28 340.137L153.256 333.641H156.8L155.776 340.137L161.648 337.185L162.752 340.537L156.288 341.601L160.896 346.209L158.064 348.297L155.032 342.473L152 348.329L149.16 346.241L153.768 341.633L147.312 340.537L148.416 337.185L154.28 340.137Z" fill="#4779A8"/>
<path d="M179.784 340.137L178.76 333.641H182.304L181.28 340.137L187.152 337.185L188.256 340.537L181.792 341.601L186.4 346.241L183.568 348.329L180.536 342.505L177.504 348.329L174.664 346.241L179.272 341.633L172.8 340.537L173.896 337.185L179.784 340.137Z" fill="#4779A8"/>
<path d="M205.288 340.137L204.264 333.641H207.808L206.784 340.137L212.656 337.185L213.76 340.537L207.296 341.601L211.904 346.209L209.072 348.297L206.04 342.473L203 348.297L200.168 346.209L204.8 341.601L198.336 340.505L199.44 337.153L205.288 340.137Z" fill="#4779A8"/>
<path d="M230.792 340.137L229.768 333.641H233.312L232.288 340.137L238.16 337.185L239.264 340.537L232.8 341.601L237.408 346.209L234.576 348.297L231.536 342.473L228.504 348.297L225.672 346.209L230.28 341.601L223.816 340.505L224.92 337.153L230.792 340.137Z" fill="#4779A8"/>
<path d="M256.296 340.137L255.272 333.641H258.816L257.792 340.137L263.664 337.185L264.76 340.537L258.304 341.601L262.912 346.209L260.072 348.297L257.04 342.473L254.008 348.297L251.2 346.241L255.808 341.633L249.344 340.537L250.448 337.185L256.296 340.137Z" fill="#4779A8"/>
<path d="M334.352 314.576H305.2" stroke="#263238" stroke-linecap="round" stroke-linejoin="round"/>
<path d="M341.296 260V278.32C341.294 279.275 341.48 280.222 341.844 281.105C342.208 281.988 342.743 282.791 343.418 283.467C344.092 284.143 344.894 284.679 345.776 285.046C346.659 285.412 347.604 285.6 348.56 285.6H350.4C351.335 285.6 352.262 285.784 353.126 286.143C353.991 286.501 354.776 287.026 355.437 287.688C356.098 288.35 356.623 289.136 356.98 290.001C357.337 290.866 357.521 291.792 357.52 292.728V306.144C357.52 308.382 356.63 310.529 355.048 312.112C353.465 313.695 351.318 314.584 349.08 314.584H338.576" stroke="#263238" stroke-linecap="round" stroke-linejoin="round"/>
<path d="M341.008 271.945H343.784C345.906 271.945 347.94 271.102 349.441 269.601C350.941 268.101 351.784 266.066 351.784 263.945V259.145" stroke="#263238" stroke-linecap="round" stroke-linejoin="round"/>
<path d="M325.096 259.729V265.409H328.208C330.472 265.411 332.643 266.312 334.244 267.914C335.845 269.516 336.744 271.688 336.744 273.953V275.073H340.744" stroke="#263238" stroke-linecap="round" stroke-linejoin="round"/>
<path d="M313.712 265.408H307.184" stroke="#263238" stroke-linecap="round" stroke-linejoin="round"/>
<path d="M325.096 265.408H317.936" stroke="#263238" stroke-linecap="round" stroke-linejoin="round"/>
<path d="M348.112 314.865V331.465" stroke="#263238" stroke-linecap="round" stroke-linejoin="round"/>
<path d="M358.064 299.232H366.872" stroke="#263238" stroke-linecap="round" stroke-linejoin="round"/>
<path d="M362.888 299.233V292.977H367.44" stroke="#263238" stroke-linecap="round" stroke-linejoin="round"/>
<path d="M363.912 273.938H368.008" stroke="#263238" stroke-linecap="round" stroke-linejoin="round"/>
<path d="M354.368 287.385V273.938H359.696" stroke="#263238" stroke-linecap="round" stroke-linejoin="round"/>
<path d="M306.336 323.952L314.576 317.984H333.048C334.631 317.984 336.149 318.613 337.268 319.732C338.387 320.852 339.016 322.37 339.016 323.952V330.984" stroke="#263238" stroke-linecap="round" stroke-linejoin="round"/>
<path d="M363.928 311.832V330.496" stroke="#263238" stroke-linecap="round" stroke-linejoin="round"/>
<path d="M344.68 306.137H357.496H363.928V307.609" stroke="#263238" stroke-linecap="round" stroke-linejoin="round"/>
<path d="M304.824 306.137H340.928" stroke="#263238" stroke-linecap="round" stroke-linejoin="round"/>
<path d="M351.328 306.281L350.112 303.497C349.465 302.02 348.402 300.764 347.052 299.881C345.702 298.999 344.124 298.529 342.512 298.529H309.672V314.033" stroke="#263238" stroke-linecap="round" stroke-linejoin="round"/>
<path d="M368.288 320.809H338.248" stroke="#263238" stroke-linecap="round" stroke-linejoin="round"/>
<path d="M350.848 292.713C350.85 292.137 350.68 291.573 350.361 291.093C350.042 290.613 349.588 290.239 349.056 290.017C348.524 289.795 347.938 289.736 347.373 289.848C346.807 289.959 346.288 290.236 345.88 290.643C345.472 291.05 345.193 291.569 345.08 292.134C344.967 292.699 345.025 293.285 345.245 293.817C345.465 294.35 345.838 294.805 346.317 295.126C346.796 295.446 347.36 295.617 347.936 295.617C348.318 295.618 348.696 295.544 349.05 295.398C349.403 295.253 349.724 295.039 349.995 294.769C350.265 294.499 350.48 294.179 350.626 293.826C350.773 293.473 350.848 293.095 350.848 292.713V292.713Z" stroke="#263238" stroke-linecap="round" stroke-linejoin="round"/>
<path d="M331.96 323.232H314.032V328.56H331.96V323.232Z" stroke="#263238" stroke-linecap="round" stroke-linejoin="round"/>
<path d="M325.416 271.424C321.651 271.42 318.039 272.91 315.373 275.569C312.707 278.227 311.206 281.835 311.2 285.6C311.2 293.44 325.4 311.096 325.4 311.096C325.4 311.096 339.6 293.44 339.6 285.6C339.593 281.841 338.097 278.237 335.438 275.58C332.779 272.923 329.175 271.428 325.416 271.424ZM325.416 290.552C324.441 290.552 323.488 290.263 322.678 289.721C321.867 289.18 321.236 288.41 320.863 287.51C320.49 286.609 320.392 285.618 320.582 284.662C320.773 283.706 321.242 282.828 321.931 282.139C322.62 281.45 323.498 280.981 324.454 280.791C325.41 280.6 326.401 280.698 327.302 281.071C328.202 281.444 328.972 282.076 329.513 282.886C330.055 283.696 330.344 284.649 330.344 285.624C330.344 286.931 329.824 288.184 328.9 289.108C327.976 290.033 326.723 290.552 325.416 290.552Z" fill="#263238" stroke="#263238" stroke-linecap="round" stroke-linejoin="round"/>
<path d="M322.512 269.488C318.745 269.488 315.134 270.984 312.471 273.647C309.808 276.31 308.312 279.922 308.312 283.688C308.312 291.528 322.512 309.184 322.512 309.184C322.512 309.184 336.704 291.528 336.704 283.688C336.704 279.924 335.209 276.313 332.547 273.65C329.886 270.987 326.276 269.49 322.512 269.488ZM322.512 288.608C321.537 288.608 320.583 288.319 319.773 287.777C318.962 287.235 318.331 286.465 317.958 285.564C317.585 284.663 317.488 283.672 317.679 282.716C317.87 281.76 318.34 280.882 319.03 280.193C319.72 279.504 320.599 279.035 321.555 278.846C322.511 278.657 323.503 278.755 324.403 279.13C325.303 279.504 326.072 280.137 326.613 280.948C327.153 281.76 327.441 282.713 327.44 283.688C327.44 284.335 327.312 284.976 327.064 285.573C326.816 286.17 326.453 286.713 325.996 287.17C325.538 287.627 324.995 287.989 324.397 288.236C323.799 288.483 323.158 288.609 322.512 288.608Z" fill="#4779A8" stroke="#263238" stroke-linecap="round" stroke-linejoin="round"/>
<path d="M371.72 239.199L380.752 197.791H358.92L371.72 239.199Z" fill="#263238" stroke="#263238" stroke-linecap="round" stroke-linejoin="round"/>
<path d="M373.16 162.48H320.08V220.456H373.16V162.48Z" fill="white" stroke="#263238" stroke-linecap="round" stroke-linejoin="round"/>
<path d="M369.08 159.008H316V216.984H369.08V159.008Z" fill="white" stroke="#263238" stroke-linecap="round" stroke-linejoin="round"/>
<path d="M333.32 165.703H319.768V180.471H333.32V165.703Z" fill="white" stroke="#263238" stroke-linecap="round" stroke-linejoin="round"/>
<path d="M349.368 166.168H363.432" stroke="#263238" stroke-linecap="round" stroke-linejoin="round"/>
<path d="M338.208 166.168H346.088" stroke="#263238" stroke-linecap="round" stroke-linejoin="round"/>
<path d="M358.288 171.432H363.432" stroke="#263238" stroke-linecap="round" stroke-linejoin="round"/>
<path d="M338.208 171.432H355.472" stroke="#263238" stroke-linecap="round" stroke-linejoin="round"/>
<path d="M348.904 176.703H363.432" stroke="#263238" stroke-linecap="round" stroke-linejoin="round"/>
<path d="M338.208 176.703H344.68" stroke="#263238" stroke-linecap="round" stroke-linejoin="round"/>
<path d="M352.656 181.977H363.432" stroke="#263238" stroke-linecap="round" stroke-linejoin="round"/>
<path d="M338.208 181.977H347.496" stroke="#263238" stroke-linecap="round" stroke-linejoin="round"/>
<path d="M358.288 187.248H363.432" stroke="#263238" stroke-linecap="round" stroke-linejoin="round"/>
<path d="M344.208 187.248H353.12" stroke="#263238" stroke-linecap="round" stroke-linejoin="round"/>
<path d="M338.208 187.248H341.92" stroke="#263238" stroke-linecap="round" stroke-linejoin="round"/>
<path d="M326.632 174.639C328.528 174.639 330.064 173.103 330.064 171.207C330.064 169.312 328.528 167.775 326.632 167.775C324.737 167.775 323.2 169.312 323.2 171.207C323.2 173.103 324.737 174.639 326.632 174.639Z" fill="#263238" stroke="#263238" stroke-linecap="round" stroke-linejoin="round"/>
<path d="M331.544 177.352C331.24 176.818 330.8 176.374 330.269 176.065C329.738 175.756 329.135 175.593 328.52 175.592H325C324.444 175.593 323.896 175.728 323.402 175.984C322.908 176.24 322.482 176.61 322.16 177.064L319.76 180.472H333.312L331.544 177.352Z" fill="#263238" stroke="#263238" stroke-linecap="round" stroke-linejoin="round"/>
<path d="M308.472 188.751L317.128 239.199H371.72L366.448 193.271H335.576L331.432 188.375L308.472 188.751Z" fill="#4779A8" stroke="#263238" stroke-linecap="round" stroke-linejoin="round"/>
<path d="M343.392 209.831C343.276 208.61 342.714 207.475 341.814 206.643C340.914 205.81 339.738 205.339 338.512 205.319C337.933 205.309 337.359 205.422 336.826 205.651C336.294 205.879 335.816 206.217 335.424 206.643C335.032 207.07 334.734 207.574 334.551 208.123C334.368 208.673 334.303 209.255 334.36 209.831C334.429 210.621 334.687 211.383 335.111 212.052C335.536 212.722 336.115 213.28 336.8 213.679L336.568 226.023H343.344L341.176 213.879C341.909 213.504 342.512 212.918 342.907 212.196C343.302 211.474 343.471 210.65 343.392 209.831Z" fill="#263238" stroke="#263238" stroke-linecap="round" stroke-linejoin="round"/>
<path d="M367.128 98.6802C367.172 98.8394 367.267 98.9797 367.398 99.0794C367.53 99.1792 367.691 99.2329 367.856 99.2322C367.925 99.24 367.995 99.24 368.064 99.2322C368.254 99.1695 368.414 99.0377 368.512 98.8629C368.609 98.6882 368.638 98.4831 368.592 98.2882C368.033 96.2692 367.167 94.3481 366.024 92.5922C365.908 92.4297 365.735 92.3167 365.539 92.2752C365.344 92.2338 365.14 92.2669 364.968 92.3682C364.807 92.4856 364.695 92.659 364.655 92.8543C364.615 93.0497 364.65 93.2529 364.752 93.4242C365.806 95.0455 366.607 96.8178 367.128 98.6802Z" fill="#263238"/>
<path d="M325.88 91.495C326.015 91.5928 326.177 91.6459 326.344 91.647C326.46 91.645 326.575 91.6175 326.68 91.5664C326.785 91.5153 326.878 91.4417 326.952 91.351C329.315 88.633 332.305 86.531 335.663 85.2265C339.02 83.9219 342.645 83.454 346.224 83.863C353.528 84.663 359.112 87.063 362.8 90.927C362.866 91.0072 362.948 91.073 363.04 91.1203C363.133 91.1676 363.234 91.1953 363.338 91.2019C363.442 91.2084 363.546 91.1935 363.644 91.1582C363.742 91.1229 363.831 91.0679 363.907 90.9966C363.983 90.9252 364.043 90.8391 364.084 90.7436C364.125 90.648 364.146 90.5451 364.146 90.441C364.146 90.337 364.124 90.2342 364.082 90.1389C364.041 90.0436 363.98 89.9579 363.904 89.887C359.96 85.711 354.064 83.175 346.384 82.351C342.545 81.8781 338.648 82.366 335.045 83.7707C331.441 85.1753 328.242 87.4529 325.736 90.399C325.614 90.5651 325.561 90.7717 325.588 90.9759C325.615 91.18 325.719 91.3659 325.88 91.495Z" fill="#263238"/>
<path d="M368.8 103.711C364.8 102.967 363.072 98.9108 361.68 95.5908C361.36 94.8468 361.064 94.1428 360.76 93.5428C358.984 89.9828 351.384 86.3428 344.248 86.9348C341.232 87.1908 331.08 88.8388 327.04 99.1908C325.24 103.807 325.184 108.887 325.44 112.343C325.462 112.531 325.551 112.705 325.691 112.834C325.83 112.963 326.01 113.039 326.2 113.047H326.256C326.451 113.023 326.631 112.929 326.76 112.781C326.89 112.633 326.961 112.443 326.96 112.247C326.704 108.951 326.76 104.111 328.448 99.7668C332.168 90.2388 341.576 88.7188 344.376 88.4788C351.368 87.8788 358.048 91.5508 359.392 94.2468C359.672 94.8068 359.96 95.4868 360.264 96.2148C361.72 99.6388 363.704 104.343 368.52 105.231C368.631 105.291 368.755 105.324 368.881 105.327C369.008 105.33 369.133 105.303 369.247 105.249C369.361 105.194 369.46 105.113 369.537 105.013C369.614 104.912 369.665 104.795 369.688 104.67C369.711 104.546 369.703 104.418 369.667 104.297C369.631 104.176 369.566 104.065 369.479 103.974C369.391 103.883 369.283 103.813 369.164 103.772C369.045 103.73 368.917 103.718 368.792 103.735L368.8 103.711Z" fill="#263238"/>
<path d="M326.944 118.191H327.128C327.318 118.133 327.479 118.007 327.581 117.837C327.683 117.667 327.718 117.465 327.68 117.271C327.68 117.271 327.488 116.471 327.288 115.143C327.249 114.946 327.138 114.772 326.977 114.653C326.815 114.535 326.615 114.481 326.416 114.503C326.318 114.517 326.223 114.551 326.138 114.603C326.052 114.654 325.978 114.722 325.919 114.803C325.861 114.883 325.818 114.974 325.795 115.071C325.772 115.168 325.768 115.269 325.784 115.367C325.992 116.759 326.192 117.591 326.208 117.631C326.251 117.793 326.346 117.936 326.48 118.037C326.613 118.139 326.777 118.193 326.944 118.191Z" fill="#263238"/>
<path d="M368.512 110.032L360.384 104.04C360.188 103.143 359.92 102.263 359.584 101.408C358.784 99.1201 355.224 92.9921 348.992 92.1281C345.36 91.5884 341.65 92.0647 338.272 93.5041C338.147 93.5185 338.027 93.5622 337.922 93.6316C337.817 93.7009 337.73 93.794 337.668 93.9033C337.606 94.0126 337.57 94.135 337.564 94.2605C337.558 94.3861 337.582 94.5114 337.633 94.6261C337.685 94.7408 337.763 94.8418 337.86 94.9209C337.958 94.9999 338.073 95.0548 338.196 95.0811C338.319 95.1074 338.446 95.1044 338.568 95.0723C338.69 95.0401 338.802 94.9798 338.896 94.8961C342.016 93.5654 345.446 93.1305 348.8 93.6401C354.264 94.3921 357.472 100.04 358.168 101.928C358.508 102.744 358.76 103.594 358.92 104.464C358.924 104.582 358.954 104.698 359.008 104.803C359.061 104.908 359.138 105 359.232 105.072L367.616 111.256C367.744 111.356 367.902 111.409 368.064 111.408C368.215 111.39 368.358 111.33 368.476 111.234C368.594 111.138 368.682 111.01 368.73 110.865C368.778 110.721 368.783 110.566 368.746 110.418C368.709 110.271 368.63 110.137 368.52 110.032H368.512Z" fill="#263238"/>
<path d="M332.464 115.023C331.144 110.567 330.296 104.191 333.76 99.1027C334.55 97.9404 335.548 96.9342 336.704 96.1347C336.806 95.9998 336.863 95.8361 336.866 95.6669C336.869 95.4978 336.819 95.332 336.722 95.1934C336.625 95.0547 336.487 94.9503 336.327 94.8952C336.167 94.8401 335.994 94.8371 335.832 94.8867C334.525 95.7919 333.397 96.9311 332.504 98.2467C329.496 102.663 328.976 108.647 331 115.455C332.376 120.095 325.744 122.655 325.672 122.711C325.491 122.79 325.346 122.934 325.265 123.114C325.183 123.294 325.172 123.498 325.232 123.687C325.29 123.829 325.388 123.952 325.515 124.04C325.641 124.128 325.79 124.177 325.944 124.183C326.037 124.183 326.129 124.166 326.216 124.135C329 123.079 333.888 119.823 332.464 115.023Z" fill="#263238"/>
<path d="M367.88 115.8C367.8 115.744 359.776 110.44 357.288 107.192C355.888 105.368 355.736 104.744 355.576 104.088C355.375 103.232 355.023 102.42 354.536 101.688C352.936 99.0479 349.064 96.2719 343.592 97.1439C338.312 97.9919 335.16 102.08 335.16 108.08C335.16 110.552 335.352 112.688 335.536 114.76C335.838 117.289 335.916 119.841 335.768 122.384C335.416 126.552 329.656 128.072 329.552 128.096C329.373 128.142 329.217 128.251 329.113 128.404C329.009 128.556 328.965 128.742 328.987 128.925C329.01 129.108 329.098 129.277 329.236 129.399C329.374 129.522 329.551 129.591 329.736 129.592H329.92C330.208 129.52 336.84 127.8 337.28 122.528C337.439 119.897 337.364 117.257 337.056 114.64C336.872 112.608 336.688 110.504 336.688 108.096C336.688 102.832 339.288 99.3919 343.832 98.6639C348.568 97.9119 351.832 100.264 353.24 102.504C353.65 103.107 353.941 103.783 354.096 104.496C354.288 105.296 354.488 106.096 356.08 108.16C358.72 111.608 366.704 116.888 367.04 117.112C367.119 117.21 367.22 117.288 367.335 117.34C367.45 117.391 367.575 117.415 367.701 117.409C367.827 117.403 367.949 117.368 368.059 117.305C368.168 117.243 368.261 117.156 368.331 117.051C368.4 116.946 368.443 116.826 368.458 116.701C368.472 116.576 368.457 116.449 368.413 116.331C368.369 116.213 368.298 116.107 368.205 116.022C368.113 115.936 368.001 115.874 367.88 115.84V115.8Z" fill="#263238"/>
<path d="M345.104 116.159L344.72 115.679C341.776 112.015 340.16 109.999 342.56 106.079C343.4 104.703 344.344 104.023 345.344 104.071C346.832 104.127 348.584 105.759 349.816 108.215C350.512 109.607 352.32 111.759 355.344 114.807C355.495 114.887 355.667 114.915 355.836 114.89C356.005 114.864 356.161 114.785 356.281 114.665C356.402 114.544 356.481 114.388 356.506 114.219C356.532 114.051 356.503 113.878 356.424 113.727C352.848 110.135 351.624 108.375 351.176 107.535C349.656 104.495 347.504 102.631 345.408 102.543C344.304 102.503 342.688 102.935 341.264 105.287C338.304 110.143 340.464 112.879 343.528 116.655L343.912 117.135C347.112 121.135 357.936 130.039 358.392 130.415C358.529 130.53 358.702 130.593 358.88 130.591C359.028 130.574 359.169 130.515 359.285 130.422C359.402 130.329 359.49 130.205 359.54 130.065C359.59 129.924 359.6 129.772 359.568 129.626C359.536 129.48 359.464 129.346 359.36 129.239C359.248 129.127 348.208 120.039 345.104 116.159Z" fill="#263238"/>
<path d="M359.24 116.455C359.087 116.382 358.916 116.36 358.749 116.39C358.583 116.421 358.431 116.504 358.315 116.626C358.198 116.749 358.124 116.905 358.102 117.073C358.08 117.24 358.111 117.411 358.192 117.559C361.392 120.607 364.336 123.159 364.368 123.199C364.508 123.315 364.683 123.38 364.864 123.383C364.973 123.384 365.082 123.361 365.181 123.315C365.281 123.269 365.369 123.203 365.44 123.119C365.563 122.964 365.624 122.768 365.611 122.569C365.598 122.371 365.511 122.185 365.368 122.047C365.368 122.047 362.4 119.479 359.24 116.455Z" fill="#263238"/>
<path d="M362.344 125.416C362.24 125.336 352.208 117.416 349.704 114.176C348.202 112.198 347.03 109.991 346.232 107.64C346.207 107.541 346.162 107.448 346.1 107.366C346.038 107.285 345.96 107.217 345.871 107.166C345.782 107.115 345.683 107.083 345.582 107.071C345.48 107.06 345.377 107.069 345.279 107.098C345.18 107.127 345.089 107.176 345.01 107.241C344.931 107.306 344.867 107.387 344.82 107.478C344.773 107.569 344.744 107.668 344.737 107.77C344.729 107.873 344.743 107.975 344.776 108.072C345.61 110.609 346.868 112.987 348.496 115.104C351.112 118.528 360.984 126.304 361.4 126.616C361.536 126.718 361.701 126.774 361.872 126.776C361.987 126.774 362.1 126.747 362.203 126.697C362.307 126.648 362.398 126.576 362.472 126.488C362.588 126.326 362.64 126.126 362.616 125.927C362.592 125.729 362.495 125.547 362.344 125.416Z" fill="#263238"/>
<path d="M345.704 128.36C342.824 130.136 342.176 135.872 342.152 136.112C342.14 136.312 342.203 136.509 342.329 136.664C342.454 136.82 342.634 136.922 342.832 136.952H342.912C343.099 136.953 343.281 136.884 343.42 136.758C343.559 136.632 343.646 136.459 343.664 136.272C343.824 134.824 344.632 130.808 346.504 129.656C348.032 128.72 351.304 131.832 352.704 133.48C352.836 133.629 353.02 133.723 353.218 133.744C353.416 133.764 353.615 133.71 353.776 133.592C353.924 133.458 354.016 133.274 354.035 133.076C354.055 132.878 353.999 132.68 353.88 132.52C353.36 131.896 348.8 126.472 345.704 128.36Z" fill="#263238"/>
<path d="M340.32 119.487C340.13 119.546 339.969 119.674 339.869 119.846C339.768 120.017 339.735 120.22 339.776 120.415C340.29 122.856 340.093 125.394 339.208 127.727C338.449 129.839 336.884 131.565 334.856 132.527C334.717 132.611 334.607 132.735 334.54 132.884C334.473 133.032 334.454 133.197 334.483 133.357C334.513 133.517 334.59 133.664 334.705 133.778C334.821 133.893 334.968 133.97 335.128 133.999C335.218 133.998 335.307 133.982 335.392 133.951C336.59 133.408 337.669 132.634 338.567 131.673C339.465 130.712 340.164 129.583 340.624 128.351C341.644 125.718 341.861 122.843 341.248 120.087C341.2 119.887 341.077 119.713 340.904 119.601C340.731 119.489 340.522 119.448 340.32 119.487Z" fill="#263238"/>
<path d="M337.872 79.9356C342.584 78.7996 349.72 78.0956 356.984 81.2076C357.076 81.2523 357.177 81.2742 357.28 81.2716C357.44 81.2459 357.588 81.1721 357.706 81.0601C357.823 80.9481 357.903 80.8031 357.936 80.6443C357.969 80.4856 357.953 80.3205 357.89 80.1711C357.827 80.0216 357.72 79.8949 357.584 79.8076C349.936 76.5356 342.448 77.2636 337.512 78.4556C337.386 78.4464 337.26 78.4671 337.144 78.516C337.028 78.5648 336.925 78.6404 336.843 78.7366C336.762 78.8328 336.704 78.9469 336.675 79.0696C336.646 79.1923 336.647 79.3201 336.676 79.4425C336.706 79.565 336.765 79.6787 336.847 79.7744C336.929 79.87 337.032 79.9449 337.149 79.993C337.265 80.0411 337.392 80.0609 337.517 80.0509C337.643 80.0409 337.764 80.0014 337.872 79.9356Z" fill="#263238"/>
<path d="M332.536 81.6715C332.646 81.6699 332.755 81.6454 332.856 81.5995C333.503 81.2993 334.165 81.0323 334.84 80.7995C334.975 80.698 335.075 80.5561 335.125 80.3942C335.175 80.2324 335.172 80.0589 335.117 79.8988C335.061 79.7388 334.957 79.6003 334.818 79.5034C334.679 79.4065 334.513 79.3561 334.344 79.3595C333.618 79.5868 332.905 79.8538 332.208 80.1595C332.077 80.2503 331.975 80.3784 331.917 80.5271C331.859 80.6759 331.847 80.8387 331.883 80.9944C331.918 81.1501 331.999 81.2918 332.115 81.401C332.232 81.5103 332.378 81.5822 332.536 81.6075V81.6715Z" fill="#263238"/>
<path d="M87.336 265.225H39.8C37.2065 265.225 35.104 267.327 35.104 269.921V297.441C35.104 300.034 37.2065 302.137 39.8 302.137H87.336C89.9295 302.137 92.032 300.034 92.032 297.441V269.921C92.032 267.327 89.9295 265.225 87.336 265.225Z" fill="white" stroke="#263238" stroke-linecap="round" stroke-linejoin="round"/>
<path d="M43.104 274.456L61.792 285.048C62.8958 285.677 64.1513 285.99 65.4212 285.953C66.691 285.916 67.9263 285.531 68.992 284.84L92 269.92" stroke="#263238" stroke-linecap="round" stroke-linejoin="round"/>
<path d="M35.104 269.92L39.96 272.672" stroke="#263238" stroke-linecap="round" stroke-linejoin="round"/>
<path d="M101.096 278.992H53.5598C50.9662 278.992 48.8638 281.095 48.8638 283.688V311.208C48.8638 313.802 50.9662 315.904 53.5598 315.904H101.096C103.689 315.904 105.792 313.802 105.792 311.208V283.688C105.792 281.095 103.689 278.992 101.096 278.992Z" fill="#4779A8" stroke="#263238" stroke-linecap="round" stroke-linejoin="round"/>
<path d="M91.7119 292.792L105.8 283.68" stroke="#263238" stroke-linecap="round" stroke-linejoin="round"/>
<path d="M55.9199 287.68L75.5519 298.816C76.6565 299.443 77.9124 299.755 79.1822 299.717C80.452 299.679 81.687 299.292 82.7519 298.6L88.2239 295.064" stroke="#263238" stroke-linecap="round" stroke-linejoin="round"/>
<path d="M48.8638 283.68L53.7438 286.448" stroke="#263238" stroke-linecap="round" stroke-linejoin="round"/>
<path d="M111.409 285.978C113.206 281.672 111.172 276.725 106.866 274.928C102.56 273.131 97.6131 275.165 95.8163 279.471C94.0196 283.777 96.0536 288.724 100.359 290.521C104.665 292.318 109.612 290.284 111.409 285.978Z" fill="#263238" stroke="#263238" stroke-linecap="round" stroke-linejoin="round"/>
<path d="M100.264 280.449C100.55 280.487 100.84 280.413 101.074 280.243C101.308 280.074 101.467 279.821 101.52 279.537H102.32V286.801H101.176V281.257H100.296L100.264 280.449Z" fill="white"/>
<path d="M103.576 281.281C103.576 280.821 103.759 280.379 104.085 280.053C104.41 279.728 104.852 279.545 105.312 279.545C105.773 279.545 106.214 279.728 106.54 280.053C106.865 280.379 107.048 280.821 107.048 281.281V285.057C107.048 285.517 106.865 285.959 106.54 286.284C106.214 286.61 105.773 286.793 105.312 286.793C104.852 286.793 104.41 286.61 104.085 286.284C103.759 285.959 103.576 285.517 103.576 285.057V281.281ZM104.72 285.129C104.72 285.649 104.952 285.849 105.312 285.849C105.672 285.849 105.904 285.649 105.904 285.129V281.209C105.904 280.689 105.68 280.489 105.312 280.489C104.944 280.489 104.72 280.689 104.72 281.209V285.129Z" fill="white"/>
<path d="M92.4324 175.375V206.575C92.4324 207.636 92.011 208.653 91.2608 209.404C90.5107 210.154 89.4933 210.575 88.4324 210.575H39.0244C37.9635 210.575 36.9461 210.154 36.196 209.404C35.4458 208.653 35.0244 207.636 35.0244 206.575V175.375C35.0244 174.314 35.4458 173.297 36.196 172.547C36.9461 171.797 37.9635 171.375 39.0244 171.375H88.4004C88.9284 171.371 89.452 171.471 89.941 171.67C90.43 171.87 90.8747 172.163 91.2495 172.535C91.6244 172.907 91.9219 173.35 92.1249 173.837C92.3279 174.324 92.4324 174.847 92.4324 175.375Z" fill="#4779A8" stroke="#263238" stroke-linecap="round" stroke-linejoin="round"/>
<path d="M84.3682 179.655C86.0383 179.655 87.3922 178.302 87.3922 176.631C87.3922 174.961 86.0383 173.607 84.3682 173.607C82.6981 173.607 81.3442 174.961 81.3442 176.631C81.3442 178.302 82.6981 179.655 84.3682 179.655Z" fill="white" stroke="#263238" stroke-linecap="round" stroke-linejoin="round"/>
<path d="M92.4322 183.814H34.9922V192.958H92.4322V183.814Z" fill="#263238" stroke="#263238" stroke-linecap="round" stroke-linejoin="round"/>
<path d="M105.6 187.768V218.968C105.6 220.028 105.179 221.046 104.429 221.796C103.678 222.546 102.661 222.968 101.6 222.968H52.2241C51.1633 222.968 50.1458 222.546 49.3957 221.796C48.6455 221.046 48.2241 220.028 48.2241 218.968V187.768C48.2241 186.707 48.6455 185.689 49.3957 184.939C50.1458 184.189 51.1633 183.768 52.2241 183.768H101.6C102.661 183.768 103.678 184.189 104.429 184.939C105.179 185.689 105.6 186.707 105.6 187.768Z" fill="white" stroke="#263238" stroke-linecap="round" stroke-linejoin="round"/>
<path d="M97.5679 192.048C99.2381 192.048 100.592 190.694 100.592 189.024C100.592 187.354 99.2381 186 97.5679 186C95.8978 186 94.5439 187.354 94.5439 189.024C94.5439 190.694 95.8978 192.048 97.5679 192.048Z" fill="white" stroke="#263238" stroke-linecap="round" stroke-linejoin="round"/>
<path d="M105.632 196.207H48.1924V205.351H105.632V196.207Z" fill="#263238" stroke="#263238" stroke-linecap="round" stroke-linejoin="round"/>
<path d="M99.2802 87.9043H37.0962V125.312H99.2802V87.9043Z" fill="white" stroke="#263238" stroke-linecap="round" stroke-linejoin="round"/>
<path d="M94.4241 91.793H41.9521V121.425H94.4241V91.793Z" fill="#4779A8" stroke="#263238" stroke-linecap="round" stroke-linejoin="round"/>
<path d="M68.1922 116.808C73.8255 116.808 78.3922 112.242 78.3922 106.608C78.3922 100.975 73.8255 96.4082 68.1922 96.4082C62.5589 96.4082 57.9922 100.975 57.9922 106.608C57.9922 112.242 62.5589 116.808 68.1922 116.808Z" fill="white" stroke="#263238" stroke-linecap="round" stroke-linejoin="round"/>
<path d="M102.73 88.4384L40.8853 81.9492L36.9815 119.153L98.826 125.642L102.73 88.4384Z" fill="white" stroke="#263238" stroke-linecap="round" stroke-linejoin="round"/>
<path d="M97.5024 91.7999L45.3169 86.3242L42.2247 115.794L94.4102 121.27L97.5024 91.7999Z" fill="#4779A8" stroke="#263238" stroke-linecap="round" stroke-linejoin="round"/>
<path d="M80.0005 104.857C80.2112 102.85 79.822 100.826 78.8821 99.0406C77.9422 97.2551 76.4939 95.7885 74.7203 94.8263C72.9467 93.864 70.9276 93.4495 68.9184 93.635C66.9092 93.8205 65.0001 94.5978 63.4327 95.8685C61.8653 97.1392 60.71 98.8463 60.113 100.774C59.516 102.701 59.504 104.762 60.0786 106.697C60.6532 108.631 61.7886 110.351 63.3411 111.64C64.8936 112.929 66.7935 113.728 68.8005 113.937C71.4895 114.217 74.1797 113.418 76.2798 111.715C78.3799 110.013 79.7181 107.546 80.0005 104.857Z" fill="white" stroke="#263238" stroke-linecap="round" stroke-linejoin="round"/>
<path d="M109.181 90.4551L49.8975 71.6836L38.6051 107.346L97.8881 126.118L109.181 90.4551Z" fill="white" stroke="#263238" stroke-linecap="round" stroke-linejoin="round"/>
<path d="M103.385 92.6991L53.3608 76.8594L44.4158 105.109L94.4399 120.949L103.385 92.6991Z" fill="#4779A8" stroke="#263238" stroke-linecap="round" stroke-linejoin="round"/>
<path d="M83.6244 101.984C84.2331 100.061 84.2577 98.0002 83.6951 96.0627C83.1325 94.1253 82.0081 92.3982 80.4639 91.0999C78.9197 89.8016 77.0252 88.9903 75.0199 88.7687C73.0147 88.5472 70.9887 88.9252 69.1984 89.8551C67.408 90.785 65.9336 92.2249 64.9616 93.9928C63.9896 95.7607 63.5637 97.7771 63.7377 99.787C63.9118 101.797 64.678 103.71 65.9394 105.285C67.2008 106.859 68.9008 108.024 70.8244 108.632C73.4034 109.443 76.1988 109.199 78.598 107.953C80.9972 106.707 82.8047 104.561 83.6244 101.984Z" fill="white" stroke="#263238" stroke-linecap="round" stroke-linejoin="round"/>
<path d="M88.2687 145.888C96.015 144.127 100.867 136.419 99.1054 128.673C97.3441 120.927 89.6366 116.075 81.8902 117.836C74.1439 119.598 69.2921 127.305 71.0535 135.051C72.8148 142.798 80.5223 147.65 88.2687 145.888Z" fill="white" stroke="#263238" stroke-linecap="round" stroke-linejoin="round"/>
<path d="M75.5843 122.832H74.0083" stroke="#263238" stroke-linecap="round" stroke-linejoin="round"/>
<path d="M73.8881 125.018H72.4321" stroke="#263238" stroke-linecap="round" stroke-linejoin="round"/>
<path d="M72.9205 127.809H71.5845" stroke="#263238" stroke-linecap="round" stroke-linejoin="round"/>
<path d="M72.5521 133.514H70.9761" stroke="#263238" stroke-linecap="round" stroke-linejoin="round"/>
<path d="M96.3745 142.482C102.23 137.113 102.624 128.014 97.2547 122.159C91.8857 116.304 82.7868 115.91 76.9317 121.279C71.0766 126.648 70.6825 135.746 76.0515 141.602C81.4204 147.457 90.5194 147.851 96.3745 142.482Z" fill="white" stroke="#263238" stroke-linecap="round" stroke-linejoin="round"/>
<path d="M88.2849 142.171C93.9757 141.272 97.86 135.93 96.9607 130.239C96.0614 124.548 90.7191 120.664 85.0283 121.563C79.3374 122.462 75.4531 127.805 76.3524 133.496C77.2517 139.186 82.5941 143.071 88.2849 142.171Z" fill="white" stroke="#263238" stroke-width="2" stroke-linecap="round" stroke-linejoin="round"/>
<path d="M85.9521 125.601V124.705H87.4961V125.601C88.8321 125.873 89.5201 126.897 89.5201 128.529V128.905H87.7361V128.409C87.7361 127.553 87.3921 127.225 86.7921 127.225C86.1921 127.225 85.8481 127.553 85.8481 128.409C85.8481 130.881 89.5361 131.001 89.5361 134.425C89.5361 136.025 88.8321 137.097 87.4961 137.377V138.249H85.9521V137.377C84.6001 137.097 83.9121 136.057 83.9121 134.425V133.625H85.6961V134.569C85.6961 135.425 86.0721 135.737 86.6721 135.737C87.2721 135.737 87.6481 135.425 87.6481 134.569C87.6481 132.105 83.9601 131.985 83.9601 128.553C84.0001 126.881 84.6321 125.849 85.9521 125.601Z" fill="#263238"/>
<path d="M93.0364 134.099C100.751 132.202 105.467 124.411 103.571 116.697C101.675 108.982 93.8838 104.266 86.1694 106.162C78.4549 108.058 73.7384 115.849 75.6347 123.564C77.5309 131.278 85.322 135.995 93.0364 134.099Z" fill="white" stroke="#263238" stroke-linecap="round" stroke-linejoin="round"/>
<path d="M80.1121 111.098H78.5361" stroke="#263238" stroke-linecap="round" stroke-linejoin="round"/>
<path d="M78.416 113.281H76.96" stroke="#263238" stroke-linecap="round" stroke-linejoin="round"/>
<path d="M77.4403 116.064H76.1123" stroke="#263238" stroke-linecap="round" stroke-linejoin="round"/>
<path d="M77.0804 121.77H75.5044" stroke="#263238" stroke-linecap="round" stroke-linejoin="round"/>
<path d="M101.803 129.81C107.16 123.943 106.746 114.845 100.88 109.488C95.0138 104.132 85.9157 104.545 80.559 110.411C75.2023 116.278 75.6155 125.376 81.4818 130.732C87.3481 136.089 96.4462 135.676 101.803 129.81Z" fill="white" stroke="#263238" stroke-linecap="round" stroke-linejoin="round"/>
<path d="M100.826 124.074C103.013 118.744 100.466 112.65 95.1354 110.463C89.8052 108.276 83.7113 110.823 81.5241 116.154C79.337 121.484 81.8849 127.578 87.2151 129.765C92.5452 131.952 98.6392 129.404 100.826 124.074Z" fill="white" stroke="#263238" stroke-width="2" stroke-linecap="round" stroke-linejoin="round"/>
<path d="M90.4804 113.818V112.922H92.0004V113.818C93.3444 114.09 94.0244 115.114 94.0244 116.746V117.122H92.2404V116.626C92.2404 115.77 91.9044 115.442 91.3044 115.442C90.7044 115.442 90.3604 115.77 90.3604 116.626C90.3604 119.098 94.0404 119.218 94.0404 122.642C94.0404 124.242 93.3444 125.314 92.0004 125.594V126.466H90.4804V125.602C89.1204 125.322 88.4404 124.282 88.4404 122.65V121.85H90.2164V122.794C90.2164 123.65 90.6004 123.962 91.2004 123.962C91.8004 123.962 92.1764 123.65 92.1764 122.794C92.1764 120.33 88.4884 120.21 88.4884 116.778C88.4884 115.138 89.1604 114.106 90.4804 113.818Z" fill="#263238"/>
<path d="M157.2 223.601C157.2 223.601 158 228.001 159 229.601C160 231.201 162.8 233.001 163 236.401C163.116 238.666 163.116 240.936 163 243.201C163 243.201 171.6 248.401 178.6 252.001C182.777 254.156 187.125 255.962 191.6 257.401L189.6 274.001C189.6 274.001 168.4 259.201 163.4 254.601C158.4 250.001 153.8 244.801 153 244.601C152.2 244.401 145.8 235.601 145.6 234.601C145.4 233.601 148.6 231.601 149.6 231.801C150.6 232.001 151.8 229.601 152.4 227.601C153 225.601 153 223.201 154.4 223.201C155.346 223.221 156.286 223.355 157.2 223.601Z" fill="white" stroke="#263238" stroke-linecap="round" stroke-linejoin="round"/>
<path d="M128.16 223.794L152.728 248.714C153.086 249.077 153.559 249.305 154.067 249.359C154.575 249.413 155.085 249.29 155.512 249.01L161.832 244.834C162.098 244.657 162.323 244.424 162.491 244.152C162.658 243.88 162.764 243.574 162.802 243.256C162.839 242.939 162.807 242.617 162.707 242.313C162.607 242.01 162.442 241.731 162.224 241.498L139.824 217.498C139.525 217.176 139.137 216.951 138.709 216.853C138.281 216.754 137.833 216.787 137.424 216.946L128.944 220.202C128.604 220.332 128.301 220.545 128.064 220.822C127.826 221.099 127.661 221.43 127.583 221.786C127.506 222.142 127.518 222.512 127.618 222.863C127.719 223.213 127.905 223.533 128.16 223.794Z" fill="#263238" stroke="#263238" stroke-linecap="round" stroke-linejoin="round"/>
<path d="M179.08 305.113C189.443 308.686 200.416 310.145 211.353 309.404C222.289 308.663 232.966 305.738 242.752 300.801C243.264 293.681 243.6 285.097 243.6 281.977C243.6 276.577 248.2 256.577 250.6 245.777C253 234.977 249.8 222.977 247 211.577C244.2 200.177 233.2 192.377 233.2 192.377L206 205.377C206 205.377 185.6 223.577 183.8 233.377C182 243.177 189.2 252.177 189.2 254.377C189.2 256.217 181.688 291.625 179.08 305.113Z" fill="#4779A8" stroke="#263238" stroke-linecap="round" stroke-linejoin="round"/>
<path d="M233.712 254.544C233.712 254.544 244.024 246.912 244.848 246.496" stroke="#263238" stroke-linecap="round" stroke-linejoin="round"/>
<path d="M231.648 258.048L242.992 255.576" stroke="#263238" stroke-linecap="round" stroke-linejoin="round"/>
<path d="M201.8 190.4L204.2 195.4L225.8 181L220 173L200.8 189L201.8 190.4Z" fill="#263238" stroke="#263238" stroke-linecap="round" stroke-linejoin="round"/>
<path d="M223.12 178.921L202.224 193.601C201.649 194.004 201.229 194.592 201.034 195.268C200.839 195.943 200.88 196.665 201.152 197.313L205.4 207.537C205.548 207.893 205.771 208.214 206.055 208.476C206.338 208.738 206.675 208.936 207.043 209.055C207.41 209.175 207.799 209.213 208.182 209.168C208.566 209.122 208.935 208.994 209.264 208.793L233.504 193.953C233.821 193.758 234.094 193.5 234.305 193.195C234.517 192.889 234.663 192.543 234.734 192.178C234.804 191.813 234.798 191.438 234.716 191.075C234.634 190.713 234.477 190.371 234.256 190.073L226.4 179.441C226.026 178.948 225.476 178.619 224.864 178.522C224.253 178.425 223.628 178.568 223.12 178.921Z" fill="#4779A8" stroke="#263238" stroke-linecap="round" stroke-linejoin="round"/>
<path d="M170.856 146.816C170.856 146.816 171.544 156.416 173.608 160.552C175.672 164.688 179.104 168.8 178.072 170.512C177.04 172.224 175.32 176.352 177.728 178.072C178.992 179.071 180.584 179.561 182.192 179.448C182.192 179.448 188.136 193.848 192.232 194.648C199.344 196.096 210.36 183.216 211.432 182.872C212.504 182.528 221.392 176.344 222.08 168.472C222.768 160.6 218.64 149.272 215.208 147.864C211.776 146.456 204.56 148.2 198.408 145.8C192.256 143.4 172.232 137.536 170.856 146.816Z" fill="white" stroke="#263238" stroke-linecap="round" stroke-linejoin="round"/>
<path d="M181.848 164L182.88 167.088C184.033 167.354 185.239 167.268 186.342 166.84C187.445 166.412 188.393 165.662 189.064 164.688" stroke="#263238" stroke-linecap="round" stroke-linejoin="round"/>
<path d="M179.296 159.256C179.296 159.256 181.072 156.184 186.896 157.8" stroke="#263238" stroke-linecap="round" stroke-linejoin="round"/>
<path d="M184.8 181.601C185.946 181.507 187.048 181.118 188 180.473" stroke="#263238" stroke-linecap="round" stroke-linejoin="round"/>
<path d="M168.456 126.889C168.456 126.889 161.584 134.089 162.616 139.945C163.648 145.801 171.2 151.281 175.32 151.281C179.44 151.281 181.848 150.249 187 150.249C192.152 150.249 197.648 154.025 199.712 156.089C201.776 158.153 204.512 160.889 206.24 158.153C207.968 155.417 206.928 153.001 213.792 153.681C220.656 154.361 219.288 165.017 216.888 170.169C214.488 175.321 212.768 178.073 210.016 178.073C207.264 178.073 203.488 176.353 205.552 179.449C207.616 182.545 213.792 189.753 227.88 187.001C241.968 184.249 246.424 172.601 246.424 165.705C246.424 158.809 241.624 148.529 238.184 141.321C234.744 134.113 227.88 118.993 211.048 114.185C194.216 109.377 175.32 115.553 168.456 126.889Z" fill="#263238" stroke="#263238" stroke-linecap="round" stroke-linejoin="round"/>
<path d="M206.288 160.704C206.288 160.704 205.968 153.92 210.008 152.624C214.048 151.328 218.088 153.76 218.256 158.608C218.424 163.456 217.768 168.464 215.992 170.248C214.216 172.032 209.36 170.568 209.36 170.568" fill="white"/>
<path d="M206.288 160.704C206.288 160.704 205.968 153.92 210.008 152.624C214.048 151.328 218.088 153.76 218.256 158.608C218.424 163.456 217.768 168.464 215.992 170.248C214.216 172.032 209.36 170.568 209.36 170.568" stroke="#263238" stroke-linecap="round" stroke-linejoin="round"/>
<path d="M221.2 210.4C221.2 210.4 211.4 217.6 209.4 226.4C207.4 235.2 202.6 260.2 202.6 260.2C202.6 260.2 199.4 259.8 199.4 260.6C199.237 261.625 198.969 262.631 198.6 263.6C198.6 263.6 196 263.6 195.8 264.6C195.6 265.6 174.2 254.6 168.8 251C163.4 247.4 156.6 242.4 155.4 240.8C153.051 237.776 150.513 234.903 147.8 232.2C145.6 230.2 141.2 227.4 140.4 226.8C139.6 226.2 138.4 221 136.6 221.8C134.8 222.6 135.2 226.2 136 227.6C136.8 229 140 234.8 140 234.8C140 234.8 133.2 235.4 131.8 236.4C130.4 237.4 129.6 240.8 131.2 242C132.8 243.2 136.4 243.6 136.4 243.6C136.4 243.6 137.4 248.6 139.4 250C141.4 251.4 144.8 252.8 146.6 253.6C148.4 254.4 154.6 254.6 154.6 254.6C154.6 254.6 163 264 168.8 269.8C174.6 275.6 197.4 292 200.8 293.2C204.2 294.4 208.2 291.8 209.6 289.8C211 287.8 234.4 254.8 240 243.8" fill="white"/>
<path d="M221.2 210.4C221.2 210.4 211.4 217.6 209.4 226.4C207.4 235.2 202.6 260.2 202.6 260.2C202.6 260.2 199.4 259.8 199.4 260.6C199.237 261.625 198.969 262.631 198.6 263.6C198.6 263.6 196 263.6 195.8 264.6C195.6 265.6 174.2 254.6 168.8 251C163.4 247.4 156.6 242.4 155.4 240.8C153.051 237.776 150.513 234.903 147.8 232.2C145.6 230.2 141.2 227.4 140.4 226.8C139.6 226.2 138.4 221 136.6 221.8C134.8 222.6 135.2 226.2 136 227.6C136.8 229 140 234.8 140 234.8C140 234.8 133.2 235.4 131.8 236.4C130.4 237.4 129.6 240.8 131.2 242C132.8 243.2 136.4 243.6 136.4 243.6C136.4 243.6 137.4 248.6 139.4 250C141.4 251.4 144.8 252.8 146.6 253.6C148.4 254.4 154.6 254.6 154.6 254.6C154.6 254.6 163 264 168.8 269.8C174.6 275.6 197.4 292 200.8 293.2C204.2 294.4 208.2 291.8 209.6 289.8C211 287.8 234.4 254.8 240 243.8" stroke="#263238" stroke-linecap="round" stroke-linejoin="round"/>
<path d="M221.2 210.4C221.2 210.4 211.4 217.6 209.4 226.4C207.4 235.2 202.6 260.2 202.6 260.2C202.6 260.2 199.4 259.8 199.4 260.6C199.237 261.625 198.969 262.631 198.6 263.6C198.6 263.6 196 263.6 195.8 264.6C195.704 265.072 190.936 262.888 185.336 260.072L176.48 276.288C185.48 283.336 198.312 292.288 200.8 293.2C204.2 294.4 208.2 291.8 209.6 289.8C211 287.8 235.504 254.088 241.6 242.6" fill="#4779A8"/>
<path d="M221.2 210.4C221.2 210.4 211.4 217.6 209.4 226.4C207.4 235.2 202.6 260.2 202.6 260.2C202.6 260.2 199.4 259.8 199.4 260.6C199.237 261.625 198.969 262.631 198.6 263.6C198.6 263.6 196 263.6 195.8 264.6C195.704 265.072 190.936 262.888 185.336 260.072L176.48 276.288C185.48 283.336 198.312 292.288 200.8 293.2C204.2 294.4 208.2 291.8 209.6 289.8C211 287.8 235.504 254.088 241.6 242.6" stroke="#263238" stroke-linecap="round" stroke-linejoin="round"/>
<path d="M156.6 225.601C156.6 225.601 154 232.601 152.8 233.201C151.6 233.801 150.4 233.601 149.6 231.801C148.8 230.001 151.4 224.401 151.4 224.401C151.4 224.401 152.2 221.801 154.6 221.801C157 221.801 157.2 223.601 157.2 223.601L156.6 225.601Z" fill="white" stroke="#263238" stroke-linecap="round" stroke-linejoin="round"/>
</svg>
