<svg width="400" height="400" viewBox="0 0 400 400" fill="none" xmlns="http://www.w3.org/2000/svg">
<path opacity="0.7" d="M54.344 133.672C54.344 133.672 32.04 191.272 63.384 249.272C94.728 307.272 159.288 337.912 210.96 364.112C262.632 390.312 316.288 377.552 341.784 334.64C367.28 291.728 332.312 261.096 332.264 199.904C332.216 138.712 341.424 122.512 308.264 70.8164C275.104 19.1204 193.816 7.67245 132.344 46.0164C70.872 84.3604 54.344 133.672 54.344 133.672Z" fill="white"/>
<path d="M182.6 41.0566C281.8 32.2566 282 88.2005 326.704 140.361C371.408 192.521 380.984 216.161 364.128 276.289C347.272 336.417 290.48 383.545 220.216 356.841C149.952 330.137 109.704 355.777 65.3839 332.041C21.0639 308.305 4.58394 262.505 37.0559 208.513C69.5279 154.521 60.2479 51.9526 182.6 41.0566Z" fill="#4779A8"/>
<path opacity="0.7" d="M182.6 41.0566C281.8 32.2566 282 88.2005 326.704 140.361C371.408 192.521 380.984 216.161 364.128 276.289C347.272 336.417 290.48 383.545 220.216 356.841C149.952 330.137 109.704 355.777 65.3839 332.041C21.0639 308.305 4.58394 262.505 37.0559 208.513C69.5279 154.521 60.2479 51.9526 182.6 41.0566Z" fill="white"/>
<path d="M205.126 44.7342L188.804 48.1708C186.603 48.6341 185.195 50.7937 185.658 52.9944L189.095 69.3165C189.558 71.5172 191.718 72.9255 193.919 72.4622L210.241 69.0256C212.441 68.5622 213.85 66.4026 213.386 64.202L209.95 47.8798C209.486 45.6792 207.327 44.2708 205.126 44.7342Z" stroke="#263238" stroke-linecap="round" stroke-linejoin="round"/>
<path d="M198.488 53.6387L200.568 63.5427" stroke="#263238" stroke-linecap="round" stroke-linejoin="round"/>
<path d="M204.48 57.543L194.576 59.631" stroke="#263238" stroke-linecap="round" stroke-linejoin="round"/>
<path d="M369.661 219.248L353.339 222.684C351.138 223.148 349.73 225.307 350.193 227.508L353.63 243.83C354.093 246.031 356.253 247.439 358.454 246.976L374.776 243.539C376.976 243.076 378.385 240.916 377.921 238.716L374.485 222.393C374.022 220.193 371.862 218.784 369.661 219.248Z" stroke="#263238" stroke-linecap="round" stroke-linejoin="round"/>
<path d="M366.832 228.855L361.304 237.335" stroke="#263238" stroke-linecap="round" stroke-linejoin="round"/>
<path d="M368.304 235.864L359.824 230.328" stroke="#263238" stroke-linecap="round" stroke-linejoin="round"/>
<path d="M149.29 325.497L132.61 324.496C130.361 324.361 128.428 326.075 128.293 328.324L127.292 345.004C127.158 347.253 128.871 349.185 131.12 349.32L147.8 350.321C150.049 350.456 151.982 348.742 152.116 346.493L153.117 329.813C153.252 327.564 151.538 325.632 149.29 325.497Z" stroke="#263238" stroke-width="1.0018" stroke-linecap="round" stroke-linejoin="round"/>
<path d="M145.824 336.807L135.712 336.223" stroke="#263238" stroke-linecap="round" stroke-linejoin="round"/>
<path d="M49.765 209.393L33.9313 204.148C31.7965 203.441 29.4926 204.598 28.7853 206.733L23.5396 222.566C22.8324 224.701 23.9896 227.005 26.1244 227.712L41.9581 232.958C44.0929 233.665 46.3968 232.508 47.1041 230.373L52.3498 214.539C53.057 212.405 51.8998 210.101 49.765 209.393Z" stroke="#263238" stroke-linecap="round" stroke-linejoin="round"/>
<path d="M44.2797 215.375L31.6157 221.735" stroke="#263238" stroke-linecap="round" stroke-linejoin="round"/>
<path d="M37.0158 212.8C37.1677 213.113 37.2239 213.464 37.1773 213.808C37.1307 214.153 36.9835 214.476 36.754 214.738C36.5245 214.999 36.2229 215.187 35.8871 215.278C35.5513 215.369 35.1962 215.359 34.8661 215.249C34.5361 215.139 34.2459 214.934 34.0317 214.66C33.8176 214.386 33.6892 214.054 33.6625 213.707C33.6357 213.361 33.7119 213.014 33.8815 212.71C34.0511 212.406 34.3066 212.159 34.6158 212C34.8252 211.891 35.0543 211.825 35.2896 211.806C35.5249 211.788 35.7615 211.816 35.9854 211.891C36.2093 211.966 36.4159 212.085 36.593 212.241C36.77 212.397 36.9138 212.587 37.0158 212.8V212.8Z" stroke="#263238" stroke-linecap="round" stroke-linejoin="round"/>
<path d="M42.0403 222.767C42.1921 223.08 42.2483 223.43 42.2017 223.775C42.1551 224.12 42.0079 224.443 41.7784 224.705C41.5489 224.966 41.2474 225.154 40.9116 225.245C40.5757 225.336 40.2206 225.326 39.8906 225.216C39.5605 225.106 39.2703 224.901 39.0562 224.627C38.842 224.352 38.7136 224.021 38.6869 223.674C38.6601 223.327 38.7363 222.98 38.9059 222.677C39.0755 222.373 39.331 222.126 39.6403 221.967C39.8496 221.858 40.0787 221.792 40.314 221.773C40.5493 221.754 40.7859 221.783 41.0098 221.858C41.2337 221.933 41.4404 222.051 41.6174 222.208C41.7944 222.364 41.9382 222.554 42.0403 222.767V222.767Z" stroke="#263238" stroke-linecap="round" stroke-linejoin="round"/>
<path d="M206.16 320.633C204.504 323.031 202.174 324.884 199.465 325.958C196.756 327.032 193.79 327.279 190.941 326.667C188.091 326.055 185.488 324.613 183.458 322.521C181.429 320.43 180.065 317.784 179.54 314.917C179.014 312.051 179.35 309.093 180.505 306.418C181.66 303.742 183.583 301.47 186.03 299.887C188.476 298.304 191.338 297.482 194.251 297.525C197.165 297.568 200.001 298.474 202.4 300.129C205.617 302.35 207.82 305.757 208.525 309.602C209.23 313.447 208.379 317.415 206.16 320.633Z" fill="#4779A8"/>
<path opacity="0.3" d="M204.24 319.305C202.845 321.321 200.884 322.879 198.604 323.782C196.323 324.684 193.827 324.89 191.43 324.373C189.033 323.857 186.842 322.642 185.136 320.88C183.43 319.119 182.284 316.892 181.843 314.48C181.402 312.067 181.687 309.579 182.66 307.328C183.634 305.077 185.253 303.166 187.313 301.836C189.373 300.505 191.781 299.815 194.233 299.853C196.685 299.891 199.07 300.655 201.088 302.049C203.793 303.92 205.645 306.788 206.236 310.024C206.827 313.26 206.109 316.598 204.24 319.305Z" fill="black" fill-opacity="0.7"/>
<path d="M204.24 319.305C202.845 321.321 200.884 322.879 198.604 323.782C196.323 324.684 193.827 324.89 191.43 324.373C189.033 323.857 186.842 322.642 185.136 320.88C183.43 319.119 182.284 316.892 181.843 314.48C181.402 312.067 181.687 309.579 182.66 307.328C183.634 305.077 185.253 303.166 187.313 301.836C189.373 300.505 191.781 299.815 194.233 299.853C196.685 299.891 199.07 300.655 201.088 302.049C203.793 303.92 205.645 306.788 206.236 310.024C206.827 313.26 206.109 316.598 204.24 319.305V319.305Z" stroke="#263238" stroke-linecap="round" stroke-linejoin="round"/>
<path d="M197.216 306.057L197.816 305.201L199.304 306.225L198.704 307.089C199.816 308.249 199.792 309.697 198.704 311.265L198.448 311.633L196.728 310.441L197.064 309.961C197.632 309.161 197.52 308.593 196.944 308.193C196.368 307.793 195.816 307.873 195.24 308.705C194.664 309.537 194.6 310.305 195.152 312.161C195.816 314.385 195.696 315.649 194.784 316.961C193.696 318.561 192.32 319.073 190.848 318.449L190.264 319.289L188.8 318.273L189.384 317.425C188.256 316.257 188.296 314.793 189.384 313.217L189.928 312.417L191.648 313.609L191.024 314.513C190.448 315.313 190.608 315.889 191.184 316.297C191.76 316.705 192.336 316.649 192.912 315.817C193.488 314.985 193.56 314.169 193 312.361C192.32 310.161 192.448 308.881 193.368 307.561C194.4 306.009 195.752 305.457 197.216 306.057Z" fill="#4779A8" stroke="#263238" stroke-linecap="round" stroke-linejoin="round"/>
<path opacity="0.2" d="M189.928 300.305C189.93 303.75 189.035 307.136 187.333 310.13C185.63 313.125 183.177 315.625 180.216 317.385C179.513 315.495 179.206 313.48 179.313 311.467C179.421 309.453 179.941 307.483 180.841 305.678C181.741 303.874 183.002 302.273 184.546 300.976C186.089 299.679 187.883 298.712 189.816 298.137C189.894 298.857 189.931 299.581 189.928 300.305Z" fill="black" fill-opacity="0.7"/>
<path d="M206.16 320.633C204.504 323.031 202.174 324.884 199.465 325.958C196.756 327.032 193.79 327.279 190.941 326.667C188.091 326.055 185.488 324.613 183.458 322.521C181.429 320.43 180.065 317.784 179.54 314.917C179.014 312.051 179.35 309.093 180.505 306.418C181.66 303.742 183.583 301.47 186.03 299.887C188.476 298.304 191.338 297.482 194.251 297.525C197.165 297.568 200.001 298.474 202.4 300.129C205.617 302.35 207.82 305.757 208.525 309.602C209.23 313.447 208.379 317.415 206.16 320.633V320.633Z" stroke="#263238" stroke-linecap="round" stroke-linejoin="round"/>
<path d="M172.992 314.593C181.135 314.593 187.736 307.992 187.736 299.849C187.736 291.707 181.135 285.105 172.992 285.105C164.849 285.105 158.248 291.707 158.248 299.849C158.248 307.992 164.849 314.593 172.992 314.593Z" fill="#4779A8" stroke="#263238" stroke-linecap="round" stroke-linejoin="round"/>
<path opacity="0.3" d="M172.992 312.249C179.841 312.249 185.392 306.698 185.392 299.849C185.392 293.001 179.841 287.449 172.992 287.449C166.144 287.449 160.592 293.001 160.592 299.849C160.592 306.698 166.144 312.249 172.992 312.249Z" fill="black" fill-opacity="0.7"/>
<path d="M172.992 312.249C179.841 312.249 185.392 306.698 185.392 299.849C185.392 293.001 179.841 287.449 172.992 287.449C166.144 287.449 160.592 293.001 160.592 299.849C160.592 306.698 166.144 312.249 172.992 312.249Z" stroke="#263238" stroke-linecap="round" stroke-linejoin="round"/>
<path d="M172.088 292.944V291.904H173.896V292.944C175.496 293.272 176.296 294.472 176.296 296.384V296.8H174.2V296.216C174.2 295.208 173.8 294.824 173.096 294.824C172.392 294.824 171.992 295.208 171.992 296.216C171.992 297.224 172.392 297.92 173.88 299.112C175.688 300.56 176.28 301.664 176.28 303.272C176.28 305.184 175.48 306.416 173.88 306.736V307.76H172.072V306.736C170.472 306.416 169.672 305.184 169.672 303.272V302.312H171.76V303.416C171.76 304.424 172.2 304.784 172.904 304.784C173.608 304.784 174.056 304.424 174.056 303.416C174.056 302.408 173.656 301.688 172.16 300.52C170.352 299.088 169.76 297.968 169.76 296.352C169.752 294.496 170.536 293.288 172.088 292.944Z" fill="#4779A8" stroke="#263238" stroke-linecap="round" stroke-linejoin="round"/>
<path d="M255.74 312.233C260.133 305.377 258.136 296.258 251.28 291.864C244.424 287.471 235.305 289.468 230.911 296.324C226.518 303.18 228.515 312.3 235.371 316.693C242.227 321.086 251.347 319.089 255.74 312.233Z" fill="#4779A8" stroke="#263238" stroke-linecap="round" stroke-linejoin="round"/>
<path opacity="0.3" d="M252.408 295.849C254.077 297.646 255.177 299.898 255.566 302.319C255.956 304.741 255.619 307.224 254.597 309.454C253.576 311.683 251.916 313.56 249.828 314.847C247.739 316.133 245.317 316.772 242.866 316.681C240.414 316.59 238.045 315.775 236.058 314.338C234.07 312.9 232.554 310.906 231.7 308.607C230.846 306.307 230.693 303.806 231.26 301.42C231.828 299.034 233.09 296.87 234.888 295.201C236.08 294.092 237.479 293.228 239.006 292.66C240.532 292.092 242.155 291.831 243.782 291.891C245.41 291.951 247.009 292.332 248.489 293.011C249.969 293.69 251.301 294.655 252.408 295.849Z" fill="black" fill-opacity="0.7"/>
<path d="M252.408 295.849C254.077 297.646 255.177 299.898 255.566 302.319C255.956 304.741 255.619 307.224 254.597 309.454C253.576 311.683 251.916 313.56 249.828 314.847C247.739 316.133 245.317 316.772 242.866 316.681C240.414 316.59 238.045 315.775 236.058 314.338C234.07 312.9 232.554 310.906 231.7 308.607C230.846 306.307 230.693 303.806 231.26 301.42C231.828 299.034 233.09 296.87 234.888 295.201C236.08 294.092 237.479 293.228 239.006 292.66C240.532 292.092 242.155 291.831 243.782 291.891C245.41 291.951 247.009 292.332 248.489 293.011C249.969 293.69 251.301 294.655 252.408 295.849V295.849Z" stroke="#263238" stroke-linecap="round" stroke-linejoin="round"/>
<path d="M237.968 299.848L237.256 299.048L238.576 297.816L239.288 298.616C240.664 297.816 242.072 298.12 243.368 299.52L243.672 299.84L242.144 301.264L241.744 300.84C241.056 300.104 240.504 300.096 239.992 300.576C239.48 301.056 239.44 301.608 240.12 302.344C240.8 303.08 241.584 303.32 243.48 303.184C245.792 303.008 247 303.392 248.096 304.576C249.392 305.976 249.624 307.432 248.696 308.736L249.392 309.488L248.064 310.72L247.368 309.968C245.984 310.816 244.56 310.464 243.264 309.064L242.6 308.36L244.136 306.936L244.888 307.736C245.576 308.472 246.144 308.44 246.664 307.96C247.184 307.48 247.256 306.912 246.568 306.176C245.88 305.44 245.096 305.184 243.216 305.376C240.912 305.56 239.688 305.16 238.6 303.976C237.312 302.568 237.064 301.152 237.968 299.848Z" fill="#4779A8" stroke="#263238" stroke-linecap="round" stroke-linejoin="round"/>
<path opacity="0.2" d="M237.256 240.201C237.256 240.201 237.192 270.793 237.256 272.577C237.32 274.361 239.656 285.105 239.656 285.105L232.224 298.801L238.624 303.953L251.064 291.729C251.064 291.729 261.656 298.265 263.592 307.625C265.528 316.985 277.056 323.801 289.016 349.721C300.976 375.641 314.616 291.729 314.616 291.729L277.712 245.265L237.256 240.201Z" fill="black" fill-opacity="0.7"/>
<path d="M350.072 75.8487L338.768 186.153L331.816 254.009L234.664 244.057L215.76 242.121L203.656 240.881L214.384 136.161L221.912 62.7207L350.072 75.8487Z" fill="white"/>
<path d="M312.848 80.0001L257.528 74.3281C257.281 74.3029 257.032 74.3266 256.794 74.3978C256.556 74.469 256.335 74.5863 256.142 74.743C255.95 74.8998 255.79 75.0929 255.673 75.3113C255.555 75.5297 255.481 75.7692 255.456 76.0161C255.431 76.263 255.455 76.5125 255.526 76.7502C255.597 76.9879 255.714 77.2093 255.871 77.4017C256.028 77.5941 256.221 77.7538 256.439 77.8716C256.658 77.9893 256.897 78.0629 257.144 78.0881L312.464 83.7601C312.963 83.8111 313.461 83.6618 313.85 83.3453C314.238 83.0287 314.485 82.5707 314.536 82.0721C314.587 81.5735 314.438 81.0751 314.121 80.6865C313.805 80.298 313.347 80.0511 312.848 80.0001Z" fill="#263238"/>
<path d="M298.224 86.2801L270.568 83.4401C270.318 83.4155 270.068 83.4909 269.873 83.6497C269.678 83.8086 269.554 84.0381 269.528 84.2881C269.516 84.4116 269.528 84.5362 269.564 84.6549C269.6 84.7736 269.659 84.884 269.738 84.9799C269.817 85.0757 269.914 85.1551 270.023 85.2135C270.133 85.2719 270.253 85.3081 270.376 85.3201L298.032 88.1601C298.282 88.1847 298.532 88.1094 298.727 87.9505C298.922 87.7916 299.046 87.5622 299.072 87.3121C299.085 87.1885 299.074 87.0634 299.038 86.9443C299.002 86.8252 298.943 86.7143 298.864 86.6182C298.786 86.5222 298.688 86.4428 298.578 86.3847C298.468 86.3267 298.348 86.2911 298.224 86.2801Z" fill="#263238"/>
<path d="M328.664 167.688L238.872 158.488C238.628 158.461 238.384 158.529 238.19 158.678C237.996 158.827 237.868 159.046 237.832 159.288C237.807 159.539 237.882 159.788 238.041 159.983C238.2 160.178 238.43 160.302 238.68 160.328L328.472 169.6C328.595 169.613 328.72 169.6 328.839 169.564C328.957 169.528 329.068 169.469 329.163 169.39C329.259 169.312 329.339 169.215 329.397 169.105C329.455 168.996 329.492 168.876 329.504 168.752C329.522 168.627 329.514 168.499 329.481 168.377C329.448 168.254 329.39 168.14 329.312 168.04C329.233 167.941 329.135 167.858 329.024 167.798C328.912 167.737 328.79 167.7 328.664 167.688Z" fill="#263238"/>
<path d="M328 174.447L223.56 163.751C223.437 163.738 223.312 163.749 223.194 163.785C223.075 163.82 222.965 163.878 222.869 163.956C222.773 164.034 222.693 164.131 222.635 164.24C222.576 164.349 222.54 164.468 222.528 164.591C222.5 164.835 222.568 165.079 222.718 165.273C222.867 165.467 223.086 165.596 223.328 165.631L327.736 176.327C327.859 176.34 327.984 176.328 328.103 176.293C328.222 176.257 328.333 176.198 328.429 176.12C328.525 176.042 328.605 175.945 328.664 175.836C328.723 175.727 328.759 175.607 328.772 175.483C328.785 175.36 328.773 175.235 328.737 175.116C328.702 174.998 328.643 174.887 328.564 174.791C328.486 174.694 328.39 174.615 328.28 174.556C328.171 174.497 328.051 174.46 327.928 174.447H328Z" fill="#263238"/>
<path d="M298.04 178.215L222.84 170.511C222.59 170.485 222.341 170.558 222.146 170.716C221.951 170.873 221.826 171.102 221.8 171.351C221.773 171.6 221.847 171.85 222.004 172.045C222.162 172.24 222.39 172.365 222.64 172.391L297.84 180.095C297.963 180.107 298.088 180.095 298.207 180.059C298.325 180.023 298.436 179.964 298.532 179.885C298.627 179.806 298.707 179.709 298.765 179.6C298.823 179.491 298.86 179.371 298.872 179.247C298.885 179.125 298.874 179.001 298.839 178.883C298.805 178.765 298.747 178.654 298.67 178.559C298.593 178.463 298.497 178.383 298.389 178.324C298.281 178.265 298.162 178.228 298.04 178.215Z" fill="#263238"/>
<path d="M221.687 177.801L218.633 207.613L323.89 218.398L326.944 188.586L221.687 177.801Z" fill="#BFBFBF" stroke="#263238" stroke-miterlimit="10"/>
<path d="M269.955 143.305C279.898 135.021 281.242 120.246 272.958 110.303C264.675 100.361 249.899 99.016 239.957 107.3C230.015 115.584 228.67 130.359 236.954 140.301C245.237 150.244 260.013 151.588 269.955 143.305Z" fill="#4779A8"/>
<path opacity="0.5" d="M269.955 143.305C279.898 135.021 281.242 120.246 272.958 110.303C264.675 100.361 249.899 99.016 239.957 107.3C230.015 115.584 228.67 130.359 236.954 140.301C245.237 150.244 260.013 151.588 269.955 143.305Z" fill="white"/>
<path d="M269.955 143.305C279.898 135.021 281.242 120.246 272.958 110.303C264.675 100.361 249.899 99.016 239.957 107.3C230.015 115.584 228.67 130.359 236.954 140.301C245.237 150.244 260.013 151.588 269.955 143.305Z" stroke="#263238" stroke-miterlimit="10"/>
<path d="M255.632 125.248L275.12 135.048C276.938 131.272 277.661 127.062 277.205 122.896C276.75 118.729 275.135 114.775 272.544 111.48L255.632 125.248Z" fill="white"/>
<path d="M255.76 124.192L272.08 110.912C269.643 108.009 266.507 105.773 262.968 104.416L260 112.496L255.76 124.192Z" fill="#4779A8"/>
<path d="M257.6 103.104L255.632 122.4L262.272 104.152C260.757 103.635 259.19 103.284 257.6 103.104Z" fill="#757575"/>
<path d="M254.616 125.072L256.88 103.024C253.023 102.7 249.147 103.381 245.632 105.001C242.116 106.621 239.08 109.124 236.82 112.266C234.56 115.409 233.153 119.083 232.735 122.931C232.318 126.779 232.905 130.67 234.44 134.224L254.616 125.072Z" fill="#999999"/>
<path d="M252.68 147.585C257.129 148.037 261.612 147.148 265.552 145.03C269.491 142.913 272.706 139.665 274.784 135.705L254.952 125.729L234.736 134.913C236.387 138.388 238.905 141.38 242.048 143.599C245.191 145.819 248.852 147.191 252.68 147.585Z" fill="#BFBFBF"/>
<path d="M292.558 110.1L289.892 109.827C289.615 109.798 289.367 110 289.339 110.277L289.066 112.943C289.037 113.22 289.239 113.467 289.516 113.496L292.182 113.769C292.459 113.797 292.706 113.596 292.734 113.319L293.008 110.653C293.036 110.376 292.834 110.128 292.558 110.1Z" fill="#4779A8" stroke="#263238" stroke-miterlimit="10"/>
<path d="M329.704 115.264L295.256 111.736C295.175 111.698 295.107 111.637 295.063 111.559C295.02 111.482 295.001 111.392 295.011 111.304C295.021 111.215 295.058 111.132 295.118 111.066C295.177 111 295.256 110.954 295.344 110.936L329.792 114.4C329.895 114.42 329.988 114.479 330.051 114.564C330.114 114.649 330.143 114.754 330.132 114.86C330.12 114.965 330.07 115.062 329.991 115.133C329.912 115.203 329.809 115.241 329.704 115.24V115.264Z" fill="#263238"/>
<path d="M326.144 116.752L295.072 113.552C294.961 113.54 294.859 113.484 294.788 113.397C294.718 113.31 294.685 113.199 294.696 113.088C294.701 113.032 294.717 112.979 294.743 112.929C294.769 112.88 294.805 112.837 294.848 112.802C294.892 112.767 294.942 112.741 294.995 112.725C295.049 112.71 295.105 112.705 295.16 112.712L326.232 115.912C326.336 115.932 326.428 115.991 326.491 116.076C326.554 116.161 326.583 116.267 326.572 116.372C326.561 116.478 326.511 116.575 326.432 116.645C326.352 116.715 326.25 116.754 326.144 116.752Z" fill="#263238"/>
<path d="M291.717 118.315L289.051 118.042C288.774 118.013 288.526 118.215 288.498 118.492L288.225 121.158C288.196 121.435 288.398 121.682 288.675 121.71L291.341 121.984C291.618 122.012 291.865 121.81 291.894 121.534L292.167 118.868C292.195 118.591 291.994 118.343 291.717 118.315Z" fill="#757575" stroke="#263238" stroke-linecap="round" stroke-linejoin="round"/>
<path d="M328.864 123.479L294.4 119.951C294.296 119.931 294.203 119.872 294.141 119.787C294.078 119.702 294.049 119.596 294.06 119.491C294.071 119.386 294.121 119.288 294.2 119.218C294.279 119.148 294.382 119.11 294.488 119.111L328.928 122.639C329.04 122.652 329.142 122.707 329.214 122.793C329.286 122.88 329.321 122.991 329.312 123.103C329.3 123.212 329.246 123.311 329.163 123.381C329.08 123.451 328.972 123.486 328.864 123.479Z" fill="#263238"/>
<path d="M325.296 124.976L294.232 121.776C294.119 121.765 294.015 121.71 293.943 121.623C293.871 121.536 293.837 121.424 293.848 121.312C293.858 121.199 293.913 121.096 294 121.024C294.087 120.952 294.199 120.917 294.312 120.928L325.384 124.128C325.439 124.133 325.493 124.15 325.543 124.177C325.592 124.203 325.635 124.24 325.671 124.283C325.706 124.326 325.732 124.376 325.748 124.43C325.764 124.484 325.769 124.54 325.764 124.596C325.758 124.651 325.741 124.705 325.715 124.755C325.688 124.804 325.652 124.847 325.608 124.883C325.565 124.918 325.515 124.944 325.461 124.96C325.408 124.976 325.351 124.981 325.296 124.976Z" fill="#263238"/>
<path d="M290.875 126.539L288.209 126.266C287.932 126.238 287.685 126.439 287.657 126.716L287.383 129.382C287.355 129.659 287.557 129.907 287.833 129.935L290.5 130.208C290.776 130.237 291.024 130.035 291.052 129.758L291.325 127.092C291.354 126.815 291.152 126.568 290.875 126.539Z" fill="#999999" stroke="#263238" stroke-linecap="round" stroke-linejoin="round"/>
<path d="M328 131.704L293.6 128.168C293.541 128.167 293.483 128.154 293.429 128.13C293.376 128.105 293.328 128.07 293.289 128.026C293.25 127.982 293.22 127.93 293.202 127.874C293.184 127.818 293.178 127.759 293.184 127.7C293.191 127.642 293.209 127.585 293.238 127.534C293.267 127.483 293.307 127.438 293.354 127.403C293.402 127.368 293.456 127.344 293.513 127.331C293.571 127.318 293.63 127.317 293.688 127.328L328.128 130.856C328.184 130.862 328.238 130.879 328.287 130.905C328.336 130.932 328.38 130.968 328.415 131.012C328.45 131.055 328.476 131.105 328.492 131.159C328.508 131.212 328.514 131.269 328.508 131.324C328.502 131.38 328.485 131.434 328.459 131.483C328.432 131.532 328.396 131.576 328.353 131.611C328.309 131.646 328.259 131.673 328.205 131.689C328.152 131.705 328.096 131.71 328.04 131.704H328Z" fill="#263238"/>
<path d="M324.456 133.192L293.384 129.992C293.273 129.98 293.171 129.924 293.1 129.837C293.03 129.75 292.997 129.639 293.008 129.528C293.02 129.416 293.075 129.313 293.162 129.242C293.249 129.17 293.36 129.135 293.472 129.144L324.544 132.344C324.656 132.356 324.76 132.412 324.831 132.499C324.902 132.587 324.936 132.7 324.924 132.812C324.912 132.924 324.856 133.028 324.769 133.099C324.681 133.17 324.568 133.204 324.456 133.192Z" fill="#263238"/>
<path d="M290.034 134.762L287.368 134.489C287.091 134.46 286.843 134.662 286.815 134.939L286.542 137.605C286.513 137.882 286.715 138.129 286.992 138.158L289.658 138.431C289.935 138.459 290.182 138.258 290.21 137.981L290.484 135.315C290.512 135.038 290.311 134.79 290.034 134.762Z" fill="#BFBFBF" stroke="#263238" stroke-miterlimit="10"/>
<path d="M327.2 139.92L292.76 136.392C292.704 136.387 292.65 136.371 292.6 136.345C292.55 136.319 292.507 136.284 292.471 136.24C292.435 136.197 292.408 136.147 292.392 136.094C292.376 136.04 292.37 135.984 292.376 135.928C292.388 135.817 292.443 135.714 292.53 135.642C292.616 135.57 292.727 135.535 292.84 135.544L327.288 139.08C327.346 139.081 327.404 139.094 327.458 139.119C327.512 139.143 327.559 139.179 327.598 139.223C327.638 139.267 327.667 139.319 327.685 139.375C327.703 139.431 327.709 139.49 327.703 139.548C327.697 139.607 327.679 139.664 327.649 139.715C327.62 139.766 327.581 139.81 327.533 139.845C327.486 139.88 327.432 139.905 327.374 139.918C327.317 139.931 327.257 139.932 327.2 139.92Z" fill="#263238"/>
<path d="M323.615 141.407L292.543 138.207C292.44 138.187 292.347 138.128 292.284 138.043C292.221 137.958 292.192 137.852 292.203 137.747C292.215 137.642 292.265 137.544 292.344 137.474C292.423 137.404 292.526 137.366 292.631 137.367L323.703 140.567C323.769 140.553 323.837 140.555 323.902 140.572C323.967 140.59 324.027 140.622 324.076 140.667C324.126 140.712 324.165 140.768 324.189 140.831C324.212 140.894 324.221 140.961 324.214 141.028C324.206 141.095 324.183 141.159 324.146 141.215C324.109 141.271 324.06 141.318 324.001 141.351C323.943 141.384 323.877 141.403 323.81 141.405C323.743 141.408 323.676 141.395 323.615 141.367V141.407Z" fill="#263238"/>
<path d="M289.192 142.977L286.526 142.704C286.249 142.675 286.002 142.877 285.974 143.154L285.7 145.82C285.672 146.097 285.873 146.344 286.15 146.372L288.816 146.646C289.093 146.674 289.341 146.473 289.369 146.196L289.642 143.53C289.671 143.253 289.469 143.005 289.192 142.977Z" fill="white" stroke="#263238" stroke-linecap="round" stroke-linejoin="round"/>
<path d="M326.336 148.137L291.888 144.609C291.807 144.571 291.74 144.51 291.696 144.432C291.652 144.355 291.633 144.265 291.643 144.177C291.653 144.088 291.69 144.005 291.75 143.939C291.81 143.873 291.889 143.827 291.976 143.809L326.4 147.297C326.466 147.283 326.534 147.284 326.598 147.302C326.663 147.319 326.723 147.352 326.773 147.397C326.823 147.442 326.861 147.498 326.885 147.561C326.909 147.623 326.917 147.691 326.91 147.758C326.903 147.824 326.88 147.888 326.843 147.944C326.806 148 326.756 148.047 326.698 148.08C326.639 148.113 326.574 148.132 326.507 148.135C326.44 148.138 326.373 148.125 326.312 148.097L326.336 148.137Z" fill="#263238"/>
<path d="M322.776 149.601L291.704 146.401C291.645 146.4 291.587 146.387 291.533 146.362C291.48 146.338 291.432 146.302 291.393 146.258C291.354 146.214 291.324 146.162 291.306 146.106C291.288 146.05 291.282 145.991 291.288 145.933C291.295 145.874 291.313 145.817 291.342 145.766C291.371 145.715 291.411 145.671 291.458 145.636C291.506 145.601 291.56 145.576 291.617 145.563C291.675 145.55 291.734 145.549 291.792 145.561L322.856 148.761C322.915 148.76 322.974 148.773 323.028 148.796C323.082 148.82 323.131 148.855 323.171 148.899C323.211 148.942 323.241 148.994 323.26 149.05C323.279 149.106 323.286 149.166 323.28 149.225C323.274 149.284 323.256 149.341 323.227 149.393C323.198 149.444 323.159 149.489 323.111 149.525C323.064 149.56 323.009 149.585 322.952 149.598C322.894 149.611 322.834 149.612 322.776 149.601Z" fill="#263238"/>
<path d="M311.008 208.347L312.974 208.549L314.126 197.304L312.161 197.102L311.008 208.347Z" fill="#757575" stroke="#263238" stroke-linecap="round" stroke-linejoin="round"/>
<path d="M311.187 206.646L313.153 206.848L313.695 201.555L311.729 201.354L311.187 206.646Z" fill="#4779A8" stroke="#263238" stroke-miterlimit="10"/>
<path d="M315.734 205.959L317.699 206.16L318.851 194.915L316.886 194.714L315.734 205.959Z" fill="#757575" stroke="#263238" stroke-linecap="round" stroke-linejoin="round"/>
<path d="M316.572 197.684L316.03 202.977L317.995 203.178L318.538 197.886L316.572 197.684Z" fill="#4779A8" stroke="#263238" stroke-miterlimit="10"/>
<path d="M319.934 208.558L321.9 208.76L323.052 197.515L321.086 197.313L319.934 208.558Z" fill="#757575" stroke="#263238" stroke-linecap="round" stroke-linejoin="round"/>
<path d="M320.367 204.34L322.333 204.541L322.875 199.249L320.909 199.047L320.367 204.34Z" fill="#4779A8" stroke="#263238" stroke-miterlimit="10"/>
<path d="M306.81 205.674L308.776 205.875L309.928 194.63L307.962 194.428L306.81 205.674Z" fill="#757575" stroke="#263238" stroke-linecap="round" stroke-linejoin="round"/>
<path d="M306.989 203.965L308.955 204.166L309.497 198.874L307.531 198.672L306.989 203.965Z" fill="#4779A8" stroke="#263238" stroke-miterlimit="10"/>
<path d="M302.046 208.535L304.012 208.736L305.164 197.491L303.198 197.29L302.046 208.535Z" fill="#757575" stroke="#263238" stroke-linecap="round" stroke-linejoin="round"/>
<path d="M302.172 207.273L304.137 207.475L304.679 202.182L302.714 201.981L302.172 207.273Z" fill="#4779A8" stroke="#263238" stroke-miterlimit="10"/>
<path d="M297.914 205.178L299.88 205.379L301.032 194.134L299.066 193.932L297.914 205.178Z" fill="#757575" stroke="#263238" stroke-linecap="round" stroke-linejoin="round"/>
<path d="M297.958 204.769L299.923 204.971L300.466 199.678L298.5 199.477L297.958 204.769Z" fill="#4779A8" stroke="#263238" stroke-miterlimit="10"/>
<path d="M292.881 210.607L294.847 210.809L295.999 199.563L294.034 199.362L292.881 210.607Z" fill="#757575" stroke="#263238" stroke-linecap="round" stroke-linejoin="round"/>
<path d="M292.916 210.189L294.882 210.391L295.424 205.098L293.458 204.897L292.916 210.189Z" fill="#4779A8" stroke="#263238" stroke-miterlimit="10"/>
<path d="M289.182 203.064L291.147 203.266L292.3 192.02L290.334 191.819L289.182 203.064Z" fill="#757575" stroke="#263238" stroke-linecap="round" stroke-linejoin="round"/>
<path d="M289.361 201.373L291.327 201.574L291.869 196.282L289.903 196.081L289.361 201.373Z" fill="#4779A8" stroke="#263238" stroke-miterlimit="10"/>
<path d="M284.814 201.967L286.78 202.168L287.932 190.923L285.966 190.721L284.814 201.967Z" fill="#757575" stroke="#263238" stroke-linecap="round" stroke-linejoin="round"/>
<path d="M285.255 197.715L287.221 197.916L287.763 192.624L285.798 192.422L285.255 197.715Z" fill="#4779A8" stroke="#263238" stroke-miterlimit="10"/>
<path d="M279.676 208.566L281.642 208.768L282.794 197.522L280.828 197.321L279.676 208.566Z" fill="#757575" stroke="#263238" stroke-linecap="round" stroke-linejoin="round"/>
<path d="M280.154 203.9L282.12 204.102L282.662 198.809L280.697 198.608L280.154 203.9Z" fill="#4779A8" stroke="#263238" stroke-miterlimit="10"/>
<path d="M275.754 203.162L277.719 203.363L278.871 192.118L276.906 191.917L275.754 203.162Z" fill="#757575" stroke="#263238" stroke-linecap="round" stroke-linejoin="round"/>
<path d="M275.969 201.047L277.935 201.248L278.477 195.956L276.512 195.754L275.969 201.047Z" fill="#4779A8" stroke="#263238" stroke-miterlimit="10"/>
<path d="M271.014 205.656L272.979 205.857L274.132 194.612L272.166 194.411L271.014 205.656Z" fill="#757575" stroke="#263238" stroke-linecap="round" stroke-linejoin="round"/>
<path d="M271.201 203.949L273.167 204.15L273.709 198.858L271.743 198.657L271.201 203.949Z" fill="#4779A8" stroke="#263238" stroke-miterlimit="10"/>
<path d="M266.072 210.248L268.038 210.449L269.19 199.204L267.225 199.003L266.072 210.248Z" fill="#757575" stroke="#263238" stroke-linecap="round" stroke-linejoin="round"/>
<path d="M266.087 210.24L268.053 210.441L268.595 205.149L266.629 204.948L266.087 210.24Z" fill="#4779A8" stroke="#263238" stroke-miterlimit="10"/>
<path d="M262.385 202.666L264.351 202.867L265.503 191.622L263.537 191.421L262.385 202.666Z" fill="#757575" stroke="#263238" stroke-linecap="round" stroke-linejoin="round"/>
<path d="M262.511 201.388L264.477 201.59L265.019 196.298L263.054 196.096L262.511 201.388Z" fill="#4779A8" stroke="#263238" stroke-miterlimit="10"/>
<path d="M258.455 197.279L260.42 197.48L261.573 186.235L259.607 186.034L258.455 197.279Z" fill="#757575" stroke="#263238" stroke-linecap="round" stroke-linejoin="round"/>
<path d="M258.597 196L260.562 196.201L261.105 190.909L259.139 190.707L258.597 196Z" fill="#4779A8" stroke="#263238" stroke-miterlimit="10"/>
<path d="M253.421 202.771L255.387 202.973L256.539 191.728L254.573 191.526L253.421 202.771Z" fill="#757575" stroke="#263238" stroke-linecap="round" stroke-linejoin="round"/>
<path d="M253.855 198.543L255.82 198.744L256.363 193.452L254.397 193.25L253.855 198.543Z" fill="#4779A8" stroke="#263238" stroke-miterlimit="10"/>
<path d="M248.348 208.672L250.314 208.873L251.466 197.628L249.5 197.427L248.348 208.672Z" fill="#757575" stroke="#263238" stroke-linecap="round" stroke-linejoin="round"/>
<path d="M248.864 203.584L250.83 203.785L251.372 198.493L249.406 198.291L248.864 203.584Z" fill="#4779A8" stroke="#263238" stroke-miterlimit="10"/>
<path d="M244.57 201.861L246.536 202.062L247.688 190.817L245.723 190.616L244.57 201.861Z" fill="#757575" stroke="#263238" stroke-linecap="round" stroke-linejoin="round"/>
<path d="M244.741 200.178L246.707 200.379L247.249 195.087L245.284 194.885L244.741 200.178Z" fill="#4779A8" stroke="#263238" stroke-miterlimit="10"/>
<path d="M240.335 199.547L242.301 199.748L243.453 188.503L241.487 188.302L240.335 199.547Z" fill="#757575" stroke="#263238" stroke-linecap="round" stroke-linejoin="round"/>
<path d="M240.814 194.879L242.779 195.08L243.322 189.788L241.356 189.586L240.814 194.879Z" fill="#4779A8" stroke="#263238" stroke-miterlimit="10"/>
<path d="M235.542 202.601L237.507 202.803L238.659 191.558L236.694 191.356L235.542 202.601Z" fill="#757575" stroke="#263238" stroke-linecap="round" stroke-linejoin="round"/>
<path d="M235.548 202.592L237.514 202.793L238.056 197.501L236.091 197.299L235.548 202.592Z" fill="#4779A8" stroke="#263238" stroke-miterlimit="10"/>
<path d="M231.477 198.627L233.443 198.828L234.595 187.583L232.629 187.382L231.477 198.627Z" fill="#757575" stroke="#263238" stroke-linecap="round" stroke-linejoin="round"/>
<path d="M231.566 197.789L233.531 197.99L234.073 192.698L232.108 192.497L231.566 197.789Z" fill="#4779A8" stroke="#263238" stroke-miterlimit="10"/>
<path d="M226.898 199.691L228.863 199.893L230.015 188.647L228.05 188.446L226.898 199.691Z" fill="#757575" stroke="#263238" stroke-linecap="round" stroke-linejoin="round"/>
<path d="M226.941 199.267L228.907 199.469L229.449 194.176L227.483 193.975L226.941 199.267Z" fill="#4779A8" stroke="#263238" stroke-miterlimit="10"/>
<path d="M222.618 197.791L224.583 197.992L225.736 186.747L223.77 186.546L222.618 197.791Z" fill="#757575" stroke="#263238" stroke-linecap="round" stroke-linejoin="round"/>
<path d="M223.186 192.295L225.151 192.496L225.694 187.204L223.728 187.002L223.186 192.295Z" fill="#4779A8" stroke="#263238" stroke-miterlimit="10"/>
<path d="M323.08 222.144L233.296 212.936C233.046 212.912 232.796 212.987 232.601 213.146C232.406 213.305 232.282 213.534 232.256 213.784C232.243 213.907 232.254 214.032 232.289 214.15C232.324 214.269 232.382 214.38 232.461 214.475C232.539 214.571 232.635 214.651 232.744 214.709C232.853 214.768 232.973 214.804 233.096 214.816L322.888 224C323.138 224.025 323.388 223.949 323.583 223.791C323.778 223.632 323.902 223.402 323.928 223.152C323.946 222.907 323.867 222.664 323.709 222.476C323.55 222.288 323.325 222.169 323.08 222.144Z" fill="#263238"/>
<path d="M322.4 228.904L217.984 218.2C217.734 218.175 217.484 218.251 217.289 218.41C217.094 218.568 216.97 218.798 216.944 219.048C216.931 219.172 216.942 219.297 216.978 219.416C217.013 219.535 217.072 219.646 217.151 219.742C217.23 219.838 217.328 219.917 217.438 219.975C217.547 220.033 217.668 220.069 217.792 220.08L322.2 230.784C322.449 230.806 322.696 230.73 322.89 230.571C323.083 230.413 323.206 230.184 323.232 229.936C323.245 229.813 323.234 229.69 323.2 229.571C323.165 229.453 323.107 229.343 323.03 229.247C322.953 229.151 322.857 229.072 322.749 229.013C322.641 228.954 322.522 228.917 322.4 228.904Z" fill="#263238"/>
<path d="M277.84 231.201L217.288 224.993C217.037 224.968 216.788 225.044 216.593 225.202C216.398 225.361 216.274 225.591 216.248 225.841C216.236 225.964 216.248 226.089 216.284 226.208C216.32 226.326 216.379 226.437 216.458 226.533C216.537 226.628 216.633 226.708 216.743 226.766C216.852 226.825 216.972 226.861 217.096 226.873L277.648 233.081C277.771 233.093 277.896 233.082 278.015 233.046C278.134 233.01 278.244 232.952 278.341 232.873C278.437 232.795 278.517 232.698 278.575 232.589C278.634 232.48 278.671 232.36 278.684 232.237C278.696 232.113 278.685 231.989 278.649 231.87C278.613 231.751 278.555 231.64 278.476 231.544C278.398 231.448 278.301 231.368 278.192 231.309C278.083 231.25 277.963 231.213 277.84 231.201Z" fill="#263238"/>
<path opacity="0.2" d="M332.984 170.792C329.888 170.544 328.816 175.48 328.816 175.48C328.816 175.48 323.92 169.08 324.696 153.976C324.696 153.976 322.296 147.288 315.896 151.328C309.496 155.368 302.848 169.6 304.432 185.12L292 143.768C287.696 144.68 278.952 150.464 281.256 178.392L267.656 163.992C267.656 163.992 263.976 162.808 261.896 166.064C259.816 169.32 260.808 192.64 262.528 201.36C264.248 210.08 259.864 227.6 259.864 227.6C259.864 227.6 255.176 207.76 246.696 202.736L214.4 136.16L203.656 240.88L215.76 242.12L235.2 232.656C235.088 237.032 234.984 241.056 234.664 244.056L331.816 254.008L338.768 186.152C336.408 177.696 334.152 170.88 332.984 170.792Z" fill="black" fill-opacity="0.7"/>
<path d="M350.072 75.8487L338.768 186.153L331.816 254.009L234.664 244.057L215.76 242.121L203.656 240.881L214.384 136.161L221.912 62.7207L350.072 75.8487Z" stroke="#263238" stroke-linecap="round" stroke-linejoin="round"/>
<path d="M348.472 359.816L291.672 369.48C291.672 369.48 281.784 316.96 275.888 308.68C269.992 300.4 271.088 297 268.208 291.424C266.48 288.056 257.808 281.776 251.016 275.576C250.424 275.04 249.848 274.504 249.296 273.976C249.056 273.76 248.832 273.528 248.608 273.312C247.704 272.416 246.864 271.544 246.12 270.688C245.848 270.384 245.581 270.08 245.32 269.776C244.059 268.372 243.119 266.709 242.568 264.904C242.543 264.823 242.527 264.74 242.52 264.656C242.497 264.559 242.481 264.46 242.472 264.36C242.32 263.12 242.16 261.704 242 260.168C242 259.864 241.936 259.544 241.896 259.224L241.848 258.84C241.712 257.56 241.56 256.2 241.384 254.8C241.208 253.4 241.016 251.816 240.792 250.288C240.72 249.76 240.648 249.232 240.56 248.688C240.472 248.096 240.376 247.504 240.28 246.904L240 245.36C240 245.272 239.96 245.192 239.952 245.12L239.616 243.344C239.594 243.279 239.581 243.212 239.576 243.144C239.464 242.624 239.36 242.112 239.24 241.592C238.992 240.432 238.712 239.296 238.44 238.192C237.889 236.114 237.18 234.082 236.32 232.112C232.224 222.968 237.552 226.272 234.344 202.744C234.344 202.744 236.704 197.288 243.432 201.648C243.952 201.987 244.454 202.353 244.936 202.744C246.299 203.847 247.503 205.134 248.512 206.568C249.88 208.521 250.922 210.682 251.6 212.968C252.699 216.676 253.01 220.573 252.512 224.408C252.512 224.408 257.568 241.736 260.232 245.68C262.896 249.624 273.912 226.968 273.2 224.328C272.95 223.144 272.76 221.947 272.632 220.744C272.584 220.352 272.536 219.944 272.48 219.496C272.424 219.048 272.376 218.6 272.328 218.128C272.328 217.904 272.272 217.664 272.24 217.432C272.24 217.336 272.24 217.24 272.24 217.152C272.144 216.248 272.032 215.288 271.928 214.296C271.928 214.016 271.872 213.752 271.84 213.496C271.792 213.024 271.744 212.536 271.696 212.056C271.691 211.976 271.691 211.896 271.696 211.816C271.696 211.544 271.632 211.264 271.608 211.016C271.544 210.456 271.488 209.888 271.432 209.32C271.376 208.752 271.336 208.344 271.288 207.856C271.192 206.936 271.104 206.016 271.016 205.128C270.952 204.464 270.888 203.808 270.832 203.168C270.832 203.024 270.832 202.88 270.792 202.744C270.456 199.224 270.192 196.344 270.096 195.096C270.096 195.096 262.096 183.24 261.296 177.656C260.496 172.072 260.544 166.192 263.896 163.8C271.832 158.152 269.496 167.256 273.064 171C276.632 174.744 282.064 180.944 285.152 182.872C288 184.68 290.544 191.672 290.904 192.728C290.496 191.192 286.424 176.088 286.336 173.048C286.232 169.848 283.784 152.92 287.936 146.848C292.088 140.776 297.624 145.488 298.136 146.688C298.648 147.888 298.8 164.288 300.264 168.848C301.728 173.408 307.856 192.424 307.856 192.424C307.856 192.424 308.112 173.928 309.456 165.648C310.8 157.368 314.432 150.896 317.952 150.528C321.472 150.16 324.728 154.04 324.728 154.04C324.728 154.04 323.336 167.24 323.736 170.288C324.136 173.336 323.16 184.344 324.832 190.288C324.832 190.288 324.64 174.52 327.088 172.504C329.536 170.488 331.64 169.52 333.016 170.904C334.392 172.288 334.688 181.6 336.088 187.216C337.488 192.832 337.312 200.464 338.232 209.224C339.152 217.984 342.776 230.144 342.056 237.096C341.336 244.048 339.12 261.288 337.336 271.408C335.552 281.528 331 295.408 331 295.408C331 295.408 333.072 302.808 332.672 309.408C332.272 316.008 348.472 359.816 348.472 359.816Z" fill="white"/>
<path opacity="0.4" d="M300.192 168.801C301.28 172.177 304.92 183.473 306.728 189.113C306.728 189.113 298.792 194.945 298.984 200.369C299.176 205.793 297.536 216.745 293.968 216.425C290.4 216.105 290.768 193.345 289.56 189.513C290.288 191.161 290.752 192.497 290.848 192.761C290.584 191.777 286.344 176.105 286.256 173.001C286.256 172.273 286.088 170.817 285.92 168.937C285.92 168.937 293.816 161.377 299.608 166.001C299.739 166.947 299.934 167.882 300.192 168.801Z" fill="#4779A8"/>
<path opacity="0.4" d="M323.784 175.297C320.088 178.801 314.512 184.993 313.808 190.969C313.808 190.969 315.864 207.657 314.984 214.969L307.784 192.401C307.784 192.401 308.04 173.905 309.384 165.625C309.384 165.401 309.464 165.169 309.504 164.945C313.998 162.658 318.958 161.435 324 161.369C323.69 164.31 323.586 167.269 323.688 170.225C323.809 171.913 323.841 173.606 323.784 175.297Z" fill="#4779A8"/>
<path opacity="0.4" d="M327.055 172.417C326.967 172.473 326.751 172.649 326.439 172.913C326.625 172.553 326.833 172.206 327.063 171.873L327.055 172.417Z" fill="#4779A8"/>
<path opacity="0.4" d="M328.936 218.553C328.936 218.553 324.184 200.729 324.136 186.377C324.096 181.065 324.712 176.225 326.432 172.953C326.617 172.593 326.825 172.246 327.056 171.913V172.425C327.916 171.682 328.868 171.053 329.888 170.553C328.552 172.633 327.016 176.705 328.792 183.353C331.584 193.681 329.152 206.345 328.936 218.553Z" fill="#4779A8"/>
<path opacity="0.4" d="M263.391 252.522C263.391 252.522 264.663 269.506 251.015 275.586C250.423 275.05 249.847 274.514 249.295 273.986C249.055 273.77 248.831 273.538 248.607 273.322C247.703 272.426 246.863 271.554 246.119 270.698C245.839 270.386 245.591 270.082 245.319 269.786C244.058 268.381 243.119 266.719 242.567 264.914C242.543 264.833 242.527 264.75 242.519 264.666C242.496 264.568 242.48 264.469 242.471 264.37C242.319 263.13 242.159 261.714 241.999 260.178C241.999 259.874 241.935 259.554 241.895 259.234L241.847 258.85C241.711 257.57 241.559 256.21 241.383 254.81C241.207 253.41 241.015 251.826 240.791 250.298C240.711 249.77 240.639 249.234 240.559 248.698C240.471 248.106 240.375 247.514 240.279 246.914L239.999 245.362C239.999 245.274 239.959 245.194 239.951 245.122L239.615 243.346C239.594 243.281 239.58 243.214 239.575 243.146C239.463 242.626 239.359 242.114 239.239 241.594C238.983 240.442 238.703 239.306 238.439 238.194C243.839 233.002 256.303 236.258 250.271 224.218C250.271 224.218 253.311 213.914 244.935 202.746C250.663 207.362 253.599 215.482 252.511 224.346C252.511 224.346 257.567 241.674 260.231 245.618C262.895 249.562 273.911 226.906 273.199 224.266C272.949 223.081 272.76 221.885 272.631 220.682C272.583 220.29 272.535 219.882 272.479 219.434C272.423 218.986 272.375 218.538 272.327 218.066C272.327 217.842 272.271 217.602 272.239 217.37C272.239 217.274 272.239 217.178 272.239 217.09C272.143 216.178 272.039 215.226 271.927 214.234C271.927 213.954 271.871 213.69 271.839 213.434C271.791 212.962 271.743 212.474 271.695 211.994C271.691 211.914 271.691 211.834 271.695 211.754C271.695 211.482 271.631 211.202 271.607 210.954C271.543 210.394 271.487 209.826 271.431 209.258C271.375 208.69 271.335 208.282 271.287 207.794C271.191 206.874 271.103 205.954 271.015 205.066C270.951 204.402 270.895 203.738 270.831 203.106C270.831 202.962 270.831 202.818 270.791 202.682C271.007 203.73 275.063 223.042 277.383 227.538C279.711 232.146 269.599 256.522 263.391 252.522Z" fill="#4779A8"/>
<path opacity="0.4" d="M337.304 271.297C335.52 281.425 330.968 295.297 330.968 295.297C330.968 295.297 333.04 302.697 332.64 309.297C332.528 311.073 333.632 315.561 335.28 321.161C334.8 319.929 329.68 306.713 329.784 302.105C329.888 297.265 328.512 295.929 325.784 289.985C323.056 284.041 318.976 284.697 318.976 284.697C318.976 284.697 317.376 299.521 313.664 289.777C309.952 280.033 309.224 268.697 318.608 229.337C318.608 229.337 320.024 234.273 318.84 248.937C317.656 263.601 321.16 268.041 321.16 268.041C326.427 258.862 330.612 249.104 333.632 238.961C333.632 238.961 332.416 256.073 331.336 263.865C330.256 271.657 335.184 254.833 338.624 244.441C341.824 234.689 341.976 230.977 340.744 224.033C341.656 228.921 342.344 233.633 341.992 237.001C341.304 243.921 339.088 261.177 337.304 271.297Z" fill="#4779A8"/>
<path opacity="0.4" d="M273.12 304.289C275.888 308.689 282.664 314.505 286.72 330.593C290.776 346.681 288.216 364.289 288.216 364.289L273.12 304.289Z" fill="#4779A8"/>
<path opacity="0.2" d="M251.608 212.936C251.608 212.936 237.44 220.136 236.32 232.136C232.224 222.992 237.552 226.296 234.344 202.768C234.344 202.768 236.704 197.312 243.432 201.672C243.952 202.011 244.454 202.377 244.936 202.768C246.299 203.871 247.503 205.158 248.512 206.592L251.608 212.936Z" fill="black" fill-opacity="0.7"/>
<path d="M291.672 369.48C291.672 369.48 281.784 316.96 275.888 308.68C269.992 300.4 271.088 297 268.208 291.424C265.328 285.848 243.464 272.28 242.496 264.352C241.528 256.424 240.416 241.256 236.32 232.104C232.224 222.952 237.552 226.264 234.336 202.736C234.336 202.736 236.736 197.28 243.432 201.64C250.128 206 253.696 214.72 252.52 224.376C252.52 224.376 257.576 241.688 260.248 245.64C262.92 249.592 273.912 226.928 273.2 224.28C272.488 221.632 270.376 199.112 270.048 195C270.048 195 262.048 183.136 261.248 177.552C260.448 171.968 260.496 166.088 263.848 163.704C271.784 158.056 269.448 167.16 273.016 170.904C276.584 174.648 282.016 180.84 285.096 182.776C288.176 184.712 290.864 192.8 290.864 192.8C290.864 192.8 286.344 176.208 286.256 173C286.168 169.792 283.704 152.872 287.856 146.808C292.008 140.744 297.552 145.44 298.064 146.64C298.576 147.84 298.728 164.24 300.2 168.8L307.776 192.376C307.776 192.376 308.04 173.88 309.424 165.6C310.808 157.32 314.4 150.848 317.92 150.48C321.44 150.112 324.696 153.992 324.696 153.992C324.696 153.992 323.304 167.192 323.696 170.24C324.088 173.288 323.128 184.288 324.8 190.24C324.8 190.24 324.608 174.472 327.056 172.456C329.504 170.44 331.608 169.472 332.984 170.856C334.36 172.24 334.656 181.552 336.056 187.168C337.456 192.784 337.28 200.416 338.2 209.176C339.12 217.936 342.744 230.096 342.024 237.04C341.304 243.984 339.088 261.24 337.296 271.368C335.504 281.496 330.976 295.368 330.976 295.368C330.976 295.368 333.04 302.768 332.64 309.368C332.24 315.968 348.464 359.904 348.464 359.904" stroke="#263238" stroke-linecap="round" stroke-linejoin="round"/>
<path d="M307.776 192.361C309.432 196.249 313.52 212.665 314.976 214.937C315.718 216.197 316.799 217.223 318.096 217.897" stroke="#263238" stroke-linecap="round" stroke-linejoin="round"/>
<path d="M324.8 190.201C324.8 190.201 324.448 193.569 326.264 204.289C328.08 215.009 328.968 219.577 329.984 221.969" stroke="#263238" stroke-linecap="round" stroke-linejoin="round"/>
<path d="M290.864 192.801C293.08 199.337 294.336 209.753 295.6 212.889C296.864 216.025 298 216.673 298 216.673" stroke="#263238" stroke-linecap="round" stroke-linejoin="round"/>
<path d="M294.456 208.465C295.79 209.479 296.847 210.813 297.528 212.345" stroke="#263238" stroke-linecap="round" stroke-linejoin="round"/>
<path d="M260.248 245.648C260.248 245.648 261.456 254.312 266.888 253.648" stroke="#263238" stroke-linecap="round" stroke-linejoin="round"/>
<path d="M273.2 224.289C273.2 224.289 274.608 234.593 272.304 238.961" stroke="#263238" stroke-linecap="round" stroke-linejoin="round"/>
<path d="M316.592 224.385C316.592 224.385 320.24 226.617 317.8 233.185C315.36 239.753 311.112 266.169 311.112 266.169" stroke="#263238" stroke-linecap="round" stroke-linejoin="round"/>
<path d="M332.472 231.297C334 237.217 334.136 237.369 331.672 244.641C329.208 251.913 325.184 269.729 325.184 269.729" stroke="#263238" stroke-linecap="round" stroke-linejoin="round"/>
<path d="M330.976 295.28C330.976 295.28 328.576 290.48 330.56 286.48" stroke="#263238" stroke-linecap="round" stroke-linejoin="round"/>
<path d="M275.888 308.689C275.888 308.689 281.92 317.161 284.544 326.641" stroke="#263238" stroke-linecap="round" stroke-linejoin="round"/>
<path d="M320.272 160.185L321.904 158.577L322.64 158.361L322.592 159.161L321.096 161.073L320.272 160.185Z" fill="#757575" stroke="#263238" stroke-linecap="round" stroke-linejoin="round"/>
<path d="M321.6 161.08L318.944 167.096L247.584 262.248L239.64 257.176L250.4 243.64L314.496 163.24L320.152 159.648C320.498 159.738 320.814 159.918 321.069 160.169C321.323 160.421 321.506 160.735 321.6 161.08Z" fill="#4779A8"/>
<path opacity="0.3" d="M321.6 161.081L318.944 167.097L247.584 262.249L239.64 257.177L250.4 243.641C255.36 243.129 256.192 246.041 256.192 246.041L317.672 165.801C317.064 163.641 314.472 163.225 314.472 163.225L320.128 159.633C320.48 159.72 320.803 159.9 321.062 160.155C321.321 160.41 321.507 160.73 321.6 161.081Z" fill="black" fill-opacity="0.7"/>
<path d="M321.6 161.08L318.944 167.096L247.584 262.248L239.64 257.176L250.4 243.64L314.496 163.24L320.152 159.648C320.498 159.738 320.814 159.918 321.069 160.169C321.323 160.421 321.506 160.735 321.6 161.08Z" stroke="#263238" stroke-linecap="round" stroke-linejoin="round"/>
<path d="M270.856 234.074C270.856 234.074 262.856 249.882 255.224 261.066L249.752 262.482C249.752 262.482 237.192 274.962 229.528 281.194C228.136 280.329 226.875 279.271 225.784 278.05C225.784 278.05 236.664 257.154 248.704 243.93C250.114 244.43 251.443 245.137 252.648 246.026C254.21 247.134 255.601 248.465 256.776 249.978L270.192 233.098L270.856 234.074Z" fill="#4779A8"/>
<path opacity="0.3" d="M270.856 234.072C270.856 234.072 262.856 249.88 255.224 261.064L249.752 262.48C249.752 262.48 237.192 274.96 229.528 281.192L229.736 277.8C238.048 265.104 248.608 251.256 252.648 246.024C254.21 247.133 255.601 248.464 256.776 249.976L249.32 259.928L253.592 259.128L270.192 233.064L270.856 234.072Z" fill="black" fill-opacity="0.7"/>
<path d="M270.856 234.074C270.856 234.074 262.856 249.882 255.224 261.066L249.752 262.482C249.752 262.482 237.192 274.962 229.528 281.194C228.136 280.329 226.875 279.271 225.784 278.05C225.784 278.05 236.664 257.154 248.704 243.93C250.114 244.43 251.443 245.137 252.648 246.026C254.21 247.134 255.601 248.465 256.776 249.978L270.192 233.098L270.856 234.074Z" stroke="#263238" stroke-linecap="round" stroke-linejoin="round"/>
<path d="M297.984 216.656L275.696 238.256L272.136 241.712C274.576 235.44 273.392 225.712 273.24 224.568C273.24 224.504 273.24 224.464 273.24 224.464C273.24 224.464 273.24 224.336 273.24 224.296C272.99 223.112 272.8 221.915 272.672 220.712C272.624 220.32 272.576 219.912 272.52 219.464C272.464 219.016 272.416 218.568 272.368 218.096C272.368 217.872 272.312 217.632 272.28 217.4C272.28 217.304 272.28 217.208 272.28 217.12C272.184 216.216 272.072 215.256 271.968 214.264C271.968 213.984 271.912 213.72 271.88 213.464C271.832 212.992 271.784 212.504 271.736 212.024C271.731 211.944 271.731 211.864 271.736 211.784C271.736 211.512 271.672 211.232 271.648 210.984C271.584 210.424 271.528 209.856 271.472 209.288C271.416 208.72 271.376 208.312 271.328 207.824C271.232 206.904 271.144 205.984 271.056 205.096C270.992 204.432 270.928 203.776 270.872 203.136C270.872 202.992 270.872 202.848 270.832 202.712C270.496 199.192 270.232 196.312 270.136 195.064C270.136 195.064 262.136 183.208 261.336 177.624C260.536 172.04 260.584 166.16 263.936 163.768C271.872 158.12 269.536 167.224 273.104 170.968C276.672 174.712 282.104 180.912 285.192 182.84C288.28 184.768 290.864 192.8 290.864 192.8C293.08 199.328 294.336 209.744 295.6 212.88C296.864 216.016 297.984 216.656 297.984 216.656Z" fill="white"/>
<path d="M294.456 208.465C295.79 209.479 296.847 210.813 297.528 212.345" stroke="#263238" stroke-linecap="round" stroke-linejoin="round"/>
<path opacity="0.4" d="M272.984 170.937C276.52 174.713 281.952 180.841 285.04 182.793C284.608 182.577 278.92 179.809 275.744 182.889C272.44 186.089 270.048 195.009 270.048 195.009C270.048 195.009 262.048 183.153 261.248 177.569C260.448 171.985 260.496 166.105 263.848 163.713C271.752 158.065 269.432 167.201 272.984 170.937Z" fill="#4779A8"/>
<path opacity="0.4" d="M275.696 238.273L272.136 241.729C274.576 235.457 273.392 225.729 273.24 224.585C273.25 224.494 273.25 224.403 273.24 224.313C272.99 223.128 272.8 221.932 272.672 220.729C272.624 220.337 272.576 219.929 272.52 219.481C272.464 219.033 272.416 218.585 272.368 218.113C272.368 217.889 272.312 217.649 272.28 217.417C272.28 217.321 272.28 217.225 272.28 217.137C272.184 216.225 272.08 215.273 271.968 214.281C271.968 214.001 271.912 213.737 271.88 213.481C271.832 213.009 271.784 212.521 271.736 212.041C271.731 211.961 271.731 211.88 271.736 211.801C271.736 211.529 271.672 211.249 271.648 211.001C271.584 210.441 271.528 209.873 271.472 209.305C271.416 208.737 271.376 208.329 271.328 207.841C271.232 206.921 271.144 206.001 271.056 205.113C270.992 204.449 270.936 203.785 270.872 203.153C270.872 203.009 270.872 202.865 270.832 202.729C271.048 203.777 275.104 223.089 277.424 227.585C278.208 229.217 277.392 233.601 275.696 238.273Z" fill="#4779A8"/>
<path d="M297.992 216.658C297.992 216.658 296.864 216.01 295.592 212.874C294.32 209.738 293.072 199.322 290.856 192.786C290.856 192.786 288.144 184.786 285.056 182.818C281.968 180.85 276.528 174.722 272.976 170.946C269.424 167.17 271.744 158.066 263.808 163.746C260.456 166.146 260.384 172.018 261.208 177.594C262.032 183.17 270.008 195.042 270.008 195.042C270.336 199.154 272.448 221.682 273.16 224.322" stroke="#263238" stroke-linecap="round" stroke-linejoin="round"/>
<path d="M273.2 224.289C273.2 224.289 274.608 234.593 272.304 238.961" stroke="#263238" stroke-linecap="round" stroke-linejoin="round"/>
<path opacity="0.2" d="M136.376 236.888C136.376 236.888 141.44 260.408 130.472 277.512C119.504 294.616 111.056 299.184 107.272 304.288C103.488 309.392 88.6159 337.928 88.6159 337.928L71.2559 286.512L88.6159 222.904L136.376 236.888Z" fill="black" fill-opacity="0.7"/>
<path d="M238.696 218.912L131.048 264.216L119.952 268.888L99.04 219.2L50.48 103.816L169.224 53.8398L238.696 218.912Z" fill="white"/>
<path d="M138.544 75.3192L87.2878 96.9192C86.8253 97.1133 86.4588 97.4833 86.269 97.9476C86.0792 98.4119 86.0817 98.9327 86.2758 99.3952C86.4699 99.8577 86.8399 100.224 87.3042 100.414C87.7686 100.604 88.2893 100.601 88.7518 100.407L140 78.7992C140.233 78.7061 140.445 78.5675 140.623 78.3916C140.802 78.2156 140.944 78.0059 141.041 77.7745C141.137 77.5432 141.187 77.2949 141.187 77.0442C141.186 76.7934 141.136 76.5452 141.039 76.3141C140.942 76.083 140.799 75.8735 140.62 75.698C140.441 75.5224 140.229 75.3843 139.996 75.2917C139.763 75.1991 139.514 75.1538 139.263 75.1585C139.012 75.1633 138.765 75.2179 138.536 75.3192H138.544Z" fill="#263238"/>
<path d="M128.744 87.872L103.144 98.656C102.913 98.7536 102.73 98.9391 102.635 99.1716C102.541 99.4042 102.542 99.6648 102.64 99.896C102.737 100.127 102.923 100.31 103.156 100.405C103.388 100.499 103.649 100.498 103.88 100.4L129.48 89.608C129.6 89.5641 129.71 89.4962 129.803 89.4084C129.896 89.3206 129.971 89.2148 130.022 89.0974C130.073 88.98 130.099 88.8535 130.1 88.7255C130.1 88.5975 130.075 88.4707 130.025 88.3529C129.975 88.235 129.902 88.1286 129.809 88.04C129.717 87.9514 129.607 87.8825 129.488 87.8375C129.368 87.7926 129.24 87.7724 129.112 87.7784C128.984 87.7843 128.859 87.8161 128.744 87.872Z" fill="#263238"/>
<path d="M170.912 153.6C170.912 153.6 171.992 162.088 168.832 163.416C165.944 164.632 162.144 160.08 158.824 161.472C155.504 162.864 158.12 174.912 154.92 176.256C151.72 177.6 147.864 172.656 145.096 173.856C142.328 175.056 144.008 181.216 141.16 182.416C138.808 183.4 135.448 178.48 132.76 177.4C132.512 177.279 132.243 177.21 131.968 177.196C131.693 177.182 131.418 177.224 131.16 177.32C128.344 178.504 129.744 191.44 127.312 192.456C126.631 192.749 125.89 192.872 125.152 192.816C124.247 192.645 123.328 192.557 122.408 192.552C122.055 192.588 121.71 192.677 121.384 192.816C119.312 193.688 119.592 200.496 117.696 201.296C115.8 202.096 113.928 201.104 111.904 201.952C109.88 202.8 109.912 206.344 106.888 207.616L108.168 210.648L181.856 179.64" fill="#BFBFBF"/>
<path d="M170.912 153.6C170.912 153.6 171.992 162.088 168.832 163.416C165.944 164.632 162.144 160.08 158.824 161.472C155.504 162.864 158.12 174.912 154.92 176.256C151.72 177.6 147.864 172.656 145.096 173.856C142.328 175.056 144.008 181.216 141.16 182.416C138.808 183.4 135.448 178.48 132.76 177.4C132.512 177.279 132.243 177.21 131.968 177.196C131.693 177.182 131.418 177.224 131.16 177.32C128.344 178.504 129.744 191.44 127.312 192.456C126.631 192.749 125.89 192.872 125.152 192.816C124.247 192.645 123.328 192.557 122.408 192.552C122.055 192.588 121.71 192.677 121.384 192.816C119.312 193.688 119.592 200.496 117.696 201.296C115.8 202.096 113.928 201.104 111.904 201.952C109.88 202.8 109.912 206.344 106.888 207.616L108.168 210.648L181.856 179.64" stroke="#263238" stroke-miterlimit="10"/>
<path d="M93.248 175.135L108.168 210.583L185.32 178.119" stroke="#263238" stroke-linecap="round" stroke-linejoin="round"/>
<path d="M176.84 167.664C176.84 167.664 176.472 167.216 175.928 166.68C174.976 165.76 173.464 164.592 172.312 165.08C171.16 165.568 171.088 167.416 171.112 169.416C171.112 171.816 171.352 174.456 170.128 174.968C169.088 175.408 168.16 174.752 167.2 174.032C166.104 173.232 164.984 172.32 163.632 172.888C161.36 173.848 162.032 176.808 161.232 179.344C161.014 180.073 160.63 180.742 160.109 181.298C159.589 181.853 158.946 182.28 158.232 182.544C156.272 183.344 154.28 182.544 152.4 181.28C149.2 179.12 146.384 175.616 144.544 176.392C141.608 177.632 144.84 185.568 141.688 186.896C139.928 187.64 136.28 182.096 132.736 177.296C129.936 173.512 127.2 170.216 125.536 170.896C121.736 172.496 128 191.48 125.24 192.64L125.152 192.68C124.708 192.863 124.225 192.935 123.747 192.889C123.269 192.843 122.809 192.68 122.408 192.416C121.416 191.856 120.6 191.048 119.504 191.512C117.464 192.376 118.656 199.816 116.416 200.76C114.176 201.704 112.824 200.336 110.296 201.4C108.16 202.304 106.888 207.48 106.888 207.48L108.168 210.512L181.856 179.504" fill="#757575"/>
<path d="M176.84 167.664C176.84 167.664 176.472 167.216 175.928 166.68C174.976 165.76 173.464 164.592 172.312 165.08C171.16 165.568 171.088 167.416 171.112 169.416C171.112 171.816 171.352 174.456 170.128 174.968C169.088 175.408 168.16 174.752 167.2 174.032C166.104 173.232 164.984 172.32 163.632 172.888C161.36 173.848 162.032 176.808 161.232 179.344C161.014 180.073 160.63 180.742 160.109 181.298C159.589 181.853 158.946 182.28 158.232 182.544C156.272 183.344 154.28 182.544 152.4 181.28C149.2 179.12 146.384 175.616 144.544 176.392C141.608 177.632 144.84 185.568 141.688 186.896C139.928 187.64 136.28 182.096 132.736 177.296C129.936 173.512 127.2 170.216 125.536 170.896C121.736 172.496 128 191.48 125.24 192.64L125.152 192.68C124.708 192.863 124.225 192.935 123.747 192.889C123.269 192.843 122.809 192.68 122.408 192.416C121.416 191.856 120.6 191.048 119.504 191.512C117.464 192.376 118.656 199.816 116.416 200.76C114.176 201.704 112.824 200.336 110.296 201.4C108.16 202.304 106.888 207.48 106.888 207.48L108.168 210.512L181.856 179.504" stroke="#263238" stroke-linecap="round" stroke-linejoin="round"/>
<path d="M161.24 192.967L135.64 203.751C135.409 203.849 135.226 204.034 135.131 204.267C135.037 204.499 135.038 204.76 135.136 204.991C135.234 205.222 135.419 205.405 135.652 205.5C135.884 205.594 136.145 205.593 136.376 205.495L161.976 194.711C162.207 194.613 162.39 194.428 162.485 194.195C162.579 193.963 162.578 193.702 162.48 193.471C162.382 193.24 162.197 193.057 161.964 192.962C161.732 192.868 161.471 192.869 161.24 192.967Z" fill="#263238"/>
<path d="M181.536 150.511L179.066 151.551C178.809 151.659 178.689 151.954 178.797 152.211L179.836 154.681C179.944 154.937 180.239 155.058 180.496 154.95L182.966 153.911C183.223 153.803 183.343 153.507 183.235 153.251L182.196 150.78C182.088 150.524 181.792 150.403 181.536 150.511Z" fill="#BFBFBF" stroke="#263238" stroke-miterlimit="10"/>
<path d="M194.936 146.318L184.696 150.63C184.591 150.671 184.474 150.669 184.37 150.626C184.265 150.583 184.182 150.501 184.136 150.398C184.093 150.295 184.093 150.18 184.135 150.076C184.177 149.973 184.257 149.89 184.36 149.846L194.608 145.534C194.711 145.492 194.827 145.491 194.93 145.533C195.033 145.575 195.116 145.656 195.16 145.758C195.182 145.81 195.194 145.865 195.195 145.921C195.196 145.977 195.186 146.033 195.165 146.085C195.144 146.137 195.113 146.185 195.074 146.225C195.034 146.265 194.988 146.297 194.936 146.318Z" fill="#263238"/>
<path d="M192.528 149.336L185.408 152.328C185.305 152.371 185.189 152.371 185.086 152.329C184.983 152.287 184.9 152.206 184.856 152.104C184.834 152.053 184.822 151.997 184.821 151.941C184.82 151.885 184.83 151.829 184.851 151.777C184.872 151.725 184.903 151.678 184.942 151.638C184.982 151.598 185.028 151.566 185.08 151.544L192.2 148.552C192.303 148.509 192.419 148.509 192.522 148.551C192.625 148.593 192.708 148.674 192.752 148.776C192.795 148.88 192.796 148.997 192.754 149.101C192.712 149.206 192.631 149.29 192.528 149.336Z" fill="#263238"/>
<path d="M184.743 158.128L182.273 159.168C182.016 159.276 181.896 159.571 182.004 159.828L183.043 162.298C183.151 162.555 183.446 162.675 183.703 162.567L186.173 161.528C186.43 161.42 186.55 161.124 186.442 160.868L185.403 158.397C185.295 158.141 184.999 158.02 184.743 158.128Z" fill="#757575" stroke="#263238" stroke-linecap="round" stroke-linejoin="round"/>
<path d="M198.136 153.936L187.896 158.24C187.844 158.262 187.787 158.273 187.731 158.272C187.674 158.272 187.618 158.261 187.565 158.239C187.513 158.217 187.465 158.185 187.425 158.145C187.385 158.104 187.354 158.057 187.332 158.004C187.311 157.951 187.3 157.895 187.3 157.838C187.3 157.782 187.311 157.725 187.333 157.673C187.355 157.621 187.387 157.573 187.428 157.533C187.468 157.493 187.516 157.462 187.568 157.44L197.808 153.128C197.861 153.106 197.917 153.096 197.974 153.096C198.03 153.096 198.087 153.107 198.139 153.129C198.191 153.151 198.239 153.183 198.279 153.223C198.319 153.264 198.351 153.311 198.372 153.364C198.394 153.417 198.405 153.473 198.404 153.53C198.404 153.586 198.393 153.643 198.371 153.695C198.349 153.747 198.317 153.795 198.277 153.835C198.236 153.875 198.189 153.906 198.136 153.928V153.936Z" fill="#263238"/>
<path d="M195.728 156.943L188.616 159.943C188.51 159.988 188.39 159.989 188.284 159.945C188.177 159.902 188.093 159.818 188.048 159.711C188.003 159.605 188.003 159.486 188.046 159.379C188.09 159.273 188.174 159.188 188.28 159.143L195.4 156.151C195.453 156.13 195.509 156.119 195.566 156.119C195.622 156.119 195.679 156.131 195.731 156.153C195.783 156.175 195.831 156.207 195.871 156.247C195.911 156.287 195.942 156.335 195.964 156.387C195.986 156.44 195.997 156.496 195.996 156.553C195.996 156.61 195.985 156.666 195.963 156.718C195.941 156.771 195.909 156.818 195.869 156.858C195.828 156.898 195.781 156.93 195.728 156.951V156.943Z" fill="#263238"/>
<path d="M211.608 185.327L128.408 220.335C128.177 220.433 127.994 220.618 127.899 220.851C127.805 221.083 127.806 221.344 127.904 221.575C128.002 221.806 128.187 221.989 128.42 222.084C128.652 222.178 128.913 222.177 129.144 222.079L212.344 187.063C212.464 187.019 212.574 186.951 212.667 186.863C212.761 186.776 212.835 186.67 212.886 186.553C212.937 186.435 212.964 186.309 212.964 186.181C212.965 186.053 212.939 185.926 212.889 185.808C212.839 185.69 212.766 185.584 212.673 185.495C212.581 185.406 212.472 185.338 212.352 185.293C212.232 185.248 212.104 185.228 211.976 185.233C211.849 185.239 211.723 185.271 211.608 185.327Z" fill="#263238"/>
<path d="M214.248 191.59L117.504 232.302C117.384 232.346 117.274 232.414 117.18 232.502C117.087 232.59 117.013 232.695 116.962 232.813C116.911 232.93 116.884 233.057 116.884 233.185C116.883 233.313 116.909 233.44 116.959 233.557C117.009 233.675 117.082 233.782 117.174 233.87C117.267 233.959 117.376 234.028 117.496 234.073C117.616 234.118 117.744 234.138 117.871 234.132C117.999 234.126 118.125 234.094 118.24 234.038L214.976 193.326C215.099 193.285 215.213 193.219 215.31 193.132C215.406 193.045 215.484 192.939 215.538 192.821C215.592 192.703 215.62 192.574 215.622 192.444C215.624 192.314 215.599 192.185 215.549 192.065C215.499 191.945 215.424 191.837 215.33 191.747C215.236 191.658 215.124 191.588 215.002 191.544C214.88 191.499 214.75 191.48 214.62 191.488C214.49 191.496 214.364 191.531 214.248 191.59Z" fill="#263238"/>
<path d="M216.88 197.854L120.144 238.566C120.024 238.61 119.914 238.678 119.821 238.766C119.727 238.854 119.653 238.96 119.602 239.077C119.551 239.194 119.524 239.321 119.524 239.449C119.523 239.577 119.549 239.704 119.599 239.822C119.649 239.939 119.722 240.046 119.815 240.134C119.907 240.223 120.016 240.292 120.136 240.337C120.256 240.382 120.384 240.402 120.512 240.396C120.639 240.39 120.765 240.358 120.88 240.302L217.6 199.59C217.72 199.547 217.83 199.479 217.923 199.391C218.017 199.303 218.091 199.197 218.142 199.08C218.193 198.962 218.219 198.836 218.22 198.708C218.221 198.58 218.195 198.453 218.145 198.335C218.095 198.217 218.022 198.111 217.929 198.022C217.837 197.934 217.728 197.865 217.608 197.82C217.488 197.775 217.36 197.755 217.232 197.761C217.104 197.767 216.979 197.799 216.864 197.854H216.88Z" fill="#263238"/>
<path d="M219.52 204.118L122.784 244.798C122.66 244.839 122.547 244.905 122.45 244.992C122.353 245.079 122.276 245.185 122.222 245.304C122.168 245.422 122.139 245.55 122.137 245.68C122.135 245.81 122.16 245.939 122.211 246.059C122.261 246.179 122.335 246.288 122.43 246.377C122.524 246.467 122.635 246.536 122.757 246.581C122.88 246.626 123.01 246.645 123.14 246.636C123.269 246.628 123.396 246.594 123.512 246.534L220.248 205.822C220.371 205.781 220.485 205.715 220.582 205.628C220.678 205.541 220.756 205.435 220.81 205.317C220.864 205.199 220.892 205.07 220.894 204.94C220.896 204.81 220.871 204.681 220.821 204.561C220.771 204.441 220.696 204.333 220.602 204.243C220.508 204.154 220.396 204.084 220.274 204.04C220.152 203.995 220.022 203.976 219.892 203.984C219.762 203.992 219.636 204.027 219.52 204.086V204.118Z" fill="#263238"/>
<path d="M181.52 227.479L125.416 251.095C125.296 251.139 125.186 251.207 125.093 251.294C124.999 251.382 124.925 251.488 124.874 251.605C124.823 251.723 124.796 251.849 124.796 251.977C124.795 252.105 124.821 252.232 124.871 252.35C124.921 252.468 124.994 252.574 125.087 252.663C125.179 252.751 125.288 252.82 125.408 252.865C125.528 252.91 125.656 252.93 125.784 252.924C125.911 252.919 126.037 252.887 126.152 252.831L182.256 229.223C182.37 229.174 182.474 229.104 182.562 229.016C182.649 228.927 182.718 228.822 182.765 228.707C182.812 228.592 182.835 228.469 182.834 228.344C182.834 228.22 182.808 228.097 182.76 227.983C182.712 227.868 182.641 227.764 182.553 227.677C182.464 227.59 182.359 227.521 182.244 227.474C182.129 227.427 182.006 227.403 181.882 227.404C181.757 227.405 181.634 227.43 181.52 227.479Z" fill="#263238"/>
<path d="M150.624 105.359C150.624 105.359 151.704 113.855 148.544 115.183C145.656 116.399 141.848 111.847 138.536 113.239C135.224 114.631 137.832 126.671 134.632 128.023C131.432 129.375 127.568 124.423 124.808 125.583C122.048 126.743 123.72 132.943 120.872 134.135C118.52 135.127 115.16 130.207 112.472 129.127C112.225 129.007 111.955 128.937 111.68 128.924C111.405 128.91 111.13 128.952 110.872 129.047C108.056 130.231 109.456 143.159 107.024 144.183C106.344 144.478 105.602 144.599 104.864 144.535C103.958 144.372 103.04 144.286 102.12 144.279C101.767 144.314 101.422 144.403 101.096 144.543C99.0241 145.415 99.3041 152.223 97.4081 153.015C95.5121 153.807 93.6401 152.831 91.6161 153.679C89.5921 154.527 89.6241 158.071 86.6001 159.343L87.8801 162.375L161.6 131.367" fill="#BFBFBF"/>
<path d="M150.624 105.359C150.624 105.359 151.704 113.855 148.544 115.183C145.656 116.399 141.848 111.847 138.536 113.239C135.224 114.631 137.832 126.671 134.632 128.023C131.432 129.375 127.568 124.423 124.808 125.583C122.048 126.743 123.72 132.943 120.872 134.135C118.52 135.127 115.16 130.207 112.472 129.127C112.225 129.007 111.955 128.937 111.68 128.924C111.405 128.91 111.13 128.952 110.872 129.047C108.056 130.231 109.456 143.159 107.024 144.183C106.344 144.478 105.602 144.599 104.864 144.535C103.958 144.372 103.04 144.286 102.12 144.279C101.767 144.314 101.422 144.403 101.096 144.543C99.0241 145.415 99.3041 152.223 97.4081 153.015C95.5121 153.807 93.6401 152.831 91.6161 153.679C89.5921 154.527 89.6241 158.071 86.6001 159.343L87.8801 162.375L161.6 131.367" stroke="#263238" stroke-miterlimit="10"/>
<path d="M155.384 116.68C155.384 116.68 156.056 120.792 154.432 121.48C153.08 122.048 152.248 121.256 150.824 121.208C150.129 121.187 149.437 121.32 148.8 121.6C147.496 122.144 147.2 123.904 146.952 125.792C146.664 128.12 146.52 130.648 144.816 131.392C143.624 131.896 142.336 131.6 141.008 131.136C138.888 130.4 136.664 129.232 134.512 130.136C133.472 130.576 132.744 131.736 132.176 133.104C130.84 136.408 130.424 141.192 128.976 141.8C126.92 142.672 123.152 139.136 121.328 139.904C119.504 140.672 120.248 143.84 118.768 144.464C117.288 145.088 116.44 143.248 113.832 144.344C111.224 145.44 112.496 149.296 108.816 150.848C105.136 152.4 103.52 149.544 99.968 151.04C96.416 152.536 97.056 155.24 94.544 156.296C92.032 157.352 90.976 155.496 89.184 156.296C87.392 157.096 86.96 159.888 86.936 160.064L87.92 162.4L161.6 131.368" fill="#4779A8"/>
<path d="M155.384 116.68C155.384 116.68 156.056 120.792 154.432 121.48C153.08 122.048 152.248 121.256 150.824 121.208C150.129 121.187 149.437 121.32 148.8 121.6C147.496 122.144 147.2 123.904 146.952 125.792C146.664 128.12 146.52 130.648 144.816 131.392C143.624 131.896 142.336 131.6 141.008 131.136C138.888 130.4 136.664 129.232 134.512 130.136C133.472 130.576 132.744 131.736 132.176 133.104C130.84 136.408 130.424 141.192 128.976 141.8C126.92 142.672 123.152 139.136 121.328 139.904C119.504 140.672 120.248 143.84 118.768 144.464C117.288 145.088 116.44 143.248 113.832 144.344C111.224 145.44 112.496 149.296 108.816 150.848C105.136 152.4 103.52 149.544 99.968 151.04C96.416 152.536 97.056 155.24 94.544 156.296C92.032 157.352 90.976 155.496 89.184 156.296C87.392 157.096 86.96 159.888 86.936 160.064L87.92 162.4L161.6 131.368" stroke="#263238" stroke-miterlimit="10"/>
<path d="M72.96 126.928L87.88 162.376L165.024 129.904" stroke="#263238" stroke-linecap="round" stroke-linejoin="round"/>
<path d="M140.72 144.207L115.12 154.991C114.889 155.088 114.705 155.272 114.61 155.504C114.515 155.736 114.515 155.996 114.612 156.227C114.709 156.459 114.893 156.642 115.125 156.737C115.357 156.833 115.617 156.832 115.848 156.735L141.448 145.951C141.562 145.903 141.666 145.833 141.754 145.744C141.841 145.656 141.91 145.551 141.957 145.436C142.004 145.321 142.027 145.197 142.026 145.073C142.026 144.949 142 144.826 141.952 144.711C141.904 144.597 141.833 144.493 141.745 144.406C141.656 144.318 141.551 144.249 141.436 144.202C141.321 144.156 141.198 144.132 141.074 144.133C140.949 144.134 140.826 144.159 140.712 144.207H140.72Z" fill="#263238"/>
<path d="M159.95 99.2261L157.48 100.265C157.223 100.373 157.103 100.669 157.211 100.925L158.25 103.396C158.358 103.652 158.653 103.773 158.91 103.665L161.38 102.625C161.637 102.517 161.757 102.222 161.649 101.965L160.61 99.4951C160.502 99.2386 160.206 99.1181 159.95 99.2261Z" fill="#BFBFBF" stroke="#263238" stroke-miterlimit="10"/>
<path d="M173.352 95.032L163.112 99.344C163.006 99.3845 162.89 99.383 162.785 99.3398C162.681 99.2967 162.598 99.2151 162.552 99.112C162.509 99.008 162.51 98.8915 162.554 98.7881C162.597 98.6846 162.68 98.6026 162.784 98.56L173.024 94.248C173.128 94.2057 173.244 94.2064 173.348 94.2499C173.451 94.2934 173.533 94.3761 173.576 94.48C173.598 94.5309 173.61 94.5857 173.611 94.6412C173.611 94.6967 173.601 94.7518 173.58 94.8032C173.559 94.8547 173.528 94.9014 173.489 94.9407C173.45 94.98 173.403 95.011 173.352 95.032Z" fill="#263238"/>
<path d="M170.944 98.0474L163.824 101.039C163.718 101.083 163.599 101.082 163.493 101.038C163.387 100.994 163.303 100.91 163.26 100.803C163.216 100.697 163.217 100.578 163.261 100.473C163.305 100.367 163.39 100.283 163.496 100.239L170.616 97.2394C170.719 97.1967 170.834 97.1962 170.938 97.2381C171.041 97.2801 171.124 97.361 171.168 97.4634C171.193 97.5163 171.207 97.5736 171.209 97.6321C171.212 97.6905 171.202 97.7488 171.181 97.8034C171.16 97.858 171.128 97.9078 171.087 97.9497C171.047 97.9917 170.998 98.0249 170.944 98.0474Z" fill="#263238"/>
<path d="M163.165 106.841L160.695 107.881C160.438 107.989 160.317 108.284 160.425 108.541L161.465 111.011C161.573 111.268 161.868 111.388 162.125 111.28L164.595 110.241C164.852 110.133 164.972 109.837 164.864 109.581L163.825 107.11C163.717 106.854 163.421 106.733 163.165 106.841Z" fill="#4779A8" stroke="#263238" stroke-miterlimit="10"/>
<path d="M176.552 102.646L166.312 106.958C166.208 107.001 166.092 107 165.988 106.956C165.885 106.913 165.803 106.83 165.76 106.726C165.738 106.676 165.726 106.621 165.725 106.565C165.724 106.51 165.735 106.455 165.756 106.403C165.777 106.352 165.807 106.305 165.847 106.266C165.886 106.226 165.933 106.195 165.984 106.174L176.224 101.862C176.277 101.841 176.333 101.83 176.39 101.83C176.446 101.83 176.503 101.842 176.555 101.864C176.607 101.885 176.655 101.918 176.695 101.958C176.735 101.998 176.766 102.046 176.788 102.098C176.81 102.151 176.821 102.207 176.82 102.264C176.82 102.321 176.809 102.377 176.787 102.429C176.765 102.482 176.733 102.529 176.693 102.569C176.652 102.609 176.605 102.641 176.552 102.662V102.646Z" fill="#263238"/>
<path d="M174.144 105.662L167.032 108.654C166.926 108.699 166.806 108.7 166.7 108.656C166.593 108.613 166.509 108.528 166.464 108.422C166.419 108.316 166.419 108.197 166.462 108.09C166.506 107.984 166.59 107.899 166.696 107.854L173.816 104.862C173.869 104.841 173.925 104.83 173.982 104.83C174.038 104.83 174.095 104.842 174.147 104.864C174.199 104.886 174.247 104.918 174.287 104.958C174.327 104.998 174.358 105.046 174.38 105.098C174.402 105.151 174.413 105.207 174.412 105.264C174.412 105.321 174.401 105.377 174.379 105.429C174.357 105.482 174.325 105.529 174.285 105.569C174.244 105.609 174.197 105.641 174.144 105.662Z" fill="#263238"/>
<path opacity="0.2" d="M131.048 264.216L119.952 268.888L99.04 219.2C100.908 217.347 102.133 214.944 102.536 212.344C103.784 205.688 102.904 184.288 119.568 182.08C136.232 179.872 122.176 217.344 122.944 224.48C123.648 230.992 133.144 249.896 131.048 264.216Z" fill="black" fill-opacity="0.7"/>
<path d="M238.696 218.912L131.048 264.216L119.952 268.888L99.04 219.2L50.48 103.816L169.224 53.8398L238.696 218.912Z" stroke="#263238" stroke-linecap="round" stroke-linejoin="round"/>
<path d="M124.344 227.2C126.216 220.8 133.512 200.304 132.552 191.24C132.474 190.485 132.302 189.744 132.04 189.032C129.48 182.264 119.016 182.92 114.992 188.528C110.584 194.696 106.992 205.8 106.672 212.528C106.389 215.903 105.291 219.159 103.472 222.016C102.844 223.071 102.135 224.077 101.352 225.024L77.4961 168.424C75.086 170.431 72.9812 172.778 71.2481 175.392C70.2736 176.85 69.6444 178.51 69.4081 180.248C68.9201 185.832 62.6001 208.8 60.0001 218.4C59.9441 218.608 59.8881 218.808 59.8401 219C57.3121 228.296 63.9841 262.824 62.0721 272.856C60.1601 282.888 58.9841 282.656 58.7041 289.784C58.5041 294.984 51.0641 310.792 42.7041 327.024C37.9041 336.328 32.8481 345.752 28.6641 353.424L89.7201 350.888C90.7761 343.472 91.8641 335.64 92.8561 328.056C93.2872 324.901 93.8962 321.774 94.6801 318.688C96.0241 313.248 97.6641 308.328 98.6801 305.448C99.9774 301.218 101.046 296.921 101.88 292.576C108.984 285.056 118.296 273.24 120.992 265.24V265.184C121.652 263.541 121.862 261.751 121.6 260C121.303 258.562 121.139 257.1 121.112 255.632C120.8 246.944 122.776 232.52 124.344 227.2Z" fill="white"/>
<path opacity="0.4" d="M103.488 222.072C101.592 225.872 99.3123 229.56 97.8883 233.816C96.4643 238.072 94.8723 238.68 90.6003 242.016C86.3283 245.352 83.2083 239.856 83.2083 239.856C83.2083 239.856 88.8643 233.984 86.9843 230.712C85.1043 227.44 78.0643 219.304 78.4803 214.816C78.8963 210.328 74.2163 200.264 74.2163 200.264C74.2163 200.264 84.8803 194 82.8083 186.664C81.6803 182.664 76.0963 178.4 71.2803 175.368C73.0134 172.755 75.1182 170.407 77.5283 168.4L101.4 225.056C102.171 224.116 102.869 223.119 103.488 222.072Z" fill="#4779A8"/>
<path opacity="0.4" d="M64.8003 256.8C64.9443 257.28 68.4163 268.744 65.4883 273.52C62.5603 278.296 59.5523 284.632 60.9843 291.12C62.1203 296.304 52.5203 315.024 42.7363 327.04C51.0723 310.808 58.5123 295 58.7363 289.8C59.0163 282.672 60.1923 282.888 62.1043 272.872C64.0163 262.856 57.3043 228.312 59.8723 219.016C59.9203 218.824 59.9763 218.624 60.0323 218.416C61.8963 228.952 66.2323 249.936 67.4243 256.68C68.8883 265.288 64.9283 257.16 64.8003 256.8Z" fill="#4779A8"/>
<path opacity="0.4" d="M86.752 326C93.848 295.448 117.728 272.024 120.96 265.24C118.264 273.24 108.96 285.056 101.848 292.576C101.014 296.921 99.9453 301.218 98.648 305.448C97.648 308.328 96.008 313.248 94.648 318.688C87.7439 326.872 86.752 326 86.752 326Z" fill="#4779A8"/>
<path opacity="0.4" d="M124.344 227.199C122.744 232.519 120.8 246.943 121.104 255.607C119.848 250.167 117.432 243.255 117.032 233.631C116.352 217.311 125.6 223.199 122.4 215.127C119.2 207.055 109.984 217.391 114.512 200.375C117.816 187.951 127.232 188.063 132.064 189.031C132.326 189.743 132.498 190.485 132.576 191.239C133.512 200.303 126.216 220.799 124.344 227.199Z" fill="#4779A8"/>
<path d="M37.9521 336.583C45.6001 322.591 53.0482 308.199 58.4002 292.679C59.0402 290.447 58.1842 287.535 58.8322 285.303C66.0802 265.151 57.8562 244.167 59.2082 223.519C60.3522 215.383 62.9522 207.199 65.6002 198.983C66.8242 193.055 67.2802 186.415 69.2402 180.447C71.2562 175.951 73.2402 170.727 77.5362 168.447C85.6962 187.143 93.8242 205.927 101.408 225.103C104.84 223.119 105.408 218.703 105.968 214.983C107.808 206.079 109.672 197.919 113.04 190.423C116.464 184.399 125.184 181.831 130.536 186.751C132.071 188.289 132.948 190.363 132.984 192.535C131.944 202.871 128.696 213.335 125.424 222.999C124.136 227.463 122.824 231.199 122.272 235.631C122.328 237.103 122.36 237.831 122.424 239.303C120.528 246.735 122.272 253.279 121.84 260.655C120.184 273.959 109.536 283.223 101.84 293.103C99.9362 300.535 98.0402 307.967 95.4402 315.431C92.2402 326.631 91.2162 337.671 90.1202 348.431" stroke="#263238" stroke-linecap="round" stroke-linejoin="round"/>
<path d="M101.376 225.08C99.9281 227.874 98.7494 230.799 97.8563 233.816C96.8563 237.736 91.7923 237.176 89.1763 239.608" stroke="#263238" stroke-linecap="round" stroke-linejoin="round"/>
<path d="M82.272 218.176C82.272 218.176 89.16 220.576 93.176 223.736C97.192 226.896 100.152 227.632 100.152 227.632" stroke="#263238" stroke-linecap="round" stroke-linejoin="round"/>
<path d="M77.8804 201.095C77.8804 201.095 83.4804 202.655 87.5604 200.695C87.7466 198.699 88.0971 196.722 88.6084 194.783" stroke="#263238" stroke-linecap="round" stroke-linejoin="round"/>
<path d="M88.8882 201.504C88.8882 201.504 88.9442 202.304 91.7762 202.304" stroke="#263238" stroke-linecap="round" stroke-linejoin="round"/>
<path d="M101.848 292.576C97.9667 296.495 94.9856 301.212 93.1123 306.4" stroke="#263238" stroke-linecap="round" stroke-linejoin="round"/>
<path d="M59.4879 220.736C59.2319 225.536 64.8639 242.56 66.5679 251.024C68.2719 259.488 68.9199 265.472 68.9199 265.472" stroke="#263238" stroke-linecap="round" stroke-linejoin="round"/>
</svg>
