<svg width="500" height="500" viewBox="0 0 500 500" fill="none" xmlns="http://www.w3.org/2000/svg">
<path d="M329.22 43.7706C329.22 43.7706 255.77 22.1406 183.22 65.8906C110.67 109.641 73.73 191.211 42 256.671C10.27 322.131 27.85 386.241 82.82 413.171C137.79 440.101 175.59 394.571 252.99 388.631C330.39 382.691 351.13 392.351 415.62 347.031C480.11 301.711 492.38 201.571 442.21 130.391C392.04 59.2106 329.22 43.7706 329.22 43.7706Z" fill="#4779A8"/>
<path opacity="0.7" d="M329.22 43.7706C329.22 43.7706 255.77 22.1406 183.22 65.8906C110.67 109.641 73.73 191.211 42 256.671C10.27 322.131 27.85 386.241 82.82 413.171C137.79 440.101 175.59 394.571 252.99 388.631C330.39 382.691 351.13 392.351 415.62 347.031C480.11 301.711 492.38 201.571 442.21 130.391C392.04 59.2106 329.22 43.7706 329.22 43.7706Z" fill="white"/>
<path d="M133.38 79.6091C131.356 81.8124 129.93 84.4979 129.24 87.4091C127.743 85.3871 125.558 83.983 123.096 83.4616C120.635 82.9403 118.068 83.3378 115.88 84.5791C115.471 79.7485 113.337 75.2264 109.868 71.8393C106.4 68.4521 101.829 66.426 96.9899 66.1311C92.151 65.8363 87.3675 67.2924 83.5136 70.2334C79.6597 73.1744 76.9926 77.4039 75.9998 82.1491C73.6316 79.8145 70.4657 78.4656 67.1414 78.3746C63.8172 78.2837 60.5822 79.4575 58.0898 81.6591" stroke="#263238" stroke-miterlimit="10"/>
<path d="M188.4 58.3192C181.683 57.2669 174.818 58.8223 169.211 62.667C163.604 66.5117 159.679 72.3546 158.24 78.9992C155.505 76.3045 151.952 74.5955 148.139 74.1411C144.327 73.6867 140.471 74.5127 137.18 76.4892" stroke="#263238" stroke-miterlimit="10"/>
<path d="M203.37 66.089C201.505 64.1501 199.357 62.5048 197 61.209" stroke="#263238" stroke-miterlimit="10"/>
<path d="M193.78 91.9994H243C242.372 90.9591 241.531 90.0632 240.533 89.3703C239.535 88.6774 238.402 88.2031 237.207 87.9784C236.013 87.7537 234.785 87.7838 233.603 88.0666C232.422 88.3493 231.313 88.8785 230.35 89.6194C229.699 87.7327 228.641 86.0122 227.251 84.58C225.86 83.1478 224.172 82.0388 222.306 81.3318C220.439 80.6247 218.44 80.3368 216.45 80.4884C214.46 80.6401 212.528 81.2276 210.79 82.2094C210.363 77.3805 208.616 72.762 205.74 68.8594" stroke="#263238" stroke-miterlimit="10"/>
<path d="M56.0599 84C54.5038 86.2138 53.6692 88.854 53.6699 91.56C53.6699 91.73 53.6699 91.89 53.6699 92.05H184.09" stroke="#263238" stroke-miterlimit="10"/>
<path d="M230.66 100.759C229.102 99.429 227.225 98.526 225.213 98.1389C223.201 97.7518 221.123 97.8938 219.183 98.551C217.242 99.2083 215.505 100.358 214.143 101.888C212.78 103.418 211.839 105.276 211.41 107.279C210.435 106.32 209.223 105.637 207.898 105.301C206.572 104.966 205.181 104.989 203.868 105.369C202.554 105.748 201.366 106.471 200.424 107.463C199.482 108.454 198.822 109.678 198.51 111.009C198.084 110.435 197.529 109.968 196.89 109.646C196.251 109.325 195.545 109.158 194.83 109.159C194.039 109.161 193.261 109.365 192.57 109.749C192.347 107.632 191.38 105.662 189.841 104.19C188.303 102.718 186.292 101.839 184.167 101.71C182.041 101.58 179.939 102.208 178.233 103.483C176.527 104.757 175.328 106.595 174.85 108.669C174.028 107.862 172.985 107.315 171.854 107.097C170.722 106.88 169.551 107.001 168.489 107.447C167.426 107.892 166.518 108.642 165.88 109.601C165.241 110.56 164.9 111.687 164.9 112.839C164.895 112.909 164.895 112.98 164.9 113.049H249.1C248.815 112.591 248.438 112.198 247.991 111.895C247.544 111.592 247.039 111.387 246.508 111.293C245.977 111.198 245.432 111.217 244.908 111.347C244.385 111.478 243.895 111.717 243.47 112.049C243.066 110.854 242.296 109.817 241.269 109.085C240.243 108.352 239.011 107.962 237.75 107.969C236.699 107.968 235.666 108.237 234.75 108.749C234.672 107.866 234.494 106.993 234.22 106.149" stroke="#263238" stroke-miterlimit="10"/>
<path d="M384.69 253C383.171 254.637 382.106 256.644 381.6 258.82C380.881 257.853 379.946 257.068 378.869 256.528C377.793 255.988 376.604 255.708 375.4 255.71C374.071 255.706 372.764 256.051 371.61 256.71C371.277 253.12 369.672 249.768 367.083 247.259C364.494 244.75 361.093 243.25 357.495 243.03C353.897 242.81 350.339 243.885 347.464 246.06C344.589 248.235 342.587 251.367 341.82 254.89C340.05 253.147 337.685 252.14 335.203 252.072C332.72 252.003 330.304 252.878 328.44 254.52" stroke="#263238" stroke-miterlimit="10"/>
<path d="M425.81 237.09C424.787 236.934 423.755 236.853 422.72 236.85C418.171 236.85 413.759 238.41 410.22 241.269C406.681 244.127 404.228 248.112 403.27 252.56C401.224 250.545 398.567 249.267 395.715 248.929C392.864 248.59 389.981 249.21 387.52 250.69" stroke="#263238" stroke-miterlimit="10"/>
<path d="M437 242.9C435.595 241.447 433.976 240.216 432.2 239.25" stroke="#263238" stroke-miterlimit="10"/>
<path d="M429.83 262.26H466.6C466.13 261.484 465.501 260.816 464.756 260.3C464.01 259.783 463.164 259.429 462.272 259.261C461.381 259.094 460.464 259.115 459.581 259.325C458.699 259.535 457.87 259.929 457.15 260.48C456.658 259.075 455.862 257.794 454.821 256.73C453.779 255.666 452.516 254.843 451.122 254.32C449.727 253.798 448.235 253.588 446.75 253.705C445.266 253.822 443.825 254.265 442.53 255C442.211 251.383 440.904 247.923 438.75 245" stroke="#263238" stroke-miterlimit="10"/>
<path d="M326.9 256.25C325.74 257.905 325.118 259.878 325.12 261.9C325.12 262.02 325.12 262.14 325.12 262.26H422.57" stroke="#263238" stroke-miterlimit="10"/>
<path d="M457.39 268.809C455.795 267.441 453.761 266.693 451.66 266.699C449.634 266.7 447.669 267.395 446.093 268.669C444.517 269.943 443.425 271.718 443 273.699C442.272 272.984 441.367 272.475 440.377 272.225C439.387 271.975 438.349 271.992 437.368 272.277C436.388 272.561 435.501 273.101 434.798 273.841C434.095 274.581 433.602 275.495 433.37 276.489C433.049 276.06 432.632 275.712 432.153 275.472C431.674 275.233 431.146 275.108 430.61 275.109C430.021 275.108 429.442 275.259 428.93 275.549C428.79 273.947 428.078 272.448 426.926 271.326C425.773 270.204 424.255 269.533 422.65 269.436C421.044 269.339 419.457 269.822 418.178 270.798C416.898 271.773 416.012 273.175 415.68 274.749C415.068 274.142 414.29 273.73 413.443 273.566C412.597 273.401 411.721 273.49 410.926 273.823C410.131 274.156 409.453 274.717 408.976 275.435C408.5 276.154 408.247 276.997 408.25 277.859C408.245 277.912 408.245 277.966 408.25 278.019H471.16C470.953 277.672 470.675 277.373 470.343 277.141C470.012 276.91 469.635 276.751 469.238 276.677C468.841 276.602 468.432 276.613 468.039 276.708C467.647 276.803 467.279 276.981 466.96 277.229C466.641 276.35 466.059 275.59 465.294 275.053C464.528 274.517 463.615 274.229 462.68 274.229C461.901 274.23 461.136 274.433 460.46 274.819C460.4 274.156 460.266 273.502 460.06 272.869" stroke="#263238" stroke-miterlimit="10"/>
<path d="M234.29 156.551H97.8101V358.071H234.29V156.551Z" fill="#263238" stroke="#263238" stroke-linecap="round" stroke-linejoin="round"/>
<path d="M225.51 166.32H106.59V348.52H225.51V166.32Z" fill="white" stroke="#263238" stroke-linecap="round" stroke-linejoin="round"/>
<path d="M142.63 150.32H189.47C191.229 150.32 192.915 151.019 194.158 152.262C195.402 153.506 196.1 155.192 196.1 156.95V171.06H136V157C135.994 156.125 136.16 155.258 136.49 154.448C136.821 153.638 137.308 152.901 137.924 152.28C138.541 151.659 139.274 151.166 140.081 150.83C140.889 150.493 141.755 150.32 142.63 150.32Z" fill="#7D7D7D" stroke="#263238" stroke-linecap="round" stroke-linejoin="round"/>
<path d="M162 141.84H170C170.945 141.83 171.883 142.007 172.759 142.363C173.635 142.718 174.431 143.245 175.101 143.911C175.771 144.578 176.302 145.371 176.662 146.245C177.023 147.118 177.206 148.055 177.2 149V150.3H154.91V149C154.905 148.064 155.084 147.137 155.438 146.27C155.791 145.404 156.312 144.615 156.971 143.95C157.629 143.285 158.413 142.757 159.276 142.395C160.139 142.033 161.064 141.844 162 141.84Z" fill="#7D7D7D" stroke="#263238" stroke-linecap="round" stroke-linejoin="round"/>
<path d="M196.09 214.41C206.716 214.41 215.33 205.796 215.33 195.17C215.33 184.544 206.716 175.93 196.09 175.93C185.464 175.93 176.85 184.544 176.85 195.17C176.85 205.796 185.464 214.41 196.09 214.41Z" fill="#263238" stroke="#263238" stroke-linecap="round" stroke-linejoin="round"/>
<path d="M209.39 190.36H201.18V182.16H191.56V190.36H183.36V199.98H191.56V208.19H201.18V199.98H209.39V190.36Z" fill="#4779A8" stroke="#263238" stroke-linecap="round" stroke-linejoin="round"/>
<path d="M116.87 194.609H163.27" stroke="#263238" stroke-linecap="round" stroke-linejoin="round"/>
<path d="M116.87 204.23H163.27" stroke="#263238" stroke-linecap="round" stroke-linejoin="round"/>
<path d="M116.87 235.92H214.76" stroke="#263238" stroke-linecap="round" stroke-linejoin="round"/>
<path d="M128.76 244.971H117.44V256.851H128.76V244.971Z" stroke="#263238" stroke-linecap="round" stroke-linejoin="round"/>
<path d="M181.38 244.971H170.06V256.851H181.38V244.971Z" stroke="#263238" stroke-linecap="round" stroke-linejoin="round"/>
<path d="M133.28 256.85H161.01" stroke="#263238" stroke-linecap="round" stroke-linejoin="round"/>
<path d="M185.9 256.85H213.63" stroke="#263238" stroke-linecap="round" stroke-linejoin="round"/>
<path d="M128.76 268.17H117.44V280.05H128.76V268.17Z" stroke="#263238" stroke-linecap="round" stroke-linejoin="round"/>
<path d="M181.38 268.17H170.06V280.05H181.38V268.17Z" stroke="#263238" stroke-linecap="round" stroke-linejoin="round"/>
<path d="M133.28 280.051H161.01" stroke="#263238" stroke-linecap="round" stroke-linejoin="round"/>
<path d="M185.9 280.051H213.63" stroke="#263238" stroke-linecap="round" stroke-linejoin="round"/>
<path d="M128.76 291.371H117.44V303.251H128.76V291.371Z" stroke="#263238" stroke-linecap="round" stroke-linejoin="round"/>
<path d="M181.38 291.371H170.06V303.251H181.38V291.371Z" stroke="#263238" stroke-linecap="round" stroke-linejoin="round"/>
<path d="M133.28 303.25H161.01" stroke="#263238" stroke-linecap="round" stroke-linejoin="round"/>
<path d="M185.9 303.25H213.63" stroke="#263238" stroke-linecap="round" stroke-linejoin="round"/>
<path d="M128.76 314.57H117.44V326.45H128.76V314.57Z" stroke="#263238" stroke-linecap="round" stroke-linejoin="round"/>
<path d="M181.38 314.57H170.06V326.45H181.38V314.57Z" stroke="#263238" stroke-linecap="round" stroke-linejoin="round"/>
<path d="M133.28 326.451H161.01" stroke="#263238" stroke-linecap="round" stroke-linejoin="round"/>
<path d="M185.9 326.451H213.63" stroke="#263238" stroke-linecap="round" stroke-linejoin="round"/>
<path d="M356.84 100.73H252.35V296.99H356.84V100.73Z" fill="#4779A8" stroke="#263238" stroke-linecap="round" stroke-linejoin="round"/>
<path d="M346.13 124.181C343.464 124.181 340.908 123.122 339.023 121.237C337.139 119.353 336.08 116.796 336.08 114.131H272.45C272.45 116.796 271.391 119.353 269.506 121.237C267.622 123.122 265.065 124.181 262.4 124.181V272.881C265.065 272.881 267.622 273.94 269.506 275.824C271.391 277.709 272.45 280.265 272.45 282.931C272.45 283.161 272.45 283.381 272.45 283.601H336.16C336.16 283.381 336.16 283.161 336.16 282.931C336.16 280.265 337.219 277.709 339.103 275.824C340.988 273.94 343.544 272.881 346.21 272.881C346.44 272.881 346.66 272.881 346.88 272.881V124.141C346.58 124.161 346.36 124.181 346.13 124.181ZM304.6 229.341C298.572 229.341 292.679 227.553 287.666 224.204C282.654 220.855 278.747 216.095 276.44 210.525C274.133 204.956 273.529 198.827 274.706 192.915C275.882 187.002 278.785 181.571 283.047 177.308C287.31 173.046 292.741 170.143 298.654 168.967C304.566 167.79 310.695 168.394 316.264 170.701C321.834 173.008 326.594 176.915 329.943 181.927C333.292 186.939 335.08 192.832 335.08 198.861C335.08 206.945 331.869 214.697 326.153 220.413C320.436 226.13 312.684 229.341 304.6 229.341Z" fill="white" stroke="#263238" stroke-linecap="round" stroke-linejoin="round"/>
<path d="M385.583 119.002L282.343 102.891L252.081 296.803L355.321 312.915L385.583 119.002Z" fill="#4779A8" stroke="#263238" stroke-linecap="round" stroke-linejoin="round"/>
<path d="M371.37 140.53C370.065 140.332 368.812 139.877 367.684 139.192C366.555 138.507 365.574 137.605 364.796 136.539C364.017 135.472 363.458 134.263 363.15 132.979C362.842 131.695 362.791 130.364 363 129.06L300.13 119.24C299.716 121.873 298.275 124.233 296.123 125.805C293.971 127.376 291.283 128.029 288.65 127.62L265.7 274.54C268.329 274.951 270.688 276.389 272.259 278.537C273.83 280.686 274.485 283.37 274.08 286C274.08 286.22 273.99 286.44 273.94 286.65L336.88 296.48C336.88 296.26 336.88 296.04 336.95 295.82C337.147 294.513 337.601 293.259 338.287 292.128C338.972 290.998 339.874 290.015 340.942 289.236C342.009 288.456 343.221 287.897 344.506 287.588C345.791 287.28 347.125 287.23 348.43 287.44C348.65 287.44 348.87 287.53 349.09 287.57L372.09 140.57C371.82 140.58 371.59 140.57 371.37 140.53ZM314.11 238C308.154 237.07 302.607 234.394 298.172 230.311C293.737 226.228 290.612 220.922 289.192 215.063C287.773 209.204 288.122 203.056 290.197 197.396C292.271 191.736 295.978 186.818 300.848 183.264C305.717 179.711 311.531 177.681 317.554 177.432C323.578 177.182 329.539 178.725 334.686 181.864C339.833 185.003 343.933 189.597 346.468 195.067C349.004 200.536 349.86 206.634 348.93 212.59C348.313 216.546 346.923 220.341 344.839 223.759C342.755 227.177 340.018 230.15 336.785 232.51C333.551 234.87 329.884 236.569 325.993 237.511C322.103 238.453 318.065 238.62 314.11 238Z" fill="white" stroke="#263238" stroke-linecap="round" stroke-linejoin="round"/>
<path d="M421.172 152.511L324.033 114.012L251.721 296.464L348.86 334.964L421.172 152.511Z" fill="#4779A8" stroke="#263238" stroke-linecap="round" stroke-linejoin="round"/>
<path d="M402.55 170.39C400.083 169.407 398.105 167.489 397.049 165.053C395.992 162.617 395.942 159.862 396.91 157.39L337.75 133.93C337.269 135.155 336.55 136.274 335.636 137.221C334.721 138.168 333.629 138.926 332.421 139.45C331.213 139.974 329.914 140.254 328.597 140.275C327.281 140.295 325.973 140.056 324.75 139.57L269.95 277.81C271.175 278.291 272.294 279.009 273.241 279.924C274.188 280.838 274.946 281.93 275.47 283.138C275.994 284.346 276.274 285.646 276.295 286.962C276.315 288.279 276.076 289.586 275.59 290.81C275.5 291.02 275.41 291.22 275.31 291.42L334.53 314.9C334.6 314.69 334.66 314.47 334.74 314.26C335.726 311.784 337.654 309.801 340.1 308.746C342.547 307.69 345.312 307.649 347.79 308.63C348 308.71 348.2 308.81 348.4 308.9L403.22 170.6C402.986 170.54 402.763 170.47 402.55 170.39ZM325.19 252.85C319.585 250.629 314.764 246.796 311.338 241.836C307.911 236.875 306.033 231.01 305.94 224.982C305.848 218.954 307.544 213.033 310.817 207.97C314.089 202.906 318.789 198.927 324.323 196.535C329.857 194.143 335.976 193.445 341.906 194.531C347.837 195.617 353.312 198.437 357.639 202.635C361.966 206.832 364.952 212.219 366.217 218.114C367.483 224.008 366.972 230.146 364.75 235.75C361.768 243.261 355.926 249.281 348.509 252.487C341.091 255.693 332.704 255.824 325.19 252.85Z" fill="white" stroke="#263238" stroke-linecap="round" stroke-linejoin="round"/>
<path d="M450.268 196.628L365.106 136.084L251.388 296.041L336.55 356.585L450.268 196.628Z" fill="#4779A8" stroke="#263238" stroke-linecap="round" stroke-linejoin="round"/>
<path d="M427.94 209.53C426.862 208.769 425.945 207.802 425.242 206.685C424.539 205.568 424.064 204.323 423.844 203.022C423.625 201.72 423.665 200.388 423.963 199.102C424.261 197.817 424.811 196.603 425.58 195.53L373.71 158.66C372.166 160.829 369.825 162.296 367.2 162.741C364.575 163.185 361.882 162.57 359.71 161.03L273.54 282.21C274.618 282.971 275.536 283.938 276.238 285.055C276.941 286.172 277.416 287.417 277.636 288.719C277.855 290.02 277.815 291.352 277.517 292.638C277.219 293.924 276.669 295.138 275.9 296.21C275.77 296.4 275.63 296.56 275.49 296.74L327.4 333.65C327.52 333.46 327.63 333.27 327.77 333.08C328.531 332.002 329.498 331.085 330.615 330.382C331.732 329.679 332.977 329.204 334.279 328.985C335.58 328.765 336.912 328.806 338.198 329.103C339.484 329.401 340.698 329.951 341.77 330.72C341.95 330.85 342.12 330.99 342.29 331.13L428.5 209.88C428.32 209.78 428.133 209.663 427.94 209.53ZM333.16 271.18C328.246 267.687 324.479 262.816 322.334 257.182C320.189 251.548 319.763 245.404 321.11 239.528C322.457 233.652 325.516 228.307 329.9 224.169C334.285 220.032 339.798 217.287 345.742 216.283C351.686 215.279 357.795 216.06 363.296 218.527C368.796 220.995 373.441 225.038 376.643 230.146C379.846 235.254 381.462 241.196 381.287 247.222C381.112 253.248 379.154 259.087 375.66 264C370.976 270.588 363.867 275.045 355.897 276.391C347.927 277.738 339.748 275.863 333.16 271.18Z" fill="white" stroke="#263238" stroke-linecap="round" stroke-linejoin="round"/>
<path d="M276.82 308.351C312.707 308.351 341.8 279.258 341.8 243.371C341.8 207.483 312.707 178.391 276.82 178.391C240.932 178.391 211.84 207.483 211.84 243.371C211.84 279.258 240.932 308.351 276.82 308.351Z" fill="white" stroke="#263238" stroke-linecap="round" stroke-linejoin="round"/>
<path d="M224.97 204.84H231.96" stroke="#263238" stroke-linecap="round" stroke-linejoin="round"/>
<path d="M228.25 200.59H234.79" stroke="#263238" stroke-linecap="round" stroke-linejoin="round"/>
<path d="M231.37 197.291H237.86" stroke="#263238" stroke-linecap="round" stroke-linejoin="round"/>
<path d="M235.39 193.791H241.11" stroke="#263238" stroke-linecap="round" stroke-linejoin="round"/>
<path d="M220.71 211.211H227.24" stroke="#263238" stroke-linecap="round" stroke-linejoin="round"/>
<path d="M215.96 221.35H222.52" stroke="#263238" stroke-linecap="round" stroke-linejoin="round"/>
<path d="M212.7 233.621H219.69" stroke="#263238" stroke-linecap="round" stroke-linejoin="round"/>
<path d="M212.23 247.311H219.22" stroke="#263238" stroke-linecap="round" stroke-linejoin="round"/>
<path d="M282.96 308.351C318.847 308.351 347.94 279.258 347.94 243.371C347.94 207.483 318.847 178.391 282.96 178.391C247.073 178.391 217.98 207.483 217.98 243.371C217.98 279.258 247.073 308.351 282.96 308.351Z" fill="white" stroke="#263238" stroke-linecap="round" stroke-linejoin="round"/>
<path d="M333.391 254.999C339.816 227.15 322.448 199.366 294.598 192.941C266.749 186.517 238.965 203.885 232.54 231.734C226.116 259.584 243.484 287.368 271.333 293.793C299.183 300.217 326.967 282.849 333.391 254.999Z" fill="white" stroke="#263238" stroke-linecap="round" stroke-linejoin="round"/>
<path d="M283 191.621H282C295.594 191.81 308.567 197.343 318.113 207.023C327.659 216.702 333.011 229.751 333.011 243.346C333.011 256.941 327.659 269.99 318.113 279.67C308.567 289.349 295.594 294.882 282 295.071H283C289.856 295.166 296.662 293.898 303.024 291.341C309.385 288.783 315.175 284.987 320.057 280.172C324.939 275.358 328.815 269.621 331.461 263.296C334.107 256.971 335.469 250.183 335.469 243.326C335.469 236.47 334.107 229.682 331.461 223.356C328.815 217.031 324.939 211.294 320.057 206.48C315.175 201.666 309.385 197.869 303.024 195.312C296.662 192.754 289.856 191.486 283 191.581V191.621Z" fill="white" stroke="#263238" stroke-linecap="round" stroke-linejoin="round"/>
<path d="M285.38 275.641C285.229 275.672 285.093 275.753 284.993 275.871C284.893 275.989 284.836 276.137 284.83 276.291L284.92 280.481C284.954 280.697 284.937 280.917 284.87 281.124C284.803 281.332 284.687 281.52 284.533 281.674C284.379 281.828 284.19 281.944 283.983 282.011C283.776 282.078 283.555 282.096 283.34 282.061H277.85C277.635 282.096 277.414 282.078 277.207 282.011C277 281.944 276.811 281.828 276.657 281.674C276.503 281.52 276.387 281.332 276.32 281.124C276.253 280.917 276.236 280.697 276.27 280.481L276.45 276.201C276.448 276.045 276.39 275.894 276.288 275.775C276.185 275.656 276.045 275.577 275.89 275.551C265.29 274.251 259.14 267.831 259.14 258.901V254.901C259.116 254.687 259.141 254.47 259.212 254.267C259.284 254.063 259.4 253.879 259.553 253.727C259.706 253.575 259.891 253.46 260.095 253.389C260.299 253.319 260.516 253.296 260.73 253.321H270.4C271.4 253.321 271.99 253.791 271.99 254.531V255.831C271.99 260.581 275.06 264.671 281.38 264.671C287.38 264.671 289.85 261.041 289.85 257.321C289.85 250.721 277.75 249.691 268.85 243.921C263.08 240.391 259.08 235.831 259.08 227.921C259.08 218.151 265.13 211.261 275.83 209.681C275.984 209.654 276.124 209.574 276.226 209.456C276.328 209.337 276.386 209.187 276.39 209.031L276.2 204.031C276.166 203.816 276.184 203.595 276.251 203.387C276.318 203.18 276.433 202.991 276.587 202.836C276.741 202.681 276.929 202.565 277.137 202.496C277.344 202.428 277.564 202.409 277.78 202.441H283.09C283.304 202.417 283.521 202.442 283.725 202.513C283.928 202.585 284.113 202.701 284.264 202.854C284.416 203.007 284.532 203.193 284.602 203.396C284.672 203.6 284.696 203.817 284.67 204.031L284.58 208.961C284.583 209.118 284.64 209.269 284.742 209.388C284.845 209.506 284.985 209.586 285.14 209.611C296.3 210.821 302.63 217.611 302.63 227.201V230.271C302.656 230.485 302.633 230.702 302.562 230.905C302.492 231.109 302.377 231.293 302.224 231.446C302.072 231.598 301.887 231.713 301.684 231.784C301.481 231.854 301.264 231.877 301.05 231.851H291.28C290.28 231.851 289.69 231.481 289.69 230.921V230.001C289.69 225.071 286.9 220.601 280.39 220.601C275.18 220.601 272.02 223.301 272.02 227.481C272.02 233.531 280.48 234.481 289.23 238.281C298.81 242.561 303 248.511 303 256.701C303 266.901 296.74 274.151 285.38 275.641Z" fill="white" stroke="#263238" stroke-linecap="round" stroke-linejoin="round"/>
<path d="M287.37 275.641C287.218 275.672 287.08 275.753 286.979 275.87C286.877 275.988 286.818 276.136 286.81 276.291L286.9 280.481C286.934 280.697 286.917 280.917 286.85 281.124C286.782 281.332 286.667 281.52 286.513 281.674C286.359 281.828 286.17 281.944 285.963 282.011C285.755 282.078 285.535 282.096 285.32 282.061H279.83C279.615 282.096 279.394 282.078 279.187 282.011C278.979 281.944 278.791 281.828 278.637 281.674C278.483 281.52 278.367 281.332 278.3 281.124C278.233 280.917 278.216 280.697 278.25 280.481L278.44 276.201C278.435 276.045 278.377 275.895 278.275 275.777C278.173 275.658 278.034 275.579 277.88 275.551C267.27 274.251 261.13 267.831 261.13 258.901V254.901C261.104 254.688 261.127 254.471 261.197 254.267C261.268 254.064 261.383 253.879 261.535 253.727C261.688 253.575 261.872 253.459 262.076 253.389C262.279 253.319 262.496 253.295 262.71 253.321H272.39C273.39 253.321 273.97 253.791 273.97 254.531V255.831C273.97 260.581 277.04 264.671 283.37 264.671C289.32 264.671 291.84 261.041 291.84 257.321C291.84 250.721 279.74 249.691 270.84 243.921C265.07 240.391 261.07 235.831 261.07 227.921C261.07 218.151 267.07 211.261 277.81 209.681C277.964 209.656 278.105 209.576 278.207 209.458C278.31 209.339 278.367 209.188 278.37 209.031L278.19 204.031C278.156 203.816 278.173 203.595 278.241 203.387C278.308 203.18 278.423 202.991 278.577 202.836C278.731 202.681 278.919 202.565 279.126 202.496C279.334 202.428 279.554 202.409 279.77 202.441H285C285.214 202.415 285.432 202.438 285.636 202.509C285.841 202.58 286.026 202.697 286.179 202.85C286.331 203.003 286.446 203.189 286.516 203.394C286.585 203.599 286.607 203.817 286.58 204.031L286.49 208.961C286.494 209.117 286.552 209.267 286.654 209.386C286.756 209.504 286.896 209.584 287.05 209.611C298.21 210.821 304.54 217.611 304.54 227.201V230.271C304.566 230.485 304.543 230.702 304.472 230.905C304.402 231.109 304.286 231.293 304.134 231.446C303.982 231.598 303.797 231.713 303.594 231.784C303.39 231.854 303.173 231.877 302.96 231.851H293.19C292.19 231.851 291.61 231.481 291.61 230.921V230.001C291.61 225.071 288.82 220.601 282.3 220.601C277.09 220.601 273.93 223.301 273.93 227.481C273.93 233.531 282.4 234.481 291.14 238.281C300.73 242.561 304.92 248.511 304.92 256.701C305 266.901 298.72 274.151 287.37 275.641Z" fill="#263238"/>
<path d="M120.08 445.731H58.5698V378.941L87.4698 349.041L120.08 378.941V445.731Z" fill="#999999" stroke="#263238" stroke-linecap="round" stroke-linejoin="round"/>
<path d="M321.81 445.73H174.41V302.94L259.48 267.42L321.81 302.94V445.73Z" fill="#999999" stroke="#263238" stroke-linecap="round" stroke-linejoin="round"/>
<path d="M194.08 366.35H117.35V445.82H194.08V366.35Z" fill="white" stroke="#263238" stroke-linecap="round" stroke-linejoin="round"/>
<path d="M282.65 378.939H240.5V445.819H282.65V378.939Z" fill="#C2C2C2" stroke="#263238" stroke-linecap="round" stroke-linejoin="round"/>
<path d="M269.28 388.381H249.94V445.821H269.28V388.381Z" fill="white" stroke="#263238" stroke-linecap="round" stroke-linejoin="round"/>
<path d="M266.23 388.381H252.99V445.821H266.23V388.381Z" fill="#263238" stroke="#263238" stroke-linecap="round" stroke-linejoin="round"/>
<path d="M266.23 439.721H229.99V443.411H266.23V439.721Z" fill="white" stroke="#263238" stroke-linecap="round" stroke-linejoin="round"/>
<path d="M269.28 388.381H249.94V393.101H269.28V388.381Z" fill="white" stroke="#263238" stroke-linecap="round" stroke-linejoin="round"/>
<path d="M105.55 388.381H74.5298V445.821H105.55V388.381Z" fill="white" stroke="#263238" stroke-linecap="round" stroke-linejoin="round"/>
<path d="M100.65 388.381H79.4102V445.821H100.65V388.381Z" fill="#263238" stroke="#263238" stroke-linecap="round" stroke-linejoin="round"/>
<path d="M105.55 388.381H74.5298V393.101H105.55V388.381Z" fill="white" stroke="#263238" stroke-linecap="round" stroke-linejoin="round"/>
<path d="M215.58 377.59H190.93V422.21H215.58V377.59Z" fill="#C2C2C2" stroke="#263238" stroke-linecap="round" stroke-linejoin="round"/>
<path d="M399.43 445.73H293.48V302.94L345.83 267.42L399.43 302.94V445.73Z" fill="white" stroke="#263238" stroke-linecap="round" stroke-linejoin="round"/>
<path d="M400.76 303.411L345.73 267.711L293.04 303.721V307.201L346.11 271.191L400.76 306.891V303.411Z" fill="white" stroke="#263238" stroke-linecap="round" stroke-linejoin="round"/>
<path d="M332.3 276.599L287.33 348.509L293.48 349.299L340.29 272.569L399.43 359.819L402.58 359.689L343.58 268.949L332.3 276.599Z" fill="#263238" stroke="#263238" stroke-linecap="round" stroke-linejoin="round"/>
<path d="M293.48 302.94H168.11L217.67 267.42L345.73 268.14L293.48 302.94Z" fill="#263238" stroke="#263238" stroke-linecap="round" stroke-linejoin="round"/>
<path d="M371.46 364.551H312.02V445.731H371.46V364.551Z" fill="#BABABA" stroke="#263238" stroke-linecap="round" stroke-linejoin="round"/>
<path d="M376.18 364.551H316.74V445.731H376.18V364.551Z" fill="white" stroke="#263238" stroke-linecap="round" stroke-linejoin="round"/>
<path d="M367.15 376.869H325.76V419.629H367.15V376.869Z" fill="white" stroke="#263238" stroke-width="2" stroke-linecap="round" stroke-linejoin="round"/>
<path d="M355.16 376.869H337.76V419.629H355.16V376.869Z" fill="white" stroke="#263238" stroke-width="2" stroke-linecap="round" stroke-linejoin="round"/>
<path d="M377.98 360.92H305.5V368.17H377.98V360.92Z" fill="#BABABA" stroke="#263238" stroke-linecap="round" stroke-linejoin="round"/>
<path d="M382.7 360.92H310.22V368.17H382.7V360.92Z" fill="white" stroke="#263238" stroke-linecap="round" stroke-linejoin="round"/>
<path d="M271.19 377.59H267.51V416.73H271.19V377.59Z" fill="white" stroke="#263238" stroke-linecap="round" stroke-linejoin="round"/>
<path d="M281.44 377.59H277.76V416.73H281.44V377.59Z" fill="white" stroke="#263238" stroke-linecap="round" stroke-linejoin="round"/>
<path d="M272.32 416.189H266.23V420.579H272.32V416.189Z" fill="white" stroke="#263238" stroke-linecap="round" stroke-linejoin="round"/>
<path d="M282.64 416.189H276.55V420.579H282.64V416.189Z" fill="white" stroke="#263238" stroke-linecap="round" stroke-linejoin="round"/>
<path d="M272.32 381.5H266.23V383.97H272.32V381.5Z" fill="white" stroke="#263238" stroke-linecap="round" stroke-linejoin="round"/>
<path d="M282.64 381.5H276.55V383.97H282.64V381.5Z" fill="white" stroke="#263238" stroke-linecap="round" stroke-linejoin="round"/>
<path d="M284.84 420.211H263.31V445.731H284.84V420.211Z" fill="white" stroke="#263238" stroke-linecap="round" stroke-linejoin="round"/>
<path d="M219.26 377.59H215.58V416.73H219.26V377.59Z" fill="white" stroke="#263238" stroke-linecap="round" stroke-linejoin="round"/>
<path d="M229.51 377.59H225.83V416.73H229.51V377.59Z" fill="white" stroke="#263238" stroke-linecap="round" stroke-linejoin="round"/>
<path d="M220.39 416.189H214.3V420.579H220.39V416.189Z" fill="white" stroke="#263238" stroke-linecap="round" stroke-linejoin="round"/>
<path d="M230.71 416.189H224.62V420.579H230.71V416.189Z" fill="white" stroke="#263238" stroke-linecap="round" stroke-linejoin="round"/>
<path d="M220.39 381.5H214.3V383.97H220.39V381.5Z" fill="white" stroke="#263238" stroke-linecap="round" stroke-linejoin="round"/>
<path d="M230.71 381.5H224.62V383.97H230.71V381.5Z" fill="white" stroke="#263238" stroke-linecap="round" stroke-linejoin="round"/>
<path d="M232.92 420.211H211.39V445.731H232.92V420.211Z" fill="white" stroke="#263238" stroke-linecap="round" stroke-linejoin="round"/>
<path d="M211.92 420.211H185.67V445.731H211.92V420.211Z" fill="#999999" stroke="#263238" stroke-linecap="round" stroke-linejoin="round"/>
<path d="M284.85 381.221H203.67L217.44 373.971H284.85V381.221Z" fill="white" stroke="#263238" stroke-linecap="round" stroke-linejoin="round"/>
<path d="M326.16 387.74H366.75" stroke="#263238" stroke-linecap="round" stroke-linejoin="round"/>
<path d="M326.16 397.891H366.75" stroke="#263238" stroke-linecap="round" stroke-linejoin="round"/>
<path d="M326.16 408.041H366.75" stroke="#263238" stroke-linecap="round" stroke-linejoin="round"/>
<path d="M83.88 347.66L54.46 379.57H56.92L85.81 349.04L83.88 347.66Z" fill="#263238" stroke="#263238" stroke-linecap="round" stroke-linejoin="round"/>
<path d="M114.99 378.15H195.65L256.08 347.66H83.8799L114.99 378.15Z" fill="#263238" stroke="#263238" stroke-linecap="round" stroke-linejoin="round"/>
<path d="M298.07 347.66H251.36L168.11 378.15H209.81L298.07 347.66Z" fill="#263238" stroke="#263238" stroke-linecap="round" stroke-linejoin="round"/>
<path d="M402.58 351.05L347.71 266.86C347.494 266.522 347.196 266.245 346.843 266.054C346.49 265.864 346.094 265.768 345.693 265.774C345.292 265.78 344.899 265.888 344.552 266.089C344.205 266.29 343.915 266.576 343.71 266.92L294.34 348.46L198.8 379.2V384.13L296.58 352.72C297.13 352.559 297.603 352.204 297.91 351.72L345.8 272.6L402.58 359.72V351.05Z" fill="white" stroke="#263238" stroke-linecap="round" stroke-linejoin="round"/>
<path d="M278.81 308.25H262.14V335.79H278.81V308.25Z" stroke="#263238" stroke-width="2" stroke-linecap="round" stroke-linejoin="round"/>
<path d="M270.47 308.98V335.07" stroke="#263238" stroke-linecap="round" stroke-linejoin="round"/>
<path d="M278.44 322.02H262.5" stroke="#263238" stroke-linecap="round" stroke-linejoin="round"/>
<path d="M161.5 388.77H144.83V416.31H161.5V388.77Z" stroke="#263238" stroke-width="2" stroke-linecap="round" stroke-linejoin="round"/>
<path d="M153.16 389.49V415.59" stroke="#263238" stroke-linecap="round" stroke-linejoin="round"/>
<path d="M161.14 402.541H145.19" stroke="#263238" stroke-linecap="round" stroke-linejoin="round"/>
<path d="M353.48 307.73H336.81V335.27H353.48V307.73Z" stroke="#263238" stroke-width="2" stroke-linecap="round" stroke-linejoin="round"/>
<path d="M345.14 308.449V334.549" stroke="#263238" stroke-linecap="round" stroke-linejoin="round"/>
<path d="M353.11 321.5H337.17" stroke="#263238" stroke-linecap="round" stroke-linejoin="round"/>
<path d="M243.17 308.25H226.5V335.79H243.17V308.25Z" stroke="#263238" stroke-width="2" stroke-linecap="round" stroke-linejoin="round"/>
<path d="M234.83 308.98V335.07" stroke="#263238" stroke-linecap="round" stroke-linejoin="round"/>
<path d="M242.81 322.02H226.86" stroke="#263238" stroke-linecap="round" stroke-linejoin="round"/>
<path d="M207.53 308.25H190.86V335.79H207.53V308.25Z" stroke="#263238" stroke-width="2" stroke-linecap="round" stroke-linejoin="round"/>
<path d="M199.2 308.98V335.07" stroke="#263238" stroke-linecap="round" stroke-linejoin="round"/>
<path d="M207.17 322.02H191.22" stroke="#263238" stroke-linecap="round" stroke-linejoin="round"/>
<path d="M133.49 367.139H124.05L113.04 356.119H122.48L133.49 367.139Z" fill="#6E6E6E"/>
<path d="M162.6 367.139H153.16L142.15 356.119H151.59L162.6 367.139Z" fill="#6E6E6E"/>
<path d="M83.9098 397.029H80.4897V408.049H83.9098V397.029Z" fill="#B5B5B5" stroke="#263238" stroke-linecap="round" stroke-linejoin="round"/>
<path d="M87.71 397.029H84.29V408.049H87.71V397.029Z" fill="#B5B5B5" stroke="#263238" stroke-linecap="round" stroke-linejoin="round"/>
<path d="M91.5198 397.029H88.0898V408.049H91.5198V397.029Z" fill="#B5B5B5" stroke="#263238" stroke-linecap="round" stroke-linejoin="round"/>
<path d="M95.3299 397.029H91.8999V408.049H95.3299V397.029Z" fill="#B5B5B5" stroke="#263238" stroke-linecap="round" stroke-linejoin="round"/>
<path d="M99.1202 397.029H95.7002V408.049H99.1202V397.029Z" fill="#B5B5B5" stroke="#263238" stroke-linecap="round" stroke-linejoin="round"/>
<path d="M198.8 378.58H114.2V384.13H198.8V378.58Z" fill="white" stroke="#263238" stroke-linecap="round" stroke-linejoin="round"/>
<path d="M198.8 378.58H167.05V384.13H198.8V378.58Z" fill="#BABABA" stroke="#263238" stroke-linecap="round" stroke-linejoin="round"/>
<path d="M114.2 378.58L83.88 347.66L54.46 379.57H58.57L83.99 352.47L114.2 384.13V378.58Z" fill="#BABABA" stroke="#263238" stroke-linecap="round" stroke-linejoin="round"/>
<path d="M266.23 442.369H229.99V445.819H266.23V442.369Z" fill="white" stroke="#263238" stroke-linecap="round" stroke-linejoin="round"/>
<path d="M293.04 303.721H167.63V307.191H293.04V303.721Z" fill="#BABABA" stroke="#263238" stroke-linecap="round" stroke-linejoin="round"/>
<path d="M153.81 411.389H149.65C148.346 411.389 147.29 412.445 147.29 413.749V414.579C147.29 415.882 148.346 416.939 149.65 416.939H153.81C155.113 416.939 156.17 415.882 156.17 414.579V413.749C156.17 412.445 155.113 411.389 153.81 411.389Z" fill="#263238" stroke="#263238" stroke-linecap="round" stroke-linejoin="round"/>
<path d="M177.93 397.689H214.29L232.8 411.389L264.63 416.939V433.599H122.12L111.39 428.789V422.489L155.81 413.239L174.76 398.759C175.671 398.066 176.784 397.69 177.93 397.689Z" fill="#4779A8" stroke="#263238" stroke-linecap="round" stroke-linejoin="round"/>
<path d="M184.31 413.239H155.44L174.39 398.759C175.301 398.066 176.415 397.69 177.56 397.689H204.67L184.31 413.239Z" fill="white" stroke="#263238" stroke-linecap="round" stroke-linejoin="round"/>
<path d="M173.755 442.665C177.945 438.475 177.945 431.681 173.755 427.491C169.565 423.301 162.771 423.301 158.58 427.491C154.39 431.681 154.39 438.475 158.58 442.665C162.771 446.856 169.565 446.856 173.755 442.665Z" fill="white" stroke="#263238" stroke-linecap="round" stroke-linejoin="round"/>
<path d="M173.602 444.975C179.083 442.721 181.699 436.451 179.446 430.971C177.192 425.49 170.922 422.873 165.442 425.127C159.961 427.38 157.344 433.65 159.598 439.131C161.851 444.612 168.121 447.228 173.602 444.975Z" fill="#263238" stroke="#263238" stroke-linecap="round" stroke-linejoin="round"/>
<path d="M175.05 435.079C175.05 436.177 174.724 437.25 174.114 438.163C173.505 439.075 172.638 439.787 171.624 440.207C170.609 440.627 169.494 440.737 168.417 440.523C167.34 440.309 166.351 439.78 165.575 439.004C164.799 438.228 164.27 437.239 164.056 436.162C163.842 435.085 163.952 433.97 164.372 432.955C164.792 431.941 165.504 431.074 166.416 430.465C167.329 429.855 168.402 429.529 169.5 429.529C170.229 429.528 170.951 429.671 171.625 429.949C172.299 430.228 172.911 430.636 173.427 431.152C173.943 431.668 174.351 432.28 174.63 432.954C174.908 433.628 175.051 434.35 175.05 435.079Z" fill="white" stroke="#263238" stroke-linecap="round" stroke-linejoin="round"/>
<path d="M141.74 424.349C141.18 424.35 140.622 424.397 140.07 424.489C139.522 424.396 138.966 424.349 138.41 424.349C136.973 424.305 135.541 424.55 134.2 425.07C132.86 425.59 131.637 426.373 130.605 427.374C129.573 428.376 128.752 429.574 128.191 430.898C127.631 432.222 127.342 433.646 127.342 435.084C127.342 436.522 127.631 437.945 128.191 439.269C128.752 440.594 129.573 441.792 130.605 442.793C131.637 443.794 132.86 444.578 134.2 445.098C135.541 445.617 136.973 445.863 138.41 445.819C138.967 445.815 139.522 445.765 140.07 445.669C140.622 445.764 141.18 445.814 141.74 445.819C144.53 445.734 147.178 444.565 149.122 442.561C151.065 440.557 152.152 437.875 152.152 435.084C152.152 432.292 151.065 429.61 149.122 427.606C147.178 425.602 144.53 424.434 141.74 424.349Z" fill="#263238" stroke="#263238" stroke-linecap="round" stroke-linejoin="round"/>
<path d="M223.55 424.35C222.99 424.35 222.432 424.397 221.88 424.49C221.328 424.397 220.769 424.35 220.21 424.35C217.419 424.435 214.772 425.603 212.828 427.607C210.884 429.611 209.797 432.293 209.797 435.085C209.797 437.876 210.884 440.558 212.828 442.562C214.772 444.566 217.419 445.734 220.21 445.82C220.77 445.816 221.328 445.765 221.88 445.67C222.431 445.765 222.99 445.816 223.55 445.82C226.34 445.734 228.988 444.566 230.931 442.562C232.875 440.558 233.962 437.876 233.962 435.085C233.962 432.293 232.875 429.611 230.931 427.607C228.988 425.603 226.34 424.435 223.55 424.35Z" fill="#263238" stroke="#263238" stroke-linecap="round" stroke-linejoin="round"/>
<path d="M256.574 437.597C257.942 431.831 254.377 426.048 248.611 424.679C242.846 423.311 237.062 426.876 235.694 432.642C234.326 438.408 237.89 444.191 243.656 445.56C249.422 446.928 255.206 443.363 256.574 437.597Z" fill="white" stroke="#263238" stroke-linecap="round" stroke-linejoin="round"/>
<path d="M253.565 444.969C259.046 442.715 261.663 436.445 259.409 430.965C257.156 425.484 250.886 422.867 245.405 425.121C239.924 427.374 237.308 433.644 239.561 439.125C241.815 444.606 248.085 447.222 253.565 444.969Z" fill="#263238" stroke="#263238" stroke-linecap="round" stroke-linejoin="round"/>
<path d="M255 435.079C255.002 436.18 254.677 437.256 254.067 438.172C253.457 439.088 252.589 439.802 251.572 440.224C250.556 440.646 249.437 440.757 248.358 440.543C247.278 440.329 246.287 439.799 245.508 439.021C244.73 438.243 244.2 437.251 243.986 436.172C243.772 435.092 243.883 433.973 244.305 432.957C244.727 431.941 245.441 431.072 246.357 430.462C247.273 429.852 248.349 429.527 249.45 429.529C250.179 429.529 250.9 429.673 251.574 429.952C252.247 430.231 252.859 430.639 253.374 431.155C253.89 431.67 254.298 432.282 254.577 432.955C254.856 433.629 255 434.35 255 435.079Z" fill="white" stroke="#263238" stroke-linecap="round" stroke-linejoin="round"/>
<path d="M261.3 411.389L244.92 399.259C243.539 398.238 241.867 397.687 240.15 397.689H204.67L184.31 413.239L139.89 422.489V428.789L150.62 433.599H157.83C157.717 433.05 157.66 432.49 157.66 431.929V431.559C157.673 429.446 158.522 427.424 160.02 425.935C161.519 424.445 163.547 423.609 165.66 423.609H173.81C175.923 423.609 177.95 424.445 179.449 425.935C180.948 427.424 181.796 429.446 181.81 431.559V431.929C181.81 432.509 181.74 433.059 181.63 437.669H237.6C237.49 433.059 237.43 432.509 237.43 431.929V431.559C237.443 429.455 238.285 427.441 239.773 425.952C241.261 424.464 243.275 423.623 245.38 423.609H253.53C255.643 423.609 257.67 424.445 259.169 425.935C260.668 427.424 261.516 429.446 261.53 431.559V431.929C261.526 432.491 261.466 433.05 261.35 433.599H273.19V421.239C273.19 419.955 272.824 418.698 272.135 417.614C271.446 416.53 270.462 415.665 269.3 415.119L261.3 411.389Z" fill="#4779A8" stroke="#263238" stroke-linecap="round" stroke-linejoin="round"/>
<path d="M222.06 400.289H205.53L188.56 413.239H222.06V400.289Z" fill="white" stroke="#263238" stroke-linecap="round" stroke-linejoin="round"/>
<path d="M224.84 400.289H238.3C240.056 400.288 241.764 400.864 243.16 401.929L258 413.239H224.84V400.289Z" fill="white" stroke="#263238" stroke-linecap="round" stroke-linejoin="round"/>
<path d="M139.89 422.49H111.39V428.78H139.89V422.49Z" fill="white" stroke="#263238" stroke-linecap="round" stroke-linejoin="round"/>
<path d="M275.36 429.9H266.11V435.08H275.36V429.9Z" fill="#263238" stroke="#263238" stroke-linecap="round" stroke-linejoin="round"/>
<path d="M149.89 428.789H110.28V435.079H149.89V428.789Z" fill="#263238" stroke="#263238" stroke-linecap="round" stroke-linejoin="round"/>
<path d="M196.01 411.389H191.85C190.546 411.389 189.49 412.445 189.49 413.749V414.579C189.49 415.882 190.546 416.939 191.85 416.939H196.01C197.313 416.939 198.37 415.882 198.37 414.579V413.749C198.37 412.445 197.313 411.389 196.01 411.389Z" fill="#263238" stroke="#263238" stroke-linecap="round" stroke-linejoin="round"/>
<path d="M138.4 422.869H131.74V428.049H138.4V422.869Z" fill="white" stroke="#263238" stroke-linecap="round" stroke-linejoin="round"/>
<path d="M119.16 422.869H112.5V428.049H119.16V422.869Z" fill="white" stroke="#263238" stroke-linecap="round" stroke-linejoin="round"/>
<path d="M119.16 424.719H131.37" stroke="#263238" stroke-linecap="round" stroke-linejoin="round"/>
<path d="M119.16 426.609H131.37" stroke="#263238" stroke-linecap="round" stroke-linejoin="round"/>
<path d="M186.06 431.369H234.62" stroke="#263238" stroke-width="2" stroke-linecap="round" stroke-linejoin="round"/>
<path d="M223.18 398.939V434.839H185.18V430.569C185.18 428.036 184.439 425.558 183.05 423.439L181.88 421.659L188.47 415.759" stroke="#263238" stroke-linecap="round" stroke-linejoin="round"/>
<path d="M258.38 414V422.15H244C242.094 422.152 240.266 422.911 238.92 424.26L238.1 425.08C236.755 426.428 235.999 428.255 236 430.16V434.46H225.26" stroke="#263238" stroke-linecap="round" stroke-linejoin="round"/>
<path d="M222 417.15H217.49V419.73H222V417.15Z" fill="#263238" stroke="#263238" stroke-linecap="round" stroke-linejoin="round"/>
<path d="M257 417.15H252.49V419.73H257V417.15Z" fill="#263238" stroke="#263238" stroke-linecap="round" stroke-linejoin="round"/>
<path d="M408.78 445.619C408.78 445.619 400.16 436.999 402.58 430.439C405 423.879 411.58 433.549 411.58 433.549C411.58 433.549 412.27 418.369 417.1 418.369C421.93 418.369 420.9 431.129 420.9 431.129C420.9 431.129 423.65 427.679 426.76 429.749C429.87 431.819 427.1 442.509 427.1 442.509C427.1 442.509 429.17 433.199 433.66 433.199C438.15 433.199 434 445.269 434 445.269" fill="#4779A8"/>
<path d="M406.72 445.269C406.72 445.269 401.2 437.689 402.92 436.269C404.64 434.849 407.06 439.029 407.06 439.029C407.06 439.029 405.34 429.029 410.85 428.679C416.36 428.329 414.3 440.749 414.3 440.749C414.3 440.749 417.06 433.159 419.82 435.229C422.58 437.299 421.55 443.509 421.55 443.509C421.55 443.509 421.89 438.339 425.34 438.339C428.79 438.339 430.86 442.469 430.86 442.469C430.86 442.469 433.96 437.299 436.38 439.029C438.8 440.759 436.38 445.579 436.38 445.579" stroke="#263238" stroke-linecap="round" stroke-linejoin="round"/>
<path d="M299.52 445.619C299.52 445.619 293.41 439.509 295.12 434.869C296.83 430.229 301.47 437.069 301.47 437.069C301.47 437.069 301.96 426.309 305.38 426.309C308.8 426.309 308.07 435.359 308.07 435.359C308.07 435.359 310.07 432.909 312.23 434.359C314.39 435.809 312.47 443.359 312.47 443.359C312.47 443.359 313.94 436.759 317.11 436.759C320.28 436.759 317.36 445.309 317.36 445.309" fill="#4779A8"/>
<path d="M298.05 445.368C298.05 445.368 294.14 439.998 295.37 439.018C296.6 438.038 298.3 441.018 298.3 441.018C298.3 441.018 297.08 433.928 300.99 433.688C304.9 433.448 303.43 442.238 303.43 442.238C303.43 442.238 305.38 436.858 307.34 438.328C309.3 439.798 308.56 444.188 308.56 444.188C308.56 444.188 308.81 440.528 311.25 440.528C313.69 440.528 315.16 443.458 315.16 443.458C315.16 443.458 317.36 439.788 319.07 441.018C320.78 442.248 319.07 445.658 319.07 445.658" stroke="#263238" stroke-linecap="round" stroke-linejoin="round"/>
<path d="M35.7101 445.619C35.7101 445.619 29.3101 439.219 31.1001 434.349C32.8901 429.479 37.7601 436.649 37.7601 436.649C37.7601 436.649 38.2801 425.389 41.8601 425.389C45.4401 425.389 44.6801 434.859 44.6801 434.859C44.6801 434.859 46.6801 432.299 49.0301 433.859C51.3801 435.419 49.2901 443.329 49.2901 443.329C49.2901 443.329 50.8201 436.419 54.1501 436.419C57.4801 436.419 54.4101 445.419 54.4101 445.419" fill="#4779A8"/>
<path d="M34.1804 445.36C34.1804 445.36 30.0804 439.73 31.3604 438.7C32.6404 437.67 34.4304 440.75 34.4304 440.75C34.4304 440.75 33.1504 433.33 37.2504 433.07C41.3504 432.81 39.8104 442.07 39.8104 442.07C39.8104 442.07 41.8104 436.44 43.9104 437.97C46.0104 439.5 45.1904 444.12 45.1904 444.12C45.1904 444.12 45.4504 440.28 48.0104 440.28C50.5704 440.28 52.1104 443.35 52.1104 443.35C52.1104 443.35 54.4104 439.51 56.2004 440.79C57.9904 442.07 56.2004 445.66 56.2004 445.66" stroke="#263238" stroke-linecap="round" stroke-linejoin="round"/>
<path d="M29 445.82H440" stroke="#263238" stroke-linecap="round" stroke-linejoin="round"/>
</svg>
