<svg width="161" height="30" viewBox="0 0 161 30" fill="none" xmlns="http://www.w3.org/2000/svg">
<g clip-path="url(#clip0)">
<path d="M104.603 18.9381C94.8112 26.1563 80.6036 29.9995 68.3775 29.9995C51.2324 29.9995 35.8067 23.679 24.1248 13.134C23.2041 12.3099 24.0231 11.1782 25.1269 11.824C37.7295 19.1415 53.3027 23.5545 69.3999 23.5545C80.2628 23.5545 92.2042 21.3011 103.182 16.6516C104.842 15.9522 106.231 17.7505 104.603 18.9381" fill="#FF9900"/>
<path d="M108.69 14.2897C107.426 12.6925 100.401 13.532 97.2469 13.9162C96.2804 14.0301 96.1304 13.1937 96.9977 12.5908C102.611 8.65628 111.798 9.78547 112.869 11.1105C113.939 12.4331 112.584 21.6301 107.324 26.0302C106.515 26.6992 105.752 26.3354 106.106 25.4554C107.291 22.5026 109.941 15.8947 108.69 14.2897Z" fill="#FF9900"/>
<path d="M97.4658 -15.2015V-19.0241C97.4658 -19.6015 97.9083 -19.9982 98.4323 -19.9982H115.59C116.137 -19.9982 116.579 -19.5914 116.579 -19.0241V-15.7584C116.579 -15.2015 116.112 -14.4865 115.28 -13.3446L106.401 -0.675788C109.702 -0.755142 113.187 -0.258686 116.183 1.42749C116.864 1.80147 117.048 2.36579 117.091 2.92025V6.99219C117.091 7.55682 116.478 8.20547 115.829 7.86201C110.557 5.10496 103.545 4.7974 97.7049 7.90076C97.1123 8.21614 96.4866 7.58266 96.4866 7.01802V3.13436C96.4866 2.51376 96.4967 1.46076 97.1224 0.511964L107.416 -14.2398H98.4552C97.9084 -14.2398 97.4658 -14.6236 97.4658 -15.201" fill="#221F1F"/>
<path d="M34.8955 8.66656H29.6714C29.1805 8.64417 28.7811 8.2698 28.7354 7.79673L28.7475 -18.9547C28.7475 -19.4889 29.1876 -19.9185 29.7471 -19.9185H34.6075C35.1213 -19.8961 35.5308 -19.5092 35.5562 -19.0233V-15.5286H35.6581C36.9196 -18.9113 39.3129 -20.4833 42.5227 -20.4833C45.7884 -20.4833 47.8383 -18.9113 49.2957 -15.5286C50.5598 -18.9113 53.439 -20.4833 56.5038 -20.4833C58.6988 -20.4833 61.0896 -19.5908 62.5495 -17.5534C64.1976 -15.3026 63.8669 -12.0445 63.8669 -9.17306L63.8567 7.70533C63.8567 8.24962 63.4142 8.66656 62.8546 8.66656H57.6407C57.1167 8.634 56.7072 8.22683 56.7072 7.70533V-6.4692C56.7072 -7.60112 56.7988 -10.4038 56.5571 -11.4795C56.1603 -13.2778 55.0005 -13.7865 53.4846 -13.7865C52.2206 -13.7865 50.9006 -12.9398 50.3665 -11.5918C49.8298 -10.2438 49.8882 -7.99525 49.8882 -6.4692V7.70533C49.8882 8.24962 49.433 8.66656 48.8735 8.66656H43.6595C43.1355 8.634 42.7261 8.22683 42.7261 7.70533L42.7159 -6.4692C42.7159 -9.45516 43.2042 -13.8451 39.5061 -13.8451C35.7596 -13.8451 35.897 -9.56707 35.897 -6.4692V7.70533C35.897 8.24962 35.4519 8.66656 34.8949 8.66656" fill="#221F1F"/>
<path d="M131.393 -15.0319C127.542 -15.0319 127.305 -9.79508 127.305 -6.5269C127.305 -3.26625 127.26 3.72323 131.344 3.72323C135.386 3.72323 135.579 -1.9104 135.579 -5.34909C135.579 -7.6001 135.487 -10.3037 134.806 -12.4428C134.213 -14.2969 133.053 -15.0319 131.393 -15.0319V-15.0319ZM131.344 -20.4824C139.086 -20.4824 143.275 -13.8442 143.275 -5.40522C143.275 2.76156 138.654 9.23229 131.344 9.23229C123.752 9.23229 119.606 2.59372 119.606 -5.67744C119.606 -14.0147 123.796 -20.4824 131.344 -20.4824Z" fill="#221F1F"/>
<path d="M153.329 8.66656H148.125C147.602 8.634 147.189 8.22683 147.189 7.70533L147.181 -19.0462C147.225 -19.5345 147.657 -19.9185 148.183 -19.9185H153.021C153.476 -19.8961 153.853 -19.5906 153.954 -19.1708V-15.0761H154.044C155.514 -18.7412 157.551 -20.4833 161.16 -20.4833C163.495 -20.4833 165.794 -19.6468 167.251 -17.3398C168.617 -15.1907 168.617 -11.5914 168.617 -9.00218V7.83001C168.561 8.30817 168.126 8.66656 167.615 8.66656H162.378C161.9 8.64417 161.514 8.28274 161.455 7.83001V-6.69572C161.455 -9.62308 161.798 -13.8987 158.189 -13.8987C156.925 -13.8987 155.753 -13.0516 155.173 -11.7622C154.443 -10.1344 154.341 -8.49381 154.341 -6.69572V7.70533C154.331 8.24962 153.886 8.66656 153.329 8.66656" fill="#221F1F"/>
<path d="M24.6711 3.76877C23.7147 2.45637 22.6999 1.38045 22.6999 -1.06122V-9.18522C22.6999 -12.6239 22.939 -15.7772 20.4007 -18.1527C18.4092 -20.068 15.085 -20.7448 12.5466 -20.7448C7.58192 -20.7448 2.03725 -18.8909 0.874917 -12.7688C0.752834 -12.1153 1.22853 -11.7744 1.65073 -11.6725L6.71718 -11.128C7.18517 -11.1525 7.52599 -11.6141 7.61755 -12.0923C8.04993 -14.1958 9.82269 -15.2129 11.8193 -15.2129C12.8875 -15.2129 14.1058 -14.8164 14.7442 -13.8652C15.4716 -12.7919 15.3825 -11.3215 15.3825 -10.0878V-9.41125C12.3533 -9.07308 8.40345 -8.84174 5.56755 -7.60056C2.30182 -6.18643 0 -3.31242 0 0.917369C0 6.33727 3.41579 9.04087 7.81079 9.04087C11.5216 9.04087 13.5487 8.16878 16.4176 5.25159C17.3612 6.61974 17.669 7.28602 19.4112 8.72295C19.7978 8.93659 20.299 8.91617 20.6423 8.59876H20.6525C21.6877 7.68578 23.5876 6.03266 24.6584 5.13982C25.0806 4.79901 24.9992 4.23435 24.6706 3.75883L24.6711 3.76877ZM15.382 -4.1153C15.382 -2.07813 15.4253 -0.394456 14.4028 1.4191C13.5711 2.88919 12.2511 3.78168 10.7912 3.78168C8.78956 3.78168 7.61706 2.26601 7.61706 0.00482203C7.61706 -4.42824 11.6 -5.24443 15.382 -5.24443V-4.1153V-4.1153Z" fill="#221F1F"/>
<path d="M93.0815 3.76877C92.1251 2.45637 91.1128 1.38045 91.1128 -1.06122V-9.18522C91.1128 -12.6239 91.3621 -15.7772 88.8237 -18.1527C86.8195 -20.068 83.4954 -20.7448 80.9571 -20.7448C75.9923 -20.7448 70.4501 -18.8909 69.2878 -12.7688C69.1631 -12.1153 69.6389 -11.7744 70.0738 -11.6725L75.1301 -11.128C75.5955 -11.1525 75.949 -11.6141 76.0278 -12.0923C76.4729 -14.1958 78.2355 -15.2129 80.2295 -15.2129C81.2978 -15.2129 82.5135 -14.8164 83.1545 -13.8652C83.8946 -12.7919 83.7903 -11.3215 83.7903 -10.0878V-9.41125C80.7637 -9.07308 76.8112 -8.84174 73.9778 -7.60056C70.7121 -6.18643 68.4104 -3.31242 68.4104 0.917369C68.4104 6.33727 71.8262 9.04087 76.2212 9.04087C79.9346 9.04087 81.9617 8.16878 84.8256 5.25159C85.7743 6.61974 86.0896 7.28602 87.8216 8.72295C88.2082 8.93659 88.7118 8.91617 89.0526 8.59876H89.0628C90.1107 7.68578 92.0005 6.03266 93.0713 5.13982C93.4909 4.79901 93.4121 4.23435 93.0815 3.75883V3.76877ZM83.7903 -4.1153C83.7903 -2.07813 83.8361 -0.394456 82.8111 1.4191C81.9819 2.88919 80.6722 3.78168 79.2046 3.78168C77.2004 3.78168 76.0278 2.26601 76.0278 0.00482203C76.0278 -4.42824 80.0134 -5.24443 83.7903 -5.24443V-4.1153V-4.1153Z" fill="#221F1F"/>
</g>
<defs>
<clipPath id="clip0">
<rect width="161" height="30" fill="white"/>
</clipPath>
</defs>
</svg>
