<svg width="161" height="30" viewBox="0 0 161 30" fill="none" xmlns="http://www.w3.org/2000/svg">
<g clip-path="url(#clip0)">
<path d="M94.0589 -3.61501V-8.18569C94.0589 -10.162 93.8096 -12.1916 92.7872 -13.888C91.6096 -15.844 89.5291 -17.0162 87.4613 -17.0976C85.4012 -17.004 83.6818 -15.5159 82.6415 -13.4916C81.5199 -11.2355 81.1766 -8.63856 81.1766 -6.03919C81.1766 -1.42301 82.2193 5.49522 87.3417 5.69625C89.4502 5.60468 91.3654 4.22379 92.5914 2.2552C93.7639 0.396066 94.0589 -1.46573 94.0589 -3.61501V-3.61501ZM97.4161 8.80695H95.3051C94.8575 8.80695 94.4022 8.41521 94.3997 7.98283V4.48316C92.8177 7.62152 90.4472 9.36879 86.7695 9.36879C83.1171 9.36879 80.7721 7.56543 78.9689 4.51843C77.2597 1.58069 76.6238 -2.03083 76.6238 -5.533C76.6238 -12.7003 79.5055 -20.6002 87.0976 -20.6002C90.3887 -20.6002 92.3675 -19.1329 94.0589 -16.6708V-29.0898C94.0589 -29.5248 94.5116 -29.9139 94.9593 -29.9139H97.411C97.8612 -29.9139 98.3165 -29.5248 98.3165 -29.0898V7.9878C98.3165 8.42018 97.8688 8.80435 97.4161 8.80944" fill="#FF9900"/>
<path d="M124.894 9.3667C117.475 9.3667 114.156 1.84326 114.156 -5.68014C114.156 -13.5979 118.062 -20.4523 125.532 -20.4523H125.723H125.929C133.201 -20.4523 136.815 -13.1497 136.815 -5.62649C136.815 2.34964 132.812 9.3667 125.293 9.3667H125.1H124.894H124.894ZM125.443 5.71453C127.888 5.63314 129.81 4.13229 130.95 1.61676C131.977 -0.626527 132.171 -3.21303 132.171 -5.68014C132.171 -8.37615 131.878 -11.1839 130.609 -13.4882C129.472 -15.5001 127.511 -16.7794 125.436 -16.8532C123.124 -16.7719 121.064 -15.2126 120.021 -12.8116C119.092 -10.7362 118.8 -7.98447 118.8 -5.68014C118.8 -3.09604 119.141 -0.122932 120.214 2.12544C121.257 4.25173 123.271 5.64067 125.443 5.71453Z" fill="#FF9900"/>
<path d="M155.739 -13.1646C155.915 -12.7652 156.357 -12.4651 156.79 -12.5695L159.043 -13.1139C159.481 -13.2197 159.86 -13.7087 159.727 -14.1283C158.257 -18.8261 154.419 -20.5507 149.938 -20.5355C144.983 -20.5151 140.446 -18.0582 140.446 -12.1447C140.446 -7.07826 143.905 -5.04844 147.707 -4.20403L151.751 -3.35953C153.895 -2.91189 156.573 -2.06259 156.573 0.976677C156.573 4.53236 153.402 5.64379 150.808 5.70483C148.056 5.64175 144.584 4.3368 143.714 1.07106C143.612 0.648856 143.111 0.363937 142.676 0.463028L140.321 0.99456C139.879 1.0963 139.522 1.5768 139.632 1.99901C140.947 7.15968 145.627 9.32674 150.51 9.36744C155.66 9.40813 161.014 7.00213 161.014 0.526613C161.014 -2.06258 159.989 -4.43033 158.041 -5.94864C156.533 -7.13387 154.676 -7.52864 152.878 -7.92277L149.271 -8.65499C147.079 -9.04932 144.838 -9.72344 144.838 -12.8213C144.838 -15.876 147.672 -16.9261 149.887 -16.9871C152.41 -16.922 154.635 -15.7613 155.739 -13.1646Z" fill="#FF9900"/>
<path d="M104.258 -27.5177C104.258 -28.8911 105.438 -30 106.887 -30C108.34 -30 109.517 -28.8911 109.517 -27.5177C109.517 -26.1467 108.34 -25.0379 106.887 -25.0379C105.438 -25.0379 104.258 -26.1467 104.258 -27.5177ZM108.134 8.64191H105.649C105.199 8.64191 104.743 8.25021 104.743 7.82027L104.753 -19.1552C104.753 -19.5903 105.209 -19.9819 105.656 -19.9819H108.129C108.579 -19.9819 109.034 -19.5928 109.034 -19.1577V7.82027C109.034 8.25 108.589 8.63454 108.134 8.63943" fill="#FF9900"/>
<path d="M71.8351 8.80685H69.7215C69.2739 8.80685 68.8185 8.41506 68.8185 7.98024V3.98729C67.3408 7.10062 64.9603 9.36669 61.2901 9.36669C58.4339 9.36669 56.2847 8.35404 54.7205 6.14372C53.052 3.76818 52.7595 0.484997 52.7595 -2.45518V-19.112C52.7595 -19.5519 53.2148 -19.9436 53.665 -19.9436H56.1218C56.5746 -19.9436 57.0273 -19.5519 57.0273 -19.112L57.0293 -2.45518C57.0293 -0.814786 57.1285 1.33442 57.8636 2.8045C58.5656 4.3279 60.1705 5.52095 61.6838 5.5183C63.2607 5.5183 65.298 4.36888 66.5646 2.58096C68.0855 0.42924 68.4746 -1.94642 68.4746 -4.66278V-19.1374C68.4787 -19.5496 68.9274 -19.946 69.3776 -19.9436H71.8295C72.2848 -19.9436 72.7425 -19.5316 72.7399 -19.112L72.7461 7.97527C72.7461 8.41294 72.2858 8.80685 71.8356 8.80685" fill="#FF9900"/>
<path d="M29.3813 -13.166C29.5543 -12.7666 29.9967 -12.4665 30.4342 -12.5709L32.6852 -13.1153C33.1226 -13.2191 33.5016 -13.713 33.3693 -14.1277C31.8967 -18.8253 28.0587 -20.5521 23.5798 -20.5369C18.6252 -20.5165 14.0877 -18.0594 14.0877 -12.1461C14.0877 -7.0821 17.5494 -5.05018 21.3492 -4.20841L25.3906 -3.36094C27.5373 -2.9133 30.2155 -2.064 30.2155 0.975273C30.2155 4.5336 27.0414 5.64239 24.4496 5.70343C21.6977 5.64035 18.2234 4.33783 17.3535 1.06966C17.2545 0.647452 16.7533 0.362533 16.3158 0.461624L13.9632 0.993156C13.5206 1.09489 13.1645 1.5754 13.2713 1.9976C14.5862 7.15828 19.2662 9.32778 24.1521 9.36603C29.305 9.40673 34.6538 7.00317 34.6538 0.525209C34.6538 -2.06398 33.6314 -4.43207 31.6806 -5.95303C30.1723 -7.13561 28.3207 -7.53004 26.5174 -7.92417L22.9134 -8.65639C20.7184 -9.05072 18.4777 -9.72484 18.4777 -12.8227C18.4777 -15.8774 21.3136 -16.9251 23.5289 -16.9885C26.0519 -16.9214 28.2775 -15.7627 29.3813 -13.166" fill="#FF9900"/>
<path d="M35.9034 -16.538H39.4132V0.019472C39.4132 5.70918 41.0232 9.36645 46.494 9.36401H46.8731L49.6886 9.10967C50.1209 9.05676 50.5203 8.68007 50.5203 8.23487L50.5285 6.46989C50.5285 6.0196 50.147 5.53403 49.7069 5.57473L47.2449 5.81119C44.4192 5.67893 43.6586 3.93914 43.6586 0.749708V-16.5405H48.3309C48.7658 -16.5405 49.16 -16.9701 49.16 -17.4153L49.1621 -19.1654C49.1621 -19.6155 48.7653 -20.0377 48.3304 -20.0402H43.6582V-26.7116C43.6561 -27.1465 43.213 -27.5944 42.7755 -27.5358L40.3238 -27.2432C39.8507 -27.1923 39.4158 -26.854 39.4132 -26.4166V-20.0402H35.8575C35.4201 -20.0402 35.0487 -19.6024 35.0487 -19.1574L35.0283 -17.4357C35.0283 -16.988 35.4659 -16.5429 35.9034 -16.5405" fill="#FF9900"/>
<path d="M-6.67071 8.66656H-11.8745C-12.3985 8.634 -12.8105 8.22683 -12.8105 7.70533L-12.8186 -19.0462C-12.7753 -19.5345 -12.343 -19.9185 -11.8165 -19.9185H-6.97895C-6.52368 -19.8961 -6.14727 -19.5906 -6.04554 -19.1708V-15.0761H-5.95649C-4.4864 -18.7412 -2.44914 -20.4833 1.15996 -20.4833C3.49481 -20.4833 5.7941 -19.6468 7.25147 -17.3398C8.61728 -15.1907 8.61731 -11.5914 8.61731 -9.00218V7.83001C8.56135 8.30817 8.12645 8.66656 7.61522 8.66656H2.37826C1.9001 8.64417 1.51353 8.28274 1.45503 7.83001V-6.69572C1.45503 -9.62308 1.79843 -13.8987 -1.81066 -13.8987C-3.07474 -13.8987 -4.24721 -13.0516 -4.82711 -11.7622C-5.55707 -10.1344 -5.65881 -8.49381 -5.65881 -6.69572V7.70533C-5.66898 8.24962 -6.11408 8.66656 -6.67108 8.66656" fill="#221F1F"/>
</g>
<defs>
<clipPath id="clip0">
<rect width="161" height="30" fill="white"/>
</clipPath>
</defs>
</svg>
