<svg width="30" height="30" viewBox="0 0 30 30" fill="none" xmlns="http://www.w3.org/2000/svg">
<g clip-path="url(#clip0)">
<path d="M24.48 46.7582C23.5726 48.8544 22.4986 50.784 21.2542 52.558C19.5579 54.9765 18.1691 56.6505 17.0987 57.5801C15.4395 59.106 13.6618 59.8874 11.7581 59.9319C10.3915 59.9319 8.74342 59.543 6.82496 58.7541C4.9002 57.969 3.13137 57.5801 1.51401 57.5801C-0.182236 57.5801 -2.00144 57.969 -3.94731 58.7541C-5.89614 59.543 -7.46609 59.9541 -8.66642 59.9948C-10.4919 60.0726 -12.3115 59.2689 -14.1277 57.5801C-15.287 56.569 -16.7369 54.8357 -18.4739 52.3803C-20.3375 49.7581 -21.8697 46.7175 -23.0701 43.2509C-24.3556 39.5066 -25 35.8808 -25 32.3705C-25 28.3495 -24.1311 24.8815 -22.3908 21.9753C-21.0231 19.6409 -19.2035 17.7995 -16.9262 16.4477C-14.6488 15.0958 -12.1882 14.407 -9.53825 14.3629C-8.08829 14.3629 -6.18687 14.8114 -3.82398 15.6929C-1.46775 16.5773 0.0451643 17.0258 0.708476 17.0258C1.20439 17.0258 2.88508 16.5014 5.73425 15.4558C8.42861 14.4862 10.7026 14.0848 12.5655 14.2429C17.6135 14.6503 21.406 16.6402 23.9281 20.2253C19.4135 22.9608 17.1802 26.7922 17.2246 31.7072C17.2654 35.5356 18.6542 38.7214 21.3838 41.251C22.6208 42.425 24.0022 43.3324 25.5392 43.9768C25.2059 44.9435 24.854 45.8694 24.48 46.7582ZM12.9026 1.20034C12.9026 4.20103 11.8063 7.00276 9.62117 9.59601C6.98421 12.6789 3.79468 14.4603 0.335897 14.1792C0.291825 13.8192 0.266269 13.4403 0.266269 13.0422C0.266269 10.1615 1.52031 7.07868 3.74728 4.55802C4.85909 3.28176 6.27312 2.22057 7.98789 1.37404C9.69895 0.540137 11.3174 0.0789726 12.8396 0C12.884 0.401145 12.9026 0.802315 12.9026 1.2003V1.20034Z" fill="#B3B3B3"/>
</g>
<defs>
<clipPath id="clip0">
<rect width="30" height="30" fill="white"/>
</clipPath>
</defs>
</svg>
