<svg width="30" height="30" viewBox="0 0 30 30" fill="none" xmlns="http://www.w3.org/2000/svg">
<g clip-path="url(#clip0)">
<path d="M54.48 16.7582C53.5726 18.8544 52.4986 20.784 51.2542 22.558C49.5579 24.9765 48.1691 26.6505 47.0987 27.5801C45.4395 29.106 43.6618 29.8874 41.7581 29.9319C40.3915 29.9319 38.7434 29.543 36.825 28.7541C34.9002 27.969 33.1314 27.5801 31.514 27.5801C29.8178 27.5801 27.9986 27.969 26.0527 28.7541C24.1039 29.543 22.5339 29.9541 21.3336 29.9948C19.5081 30.0726 17.6885 29.2689 15.8723 27.5801C14.713 26.569 13.2631 24.8357 11.5261 22.3803C9.66245 19.7581 8.13028 16.7175 6.92994 13.2509C5.64442 9.50658 5 5.88076 5 2.3705C5 -1.65049 5.86886 -5.11853 7.60918 -8.02474C8.97692 -10.3591 10.7965 -12.2005 13.0738 -13.5523C15.3512 -14.9042 17.8118 -15.593 20.4618 -15.6371C21.9117 -15.6371 23.8131 -15.1886 26.176 -14.3071C28.5322 -13.4227 30.0452 -12.9742 30.7085 -12.9742C31.2044 -12.9742 32.8851 -13.4986 35.7343 -14.5442C38.4286 -15.5138 40.7026 -15.9152 42.5655 -15.7571C47.6135 -15.3497 51.406 -13.3598 53.9281 -9.77468C49.4135 -7.03921 47.1802 -3.20784 47.2246 1.70719C47.2654 5.53559 48.6542 8.72142 51.3838 11.251C52.6208 12.425 54.0022 13.3324 55.5392 13.9768C55.2059 14.9435 54.854 15.8694 54.48 16.7582ZM42.9026 -28.7997C42.9026 -25.799 41.8063 -22.9972 39.6212 -20.404C36.9842 -17.3211 33.7947 -15.5397 30.3359 -15.8208C30.2918 -16.1808 30.2663 -16.5597 30.2663 -16.9578C30.2663 -19.8385 31.5203 -22.9213 33.7473 -25.442C34.8591 -26.7182 36.2731 -27.7794 37.9879 -28.626C39.6989 -29.4599 41.3174 -29.921 42.8396 -30C42.884 -29.5989 42.9026 -29.1977 42.9026 -28.7997V-28.7997Z" fill="#B3B3B3"/>
</g>
<defs>
<clipPath id="clip0">
<rect width="30" height="30" fill="white"/>
</clipPath>
</defs>
</svg>
