<svg width="30" height="30" viewBox="0 0 30 30" fill="none" xmlns="http://www.w3.org/2000/svg">
<g clip-path="url(#clip0)">
<path d="M29.7322 0C28.328 0.299668 15.97 1.91775 14.4315 2.68656C14.077 3.39643 13.336 5.61119 13.101 5.96161C12.1079 6.17531 8.08326 6.94086 7.83026 7.08742C7.68861 7.51317 6.76382 9.33082 6.55094 9.5437C5.69861 9.75658 1.72516 10.4933 1.22899 10.8486C0.945694 12.5516 -0.135891 29.5925 6.96032 40.7334C14.0565 51.8743 26.4677 59.2901 29.7322 59.9999H29.7577C33.0221 59.2901 45.4078 51.8743 52.504 40.7334C59.5994 29.5917 58.5458 12.5516 58.2609 10.8486C57.7639 10.4933 53.7897 9.75658 52.939 9.5437C52.7261 9.33082 51.8021 7.51317 51.6596 7.08742C51.4075 6.94086 47.3836 6.17449 46.3889 5.96161C46.1539 5.61119 45.4137 3.39643 45.0584 2.68656C43.5248 1.9202 31.156 0.305398 29.7322 0V0ZM29.7322 4.34968C30.9488 4.61004 41.5215 6.02302 42.8324 6.67803C43.1345 7.28474 43.7584 9.16727 43.9582 9.46694C44.8072 9.64871 48.2708 10.2884 48.4869 10.4136C48.6081 10.7772 49.379 12.3555 49.5616 12.5373C50.2894 12.7191 53.6918 13.3346 54.1159 13.6375C54.3591 15.0933 55.2687 29.6505 49.2034 39.1727C43.138 48.6957 32.5481 55.0444 29.7577 55.6503H29.7322C26.9418 55.0444 16.3519 48.6949 10.2865 39.1727C4.22197 29.6505 5.13162 15.0933 5.37397 13.6375C5.79891 13.3338 9.20046 12.7191 9.92834 12.5373C10.1109 12.3555 10.8818 10.7772 11.003 10.4136C11.2191 10.2884 14.6571 9.64871 15.5062 9.46694C15.7068 9.16727 16.3546 7.28474 16.6575 6.67803C17.9717 6.02057 28.5319 4.60513 29.7322 4.34968V4.34968Z" fill="#007AC2"/>
<path d="M14.053 13.9137C13.6281 14.0955 10.0083 16.4003 9.64395 16.7639C9.54325 19.9767 10.4046 28.6449 13.5773 35.4104C13.9785 36.266 14.4141 37.0683 14.8857 37.7946C15.7904 39.3568 15.8412 39.2332 16.8941 37.7373C17.6236 36.7507 18.6757 35.2875 18.9394 34.9862C19.3029 36.1988 21.6536 43.7626 24.9597 48.3337C26.4253 50.3618 28.6761 52.2777 28.6671 51.4884C28.577 43.765 28.356 10.3333 28.5983 8.97088C27.6232 8.94795 24.4243 9.3647 23.7914 9.69302C23.739 10.9154 24.231 33.8392 23.9281 36.4461C21.6871 30.9866 20.9224 16.5796 21.3654 10.6354C20.1528 10.8778 17.1954 12.0642 16.7713 12.4891C16.226 13.5805 16.9702 25.5508 17.7448 29.5685C17.4803 29.9852 16.7181 31.1168 16.5969 31.2985C15.0625 28.5385 13.5961 20.0053 14.053 13.9137Z" fill="#007AC2"/>
</g>
<defs>
<clipPath id="clip0">
<rect width="30" height="30" fill="white"/>
</clipPath>
</defs>
</svg>
