<svg width="30" height="30" viewBox="0 0 30 30" fill="none" xmlns="http://www.w3.org/2000/svg">
<g clip-path="url(#clip0)">
<path d="M-0.267844 -30C-1.67202 -29.7003 -14.03 -28.0823 -15.5685 -27.3134C-15.923 -26.6036 -16.664 -24.3888 -16.899 -24.0384C-17.8921 -23.8247 -21.9167 -23.0591 -22.1697 -22.9126C-22.3114 -22.4868 -23.2362 -20.6692 -23.4491 -20.4563C-24.3014 -20.2434 -28.2748 -19.5067 -28.771 -19.1514C-29.0543 -17.4484 -30.1359 -0.407462 -23.0397 10.7334C-15.9435 21.8743 -3.53225 29.2901 -0.267844 29.9999H-0.24226C3.02215 29.2901 15.4078 21.8743 22.504 10.7334C29.5994 -0.40828 28.5458 -17.4484 28.2609 -19.1514C27.7639 -19.5067 23.7897 -20.2434 22.939 -20.4563C22.7261 -20.6692 21.8021 -22.4868 21.6596 -22.9126C21.4075 -23.0591 17.3836 -23.8255 16.3889 -24.0384C16.1539 -24.3888 15.4137 -26.6036 15.0584 -27.3134C13.5248 -28.0798 1.15598 -29.6946 -0.267844 -30V-30ZM-0.267844 -25.6503C0.948837 -25.39 11.5215 -23.977 12.8324 -23.322C13.1345 -22.7153 13.7584 -20.8327 13.9582 -20.5331C14.8072 -20.3513 18.2708 -19.7116 18.4869 -19.5864C18.6081 -19.2228 19.379 -17.6445 19.5616 -17.4627C20.2894 -17.2809 23.6918 -16.6654 24.1159 -16.3625C24.3591 -14.9067 25.2687 -0.349534 19.2034 9.17268C13.138 18.6957 2.54809 25.0444 -0.242258 25.6503H-0.267839C-3.05818 25.0444 -13.6481 18.6949 -19.7135 9.17268C-25.778 -0.349534 -24.8684 -14.9067 -24.626 -16.3625C-24.2011 -16.6662 -20.7995 -17.2809 -20.0717 -17.4627C-19.8891 -17.6445 -19.1182 -19.2228 -18.997 -19.5864C-18.7809 -19.7116 -15.3429 -20.3513 -14.4938 -20.5331C-14.2932 -20.8327 -13.6454 -22.7153 -13.3425 -23.322C-12.0283 -23.9794 -1.46815 -25.3949 -0.267844 -25.6503V-25.6503Z" fill="#007AC2"/>
<path d="M1.67657 -20.994C1.27792 -20.9546 1.21847 -20.6757 1.21602 -20.559C1.13414 -6.92986 1.17303 7.52887 1.0625 21.5305C1.15256 21.9735 1.85895 21.2927 2.26506 21.07C7.43472 18.2281 23.559 2.61179 14.2906 -2.98117C21.3876 -7.62192 20.1229 -12.0508 16.9772 -14.4694C10.4729 -19.4729 3.05209 -20.7152 2.1883 -20.9428C1.97235 -20.9997 1.80945 -21.007 1.67657 -20.994V-20.994ZM6.00065 -15.3905C6.10136 -15.4454 10.2705 -13.8998 12.5507 -12.3458C15.165 -10.5641 14.28 -8.8519 12.7554 -7.81699C11.9277 -7.25286 6.80509 -3.57375 5.94948 -3.36497C5.93065 -4.07484 5.92696 -12.0795 6.00065 -15.3905V-15.3905ZM9.81301 0.191532C10.3842 0.209109 10.9267 0.391721 11.3226 0.805605C11.6763 1.14376 13.2354 2.82447 9.91536 7.63715C8.67903 9.81997 6.08662 12.5577 5.79596 12.8312C5.76075 12.841 5.74623 12.7868 5.71921 12.8056C5.74623 11.2409 5.70428 3.66657 5.79596 1.54761C5.97957 1.45181 8.09956 0.138799 9.81301 0.191534V0.191532Z" fill="#007AC2"/>
</g>
<defs>
<clipPath id="clip0">
<rect width="30" height="30" fill="white"/>
</clipPath>
</defs>
</svg>
