<svg width="435" height="498" viewBox="0 0 435 498" fill="none" xmlns="http://www.w3.org/2000/svg">
<g clip-path="url(#clip0)" filter="url(#filter0_d)">
<path d="M119.527 12L415.159 91.2143C416.776 91.6475 417.735 93.3091 417.302 94.9257L315.343 475.442C314.91 477.059 313.248 478.018 311.632 477.585L15.9997 398.37L119.527 12Z" fill="#4779A8"/>
<path d="M-30.7766 390.205L92.9352 318.78" stroke="black"/>
<path d="M-4.63354 292.639L119.078 221.214" stroke="black"/>
<path d="M21.5098 195.068L145.222 123.643" stroke="black"/>
<path d="M47.6533 97.5L171.365 26.075" stroke="black"/>
<path d="M164.359 442.492L288.071 371.067" stroke="black"/>
<path d="M190.503 344.924L314.215 273.499" stroke="black"/>
<path d="M216.646 247.355L340.358 175.93" stroke="black"/>
<path d="M242.79 149.787L366.501 78.3621" stroke="black"/>
<path d="M66.7915 416.35L190.503 344.925" stroke="black"/>
<path d="M92.9346 318.781L216.646 247.356" stroke="black"/>
<path d="M119.078 221.213L242.79 149.788" stroke="black"/>
<path d="M145.221 123.645L268.933 52.2195" stroke="black"/>
<path d="M261.928 468.637L385.639 397.212" stroke="black"/>
<path d="M288.071 371.066L411.783 299.641" stroke="black"/>
<path d="M314.214 273.498L437.926 202.073" stroke="black"/>
<path d="M340.358 175.932L464.07 104.507" stroke="black"/>
<path d="M68.0698 413.092L171.107 440.701C171.704 440.15 172.301 439.599 172.905 439.065C188.51 425.16 209.475 417.889 230.374 417.439C239.73 417.238 249.544 418.252 258.061 414.37C266.828 410.376 272.658 401.81 276.545 393.001C281.261 382.328 283.668 369.598 278.351 359.216C272.107 347.023 257.522 341.939 247.694 332.409C230.761 316.008 229.801 288.718 215.404 270.053C206.306 258.266 191.767 250.747 177.444 248.959C157.111 246.418 135.144 254.618 124.439 272.403C121.346 277.588 119.21 283.287 118.132 289.228C115.942 300.954 115.296 313.257 109.941 323.916C104.038 335.662 93.1328 343.987 85.1507 354.439C75.2092 367.461 70.006 383.64 68.382 399.926C67.928 404.3 67.8239 408.702 68.0698 413.092Z" fill="#4779A8"/>
<path opacity="0.7" d="M68.0698 413.092L171.107 440.701C171.704 440.15 172.301 439.599 172.905 439.065C188.51 425.16 209.475 417.889 230.374 417.439C239.73 417.238 249.544 418.252 258.061 414.37C266.828 410.376 272.658 401.81 276.545 393.001C281.261 382.328 283.668 369.598 278.351 359.216C272.107 347.023 257.522 341.939 247.694 332.409C230.761 316.008 229.801 288.718 215.404 270.053C206.306 258.266 191.767 250.747 177.444 248.959C157.111 246.418 135.144 254.618 124.439 272.403C121.346 277.588 119.21 283.287 118.132 289.228C115.942 300.954 115.296 313.257 109.941 323.916C104.038 335.662 93.1328 343.987 85.1507 354.439C75.2092 367.461 70.006 383.64 68.382 399.926C67.928 404.3 67.8239 408.702 68.0698 413.092Z" fill="white"/>
<path d="M213.546 349.346L217.269 350.343C217.398 350.378 217.509 350.462 217.575 350.578C217.643 350.694 217.66 350.832 217.626 350.961L216.96 353.445L212.263 352.186L212.928 349.703C212.963 349.573 213.047 349.463 213.163 349.396C213.279 349.329 213.417 349.311 213.546 349.346Z" fill="#BFBFBF" stroke="#263238" stroke-linecap="round" stroke-linejoin="round"/>
<path d="M229.095 348.278L225.558 347.33L223.541 354.857L227.078 355.805L229.095 348.278Z" fill="#BFBFBF" stroke="#263238" stroke-linecap="round" stroke-linejoin="round"/>
<path d="M230.365 346.756L225.218 345.377L224.573 347.787L229.719 349.166L230.365 346.756Z" fill="#999999" stroke="#263238" stroke-linecap="round" stroke-linejoin="round"/>
<path d="M200.935 342.436L199.583 342.074L197.994 348.006L199.345 348.368L200.935 342.436Z" fill="#757575" stroke="#263238" stroke-linecap="round" stroke-linejoin="round"/>
<path d="M194.422 340.692L193.071 340.33L191.481 346.262L192.833 346.624L194.422 340.692Z" fill="#757575" stroke="#263238" stroke-linecap="round" stroke-linejoin="round"/>
<path d="M207.448 344.18L206.096 343.818L204.507 349.75L205.858 350.113L207.448 344.18Z" fill="#757575" stroke="#263238" stroke-linecap="round" stroke-linejoin="round"/>
<path d="M232.754 357.978L231.349 363.223L184.384 350.638L185.789 345.394C185.897 344.992 186.161 344.649 186.521 344.44C186.882 344.232 187.311 344.176 187.713 344.283L231.643 356.055C231.996 356.149 232.306 356.362 232.518 356.66C232.73 356.957 232.832 357.32 232.806 357.684C232.797 357.783 232.779 357.882 232.754 357.978Z" fill="#999999"/>
<path opacity="0.2" d="M232.754 357.98L231.349 363.224L205.689 356.348L206.716 352.514C206.776 352.291 206.879 352.082 207.019 351.899C207.16 351.716 207.335 351.562 207.535 351.447C207.735 351.331 207.955 351.257 208.184 351.226C208.413 351.196 208.646 351.212 208.869 351.271L232.807 357.686C232.797 357.785 232.78 357.883 232.754 357.98Z" fill="black" fill-opacity="0.7"/>
<path d="M232.754 357.978L231.349 363.223L184.384 350.638L185.789 345.394C185.897 344.992 186.161 344.649 186.521 344.44C186.882 344.232 187.311 344.176 187.713 344.283L231.643 356.055C231.996 356.149 232.306 356.362 232.518 356.66C232.73 356.957 232.832 357.32 232.806 357.684C232.797 357.783 232.779 357.882 232.754 357.978Z" stroke="#263238" stroke-linecap="round" stroke-linejoin="round"/>
<path d="M207.685 345.228L192.342 341.117C192.099 341.052 191.891 340.893 191.766 340.675C191.64 340.457 191.606 340.197 191.671 339.954C191.736 339.711 191.895 339.504 192.113 339.378C192.331 339.252 192.59 339.218 192.834 339.283L208.176 343.394C208.42 343.459 208.627 343.618 208.753 343.836C208.879 344.054 208.913 344.313 208.848 344.557C208.783 344.8 208.623 345.008 208.405 345.133C208.187 345.259 207.928 345.293 207.685 345.228Z" fill="#BFBFBF" stroke="#263238" stroke-linecap="round" stroke-linejoin="round"/>
<path d="M183.67 348.875L232.713 362.016C233.633 362.262 234.417 362.864 234.893 363.688C235.37 364.514 235.499 365.494 235.252 366.414L213.621 447.142L157.641 432.142L179.272 351.414C179.519 350.494 180.121 349.71 180.945 349.233C181.77 348.757 182.75 348.628 183.67 348.875Z" fill="#BFBFBF"/>
<path opacity="0.2" d="M235.277 366.419L213.646 447.147L190.961 441.068L211.575 364.136C211.882 362.991 212.631 362.014 213.658 361.422C214.684 360.829 215.904 360.668 217.049 360.975L235.348 365.878C235.34 366.06 235.316 366.241 235.277 366.419Z" fill="black" fill-opacity="0.7"/>
<path opacity="0.4" d="M235.276 364.627L180.15 349.856C180.594 349.391 181.156 349.055 181.775 348.882C182.395 348.71 183.049 348.707 183.67 348.875L232.713 362.016C233.334 362.182 233.901 362.512 234.351 362.971C234.802 363.43 235.121 364.002 235.276 364.627Z" fill="white"/>
<path d="M183.67 348.875L232.713 362.016C233.633 362.262 234.417 362.864 234.893 363.688C235.37 364.514 235.499 365.494 235.252 366.414L213.621 447.142L157.641 432.142L179.272 351.414C179.519 350.494 180.121 349.71 180.945 349.233C181.77 348.757 182.75 348.628 183.67 348.875Z" stroke="#263238" stroke-linecap="round" stroke-linejoin="round"/>
<path d="M181.062 428.556C182.919 424.419 181.07 419.559 176.933 417.702C172.795 415.845 167.935 417.694 166.078 421.832C164.221 425.969 166.07 430.829 170.208 432.686C174.346 434.543 179.206 432.694 181.062 428.556Z" fill="#999999" stroke="#263238" stroke-linecap="round" stroke-linejoin="round"/>
<path d="M158.98 368.471L146.267 365.064L140.634 347.059L172.861 355.694L158.98 368.471Z" fill="#999999" stroke="#263238" stroke-linecap="round" stroke-linejoin="round"/>
<path d="M170.195 431.421L158.219 428.212C151.076 426.299 144.985 421.628 141.286 415.225C137.587 408.822 136.583 401.213 138.494 394.07L146.267 365.062L158.985 368.47L151.604 396.014C150.533 400.013 151.094 404.274 153.164 407.86C155.234 411.445 158.644 414.062 162.643 415.133L173.761 418.112C175.526 418.587 177.03 419.742 177.944 421.326C178.856 422.908 179.104 424.789 178.631 426.554C178.157 428.318 177.002 429.821 175.42 430.734C173.839 431.646 171.959 431.893 170.195 431.421Z" fill="#BFBFBF"/>
<path opacity="0.2" d="M178.632 426.55C178.159 428.315 177.004 429.819 175.422 430.733C173.84 431.646 171.96 431.894 170.195 431.421L159.37 428.521C159.839 426.401 159.753 424.195 159.119 422.118C158.484 420.042 157.323 418.165 155.748 416.669C152.146 413.212 149.539 408.852 148.199 404.043C146.859 399.234 146.835 394.153 148.129 389.332L154.072 367.154L158.984 368.471L151.604 396.014C150.532 400.013 151.094 404.275 153.163 407.86C155.234 411.446 158.643 414.062 162.643 415.134L173.761 418.113C175.525 418.587 177.029 419.742 177.942 421.324C178.856 422.905 179.103 424.785 178.632 426.55Z" fill="black" fill-opacity="0.7"/>
<path d="M170.195 431.421L158.219 428.212C151.076 426.299 144.985 421.628 141.286 415.225C137.587 408.822 136.583 401.213 138.494 394.07L146.267 365.062L158.985 368.47L151.604 396.014C150.533 400.013 151.094 404.274 153.164 407.86C155.234 411.445 158.644 414.062 162.643 415.133L173.761 418.112C175.526 418.587 177.03 419.742 177.944 421.326C178.856 422.908 179.104 424.789 178.631 426.554C178.157 428.318 177.002 429.821 175.42 430.734C173.839 431.646 171.959 431.893 170.195 431.421Z" stroke="#263238" stroke-linecap="round" stroke-linejoin="round"/>
<path d="M143.545 375.221L156.263 378.628" stroke="#263238" stroke-linecap="round" stroke-linejoin="round"/>
<path d="M140.64 386.061L153.358 389.468" stroke="#263238" stroke-linecap="round" stroke-linejoin="round"/>
<path d="M137.673 397.134L151.098 399.074" stroke="#263238" stroke-linecap="round" stroke-linejoin="round"/>
<path d="M138.8 409.555L151.906 405.093" stroke="#263238" stroke-linecap="round" stroke-linejoin="round"/>
<path d="M145.335 420.583L154.972 410.376" stroke="#263238" stroke-linecap="round" stroke-linejoin="round"/>
<path d="M154.723 427.031C154.723 427.031 160.541 423.058 160.541 414.567" stroke="#263238" stroke-linecap="round" stroke-linejoin="round"/>
<path d="M166.044 430.309C166.044 430.309 171.077 424.636 169.611 416.996" stroke="#263238" stroke-linecap="round" stroke-linejoin="round"/>
<path opacity="0.4" d="M147.371 364.063L153.977 365.833L162.236 354.054L143.854 349.129L147.371 364.063Z" fill="white"/>
<path d="M198.21 381.68L180.833 377.024C180.339 376.891 179.916 376.568 179.66 376.125C179.403 375.681 179.333 375.155 179.464 374.659C179.598 374.165 179.923 373.743 180.367 373.486C180.81 373.23 181.338 373.16 181.833 373.292L199.21 377.948C199.706 378.081 200.128 378.405 200.385 378.849C200.641 379.293 200.711 379.821 200.578 380.317C200.512 380.562 200.399 380.792 200.244 380.993C200.09 381.194 199.897 381.363 199.677 381.49C199.457 381.616 199.214 381.698 198.963 381.731C198.711 381.763 198.455 381.746 198.21 381.68Z" fill="#757575" stroke="#263238" stroke-linecap="round" stroke-linejoin="round"/>
<path d="M199.403 378.46L183.119 374.097C182.714 373.988 182.282 374.045 181.919 374.255C181.556 374.464 181.291 374.81 181.183 375.214C181.074 375.619 181.131 376.051 181.341 376.414C181.55 376.777 181.896 377.042 182.3 377.151L198.585 381.514C198.99 381.622 199.421 381.565 199.784 381.356C200.147 381.146 200.412 380.801 200.521 380.396C200.629 379.991 200.572 379.56 200.363 379.197C200.153 378.833 199.808 378.568 199.403 378.46Z" fill="#263238"/>
<path d="M196.524 389.416L178.421 384.565C177.591 384.342 176.738 384.835 176.515 385.665L170.271 408.969C170.049 409.799 170.541 410.652 171.371 410.874L189.475 415.725C190.305 415.947 191.158 415.455 191.38 414.625L197.624 391.321C197.847 390.491 197.354 389.638 196.524 389.416Z" fill="#999999" stroke="#263238" stroke-linecap="round" stroke-linejoin="round"/>
<path d="M200.825 371.922L183.448 367.266C182.953 367.133 182.531 366.81 182.275 366.367C182.018 365.923 181.948 365.397 182.079 364.902C182.213 364.407 182.537 363.985 182.981 363.729C183.425 363.473 183.953 363.402 184.448 363.534L201.825 368.19C202.321 368.323 202.743 368.647 202.999 369.091C203.256 369.535 203.326 370.063 203.193 370.559C203.127 370.804 203.014 371.034 202.859 371.235C202.705 371.436 202.511 371.605 202.292 371.732C202.072 371.858 201.829 371.941 201.577 371.973C201.325 372.005 201.07 371.988 200.825 371.922Z" fill="#757575" stroke="#263238" stroke-linecap="round" stroke-linejoin="round"/>
<path d="M202.017 368.702L185.733 364.339C185.328 364.23 184.897 364.287 184.534 364.497C184.17 364.707 183.905 365.052 183.797 365.457C183.688 365.862 183.745 366.293 183.955 366.656C184.165 367.019 184.51 367.284 184.915 367.393L201.199 371.756C201.604 371.865 202.035 371.808 202.398 371.598C202.761 371.388 203.026 371.043 203.135 370.638C203.243 370.233 203.187 369.802 202.977 369.439C202.767 369.076 202.422 368.811 202.017 368.702Z" fill="#263238"/>
<path d="M217.546 449.432L216.618 452.896L150.974 435.306L151.902 431.843C152.053 431.28 152.421 430.8 152.926 430.509C153.43 430.217 154.03 430.138 154.593 430.289L215.988 446.74C216.551 446.891 217.031 447.259 217.324 447.764C217.616 448.269 217.696 448.868 217.546 449.432Z" fill="#757575"/>
<path opacity="0.4" d="M199.403 442.286L198.97 443.906C198.929 444.059 198.859 444.204 198.762 444.33C198.666 444.456 198.546 444.562 198.408 444.642C198.271 444.722 198.119 444.774 197.961 444.794C197.803 444.815 197.644 444.805 197.49 444.764L151.725 432.501L151.905 431.833C152.055 431.27 152.423 430.79 152.928 430.499C153.433 430.208 154.032 430.129 154.595 430.28L199.403 442.286Z" fill="white"/>
<path d="M217.546 449.432L216.618 452.896L150.974 435.306L151.902 431.843C152.053 431.28 152.421 430.8 152.926 430.509C153.43 430.217 154.03 430.138 154.593 430.289L215.988 446.74C216.551 446.891 217.031 447.259 217.324 447.764C217.616 448.269 217.696 448.868 217.546 449.432Z" stroke="#263238" stroke-linecap="round" stroke-linejoin="round"/>
<g opacity="0.2">
<path opacity="0.2" d="M184.159 392.77C182.472 392.317 180.687 392.374 179.032 392.935C177.378 393.496 175.926 394.536 174.862 395.921C173.797 397.307 173.168 398.978 173.054 400.722C172.939 402.466 173.344 404.204 174.218 405.718C175.092 407.231 176.395 408.451 177.962 409.224C179.53 409.997 181.291 410.287 183.024 410.059C184.756 409.83 186.382 409.092 187.695 407.94C189.009 406.787 189.951 405.271 190.402 403.582C191.006 401.321 190.689 398.912 189.518 396.884C188.348 394.857 186.42 393.377 184.159 392.77ZM188.683 402.348L185.268 401.433C185.27 400.964 185.155 400.501 184.933 400.088L186.554 396.225C187.385 396.995 188.013 397.957 188.384 399.028C188.754 400.098 188.856 401.244 188.679 402.363L188.683 402.348ZM185.334 395.333L183.842 398.949C183.631 398.823 183.403 398.727 183.166 398.663C182.773 398.56 182.363 398.541 181.962 398.607L180.596 394.534C182.227 394.206 183.922 394.492 185.353 395.338L185.334 395.333ZM179.161 394.955L180.585 399.2C180.313 399.422 180.083 399.692 179.907 399.996L175.438 398.799C175.772 397.944 176.275 397.165 176.915 396.508C177.556 395.851 178.321 395.328 179.167 394.972L179.161 394.955ZM175.07 400.211L179.539 401.409C179.538 401.762 179.602 402.112 179.727 402.442L176.371 405.407C175.817 404.672 175.417 403.833 175.194 402.941C174.97 402.049 174.928 401.12 175.07 400.211ZM177.369 406.48L180.589 403.635C180.903 403.892 181.269 404.079 181.66 404.184C181.898 404.246 182.142 404.278 182.388 404.279L181.872 408.157C180.21 408.166 178.601 407.568 177.35 406.475L177.369 406.48ZM183.389 407.998L183.936 403.868C184.336 403.62 184.668 403.276 184.9 402.866L188.315 403.781C187.904 404.838 187.239 405.778 186.379 406.517C185.519 407.256 184.49 407.771 183.383 408.018L183.389 407.998Z" fill="black"/>
</g>
<path d="M179.134 399.853L174.39 404.041L175.359 405.139L180.103 400.951L179.134 399.853Z" fill="#BFBFBF" stroke="#263238" stroke-linecap="round" stroke-linejoin="round"/>
<path d="M181.15 401.136L180.348 407.413L181.801 407.598L182.602 401.321L181.15 401.136Z" fill="#BFBFBF" stroke="#263238" stroke-linecap="round" stroke-linejoin="round"/>
<path d="M180.944 397.858L178.93 391.859L177.542 392.325L179.556 398.324L180.944 397.858Z" fill="#BFBFBF" stroke="#263238" stroke-linecap="round" stroke-linejoin="round"/>
<path d="M183.295 398.76L185.74 392.923L184.388 392.357L181.944 398.194L183.295 398.76Z" fill="#BFBFBF" stroke="#263238" stroke-linecap="round" stroke-linejoin="round"/>
<path d="M188.961 400.902L182.849 399.264L182.47 400.678L188.582 402.316L188.961 400.902Z" fill="#BFBFBF" stroke="#263238" stroke-linecap="round" stroke-linejoin="round"/>
<path d="M179.204 398.286L173.091 396.648L172.712 398.063L178.825 399.701L179.204 398.286Z" fill="#BFBFBF" stroke="#263238" stroke-linecap="round" stroke-linejoin="round"/>
<path d="M182.769 390.855C181.082 390.402 179.298 390.461 177.643 391.023C175.989 391.584 174.538 392.623 173.475 394.01C172.412 395.396 171.783 397.066 171.669 398.809C171.554 400.553 171.96 402.291 172.833 403.804C173.707 405.317 175.009 406.537 176.576 407.309C178.143 408.082 179.904 408.373 181.636 408.145C183.368 407.917 184.994 407.18 186.307 406.028C187.621 404.876 188.563 403.361 189.015 401.673C189.316 400.553 189.392 399.384 189.241 398.234C189.089 397.084 188.713 395.975 188.133 394.97C187.553 393.966 186.781 393.085 185.86 392.379C184.94 391.673 183.89 391.155 182.769 390.855ZM178.7 406.041C177.384 405.688 176.202 404.953 175.304 403.929C174.405 402.905 173.831 401.637 173.653 400.286C173.475 398.935 173.702 397.562 174.304 396.34C174.907 395.118 175.859 394.102 177.038 393.421C178.219 392.74 179.574 392.423 180.934 392.513C182.293 392.602 183.596 393.092 184.677 393.922C185.757 394.751 186.569 395.883 187.006 397.173C187.444 398.463 187.49 399.854 187.137 401.17C186.664 402.934 185.51 404.439 183.927 405.353C182.345 406.266 180.465 406.514 178.7 406.041Z" fill="#BFBFBF" stroke="#263238" stroke-linecap="round" stroke-linejoin="round"/>
<path d="M183.776 400.27C183.629 400.817 183.324 401.308 182.898 401.682C182.472 402.055 181.945 402.294 181.384 402.368C180.822 402.442 180.251 402.348 179.743 402.097C179.235 401.846 178.813 401.451 178.53 400.96C178.247 400.47 178.115 399.907 178.152 399.341C178.189 398.776 178.393 398.235 178.738 397.785C179.083 397.336 179.553 396.999 180.089 396.817C180.625 396.635 181.204 396.616 181.751 396.763C182.114 396.86 182.455 397.028 182.753 397.257C183.052 397.486 183.302 397.771 183.49 398.097C183.678 398.423 183.8 398.782 183.849 399.155C183.898 399.528 183.873 399.906 183.776 400.27Z" fill="#BFBFBF" stroke="#263238" stroke-linecap="round" stroke-linejoin="round"/>
<path d="M232.158 412.753L217.63 408.86C216.466 408.548 215.473 407.786 214.87 406.742C214.268 405.698 214.104 404.457 214.416 403.293C214.728 402.128 215.49 401.136 216.534 400.533C217.578 399.93 218.819 399.767 219.983 400.079L234.536 403.978L232.158 412.753Z" fill="#999999" stroke="#263238" stroke-linecap="round" stroke-linejoin="round"/>
<path d="M257.346 452.42L225.929 444.002L223.083 454.622L254.5 463.04L257.346 452.42Z" fill="#757575" stroke="#263238" stroke-linecap="round" stroke-linejoin="round"/>
<path d="M254.404 451.632L225.929 444.002L223.083 454.622L251.558 462.252L254.404 451.632Z" fill="#999999" stroke="#263238" stroke-linecap="round" stroke-linejoin="round"/>
<path d="M278.907 379.837L247.451 371.408C246.384 371.122 245.287 371.756 245.001 372.822L225.585 445.286C225.299 446.353 225.932 447.45 226.999 447.736L258.455 456.165C259.522 456.45 260.619 455.817 260.904 454.75L280.321 382.286C280.607 381.219 279.974 380.123 278.907 379.837Z" fill="#757575" stroke="#263238" stroke-linecap="round" stroke-linejoin="round"/>
<path d="M275.004 378.79L243.548 370.361C242.481 370.076 241.384 370.709 241.099 371.776L221.682 444.24C221.396 445.306 222.029 446.403 223.096 446.689L254.552 455.118C255.619 455.404 256.716 454.77 257.002 453.703L276.418 381.24C276.704 380.173 276.071 379.076 275.004 378.79Z" fill="#BFBFBF" stroke="#263238" stroke-linecap="round" stroke-linejoin="round"/>
<path d="M255.534 453.311L274.95 380.847C275.02 380.589 274.866 380.323 274.607 380.253L243.151 371.825C242.893 371.755 242.627 371.909 242.558 372.168L223.141 444.632C223.072 444.89 223.225 445.156 223.484 445.225L254.94 453.654C255.198 453.723 255.464 453.57 255.534 453.311Z" fill="#263238"/>
<path d="M221.855 451.302L256.785 460.661C257.043 460.73 257.264 460.9 257.398 461.132C257.532 461.364 257.568 461.64 257.499 461.898L257.006 463.737L220.15 453.862L220.648 452.003C220.72 451.753 220.885 451.541 221.111 451.41C221.336 451.28 221.602 451.241 221.855 451.302Z" fill="#757575" stroke="#263238" stroke-linecap="round" stroke-linejoin="round"/>
<path opacity="0.2" d="M270.848 382.048L244.924 375.101C244.622 375.021 244.312 375.199 244.231 375.501L239.197 394.288C239.116 394.59 239.296 394.9 239.597 394.981L265.521 401.927C265.823 402.008 266.133 401.829 266.214 401.527L271.248 382.741C271.329 382.439 271.15 382.129 270.848 382.048Z" fill="#4779A8"/>
<path opacity="0.4" d="M252.255 387.784L259.636 393.119C260.635 391.682 261.212 389.994 261.301 388.246C261.389 386.498 260.986 384.76 260.136 383.23L252.255 387.784Z" fill="#4779A8"/>
<path opacity="0.6" d="M252.375 387.357L259.983 382.964C259.176 381.611 258.039 380.484 256.678 379.689L254.933 382.824L252.375 387.357Z" fill="#4779A8"/>
<path d="M254.535 378.785L252.437 386.615L256.39 379.533C255.799 379.219 255.178 378.968 254.535 378.785Z" fill="#4779A8"/>
<path opacity="0.1" d="M251.848 387.645L254.243 378.707C252.673 378.314 251.028 378.334 249.469 378.768C247.91 379.201 246.49 380.031 245.349 381.178C244.207 382.325 243.383 383.748 242.956 385.309C242.53 386.87 242.517 388.515 242.917 390.083L251.848 387.645Z" fill="white"/>
<path opacity="0.2" d="M249.552 396.796C251.357 397.279 253.264 397.21 255.028 396.599C256.794 395.989 258.335 394.863 259.454 393.368L251.942 387.936L242.975 390.375C243.426 391.921 244.268 393.325 245.42 394.449C246.573 395.575 247.996 396.383 249.552 396.796Z" fill="#4779A8"/>
<path d="M268.934 385.269L264.7 384.135L264.37 385.364L268.605 386.499L268.934 385.269Z" fill="#4779A8"/>
<path opacity="0.6" d="M268.143 388.221L263.909 387.086L263.579 388.315L267.814 389.45L268.143 388.221Z" fill="#4779A8"/>
<path opacity="0.4" d="M267.354 391.166L263.119 390.031L262.79 391.261L267.024 392.395L267.354 391.166Z" fill="#4779A8"/>
<path opacity="0.2" d="M266.563 394.117L262.328 392.982L261.999 394.212L266.233 395.346L266.563 394.117Z" fill="#4779A8"/>
<path opacity="0.1" d="M265.772 397.068L261.538 395.934L261.208 397.163L265.443 398.298L265.772 397.068Z" fill="white"/>
<path opacity="0.2" d="M264.443 405.952L238.519 399.006C238.218 398.925 237.907 399.104 237.826 399.406L232.792 418.193C232.712 418.494 232.891 418.805 233.192 418.885L259.116 425.832C259.418 425.913 259.728 425.733 259.809 425.432L264.843 406.645C264.924 406.343 264.745 406.033 264.443 405.952Z" fill="#4779A8"/>
<path opacity="0.5" d="M236.714 414.835L235.484 414.506L235.194 415.589L236.424 415.918L236.714 414.835Z" fill="#4779A8"/>
<path opacity="0.2" d="M236.714 414.835L235.484 414.506L234.696 417.448L235.926 417.777L236.714 414.835Z" fill="#4779A8"/>
<path opacity="0.5" d="M240.02 412.583L238.791 412.254L238.213 414.41L239.443 414.74L240.02 412.583Z" fill="#4779A8"/>
<path opacity="0.2" d="M240.02 412.583L238.791 412.254L237.218 418.123L238.448 418.452L240.02 412.583Z" fill="#4779A8"/>
<path opacity="0.5" d="M243.322 410.331L242.092 410.002L241.227 413.232L242.456 413.561L243.322 410.331Z" fill="#4779A8"/>
<path opacity="0.2" d="M243.322 410.331L242.092 410.002L239.735 418.798L240.965 419.127L243.322 410.331Z" fill="#4779A8"/>
<path opacity="0.5" d="M245.578 411.982L244.348 411.652L243.578 414.526L244.808 414.855L245.578 411.982Z" fill="#4779A8"/>
<path opacity="0.2" d="M245.578 411.982L244.348 411.652L242.253 419.472L243.482 419.802L245.578 411.982Z" fill="#4779A8"/>
<path opacity="0.5" d="M247.838 413.634L246.609 413.305L245.936 415.817L247.165 416.146L247.838 413.634Z" fill="#4779A8"/>
<path opacity="0.2" d="M247.838 413.634L246.609 413.305L244.775 420.149L246.004 420.478L247.838 413.634Z" fill="#4779A8"/>
<path opacity="0.5" d="M250.486 413.82L249.257 413.49L248.535 416.183L249.765 416.513L250.486 413.82Z" fill="#4779A8"/>
<path opacity="0.2" d="M250.486 413.82L249.257 413.49L247.292 420.822L248.522 421.152L250.486 413.82Z" fill="#4779A8"/>
<path opacity="0.5" d="M253.401 413.033L252.171 412.703L251.306 415.933L252.535 416.262L253.401 413.033Z" fill="#4779A8"/>
<path opacity="0.2" d="M253.401 413.033L252.171 412.703L249.815 421.499L251.044 421.828L253.401 413.033Z" fill="#4779A8"/>
<path opacity="0.5" d="M256.31 412.243L255.081 411.914L254.07 415.685L255.299 416.014L256.31 412.243Z" fill="#4779A8"/>
<path opacity="0.2" d="M256.31 412.243L255.081 411.914L252.332 422.173L253.561 422.503L256.31 412.243Z" fill="#4779A8"/>
<path opacity="0.5" d="M258.435 414.382L257.206 414.053L256.34 417.282L257.57 417.612L258.435 414.382Z" fill="#4779A8"/>
<path opacity="0.2" d="M258.435 414.382L257.206 414.053L254.849 422.849L256.078 423.178L258.435 414.382Z" fill="#4779A8"/>
<path opacity="0.5" d="M262.134 410.667L260.904 410.338L259.606 415.182L260.836 415.512L262.134 410.667Z" fill="#4779A8"/>
<path opacity="0.2" d="M262.134 410.667L260.904 410.338L257.371 423.524L258.6 423.854L262.134 410.667Z" fill="#4779A8"/>
<path opacity="0.2" d="M258.038 429.856L232.114 422.91C231.812 422.829 231.502 423.008 231.421 423.31L226.387 442.097C226.306 442.398 226.486 442.709 226.787 442.79L252.711 449.736C253.013 449.817 253.323 449.637 253.404 449.336L258.438 430.549C258.519 430.247 258.34 429.937 258.038 429.856Z" fill="#4779A8"/>
<path d="M239.407 427.965L233.612 426.412L233.373 427.305L239.168 428.858L239.407 427.965Z" fill="#4779A8"/>
<path d="M253.618 435.423L236.114 430.732L235.875 431.625L253.379 436.315L253.618 435.423Z" fill="#4779A8"/>
<path d="M252.991 437.763L232.072 432.158L231.833 433.051L252.752 438.656L252.991 437.763Z" fill="#4779A8"/>
<path d="M252.362 440.111L231.443 434.506L231.204 435.399L252.123 441.004L252.362 440.111Z" fill="#4779A8"/>
<path d="M251.735 442.453L230.816 436.848L230.577 437.74L251.495 443.345L251.735 442.453Z" fill="#4779A8"/>
<path d="M241.35 442.178L230.188 439.188L229.949 440.08L241.111 443.071L241.35 442.178Z" fill="#4779A8"/>
<path d="M95.5629 361.945L91.8318 368.903L105.038 372.442C105.038 372.442 105.987 371.379 104.61 370.136C103.233 368.894 99.7693 366.131 100.471 364.118C101.172 362.104 95.5629 361.945 95.5629 361.945Z" fill="#757575" stroke="#263238" stroke-linecap="round" stroke-linejoin="round"/>
<path d="M119.517 368.594L116.643 375.552L129.839 379.088C129.839 379.088 130.648 378.023 129.171 376.781C127.695 375.538 124.039 372.791 124.509 370.763C124.98 368.735 119.517 368.594 119.517 368.594Z" fill="#757575" stroke="#263238" stroke-linecap="round" stroke-linejoin="round"/>
<path d="M142.591 284.258L138.996 286.589L135.396 288.923L131.232 287.389L132.744 290.174L129.513 292.262C123.788 286.132 123.235 279.961 127.289 279.917L127.571 279.919C131.775 280.016 141.034 283.119 142.591 284.258Z" fill="#4779A8"/>
<path opacity="0.2" d="M135.395 288.922L131.231 287.388L132.744 290.172L129.513 292.261C123.788 286.131 123.235 279.959 127.288 279.916L127.57 279.918C127.46 280.934 127.547 282.191 128.379 283.026C130.029 284.676 135.055 286.112 135.055 286.112C135.055 286.112 136.933 285.078 138.673 285.784C138.889 285.874 138.991 286.157 138.981 286.583L135.395 288.922Z" fill="black" fill-opacity="0.7"/>
<path d="M142.591 284.258L138.996 286.589L135.396 288.923L131.232 287.389L132.744 290.174L129.513 292.262C123.788 286.132 123.235 279.961 127.289 279.917L127.571 279.919C131.775 280.016 141.034 283.119 142.591 284.258Z" stroke="#263238" stroke-linecap="round" stroke-linejoin="round"/>
<path d="M156.274 324.943C160.709 319.297 163.497 314.084 162.5 313.299L142.532 297.606C141.531 296.815 137.128 300.759 132.688 306.403C128.247 312.047 125.464 317.262 126.462 318.047L146.433 333.746C147.43 334.531 151.834 330.587 156.274 324.943Z" fill="#757575" stroke="#263238" stroke-linecap="round" stroke-linejoin="round"/>
<path d="M146.433 333.745L126.461 318.051C125.464 317.262 128.252 312.048 132.686 306.407C137.121 300.767 141.53 296.819 142.532 297.605L162.5 313.298C161.504 312.508 157.099 316.457 152.659 322.101C148.218 327.745 145.421 332.956 146.433 333.745Z" fill="#BFBFBF" stroke="#263238" stroke-linecap="round" stroke-linejoin="round"/>
<path d="M156.911 312.733L159.091 312.402C159.521 312.339 160.275 311.532 160.9 311.642C161.765 311.811 162.617 312.039 163.451 312.326C164.154 312.571 163.19 313.301 163.19 313.301C163.19 313.301 163.367 314.395 163.582 315.153C163.797 315.911 163.06 315.776 162.833 315.998C162.606 316.219 162.145 316.828 161.604 316.683C161.062 316.538 161.099 317.316 160.623 316.89C160.146 316.465 159.196 315.562 159.196 315.562L156.703 316.436L156.911 312.733Z" fill="white" stroke="#263238" stroke-linecap="round" stroke-linejoin="round"/>
<path d="M150.508 286.165C152.585 279.997 159.333 276.101 161.896 281.698C165.154 288.798 160.904 291.136 155.985 292.5C151.065 293.864 150.508 286.165 150.508 286.165Z" fill="white" stroke="#263238" stroke-linecap="round" stroke-linejoin="round"/>
<path d="M152.127 285.469C149.768 287.227 146.239 287.928 146.239 287.928L149.63 293.987C150.662 293.028 151.829 292.227 153.096 291.611" fill="white"/>
<path d="M152.127 285.469C149.768 287.227 146.239 287.928 146.239 287.928L149.63 293.987C150.662 293.028 151.829 292.227 153.096 291.611" stroke="#263238" stroke-linecap="round" stroke-linejoin="round"/>
<path d="M150.508 286.164C152.133 287.375 153.293 289.107 153.794 291.07C153.794 291.07 155.626 291.456 156.333 291.118C157.041 290.779 159.412 289.794 159.901 289.941C160.39 290.087 158.878 291.496 158.878 291.496C158.878 291.496 161.91 290.657 162.763 289.447C162.763 289.447 164.877 289.36 165.225 286.813C165.573 284.266 163.66 284.302 164.206 282.498C164.752 280.694 163.886 278.365 162.73 278.406C161.574 278.447 160.302 278.278 159.801 277.182C159.3 276.086 156.389 276.665 155.917 278.233C155.898 278.243 151.466 280.209 150.508 286.164Z" fill="#263238"/>
<path d="M159.49 290.208C159.49 290.208 160.601 290.197 160.661 290.522C160.72 290.846 157.455 292.554 157.088 291.954C156.72 291.353 158.766 290.453 158.766 290.453" fill="white"/>
<path d="M159.49 290.208C159.49 290.208 160.601 290.197 160.661 290.522C160.72 290.846 157.455 292.554 157.088 291.954C156.72 291.353 158.766 290.453 158.766 290.453" stroke="#263238" stroke-linecap="round" stroke-linejoin="round"/>
<path d="M145.864 286.421L147.693 285.625C147.693 285.625 153.791 291.201 151.674 296.918L144.994 289.67L145.864 286.421Z" fill="#4779A8" stroke="#263238" stroke-linecap="round" stroke-linejoin="round"/>
<path d="M148.893 306.165C145.596 308.419 141.198 310.901 137.899 313.123C136.678 313.91 135.523 314.794 134.445 315.768C134.445 315.768 121.756 310.439 120.055 303.965C119.894 303.336 133.649 285.176 140.95 284.058C145.228 283.411 153.769 294.29 153.526 301.519C153.524 302.716 151.564 304.35 148.893 306.165Z" fill="#4779A8"/>
<path opacity="0.2" d="M137.899 313.123C138.579 311.271 141.655 309.099 141.655 309.099C140.697 307.462 141.698 306.146 142.242 306.909C142.785 307.671 143.817 307.001 143.817 307.001C143.278 303.354 145.756 301.304 146.145 301.513C146.533 301.722 145.898 303.821 145.898 303.821C146.573 303.326 147.4 303.085 148.234 303.139C148.673 304.088 148.898 305.121 148.893 306.166C145.6 308.405 141.198 310.901 137.899 313.123Z" fill="black" fill-opacity="0.7"/>
<path d="M148.893 306.165C145.596 308.419 141.198 310.901 137.899 313.123C136.678 313.91 135.523 314.794 134.445 315.768C134.445 315.768 121.756 310.439 120.055 303.965C119.894 303.336 133.649 285.176 140.95 284.058C145.228 283.411 153.769 294.29 153.526 301.519C153.524 302.716 151.564 304.35 148.893 306.165Z" stroke="#263238" stroke-linecap="round" stroke-linejoin="round"/>
<path d="M120.266 303.688C120.266 303.688 125.965 306.909 134.276 315.327L133.026 319.991C133.026 319.991 137.853 337.864 138.271 341.631C138.689 345.398 131.448 358.391 129.104 363.587C126.76 368.784 126.916 367.754 126.761 368.779C126.607 369.804 125.473 370.933 125.473 370.933L125.343 371.85C125.343 371.85 120.46 371.728 118.425 369.996C118.425 369.996 119.297 368.086 119.386 367.754C119.762 367.157 120.194 366.597 120.676 366.082C120.676 366.082 128.029 346.583 128.795 344.174C129.561 341.765 120.95 322.815 120.95 322.815C120.95 322.815 117.733 335.27 117.101 337.177C116.47 339.083 102.559 361.437 102.559 361.437C102.513 362.092 102.341 362.733 102.053 363.324C101.759 363.953 101.579 364.628 101.519 365.32C101.519 365.32 95.8997 365.001 94.1073 362.382C94.1073 362.382 95.1632 360.647 95.1748 360.174C95.1864 359.701 96.4263 358.606 96.4263 358.606C96.4263 358.606 104.435 341.929 105.569 339.472C106.357 337.839 107.291 336.279 108.36 334.813C108.36 334.813 111.383 321.736 111.237 318.727C111.092 315.718 115.04 307.229 120.266 303.688Z" fill="#263238"/>
<path d="M130.125 302.543C130.032 302.518 139.351 292.68 146.975 289.244" stroke="#263238" stroke-linecap="round" stroke-linejoin="round"/>
<path d="M153.54 301.524C153.54 301.524 148.426 301.607 145.397 305.69C145.397 305.69 143.801 317.382 144.848 319.446C145.895 321.509 155.861 318.214 157.224 316.89L158.286 316.364C158.286 316.364 158.071 313.692 157.308 312.207L156.178 312.521C156.178 312.521 155.357 311.684 151.255 312.844C151.241 312.84 153.67 303.499 153.54 301.524Z" fill="#4779A8" stroke="#263238" stroke-linecap="round" stroke-linejoin="round"/>
<path d="M156.16 312.531C156.535 313.479 156.812 314.463 156.989 315.467" stroke="#263238" stroke-linecap="round" stroke-linejoin="round"/>
<path d="M159.219 315.572C159.566 315.22 159.836 314.799 160.01 314.336" stroke="#263238" stroke-linecap="round" stroke-linejoin="round"/>
<path d="M127.3 286.101C128.436 287.713 131.231 287.39 131.231 287.39C131.231 287.39 129.082 286.767 128.863 285.809" stroke="#263238" stroke-linecap="round" stroke-linejoin="round"/>
<path d="M124.127 308.653C125.763 309.824 127.614 311.25 129.459 312.853L130.097 311.916C128.468 310.389 126.759 308.951 124.978 307.605L124.127 308.653Z" fill="#999999" stroke="#263238" stroke-linecap="round" stroke-linejoin="round"/>
<path d="M130.642 312.439L130.041 313.376C131.208 314.426 132.351 315.564 133.419 316.712L133.723 315.576C133.723 315.576 132.555 314.259 130.642 312.439Z" fill="#999999" stroke="#263238" stroke-linecap="round" stroke-linejoin="round"/>
<path d="M124.094 306.962C122.767 305.999 121.383 305.119 119.949 304.324L118.955 305.261C118.955 305.261 120.708 306.253 123.159 307.956L124.094 306.962Z" fill="#999999" stroke="#263238" stroke-linecap="round" stroke-linejoin="round"/>
<g opacity="0.2">
<path opacity="0.2" d="M121.531 310.734C121.531 310.734 118.898 314.395 118.594 317.048C118.291 319.702 119.654 320.898 119.654 320.898C117.82 321.128 115.959 320.966 114.192 320.423" stroke="white" stroke-linecap="round" stroke-linejoin="round"/>
<path opacity="0.2" d="M121.296 321.813C121.296 321.813 124.385 324.063 127.464 322.99" stroke="white" stroke-linecap="round" stroke-linejoin="round"/>
<path opacity="0.2" d="M120.064 322C120.064 322 117.484 324.723 114.361 325.178" stroke="white" stroke-linecap="round" stroke-linejoin="round"/>
<path opacity="0.2" d="M129.908 341.115C129.908 341.115 132.546 343.25 134.679 342.394" stroke="white" stroke-linecap="round" stroke-linejoin="round"/>
<path opacity="0.2" d="M129.789 344.68C129.789 344.68 133.399 345.334 135.376 343.087" stroke="white" stroke-linecap="round" stroke-linejoin="round"/>
<path opacity="0.2" d="M109.062 335.529C109.062 335.529 111.348 338.082 114.085 337.194" stroke="white" stroke-linecap="round" stroke-linejoin="round"/>
<path opacity="0.2" d="M114.717 312.647C114.825 312.962 115.03 313.236 115.302 313.429C115.574 313.622 115.899 313.724 116.233 313.722C117.014 312.192 117.88 310.706 118.827 309.272L117.59 307.665C116.659 308.784 115.823 309.979 115.09 311.236" stroke="white" stroke-linecap="round" stroke-linejoin="round"/>
<path opacity="0.2" d="M123.826 312.373L127.598 313.906L126.458 318.024C125.71 318.221 124.922 318.205 124.182 317.977C123.443 317.749 122.783 317.32 122.275 316.736L123.034 313.902" stroke="white" stroke-linecap="round" stroke-linejoin="round"/>
</g>
<path d="M151.24 312.84C151.24 312.84 150.238 315.217 148.973 315.934" stroke="#263238" stroke-linecap="round" stroke-linejoin="round"/>
<path d="M124.97 302.779C124.97 302.779 132.951 306.381 137.767 305.382" stroke="#263238" stroke-linecap="round" stroke-linejoin="round"/>
<path d="M145.407 305.693C145.407 305.693 145.328 301.829 146.697 300.878" stroke="#263238" stroke-linecap="round" stroke-linejoin="round"/>
<path d="M162.663 326.681C162.815 326.746 162.985 326.751 163.14 326.696C163.296 326.641 163.425 326.529 163.501 326.383L163.935 326.499L162.839 330.592L162.195 330.42L163.031 327.298L162.544 327.167L162.663 326.681Z" fill="#4779A8"/>
<path d="M150.892 334.335C151.057 334.371 151.229 334.342 151.373 334.254C151.516 334.166 151.62 334.025 151.662 333.862L152.112 333.899L151.78 338.123L151.115 338.071L151.366 334.849L150.855 334.806L150.892 334.335Z" fill="#4779A8"/>
<path d="M158.702 332.177C158.856 332.251 159.033 332.262 159.196 332.208C159.359 332.154 159.494 332.039 159.574 331.888L159.995 332.032L158.633 336.043L158.004 335.833L159.045 332.77L158.566 332.606L158.702 332.177Z" fill="#4779A8"/>
<path d="M156.414 339.606C156.576 339.651 156.749 339.632 156.897 339.553C157.046 339.474 157.158 339.342 157.212 339.182L157.661 339.245L157.058 343.444L156.4 343.346L156.864 340.15L156.36 340.078L156.414 339.606Z" fill="#4779A8"/>
<path d="M162.647 333.866C162.815 333.883 162.983 333.835 163.118 333.732C163.252 333.63 163.342 333.479 163.37 333.313L163.818 333.302L163.92 337.544L163.252 337.558L163.177 334.327L162.652 334.333L162.647 333.866Z" fill="#4779A8"/>
<path d="M166.07 342.709C166.238 342.728 166.406 342.682 166.54 342.579C166.674 342.476 166.762 342.326 166.788 342.159L167.24 342.149L167.344 346.386L166.676 346.401L166.595 343.169L166.07 343.18L166.07 342.709Z" fill="#4779A8"/>
<path d="M150.489 326.65C150.657 326.655 150.821 326.597 150.948 326.487C151.075 326.376 151.155 326.221 151.171 326.053L151.617 326.011L152.002 330.234L151.338 330.291L151.044 327.075L150.509 327.12L150.489 326.65Z" fill="#4779A8"/>
<path d="M144.726 343.452C144.891 343.489 145.063 343.459 145.207 343.371C145.35 343.283 145.454 343.142 145.496 342.979L145.946 343.016L145.608 347.244L144.947 347.193L145.2 343.966L144.689 343.924L144.726 343.452Z" fill="#4779A8"/>
<path d="M154.978 344.768C155.125 344.851 155.298 344.874 155.461 344.835C155.625 344.795 155.768 344.695 155.861 344.555L156.275 344.728L154.651 348.643L154.034 348.389L155.273 345.401L154.804 345.202L154.978 344.768Z" fill="#4779A8"/>
<path d="M162.074 346.23C162.241 346.248 162.408 346.202 162.542 346.101C162.677 346 162.767 345.851 162.794 345.686L163.247 345.676L163.319 349.915L162.651 349.929L162.603 346.675L162.078 346.681L162.074 346.23Z" fill="#4779A8"/>
<path d="M169.694 348.894C169.852 348.953 170.026 348.95 170.182 348.885C170.337 348.819 170.462 348.697 170.531 348.543L170.965 348.659L169.98 352.782L169.341 352.611L170.09 349.465L169.602 349.335L169.694 348.894Z" fill="#4779A8"/>
<path d="M157.196 321.405C157.362 321.429 157.532 321.389 157.669 321.293C157.807 321.197 157.902 321.051 157.936 320.887L158.384 320.892L158.295 325.129L157.628 325.118L157.685 321.881L157.165 321.872L157.196 321.405Z" fill="#4779A8"/>
<path d="M166.371 335.752C166.519 335.834 166.692 335.857 166.856 335.815C167.02 335.773 167.161 335.671 167.252 335.528L167.667 335.696L166.09 339.629L165.47 339.385L166.677 336.383L166.205 336.194L166.371 335.752Z" fill="#4779A8"/>
<path d="M163.437 320.552C163.612 320.548 163.778 320.477 163.9 320.351C164.021 320.227 164.089 320.059 164.087 319.884L164.53 319.809L165.239 323.994L164.582 324.106L164.026 320.913L163.516 321.002L163.437 320.552Z" fill="#4779A8"/>
<path d="M154.564 330.429C154.584 330.297 154.629 330.17 154.698 330.056C154.767 329.942 154.858 329.842 154.965 329.763C155.073 329.684 155.195 329.626 155.324 329.594C155.454 329.562 155.588 329.556 155.72 329.576C155.853 329.596 155.979 329.642 156.094 329.71C156.208 329.779 156.308 329.87 156.387 329.978C156.466 330.085 156.523 330.207 156.555 330.337C156.588 330.466 156.594 330.6 156.574 330.733L156.246 332.914C156.226 333.046 156.18 333.172 156.111 333.287C156.042 333.401 155.951 333.501 155.844 333.58C155.737 333.66 155.615 333.717 155.485 333.749C155.355 333.781 155.221 333.787 155.089 333.767C154.957 333.747 154.83 333.702 154.716 333.633C154.602 333.564 154.502 333.473 154.423 333.366C154.343 333.258 154.286 333.136 154.254 333.007C154.222 332.877 154.216 332.743 154.235 332.611L154.564 330.429ZM154.888 332.749C154.844 333.051 154.96 333.186 155.166 333.215C155.373 333.245 155.527 333.155 155.572 332.854L155.911 330.592C155.955 330.29 155.84 330.154 155.633 330.125C155.427 330.096 155.272 330.185 155.228 330.487L154.888 332.749Z" fill="#4779A8"/>
<path d="M153.362 338.447C153.381 338.314 153.427 338.188 153.496 338.074C153.565 337.959 153.656 337.86 153.764 337.78C153.871 337.701 153.993 337.644 154.122 337.612C154.252 337.58 154.386 337.574 154.518 337.593C154.651 337.613 154.777 337.659 154.891 337.728C155.006 337.796 155.105 337.887 155.185 337.995C155.264 338.103 155.321 338.224 155.354 338.354C155.385 338.483 155.392 338.618 155.372 338.75L155.045 340.926C155.025 341.059 154.98 341.186 154.911 341.3C154.843 341.414 154.752 341.515 154.645 341.594C154.537 341.673 154.416 341.731 154.286 341.764C154.157 341.796 154.022 341.803 153.89 341.783C153.758 341.763 153.631 341.718 153.516 341.649C153.402 341.581 153.302 341.49 153.222 341.383C153.143 341.276 153.086 341.154 153.053 341.024C153.021 340.895 153.014 340.76 153.033 340.628L153.362 338.447ZM153.687 340.766C153.642 341.068 153.759 341.199 153.964 341.233C154.169 341.267 154.327 341.168 154.37 340.871L154.71 338.604C154.753 338.307 154.643 338.173 154.431 338.142C154.22 338.112 154.07 338.203 154.026 338.504L153.687 340.766Z" fill="#4779A8"/>
<path d="M157.278 346.624C157.302 346.492 157.35 346.367 157.422 346.255C157.494 346.143 157.587 346.047 157.697 345.97C157.806 345.894 157.929 345.841 158.059 345.812C158.189 345.783 158.323 345.781 158.454 345.804C158.586 345.828 158.711 345.876 158.823 345.948C158.935 346.02 159.032 346.114 159.108 346.223C159.184 346.332 159.238 346.455 159.266 346.585C159.295 346.715 159.297 346.849 159.274 346.981L158.891 349.152C158.867 349.284 158.818 349.409 158.746 349.521C158.674 349.633 158.581 349.73 158.472 349.806C158.363 349.882 158.24 349.936 158.109 349.964C157.979 349.993 157.845 349.995 157.714 349.972C157.583 349.948 157.458 349.899 157.346 349.828C157.234 349.756 157.137 349.662 157.061 349.554C156.985 349.444 156.931 349.321 156.902 349.191C156.874 349.061 156.871 348.927 156.895 348.795L157.278 346.624ZM157.543 348.953C157.489 349.253 157.604 349.388 157.808 349.427C158.012 349.466 158.168 349.372 158.222 349.073L158.621 346.821C158.699 346.529 158.565 346.388 158.356 346.348C158.147 346.307 157.996 346.403 157.942 346.702L157.543 348.953Z" fill="#4779A8"/>
<path d="M153.545 322.153C153.537 322.02 153.556 321.888 153.6 321.762C153.643 321.637 153.711 321.521 153.799 321.422C153.887 321.323 153.994 321.242 154.114 321.184C154.233 321.126 154.363 321.093 154.495 321.085C154.628 321.077 154.761 321.095 154.886 321.139C155.012 321.182 155.127 321.25 155.226 321.338C155.326 321.427 155.407 321.534 155.464 321.653C155.522 321.773 155.556 321.902 155.564 322.035L155.691 324.234C155.699 324.366 155.68 324.499 155.637 324.624C155.593 324.75 155.525 324.865 155.437 324.965C155.349 325.064 155.242 325.144 155.122 325.202C155.003 325.26 154.873 325.294 154.741 325.302C154.608 325.31 154.475 325.291 154.35 325.247C154.225 325.204 154.109 325.136 154.01 325.048C153.91 324.96 153.83 324.853 153.772 324.733C153.714 324.614 153.68 324.484 153.672 324.352L153.545 322.153ZM154.34 324.358C154.358 324.661 154.497 324.766 154.709 324.755C154.921 324.744 155.05 324.616 155.03 324.318L154.895 322.033C154.877 321.731 154.738 321.625 154.525 321.636C154.313 321.648 154.186 321.77 154.204 322.073L154.34 324.358Z" fill="#4779A8"/>
<path d="M164.353 329.409C164.338 329.141 164.429 328.877 164.609 328.677C164.787 328.476 165.038 328.354 165.307 328.339C165.575 328.323 165.838 328.415 166.039 328.594C166.24 328.773 166.361 329.024 166.377 329.292L166.504 331.491C166.519 331.759 166.428 332.022 166.25 332.222C166.072 332.422 165.821 332.544 165.554 332.559C165.286 332.575 165.023 332.483 164.823 332.305C164.623 332.127 164.501 331.877 164.485 331.609L164.353 329.409ZM165.153 331.615C165.171 331.918 165.31 332.023 165.522 332.012C165.734 332.001 165.863 331.873 165.843 331.575L165.709 329.286C165.691 328.983 165.552 328.878 165.34 328.889C165.128 328.9 164.999 329.028 165.019 329.326L165.153 331.615Z" fill="#4779A8"/>
<path d="M158.91 326.775C158.957 326.65 159.027 326.535 159.118 326.438C159.209 326.34 159.318 326.261 159.439 326.206C159.56 326.15 159.691 326.12 159.824 326.115C159.957 326.11 160.09 326.131 160.215 326.178C160.34 326.225 160.455 326.295 160.552 326.386C160.65 326.476 160.728 326.586 160.784 326.707C160.839 326.828 160.87 326.959 160.875 327.092C160.88 327.225 160.858 327.358 160.812 327.483L160.049 329.548C160.003 329.673 159.933 329.788 159.842 329.885C159.752 329.983 159.643 330.062 159.522 330.118C159.401 330.174 159.27 330.205 159.137 330.21C159.004 330.215 158.871 330.194 158.746 330.148C158.621 330.102 158.507 330.031 158.409 329.941C158.311 329.85 158.232 329.741 158.177 329.62C158.121 329.499 158.089 329.368 158.084 329.235C158.079 329.102 158.1 328.97 158.146 328.845L158.91 326.775ZM158.753 329.117C158.652 329.398 158.735 329.557 158.936 329.626C159.137 329.696 159.298 329.64 159.406 329.355L160.195 327.208C160.303 326.923 160.219 326.77 160.019 326.695C159.819 326.621 159.655 326.687 159.549 326.967L158.753 329.117Z" fill="#4779A8"/>
<path d="M158.77 318.575C158.695 318.455 158.645 318.32 158.624 318.18C158.605 318.039 158.614 317.896 158.653 317.76C158.692 317.623 158.759 317.496 158.85 317.388C158.941 317.279 159.054 317.19 159.181 317.128C159.309 317.066 159.448 317.031 159.59 317.027C159.732 317.022 159.873 317.047 160.004 317.1C160.136 317.153 160.255 317.234 160.353 317.336C160.451 317.438 160.527 317.56 160.575 317.694L161.526 319.685C161.602 319.805 161.651 319.939 161.672 320.08C161.692 320.22 161.682 320.363 161.644 320.5C161.605 320.636 161.538 320.763 161.447 320.872C161.356 320.981 161.243 321.069 161.115 321.131C160.988 321.193 160.849 321.228 160.707 321.233C160.565 321.238 160.423 321.213 160.292 321.159C160.161 321.106 160.042 321.026 159.944 320.923C159.846 320.821 159.769 320.699 159.722 320.566L158.77 318.575ZM160.343 320.314C160.473 320.589 160.644 320.635 160.837 320.54C161.03 320.446 161.097 320.291 160.977 320.018L159.987 317.955C159.852 317.678 159.686 317.633 159.494 317.728C159.301 317.823 159.233 317.977 159.354 318.25L160.343 320.314Z" fill="#4779A8"/>
<path d="M159.589 337.648C159.658 337.389 159.827 337.168 160.059 337.034C160.291 336.9 160.567 336.864 160.826 336.933C161.084 337.003 161.305 337.172 161.439 337.404C161.573 337.636 161.609 337.912 161.54 338.17L160.969 340.302C160.9 340.561 160.73 340.782 160.498 340.915C160.266 341.049 159.99 341.086 159.732 341.017C159.473 340.947 159.252 340.778 159.118 340.546C158.985 340.314 158.948 340.038 159.017 339.779L159.589 337.648ZM159.646 339.99C159.568 340.282 159.669 340.43 159.874 340.485C160.079 340.54 160.236 340.461 160.314 340.169L160.907 337.959C160.985 337.666 160.888 337.52 160.683 337.465C160.478 337.41 160.317 337.487 160.238 337.78L159.646 339.99Z" fill="#4779A8"/>
<path d="M163.153 341.071C163.222 340.813 163.391 340.592 163.623 340.458C163.855 340.324 164.131 340.288 164.39 340.357C164.649 340.427 164.869 340.596 165.003 340.828C165.137 341.06 165.173 341.336 165.104 341.594L164.534 343.721C164.465 343.98 164.295 344.201 164.063 344.334C163.831 344.468 163.556 344.505 163.297 344.436C163.038 344.366 162.818 344.197 162.684 343.965C162.55 343.733 162.513 343.457 162.583 343.198L163.153 341.071ZM163.215 343.415C163.136 343.708 163.233 343.854 163.438 343.909C163.643 343.964 163.8 343.885 163.878 343.593L164.471 341.383C164.549 341.09 164.452 340.944 164.247 340.889C164.042 340.834 163.885 340.912 163.807 341.205L163.215 343.415Z" fill="#4779A8"/>
<path d="M165.72 348.917C165.789 348.659 165.958 348.438 166.19 348.304C166.422 348.17 166.698 348.134 166.957 348.203C167.215 348.272 167.436 348.442 167.57 348.674C167.704 348.906 167.74 349.181 167.671 349.44L167.1 351.572C167.03 351.83 166.861 352.051 166.629 352.185C166.397 352.319 166.121 352.355 165.863 352.286C165.604 352.217 165.383 352.047 165.249 351.815C165.115 351.583 165.079 351.308 165.148 351.049L165.72 348.917ZM165.782 351.261C165.703 351.553 165.805 351.701 166.01 351.756C166.215 351.811 166.372 351.732 166.45 351.44L167.042 349.23C167.121 348.937 167.024 348.791 166.819 348.736C166.614 348.681 166.452 348.758 166.374 349.051L165.782 351.261Z" fill="#4779A8"/>
<path d="M149.508 342.759C149.582 342.648 149.676 342.553 149.787 342.479C149.896 342.405 150.02 342.353 150.15 342.326C150.281 342.3 150.415 342.299 150.545 342.324C150.676 342.35 150.8 342.4 150.911 342.474C151.021 342.547 151.117 342.641 151.191 342.751C151.265 342.861 151.317 342.985 151.344 343.115C151.37 343.246 151.371 343.38 151.346 343.51C151.32 343.641 151.269 343.765 151.196 343.876L149.977 345.714C149.904 345.824 149.809 345.92 149.699 345.994C149.589 346.068 149.465 346.12 149.335 346.147C149.205 346.173 149.071 346.174 148.94 346.149C148.81 346.124 148.686 346.072 148.575 345.999C148.464 345.926 148.369 345.832 148.294 345.721C148.22 345.612 148.168 345.488 148.142 345.357C148.115 345.227 148.114 345.093 148.14 344.963C148.165 344.832 148.216 344.708 148.289 344.597L149.508 342.759ZM148.824 345.002C148.657 345.255 148.71 345.426 148.879 345.54C149.047 345.653 149.23 345.634 149.397 345.38L150.662 343.471C150.827 343.223 150.774 343.051 150.607 342.933C150.44 342.815 150.256 342.839 150.088 343.093L148.824 345.002Z" fill="#4779A8"/>
<path d="M98.4971 372.947L102.775 422.391L107.585 423.68L103.307 374.236L98.4971 372.947Z" fill="#757575" stroke="#263238" stroke-linecap="round" stroke-linejoin="round"/>
<path d="M102.931 390.022L130.65 397.449L131.407 394.625L103.688 387.197L102.931 390.022Z" fill="#757575" stroke="#263238" stroke-linecap="round" stroke-linejoin="round"/>
<path d="M103.922 402.364L131.641 409.791L132.398 406.966L104.679 399.539L103.922 402.364Z" fill="#757575" stroke="#263238" stroke-linecap="round" stroke-linejoin="round"/>
<path d="M104.907 414.707L132.626 422.135L133.383 419.31L105.664 411.883L104.907 414.707Z" fill="#757575" stroke="#263238" stroke-linecap="round" stroke-linejoin="round"/>
<path d="M126.548 380.465L130.826 429.908L135.636 431.197L131.358 381.754L126.548 380.465Z" fill="#757575" stroke="#263238" stroke-linecap="round" stroke-linejoin="round"/>
<path d="M96.8189 372.499L68.3921 413.179L63.5819 411.89L92.0087 371.21L96.8189 372.499Z" fill="#BFBFBF" stroke="#263238" stroke-linecap="round" stroke-linejoin="round"/>
<path d="M113.245 389.757L85.5259 382.33L84.769 385.155L112.488 392.582L113.245 389.757Z" fill="#999999" stroke="#263238" stroke-linecap="round" stroke-linejoin="round"/>
<path d="M106.22 399.953L78.501 392.525L77.7441 395.35L105.463 402.777L106.22 399.953Z" fill="#999999" stroke="#263238" stroke-linecap="round" stroke-linejoin="round"/>
<path d="M99.1957 410.15L71.4766 402.723L70.7197 405.547L98.4389 412.975L99.1957 410.15Z" fill="#999999" stroke="#263238" stroke-linecap="round" stroke-linejoin="round"/>
<path d="M124.87 380.014L96.4429 420.694L91.6327 419.406L120.059 378.725L124.87 380.014Z" fill="#BFBFBF" stroke="#263238" stroke-linecap="round" stroke-linejoin="round"/>
<path d="M135.494 380.33L89.3096 367.955L87.8795 373.292L134.063 385.667L135.494 380.33Z" fill="#4779A8" stroke="#263238" stroke-linecap="round" stroke-linejoin="round"/>
<path d="M138.767 381.207L86.0361 367.078L85.5342 368.951L138.265 383.081L138.767 381.207Z" fill="#4779A8" stroke="#263238" stroke-linecap="round" stroke-linejoin="round"/>
<path d="M302.289 209.99L106.177 157.441L100.687 177.931L296.799 230.479L302.289 209.99Z" fill="#4779A8"/>
<path d="M117.82 106.184L385.157 177.816L372.739 224.161L105.402 152.529L117.82 106.184Z" fill="#4779A8"/>
<path d="M305.151 156.377L186.118 124.482L179.713 148.387L298.746 180.282L305.151 156.377Z" fill="#4779A8"/>
<path d="M357.875 248.413L99.8071 179.264L95.1013 196.826L353.169 265.975L357.875 248.413Z" fill="white"/>
<path d="M119.009 127.416L122.577 128.372L125.902 115.963L130.457 117.183L131.323 113.952L118.622 110.548L117.756 113.78L122.334 115.007L119.009 127.416ZM128.606 129.988L132.129 130.932L133.861 124.469L139.942 126.098L138.21 132.561L141.734 133.505L145.925 117.864L142.402 116.92L140.808 122.867L134.727 121.237L136.32 115.291L132.797 114.347L128.606 129.988ZM144.91 134.357L155.412 137.171L156.278 133.939L149.299 132.069L150.165 128.838L156.808 130.617L157.679 127.364L151.037 125.584L151.759 122.891L158.738 124.761L159.604 121.529L149.101 118.715L144.91 134.357ZM166.677 140.189L170.066 141.097L175.559 132.804L176.147 142.726L179.558 143.64L188.552 129.286L184.849 128.294L179.128 137.705L178.537 127.613L175.553 126.813L170.04 135.269L169.769 124.253L166.088 123.267L166.677 140.189ZM191.678 147.321C196.211 148.535 200.23 146.101 201.553 141.164C202.882 136.204 200.663 132.098 196.085 130.872C191.552 129.657 187.549 132.12 186.226 137.057C184.909 141.972 187.145 146.106 191.678 147.321ZM192.58 143.955C190.066 143.281 188.938 141.031 189.749 138.001C190.567 134.949 192.67 133.564 195.183 134.238C197.719 134.917 198.813 137.207 198.008 140.214C197.208 143.198 195.115 144.634 192.58 143.955ZM213.926 152.849L211.51 145.082C213.446 144.856 214.802 143.656 215.397 141.434C216.143 138.651 215.155 136.414 211.205 135.356L205.707 133.883L201.516 149.524L205.017 150.462L206.683 144.246L207.019 144.336L207.895 144.571L209.842 151.755L213.926 152.849ZM207.549 141.015L208.342 138.052L209.981 138.491C211.08 138.786 212.247 139.099 211.862 140.535C211.471 141.994 210.309 141.754 209.187 141.454L207.549 141.015ZM215.3 153.217L225.242 155.881L226.107 152.65L219.689 150.93L223.015 138.52L219.491 137.576L215.3 153.217ZM226.718 156.277L231.408 157.534C236.749 158.965 240.394 157.031 241.729 152.049C243.088 146.978 240.851 143.299 235.622 141.898L230.909 140.636L226.718 156.277ZM231.107 153.989L233.567 144.811L234.689 145.112C237.628 145.9 239.194 147.329 238.219 150.965C237.209 154.735 235.102 155.06 231.915 154.206L231.107 153.989ZM243.633 150.683L245.832 151.273L250.252 145.819L246.325 144.766L243.633 150.683ZM252.533 163.555C255.72 164.409 258.747 162.983 259.577 159.886C260.172 157.665 259.396 156.254 256.378 154.05C254.369 152.574 253.907 151.873 254.112 151.11C254.31 150.369 255.122 150.034 255.93 150.25C256.827 150.491 257.434 151.279 257.598 152.549L261.003 151.513C260.534 149.223 259.054 147.744 256.878 147.161C253.803 146.337 251.268 147.63 250.571 150.233C249.927 152.634 250.808 154.193 253.791 156.436C255.611 157.813 256.185 158.544 255.992 159.262C255.673 160.452 254.581 160.76 253.436 160.453C251.865 160.033 250.972 158.879 251.308 156.997L247.572 156.934C247.244 160.045 249.279 162.683 252.533 163.555ZM265.573 166.688L275.514 169.352L276.38 166.12L269.962 164.401L273.287 151.991L269.764 151.047L265.573 166.688ZM287.871 172.663L291.709 173.691L289.414 156.312L286.834 155.621L276.135 169.518L279.972 170.546L281.691 168.169L287.571 169.744L287.871 172.663ZM283.792 165.268L286.728 161.22L287.225 166.188L283.792 165.268ZM305.376 177.353L302.96 169.586C304.897 169.36 306.252 168.16 306.848 165.938C307.593 163.155 306.605 160.918 302.656 159.86L297.158 158.387L292.967 174.028L296.467 174.966L298.133 168.75L298.47 168.84L299.345 169.075L301.292 176.259L305.376 177.353ZM298.999 165.519L299.793 162.556L301.431 162.995C302.53 163.29 303.697 163.603 303.312 165.039C302.922 166.498 301.759 166.258 300.637 165.958L298.999 165.519ZM315.992 170.89L315.15 174.031L318.494 174.927L318.434 175.152C318.103 176.386 316.658 177.201 314.324 176.576C311.699 175.873 310.199 173.931 311.107 170.543C311.972 167.311 314.157 166.069 316.716 166.754C318.511 167.235 319.825 168.525 319.972 170.489L323.569 170.082C323.193 166.638 320.782 164.236 317.662 163.4C313.062 162.167 308.858 164.841 307.553 169.711C306.303 174.379 308.373 178.589 313.131 179.864C315.061 180.381 316.804 180.247 318.13 179.159L318.131 180.771L320.555 181.42L322.882 172.736L315.992 170.89ZM323.209 182.131L333.711 184.946L334.577 181.714L327.598 179.844L328.464 176.613L335.106 178.392L335.978 175.139L329.336 173.359L330.057 170.666L337.036 172.536L337.902 169.304L327.4 166.49L323.209 182.131ZM341.156 187.301C344.343 188.155 347.37 186.73 348.2 183.633C348.796 181.411 348.019 180 345.002 177.797C342.992 176.32 342.53 175.619 342.735 174.857C342.933 174.116 343.745 173.78 344.553 173.997C345.45 174.237 346.057 175.025 346.222 176.296L349.626 175.26C349.157 172.97 347.677 171.491 345.501 170.907C342.426 170.084 339.891 171.377 339.194 173.98C338.55 176.381 339.431 177.94 342.414 180.182C344.234 181.56 344.808 182.291 344.615 183.009C344.297 184.198 343.204 184.507 342.059 184.2C340.488 183.779 339.595 182.626 339.931 180.743L336.196 180.681C335.867 183.792 337.902 186.429 341.156 187.301ZM351.568 189.73L355.136 190.686L358.461 178.277L363.017 179.497L363.883 176.266L351.181 172.863L350.315 176.094L354.893 177.321L351.568 189.73ZM112.865 150.345L116.433 151.301L119.758 138.891L124.314 140.112L125.18 136.88L112.478 133.477L111.612 136.708L116.19 137.935L112.865 150.345ZM122.462 152.916L132.964 155.73L133.83 152.499L126.851 150.629L127.717 147.397L134.36 149.177L135.231 145.923L128.589 144.144L129.311 141.451L136.29 143.321L137.155 140.089L126.653 137.275L122.462 152.916ZM142.389 158.689C145.867 159.621 148.956 158.596 150.891 155.772L147.929 153.631C146.903 155.304 145.243 155.846 143.291 155.322C140.575 154.595 139.412 152.383 140.248 149.264C141.084 146.145 143.146 144.821 145.839 145.543C147.747 146.054 148.965 147.342 149.096 149.277L152.692 148.87C152.341 145.601 150.242 143.115 146.741 142.177C142.051 140.92 138.054 143.36 136.713 148.365C135.384 153.324 137.654 157.42 142.389 158.689ZM151.389 160.667L154.913 161.611L156.644 155.148L162.726 156.778L160.994 163.241L164.517 164.185L168.708 148.544L165.185 147.6L163.592 153.547L157.51 151.917L159.104 145.97L155.58 145.026L151.389 160.667ZM181.378 151.938L178.822 161.476L175.476 150.357L171.885 149.395L167.694 165.036L171.217 165.98L173.785 156.398L177.097 167.556L180.71 168.524L184.901 152.883L181.378 151.938ZM190.311 171.529C194.844 172.744 198.864 170.309 200.187 165.373C201.516 160.413 199.297 156.307 194.719 155.08C190.186 153.866 186.183 156.329 184.86 161.266C183.543 166.18 185.778 170.315 190.311 171.529ZM191.213 168.163C188.7 167.49 187.571 165.239 188.383 162.21C189.201 159.158 191.304 157.773 193.817 158.446C196.353 159.126 197.447 161.415 196.641 164.422C195.842 167.407 193.749 168.843 191.213 168.163ZM200.15 173.733L210.091 176.396L210.957 173.165L204.539 171.445L207.864 159.036L204.341 158.092L200.15 173.733ZM217.464 178.805C221.997 180.019 226.016 177.585 227.339 172.648C228.668 167.689 226.449 163.582 221.871 162.356C217.338 161.141 213.335 163.604 212.012 168.541C210.695 173.456 212.931 177.59 217.464 178.805ZM218.366 175.439C215.852 174.765 214.724 172.515 215.535 169.485C216.353 166.433 218.456 165.048 220.969 165.722C223.505 166.401 224.599 168.691 223.794 171.698C222.994 174.683 220.901 176.118 218.366 175.439ZM236.653 174.206L235.812 177.347L239.155 178.243L239.095 178.468C238.764 179.702 237.319 180.517 234.985 179.892C232.36 179.188 230.86 177.247 231.768 173.859C232.634 170.627 234.818 169.385 237.377 170.07C239.172 170.551 240.486 171.841 240.633 173.805L244.23 173.398C243.854 169.954 241.443 167.552 238.323 166.716C233.723 165.483 229.519 168.157 228.214 173.027C226.964 177.694 229.034 181.905 233.792 183.18C235.722 183.697 237.465 183.563 238.791 182.475L238.792 184.087L241.216 184.736L243.543 176.052L236.653 174.206ZM246.984 186.282L250.508 187.226L252.161 181.055L260.556 173.154L256.404 172.042L251.229 177.173L249.403 170.166L245.251 169.053L248.638 180.111L246.984 186.282ZM269.604 192.776C273.083 193.708 276.171 192.683 278.106 189.859L275.144 187.718C274.119 189.392 272.458 189.933 270.506 189.41C267.791 188.682 266.628 186.47 267.463 183.351C268.299 180.232 270.362 178.908 273.054 179.63C274.962 180.141 276.18 181.43 276.311 183.365L279.908 182.957C279.557 179.689 277.457 177.202 273.956 176.264C269.266 175.007 265.269 177.448 263.928 182.452C262.599 187.411 264.869 191.507 269.604 192.776ZM284.873 196.867C289.406 198.082 293.426 195.647 294.749 190.71C296.077 185.751 293.859 181.645 289.281 180.418C284.748 179.203 280.744 181.666 279.422 186.603C278.105 191.518 280.34 195.652 284.873 196.867ZM285.775 193.501C283.262 192.828 282.133 190.577 282.945 187.547C283.763 184.496 285.865 183.111 288.379 183.784C290.915 184.464 292.009 186.753 291.203 189.76C290.403 192.745 288.311 194.18 285.775 193.501ZM310.684 186.586L304.592 195.681L303.93 184.776L298.903 183.429L294.712 199.07L298.235 200.014L301.055 189.49L301.8 199.455L305.189 200.363L310.829 192.061L307.997 202.63L311.52 203.574L315.711 187.933L310.684 186.586ZM314.698 204.426L318.199 205.364L319.883 199.08L321.88 199.616C325.448 200.572 327.749 199.433 328.585 196.313C329.415 193.216 328 191.226 324.387 190.258L318.889 188.785L314.698 204.426ZM320.748 195.849L321.524 192.954L323.162 193.393C324.711 193.808 325.369 194.225 325.05 195.414C324.713 196.671 323.823 196.673 322.387 196.288L320.748 195.849ZM335.857 210.095L339.694 211.123L337.4 193.745L334.819 193.053L324.12 206.95L327.958 207.979L329.677 205.601L335.557 207.177L335.857 210.095ZM331.777 202.701L334.714 198.653L335.211 203.62L331.777 202.701ZM354.636 198.363L352.08 207.9L348.734 196.781L345.143 195.819L340.952 211.461L344.476 212.405L347.043 202.822L350.355 213.98L353.968 214.948L358.159 199.307L354.636 198.363ZM361.007 216.834L364.53 217.778L366.184 211.607L374.578 203.706L370.427 202.594L365.252 207.725L363.425 200.718L359.274 199.606L362.661 210.663L361.007 216.834Z" fill="black"/>
<path d="M110.168 178.14C113.259 178.968 115.286 177.798 116.137 174.619L118.208 166.892L116.013 166.304L113.984 173.873C113.434 175.928 112.547 176.5 110.738 176.015C108.929 175.53 108.459 174.614 109.014 172.541L111.043 164.972L108.847 164.384L106.753 172.199C105.916 175.325 107.095 177.316 110.168 178.14ZM121.218 181.063C123.73 181.736 125.873 180.692 126.485 178.409C126.951 176.67 126.34 175.508 123.991 173.806C122.34 172.592 121.865 171.975 122.082 171.168C122.284 170.412 123.107 170.012 123.985 170.247C124.81 170.468 125.399 171.153 125.575 172.179L127.703 171.544C127.326 169.862 126.228 168.759 124.577 168.316C122.294 167.705 120.404 168.648 119.872 170.632C119.397 172.406 120.061 173.581 122.357 175.269C123.973 176.474 124.464 177.171 124.238 178.013C123.96 179.05 123.005 179.453 121.776 179.123C120.353 178.742 119.609 177.658 119.841 176.158L117.518 176.119C117.271 178.443 118.777 180.409 121.218 181.063ZM127.56 182.518L135.709 184.701L136.25 182.682L130.297 181.086L131.172 177.82L136.704 179.302L137.245 177.282L131.713 175.8L132.494 172.885L138.448 174.48L138.989 172.46L130.84 170.277L127.56 182.518ZM141.731 186.559C144.242 187.232 146.386 186.188 146.997 183.905C147.463 182.166 146.852 181.005 144.504 179.303C142.852 178.088 142.378 177.472 142.594 176.664C142.796 175.909 143.619 175.508 144.497 175.743C145.323 175.964 145.911 176.649 146.088 177.675L148.215 177.041C147.838 175.358 146.741 174.255 145.09 173.813C142.807 173.201 140.916 174.144 140.385 176.128C139.909 177.902 140.573 179.078 142.869 180.766C144.485 181.97 144.976 182.667 144.75 183.51C144.473 184.546 143.518 184.949 142.288 184.619C140.866 184.238 140.121 183.154 140.353 181.654L138.03 181.615C137.783 183.939 139.29 185.905 141.731 186.559ZM155.794 190.328C158.306 191.001 160.449 189.956 161.061 187.673C161.527 185.934 160.916 184.773 158.567 183.071C156.916 181.857 156.441 181.24 156.658 180.432C156.86 179.677 157.683 179.276 158.561 179.512C159.386 179.733 159.974 180.417 160.151 181.444L162.279 180.809C161.901 179.127 160.804 178.023 159.153 177.581C156.87 176.969 154.98 177.912 154.448 179.897C153.973 181.67 154.637 182.846 156.933 184.534C158.549 185.739 159.04 186.435 158.814 187.278C158.536 188.314 157.581 188.717 156.352 188.388C154.929 188.007 154.184 186.922 154.417 185.422L152.093 185.383C151.847 187.708 153.353 189.674 155.794 190.328ZM164.525 192.423L166.738 193.015L169.477 182.794L173.306 183.82L173.847 181.8L163.977 179.156L163.436 181.175L167.264 182.201L164.525 192.423ZM178.658 196.209L181.047 196.849L179.444 183.3L177.793 182.858L169.614 193.786L172.002 194.426L173.61 192.146L178.405 193.431L178.658 196.209ZM174.907 190.329L177.753 186.311L178.209 191.214L174.907 190.329ZM191.868 199.749L189.997 193.525C191.586 193.424 192.695 192.517 193.166 190.76C193.754 188.565 192.865 186.896 189.949 186.115L185.945 185.042L182.665 197.283L184.843 197.867L186.203 192.791L187.011 193.008L187.748 193.205L189.321 199.067L191.868 199.749ZM186.744 190.771L187.582 187.645L189.18 188.074C190.602 188.455 191.281 189.013 190.961 190.207C190.641 191.402 189.765 191.581 188.342 191.2L186.744 190.771ZM196.014 200.86L198.227 201.453L200.966 191.232L204.794 192.257L205.335 190.238L195.465 187.593L194.924 189.613L198.753 190.639L196.014 200.86ZM208.014 204.075L210.209 204.663L211.626 199.377L217.333 200.907L217.875 198.887L212.167 197.358L212.948 194.442L219.429 196.179L219.97 194.159L211.294 191.834L208.014 204.075ZM223.479 208.501C226.956 209.433 230.009 207.522 231.035 203.693C232.066 199.847 230.395 196.67 226.9 195.734C223.423 194.802 220.369 196.713 219.339 200.559C218.313 204.388 220.001 207.57 223.479 208.501ZM224.039 206.411C221.808 205.814 220.823 203.799 221.534 201.147C222.249 198.478 224.109 197.226 226.34 197.824C228.57 198.421 229.55 200.453 228.84 203.105C228.134 205.739 226.269 207.009 224.039 206.411ZM240.833 212.869L238.962 206.645C240.551 206.544 241.66 205.637 242.131 203.881C242.719 201.685 241.83 200.016 238.915 199.235L234.91 198.162L231.63 210.403L233.808 210.987L235.168 205.911L235.976 206.128L236.714 206.325L238.286 212.187L240.833 212.869ZM235.709 203.892L236.547 200.766L238.145 201.194C239.568 201.575 240.246 202.133 239.926 203.327C239.606 204.522 238.73 204.701 237.307 204.32L235.709 203.892ZM249.25 215.124L251.463 215.717L254.201 205.496L258.03 206.522L258.571 204.502L248.701 201.858L248.16 203.877L251.989 204.903L249.25 215.124ZM256.979 217.195L259.174 217.784L260.591 212.497L265.947 213.933L264.531 219.219L266.726 219.807L270.006 207.566L267.811 206.978L266.489 211.913L261.132 210.478L262.454 205.543L260.259 204.955L256.979 217.195ZM269.825 220.637L277.974 222.821L278.515 220.801L272.561 219.206L273.437 215.939L278.969 217.422L279.51 215.402L273.978 213.92L274.759 211.004L280.713 212.6L281.254 210.58L273.105 208.397L269.825 220.637ZM280.544 223.51L282.74 224.098L286.02 211.857L283.824 211.269L280.544 223.51ZM295.029 227.391L293.158 221.167C294.748 221.066 295.857 220.159 296.327 218.402C296.915 216.207 296.026 214.538 293.111 213.757L289.107 212.684L285.827 224.925L288.004 225.509L289.364 220.433L290.172 220.65L290.91 220.847L292.483 226.709L295.029 227.391ZM289.906 218.413L290.743 215.287L292.341 215.716C293.764 216.097 294.442 216.655 294.122 217.849C293.802 219.044 292.926 219.223 291.504 218.842L289.906 218.413ZM111.66 185.006L106.056 192.785L105.074 183.242L102.651 182.592L104.271 196.146L105.921 196.589L114.084 185.656L111.66 185.006ZM112.423 198.331L120.572 200.514L121.113 198.494L115.159 196.899L116.034 193.633L121.567 195.115L122.108 193.095L116.576 191.613L117.357 188.698L123.31 190.293L123.852 188.273L115.703 186.09L112.423 198.331ZM133.833 190.948L131.574 199.378L128.687 189.569L126.422 188.962L123.142 201.203L125.337 201.791L127.605 193.326L130.465 203.165L132.748 203.777L136.028 191.536L133.833 190.948ZM135.833 204.603L139.363 205.549C143.508 206.66 146.326 205.137 147.37 201.238C148.434 197.269 146.718 194.4 142.661 193.313L139.113 192.363L135.833 204.603ZM138.57 203.172L140.768 194.97L142.085 195.323C144.982 196.1 145.939 197.73 145.181 200.558C144.409 203.438 142.785 204.301 139.694 203.473L138.57 203.172ZM152.893 209.457C156.37 210.389 159.424 208.477 160.449 204.649C161.48 200.803 159.809 197.626 156.314 196.689C152.837 195.757 149.783 197.669 148.753 201.515C147.727 205.343 149.416 208.525 152.893 209.457ZM153.453 207.367C151.223 206.769 150.238 204.755 150.948 202.103C151.663 199.434 153.524 198.181 155.754 198.779C157.984 199.377 158.965 201.409 158.254 204.061C157.548 206.695 155.683 207.965 153.453 207.367ZM170.247 213.825L168.376 207.601C169.966 207.5 171.075 206.592 171.545 204.836C172.133 202.641 171.244 200.972 168.329 200.191L164.325 199.118L161.045 211.359L163.222 211.942L164.582 206.867L165.39 207.083L166.128 207.281L167.701 213.142L170.247 213.825ZM165.123 204.847L165.961 201.721L167.559 202.149C168.982 202.53 169.66 203.089 169.34 204.283C169.02 205.477 168.144 205.657 166.722 205.275L165.123 204.847ZM185.443 217.896L183.572 211.673C185.161 211.572 186.27 210.664 186.741 208.908C187.329 206.713 186.44 205.044 183.525 204.262L179.52 203.19L176.24 215.43L178.418 216.014L179.778 210.938L180.586 211.155L181.324 211.353L182.896 217.214L185.443 217.896ZM180.319 208.919L181.157 205.793L182.755 206.221C184.178 206.602 184.856 207.16 184.536 208.355C184.216 209.549 183.34 209.728 181.917 209.347L180.319 208.919ZM187.165 218.358L189.36 218.946L192.64 206.705L190.445 206.117L187.165 218.358ZM195.899 220.943C198.411 221.616 200.554 220.571 201.166 218.288C201.632 216.549 201.02 215.388 198.672 213.686C197.021 212.472 196.546 211.855 196.763 211.047C196.965 210.292 197.788 209.891 198.666 210.127C199.491 210.348 200.079 211.032 200.256 212.059L202.384 211.424C202.006 209.742 200.909 208.638 199.258 208.196C196.975 207.584 195.085 208.527 194.553 210.512C194.078 212.285 194.742 213.461 197.038 215.149C198.653 216.354 199.145 217.05 198.919 217.893C198.641 218.929 197.686 219.332 196.457 219.003C195.034 218.622 194.289 217.537 194.522 216.037L192.198 215.998C191.952 218.323 193.458 220.289 195.899 220.943ZM212.936 225.263L210.302 216.407L216.093 212.989L213.213 212.218L206.173 216.505L207.716 210.745L205.521 210.156L202.241 222.397L204.436 222.986L205.434 219.262L208.405 217.517L210.39 224.581L212.936 225.263ZM231.605 217.146L226.133 224.922L225.3 215.456L222.157 214.614L218.877 226.855L221.072 227.443L223.524 218.293L224.397 227.186L226.522 227.755L231.725 220.491L229.274 229.641L231.469 230.229L234.749 217.988L231.605 217.146ZM242.122 233.083L244.51 233.723L242.908 220.174L241.257 219.732L233.077 230.66L235.466 231.3L237.074 229.02L241.869 230.305L242.122 233.083ZM238.371 227.203L241.217 223.185L241.672 228.088L238.371 227.203ZM256.821 223.902L254.562 232.332L251.675 222.523L249.409 221.916L246.129 234.157L248.325 234.745L250.593 226.28L253.453 236.12L255.736 236.731L259.016 224.49L256.821 223.902ZM266.39 239.586L268.778 240.226L267.176 226.677L265.525 226.235L257.345 237.163L259.734 237.803L261.342 235.523L266.137 236.808L266.39 239.586ZM262.639 233.706L265.485 229.687L265.94 234.59L262.639 233.706ZM277.261 235.403L276.72 237.422L279.46 238.156L279.418 238.314C278.975 239.965 277.557 240.621 275.59 240.094C273.096 239.425 272.018 237.48 272.766 234.688C273.486 232 275.297 230.792 277.65 231.422C279.301 231.865 280.306 232.962 280.446 234.618L282.677 234.369C282.403 231.811 280.739 230.01 278.245 229.342C274.575 228.358 271.54 230.481 270.566 234.117C269.526 237.998 271.465 241.228 274.89 242.146C276.47 242.569 277.933 242.378 278.917 241.587L278.842 242.922L280.405 243.341L282.179 236.72L277.261 235.403ZM283.055 244.051L291.204 246.235L291.745 244.215L285.791 242.62L286.666 239.353L292.199 240.836L292.74 238.816L287.208 237.334L287.989 234.418L293.942 236.014L294.484 233.994L286.335 231.81L283.055 244.051ZM306.502 237.214L301.031 244.99L300.198 235.525L297.054 234.683L293.774 246.924L295.969 247.512L298.421 238.362L299.295 247.255L301.42 247.824L306.623 240.559L304.171 249.709L306.366 250.298L309.646 238.057L306.502 237.214ZM309.449 251.124L317.598 253.307L318.139 251.288L312.186 249.692L313.061 246.426L318.593 247.908L319.134 245.888L313.602 244.406L314.383 241.491L320.337 243.086L320.878 241.066L312.729 238.883L309.449 251.124ZM330.86 243.741L328.601 252.171L325.714 242.362L323.449 241.755L320.169 253.996L322.364 254.584L324.632 246.119L327.492 255.958L329.775 256.57L333.055 244.329L330.86 243.741ZM335.284 258.046L337.497 258.639L340.236 248.418L344.064 249.444L344.605 247.424L334.735 244.779L334.194 246.799L338.023 247.825L335.284 258.046ZM343.171 260.16L345.296 260.729L345.908 258.446L343.783 257.876L343.171 260.16Z" fill="black"/>
<path d="M191.24 31.2154L119.527 12L15.9997 398.37L87.7124 417.586L191.24 31.2154Z" fill="url(#paint0_linear)"/>
<path d="M128.796 14.486L127.821 14.2246L24.2932 400.595L25.2689 400.856L128.796 14.486Z" fill="#575757" fill-opacity="0.2"/>
</g>
<defs>
<filter id="filter0_d" x="-0.000488281" y="0" width="434.087" height="498.369" filterUnits="userSpaceOnUse" color-interpolation-filters="sRGB">
<feFlood flood-opacity="0" result="BackgroundImageFix"/>
<feColorMatrix in="SourceAlpha" type="matrix" values="0 0 0 0 0 0 0 0 0 0 0 0 0 0 0 0 0 0 127 0" result="hardAlpha"/>
<feOffset dy="4"/>
<feGaussianBlur stdDeviation="8"/>
<feComposite in2="hardAlpha" operator="out"/>
<feColorMatrix type="matrix" values="0 0 0 0 0 0 0 0 0 0 0 0 0 0 0 0 0 0 0.25 0"/>
<feBlend mode="normal" in2="BackgroundImageFix" result="effect1_dropShadow"/>
<feBlend mode="normal" in="SourceGraphic" in2="effect1_dropShadow" result="shape"/>
</filter>
<linearGradient id="paint0_linear" x1="86.0837" y1="136.813" x2="157.796" y2="156.029" gradientUnits="userSpaceOnUse">
<stop stop-color="#5B5B5B" stop-opacity="0.5"/>
<stop offset="1" stop-color="#C4C4C4" stop-opacity="0"/>
</linearGradient>
<clipPath id="clip0">
<rect width="309.091" height="400" fill="white" transform="translate(119.527 12) rotate(15)"/>
</clipPath>
</defs>
</svg>
