<svg width="260" height="341" viewBox="0 0 260 341" fill="none" xmlns="http://www.w3.org/2000/svg">
<path d="M214.539 71.5906L31.0107 157.429C4.14949 170.007 -7.47821 202.067 5.09986 228.928L36.0419 214.45C31.4579 204.639 35.7065 192.955 45.4895 188.371L76.5713 173.808L228.99 102.505C255.851 89.9266 267.479 57.8665 254.9 31.0054C248.807 18.008 238.018 8.1412 224.517 3.24972C211.017 -1.64175 196.426 -0.998861 183.401 5.09452L30.9828 76.4262C4.12159 89.0043 -7.50615 121.064 5.07192 147.926L36.014 133.447C31.43 123.636 35.6786 111.952 45.4615 107.368L197.88 36.0366C202.632 33.8284 207.942 33.5769 212.89 35.3658C217.809 37.1546 221.75 40.7603 223.986 45.4841C228.57 55.295 224.322 67.0066 214.539 71.5906Z" fill="url(#paint0_linear)"/>
<path d="M45.4889 269.374L229.017 183.508C255.878 170.929 267.506 138.869 254.928 112.008L223.986 126.487C228.57 136.298 224.321 147.981 214.538 152.565L31.0101 238.432C4.1489 251.01 -7.4788 283.07 5.09928 309.931C11.1927 322.929 21.9818 332.795 35.4823 337.687C41.4639 339.867 47.6691 340.929 53.8463 340.929C61.6168 340.929 69.3593 339.224 76.5987 335.842L229.017 264.51C255.878 251.932 267.506 219.872 254.928 193.011L223.986 207.49C228.57 217.301 224.321 228.984 214.538 233.568L62.1199 304.9C57.3681 307.136 52.0574 307.36 47.11 305.571C42.1906 303.782 38.2495 300.176 36.0134 295.452C31.4573 285.669 35.706 273.958 45.4889 269.374Z" fill="url(#paint1_linear)"/>
<defs>
<linearGradient id="paint0_linear" x1="129.986" y1="0" x2="129.986" y2="228.928" gradientUnits="userSpaceOnUse">
<stop stop-color="white"/>
<stop offset="1" stop-color="white" stop-opacity="0"/>
</linearGradient>
<linearGradient id="paint1_linear" x1="130.014" y1="112.008" x2="130.014" y2="340.929" gradientUnits="userSpaceOnUse">
<stop stop-color="white"/>
<stop offset="1" stop-color="white" stop-opacity="0"/>
</linearGradient>
</defs>
</svg>
