<svg width="600" height="600" viewBox="0 0 600 600" fill="none" xmlns="http://www.w3.org/2000/svg">
<path d="M182.004 285.204C182.004 337.536 115.224 384.612 89.496 431.448C49.344 504.54 123.9 558.42 229.056 558.42C389.268 558.42 577.176 351.528 532.356 187.728C514.164 121.26 448.5 58.5482 356.94 47.8322C166.8 25.5962 94.992 116.028 94.992 182.76C94.992 252 182.004 240.648 182.004 285.204Z" fill="#4779A8"/>
<path opacity="0.7" d="M182.004 285.204C182.004 337.536 115.224 384.612 89.496 431.448C49.344 504.54 123.9 558.42 229.056 558.42C389.268 558.42 577.176 351.528 532.356 187.728C514.164 121.26 448.5 58.5482 356.94 47.8322C166.8 25.5962 94.992 116.028 94.992 182.76C94.992 252 182.004 240.648 182.004 285.204Z" fill="white"/>
<path d="M35.4 545.316H564.6" stroke="#263238" stroke-linecap="round" stroke-linejoin="round"/>
<path d="M371.976 263.088H230.556C226.01 263.088 222.324 266.773 222.324 271.32V301.68C222.324 306.226 226.01 309.912 230.556 309.912H371.976C376.522 309.912 380.208 306.226 380.208 301.68V271.32C380.208 266.773 376.522 263.088 371.976 263.088Z" fill="#263238" stroke="#263238" stroke-linecap="round" stroke-linejoin="round"/>
<path d="M369.456 260.568H228.036C223.49 260.568 219.804 264.254 219.804 268.8V299.16C219.804 303.707 223.49 307.392 228.036 307.392H369.456C374.002 307.392 377.688 303.707 377.688 299.16V268.8C377.688 264.254 374.002 260.568 369.456 260.568Z" fill="white" stroke="#263238" stroke-linecap="round" stroke-linejoin="round"/>
<path d="M369.456 260.568H228.036C223.49 260.568 219.804 264.254 219.804 268.8V299.16C219.804 303.707 223.49 307.392 228.036 307.392H369.456C374.002 307.392 377.688 303.707 377.688 299.16V268.8C377.688 264.254 374.002 260.568 369.456 260.568Z" stroke="#263238" stroke-linecap="round" stroke-linejoin="round"/>
<path d="M254.76 297.804H233.964V271.5H247.824L254.76 278.436V297.804Z" fill="#4779A8"/>
<path opacity="0.5" d="M254.76 297.804H233.964V271.5H247.824L254.76 278.436V297.804Z" fill="white"/>
<path d="M254.76 297.804H233.964V271.5H247.824L254.76 278.436V297.804Z" stroke="#263238" stroke-linecap="round" stroke-linejoin="round"/>
<path d="M247.824 278.436H254.76L247.824 271.5V278.436Z" fill="#4779A8" stroke="#263238" stroke-linecap="round" stroke-linejoin="round"/>
<path d="M238.584 285.456C238.257 285.425 237.954 285.273 237.733 285.03C237.512 284.787 237.39 284.47 237.39 284.142C237.39 283.814 237.512 283.497 237.733 283.254C237.954 283.011 238.257 282.859 238.584 282.828H250.14C250.467 282.859 250.77 283.011 250.991 283.254C251.212 283.497 251.334 283.814 251.334 284.142C251.334 284.47 251.212 284.787 250.991 285.03C250.77 285.273 250.467 285.425 250.14 285.456H238.584Z" fill="#858585" stroke="#263238" stroke-width="0.75" stroke-linecap="round" stroke-linejoin="round"/>
<path d="M238.584 290.987C238.257 290.956 237.954 290.804 237.733 290.561C237.512 290.318 237.39 290.002 237.39 289.673C237.39 289.345 237.512 289.029 237.733 288.786C237.954 288.543 238.257 288.391 238.584 288.359H247.62C247.947 288.391 248.25 288.543 248.471 288.786C248.692 289.029 248.814 289.345 248.814 289.673C248.814 290.002 248.692 290.318 248.471 290.561C248.25 290.804 247.947 290.956 247.62 290.987H238.584Z" fill="#858585" stroke="#263238" stroke-width="0.75" stroke-linecap="round" stroke-linejoin="round"/>
<path d="M307.332 286.967H268.632C267.942 287.013 267.296 287.319 266.824 287.824C266.351 288.328 266.089 288.994 266.089 289.685C266.089 290.376 266.351 291.041 266.824 291.546C267.296 292.051 267.942 292.357 268.632 292.403H307.332V286.967Z" fill="#4779A8"/>
<path d="M268.632 292.403C267.942 292.357 267.296 292.051 266.824 291.546C266.351 291.041 266.089 290.376 266.089 289.685C266.089 288.994 266.351 288.328 266.824 287.824C267.296 287.319 267.942 287.013 268.632 286.967H360.792C361.164 286.942 361.537 286.994 361.889 287.12C362.24 287.245 362.562 287.441 362.834 287.696C363.106 287.951 363.323 288.259 363.472 288.601C363.62 288.943 363.697 289.312 363.697 289.685C363.697 290.058 363.62 290.427 363.472 290.769C363.323 291.111 363.106 291.419 362.834 291.674C362.562 291.929 362.24 292.125 361.889 292.25C361.537 292.376 361.164 292.428 360.792 292.403H268.632Z" stroke="#263238" stroke-linecap="round" stroke-linejoin="round"/>
<path d="M308.208 279.6H305.292V278.22L308.064 271.656H309.732V278.22H310.452V279.6H309.732V281.364H308.208V279.6ZM308.208 278.22V274.44L306.708 278.232L308.208 278.22Z" fill="#263238"/>
<path d="M311.16 279.072V278.316H312.6V279.18C312.6 279.876 312.9 280.128 313.392 280.128C313.884 280.128 314.184 279.876 314.184 279.18V277.008C314.184 276.312 313.872 276.048 313.392 276.048C312.912 276.048 312.6 276.312 312.6 277.008V277.092H311.16L311.436 271.668H315.456V273.06H312.792L312.672 275.376C312.806 275.148 313 274.962 313.233 274.837C313.466 274.712 313.728 274.654 313.992 274.668C315.108 274.668 315.684 275.46 315.684 276.888V279.072C315.684 280.632 314.904 281.472 313.404 281.472C311.904 281.472 311.16 280.632 311.16 279.072Z" fill="#263238"/>
<path d="M316.656 275.507V273.107C316.638 272.903 316.662 272.697 316.727 272.503C316.793 272.308 316.898 272.13 317.036 271.978C317.175 271.827 317.343 271.706 317.531 271.623C317.718 271.541 317.921 271.498 318.126 271.498C318.331 271.498 318.534 271.541 318.721 271.623C318.909 271.706 319.077 271.827 319.216 271.978C319.354 272.13 319.459 272.308 319.525 272.503C319.59 272.697 319.614 272.903 319.596 273.107V275.507C319.614 275.711 319.59 275.917 319.525 276.111C319.459 276.306 319.354 276.484 319.216 276.636C319.077 276.787 318.909 276.908 318.721 276.991C318.534 277.073 318.331 277.116 318.126 277.116C317.921 277.116 317.718 277.073 317.531 276.991C317.343 276.908 317.175 276.787 317.036 276.636C316.898 276.484 316.793 276.306 316.727 276.111C316.662 275.917 316.638 275.711 316.656 275.507ZM318.624 275.579V273.011C318.624 272.591 318.432 272.411 318.132 272.411C317.832 272.411 317.628 272.591 317.628 273.011V275.579C317.628 276.011 317.808 276.191 318.132 276.191C318.456 276.191 318.624 275.999 318.624 275.579ZM321.648 271.667H322.62L318.864 281.375H317.892L321.648 271.667ZM320.916 279.959V277.559C320.898 277.355 320.922 277.149 320.987 276.955C321.053 276.76 321.158 276.582 321.296 276.43C321.435 276.279 321.603 276.158 321.791 276.075C321.978 275.993 322.181 275.95 322.386 275.95C322.591 275.95 322.794 275.993 322.981 276.075C323.169 276.158 323.337 276.279 323.476 276.43C323.614 276.582 323.719 276.76 323.785 276.955C323.85 277.149 323.874 277.355 323.856 277.559V279.959C323.874 280.163 323.85 280.369 323.785 280.563C323.719 280.758 323.614 280.936 323.476 281.088C323.337 281.239 323.169 281.36 322.981 281.443C322.794 281.525 322.591 281.568 322.386 281.568C322.181 281.568 321.978 281.525 321.791 281.443C321.603 281.36 321.435 281.239 321.296 281.088C321.158 280.936 321.053 280.758 320.987 280.563C320.922 280.369 320.898 280.163 320.916 279.959ZM322.884 280.031V277.463C322.884 277.031 322.692 276.851 322.38 276.851C322.068 276.851 321.888 277.031 321.888 277.463V280.031C321.888 280.463 322.068 280.643 322.38 280.643C322.692 280.643 322.884 280.463 322.884 280.031Z" fill="#263238"/>
<path d="M371.976 317.424H230.556C226.01 317.424 222.324 321.109 222.324 325.656V356.016C222.324 360.562 226.01 364.248 230.556 364.248H371.976C376.522 364.248 380.208 360.562 380.208 356.016V325.656C380.208 321.109 376.522 317.424 371.976 317.424Z" fill="#263238" stroke="#263238" stroke-linecap="round" stroke-linejoin="round"/>
<path d="M369.456 314.904H228.036C223.49 314.904 219.804 318.59 219.804 323.136V353.496C219.804 358.043 223.49 361.728 228.036 361.728H369.456C374.002 361.728 377.688 358.043 377.688 353.496V323.136C377.688 318.59 374.002 314.904 369.456 314.904Z" fill="white" stroke="#263238" stroke-linecap="round" stroke-linejoin="round"/>
<path d="M337.86 340.967H268.632C267.942 341.013 267.296 341.319 266.824 341.824C266.351 342.328 266.089 342.994 266.089 343.685C266.089 344.376 266.351 345.041 266.824 345.546C267.296 346.051 267.942 346.357 268.632 346.403H337.86V340.967Z" fill="#4779A8"/>
<path d="M268.632 346.403C267.942 346.357 267.296 346.051 266.824 345.546C266.351 345.041 266.089 344.376 266.089 343.685C266.089 342.994 266.351 342.328 266.824 341.824C267.296 341.319 267.942 341.013 268.632 340.967H360.792C361.164 340.942 361.537 340.994 361.889 341.12C362.24 341.245 362.562 341.441 362.834 341.696C363.106 341.951 363.323 342.259 363.472 342.601C363.62 342.943 363.697 343.312 363.697 343.685C363.697 344.058 363.62 344.427 363.472 344.769C363.323 345.111 363.106 345.419 362.834 345.674C362.562 345.929 362.24 346.125 361.889 346.25C361.537 346.376 361.164 346.428 360.792 346.403H268.632Z" stroke="#263238" stroke-linecap="round" stroke-linejoin="round"/>
<path d="M305.472 333.121V332.257C305.425 331.865 305.494 331.468 305.671 331.116C305.849 330.764 306.126 330.472 306.468 330.277C306.141 330.086 305.878 329.803 305.712 329.464C305.545 329.124 305.483 328.743 305.532 328.369V327.973C305.532 327.355 305.777 326.763 306.214 326.326C306.65 325.89 307.243 325.645 307.86 325.645C308.477 325.645 309.07 325.89 309.506 326.326C309.943 326.763 310.188 327.355 310.188 327.973V328.369C310.231 328.744 310.165 329.124 309.997 329.463C309.828 329.802 309.566 330.084 309.24 330.277C309.585 330.47 309.864 330.762 310.044 331.114C310.223 331.466 310.294 331.864 310.248 332.257V333.121C310.248 333.757 309.995 334.368 309.545 334.818C309.095 335.268 308.485 335.521 307.848 335.521C307.211 335.521 306.601 335.268 306.151 334.818C305.701 334.368 305.448 333.757 305.448 333.121H305.472ZM308.724 333.037V332.101C308.724 331.369 308.424 331.009 307.86 331.009C307.296 331.009 306.996 331.369 306.996 332.101V333.037C306.996 333.769 307.296 334.129 307.86 334.129C308.424 334.129 308.724 333.769 308.724 333.037ZM308.724 328.657V327.889C308.724 327.253 308.448 326.917 307.92 326.917C307.392 326.917 307.116 327.253 307.116 327.889V328.657C307.116 329.293 307.392 329.629 307.92 329.629C308.448 329.629 308.664 329.293 308.664 328.657H308.724Z" fill="#263238"/>
<path d="M311.16 333.072V332.316H312.6V333.18C312.6 333.876 312.9 334.128 313.392 334.128C313.884 334.128 314.184 333.876 314.184 333.18V331.008C314.184 330.312 313.872 330.048 313.392 330.048C312.912 330.048 312.6 330.312 312.6 331.008V331.092H311.16L311.436 325.668H315.456V327.06H312.792L312.672 329.376C312.806 329.148 313 328.962 313.233 328.837C313.466 328.712 313.728 328.654 313.992 328.668C315.108 328.668 315.684 329.46 315.684 330.888V333.072C315.707 333.384 315.665 333.698 315.561 333.994C315.457 334.289 315.293 334.56 315.08 334.79C314.866 335.019 314.608 335.202 314.321 335.328C314.033 335.453 313.723 335.517 313.41 335.517C313.097 335.517 312.787 335.453 312.499 335.328C312.212 335.202 311.954 335.019 311.74 334.79C311.527 334.56 311.363 334.289 311.259 333.994C311.155 333.698 311.113 333.384 311.136 333.072H311.16Z" fill="#263238"/>
<path d="M316.656 329.507V327.107C316.638 326.903 316.662 326.697 316.727 326.503C316.793 326.308 316.898 326.13 317.036 325.978C317.175 325.827 317.343 325.706 317.531 325.623C317.718 325.541 317.921 325.498 318.126 325.498C318.331 325.498 318.534 325.541 318.721 325.623C318.909 325.706 319.077 325.827 319.216 325.978C319.354 326.13 319.459 326.308 319.525 326.503C319.59 326.697 319.614 326.903 319.596 327.107V329.507C319.614 329.711 319.59 329.917 319.525 330.111C319.459 330.306 319.354 330.484 319.216 330.635C319.077 330.787 318.909 330.908 318.721 330.99C318.534 331.073 318.331 331.116 318.126 331.116C317.921 331.116 317.718 331.073 317.531 330.99C317.343 330.908 317.175 330.787 317.036 330.635C316.898 330.484 316.793 330.306 316.727 330.111C316.662 329.917 316.638 329.711 316.656 329.507ZM318.624 329.579V327.011C318.624 326.591 318.432 326.399 318.132 326.399C317.832 326.399 317.628 326.591 317.628 327.011V329.579C317.628 330.011 317.808 330.191 318.132 330.191C318.456 330.191 318.624 329.999 318.624 329.579ZM321.648 325.667H322.62L318.864 335.375H317.892L321.648 325.667ZM320.916 333.959V331.559C320.898 331.355 320.922 331.149 320.987 330.955C321.053 330.76 321.158 330.582 321.296 330.43C321.435 330.279 321.603 330.158 321.791 330.075C321.978 329.993 322.181 329.95 322.386 329.95C322.591 329.95 322.794 329.993 322.981 330.075C323.169 330.158 323.337 330.279 323.476 330.43C323.614 330.582 323.719 330.76 323.785 330.955C323.85 331.149 323.874 331.355 323.856 331.559V333.959C323.874 334.163 323.85 334.369 323.785 334.563C323.719 334.758 323.614 334.936 323.476 335.088C323.337 335.239 323.169 335.36 322.981 335.442C322.794 335.525 322.591 335.568 322.386 335.568C322.181 335.568 321.978 335.525 321.791 335.442C321.603 335.36 321.435 335.239 321.296 335.088C321.158 334.936 321.053 334.758 320.987 334.563C320.922 334.369 320.898 334.163 320.916 333.959ZM322.884 334.031V331.463C322.884 331.031 322.692 330.851 322.38 330.851C322.068 330.851 321.888 331.031 321.888 331.463V334.031C321.888 334.463 322.068 334.643 322.38 334.643C322.692 334.643 322.884 334.463 322.884 334.031Z" fill="#263238"/>
<path d="M254.76 351.804H233.964V325.5H247.824L254.76 332.436V351.804Z" fill="#4779A8"/>
<path opacity="0.5" d="M254.76 351.804H233.964V325.5H247.824L254.76 332.436V351.804Z" fill="white" stroke="#263238" stroke-linecap="round" stroke-linejoin="round"/>
<path d="M254.76 351.804H233.964V325.5H247.824L254.76 332.436V351.804Z" stroke="#263238" stroke-linecap="round" stroke-linejoin="round"/>
<path d="M238.584 339.456C238.257 339.425 237.954 339.273 237.733 339.03C237.512 338.787 237.39 338.47 237.39 338.142C237.39 337.814 237.512 337.497 237.733 337.254C237.954 337.011 238.257 336.859 238.584 336.828H250.14C250.467 336.859 250.77 337.011 250.991 337.254C251.212 337.497 251.334 337.814 251.334 338.142C251.334 338.47 251.212 338.787 250.991 339.03C250.77 339.273 250.467 339.425 250.14 339.456H238.584Z" fill="#858585" stroke="#263238" stroke-width="0.75" stroke-linecap="round" stroke-linejoin="round"/>
<path d="M238.584 344.987C238.257 344.956 237.954 344.804 237.733 344.561C237.512 344.318 237.39 344.002 237.39 343.673C237.39 343.345 237.512 343.029 237.733 342.786C237.954 342.543 238.257 342.391 238.584 342.359H247.62C247.947 342.391 248.25 342.543 248.471 342.786C248.692 343.029 248.814 343.345 248.814 343.673C248.814 344.002 248.692 344.318 248.471 344.561C248.25 344.804 247.947 344.956 247.62 344.987H238.584Z" fill="#858585" stroke="#263238" stroke-width="0.75" stroke-linecap="round" stroke-linejoin="round"/>
<path d="M247.824 332.436H254.76L247.824 325.5V332.436Z" fill="#4779A8" stroke="#263238" stroke-linecap="round" stroke-linejoin="round"/>
<path d="M391.308 190.535H211.212C206.666 190.535 202.98 194.221 202.98 198.767V240.611C202.98 245.158 206.666 248.843 211.212 248.843H391.308C395.854 248.843 399.54 245.158 399.54 240.611V198.767C399.54 194.221 395.854 190.535 391.308 190.535Z" fill="#263238" stroke="#263238" stroke-linecap="round" stroke-linejoin="round"/>
<path d="M388.788 188.016H208.692C204.146 188.016 200.46 191.701 200.46 196.248V238.092C200.46 242.638 204.146 246.324 208.692 246.324H388.788C393.334 246.324 397.02 242.638 397.02 238.092V196.248C397.02 191.701 393.334 188.016 388.788 188.016Z" fill="white" stroke="#263238" stroke-linecap="round" stroke-linejoin="round"/>
<path d="M269.064 241.524H230.556V192.816H256.224L269.064 205.644V241.524Z" fill="#4779A8"/>
<path opacity="0.7" d="M269.064 241.524H230.556V192.816H256.224L269.064 205.644V241.524Z" fill="white"/>
<path d="M269.064 241.524H230.556V192.816H256.224L269.064 205.644V241.524Z" stroke="#263238" stroke-linecap="round" stroke-linejoin="round"/>
<path d="M256.224 205.644H269.064L256.224 192.816V205.644Z" fill="#4779A8" stroke="#263238" stroke-linecap="round" stroke-linejoin="round"/>
<path d="M241.92 211.645H234.36V219.205H241.92V211.645Z" stroke="white" stroke-width="0.75" stroke-linecap="round" stroke-linejoin="round"/>
<path d="M249.696 211.645H242.136V219.205H249.696V211.645Z" stroke="white" stroke-width="0.75" stroke-linecap="round" stroke-linejoin="round"/>
<path d="M257.484 211.645H249.924V219.205H257.484V211.645Z" stroke="white" stroke-width="0.75" stroke-linecap="round" stroke-linejoin="round"/>
<path d="M265.26 211.645H257.7V219.205H265.26V211.645Z" stroke="white" stroke-width="0.75" stroke-linecap="round" stroke-linejoin="round"/>
<path d="M241.92 219.203H234.36V226.763H241.92V219.203Z" stroke="white" stroke-width="0.75" stroke-linecap="round" stroke-linejoin="round"/>
<path d="M249.696 219.203H242.136V226.763H249.696V219.203Z" stroke="white" stroke-width="0.75" stroke-linecap="round" stroke-linejoin="round"/>
<path d="M257.484 219.203H249.924V226.763H257.484V219.203Z" stroke="white" stroke-width="0.75" stroke-linecap="round" stroke-linejoin="round"/>
<path d="M265.26 219.203H257.7V226.763H265.26V219.203Z" stroke="white" stroke-width="0.75" stroke-linecap="round" stroke-linejoin="round"/>
<path d="M241.92 226.764H234.36V234.324H241.92V226.764Z" stroke="white" stroke-width="0.75" stroke-linecap="round" stroke-linejoin="round"/>
<path d="M249.696 226.764H242.136V234.324H249.696V226.764Z" stroke="white" stroke-width="0.75" stroke-linecap="round" stroke-linejoin="round"/>
<path d="M257.484 226.764H249.924V234.324H257.484V226.764Z" stroke="white" stroke-width="0.75" stroke-linecap="round" stroke-linejoin="round"/>
<path d="M265.26 226.764H257.7V234.324H265.26V226.764Z" stroke="white" stroke-width="0.75" stroke-linecap="round" stroke-linejoin="round"/>
<path d="M234.504 233.593L242.136 226.585L245.916 226.765L250.044 219.313L253.704 222.985L257.808 218.677L261.48 211.645" stroke="#4779A8" stroke-width="2" stroke-linecap="round" stroke-linejoin="round"/>
<path d="M257.148 213.841L261.48 211.645L262.356 216.373" stroke="#4779A8" stroke-width="2" stroke-linecap="round" stroke-linejoin="round"/>
<path d="M284.208 215.616H282V214.152C283.752 214.152 284.4 213.768 284.856 212.484H286.248V225.684H284.172L284.208 215.616Z" fill="#263238"/>
<path d="M288.708 222.575V215.615C288.708 214.778 289.041 213.975 289.632 213.383C290.224 212.791 291.027 212.459 291.864 212.459C292.701 212.459 293.504 212.791 294.096 213.383C294.688 213.975 295.02 214.778 295.02 215.615V222.575C295.02 223.412 294.688 224.215 294.096 224.807C293.504 225.398 292.701 225.731 291.864 225.731C291.027 225.731 290.224 225.398 289.632 224.807C289.041 224.215 288.708 223.412 288.708 222.575ZM292.944 222.707V215.507C292.944 214.571 292.524 214.211 291.864 214.211C291.204 214.211 290.784 214.571 290.784 215.507V222.707C290.784 223.655 291.204 224.015 291.864 224.015C292.524 224.015 292.944 223.655 292.944 222.707Z" fill="#263238"/>
<path d="M296.268 222.575V215.615C296.268 214.778 296.601 213.975 297.192 213.383C297.784 212.791 298.587 212.459 299.424 212.459C300.261 212.459 301.064 212.791 301.656 213.383C302.247 213.975 302.58 214.778 302.58 215.615V222.575C302.58 223.412 302.247 224.215 301.656 224.807C301.064 225.398 300.261 225.731 299.424 225.731C298.587 225.731 297.784 225.398 297.192 224.807C296.601 224.215 296.268 223.412 296.268 222.575ZM300.504 222.707V215.507C300.504 214.571 300.084 214.211 299.424 214.211C298.764 214.211 298.344 214.571 298.344 215.507V222.707C298.344 223.655 298.764 224.015 299.424 224.015C300.084 224.015 300.504 223.655 300.504 222.707Z" fill="#263238"/>
<path d="M303.864 217.716V214.416C303.864 213.885 304.075 213.375 304.451 212.999C304.827 212.623 305.337 212.412 305.868 212.412C306.4 212.412 306.909 212.623 307.285 212.999C307.661 213.375 307.872 213.885 307.872 214.416V217.716C307.872 218.248 307.661 218.757 307.285 219.133C306.909 219.509 306.4 219.72 305.868 219.72C305.337 219.72 304.827 219.509 304.451 219.133C304.075 218.757 303.864 218.248 303.864 217.716ZM306.552 217.812V214.32C306.552 213.732 306.288 213.48 305.868 213.48C305.448 213.48 305.184 213.732 305.184 214.32V217.812C305.184 218.4 305.436 218.64 305.868 218.64C306.3 218.64 306.552 218.4 306.552 217.812ZM310.668 212.484H312L306.876 225.684H305.556L310.668 212.484ZM309.66 223.788V220.476C309.66 220.213 309.712 219.952 309.813 219.709C309.913 219.466 310.061 219.245 310.247 219.059C310.433 218.873 310.654 218.725 310.897 218.625C311.14 218.524 311.401 218.472 311.664 218.472C311.927 218.472 312.188 218.524 312.431 218.625C312.674 218.725 312.895 218.873 313.081 219.059C313.267 219.245 313.415 219.466 313.515 219.709C313.616 219.952 313.668 220.213 313.668 220.476V223.788C313.668 224.051 313.616 224.312 313.515 224.555C313.415 224.798 313.267 225.019 313.081 225.205C312.895 225.391 312.674 225.539 312.431 225.64C312.188 225.74 311.927 225.792 311.664 225.792C311.401 225.792 311.14 225.74 310.897 225.64C310.654 225.539 310.433 225.391 310.247 225.205C310.061 225.019 309.913 224.798 309.813 224.555C309.712 224.312 309.66 224.051 309.66 223.788ZM312.348 223.884V220.38C312.348 219.792 312.084 219.552 311.664 219.552C311.244 219.552 310.992 219.792 310.992 220.38V223.884C310.992 224.46 311.232 224.712 311.664 224.712C312.096 224.712 312.348 224.46 312.348 223.884Z" fill="#263238"/>
<path d="M317.028 221.579V216.359C317.028 215.764 317.264 215.193 317.685 214.772C318.106 214.352 318.677 214.115 319.272 214.115C319.867 214.115 320.438 214.352 320.859 214.772C321.28 215.193 321.516 215.764 321.516 216.359V217.391H320.076V216.263C320.076 215.627 319.764 215.363 319.308 215.363C318.852 215.363 318.552 215.627 318.552 216.263V221.687C318.552 222.323 318.852 222.575 319.308 222.575C319.764 222.575 320.076 222.323 320.076 221.687V220.199H321.516V221.579C321.516 222.174 321.28 222.745 320.859 223.166C320.438 223.587 319.867 223.823 319.272 223.823C318.677 223.823 318.106 223.587 317.685 223.166C317.264 222.745 317.028 222.174 317.028 221.579Z" fill="#263238"/>
<path d="M322.344 221.52V216.42C322.344 215.805 322.588 215.216 323.022 214.782C323.457 214.348 324.046 214.104 324.66 214.104C325.274 214.104 325.863 214.348 326.298 214.782C326.732 215.216 326.976 215.805 326.976 216.42V221.52C326.976 222.134 326.732 222.723 326.298 223.157C325.863 223.592 325.274 223.836 324.66 223.836C324.046 223.836 323.457 223.592 323.022 223.157C322.588 222.723 322.344 222.134 322.344 221.52ZM325.452 221.616V216.324C325.452 215.628 325.152 215.364 324.66 215.364C324.168 215.364 323.868 215.628 323.868 216.324V221.616C323.868 222.312 324.18 222.576 324.66 222.576C325.14 222.576 325.452 222.312 325.452 221.616Z" fill="#263238"/>
<path d="M327.996 214.115H330.18L331.152 221.063L332.124 214.115H334.296V223.823H332.856V216.479L331.74 223.823H330.468L329.364 216.479V223.823H328.032L327.996 214.115Z" fill="#263238"/>
<path d="M335.46 214.115H337.704C339.228 214.115 339.972 214.967 339.972 216.515V217.475C339.972 219.023 339.228 219.875 337.704 219.875H336.984V223.823H335.46V214.115ZM337.704 218.483C338.184 218.483 338.448 218.267 338.448 217.571V216.371C338.448 215.675 338.184 215.459 337.704 215.459H336.984V218.435L337.704 218.483Z" fill="#263238"/>
<path d="M340.8 214.115H342.324V222.431H344.832V223.823H340.8V214.115Z" fill="#263238"/>
<path d="M345.6 214.115H349.752V215.507H347.124V218.063H349.2V219.455H347.112V222.431H349.74V223.823H345.6V214.115Z" fill="#263238"/>
<path d="M351.792 215.507H350.208V214.115H354.912V215.507H353.316V223.823H351.792V215.507Z" fill="#263238"/>
<path d="M355.656 214.115H359.808V215.507H357.18V218.063H359.268V219.455H357.18V222.431H359.808V223.823H355.656V214.115Z" fill="#263238"/>
<path d="M360.684 214.115H363.012C364.536 214.115 365.28 214.967 365.28 216.515V221.423C365.28 222.971 364.536 223.823 363.012 223.823H360.684V214.115ZM362.976 222.431C363.468 222.431 363.756 222.179 363.756 221.495V216.443C363.756 215.759 363.468 215.507 362.976 215.507H362.208V222.431H362.976Z" fill="#263238"/>
<path d="M371.976 371.771H230.556C226.01 371.771 222.324 375.457 222.324 380.004V410.364C222.324 414.91 226.01 418.595 230.556 418.595H371.976C376.522 418.595 380.208 414.91 380.208 410.364V380.004C380.208 375.457 376.522 371.771 371.976 371.771Z" fill="#263238" stroke="#263238" stroke-linecap="round" stroke-linejoin="round"/>
<path d="M369.456 369.252H228.036C223.49 369.252 219.804 372.938 219.804 377.484V407.844C219.804 412.39 223.49 416.076 228.036 416.076H369.456C374.002 416.076 377.688 412.39 377.688 407.844V377.484C377.688 372.938 374.002 369.252 369.456 369.252Z" fill="white" stroke="#263238" stroke-linecap="round" stroke-linejoin="round"/>
<path d="M332.976 394.98H268.632C267.913 394.98 267.223 395.266 266.714 395.775C266.206 396.283 265.92 396.973 265.92 397.692C265.92 398.412 266.206 399.102 266.714 399.61C267.223 400.119 267.913 400.405 268.632 400.405H332.976V394.98Z" fill="#4779A8"/>
<path d="M268.632 400.405C267.913 400.405 267.223 400.119 266.714 399.61C266.206 399.102 265.92 398.412 265.92 397.692C265.92 396.973 266.206 396.283 266.714 395.775C267.223 395.266 267.913 394.98 268.632 394.98H360.792C361.148 394.98 361.501 395.051 361.83 395.187C362.159 395.323 362.458 395.523 362.71 395.775C362.961 396.027 363.161 396.326 363.298 396.655C363.434 396.984 363.504 397.336 363.504 397.692C363.504 398.049 363.434 398.401 363.298 398.73C363.161 399.059 362.961 399.358 362.71 399.61C362.458 399.862 362.159 400.062 361.83 400.198C361.501 400.334 361.148 400.405 360.792 400.405H268.632Z" stroke="#263238" stroke-linecap="round" stroke-linejoin="round"/>
<path d="M254.76 405.816H233.964V379.512H247.824L254.76 386.436V405.816Z" fill="#4779A8"/>
<path opacity="0.5" d="M254.76 405.816H233.964V379.512H247.824L254.76 386.436V405.816Z" fill="white"/>
<path d="M254.76 405.816H233.964V379.512H247.824L254.76 386.436V405.816Z" stroke="#263238" stroke-linecap="round" stroke-linejoin="round"/>
<path d="M238.584 393.468C238.257 393.437 237.954 393.285 237.733 393.042C237.512 392.799 237.39 392.482 237.39 392.154C237.39 391.826 237.512 391.509 237.733 391.266C237.954 391.023 238.257 390.871 238.584 390.84H250.14C250.467 390.871 250.77 391.023 250.991 391.266C251.212 391.509 251.334 391.826 251.334 392.154C251.334 392.482 251.212 392.799 250.991 393.042C250.77 393.285 250.467 393.437 250.14 393.468H238.584Z" fill="#858585" stroke="#263238" stroke-width="0.75" stroke-linecap="round" stroke-linejoin="round"/>
<path d="M238.584 398.987C238.237 398.987 237.904 398.849 237.659 398.604C237.414 398.359 237.276 398.026 237.276 397.679C237.276 397.332 237.414 396.999 237.659 396.754C237.904 396.509 238.237 396.371 238.584 396.371H247.62C247.967 396.371 248.3 396.509 248.545 396.754C248.79 396.999 248.928 397.332 248.928 397.679C248.928 398.026 248.79 398.359 248.545 398.604C248.3 398.849 247.967 398.987 247.62 398.987H238.584Z" fill="#858585" stroke="#263238" stroke-width="0.75" stroke-linecap="round" stroke-linejoin="round"/>
<path d="M247.824 386.436H254.76L247.824 379.512V386.436Z" fill="#4779A8" stroke="#263238" stroke-linecap="round" stroke-linejoin="round"/>
<path d="M308.64 381.06H305.556V379.68H310.128V381.012L307.728 389.412H306.168L308.64 381.06Z" fill="#263238"/>
<path d="M311.088 387.084V381.984C311.088 381.37 311.332 380.781 311.766 380.346C312.201 379.912 312.79 379.668 313.404 379.668C314.018 379.668 314.607 379.912 315.042 380.346C315.476 380.781 315.72 381.37 315.72 381.984V387.084C315.72 387.698 315.476 388.287 315.042 388.722C314.607 389.156 314.018 389.4 313.404 389.4C312.79 389.4 312.201 389.156 311.766 388.722C311.332 388.287 311.088 387.698 311.088 387.084ZM314.196 387.18V381.888C314.196 381.192 313.884 380.928 313.404 380.928C312.924 380.928 312.612 381.192 312.612 381.888V387.18C312.612 387.876 312.924 388.128 313.404 388.128C313.884 388.128 314.196 387.876 314.196 387.18Z" fill="#263238"/>
<path d="M316.656 383.519V381.119C316.638 380.915 316.662 380.709 316.727 380.514C316.793 380.32 316.898 380.142 317.036 379.99C317.175 379.839 317.343 379.718 317.531 379.635C317.718 379.552 317.921 379.51 318.126 379.51C318.331 379.51 318.534 379.552 318.721 379.635C318.909 379.718 319.077 379.839 319.216 379.99C319.354 380.142 319.459 380.32 319.525 380.514C319.59 380.709 319.614 380.915 319.596 381.119V383.519C319.614 383.723 319.59 383.929 319.525 384.123C319.459 384.317 319.354 384.496 319.216 384.647C319.077 384.799 318.909 384.92 318.721 385.002C318.534 385.085 318.331 385.128 318.126 385.128C317.921 385.128 317.718 385.085 317.531 385.002C317.343 384.92 317.175 384.799 317.036 384.647C316.898 384.496 316.793 384.317 316.727 384.123C316.662 383.929 316.638 383.723 316.656 383.519ZM318.624 383.591V381.023C318.624 380.591 318.432 380.411 318.132 380.411C317.832 380.411 317.628 380.591 317.628 381.023V383.591C317.628 384.011 317.808 384.191 318.132 384.191C318.456 384.191 318.624 383.999 318.624 383.591ZM321.6 379.679H322.572L318.816 389.375H317.844L321.6 379.679ZM320.868 387.971V385.571C320.85 385.367 320.874 385.161 320.939 384.966C321.005 384.772 321.11 384.594 321.248 384.442C321.387 384.291 321.555 384.17 321.743 384.087C321.93 384.004 322.133 383.962 322.338 383.962C322.543 383.962 322.746 384.004 322.933 384.087C323.121 384.17 323.289 384.291 323.428 384.442C323.566 384.594 323.671 384.772 323.737 384.966C323.802 385.161 323.826 385.367 323.808 385.571V387.971C323.826 388.175 323.802 388.381 323.737 388.575C323.671 388.769 323.566 388.948 323.428 389.099C323.289 389.251 323.121 389.372 322.933 389.454C322.746 389.537 322.543 389.58 322.338 389.58C322.133 389.58 321.93 389.537 321.743 389.454C321.555 389.372 321.387 389.251 321.248 389.099C321.11 388.948 321.005 388.769 320.939 388.575C320.874 388.381 320.85 388.175 320.868 387.971ZM322.836 388.031V385.475C322.836 385.043 322.644 384.863 322.332 384.863C322.02 384.863 321.84 385.043 321.84 385.475V388.031C321.84 388.463 322.02 388.643 322.332 388.643C322.644 388.643 322.884 388.463 322.884 388.031H322.836Z" fill="#263238"/>
<path d="M438.564 514.307L437.892 534.107L448.14 534.599L451.872 514.307H438.564Z" fill="white" stroke="#263238" stroke-linecap="round" stroke-linejoin="round"/>
<path d="M418.512 540.178C421.968 538.978 427.944 536.938 430.188 535.534C431.988 534.406 434.496 530.734 436.356 529.702C436.746 529.533 437.167 529.446 437.592 529.446C438.017 529.446 438.438 529.533 438.828 529.702C439.13 530.038 439.326 530.455 439.392 530.902C439.443 531.096 439.551 531.27 439.701 531.403C439.85 531.536 440.036 531.622 440.235 531.651C440.433 531.679 440.635 531.648 440.816 531.562C440.997 531.476 441.149 531.338 441.252 531.166C441.539 530.603 441.949 530.11 442.452 529.726C444.036 528.838 448.32 528.586 449.724 529.726C452.052 531.634 452.892 538.21 453.324 541.174C453.432 541.822 453.324 545.422 453.324 545.422H415.932V543.778C415.927 542.983 416.174 542.206 416.637 541.559C417.101 540.913 417.757 540.429 418.512 540.178Z" fill="white" stroke="#263238" stroke-linecap="round" stroke-linejoin="round"/>
<path d="M453.348 545.399H415.932V543.755C415.931 543.346 416 542.94 416.136 542.555H453.396C453.396 543.815 453.348 545.399 453.348 545.399Z" fill="#858585" stroke="#263238" stroke-linecap="round" stroke-linejoin="round"/>
<path d="M445.032 360.803L437.172 521.843L451.572 524.243C451.572 524.243 460.644 477.635 461.748 462.371C462.012 458.771 461.748 447.911 461.748 447.911L471.936 397.763C471.936 397.763 478.644 391.571 479.424 362.087L445.032 360.803Z" fill="#263238" stroke="#263238" stroke-linecap="round" stroke-linejoin="round"/>
<path opacity="0.7" d="M466.344 423.13C466.896 420.802 467.544 418.51 468.324 416.23C468.444 415.906 468.588 415.606 468.732 415.306C469.09 411.898 469.639 408.513 470.376 405.166C470.63 403.916 471.303 402.79 472.284 401.974C472.564 401.342 472.982 400.779 473.507 400.329C474.033 399.878 474.652 399.551 475.32 399.37C474.879 396.272 474.205 393.211 473.304 390.214C472.392 387.07 470.904 384.058 470.46 380.806C470.34 379.966 469.86 379.09 470.016 378.994C468.984 378.592 467.975 378.136 466.992 377.626L466.812 377.482C465.892 392.681 465.736 407.916 466.344 423.13Z" fill="black"/>
<path d="M444.348 452.914C446.897 452.324 449.237 451.05 451.116 449.23" stroke="#7F7F7F" stroke-width="0.75" stroke-linecap="round" stroke-linejoin="round"/>
<path d="M435.276 524.903L452.688 526.331L453.984 520.691L435.276 519.227V524.903Z" fill="#4779A8" stroke="#263238" stroke-linecap="round" stroke-linejoin="round"/>
<path d="M485.556 511.872L489.264 535.02L498.744 534.276L498.432 510.576L485.556 511.872Z" fill="white" stroke="#263238" stroke-linecap="round" stroke-linejoin="round"/>
<path d="M469.68 540.179C473.148 538.979 479.124 536.939 481.356 535.535C483.156 534.407 485.676 530.735 487.524 529.703C487.916 529.533 488.339 529.446 488.766 529.446C489.193 529.446 489.616 529.533 490.008 529.703C490.225 529.927 490.378 530.204 490.452 530.507C490.516 530.736 490.648 530.942 490.829 531.096C491.011 531.251 491.234 531.348 491.471 531.375C491.708 531.402 491.948 531.358 492.16 531.248C492.371 531.138 492.546 530.968 492.66 530.759C492.904 530.345 493.231 529.986 493.62 529.703C495.204 528.815 499.488 528.563 500.892 529.703C503.22 531.611 504.06 538.187 504.492 541.151C504.588 541.799 504.492 545.399 504.492 545.399H467.112V543.755C467.111 542.965 467.359 542.194 467.819 541.553C468.28 540.911 468.931 540.43 469.68 540.179Z" fill="white" stroke="#263238" stroke-linecap="round" stroke-linejoin="round"/>
<path d="M504.528 545.399H467.112V543.755C467.108 543.347 467.172 542.941 467.304 542.555H504.564C504.564 543.815 504.528 545.399 504.528 545.399Z" fill="#858585" stroke="#263238" stroke-linecap="round" stroke-linejoin="round"/>
<path d="M465.072 365.662C465.072 365.662 468.672 386.506 471.984 403.99C474.24 415.846 474.384 450.874 474.384 450.874L485.88 523.198L500.052 521.29C500.052 521.29 500.22 476.77 498.624 462.49C498.264 459.31 497.676 449.866 497.676 449.866C497.676 449.866 498.216 412.09 501.132 399.466C503.22 390.466 507.372 381.01 502.332 362.566L465.072 365.662Z" fill="#263238" stroke="#263238" stroke-linecap="round" stroke-linejoin="round"/>
<path d="M477.492 452.916C478.934 454.911 481.078 456.287 483.492 456.768" stroke="#7F7F7F" stroke-width="0.75" stroke-linecap="round" stroke-linejoin="round"/>
<path d="M483.504 519.946L484.32 525.25L501.888 523.366L501.768 517.654L483.504 519.946Z" fill="#4779A8" stroke="#263238" stroke-linecap="round" stroke-linejoin="round"/>
<path d="M398.196 269.243L394.32 262.727C394.32 262.727 393.384 252.083 391.224 250.007C389.064 247.931 384.264 241.823 383.58 243.023C382.5 244.943 386.496 248.363 386.496 248.363L387.228 252.323C387.228 252.323 380.76 247.667 378.936 247.667C378.936 247.667 373.776 241.559 371.952 241.547C370.128 241.535 372.696 245.771 372.696 245.771C372.696 245.771 370.956 244.439 370.62 245.267C370.284 246.095 372.864 248.927 372.864 248.927C372.864 248.927 371.868 250.007 373.368 252.323C373.161 253.071 373.163 253.862 373.374 254.609C373.586 255.356 373.999 256.031 374.568 256.559C376.56 258.143 387.264 264.203 387.264 264.203L390.864 272.675L398.196 269.243Z" fill="#858585" stroke="#263238" stroke-linecap="round" stroke-linejoin="round"/>
<path d="M374.28 249.096C374.28 249.096 375.696 249.672 375.108 251.748C375.673 252.551 375.99 253.502 376.02 254.484C376.164 256.308 385.404 255.408 387.9 259.284" stroke="#263238" stroke-width="0.75" stroke-linecap="round" stroke-linejoin="round"/>
<path d="M374.28 246.852L378.048 250.836" stroke="#263238" stroke-width="0.75" stroke-linecap="round" stroke-linejoin="round"/>
<path d="M438.204 267.599L413.472 286.871L396.528 263.783L387.9 268.103C387.9 268.103 401.46 305.567 411.72 305.567C422.628 305.567 443.364 288.047 443.364 288.047C443.364 288.047 444.672 284.699 438.204 267.599Z" fill="#4779A8" stroke="#263238" stroke-linecap="round" stroke-linejoin="round"/>
<path d="M414.408 288.707C414.986 289.936 415.417 291.229 415.692 292.559" stroke="#263238" stroke-width="0.75" stroke-linecap="round" stroke-linejoin="round"/>
<path d="M438.204 267.599L443.472 337.331V366.299C443.472 366.299 473.82 369.899 503.76 365.531L502.728 335.711L505.764 269.243C505.764 269.243 491.868 259.199 470.532 259.199C449.196 259.199 438.204 267.599 438.204 267.599Z" fill="#4779A8" stroke="#263238" stroke-linecap="round" stroke-linejoin="round"/>
<path opacity="0.2" d="M503.76 365.531L502.8 338.807C502.284 351.683 488.076 346.847 484.86 346.247C481.416 345.599 477.456 356.951 477.456 356.951C477.456 356.951 464.256 359.219 453.924 358.415C443.592 357.611 443.436 348.179 443.436 348.179V366.299C443.436 366.299 473.82 369.947 503.76 365.531Z" fill="black"/>
<path d="M457.692 336.66C470.419 335.292 482.632 330.893 493.308 323.832L457.692 336.66Z" fill="#4779A8"/>
<path d="M457.692 336.66C470.419 335.292 482.632 330.893 493.308 323.832" stroke="#263238" stroke-width="0.75" stroke-linecap="round" stroke-linejoin="round"/>
<path d="M452.4 337.019C452.4 337.019 453.42 337.019 455.22 336.887L452.4 337.019Z" fill="#4779A8"/>
<path d="M452.4 337.019C452.4 337.019 453.42 337.019 455.22 336.887" stroke="#263238" stroke-width="0.75" stroke-linecap="round" stroke-linejoin="round"/>
<path d="M462.672 270.96L457.416 269.052L452.4 273.9L456.072 258.9L460.5 255.42L462.756 256.848L472.836 256.464L480.672 257.1L484.404 255.948L488.388 259.932L479.52 276.888L475.8 270.468L467.592 271.488L462.672 270.96Z" fill="#4779A8"/>
<path opacity="0.5" d="M462.672 270.96L457.416 269.052L452.4 273.9L456.072 258.9L460.5 255.42L462.756 256.848L472.836 256.464L480.672 257.1L484.404 255.948L488.388 259.932L479.52 276.888L475.8 270.468L467.592 271.488L462.672 270.96Z" fill="white"/>
<path d="M462.672 270.96L457.416 269.052L452.4 273.9L456.072 258.9L460.5 255.42L462.756 256.848L472.836 256.464L480.672 257.1L484.404 255.948L488.388 259.932L479.52 276.888L475.8 270.468L467.592 271.488L462.672 270.96Z" stroke="#263238" stroke-linecap="round" stroke-linejoin="round"/>
<path d="M480.132 259.883L478.932 241.547L467.34 243.599L464.94 252.215L462.54 259.679L461.4 259.799L464.556 276.935L481.284 260.135L480.132 259.883Z" fill="#858585"/>
<path d="M451.632 242.818C451.632 247.474 452.352 257.89 458.748 259.102C465.372 260.362 472.968 252.826 475.692 249.814C476.374 249.066 476.908 248.194 477.264 247.246L478.716 243.394C479.664 243.467 480.613 243.267 481.452 242.818H451.632Z" fill="#263238" stroke="#263238" stroke-width="0.5" stroke-linecap="round" stroke-linejoin="round"/>
<path d="M480.132 259.883L478.932 241.547L467.34 243.599L464.94 252.215L462.54 259.679L461.4 259.799L464.556 276.935L481.284 260.135L480.132 259.883Z" stroke="#263238" stroke-linecap="round" stroke-linejoin="round"/>
<path d="M459.36 219.275C459.36 219.275 453.876 215.099 456.564 211.811C457.968 210.107 459.792 212.351 459.792 212.351C459.792 212.351 458.82 207.119 462.72 206.351C466.32 205.679 466.176 209.807 466.176 209.807C466.176 209.807 468.036 206.267 471.288 207.059C473.88 207.683 472.884 211.355 472.884 211.355C472.884 211.355 476.34 207.059 479.916 208.955C483 210.575 480.456 214.463 480.456 214.463C480.456 214.463 484.128 213.167 486.18 215.231C488.232 217.295 486.18 220.031 486.18 220.031C486.18 220.031 490.224 220.031 490.404 223.055C490.584 226.079 487.272 226.655 487.272 226.655C487.272 226.655 491.952 228.167 491.988 231.839C492.024 235.511 488.892 234.335 488.892 234.335C488.892 234.335 490.836 237.791 489.216 239.627C489.034 239.873 488.797 240.073 488.524 240.21C488.251 240.348 487.95 240.419 487.644 240.419C487.338 240.419 487.037 240.348 486.764 240.21C486.491 240.073 486.254 239.873 486.072 239.627C486.072 239.627 488.1 243.983 485.532 245.255C483.696 246.155 482.616 243.947 482.616 243.947C482.616 243.947 481.068 247.715 479.196 245.411C477.324 243.107 468.036 225.359 468.036 225.359L459.36 219.275Z" fill="#263238" stroke="#263238" stroke-width="0.75" stroke-linecap="round" stroke-linejoin="round"/>
<path d="M457.776 219.444L454.32 226.644C453.966 227.394 453.781 228.214 453.78 229.044V231.3L451.872 236.1C451.774 236.35 451.694 236.607 451.632 236.868C451.02 239.424 448.104 253.152 455.232 255.948C461.52 258.42 470.376 252.456 473.628 250.008C474.439 249.398 475.124 248.635 475.644 247.764L477.804 244.26C478.721 244.534 479.701 244.511 480.604 244.194C481.507 243.877 482.287 243.283 482.832 242.496C484.764 239.724 486.996 238.224 484.344 235.728C481.692 233.232 479.244 237.228 479.244 237.228L479.604 230.184L476.532 224.784L476.376 221.388C476.376 221.388 466.32 220.272 459.576 216.588L457.776 219.444Z" fill="white" stroke="#263238" stroke-width="0.75" stroke-linecap="round" stroke-linejoin="round"/>
<path d="M457.776 219.444L454.32 226.644C453.966 227.394 453.781 228.214 453.78 229.044V231.3L451.872 236.1C451.774 236.35 451.694 236.607 451.632 236.868C451.02 239.424 448.104 253.152 455.232 255.948C461.52 258.42 470.376 252.456 473.628 250.008C474.439 249.398 475.124 248.635 475.644 247.764L477.804 244.26C478.721 244.534 479.701 244.511 480.604 244.194C481.507 243.877 482.287 243.283 482.832 242.496C484.764 239.724 486.996 238.224 484.344 235.728C481.692 233.232 479.244 237.228 479.244 237.228L479.604 230.184L476.532 224.784L476.376 221.388C476.376 221.388 466.32 220.272 459.576 216.588L457.776 219.444Z" fill="#858585" stroke="#263238" stroke-linecap="round" stroke-linejoin="round"/>
<path d="M463.896 244.031C461.952 247.787 459.312 247.163 457.656 246.227" stroke="#263238" stroke-width="0.75" stroke-linecap="round" stroke-linejoin="round"/>
<path d="M463.932 235.499C463.668 236.351 463.128 236.939 462.732 236.819C462.336 236.699 462.204 235.895 462.468 235.043C462.732 234.191 463.272 233.591 463.668 233.723C464.064 233.855 464.196 234.647 463.932 235.499Z" fill="#263238"/>
<path d="M455.916 233.015C455.652 233.879 455.112 234.467 454.716 234.335C454.32 234.203 454.188 233.411 454.452 232.559C454.716 231.707 455.268 231.119 455.652 231.251C456.036 231.383 456.18 232.163 455.916 233.015Z" fill="#263238"/>
<path d="M455.34 227.472C455.658 227.383 455.991 227.36 456.318 227.406C456.645 227.451 456.959 227.563 457.24 227.736C457.522 227.908 457.765 228.137 457.954 228.407C458.143 228.678 458.275 228.984 458.34 229.308" stroke="#263238" stroke-width="0.75" stroke-linecap="round" stroke-linejoin="round"/>
<path d="M462.24 230.747C462.24 230.747 465.036 227.807 466.92 230.927" stroke="#263238" stroke-width="0.75" stroke-linecap="round" stroke-linejoin="round"/>
<path d="M458.4 233.771C458.149 234.918 457.609 235.982 456.832 236.861C456.055 237.741 455.067 238.408 453.96 238.799L456.144 242.267" stroke="#263238" stroke-width="0.75" stroke-linecap="round" stroke-linejoin="round"/>
<path d="M472.332 371.352L471.72 375.06C471.632 375.672 471.784 376.294 472.144 376.798C472.504 377.301 473.044 377.645 473.652 377.76L512.136 384.072C512.748 384.16 513.371 384.008 513.874 383.648C514.377 383.288 514.722 382.748 514.836 382.14L515.436 378.432L472.332 371.352Z" fill="#4779A8" stroke="#263238" stroke-width="0.75" stroke-linecap="round" stroke-linejoin="round"/>
<path d="M517.16 355.066L478.236 348.678C477.079 348.488 475.986 349.272 475.796 350.43L471.939 373.936C471.749 375.093 472.533 376.185 473.691 376.375L512.614 382.763C513.772 382.953 514.864 382.169 515.054 381.011L518.912 357.506C519.102 356.348 518.317 355.256 517.16 355.066Z" fill="#4779A8"/>
<path opacity="0.5" d="M517.16 355.066L478.236 348.678C477.079 348.488 475.986 349.272 475.796 350.43L471.939 373.936C471.749 375.093 472.533 376.185 473.691 376.375L512.614 382.763C513.772 382.953 514.864 382.169 515.054 381.011L518.912 357.506C519.102 356.348 518.317 355.256 517.16 355.066Z" fill="white"/>
<path d="M517.16 355.066L478.236 348.678C477.079 348.488 475.986 349.272 475.796 350.43L471.939 373.936C471.749 375.093 472.533 376.185 473.691 376.375L512.614 382.763C513.772 382.953 514.864 382.169 515.054 381.011L518.912 357.506C519.102 356.348 518.317 355.256 517.16 355.066Z" stroke="#263238" stroke-linecap="round" stroke-linejoin="round"/>
<path d="M502.14 359.447L500.016 366.647L492.816 371.795C491.797 374.947 490.595 378.036 489.216 381.047C489.124 381.215 489.077 381.403 489.078 381.595C489.079 381.786 489.128 381.974 489.222 382.141C489.316 382.307 489.45 382.448 489.613 382.548C489.775 382.649 489.961 382.706 490.152 382.715C491.148 382.715 492.312 382.247 492.948 380.315C492.948 380.315 493.224 384.107 495.564 381.791C495.564 381.791 496.992 385.463 499.224 382.571C499.224 382.571 504.396 383.339 505.224 379.607C506.052 375.875 507.276 369.299 507.276 369.299L510.564 361.583L502.14 359.447Z" fill="#858585" stroke="#263238" stroke-linecap="round" stroke-linejoin="round"/>
<path d="M492.9 378.839L493.716 373.283" stroke="#263238" stroke-width="0.75" stroke-linecap="round" stroke-linejoin="round"/>
<path d="M494.184 379.199C494.184 379.199 494.748 381.035 496.02 380.735C497.292 380.435 499.104 381.851 503.064 380.183" stroke="#263238" stroke-width="0.75" stroke-linecap="round" stroke-linejoin="round"/>
<path d="M505.764 269.244C505.764 269.244 523.764 319.26 523.428 326.568C523.092 333.876 510.288 365.664 510.288 365.664L500.4 362.52L507 325.236L501.084 299.328C501.084 299.328 499.74 280.332 505.764 269.244Z" fill="#4779A8" stroke="#263238" stroke-linecap="round" stroke-linejoin="round"/>
<path d="M509.22 324.408C509.884 323.9 510.653 323.547 511.471 323.374C512.289 323.202 513.136 323.215 513.948 323.412" stroke="#263238" stroke-width="0.75" stroke-linecap="round" stroke-linejoin="round"/>
<path d="M497.52 363.311C497.162 362.836 496.893 362.299 496.728 361.727C496.036 361.714 495.365 361.963 494.849 362.425C494.334 362.887 494.013 363.527 493.95 364.216C493.888 364.905 494.089 365.592 494.513 366.139C494.937 366.686 495.553 367.052 496.236 367.163C496.954 367.281 497.689 367.11 498.28 366.687C498.872 366.264 499.272 365.624 499.392 364.907C498.62 364.579 497.966 364.022 497.52 363.311Z" fill="white"/>
<path d="M146.328 257.747L148.512 268.511L124.248 269.531L128.46 239.699L144.804 241.595L146.328 257.747Z" fill="white"/>
<path d="M157.2 241.416L136.908 247.416C137.161 249.742 137.644 252.037 138.348 254.268C139.548 257.724 146.856 263.868 151.548 263.796C156.24 263.724 156.768 248.772 156.768 248.772L159.6 247.2C159.762 247.108 159.903 246.982 160.013 246.831C160.123 246.681 160.2 246.508 160.238 246.326C160.277 246.143 160.276 245.955 160.237 245.772C160.197 245.59 160.119 245.418 160.008 245.268L157.2 241.416Z" fill="#263238" stroke="#263238" stroke-width="0.75" stroke-linecap="round" stroke-linejoin="round"/>
<path d="M146.328 257.747L148.512 268.511L124.248 269.531L128.46 239.699L144.804 241.595L146.328 257.747Z" stroke="#263238" stroke-linecap="round" stroke-linejoin="round"/>
<path d="M147.444 219.828C147.444 219.828 153.336 221.028 152.736 214.632C152.136 208.236 141.156 212.148 135.432 212.868C129.708 213.588 111.228 220.488 117.768 231.384C117.768 231.384 113.916 237.528 127.788 247.836C127.788 247.836 134.376 244.74 137.988 249.264L140.808 243.768L148.008 231.12L147.444 219.828Z" fill="#263238" stroke="#263238" stroke-linecap="round" stroke-linejoin="round"/>
<path d="M147.012 218.868C147.012 218.868 152.652 222.012 155.892 218.076C155.892 218.076 156.252 226.476 147.012 218.868Z" fill="#263238" stroke="#263238" stroke-linecap="round" stroke-linejoin="round"/>
<path d="M147.6 217.992C147.6 217.992 156 226.836 155.712 232.896V238.428L160.152 243.42C160.276 243.548 160.37 243.702 160.427 243.871C160.485 244.039 160.504 244.219 160.483 244.396C160.462 244.572 160.403 244.743 160.308 244.894C160.213 245.044 160.086 245.172 159.936 245.268L157.356 247.056C157.356 247.056 158.112 261.216 153.672 261.72C149.232 262.224 141.84 256.92 140.364 253.8C139.252 250.938 138.448 247.965 137.964 244.932C136.672 244.582 135.514 243.853 134.639 242.84C133.764 241.826 133.213 240.574 133.056 239.244C132.54 234.588 137.232 234.72 138.444 237.768L139.428 240.252L142.476 240.144C142.476 240.144 140.736 235.752 141.768 234.456C142.8 233.16 146.856 230.004 144.996 226.992C143.136 223.98 143.76 218.856 147.6 217.992Z" fill="white" stroke="#263238" stroke-linecap="round" stroke-linejoin="round"/>
<path d="M152.4 249.828C152.749 250.448 153.285 250.943 153.931 251.243C154.577 251.542 155.301 251.631 156 251.496" stroke="#263238" stroke-width="0.75" stroke-linecap="round" stroke-linejoin="round"/>
<path d="M150.192 232.933C150.192 232.933 152.1 230.281 153.912 232.705" stroke="#263238" stroke-linecap="round" stroke-linejoin="round"/>
<path d="M153.204 238.464C153.204 239.292 152.88 239.976 152.436 239.988C151.992 240 151.608 239.34 151.584 238.512C151.56 237.684 151.908 237 152.352 236.988C152.796 236.976 153.18 237.6 153.204 238.464Z" fill="#263238"/>
<path d="M114.72 504.287L111.216 534.443L121.644 536.051L127.392 506.243L114.72 504.287Z" fill="white" stroke="#263238" stroke-linecap="round" stroke-linejoin="round"/>
<path d="M109.812 371.039C109.812 371.039 110.232 388.511 116.4 400.799L117.804 447.167L110.688 521.879L126.516 523.391L140.916 445.247L145.716 374.447L109.812 371.039Z" fill="#4779A8" stroke="#263238" stroke-linecap="round" stroke-linejoin="round"/>
<path opacity="0.2" d="M143.484 408.491L142.164 400.175L136.164 374.003L135.06 373.439L109.86 371.039C109.86 371.039 109.86 373.907 110.424 378.143L122.868 385.199C123.161 389.63 124.162 393.985 125.832 398.099C125.982 398.458 126.036 398.85 125.991 399.236C125.945 399.623 125.801 399.991 125.572 400.306C125.343 400.62 125.037 400.87 124.683 401.033C124.329 401.195 123.94 401.263 123.552 401.231C122.268 401.135 121.152 401.231 121.152 402.071C121.152 404.015 130.536 410.291 130.536 410.291C130.536 410.291 140.004 440.891 139.668 452.195L140.952 445.235L143.484 408.491Z" fill="black"/>
<path d="M146.544 506.268L147.684 536.604H158.232L159.36 506.268H146.544Z" fill="white" stroke="#263238" stroke-linecap="round" stroke-linejoin="round"/>
<path d="M175.032 540.875C171.55 539.814 168.162 538.466 164.904 536.843C163.344 535.871 161.16 532.691 159.552 531.791C159.215 531.646 158.851 531.571 158.484 531.571C158.117 531.571 157.753 531.646 157.416 531.791C156.648 532.415 156.612 535.667 156.612 535.667C156.612 535.667 155.256 532.355 154.272 531.791C152.904 531.023 149.184 530.795 147.972 531.791C145.956 533.435 145.224 539.147 144.828 541.715C144.732 542.279 144.828 545.399 144.828 545.399H177.228V543.971C177.23 543.291 177.02 542.626 176.626 542.071C176.232 541.516 175.675 541.098 175.032 540.875Z" fill="#263238" stroke="#263238" stroke-linecap="round" stroke-linejoin="round"/>
<path d="M168.612 372.48L166.02 442.572L161.688 522.6H145.2C145.2 522.6 141.744 461.172 142.608 443.4L133.956 402.3C133.956 402.3 124.872 390.18 127.032 375.48L168.612 372.48Z" fill="#4779A8" stroke="#263238" stroke-linecap="round" stroke-linejoin="round"/>
<path d="M143.736 516.648L144.276 526.273H162.336L163.74 516.648H143.736Z" fill="#4779A8" stroke="#263238" stroke-linecap="round" stroke-linejoin="round"/>
<path d="M109.368 515.82L108.996 525.444L126.972 527.16L129.288 517.716L109.368 515.82Z" fill="#4779A8" stroke="#263238" stroke-linecap="round" stroke-linejoin="round"/>
<path d="M195.948 326.34L171 310.476L197.292 284.184L222.252 300.048L195.948 326.34Z" fill="#4779A8" stroke="#263238" stroke-linecap="round" stroke-linejoin="round"/>
<path d="M197.376 320.916L177.312 308.16L198.456 287.016L218.52 299.772L197.376 320.916Z" fill="white" stroke="#263238" stroke-width="0.75" stroke-linecap="round" stroke-linejoin="round"/>
<path d="M198.84 299.016L202.344 295.512L197.844 292.656L194.34 296.148L198.84 299.016Z" stroke="#263238" stroke-width="0.75" stroke-linecap="round" stroke-linejoin="round"/>
<path d="M193.404 304.464L196.908 300.96L192.396 298.092L188.904 301.596L193.404 304.464Z" stroke="#263238" stroke-width="0.75" stroke-linecap="round" stroke-linejoin="round"/>
<path d="M187.776 310.093L191.268 306.589L186.768 303.721L183.264 307.225L187.776 310.093Z" stroke="#263238" stroke-width="0.75" stroke-linecap="round" stroke-linejoin="round"/>
<path d="M207.42 288.275L204.108 291.599C203.951 291.756 203.832 291.945 203.758 292.154C203.684 292.363 203.659 292.586 203.683 292.806C203.707 293.026 203.781 293.238 203.898 293.426C204.015 293.614 204.173 293.773 204.36 293.891L209.16 296.975C209.689 297.313 210.317 297.46 210.941 297.392C211.565 297.325 212.147 297.046 212.592 296.603L215.652 293.531L207.42 288.275Z" fill="#858585" stroke="#263238" stroke-linecap="round" stroke-linejoin="round"/>
<path d="M118.644 267.792L122.976 258.276C122.976 258.276 148.068 255.468 154.764 276.444L118.644 267.792Z" fill="#858585" stroke="#263238" stroke-linecap="round" stroke-linejoin="round"/>
<path d="M104.4 275.904C104.4 275.904 98.208 323.34 99.852 340.152C101.148 353.448 109.908 364.704 109.908 364.704L122.892 359.616L116.292 340.152C116.292 340.152 118.344 305.112 120.288 296.952L104.4 275.904Z" fill="#858585" stroke="#263238" stroke-linecap="round" stroke-linejoin="round"/>
<path d="M106.152 362.376L109.812 366.756L124.812 360.912L122.868 355.068L106.152 362.376Z" fill="#858585" stroke="#263238" stroke-linecap="round" stroke-linejoin="round"/>
<path d="M104.4 275.904C104.4 275.904 102.444 303.156 108 322.308C113.556 341.46 108 372.912 108 372.912C108 372.912 133.572 389.46 172.8 376.8C172.8 376.8 167.94 283.68 161.448 278.496C154.956 273.312 118.32 253.524 104.4 275.904Z" fill="#858585" stroke="#263238" stroke-linecap="round" stroke-linejoin="round"/>
<path opacity="0.2" d="M172.8 376.799C172.8 376.799 171.132 344.879 168.456 317.375C162.78 303.599 153.504 285.251 153.012 311.015C152.292 348.275 175.224 346.079 157.056 352.571C152.994 354.11 148.642 354.733 144.311 354.397C139.98 354.061 135.776 352.774 132 350.627C131.698 350.472 131.352 350.426 131.02 350.494C130.688 350.563 130.389 350.744 130.173 351.006C129.958 351.267 129.838 351.595 129.834 351.935C129.83 352.274 129.942 352.604 130.152 352.871C134.712 358.667 141.636 362.279 146.952 364.355C147.432 364.538 147.838 364.876 148.106 365.314C148.375 365.752 148.49 366.267 148.436 366.778C148.381 367.289 148.159 367.767 147.803 368.139C147.448 368.51 146.98 368.753 146.472 368.831C129.36 371.363 115.944 362.267 109.788 356.975C109.068 366.143 107.88 372.911 107.88 372.911C107.88 372.911 133.572 389.459 172.8 376.799Z" fill="black"/>
<path d="M161.472 278.508C163.811 279.581 165.841 281.229 167.373 283.298C168.904 285.367 169.888 287.789 170.232 290.34C171.528 299.268 179.832 326.688 179.832 326.688L182.592 324.9C184.896 325.935 186.794 327.701 187.992 329.925C189.19 332.149 189.62 334.706 189.216 337.2C189.216 337.2 182.472 350.4 175.104 347.916C167.532 345.348 163.296 339.156 159.504 329.028C157.5 323.628 151.716 307.356 151.716 307.356" fill="#858585"/>
<path d="M161.472 278.508C163.811 279.581 165.841 281.229 167.373 283.298C168.904 285.367 169.888 287.789 170.232 290.34C171.528 299.268 179.832 326.688 179.832 326.688L182.592 324.9C184.896 325.935 186.794 327.701 187.992 329.925C189.19 332.149 189.62 334.706 189.216 337.2C189.216 337.2 182.472 350.4 175.104 347.916C167.532 345.348 163.296 339.156 159.504 329.028C157.5 323.628 151.716 307.356 151.716 307.356" stroke="#263238" stroke-linecap="round" stroke-linejoin="round"/>
<path d="M183.144 334.631C183.187 335.336 183.155 336.044 183.048 336.743" stroke="#263238" stroke-width="0.75" stroke-linecap="round" stroke-linejoin="round"/>
<path d="M178.188 340.151C178.188 340.151 180.456 336.551 180.132 328.787C181.222 329.613 182.055 330.733 182.532 332.015" stroke="#263238" stroke-width="0.75" stroke-linecap="round" stroke-linejoin="round"/>
<path d="M184.404 324.143L193.056 317.975C193.488 316.057 194.43 314.292 195.782 312.864C197.133 311.436 198.845 310.4 200.736 309.863C200.736 309.863 204.732 303.263 207 304.031C209.268 304.799 204.3 307.487 203.868 310.943L205.704 313.403C205.704 313.403 211.704 312.347 213.168 310.403C213.168 310.403 212.844 314.519 210.468 315.203C210.468 315.203 210.468 318.335 208.848 318.227L196.944 321.587L190.02 334.511L184.404 324.143Z" fill="white" stroke="#263238" stroke-linecap="round" stroke-linejoin="round"/>
<path d="M148.98 354.143C150.348 354.017 151.704 353.784 153.036 353.447" stroke="#263238" stroke-width="0.75" stroke-linecap="round" stroke-linejoin="round"/>
<path d="M114.972 334.477C114.972 334.477 127.728 353.989 146.172 354.253" stroke="#263238" stroke-width="0.75" stroke-linecap="round" stroke-linejoin="round"/>
<path d="M180.672 324.359C180.672 324.359 189.696 331.175 188.832 339.395L192.084 333.167C192.084 333.167 191.976 327.923 184.512 322.367L180.672 324.359Z" fill="#858585" stroke="#263238" stroke-linecap="round" stroke-linejoin="round"/>
<path d="M144.828 545.399H177.228V543.971C177.228 543.621 177.171 543.272 177.06 542.939H144.78C144.78 544.031 144.828 545.399 144.828 545.399Z" fill="white" stroke="#263238" stroke-width="0.75" stroke-linecap="round" stroke-linejoin="round"/>
<path d="M138 540.875C134.518 539.814 131.13 538.466 127.872 536.843C126.312 535.871 124.128 532.691 122.532 531.791C122.193 531.646 121.827 531.571 121.458 531.571C121.089 531.571 120.723 531.646 120.384 531.791C119.616 532.415 119.58 535.667 119.58 535.667C119.58 535.667 118.236 532.355 117.24 531.791C115.872 531.023 112.152 530.795 110.94 531.791C108.924 533.435 108.192 539.147 107.796 541.715C107.7 542.279 107.796 545.399 107.796 545.399H140.196V543.971C140.198 543.291 139.988 542.626 139.594 542.071C139.201 541.516 138.643 541.098 138 540.875Z" fill="#263238" stroke="#263238" stroke-linecap="round" stroke-linejoin="round"/>
<path d="M107.772 545.399H140.172V543.971C140.172 543.621 140.115 543.272 140.004 542.939H107.724C107.724 544.031 107.772 545.399 107.772 545.399Z" fill="white" stroke="#263238" stroke-width="0.75" stroke-linecap="round" stroke-linejoin="round"/>
<path d="M155.568 443.867C155.568 443.867 152.124 449.807 146.544 447.539" stroke="#263238" stroke-width="0.75" stroke-linecap="round" stroke-linejoin="round"/>
<path d="M131.556 445.955C131.556 445.955 125.376 451.235 120.264 447.539" stroke="#263238" stroke-width="0.75" stroke-linecap="round" stroke-linejoin="round"/>
<path d="M196.044 292.236L196.908 296.532H204.564L198.336 295.08L198.636 292.152L196.044 292.236Z" fill="#4779A8"/>
</svg>
