<svg width="500" height="500" viewBox="0 0 500 500" fill="none" xmlns="http://www.w3.org/2000/svg">
<path d="M446.33 145.29C446.33 145.29 365.93 29.5404 265.55 17.2904C176.94 6.41045 94.69 48.7905 83.24 140.35C79.16 173 71.9 209.07 59 238.83C44.53 272.21 19.84 300 38.75 364.17C57.66 428.34 137.52 486.29 195.57 486.17C253.62 486.05 308.15 433.28 353.14 385.29C398.13 337.3 541.4 292.17 446.33 145.29Z" fill="#4779A8"/>
<path opacity="0.7" d="M446.33 145.29C446.33 145.29 365.93 29.5404 265.55 17.2904C176.94 6.41045 94.69 48.7905 83.24 140.35C79.16 173 71.9 209.07 59 238.83C44.53 272.21 19.84 300 38.75 364.17C57.66 428.34 137.52 486.29 195.57 486.17C253.62 486.05 308.15 433.28 353.14 385.29C398.13 337.3 541.4 292.17 446.33 145.29Z" fill="white"/>
<path opacity="0.3" d="M313.21 306.851L320.49 337.491L289.85 344.771L294.92 366.091L325.56 358.811L332.84 389.451L354.15 384.381L346.87 353.741L377.51 346.461L372.45 325.141L341.81 332.431L334.53 301.791L313.21 306.851Z" stroke="black" stroke-miterlimit="10"/>
<path opacity="0.3" d="M266.88 372.631L270.35 387.221L255.76 390.691L258.17 400.841L272.76 397.371L276.23 411.971L286.38 409.561L282.92 394.961L297.51 391.491L295.1 381.341L280.5 384.811L277.04 370.211L266.88 372.631Z" stroke="black" stroke-miterlimit="10"/>
<path opacity="0.3" d="M54.8998 229.82L58.3698 244.41L43.7798 247.88L46.1898 258.04L60.7798 254.57L64.2498 269.16L74.4098 266.75L70.9398 252.16L85.5298 248.69L83.1198 238.53L68.5298 242L65.0598 227.41L54.8998 229.82Z" stroke="black" stroke-miterlimit="10"/>
<path opacity="0.3" d="M326.95 31.3709L330.42 45.9709L315.82 49.4409L318.23 59.5909L332.83 56.1209L336.3 70.7209L346.45 68.3009L342.98 53.7109L357.58 50.2409L355.16 40.0909L340.57 43.5509L337.1 28.9609L326.95 31.3709Z" stroke="black" stroke-miterlimit="10"/>
<path opacity="0.3" d="M76.95 31.3402L79.36 41.4602L69.23 43.8702L70.91 50.9102L81.03 48.5102L83.44 58.6302L90.48 56.9602L88.08 46.8302L98.2 44.4302L96.53 37.3802L86.4 39.7902L84 29.6602L76.95 31.3402Z" stroke="black" stroke-miterlimit="10"/>
<path opacity="0.3" d="M341.93 214.022L344.33 224.152L334.21 226.552L335.88 233.602L346.01 231.192L348.42 241.322L355.46 239.642L353.05 229.522L363.18 227.112L361.51 220.072L351.38 222.472L348.97 212.342L341.93 214.022Z" stroke="black" stroke-miterlimit="10"/>
<path d="M185.67 97.7401L189.14 112.33L174.54 115.8L176.95 125.96L191.55 122.49L195.02 137.08L205.17 134.67L201.7 120.08L216.3 116.61L213.88 106.45L199.29 109.92L195.82 95.3301L185.67 97.7401Z" fill="white" stroke="#263238" stroke-miterlimit="10"/>
<path d="M270.01 48.5003L264.04 82.1503L294.32 66.2903L281.01 97.7703L314.05 89.0503L294.07 116.78L328.23 115.63L302.58 138.21L336.14 144.69L306.1 161.01L337.38 174.79L304.47 184.01L331.89 204.41L297.75 206.08L319.95 232.06L286.3 226.09L302.16 256.37L270.68 243.06L279.4 276.11L251.67 256.13L252.82 290.28L230.23 264.63L223.75 298.19L207.44 268.16L193.66 299.43L184.44 266.52L164.04 293.95L162.37 259.81L136.38 282.01L142.35 248.35L112.08 264.21L125.39 232.73L92.34 241.45L112.32 213.73L78.16 214.88L103.81 192.29L70.26 185.81L100.29 169.5L69.02 155.71L101.92 146.49L74.5 126.09L108.64 124.43L86.44 98.4403L120.09 104.41L104.24 74.1303L135.72 87.4403L126.99 54.4003L154.72 74.3803L153.57 40.2203L176.16 65.8703L182.64 32.3103L198.95 62.3403L212.74 31.0703L221.96 63.9803L242.36 36.5603L244.02 70.6903L270.01 48.5003Z" fill="#4779A8"/>
<path opacity="0.3" d="M369.15 483.159C401.63 483.159 427.96 479.774 427.96 475.599C427.96 471.424 401.63 468.039 369.15 468.039C336.67 468.039 310.34 471.424 310.34 475.599C310.34 479.774 336.67 483.159 369.15 483.159Z" fill="black"/>
<path opacity="0.3" d="M96.5101 472.589C96.5101 475.099 80.6801 477.129 61.1601 477.129C41.6401 477.129 25.8101 475.129 25.8101 472.589C25.8101 470.049 41.6401 468.049 61.1601 468.049C80.6801 468.049 96.5101 470.079 96.5101 472.589Z" fill="black"/>
<path d="M134.82 375.3L170.41 367.33" stroke="#263238" stroke-miterlimit="10"/>
<path d="M126.384 373.509L118.704 375.229L120.424 382.908L128.103 381.189L126.384 373.509Z" stroke="#263238" stroke-miterlimit="10"/>
<path d="M137.63 387.86L173.22 379.9" stroke="#263238" stroke-miterlimit="10"/>
<path d="M129.202 386.079L121.522 387.799L123.242 395.479L130.922 393.759L129.202 386.079Z" stroke="#263238" stroke-miterlimit="10"/>
<path d="M140.44 400.431L176.03 392.461" stroke="#263238" stroke-miterlimit="10"/>
<path d="M132.008 398.642L124.329 400.361L126.048 408.041L133.728 406.322L132.008 398.642Z" stroke="#263238" stroke-miterlimit="10"/>
<path d="M143.25 412.99L178.85 405.02" stroke="#263238" stroke-miterlimit="10"/>
<path d="M134.825 411.195L127.145 412.914L128.864 420.594L136.544 418.874L134.825 411.195Z" stroke="#263238" stroke-miterlimit="10"/>
<path d="M146.06 425.55L181.66 417.59" stroke="#263238" stroke-miterlimit="10"/>
<path d="M137.633 423.767L129.953 425.486L131.673 433.166L139.352 431.447L137.633 423.767Z" stroke="#263238" stroke-miterlimit="10"/>
<path d="M227.227 149.691C233.478 146.171 233.54 134.427 227.365 123.459C221.19 112.491 211.117 106.453 204.865 109.973C198.614 113.492 198.552 125.237 204.727 136.205C210.902 147.172 220.975 153.21 227.227 149.691Z" fill="white" stroke="#263238" stroke-miterlimit="10"/>
<path d="M248.987 146.991C259.605 141.953 262.005 124.784 254.347 108.642C246.69 92.4999 231.874 83.4978 221.255 88.5352C210.637 93.5726 208.237 110.742 215.895 126.884C223.553 143.026 238.369 152.028 248.987 146.991Z" fill="#263238" stroke="#263238" stroke-linecap="round" stroke-linejoin="round"/>
<path d="M244.51 111.27C248.39 119.44 247.93 127.77 243.51 129.88C239.09 131.99 232.32 127.07 228.44 118.88C224.56 110.69 225.03 102.38 229.44 100.28C233.85 98.1795 240.64 103.1 244.51 111.27Z" fill="#545454" stroke="#263238" stroke-linecap="round" stroke-linejoin="round"/>
<path d="M215.89 126.889C208.68 111.689 210.39 95.5888 219.47 89.5488C218.96 89.7788 211.53 95.5488 210.82 96.2288C208.187 98.8736 206.333 102.191 205.46 105.819C203.33 114.499 205.34 123.979 209.11 131.919C216.76 148.059 231.58 157.069 242.2 152.029C242.923 151.681 243.615 151.273 244.27 150.809L244.54 150.929L249 146.999C238.36 151.999 223.55 142.999 215.89 126.889Z" fill="white" stroke="#263238" stroke-miterlimit="10"/>
<path d="M300.529 126.177C309.685 108.921 308.09 90.1485 296.967 84.2465C285.844 78.3446 269.404 87.5487 260.248 104.804C251.093 122.06 252.688 140.833 263.811 146.735C274.934 152.637 291.374 143.433 300.529 126.177Z" fill="white" stroke="#263238" stroke-miterlimit="10"/>
<path d="M260.23 104.789C268.89 88.4787 284.06 79.3687 295.09 83.4087L283 78.0687C271.88 72.1687 255.76 80.7587 247 97.2487C238.24 113.739 240.18 131.899 251.3 137.809L260.66 144.479C252.47 136.939 252 120.259 260.23 104.789Z" fill="#263238" stroke="#263238" stroke-linecap="round" stroke-linejoin="round"/>
<path d="M309 61.5692C308.13 46.0792 303.27 30.1992 297.08 23.0792C290.89 15.9592 277.43 11.0792 271.13 9.82924C264.83 8.57924 255.47 6.92924 244.49 15.5492C233.51 24.1692 226.38 34.1392 217.38 57.8292C211.3 73.8292 208.98 90.5192 208.1 99.6692C208.892 98.4283 209.814 97.2751 210.85 96.2292C211.56 95.5092 218.99 89.7792 219.5 89.5492C220.071 89.1791 220.666 88.8451 221.28 88.5492C223.715 87.4186 226.408 86.9594 229.08 87.2192C232.19 70.9192 238.2 50.1192 246.25 38.3892C254.44 26.4792 264.64 21.3892 270.1 20.8692C277.26 20.1792 279.64 23.0892 282.26 26.2092C284.26 28.5792 289.66 37.9092 288.55 57.3592C288.098 66.9418 285.852 76.3546 281.93 85.1092C280.12 89.18 277.612 92.9028 274.52 96.1092C267.37 103.519 261.86 111.419 261.01 122.029C260.34 130.389 263.01 139.809 270.92 143.979C281.65 149.679 296.56 142.599 304.21 128.179C309.47 118.259 309.45 106.559 308.61 95.6492C308.14 89.9992 309.84 77.0492 309 61.5692Z" fill="white" stroke="#263238" stroke-miterlimit="10"/>
<path d="M304.18 128.2C309.44 118.28 309.42 106.58 308.58 95.6698C308.14 90.0098 309.84 77.0498 308.97 61.5698C308.1 46.0898 303.24 30.1998 297.05 23.0798C290.86 15.9598 277.4 11.0798 271.1 9.82985C269.76 9.56985 268.29 9.28984 266.7 9.08984C281.86 16.3998 286 29.4098 286 29.4098C288.33 33.8798 291.26 42.8198 290.42 57.6498C289.96 67.2281 287.714 76.6361 283.8 85.3898C281.989 89.46 279.481 93.1827 276.39 96.3898C269.23 103.8 263.72 111.7 262.88 122.32C262.21 130.67 264.88 140.1 272.79 144.32C274.172 145.049 275.65 145.581 277.18 145.9C286.88 146.83 297.94 140 304.18 128.2Z" fill="#4779A8" stroke="#263238" stroke-linecap="round" stroke-linejoin="round"/>
<path d="M302.113 128.133C308.045 116.951 306.27 104.392 298.147 100.082C290.024 95.7723 278.63 101.343 272.697 112.525C266.764 123.707 268.539 136.265 276.662 140.575C284.785 144.885 296.18 139.315 302.113 128.133Z" fill="white" stroke="#263238" stroke-miterlimit="10"/>
<path d="M115.52 141.43L50.7899 174.78C48.7062 175.858 47.1349 177.718 46.4206 179.953C45.7064 182.187 45.9075 184.614 46.9799 186.7L127.86 343.7C128.392 344.744 129.125 345.672 130.018 346.43C130.911 347.189 131.946 347.762 133.062 348.117C134.178 348.473 135.354 348.603 136.521 348.5C137.688 348.398 138.823 348.065 139.86 347.52L204.59 314.17C205.624 313.638 206.543 312.906 207.294 312.018C208.045 311.13 208.614 310.103 208.968 308.995C209.322 307.887 209.454 306.72 209.356 305.561C209.259 304.402 208.934 303.274 208.4 302.24L127.5 145.24C126.966 144.201 126.233 143.277 125.341 142.522C124.449 141.767 123.416 141.197 122.303 140.842C121.189 140.488 120.017 140.358 118.853 140.459C117.689 140.56 116.556 140.89 115.52 141.43ZM202.92 300.29C203.995 302.379 204.196 304.809 203.48 307.046C202.763 309.283 201.188 311.144 199.1 312.22L141.38 341.96C140.347 342.494 139.218 342.819 138.059 342.917C136.9 343.014 135.733 342.882 134.625 342.528C133.517 342.174 132.49 341.606 131.602 340.854C130.714 340.103 129.983 339.184 129.45 338.15L52.4099 188.7C51.8668 187.663 51.5347 186.528 51.4329 185.361C51.3311 184.195 51.4616 183.019 51.8168 181.903C52.172 180.787 52.745 179.753 53.5024 178.86C54.2599 177.967 55.187 177.233 56.2299 176.7L66.9699 171.2L69.2399 173.96C69.9022 174.768 70.8216 175.324 71.8446 175.535C72.8676 175.746 73.932 175.6 74.8599 175.12L103.59 160.31C104.508 159.826 105.234 159.042 105.647 158.09C106.06 157.137 106.135 156.072 105.86 155.07L104.93 151.62L113.93 146.98C116.019 145.905 118.449 145.704 120.686 146.42C122.923 147.137 124.784 148.712 125.86 150.8L202.92 300.29Z" fill="#878787" stroke="#263238" stroke-miterlimit="10"/>
<path d="M119.202 141.146L56.4521 173.478C52.009 175.767 50.2631 181.225 52.5524 185.668L131.356 338.61C133.646 343.053 139.103 344.799 143.546 342.509L206.296 310.177C210.739 307.888 212.485 302.43 210.196 297.987L131.392 145.045C129.103 140.602 123.645 138.856 119.202 141.146Z" fill="white" stroke="#263238" stroke-miterlimit="10"/>
<path d="M89.46 156.451L65 169.061C62.377 176.592 59.1291 183.891 55.29 190.881C55.43 191.181 55.55 191.481 55.7 191.781L67.86 215.341C71.2 208.771 74.75 201.171 78.41 192.341C85.04 176.401 88.15 164.761 89.46 156.451Z" stroke="#263238" stroke-linecap="round" stroke-linejoin="round"/>
<path d="M146.71 174.771C151.78 196.481 155.39 227.831 146.71 260.591C138.99 289.701 136.71 318.251 136.44 339.941C138.561 340.799 140.842 341.188 143.127 341.083C145.412 340.978 147.647 340.38 149.68 339.331L169.09 329.331C166.99 316.811 166.69 300.191 170.45 278.411C173.102 262.901 174.948 247.263 175.98 231.561L146.71 174.771Z" stroke="#263238" stroke-linecap="round" stroke-linejoin="round"/>
<path d="M126.65 228.972C134.65 187.762 128.51 158.732 122.74 142.712C119.427 142.199 116.037 142.752 113.06 144.292L106.06 147.902C107.86 158.342 109.2 174.782 107.62 199.372C106.25 220.672 100.13 244.512 93.4697 265.052L112.76 302.472C116.63 281.412 121.44 255.752 126.65 228.972Z" stroke="#263238" stroke-linecap="round" stroke-linejoin="round"/>
<path d="M118.99 139.64L54.2598 172.99C52.1734 174.068 50.6002 175.93 49.8858 178.167C49.1714 180.404 49.3743 182.833 50.4498 184.92L131.35 341.92C132.431 344.003 134.295 345.572 136.532 346.281C138.769 346.99 141.196 346.781 143.28 345.7L208.01 312.35C210.095 311.28 211.671 309.426 212.393 307.196C213.115 304.965 212.923 302.54 211.86 300.45L130.95 143.45C130.417 142.412 129.685 141.49 128.794 140.736C127.904 139.983 126.874 139.412 125.762 139.058C124.651 138.704 123.48 138.573 122.318 138.673C121.156 138.773 120.025 139.102 118.99 139.64ZM206.39 298.5C207.465 300.589 207.666 303.019 206.95 305.256C206.233 307.493 204.658 309.354 202.57 310.43L144.86 340.18C142.771 341.255 140.341 341.457 138.104 340.74C135.867 340.024 134.006 338.449 132.93 336.36L55.8598 186.87C55.3278 185.837 55.0047 184.709 54.9087 183.55C54.8128 182.392 54.946 181.226 55.3007 180.119C55.6555 179.012 56.2248 177.986 56.9761 177.099C57.7275 176.212 58.6462 175.482 59.6798 174.95L70.4198 169.41L72.6798 172.17C73.3426 172.974 74.2602 173.528 75.2805 173.738C76.3008 173.949 77.3626 173.805 78.2898 173.33L107.03 158.52C107.956 158.042 108.69 157.262 109.11 156.308C109.53 155.355 109.611 154.286 109.34 153.28L108.41 149.83L117.41 145.2C118.443 144.666 119.572 144.341 120.731 144.244C121.89 144.147 123.057 144.279 124.165 144.632C125.273 144.986 126.3 145.555 127.188 146.306C128.076 147.057 128.807 147.976 129.34 149.01L206.39 298.5Z" fill="#263238" stroke="#263238" stroke-miterlimit="10"/>
<path d="M406.14 446.76C406.286 448.705 406.703 450.621 407.38 452.45C408.38 454.67 413.56 462.58 416.03 464.81C418.5 467.04 426.91 472.23 425.92 474.7C424.93 477.17 421.47 477.42 416.03 477.17C410.59 476.92 404.41 476.17 403.67 475.44C402.93 474.71 400 469 396.25 467C392.5 465 386.61 461.56 388.09 456.37C389.57 451.18 394.77 444 394.77 444C394.77 444 401.69 449.23 406.14 446.76Z" fill="#D9D9D9" stroke="#263238" stroke-linecap="round" stroke-linejoin="round"/>
<path d="M425.92 474.698C426.81 472.468 420.1 468.048 416.92 465.558C415.733 465.655 414.579 465.996 413.53 466.558C411.817 467.615 410.168 468.77 408.59 470.018C408.59 470.018 398.7 463.838 396.22 458.888C394.56 455.578 392.58 451.488 391.44 449.148C390.039 451.435 388.905 453.874 388.06 456.418C386.58 461.608 392.51 465.078 396.22 467.048C399.93 469.018 402.9 474.718 403.64 475.458C404.38 476.198 410.56 476.938 416 477.188C421.44 477.438 424.93 477.168 425.92 474.698Z" fill="#263238" stroke="#263238" stroke-linecap="round" stroke-linejoin="round"/>
<path d="M435.27 254.66C435.27 254.66 442.42 267.66 435.85 306.4C431.46 332.28 431.91 322.17 424.65 357.07C422.26 368.59 424.03 381.19 418.47 396.07C412.91 410.95 406.47 448.79 406.47 448.79C406.47 448.79 398.01 451.74 395.54 448.65C393.07 445.56 394.92 438.75 394.92 438.75C394.92 438.75 393.68 401.64 394.92 385.56C395.747 375.498 397.61 365.549 400.48 355.87L385.58 291.44L374.22 251.7C374.22 251.7 425.47 243.17 435.27 254.66Z" fill="#263238" stroke="#263238" stroke-linecap="round" stroke-linejoin="round"/>
<path d="M336 382.699C336 382.699 329.85 386.949 326.06 387.899C322.27 388.849 316.13 390.269 314.71 393.579C313.29 396.889 318.02 411.579 318.97 415.809C319.92 420.039 324.64 431.419 329.85 434.259C335.06 437.099 337.85 439.939 340.26 436.149C342.67 432.359 337.42 421.009 337.42 416.759C337.42 412.509 339.31 396.419 339.31 396.419L336 382.699Z" fill="#D9D9D9" stroke="#263238" stroke-linecap="round" stroke-linejoin="round"/>
<path d="M321.23 389.209C318.35 390.149 315.57 391.489 314.67 393.579C313.25 396.889 317.98 411.579 318.93 415.809C319.88 420.039 324.6 431.419 329.81 434.259C335.02 437.099 337.81 439.939 340.22 436.149C342.63 432.359 337.38 421.009 337.38 416.759L327.44 418.649C327.44 418.649 322.35 400.999 321.23 389.209Z" fill="#263238" stroke="#263238" stroke-linecap="round" stroke-linejoin="round"/>
<path d="M400.29 274.84C400.29 274.84 405.02 303.7 411.17 318.84C417.32 333.98 421.11 343.43 417.32 356.21C415.4 362.7 337.85 399.73 337.85 399.73C336.41 399.08 335.144 398.097 334.157 396.863C333.169 395.629 332.489 394.178 332.17 392.63C331.23 387.43 332.65 384.63 332.65 384.63C332.65 384.63 359.14 365.71 365.76 359.56C372.38 353.41 387.05 344.89 387.05 344.89C387.05 344.89 353.93 302.32 356.3 277.72C358.67 253.12 371 246 371 246" fill="#263238"/>
<path d="M400.29 274.84C400.29 274.84 405.02 303.7 411.17 318.84C417.32 333.98 421.11 343.43 417.32 356.21C415.4 362.7 337.85 399.73 337.85 399.73C336.41 399.08 335.144 398.097 334.157 396.863C333.169 395.629 332.489 394.178 332.17 392.63C331.23 387.43 332.65 384.63 332.65 384.63C332.65 384.63 359.14 365.71 365.76 359.56C372.38 353.41 387.05 344.89 387.05 344.89C387.05 344.89 353.93 302.32 356.3 277.72C358.67 253.12 371 246 371 246" stroke="#263238" stroke-linecap="round" stroke-linejoin="round"/>
<path d="M410.51 362.289C410.51 362.289 416.04 355.529 416.65 348.159C417.26 340.789 404.37 297.159 401.29 289.159C398.21 281.159 384.71 277.489 377.29 276.879" stroke="#787878" stroke-linecap="round" stroke-linejoin="round"/>
<path d="M430 124.469C430.52 122.739 432.9 122.109 433.21 120.299C433.52 118.489 431.46 117.149 431.52 115.299C431.58 113.449 433.73 112.299 433.52 110.459C433.31 108.619 431.01 107.879 430.61 106.129C430.21 104.379 431.97 102.659 431.33 100.939C430.69 99.2192 428.23 99.0992 427.39 97.5192C426.55 95.9392 427.82 93.8292 426.75 92.3392C425.68 90.8492 423.28 91.3392 422.06 90.0492C420.84 88.7592 421.51 86.3692 420.06 85.2092C418.61 84.0492 416.44 85.1492 414.92 84.2092C413.4 83.2692 413.43 80.8092 411.76 80.0592C410.09 79.3092 408.25 80.9392 406.53 80.4192C404.81 79.8992 404.21 77.5192 402.4 77.2092C400.59 76.8992 399.23 78.9592 397.4 78.8992C395.57 78.8392 394.4 76.6892 392.58 76.8992C390.76 77.1092 389.97 79.4092 388.22 79.8192C386.47 80.2292 384.76 78.4792 383.04 79.1292C381.32 79.7792 381.18 82.2292 379.6 83.1292C378.02 84.0292 375.91 82.7292 374.42 83.7992C372.93 84.8692 373.42 87.2792 372.12 88.5092C370.82 89.7392 368.44 89.0792 367.28 90.5092C366.12 91.9392 367.23 94.1292 366.28 95.6592C365.33 97.1892 362.88 97.1692 362.13 98.8492C361.38 100.529 363.02 102.369 362.5 104.099C361.98 105.829 359.61 106.439 359.31 108.259C359.01 110.079 361.07 111.429 361.01 113.259C360.95 115.089 358.81 116.259 359.01 118.109C359.21 119.959 361.53 120.719 361.95 122.469C362.37 124.219 360.6 125.959 361.25 127.689C361.9 129.419 364.38 129.569 365.25 131.169C366.12 132.769 364.85 134.909 365.93 136.419C367.01 137.929 369.42 137.419 370.66 138.759C371.9 140.099 371.28 142.509 372.66 143.689C374.04 144.869 376.25 143.689 377.77 144.689C379.29 145.689 379.28 148.139 380.95 148.889C382.62 149.639 384.41 147.989 386.13 148.509C387.85 149.029 388.43 151.419 390.23 151.709C392.03 151.999 393.35 149.929 395.12 149.969C396.89 150.009 398.12 152.169 399.9 151.969C401.68 151.769 402.45 149.409 404.18 148.969C405.91 148.529 407.61 150.299 409.32 149.629C411.03 148.959 411.17 146.489 412.74 145.629C414.31 144.769 416.43 145.999 417.92 144.919C419.41 143.839 418.92 141.409 420.22 140.169C421.52 138.929 423.91 139.579 425.07 138.169C426.23 136.759 425.12 134.529 426.07 132.999C427.02 131.469 429.48 131.459 430.23 129.779C430.98 128.099 429.5 126.189 430 124.469Z" fill="#263238" stroke="#263238" stroke-linecap="round" stroke-linejoin="round"/>
<path d="M373.73 122.439C373.497 122.358 373.291 122.213 373.137 122.02C372.983 121.827 372.887 121.594 372.86 121.349C372.545 118.972 372.545 116.565 372.86 114.189C375.74 100.499 384.48 89.2886 399.17 91.2986C413.86 93.3086 419.36 106.359 419.26 120.349C419.187 121.333 419.033 122.309 418.8 123.269C418.65 123.999 419.35 124.649 418.65 124.499C417.95 124.349 418.03 123.499 418.12 122.829C418.21 122.159 418.45 121.239 418.46 120.509C418.54 107.949 412.12 95.6286 398.89 93.8086C385.66 91.9886 376.74 102.519 374.16 114.809C373.895 116.977 373.895 119.17 374.16 121.339C374.203 121.658 374.123 121.981 373.938 122.244C373.753 122.507 373.475 122.691 373.16 122.759C372.92 122.799 373.89 122.499 373.73 122.439Z" fill="white" stroke="#263238" stroke-miterlimit="10"/>
<path d="M372 123.999C371.811 123.999 371.629 123.924 371.495 123.791C371.36 123.658 371.283 123.478 371.28 123.289L371.22 115.359C371.22 115.17 371.295 114.99 371.428 114.856C371.561 114.723 371.742 114.649 371.93 114.649C372.023 114.647 372.115 114.664 372.201 114.699C372.287 114.733 372.366 114.785 372.432 114.85C372.498 114.915 372.55 114.993 372.586 115.078C372.622 115.164 372.64 115.256 372.64 115.349L372.7 123.279C372.7 123.466 372.627 123.646 372.496 123.781C372.366 123.915 372.188 123.993 372 123.999Z" fill="white" stroke="#263238" stroke-miterlimit="10"/>
<path d="M372.59 122.37C372.35 119.266 372.387 116.147 372.7 113.05C374.44 99.1596 384.32 88.1396 399.01 90.1596C413.7 92.1796 419.63 105.39 419.52 119.38C419.52 120.19 419.52 121.25 419.42 121.99C419.32 122.73 419.13 126.47 418.42 126.33C417.71 126.19 417.86 122.39 417.94 121.69C418.099 120.92 418.213 120.142 418.28 119.36C418.37 106.81 411.95 94.4796 398.72 92.6596C385.49 90.8396 376.57 101.37 373.99 113.66C373.64 116.981 373.553 120.325 373.73 123.66C373.73 124.35 373.91 124.02 373.2 124.13C373 124.12 372.63 122.87 372.59 122.37Z" fill="#4779A8" stroke="#263238" stroke-linecap="round" stroke-linejoin="round"/>
<path d="M416.08 129.899L414.47 129.809C413.938 129.765 413.443 129.517 413.09 129.116C412.738 128.715 412.555 128.192 412.58 127.659L413.02 115.239C413.036 114.719 413.253 114.225 413.627 113.863C414 113.501 414.5 113.299 415.02 113.299L416.62 113.399C417.153 113.44 417.649 113.688 418.002 114.089C418.355 114.491 418.538 115.015 418.51 115.549L418.11 127.999C418.084 128.517 417.858 129.005 417.479 129.359C417.1 129.714 416.599 129.907 416.08 129.899Z" fill="white" stroke="#263238" stroke-miterlimit="10"/>
<path d="M377.13 128.28L375.53 128.22C374.995 128.191 374.492 127.954 374.13 127.56C373.767 127.166 373.573 126.645 373.59 126.11L373.77 113.68C373.77 113.149 373.981 112.641 374.356 112.265C374.731 111.89 375.239 111.68 375.77 111.68H377.38C377.914 111.713 378.414 111.953 378.774 112.349C379.134 112.745 379.326 113.265 379.31 113.8L379.14 126.23C379.147 126.497 379.099 126.764 379.001 127.013C378.903 127.262 378.756 127.489 378.569 127.68C378.381 127.871 378.157 128.023 377.91 128.126C377.663 128.229 377.398 128.281 377.13 128.28Z" fill="white" stroke="#263238" stroke-miterlimit="10"/>
<path d="M420 125.37C419.906 125.367 419.813 125.346 419.728 125.307C419.642 125.269 419.564 125.213 419.5 125.144C419.436 125.075 419.386 124.994 419.354 124.906C419.321 124.818 419.306 124.724 419.31 124.63L419.61 116.71C419.613 116.617 419.634 116.525 419.672 116.44C419.71 116.354 419.764 116.278 419.832 116.214C419.9 116.149 419.98 116.099 420.067 116.066C420.154 116.033 420.247 116.017 420.34 116.02C420.529 116.03 420.706 116.113 420.834 116.251C420.963 116.389 421.033 116.571 421.03 116.76L420.73 124.69C420.728 124.783 420.707 124.874 420.668 124.959C420.63 125.043 420.576 125.119 420.508 125.183C420.44 125.246 420.36 125.295 420.273 125.327C420.186 125.359 420.093 125.374 420 125.37Z" fill="white" stroke="#263238" stroke-miterlimit="10"/>
<path d="M481 174.199C471.86 167.289 446.3 163.519 438.31 160.479C426.8 156.089 422.63 156.479 415.97 157.199C409.31 157.919 409.52 160.979 404.97 158.559C400.42 156.139 403.44 146.259 402.97 142.229C397.8 144.229 392.31 145.099 386.9 143.529C386.9 148.169 389.48 153.919 388.11 158.379C386.74 162.839 384.75 162.319 379.11 162.379C373.47 162.439 370.18 158.049 361.57 163.709C352.96 169.369 333.57 187.629 327.34 194.969C321.11 202.309 323.66 203.609 330.54 204.579C337.42 205.549 353.04 194.919 359.82 190.789C364.45 201.129 373.89 215.489 374.94 225.979C375.99 236.469 368.66 240.099 366.06 248.789C365.45 250.789 357.33 260.789 359.38 262.209C394.62 286.879 437.85 263.849 437.85 263.849C434.07 241.619 427.49 233.569 426.85 230.849C424.64 221.619 425.04 213.689 425.76 205.229C426.48 196.769 426.1 190.409 426.5 182.439C444.92 183.079 460.39 186.619 479.5 188.849C486.24 189.629 488.3 179.709 481 174.199Z" fill="#4779A8" stroke="#263238" stroke-linecap="round" stroke-linejoin="round"/>
<path d="M374.29 222.119C391.017 218.195 408.075 215.851 425.24 215.119C425.24 214.319 425.24 213.509 425.31 212.709C407.98 213.429 390.2 215.519 373.64 219.849C373.89 220.599 374.1 221.359 374.29 222.119Z" fill="#263238"/>
<path d="M430 237.199C410.81 238.019 388.45 239.649 368.91 242.799C368.41 243.629 367.91 244.499 367.48 245.409C387.78 241.999 411 240.229 431 239.489C430.63 238.659 430.28 237.899 430 237.199Z" fill="#263238"/>
<path d="M425.88 225.549C408.678 226.441 391.558 228.513 374.64 231.749C374.464 232.535 374.23 233.307 373.94 234.059C391.209 230.735 408.694 228.653 426.26 227.829C426.11 227.059 426 226.299 425.88 225.549Z" fill="#263238"/>
<path d="M449.53 163.69L447.25 163.1C445.025 169.922 444.594 177.203 446 184.24C446.82 184.32 447.64 184.41 448.46 184.51C446.945 177.599 447.314 170.408 449.53 163.69Z" fill="#263238"/>
<path d="M367 180.69C385.76 184.07 405 179.32 423 174.33C423.5 176.51 424.87 180.95 425.47 182.49C426.07 184.03 425.81 182.81 426.37 183.49C426.46 183.61 426.53 183.49 426.53 183.49C426.59 183.19 426.53 182.76 426.61 182.41C427.02 182.53 427.29 182.26 427.78 182.64C426.95 180.17 428.78 185.35 427.31 181.09C425.84 176.83 423 163.42 425 156.91C424.239 156.642 423.437 156.51 422.63 156.52C422.227 158.664 422.003 160.839 421.96 163.02C405.17 168.61 387.58 171.36 370.02 168.14C370.205 165.627 370.205 163.103 370.02 160.59C369.241 160.628 368.466 160.722 367.7 160.87C367.85 163.034 367.85 165.206 367.7 167.37C366.794 165.465 365.634 163.692 364.25 162.1C363.67 162.39 363.1 162.69 362.54 163.03L362.19 163.25C364.96 166.5 366.59 169.71 366.61 174.04C366.06 176.235 365.362 178.39 364.52 180.49C363.306 175.464 360.453 170.984 356.41 167.76C355.83 168.28 355.25 168.76 354.67 169.31C359.3 173.03 362.67 178.39 362.5 184.06C362.5 185.11 362.56 184.37 362.5 184.48C361.9 185.675 361.208 186.822 360.43 187.91C358.202 182.274 354.273 177.471 349.19 174.17L347.42 175.78C353.01 179.41 356.73 183.84 358.67 190.26C358.04 191.02 357.41 191.78 356.79 192.55C357.87 191.91 358.95 191.27 359.99 190.55C360.18 190.97 360.36 191.4 360.55 191.82L360.97 191.27C363.438 188.025 365.466 184.468 367 180.69ZM421.91 165.44C422 167.66 422.18 169.86 422.49 172.06C404.87 177.06 386.19 181.37 367.78 178.47C368.12 177.47 368.39 176.47 368.68 175.47C368.731 175.333 368.775 175.192 368.81 175.05C368.802 174.984 368.802 174.917 368.81 174.85C369.13 173.39 369.43 171.95 369.66 170.48C387.35 173.64 405 171 421.92 165.44H421.91Z" fill="#263238"/>
<path d="M426 202.738C426.06 202.018 426.12 201.288 426.16 200.558C406.63 197.498 386.43 199.728 370.16 211.798L371.16 214.038C387 201.998 406.84 199.888 426 202.738Z" fill="#263238"/>
<path d="M464.47 167.738L462.15 167.068C459.563 172.963 458.336 179.365 458.56 185.798L460.93 186.148C460.663 179.82 461.876 173.517 464.47 167.738Z" fill="#263238"/>
<path d="M433.86 159C432.695 167.002 432.854 175.14 434.33 183.09L436.68 183.33C435.246 175.573 435.054 167.637 436.11 159.82C435.37 159.52 434.62 159.24 433.86 159Z" fill="#263238"/>
<path d="M426.51 190.869C426.51 190.139 426.51 189.409 426.51 188.679C405.28 185.949 382.7 187.469 363.94 198.679C364.32 199.439 364.7 200.199 365.07 200.959C383.5 189.889 405.67 188.389 426.51 190.869Z" fill="#263238"/>
<path d="M365.73 249.56C365.39 250.17 364.86 250.98 364.26 251.89C369.601 252.786 374.997 253.32 380.41 253.49C398.395 253.967 416.327 251.324 433.41 245.68C433.13 244.85 432.85 244.07 432.57 243.33C402.48 253.05 378.22 251.54 365.73 249.56Z" fill="#263238"/>
<path d="M437 259.049C436.83 258.209 436.65 257.399 436.47 256.609C411.934 264.085 385.727 264.085 361.19 256.609C360.71 257.399 360.28 258.159 359.93 258.859C372.595 262.719 385.76 264.686 399 264.699C411.878 264.723 424.687 262.819 437 259.049Z" fill="#263238"/>
<path d="M411 158.779C409 158.449 406.86 160.659 404.82 158.699C401.49 155.489 402.76 146.699 403.07 142.189C397.75 144.269 392.43 145.089 386.9 143.519C387.46 148.219 388.78 153.849 388.3 158.389C387.91 162.069 384.74 161.869 381.99 162.529C383.57 171.259 386.74 177.989 397.44 178.099C406.83 178.179 410.64 167.339 411 158.779Z" fill="#D9D9D9" stroke="#263238" stroke-linecap="round" stroke-linejoin="round"/>
<path d="M402.89 151.32C402.81 149.32 402.89 147.32 402.89 145.39C402.89 144.26 402.75 143.39 402.78 142.27C397.5 144.27 392.36 145.13 386.88 143.51C387.3 146.13 387.66 148.74 387.98 151.38C390.85 153.1 393.66 154.46 397.1 153.95C399.26 153.63 401.06 152.42 402.89 151.32Z" fill="#263238" stroke="#263238" stroke-linecap="round" stroke-linejoin="round"/>
<path d="M379.05 112.5C378.86 119.5 377.6 128.5 379.52 135.04C381.44 141.58 387.65 147.87 393.29 150.16C398.93 152.45 402.91 147.41 406.68 143.62C410.45 139.83 412.99 136.38 413.35 129.76C413.71 123.14 414.55 114.76 412.03 106.94C410.39 101.86 403.36 96.8499 395.86 97.0799C388.36 97.3099 380.11 103.53 379.05 112.5Z" fill="#D9D9D9" stroke="#263238" stroke-linecap="round" stroke-linejoin="round"/>
<path d="M391 133.249C391 133.249 392.69 138.089 394.76 138.389C396.83 138.689 400.12 132.889 400.12 132.889C400.12 132.889 395.37 135.169 391 133.249Z" fill="#263238" stroke="#263238" stroke-linecap="round" stroke-linejoin="round"/>
<path d="M393.25 127C394.54 124.76 396.81 125.57 398.66 126.56" stroke="#263238" stroke-linecap="round" stroke-linejoin="round"/>
<path d="M388.93 131.609C393.57 135.989 398.58 134.189 403.23 130.889" stroke="#263238" stroke-linecap="round" stroke-linejoin="round"/>
<path d="M383.59 116.859C384.76 112.449 387.81 111.529 391.93 112.659" stroke="#263238" stroke-linecap="round" stroke-linejoin="round"/>
<path d="M400.23 112.409C403.36 110.799 406.07 112.179 408.49 114.329" stroke="#263238" stroke-linecap="round" stroke-linejoin="round"/>
<path d="M367.25 117.138C365.98 121.208 364.25 123.348 364.19 128.058C364.13 132.768 369.64 138.058 369.67 143.108C369.7 148.158 372.4 144.518 365.54 151.338C358.68 158.158 331.29 177.518 326.69 187.138C322.09 196.758 318.93 202.898 330.34 204.338C341.75 205.778 354.52 183.448 360.09 174.808C365.66 166.168 374.83 152.988 377.09 144.878C379.35 136.768 370.83 131.798 369.19 127.328C367.55 122.858 369.19 121.488 369.64 118.328C370.09 115.168 368.91 116.188 367.25 117.138Z" fill="#D9D9D9" stroke="#263238" stroke-linecap="round" stroke-linejoin="round"/>
<path d="M360.14 174.729C360.71 173.839 361.93 172.099 362.48 171.199C359 168.569 355.86 165.539 352.15 163.199C345.4 168.119 329.53 181.499 326.71 187.199C322.05 196.559 318.91 203.119 330.36 204.379C341.81 205.639 354.38 183.749 360.14 174.729Z" fill="#4779A8" stroke="#263238" stroke-linecap="round" stroke-linejoin="round"/>
<path d="M344.42 169.68L344.19 169.87L343.69 170.3C343.32 170.6 342.93 170.94 342.56 171.25C347.223 174.214 351.729 177.418 356.06 180.85C356.5 180.21 356.93 179.57 357.36 178.92C353.16 175.67 348.91 172.52 344.42 169.68Z" fill="#263238"/>
<path d="M337.54 202.299C338.28 201.749 338.98 201.159 339.68 200.549C334.095 198.762 328.847 196.059 324.15 192.549C323.884 193.349 323.644 194.159 323.43 194.979C327.757 198.084 332.51 200.549 337.54 202.299Z" fill="#263238"/>
<path d="M333.27 179.52L332.78 179.98L332.26 180.49L331.48 181.26C337.389 184.049 342.87 187.665 347.76 192C348.26 191.4 348.76 190.78 349.25 190.17C344.424 185.921 339.049 182.339 333.27 179.52Z" fill="#263238"/>
<path d="M423.18 113.209C425.49 116.729 427.68 118.368 429.04 122.808C430.4 127.248 426.49 133.809 427.89 138.599C429.29 143.389 425.65 140.839 434.22 145.209C442.79 149.579 474 162.128 480.7 170.728C487.4 179.328 491.32 184.489 481.23 188.459C471.14 192.429 453.23 172.629 445.79 166.099C438.35 159.569 425.55 149.368 421.2 142.338C416.85 135.308 423.69 128.139 424.07 123.469C424.45 118.799 422.51 117.879 421.23 115.009C419.95 112.139 421.33 112.739 423.18 113.209Z" fill="#D9D9D9" stroke="#263238" stroke-linecap="round" stroke-linejoin="round"/>
<path d="M445.75 166.12L442.57 163.33C445.22 159.9 447.48 156.18 450.46 153.02C458.4 156.02 476.58 165.9 480.69 170.81C487.47 178.91 491.34 184.7 481.21 188.5C471.08 192.3 453.4 172.7 445.75 166.12Z" fill="#4779A8" stroke="#263238" stroke-linecap="round" stroke-linejoin="round"/>
<path d="M461.69 180.08L463.51 181.54C467.51 176.553 471.51 171.553 475.51 166.54L474.2 165.69L473.91 165.5C473.782 165.43 473.659 165.353 473.54 165.27C469.6 170.22 465.66 175.15 461.69 180.08Z" fill="#263238"/>
<path d="M463.47 159.499L462.94 159.219L461.5 158.459L451.23 170.999L452.58 172.199L452.96 172.539L463.6 159.599L463.47 159.499Z" fill="#263238"/>
<path d="M484.16 175.238C480.47 179.478 476.74 183.668 472.88 187.738C473.62 188.088 474.38 188.418 475.15 188.738C478.64 185.028 482.03 181.228 485.38 177.388C485 176.638 484.59 175.938 484.16 175.238Z" fill="#263238"/>
<path d="M389.67 120.539C389.73 121.539 389.49 123.319 388.22 123.389C386.95 123.459 386.52 121.729 386.47 120.719C386.42 119.709 386.65 117.949 387.92 117.879C389.19 117.809 389.61 119.529 389.67 120.539Z" fill="#263238"/>
<path d="M404.29 121C404.29 122 404.1 123.77 402.83 123.84C401.56 123.91 401.14 122.19 401.08 121.18C401.02 120.17 401.27 118.41 402.54 118.34C403.81 118.27 404.23 120 404.29 121Z" fill="#263238"/>
</svg>
