<svg width="400" height="400" viewBox="0 0 400 400" fill="none" xmlns="http://www.w3.org/2000/svg">
<path d="M49.2238 242.993C49.2238 242.993 62.5518 297.001 115.44 322.993C168.328 348.985 231.48 337.345 282.896 329.273C334.312 321.201 367.088 283.513 363.696 238.585C360.304 193.657 318.816 189.657 287.248 144.801C255.68 99.9449 254.072 83.2009 203.128 62.8169C152.184 42.4329 86.6238 76.9529 61.2878 137.521C35.9518 198.089 49.2238 242.993 49.2238 242.993Z" fill="#4779A8"/>
<path opacity="0.7" d="M49.2238 242.993C49.2238 242.993 62.5518 297.001 115.44 322.993C168.328 348.985 231.48 337.345 282.896 329.273C334.312 321.201 367.088 283.513 363.696 238.585C360.304 193.657 318.816 189.657 287.248 144.801C255.68 99.9449 254.072 83.2009 203.128 62.8169C152.184 42.4329 86.6238 76.9529 61.2878 137.521C35.9518 198.089 49.2238 242.993 49.2238 242.993Z" fill="white"/>
<path d="M280.208 146.801C280.208 146.308 280.111 145.821 279.922 145.366C279.734 144.911 279.457 144.498 279.108 144.15C278.76 143.802 278.346 143.527 277.891 143.339C277.436 143.152 276.948 143.055 276.456 143.057H272.52C272.261 141.377 271.821 139.73 271.208 138.144L274.616 136.177C275.042 135.93 275.416 135.603 275.715 135.212C276.015 134.822 276.235 134.376 276.362 133.9C276.489 133.425 276.521 132.929 276.456 132.441C276.391 131.953 276.231 131.482 275.984 131.057C275.738 130.63 275.41 130.257 275.02 129.957C274.629 129.657 274.183 129.438 273.708 129.311C273.232 129.184 272.736 129.152 272.248 129.216C271.76 129.281 271.29 129.442 270.864 129.689L267.464 131.649C266.396 130.328 265.192 129.125 263.872 128.057L265.832 124.657C266.079 124.231 266.239 123.76 266.304 123.272C266.369 122.784 266.337 122.288 266.21 121.813C266.083 121.337 265.863 120.891 265.563 120.501C265.264 120.11 264.89 119.783 264.464 119.536C264.038 119.29 263.568 119.129 263.08 119.064C262.592 119 262.096 119.032 261.62 119.159C261.145 119.286 260.699 119.505 260.308 119.805C259.918 120.105 259.59 120.478 259.344 120.905L257.376 124.313C255.791 123.699 254.144 123.259 252.464 123.001V119.065C252.464 118.071 252.07 117.118 251.368 116.414C250.666 115.711 249.714 115.315 248.72 115.312C247.725 115.312 246.771 115.708 246.067 116.411C245.363 117.115 244.968 118.069 244.968 119.065V123.001C243.288 123.259 241.641 123.699 240.056 124.313L238.096 120.905C237.85 120.478 237.522 120.105 237.132 119.805C236.741 119.505 236.295 119.286 235.82 119.159C235.344 119.032 234.848 119 234.36 119.064C233.872 119.129 233.402 119.29 232.976 119.536C232.115 120.034 231.487 120.852 231.229 121.812C230.971 122.772 231.104 123.795 231.6 124.657L233.568 128.057C232.243 129.122 231.037 130.326 229.968 131.649L226.568 129.689C226.142 129.442 225.672 129.281 225.184 129.216C224.696 129.152 224.2 129.184 223.724 129.311C223.249 129.438 222.803 129.657 222.412 129.957C222.022 130.257 221.694 130.63 221.448 131.057C220.952 131.917 220.817 132.94 221.073 133.899C221.33 134.859 221.956 135.678 222.816 136.177L226.224 138.144C225.614 139.731 225.174 141.377 224.912 143.057H220.976C220.484 143.055 219.997 143.152 219.542 143.339C219.087 143.527 218.674 143.803 218.326 144.151C217.978 144.499 217.703 144.912 217.515 145.366C217.327 145.821 217.231 146.309 217.232 146.801V146.801C217.231 147.293 217.327 147.781 217.515 148.236C217.702 148.691 217.978 149.105 218.326 149.453C218.673 149.802 219.087 150.078 219.541 150.267C219.996 150.455 220.484 150.553 220.976 150.553H224.912C225.169 152.23 225.609 153.874 226.224 155.457L222.816 157.425C221.956 157.923 221.33 158.742 221.073 159.702C220.817 160.662 220.952 161.684 221.448 162.545V162.545C221.945 163.405 222.763 164.034 223.723 164.292C224.683 164.55 225.706 164.416 226.568 163.921L229.968 161.953C231.037 163.277 232.243 164.484 233.568 165.553L231.6 168.953C231.104 169.814 230.971 170.837 231.229 171.797C231.487 172.757 232.115 173.575 232.976 174.073V174.073C233.402 174.319 233.873 174.479 234.361 174.543C234.85 174.607 235.346 174.575 235.821 174.447C236.297 174.319 236.743 174.099 237.133 173.798C237.523 173.498 237.851 173.124 238.096 172.697L240.056 169.297C241.642 169.907 243.289 170.346 244.968 170.609V174.545C244.97 175.538 245.366 176.49 246.07 177.192C246.773 177.894 247.726 178.289 248.72 178.289V178.289C249.712 178.286 250.663 177.891 251.365 177.19C252.067 176.488 252.462 175.537 252.464 174.545V170.609C254.142 170.342 255.788 169.903 257.376 169.297L259.344 172.697C259.589 173.124 259.917 173.498 260.307 173.798C260.697 174.099 261.143 174.319 261.618 174.447C262.094 174.575 262.59 174.607 263.078 174.543C263.567 174.479 264.038 174.319 264.464 174.073V174.073C264.89 173.826 265.264 173.499 265.563 173.108C265.863 172.718 266.083 172.272 266.21 171.796C266.337 171.321 266.369 170.825 266.304 170.337C266.239 169.849 266.079 169.378 265.832 168.953L263.872 165.553C265.192 164.482 266.396 163.275 267.464 161.953L270.864 163.921C271.726 164.416 272.749 164.55 273.709 164.292C274.669 164.034 275.487 163.405 275.984 162.545V162.545C276.231 162.119 276.391 161.648 276.456 161.16C276.521 160.672 276.489 160.176 276.362 159.701C276.235 159.225 276.015 158.779 275.715 158.389C275.416 157.998 275.042 157.671 274.616 157.425L271.2 155.457C271.814 153.874 272.254 152.23 272.512 150.553H276.448C276.941 150.554 277.43 150.457 277.886 150.269C278.342 150.081 278.757 149.805 279.106 149.456C279.455 149.108 279.732 148.694 279.922 148.238C280.111 147.782 280.208 147.294 280.208 146.801V146.801ZM265.08 146.801C265.08 150.036 264.12 153.199 262.323 155.89C260.525 158.58 257.97 160.677 254.981 161.915C251.991 163.153 248.702 163.477 245.528 162.846C242.355 162.215 239.44 160.657 237.152 158.369C234.864 156.081 233.306 153.166 232.674 149.992C232.043 146.819 232.367 143.529 233.605 140.54C234.844 137.55 236.94 134.995 239.631 133.198C242.321 131.4 245.484 130.441 248.72 130.441C253.058 130.445 257.216 132.17 260.284 135.237C263.351 138.304 265.076 142.463 265.08 146.801V146.801Z" stroke="black" stroke-miterlimit="10"/>
<path d="M309.432 91.9999C309.432 91.4285 309.205 90.8803 308.802 90.4754C308.398 90.0706 307.851 89.8421 307.28 89.8399H305.016C304.861 88.8747 304.607 87.9282 304.256 87.0159L306.216 85.8879C306.711 85.6031 307.074 85.1332 307.224 84.5813C307.374 84.0294 307.299 83.4406 307.016 82.9439V82.9439C306.731 82.448 306.261 82.0853 305.709 81.9353C305.157 81.7854 304.568 81.8604 304.072 82.1439L302.112 83.2719C301.497 82.5138 300.806 81.8221 300.048 81.2079L301.176 79.2479C301.459 78.7513 301.534 78.1624 301.384 77.6105C301.234 77.0587 300.871 76.5888 300.376 76.3039V76.3039C299.879 76.0204 299.29 75.9454 298.738 76.0953C298.186 76.2453 297.716 76.608 297.432 77.1039L296.304 79.0639C295.394 78.6954 294.447 78.4271 293.48 78.2639V76.0719C293.48 75.7887 293.424 75.5082 293.315 75.2465C293.206 74.9849 293.047 74.7473 292.846 74.5474C292.646 74.3475 292.408 74.1891 292.146 74.0814C291.883 73.9738 291.603 73.9189 291.32 73.9199V73.9199C291.036 73.9189 290.756 73.9738 290.494 74.0814C290.232 74.1891 289.993 74.3475 289.793 74.5474C289.592 74.7473 289.433 74.9849 289.324 75.2465C289.215 75.5082 289.16 75.7887 289.16 76.0719V78.3359C288.192 78.4991 287.245 78.7674 286.336 79.1359L285.208 77.1759C284.923 76.68 284.453 76.3173 283.901 76.1673C283.349 76.0174 282.76 76.0924 282.264 76.3759V76.3759C281.768 76.6608 281.405 77.1307 281.255 77.6826C281.105 78.2344 281.18 78.8233 281.464 79.3199L282.592 81.2799C281.833 81.894 281.142 82.5858 280.528 83.3439L278.568 82.2159C278.071 81.9324 277.482 81.8574 276.93 82.0073C276.378 82.1573 275.908 82.52 275.624 83.0159V83.0159C275.34 83.5126 275.265 84.1014 275.415 84.6533C275.565 85.2052 275.928 85.6751 276.424 85.9599L278.384 87.0879C278.019 87.9987 277.751 88.9452 277.584 89.9119H275.36C274.788 89.9141 274.241 90.1426 273.837 90.5474C273.434 90.9523 273.208 91.5004 273.208 92.0719V92.0719C273.208 92.6427 273.434 93.1901 273.838 93.5936C274.241 93.9972 274.789 94.2239 275.36 94.2239H277.6C277.764 95.1912 278.033 96.1379 278.4 97.0479L276.44 98.1839C275.944 98.4688 275.581 98.9387 275.431 99.4906C275.281 100.042 275.356 100.631 275.64 101.128C275.924 101.624 276.394 101.987 276.946 102.137C277.498 102.287 278.087 102.211 278.584 101.928L280.544 100.792C281.158 101.553 281.849 102.247 282.608 102.864L281.472 104.8C281.188 105.297 281.113 105.885 281.263 106.437C281.413 106.989 281.776 107.459 282.272 107.744C282.768 108.027 283.357 108.103 283.909 107.953C284.461 107.803 284.931 107.44 285.216 106.944L286.344 104.984C287.256 105.335 288.202 105.59 289.168 105.744V108C289.168 108.573 289.395 109.122 289.8 109.527C290.205 109.932 290.755 110.16 291.328 110.16C291.9 110.16 292.45 109.932 292.855 109.527C293.26 109.122 293.488 108.573 293.488 108V105.744C294.453 105.59 295.399 105.335 296.312 104.984L297.44 106.944C297.724 107.44 298.194 107.803 298.746 107.953C299.298 108.103 299.887 108.027 300.384 107.744C300.879 107.459 301.242 106.989 301.392 106.437C301.542 105.885 301.467 105.297 301.184 104.8L300.056 102.84C300.814 102.223 301.506 101.529 302.12 100.768L304.08 101.904C304.576 102.187 305.165 102.263 305.717 102.113C306.269 101.963 306.739 101.6 307.024 101.104V101.104C307.307 100.607 307.382 100.018 307.232 99.4666C307.082 98.9147 306.719 98.4448 306.224 98.1599L304.264 97.0239C304.617 96.1123 304.871 95.1656 305.024 94.1999H307.288C307.574 94.1989 307.856 94.1409 308.12 94.0293C308.383 93.9177 308.622 93.7547 308.821 93.5499C309.021 93.3451 309.178 93.1025 309.282 92.8364C309.387 92.5702 309.438 92.2859 309.432 91.9999V91.9999ZM300.728 91.9999C300.728 93.8607 300.176 95.6796 299.142 97.2267C298.108 98.7739 296.639 99.9797 294.92 100.692C293.201 101.404 291.309 101.59 289.484 101.227C287.659 100.864 285.983 99.9681 284.667 98.6524C283.351 97.3367 282.455 95.6603 282.092 93.8353C281.729 92.0104 281.916 90.1187 282.628 88.3996C283.34 86.6806 284.546 85.2112 286.093 84.1775C287.64 83.1437 289.459 82.5919 291.32 82.5919C293.814 82.5941 296.206 83.5859 297.97 85.3498C299.734 87.1137 300.725 89.5054 300.728 91.9999V91.9999Z" stroke="black" stroke-miterlimit="10"/>
<path d="M96.6557 198.4C96.6557 197.975 96.4871 197.568 96.1871 197.268C95.887 196.968 95.48 196.8 95.0557 196.8H93.3837C93.2718 196.086 93.084 195.386 92.8237 194.712L94.2717 193.912C94.6363 193.699 94.9023 193.352 95.0116 192.944C95.121 192.536 95.065 192.102 94.8557 191.736C94.6433 191.371 94.2955 191.105 93.8879 190.996C93.4804 190.887 93.0461 190.943 92.6797 191.152L91.2317 191.952C90.7757 191.392 90.2637 190.88 89.7037 190.424L90.5037 188.984C90.7136 188.618 90.7709 188.185 90.6631 187.777C90.5552 187.37 90.291 187.022 89.9277 186.808V186.808C89.5613 186.599 89.127 186.543 88.7195 186.652C88.3119 186.761 87.9641 187.027 87.7517 187.392L86.9517 188.832C86.2776 188.573 85.5775 188.388 84.8637 188.28V186.608C84.8637 186.183 84.6951 185.776 84.3951 185.476C84.095 185.176 83.688 185.008 83.2637 185.008C82.8394 185.008 82.4324 185.176 82.1323 185.476C81.8323 185.776 81.6637 186.183 81.6637 186.608V188.28C80.9503 188.39 80.2504 188.575 79.5757 188.832L78.7757 187.392C78.5633 187.027 78.2155 186.761 77.8079 186.652C77.4004 186.543 76.9661 186.599 76.5997 186.808V186.808C76.2351 187.02 75.9691 187.368 75.8598 187.776C75.7504 188.183 75.8064 188.617 76.0157 188.984L76.8157 190.424C76.2519 190.876 75.7395 191.388 75.2877 191.952L73.8397 191.152C73.4733 190.943 73.039 190.887 72.6315 190.996C72.2239 191.105 71.8761 191.371 71.6637 191.736C71.4544 192.102 71.3984 192.536 71.5078 192.944C71.6171 193.352 71.8831 193.699 72.2477 193.912L73.6957 194.712C73.4354 195.386 73.2476 196.086 73.1357 196.8H71.4877C71.0633 196.8 70.6564 196.968 70.3563 197.268C70.0563 197.568 69.8877 197.975 69.8877 198.4C69.8877 198.824 70.0563 199.231 70.3563 199.531C70.6564 199.831 71.0633 200 71.4877 200H73.1597C73.2706 200.714 73.4584 201.414 73.7197 202.088L72.2717 202.888C71.9071 203.1 71.6411 203.448 71.5318 203.856C71.4224 204.263 71.4784 204.697 71.6877 205.064C71.9001 205.428 72.2479 205.694 72.6555 205.804C73.063 205.913 73.4973 205.857 73.8637 205.648L75.3117 204.848C75.7515 205.416 76.2502 205.937 76.7997 206.4L75.9997 207.848C75.7904 208.214 75.7344 208.648 75.8438 209.056C75.9531 209.464 76.2191 209.811 76.5837 210.024C76.9501 210.233 77.3844 210.289 77.7919 210.18C78.1995 210.07 78.5473 209.804 78.7597 209.44L79.5597 207.992C80.2353 208.247 80.9348 208.435 81.6477 208.552V210.224C81.6477 210.648 81.8163 211.055 82.1163 211.355C82.4164 211.655 82.8233 211.824 83.2477 211.824C83.672 211.824 84.079 211.655 84.3791 211.355C84.6791 211.055 84.8477 210.648 84.8477 210.224V208.552C85.561 208.437 86.2607 208.249 86.9357 207.992L87.7357 209.44C87.9481 209.804 88.2959 210.07 88.7035 210.18C89.111 210.289 89.5453 210.233 89.9117 210.024C90.2749 209.81 90.5392 209.462 90.647 209.054C90.7549 208.647 90.6976 208.213 90.4877 207.848L89.6877 206.4C90.2477 205.944 90.7597 205.432 91.2157 204.872L92.6637 205.672C93.0301 205.881 93.4644 205.937 93.8719 205.828C94.2795 205.718 94.6273 205.452 94.8397 205.088C95.049 204.721 95.105 204.287 94.9956 203.88C94.8862 203.472 94.6203 203.124 94.2557 202.912L92.8077 202.112C93.069 201.438 93.2568 200.738 93.3677 200.024H95.0397C95.2532 200.026 95.465 199.985 95.6625 199.904C95.8601 199.823 96.0394 199.704 96.19 199.552C96.3406 199.401 96.4594 199.221 96.5394 199.023C96.6194 198.825 96.6589 198.613 96.6557 198.4V198.4ZM90.2557 198.4C90.2557 199.775 89.848 201.119 89.0841 202.262C88.3202 203.405 87.2344 204.296 85.9641 204.823C84.6938 205.349 83.296 205.486 81.9474 205.218C80.5989 204.95 79.3601 204.288 78.3879 203.316C77.4156 202.343 76.7535 201.105 76.4853 199.756C76.217 198.408 76.3547 197.01 76.8809 195.739C77.4071 194.469 78.2981 193.383 79.4414 192.619C80.5846 191.856 81.9287 191.448 83.3037 191.448C85.1413 191.458 86.9001 192.195 88.1965 193.498C89.4929 194.8 90.2216 196.562 90.2237 198.4H90.2557Z" stroke="black" stroke-miterlimit="10"/>
<path d="M325.256 117.32C325.256 116.895 325.087 116.488 324.787 116.188C324.487 115.888 324.08 115.72 323.656 115.72H321.984C321.875 115.006 321.69 114.306 321.432 113.632L322.88 112.832C323.243 112.618 323.507 112.27 323.615 111.862C323.723 111.455 323.666 111.021 323.456 110.656C323.243 110.291 322.895 110.025 322.488 109.916C322.08 109.806 321.646 109.862 321.28 110.072L319.84 110.872C319.384 110.312 318.872 109.8 318.312 109.344L319.112 107.896C319.321 107.529 319.377 107.095 319.268 106.688C319.158 106.28 318.892 105.932 318.528 105.72V105.72C318.161 105.51 317.727 105.454 317.319 105.564C316.912 105.673 316.564 105.939 316.352 106.304L315.552 107.752C314.877 107.494 314.177 107.309 313.464 107.2V105.528C313.464 105.103 313.295 104.696 312.995 104.396C312.695 104.096 312.288 103.928 311.864 103.928C311.439 103.928 311.032 104.096 310.732 104.396C310.432 104.696 310.264 105.103 310.264 105.528V107.2C309.55 107.308 308.85 107.493 308.176 107.752L307.376 106.304C307.163 105.939 306.815 105.673 306.408 105.564C306 105.454 305.566 105.51 305.2 105.72V105.72C304.835 105.932 304.569 106.28 304.46 106.688C304.35 107.095 304.406 107.529 304.616 107.896L305.416 109.344C304.856 109.8 304.344 110.312 303.888 110.872L302.448 110.072C302.081 109.862 301.647 109.806 301.239 109.916C300.832 110.025 300.484 110.291 300.272 110.656C300.062 111.021 300.004 111.455 300.112 111.862C300.22 112.27 300.484 112.618 300.848 112.832L302.296 113.632C302.037 114.306 301.852 115.006 301.744 115.72H300.072C299.647 115.72 299.24 115.888 298.94 116.188C298.64 116.488 298.472 116.895 298.472 117.32C298.472 117.744 298.64 118.151 298.94 118.451C299.24 118.751 299.647 118.92 300.072 118.92H301.744C301.853 119.633 302.038 120.333 302.296 121.008L300.848 121.808C300.484 122.021 300.22 122.37 300.112 122.777C300.004 123.185 300.062 123.618 300.272 123.984C300.484 124.348 300.832 124.614 301.239 124.724C301.647 124.833 302.081 124.777 302.448 124.568L303.888 123.768C304.344 124.328 304.856 124.84 305.416 125.296L304.616 126.736C304.406 127.102 304.35 127.536 304.46 127.944C304.569 128.351 304.835 128.699 305.2 128.912C305.566 129.121 306 129.177 306.408 129.068C306.815 128.958 307.163 128.692 307.376 128.328L308.176 126.888C308.85 127.146 309.55 127.331 310.264 127.44V129.112C310.264 129.536 310.432 129.943 310.732 130.243C311.032 130.543 311.439 130.712 311.864 130.712C312.288 130.712 312.695 130.543 312.995 130.243C313.295 129.943 313.464 129.536 313.464 129.112V127.44C314.177 127.331 314.877 127.145 315.552 126.888L316.352 128.328C316.564 128.692 316.912 128.958 317.319 129.068C317.727 129.177 318.161 129.121 318.528 128.912V128.912C318.892 128.699 319.158 128.351 319.268 127.944C319.377 127.536 319.321 127.102 319.112 126.736L318.312 125.296C318.872 124.84 319.384 124.328 319.84 123.768L321.28 124.568C321.646 124.777 322.08 124.833 322.488 124.724C322.895 124.614 323.243 124.348 323.456 123.984C323.666 123.618 323.723 123.185 323.615 122.777C323.507 122.37 323.243 122.021 322.88 121.808L321.432 121.008C321.689 120.333 321.874 119.633 321.984 118.92H323.656C324.08 118.92 324.487 118.751 324.787 118.451C325.087 118.151 325.256 117.744 325.256 117.32ZM318.856 117.32C318.856 118.695 318.448 120.039 317.684 121.182C316.92 122.325 315.834 123.216 314.564 123.743C313.294 124.269 311.896 124.406 310.547 124.138C309.199 123.87 307.96 123.208 306.988 122.236C306.016 121.263 305.353 120.025 305.085 118.676C304.817 117.327 304.955 115.93 305.481 114.659C306.007 113.389 306.898 112.303 308.041 111.539C309.185 110.775 310.529 110.368 311.904 110.368C313.743 110.376 315.504 111.112 316.802 112.415C318.1 113.717 318.83 115.481 318.832 117.32H318.856Z" stroke="black" stroke-miterlimit="10"/>
<path opacity="0.2" d="M229.904 76.168H115.44C111.831 76.168 108.904 79.0942 108.904 82.704V309.816C108.904 313.426 111.831 316.352 115.44 316.352H229.904C233.514 316.352 236.44 313.426 236.44 309.816V82.704C236.44 79.0942 233.514 76.168 229.904 76.168Z" fill="#263238"/>
<path d="M222.304 69.5996H107.84C104.451 69.5996 101.704 72.3468 101.704 75.7356V302.848C101.704 306.236 104.451 308.984 107.84 308.984H222.304C225.693 308.984 228.44 306.236 228.44 302.848V75.7356C228.44 72.3468 225.693 69.5996 222.304 69.5996Z" fill="#263238"/>
<path opacity="0.2" d="M182.664 69.5996H107.84C106.213 69.6017 104.654 70.2489 103.504 71.3991C102.353 72.5494 101.706 74.1089 101.704 75.7356V150.56L182.664 69.5996Z" fill="white"/>
<path d="M222.304 69.5996H107.84C104.451 69.5996 101.704 72.3468 101.704 75.7356V302.848C101.704 306.236 104.451 308.984 107.84 308.984H222.304C225.693 308.984 228.44 306.236 228.44 302.848V75.7356C228.44 72.3468 225.693 69.5996 222.304 69.5996Z" stroke="#263238" stroke-linecap="round" stroke-linejoin="round"/>
<path d="M211.768 77.3281L196.824 92.2641" stroke="white" stroke-linecap="round" stroke-linejoin="round"/>
<path d="M214.824 74.2637L213.464 75.6317" stroke="white" stroke-linecap="round" stroke-linejoin="round"/>
<path d="M217.864 74.2637L199.872 92.2637" stroke="white" stroke-linecap="round" stroke-linejoin="round"/>
<path d="M139.232 288.527L124.296 303.463" stroke="white" stroke-linecap="round" stroke-linejoin="round"/>
<path d="M142.296 285.463L140.928 286.831" stroke="white" stroke-linecap="round" stroke-linejoin="round"/>
<path d="M177.6 82.8068H152.52C152.066 82.8068 151.631 82.6264 151.31 82.3054C150.988 81.9843 150.808 81.5489 150.808 81.0948C150.808 80.6408 150.988 80.2053 151.31 79.8842C151.631 79.5632 152.066 79.3828 152.52 79.3828H177.6C178.054 79.3828 178.49 79.5632 178.811 79.8842C179.132 80.2053 179.312 80.6408 179.312 81.0948C179.312 81.5489 179.132 81.9843 178.811 82.3054C178.49 82.6264 178.054 82.8068 177.6 82.8068Z" fill="white"/>
<path d="M171.92 293.248C171.92 291.894 171.518 290.57 170.766 289.444C170.014 288.318 168.944 287.44 167.693 286.922C166.441 286.403 165.065 286.268 163.736 286.532C162.408 286.796 161.188 287.448 160.23 288.406C159.272 289.364 158.62 290.584 158.356 291.912C158.091 293.241 158.227 294.618 158.745 295.869C159.264 297.12 160.141 298.19 161.268 298.942C162.394 299.695 163.718 300.096 165.072 300.096C166.888 300.096 168.63 299.375 169.914 298.091C171.199 296.806 171.92 295.065 171.92 293.248Z" fill="white"/>
<path d="M168.544 289.775H161.6V296.719H168.544V289.775Z" fill="#263238"/>
<path d="M222.808 95.8867H107.336V282.703H222.808V95.8867Z" fill="white" stroke="#263238" stroke-linecap="round" stroke-linejoin="round"/>
<path d="M216 105.415V104.095H214.648C214.597 103.789 214.514 103.489 214.4 103.199L215.568 102.527L214.912 101.375L213.736 102.055C213.548 101.823 213.336 101.611 213.104 101.423L213.776 100.247L212.632 99.5832L211.952 100.759C211.673 100.653 211.383 100.575 211.088 100.527V99.1992H209.76V100.551C209.465 100.6 209.176 100.678 208.896 100.783L208.216 99.6072L207.072 100.271L207.752 101.447C207.518 101.635 207.303 101.847 207.112 102.079L205.944 101.399L205.28 102.551L206.456 103.223C206.346 103.504 206.268 103.797 206.224 104.095H204.864V105.415H206.224C206.267 105.711 206.345 106.001 206.456 106.279L205.28 106.959L205.944 108.111L207.112 107.431C207.303 107.663 207.518 107.875 207.752 108.063L207.072 109.239L208.216 109.903L208.896 108.727C209.176 108.832 209.465 108.91 209.76 108.959V110.311H211.088V108.959C211.383 108.911 211.673 108.833 211.952 108.727L212.632 109.903L213.776 109.239L213.104 108.063C213.336 107.875 213.548 107.663 213.736 107.431L214.912 108.111L215.568 106.959L214.4 106.279C214.507 106 214.585 105.711 214.632 105.415H216ZM213.328 104.751C213.328 105.322 213.159 105.881 212.842 106.356C212.524 106.831 212.073 107.201 211.545 107.419C211.018 107.638 210.437 107.695 209.877 107.584C209.317 107.472 208.802 107.197 208.398 106.793C207.994 106.389 207.719 105.875 207.608 105.315C207.496 104.754 207.554 104.174 207.772 103.646C207.991 103.118 208.361 102.667 208.836 102.35C209.311 102.033 209.869 101.863 210.44 101.863C211.203 101.867 211.934 102.174 212.472 102.715C213.01 103.256 213.312 103.988 213.312 104.751H213.328Z" fill="#CCCCCC"/>
<path d="M124.96 104.136C124.96 105.376 124.072 106.112 122.56 106.112H120.888V108H120.456V102.16H122.56C124.072 102.16 124.96 102.896 124.96 104.136ZM124.52 104.136C124.52 103.128 123.856 102.536 122.592 102.536H120.92V105.736H122.592C123.856 105.728 124.52 105.144 124.52 104.136Z" fill="#263238"/>
<path d="M128.2 103.616V104H128.104C127.882 103.992 127.662 104.033 127.458 104.119C127.254 104.206 127.071 104.336 126.923 104.501C126.775 104.666 126.665 104.861 126.601 105.073C126.537 105.286 126.52 105.509 126.552 105.728V108H126.128V103.624H126.536V104.576C126.68 104.264 126.917 104.004 127.215 103.832C127.513 103.66 127.857 103.585 128.2 103.616Z" fill="#263238"/>
<path d="M133.016 105.943H129.248C129.273 106.309 129.405 106.66 129.628 106.952C129.852 107.244 130.156 107.464 130.503 107.584C130.85 107.704 131.225 107.72 131.581 107.628C131.936 107.537 132.258 107.343 132.504 107.071L132.744 107.351C132.54 107.585 132.286 107.771 132.001 107.894C131.716 108.018 131.406 108.075 131.096 108.063C130.798 108.079 130.501 108.032 130.222 107.926C129.943 107.821 129.689 107.658 129.477 107.449C129.265 107.239 129.099 106.988 128.989 106.711C128.879 106.434 128.828 106.137 128.84 105.839C128.822 105.553 128.863 105.267 128.96 104.998C129.058 104.729 129.209 104.482 129.405 104.274C129.601 104.065 129.837 103.899 130.1 103.785C130.363 103.672 130.646 103.613 130.932 103.613C131.218 103.613 131.501 103.672 131.764 103.785C132.027 103.899 132.263 104.065 132.459 104.274C132.655 104.482 132.806 104.729 132.903 104.998C133.001 105.267 133.042 105.553 133.024 105.839C133.024 105.839 133.016 105.903 133.016 105.943ZM129.256 105.615H132.608C132.579 105.19 132.389 104.793 132.078 104.502C131.767 104.212 131.357 104.051 130.932 104.051C130.506 104.051 130.097 104.212 129.786 104.502C129.475 104.793 129.285 105.19 129.256 105.615Z" fill="#263238"/>
<path d="M134.816 103.016V103.656H136.216V104H134.824V108H134.4V104H133.6V103.64H134.4V102.968C134.387 102.806 134.409 102.642 134.465 102.489C134.522 102.335 134.611 102.196 134.727 102.081C134.843 101.966 134.982 101.878 135.136 101.822C135.29 101.767 135.453 101.746 135.616 101.76C135.93 101.746 136.238 101.849 136.48 102.048L136.312 102.36C136.126 102.2 135.886 102.114 135.64 102.12C135.088 102.136 134.816 102.44 134.816 103.016Z" fill="#263238"/>
<path d="M140.688 105.943H136.928C136.953 106.31 137.086 106.661 137.309 106.953C137.532 107.244 137.836 107.464 138.183 107.584C138.53 107.705 138.905 107.72 139.261 107.629C139.617 107.538 139.938 107.344 140.184 107.071L140.424 107.351C140.219 107.586 139.964 107.772 139.677 107.895C139.39 108.018 139.08 108.076 138.768 108.063C138.471 108.078 138.174 108.031 137.895 107.924C137.617 107.818 137.364 107.655 137.152 107.446C136.94 107.237 136.774 106.987 136.664 106.71C136.553 106.433 136.502 106.137 136.512 105.839C136.496 105.553 136.538 105.266 136.637 104.997C136.735 104.728 136.887 104.482 137.084 104.273C137.281 104.065 137.519 103.899 137.782 103.786C138.046 103.673 138.33 103.615 138.616 103.615C138.901 103.614 139.183 103.671 139.445 103.783C139.707 103.894 139.944 104.059 140.139 104.266C140.335 104.473 140.486 104.718 140.584 104.986C140.681 105.254 140.722 105.539 140.704 105.823C140.704 105.823 140.688 105.903 140.688 105.943ZM136.936 105.615H140.288C140.259 105.191 140.07 104.793 139.758 104.503C139.447 104.213 139.038 104.051 138.612 104.051C138.187 104.051 137.777 104.213 137.466 104.503C137.155 104.793 136.966 105.191 136.936 105.615Z" fill="#263238"/>
<path d="M144.072 103.616V104H144C143.779 103.991 143.558 104.032 143.354 104.119C143.15 104.205 142.968 104.335 142.82 104.5C142.672 104.665 142.562 104.861 142.497 105.073C142.433 105.285 142.416 105.508 142.448 105.728V108H142.032V103.624H142.432V104.576C142.577 104.269 142.811 104.013 143.103 103.841C143.396 103.67 143.734 103.591 144.072 103.616Z" fill="#263238"/>
<path d="M148.88 105.943H145.112C145.137 106.309 145.27 106.66 145.493 106.952C145.716 107.244 146.02 107.464 146.367 107.584C146.714 107.704 147.089 107.72 147.445 107.628C147.801 107.537 148.122 107.343 148.368 107.071L148.616 107.351C148.41 107.585 148.155 107.77 147.868 107.893C147.582 108.016 147.272 108.074 146.96 108.063C146.662 108.079 146.365 108.032 146.086 107.926C145.807 107.821 145.554 107.658 145.341 107.449C145.129 107.239 144.963 106.988 144.853 106.711C144.743 106.434 144.693 106.137 144.704 105.839C144.687 105.553 144.728 105.267 144.825 104.998C144.922 104.729 145.073 104.482 145.269 104.274C145.465 104.065 145.702 103.899 145.964 103.785C146.227 103.672 146.51 103.613 146.796 103.613C147.082 103.613 147.365 103.672 147.628 103.785C147.891 103.899 148.127 104.065 148.323 104.274C148.519 104.482 148.671 104.729 148.768 104.998C148.865 105.267 148.906 105.553 148.888 105.839C148.888 105.839 148.88 105.903 148.88 105.943ZM145.12 105.615H148.48C148.48 105.169 148.303 104.742 147.988 104.427C147.673 104.112 147.246 103.935 146.8 103.935C146.355 103.935 145.927 104.112 145.612 104.427C145.297 104.742 145.12 105.169 145.12 105.615Z" fill="#263238"/>
<path d="M154.104 105.471V107.999H153.68V105.471C153.708 105.275 153.692 105.074 153.632 104.885C153.573 104.696 153.471 104.522 153.335 104.378C153.199 104.233 153.032 104.121 152.846 104.05C152.661 103.979 152.462 103.951 152.264 103.967C152.04 103.959 151.817 103.997 151.609 104.081C151.401 104.164 151.213 104.29 151.057 104.451C150.901 104.611 150.78 104.803 150.703 105.013C150.626 105.223 150.593 105.448 150.608 105.671V107.999H150.184V103.623H150.592V104.567C150.753 104.251 151.003 103.989 151.312 103.814C151.621 103.639 151.974 103.559 152.328 103.583C152.576 103.564 152.825 103.601 153.057 103.69C153.289 103.78 153.498 103.921 153.668 104.102C153.838 104.283 153.966 104.5 154.041 104.737C154.117 104.974 154.138 105.225 154.104 105.471Z" fill="#263238"/>
<path d="M155.36 105.84C155.348 105.546 155.397 105.252 155.503 104.978C155.609 104.704 155.771 104.454 155.979 104.246C156.186 104.037 156.434 103.873 156.708 103.765C156.981 103.656 157.274 103.606 157.568 103.616C157.89 103.599 158.212 103.664 158.502 103.804C158.793 103.943 159.044 104.154 159.232 104.416L158.92 104.64C158.767 104.436 158.568 104.271 158.338 104.16C158.108 104.048 157.855 103.993 157.6 104C157.132 104.031 156.693 104.238 156.373 104.581C156.052 104.923 155.874 105.375 155.874 105.844C155.874 106.313 156.052 106.764 156.373 107.107C156.693 107.449 157.132 107.657 157.6 107.688C157.862 107.698 158.122 107.643 158.358 107.528C158.594 107.414 158.798 107.243 158.952 107.032L159.264 107.256C159.074 107.516 158.823 107.725 158.533 107.865C158.242 108.005 157.922 108.07 157.6 108.056C157.304 108.07 157.008 108.023 156.732 107.917C156.455 107.812 156.203 107.649 155.992 107.441C155.782 107.232 155.617 106.983 155.508 106.707C155.399 106.431 155.349 106.136 155.36 105.84Z" fill="#263238"/>
<path d="M164.112 105.943H160.344C160.369 106.309 160.502 106.66 160.725 106.952C160.948 107.244 161.252 107.464 161.599 107.584C161.946 107.704 162.321 107.72 162.677 107.628C163.033 107.537 163.354 107.343 163.6 107.071L163.84 107.351C163.636 107.585 163.383 107.771 163.097 107.894C162.812 108.018 162.503 108.075 162.192 108.063C161.894 108.079 161.597 108.032 161.318 107.926C161.039 107.821 160.786 107.658 160.573 107.449C160.361 107.239 160.195 106.988 160.085 106.711C159.975 106.434 159.925 106.137 159.936 105.839C159.918 105.553 159.959 105.267 160.057 104.998C160.154 104.729 160.305 104.482 160.501 104.274C160.697 104.065 160.934 103.899 161.196 103.785C161.459 103.672 161.742 103.613 162.028 103.613C162.314 103.613 162.597 103.672 162.86 103.785C163.123 103.899 163.359 104.065 163.555 104.274C163.751 104.482 163.903 104.729 164 104.998C164.097 105.267 164.138 105.553 164.12 105.839C164.12 105.839 164.112 105.903 164.112 105.943ZM160.352 105.615H163.704C163.675 105.19 163.485 104.793 163.174 104.502C162.863 104.212 162.454 104.051 162.028 104.051C161.603 104.051 161.193 104.212 160.882 104.502C160.571 104.793 160.381 105.19 160.352 105.615Z" fill="#263238"/>
<path d="M164.8 107.503L164.992 107.167C165.45 107.52 166.014 107.706 166.592 107.695C167.52 107.695 167.888 107.367 167.888 106.895C167.888 105.623 164.984 106.559 164.984 104.839C164.984 104.183 165.536 103.639 166.648 103.639C167.179 103.63 167.7 103.78 168.144 104.071L167.952 104.407C167.567 104.142 167.108 104.005 166.64 104.015C165.784 104.015 165.408 104.367 165.408 104.815C165.408 106.135 168.304 105.207 168.304 106.871C168.304 107.583 167.696 108.071 166.576 108.071C165.936 108.096 165.308 107.895 164.8 107.503Z" fill="#263238"/>
<path d="M116.52 136.872H113.12L112.368 138.528H111.912L114.608 132.656H115.04L117.736 138.528H117.272L116.52 136.872ZM116.36 136.512L114.816 133.128L113.28 136.512H116.36Z" fill="#263238"/>
<path d="M122.4 134.152V138.528H121.992V137.6C121.844 137.907 121.608 138.162 121.315 138.334C121.022 138.507 120.684 138.588 120.344 138.568C120.095 138.594 119.844 138.563 119.608 138.479C119.372 138.394 119.159 138.258 118.983 138.08C118.807 137.902 118.674 137.686 118.592 137.45C118.511 137.213 118.483 136.961 118.512 136.712V134.16H118.936V136.68C118.909 136.879 118.927 137.081 118.989 137.272C119.05 137.463 119.154 137.638 119.292 137.783C119.431 137.928 119.6 138.04 119.788 138.111C119.975 138.182 120.176 138.21 120.376 138.192C120.598 138.203 120.82 138.165 121.026 138.082C121.232 137.999 121.417 137.872 121.569 137.71C121.721 137.548 121.837 137.354 121.907 137.144C121.977 136.933 122.001 136.709 121.976 136.488V134.16L122.4 134.152Z" fill="#263238"/>
<path d="M126.4 138.247C126.152 138.462 125.832 138.573 125.504 138.559C125.343 138.577 125.181 138.559 125.028 138.505C124.875 138.451 124.736 138.364 124.622 138.25C124.508 138.135 124.42 137.996 124.367 137.844C124.313 137.691 124.294 137.528 124.312 137.367V134.511H123.512V134.151H124.312V133.191H124.728V134.151H126.12V134.511H124.728V137.327C124.728 137.887 125.008 138.199 125.528 138.199C125.777 138.208 126.02 138.122 126.208 137.959L126.4 138.247Z" fill="#263238"/>
<path d="M126.888 136.336C126.894 135.903 127.028 135.482 127.273 135.126C127.518 134.77 127.863 134.494 128.265 134.333C128.666 134.172 129.107 134.134 129.53 134.222C129.953 134.311 130.341 134.523 130.644 134.832C130.947 135.141 131.152 135.532 131.233 135.957C131.314 136.382 131.268 136.821 131.1 137.219C130.931 137.618 130.649 137.958 130.289 138.196C129.928 138.435 129.504 138.561 129.072 138.56C128.78 138.568 128.489 138.515 128.217 138.406C127.946 138.296 127.7 138.132 127.495 137.924C127.29 137.715 127.131 137.466 127.026 137.193C126.922 136.92 126.875 136.628 126.888 136.336ZM130.84 136.336C130.824 135.99 130.707 135.656 130.504 135.376C130.3 135.096 130.019 134.882 129.695 134.76C129.371 134.639 129.018 134.615 128.681 134.692C128.343 134.769 128.036 134.943 127.796 135.194C127.557 135.444 127.396 135.759 127.334 136.099C127.272 136.44 127.312 136.791 127.448 137.11C127.583 137.428 127.81 137.7 128.099 137.89C128.387 138.081 128.726 138.183 129.072 138.184C129.312 138.189 129.551 138.144 129.773 138.051C129.995 137.959 130.196 137.822 130.362 137.648C130.528 137.474 130.656 137.268 130.739 137.042C130.821 136.816 130.856 136.576 130.84 136.336Z" fill="#263238"/>
<path d="M132.28 136.088H134.4V136.464H132.248L132.28 136.088Z" fill="#263238"/>
<path d="M139 135.752V138.528H138.6V137.728C138.435 137.998 138.197 138.216 137.915 138.357C137.632 138.499 137.315 138.558 137 138.528C136.016 138.528 135.4 138.024 135.4 137.28C135.4 136.536 135.816 136.056 137 136.056H138.504V135.704C138.522 135.531 138.499 135.356 138.439 135.193C138.379 135.029 138.283 134.882 138.157 134.761C138.031 134.641 137.879 134.551 137.714 134.498C137.548 134.445 137.372 134.431 137.2 134.456C136.646 134.451 136.109 134.648 135.688 135.008L135.48 134.704C135.972 134.296 136.593 134.078 137.232 134.088C137.465 134.041 137.706 134.05 137.935 134.116C138.163 134.181 138.373 134.3 138.546 134.463C138.719 134.626 138.851 134.828 138.93 135.052C139.009 135.277 139.033 135.516 139 135.752ZM138.584 137.24V136.44H137.088C136.184 136.44 135.864 136.816 135.864 137.32C135.864 137.824 136.312 138.24 137.08 138.24C137.405 138.257 137.727 138.169 137.998 137.989C138.269 137.809 138.474 137.546 138.584 137.24Z" fill="#263238"/>
<path d="M140.728 132.303H141.144V138.527H140.728V132.303Z" fill="#263238"/>
<path d="M142.776 132.752C142.776 132.661 142.813 132.573 142.877 132.509C142.942 132.444 143.029 132.408 143.12 132.408C143.188 132.408 143.255 132.428 143.311 132.466C143.368 132.504 143.412 132.558 143.438 132.621C143.464 132.683 143.471 132.753 143.458 132.819C143.444 132.886 143.412 132.947 143.364 132.995C143.315 133.044 143.254 133.076 143.187 133.09C143.121 133.103 143.052 133.096 142.989 133.07C142.926 133.044 142.872 133 142.834 132.943C142.797 132.887 142.776 132.82 142.776 132.752ZM142.912 134.152H143.328V138.528H142.912V134.152Z" fill="#263238"/>
<path d="M149.04 134.152V138.056C149.04 139.528 148.328 140.192 146.92 140.192C146.187 140.221 145.47 139.972 144.912 139.496L145.144 139.176C145.634 139.601 146.264 139.826 146.912 139.808C148.08 139.808 148.624 139.272 148.624 138.112V137.368C148.444 137.691 148.178 137.958 147.857 138.14C147.535 138.322 147.169 138.412 146.8 138.4C146.51 138.418 146.22 138.376 145.946 138.278C145.673 138.179 145.423 138.026 145.212 137.827C145 137.628 144.831 137.387 144.716 137.121C144.601 136.854 144.542 136.567 144.542 136.276C144.542 135.986 144.601 135.699 144.716 135.432C144.831 135.165 145 134.925 145.212 134.726C145.423 134.527 145.673 134.374 145.946 134.275C146.22 134.176 146.51 134.135 146.8 134.152C147.17 134.136 147.538 134.222 147.863 134.402C148.187 134.581 148.456 134.846 148.64 135.168V134.184L149.04 134.152ZM148.632 136.24C148.64 135.884 148.542 135.534 148.35 135.234C148.158 134.934 147.881 134.698 147.554 134.557C147.227 134.415 146.866 134.374 146.515 134.438C146.165 134.503 145.842 134.67 145.588 134.919C145.333 135.168 145.158 135.487 145.086 135.836C145.013 136.185 145.046 136.547 145.181 136.877C145.315 137.206 145.545 137.489 145.84 137.687C146.136 137.886 146.484 137.992 146.84 137.992C147.075 138.006 147.311 137.97 147.532 137.887C147.753 137.805 147.954 137.677 148.123 137.512C148.291 137.347 148.424 137.149 148.511 136.93C148.599 136.711 148.64 136.476 148.632 136.24Z" fill="#263238"/>
<path d="M154.736 136V138.56H154.312V136C154.341 135.803 154.324 135.603 154.265 135.413C154.205 135.224 154.103 135.051 153.967 134.906C153.831 134.762 153.664 134.65 153.479 134.579C153.293 134.507 153.094 134.479 152.896 134.496C152.672 134.486 152.448 134.524 152.239 134.607C152.03 134.69 151.841 134.816 151.684 134.976C151.527 135.137 151.406 135.329 151.328 135.54C151.25 135.751 151.218 135.975 151.232 136.2V138.528H150.816V134.152H151.216V135.096C151.379 134.781 151.63 134.522 151.939 134.348C152.247 134.175 152.599 134.095 152.952 134.12C153.201 134.098 153.45 134.132 153.683 134.221C153.916 134.309 154.126 134.449 154.298 134.629C154.469 134.81 154.598 135.027 154.674 135.264C154.75 135.502 154.771 135.753 154.736 136Z" fill="#263238"/>
<path d="M112.296 163.256L112.488 162.936C113.014 163.422 113.708 163.686 114.424 163.672C115.6 163.672 116.12 163.168 116.12 162.528C116.12 160.768 112.456 161.824 112.456 159.656C112.456 158.856 113.088 158.096 114.536 158.096C115.164 158.094 115.779 158.278 116.304 158.624L116.144 158.968C115.67 158.651 115.114 158.481 114.544 158.48C113.4 158.48 112.888 159.008 112.888 159.648C112.888 161.408 116.552 160.368 116.552 162.504C116.552 163.304 115.888 164.056 114.44 164.056C113.647 164.084 112.876 163.796 112.296 163.256Z" fill="#263238"/>
<path d="M121.776 161.455V163.999H121.36V161.479C121.389 161.282 121.372 161.08 121.312 160.89C121.252 160.7 121.149 160.525 121.012 160.38C120.876 160.235 120.708 160.122 120.521 160.051C120.335 159.979 120.135 159.951 119.936 159.967C119.712 159.959 119.489 159.998 119.281 160.081C119.074 160.164 118.885 160.29 118.729 160.451C118.573 160.612 118.453 160.803 118.375 161.013C118.298 161.224 118.266 161.448 118.28 161.671V163.999H117.864V157.783H118.28V160.535C118.448 160.231 118.698 159.981 119.003 159.816C119.308 159.65 119.654 159.575 120 159.599C120.245 159.581 120.491 159.617 120.72 159.705C120.949 159.793 121.156 159.931 121.326 160.108C121.496 160.286 121.624 160.498 121.702 160.731C121.78 160.964 121.805 161.211 121.776 161.455Z" fill="#263238"/>
<path d="M126.664 161.231V163.999H126.264V163.199C126.098 163.469 125.861 163.686 125.578 163.827C125.295 163.969 124.979 164.028 124.664 163.999C123.688 163.999 123.064 163.495 123.064 162.743C123.064 161.991 123.488 161.519 124.704 161.519H126.2V161.167C126.219 160.995 126.198 160.82 126.139 160.656C126.08 160.493 125.984 160.345 125.859 160.225C125.734 160.104 125.582 160.014 125.417 159.961C125.251 159.908 125.076 159.894 124.904 159.919C124.349 159.912 123.811 160.108 123.392 160.471L123.184 160.175C123.673 159.762 124.296 159.541 124.936 159.551C125.168 159.511 125.406 159.526 125.63 159.595C125.855 159.665 126.06 159.786 126.229 159.95C126.397 160.114 126.525 160.316 126.6 160.539C126.676 160.761 126.698 160.999 126.664 161.231ZM126.24 162.719V161.919H124.752C123.848 161.919 123.528 162.295 123.528 162.799C123.528 163.303 123.968 163.727 124.744 163.727C125.069 163.746 125.392 163.658 125.662 163.476C125.932 163.294 126.135 163.028 126.24 162.719Z" fill="#263238"/>
<path d="M129.944 161.671L128.808 162.711V163.999H128.384V157.783H128.8V162.183L131.6 159.623H132.136L130.248 161.391L132.32 163.999H131.8L129.944 161.671Z" fill="#263238"/>
<path d="M136.84 161.919H133.072C133.099 162.284 133.233 162.634 133.456 162.924C133.679 163.215 133.982 163.434 134.328 163.555C134.674 163.675 135.047 163.692 135.403 163.604C135.758 163.515 136.08 163.324 136.328 163.055L136.568 163.327C136.365 163.563 136.111 163.75 135.826 163.874C135.541 163.999 135.231 164.058 134.92 164.047C134.623 164.062 134.326 164.014 134.047 163.908C133.769 163.802 133.516 163.639 133.304 163.43C133.092 163.221 132.926 162.97 132.816 162.694C132.705 162.417 132.654 162.121 132.664 161.823C132.646 161.537 132.687 161.251 132.785 160.982C132.882 160.713 133.033 160.467 133.229 160.258C133.425 160.05 133.662 159.883 133.924 159.77C134.187 159.656 134.47 159.598 134.756 159.598C135.042 159.598 135.325 159.656 135.588 159.77C135.851 159.883 136.087 160.05 136.283 160.258C136.479 160.467 136.631 160.713 136.728 160.982C136.825 161.251 136.866 161.537 136.848 161.823C136.848 161.823 136.84 161.879 136.84 161.919ZM133.08 161.591H136.432C136.403 161.167 136.213 160.769 135.902 160.479C135.591 160.188 135.182 160.027 134.756 160.027C134.331 160.027 133.921 160.188 133.61 160.479C133.299 160.769 133.11 161.167 133.08 161.591Z" fill="#263238"/>
<path d="M116.52 187.839H113.12L112.368 189.495H111.912L114.608 183.623H115.04L117.736 189.495H117.272L116.52 187.839ZM116.36 187.479L114.816 184.095L113.28 187.479H116.36Z" fill="#263238"/>
<path d="M123.024 187.303C123.04 187.593 122.995 187.884 122.893 188.157C122.79 188.429 122.633 188.678 122.43 188.887C122.227 189.096 121.983 189.26 121.714 189.37C121.444 189.481 121.155 189.534 120.864 189.527C120.5 189.536 120.141 189.445 119.826 189.263C119.511 189.081 119.253 188.815 119.08 188.495V191.119H118.664V185.119H119.064V186.151C119.233 185.821 119.491 185.545 119.81 185.355C120.128 185.166 120.494 185.07 120.864 185.079C121.155 185.073 121.444 185.127 121.713 185.237C121.981 185.348 122.225 185.513 122.427 185.721C122.63 185.93 122.788 186.178 122.89 186.45C122.993 186.722 123.038 187.012 123.024 187.303ZM122.608 187.303C122.592 186.957 122.476 186.623 122.272 186.343C122.068 186.063 121.787 185.849 121.463 185.727C121.139 185.606 120.786 185.582 120.449 185.659C120.111 185.736 119.804 185.91 119.564 186.16C119.325 186.411 119.164 186.726 119.102 187.066C119.04 187.407 119.08 187.758 119.216 188.076C119.352 188.395 119.578 188.666 119.867 188.857C120.155 189.048 120.494 189.15 120.84 189.151C121.08 189.154 121.318 189.109 121.54 189.016C121.761 188.923 121.961 188.786 122.127 188.613C122.293 188.439 122.422 188.233 122.504 188.008C122.587 187.782 122.622 187.542 122.608 187.303Z" fill="#263238"/>
<path d="M128.68 187.303C128.696 187.593 128.651 187.884 128.549 188.157C128.447 188.429 128.289 188.678 128.086 188.887C127.884 189.096 127.64 189.26 127.37 189.37C127.101 189.481 126.811 189.534 126.52 189.527C126.158 189.536 125.8 189.444 125.486 189.262C125.173 189.08 124.916 188.814 124.744 188.495V191.119H124.32V185.119H124.728V186.151C124.895 185.821 125.152 185.545 125.469 185.355C125.786 185.165 126.151 185.069 126.52 185.079C126.811 185.073 127.1 185.127 127.369 185.237C127.638 185.348 127.881 185.513 128.084 185.721C128.286 185.93 128.444 186.178 128.546 186.45C128.649 186.722 128.695 187.012 128.68 187.303ZM128.264 187.303C128.249 186.957 128.132 186.623 127.928 186.343C127.725 186.063 127.443 185.849 127.119 185.727C126.795 185.606 126.442 185.582 126.105 185.659C125.767 185.736 125.46 185.91 125.221 186.161C124.981 186.411 124.821 186.726 124.759 187.066C124.697 187.407 124.736 187.758 124.872 188.077C125.008 188.395 125.234 188.666 125.523 188.857C125.812 189.048 126.15 189.15 126.496 189.151C126.737 189.156 126.976 189.111 127.198 189.018C127.42 188.926 127.62 188.789 127.786 188.615C127.953 188.441 128.081 188.235 128.163 188.009C128.245 187.783 128.28 187.543 128.264 187.303Z" fill="#263238"/>
<path d="M131.488 188.968L131.68 188.632C132.139 188.982 132.702 189.168 133.28 189.16C134.208 189.16 134.576 188.832 134.576 188.36C134.576 187.088 131.672 188.024 131.672 186.304C131.672 185.64 132.224 185.104 133.328 185.104C133.861 185.094 134.385 185.244 134.832 185.536L134.64 185.872C134.253 185.603 133.791 185.463 133.32 185.472C132.472 185.472 132.088 185.832 132.088 186.272C132.088 187.592 134.992 186.656 134.992 188.328C134.992 189.04 134.384 189.528 133.264 189.528C132.625 189.555 131.996 189.357 131.488 188.968Z" fill="#263238"/>
<path d="M140 185.119V189.495H139.592V188.551C139.446 188.86 139.211 189.117 138.917 189.291C138.624 189.465 138.285 189.547 137.944 189.527C137.695 189.551 137.445 189.52 137.21 189.434C136.975 189.349 136.762 189.213 136.586 189.035C136.411 188.857 136.277 188.643 136.195 188.407C136.113 188.171 136.085 187.919 136.112 187.671V185.119H136.536V187.639C136.509 187.838 136.527 188.04 136.589 188.231C136.65 188.422 136.754 188.596 136.892 188.742C137.031 188.887 137.2 188.999 137.388 189.07C137.575 189.141 137.776 189.169 137.976 189.151C138.198 189.162 138.42 189.124 138.626 189.041C138.832 188.957 139.017 188.83 139.169 188.668C139.321 188.506 139.437 188.313 139.507 188.102C139.577 187.892 139.601 187.668 139.576 187.447V185.119H140Z" fill="#263238"/>
<path d="M145.688 185.12V189.024C145.735 189.313 145.712 189.61 145.622 189.888C145.532 190.167 145.377 190.421 145.171 190.628C144.964 190.836 144.711 190.992 144.432 191.083C144.154 191.174 143.858 191.197 143.568 191.152C142.835 191.184 142.117 190.935 141.56 190.456L141.792 190.136C142.279 190.566 142.911 190.795 143.56 190.776C143.793 190.815 144.032 190.797 144.256 190.725C144.481 190.653 144.686 190.529 144.853 190.363C145.02 190.196 145.145 189.992 145.218 189.768C145.291 189.544 145.31 189.305 145.272 189.072V188.336C145.088 188.653 144.821 188.913 144.499 189.089C144.178 189.266 143.815 189.351 143.448 189.336C142.884 189.336 142.343 189.112 141.944 188.713C141.545 188.314 141.32 187.772 141.32 187.208C141.32 186.644 141.545 186.102 141.944 185.703C142.343 185.304 142.884 185.08 143.448 185.08C143.82 185.064 144.188 185.151 144.513 185.332C144.838 185.512 145.106 185.78 145.288 186.104V185.12H145.688ZM145.28 187.2C145.288 186.844 145.19 186.494 144.998 186.195C144.807 185.895 144.53 185.659 144.204 185.517C143.878 185.375 143.517 185.333 143.167 185.397C142.817 185.461 142.494 185.628 142.239 185.876C141.984 186.124 141.809 186.442 141.735 186.791C141.662 187.139 141.694 187.501 141.827 187.831C141.96 188.161 142.188 188.443 142.483 188.643C142.777 188.843 143.125 188.95 143.48 188.952C143.716 188.965 143.952 188.93 144.173 188.847C144.395 188.764 144.596 188.637 144.766 188.472C144.935 188.307 145.068 188.109 145.157 187.89C145.245 187.671 145.287 187.436 145.28 187.2Z" fill="#263238"/>
<path d="M151.408 185.12V189.024C151.453 189.314 151.429 189.61 151.338 189.889C151.247 190.167 151.091 190.421 150.884 190.628C150.677 190.835 150.424 190.991 150.145 191.082C149.866 191.173 149.57 191.197 149.28 191.152C148.549 191.184 147.833 190.935 147.28 190.456L147.504 190.136C147.992 190.564 148.623 190.793 149.272 190.776C149.505 190.814 149.743 190.797 149.968 190.725C150.193 190.653 150.397 190.529 150.565 190.363C150.732 190.196 150.857 189.992 150.93 189.768C151.003 189.543 151.021 189.305 150.984 189.072V188.336C150.8 188.651 150.534 188.911 150.214 189.087C149.895 189.263 149.533 189.349 149.168 189.336C148.604 189.336 148.062 189.112 147.663 188.713C147.264 188.314 147.04 187.772 147.04 187.208C147.04 186.644 147.264 186.102 147.663 185.703C148.062 185.304 148.604 185.08 149.168 185.08C149.538 185.064 149.906 185.152 150.229 185.332C150.553 185.513 150.82 185.78 151 186.104V185.12H151.408ZM150.992 187.208C151 186.852 150.902 186.502 150.71 186.202C150.518 185.902 150.241 185.666 149.914 185.524C149.587 185.382 149.226 185.341 148.876 185.406C148.525 185.47 148.202 185.638 147.948 185.887C147.693 186.136 147.518 186.455 147.446 186.803C147.374 187.152 147.407 187.514 147.541 187.844C147.675 188.174 147.905 188.456 148.2 188.655C148.496 188.854 148.844 188.96 149.2 188.96C149.436 188.974 149.673 188.938 149.894 188.854C150.115 188.771 150.317 188.642 150.486 188.477C150.655 188.311 150.787 188.112 150.874 187.892C150.961 187.672 151.001 187.436 150.992 187.2V187.208Z" fill="#263238"/>
<path d="M156.88 187.408H153.112C153.137 187.774 153.27 188.125 153.493 188.417C153.716 188.709 154.02 188.928 154.367 189.049C154.714 189.169 155.089 189.184 155.445 189.093C155.801 189.002 156.122 188.808 156.368 188.536L156.608 188.816C156.404 189.05 156.151 189.236 155.865 189.359C155.58 189.483 155.271 189.54 154.96 189.528C154.662 189.543 154.365 189.497 154.086 189.391C153.807 189.285 153.554 189.123 153.341 188.913C153.129 188.704 152.963 188.453 152.853 188.176C152.743 187.898 152.693 187.601 152.704 187.304C152.687 187.018 152.728 186.732 152.825 186.463C152.922 186.193 153.073 185.947 153.269 185.739C153.465 185.53 153.702 185.364 153.964 185.25C154.227 185.137 154.51 185.078 154.796 185.078C155.082 185.078 155.365 185.137 155.628 185.25C155.891 185.364 156.127 185.53 156.323 185.739C156.519 185.947 156.671 186.193 156.768 186.463C156.865 186.732 156.906 187.018 156.888 187.304C156.888 187.304 156.88 187.368 156.88 187.408ZM153.12 187.08H156.48C156.48 186.634 156.303 186.207 155.988 185.892C155.673 185.577 155.246 185.4 154.8 185.4C154.355 185.4 153.927 185.577 153.612 185.892C153.297 186.207 153.12 186.634 153.12 187.08Z" fill="#263238"/>
<path d="M157.536 188.968L157.728 188.632C158.188 188.981 158.751 189.167 159.328 189.16C160.256 189.16 160.624 188.832 160.624 188.36C160.624 187.088 157.72 188.024 157.72 186.304C157.72 185.64 158.272 185.104 159.384 185.104C159.915 185.095 160.436 185.245 160.88 185.536L160.688 185.872C160.304 185.604 159.845 185.464 159.376 185.472C158.52 185.472 158.144 185.832 158.144 186.272C158.144 187.592 161.04 186.656 161.04 188.328C161.04 189.04 160.432 189.528 159.312 189.528C158.673 189.555 158.044 189.357 157.536 188.968Z" fill="#263238"/>
<path d="M164.36 189.216C164.11 189.427 163.791 189.538 163.464 189.528C163.304 189.544 163.141 189.525 162.989 189.471C162.837 189.416 162.699 189.329 162.585 189.215C162.471 189.101 162.384 188.963 162.33 188.811C162.276 188.659 162.256 188.497 162.272 188.336V185.48H161.472V185.12H162.272V184.16H162.696V185.12H164.088V185.48H162.696V188.296C162.696 188.856 162.968 189.168 163.496 189.168C163.746 189.173 163.988 189.085 164.176 188.92L164.36 189.216Z" fill="#263238"/>
<path d="M165.392 183.719C165.392 183.674 165.401 183.629 165.418 183.587C165.436 183.546 165.461 183.508 165.493 183.476C165.525 183.444 165.563 183.419 165.604 183.401C165.646 183.384 165.691 183.375 165.736 183.375C165.78 183.374 165.824 183.382 165.865 183.398C165.906 183.413 165.944 183.437 165.976 183.468C166.008 183.498 166.034 183.535 166.051 183.575C166.069 183.615 166.079 183.659 166.08 183.703C166.081 183.749 166.073 183.794 166.056 183.836C166.039 183.878 166.014 183.917 165.982 183.949C165.95 183.981 165.911 184.006 165.869 184.023C165.827 184.04 165.782 184.048 165.736 184.047C165.692 184.048 165.648 184.041 165.607 184.025C165.566 184.009 165.528 183.985 165.496 183.954C165.464 183.924 165.439 183.887 165.421 183.847C165.403 183.807 165.393 183.763 165.392 183.719ZM165.528 185.119H165.944V189.495H165.528V185.119Z" fill="#263238"/>
<path d="M167.2 187.305C167.206 186.872 167.34 186.452 167.585 186.096C167.83 185.739 168.174 185.463 168.575 185.302C168.976 185.141 169.416 185.102 169.839 185.191C170.262 185.279 170.65 185.49 170.953 185.798C171.256 186.106 171.462 186.496 171.544 186.921C171.626 187.345 171.581 187.784 171.414 188.183C171.247 188.581 170.966 188.922 170.607 189.161C170.247 189.401 169.824 189.528 169.392 189.529C169.099 189.536 168.808 189.484 168.536 189.375C168.265 189.265 168.019 189.101 167.813 188.893C167.607 188.684 167.447 188.436 167.341 188.162C167.236 187.889 167.188 187.597 167.2 187.305ZM171.152 187.305C171.135 186.961 171.017 186.629 170.814 186.352C170.61 186.074 170.33 185.862 170.007 185.743C169.684 185.623 169.333 185.6 168.998 185.678C168.663 185.755 168.357 185.929 168.12 186.179C167.882 186.428 167.723 186.741 167.662 187.08C167.601 187.419 167.641 187.768 167.776 188.085C167.912 188.401 168.137 188.671 168.424 188.861C168.711 189.051 169.048 189.152 169.392 189.153C169.636 189.163 169.879 189.122 170.106 189.033C170.333 188.943 170.538 188.807 170.709 188.632C170.879 188.458 171.011 188.25 171.096 188.021C171.181 187.792 171.216 187.548 171.2 187.305H171.152Z" fill="#263238"/>
<path d="M176.8 186.935V189.495H176.384V186.967C176.413 186.77 176.396 186.57 176.336 186.381C176.277 186.191 176.175 186.018 176.039 185.873C175.903 185.729 175.736 185.617 175.55 185.546C175.365 185.475 175.166 185.446 174.968 185.463C174.744 185.453 174.521 185.491 174.313 185.574C174.105 185.656 173.916 185.781 173.759 185.941C173.602 186.101 173.481 186.292 173.402 186.502C173.324 186.711 173.291 186.935 173.304 187.159V189.495H172.888V185.119H173.288V186.063C173.448 185.746 173.698 185.483 174.007 185.308C174.316 185.133 174.67 185.053 175.024 185.079C175.269 185.061 175.515 185.097 175.744 185.185C175.973 185.273 176.18 185.41 176.35 185.588C176.52 185.765 176.648 185.978 176.726 186.211C176.804 186.444 176.829 186.691 176.8 186.935Z" fill="#263238"/>
<path d="M177.904 188.968L178.096 188.632C178.556 188.981 179.119 189.167 179.696 189.16C180.624 189.16 180.992 188.832 180.992 188.36C180.992 187.088 178.088 188.024 178.088 186.304C178.088 185.64 178.64 185.104 179.752 185.104C180.283 185.095 180.804 185.245 181.248 185.536L181.056 185.872C180.672 185.604 180.213 185.464 179.744 185.472C178.888 185.472 178.512 185.832 178.512 186.272C178.512 187.592 181.408 186.656 181.408 188.328C181.408 189.04 180.8 189.528 179.68 189.528C179.041 189.555 178.413 189.357 177.904 188.968Z" fill="#263238"/>
<path d="M117.672 209.104V214.976H117.24V212.184H113.32V214.976H112.888V209.104H113.32V211.808H117.24V209.104H117.672Z" fill="#263238"/>
<path d="M119.104 212.799C119.109 212.366 119.241 211.944 119.485 211.587C119.73 211.229 120.074 210.952 120.475 210.79C120.877 210.628 121.317 210.589 121.741 210.677C122.165 210.764 122.553 210.976 122.857 211.284C123.161 211.592 123.367 211.984 123.448 212.409C123.53 212.834 123.484 213.274 123.316 213.673C123.149 214.072 122.866 214.412 122.505 214.651C122.144 214.89 121.721 215.016 121.288 215.015C120.996 215.023 120.706 214.971 120.435 214.862C120.165 214.753 119.919 214.589 119.714 214.381C119.51 214.174 119.35 213.926 119.245 213.654C119.14 213.381 119.092 213.09 119.104 212.799ZM123.048 212.799C123.032 212.455 122.916 212.123 122.713 211.844C122.511 211.565 122.23 211.352 121.908 211.231C121.585 211.11 121.234 211.086 120.898 211.163C120.562 211.24 120.256 211.413 120.018 211.662C119.78 211.911 119.62 212.225 119.558 212.564C119.496 212.903 119.536 213.253 119.671 213.57C119.806 213.887 120.031 214.157 120.319 214.347C120.606 214.537 120.943 214.638 121.288 214.639C121.527 214.643 121.764 214.597 121.985 214.505C122.205 214.413 122.404 214.276 122.57 214.103C122.735 213.93 122.863 213.725 122.945 213.501C123.027 213.276 123.062 213.037 123.048 212.799Z" fill="#263238"/>
<path d="M132 212.416V214.976H131.584V212.456C131.584 211.464 131.072 210.944 130.216 210.944C129.994 210.933 129.773 210.971 129.567 211.054C129.361 211.138 129.175 211.265 129.023 211.427C128.871 211.589 128.756 211.782 128.686 211.993C128.615 212.204 128.592 212.427 128.616 212.648V214.976H128.192V212.456C128.192 211.464 127.68 210.944 126.832 210.944C126.611 210.935 126.39 210.973 126.184 211.057C125.979 211.141 125.794 211.268 125.642 211.43C125.49 211.591 125.375 211.784 125.304 211.994C125.234 212.204 125.209 212.427 125.232 212.648V214.976H124.8V210.6H125.2V211.536C125.353 211.226 125.594 210.969 125.893 210.797C126.192 210.625 126.536 210.545 126.88 210.568C127.227 210.539 127.573 210.628 127.863 210.819C128.153 211.011 128.37 211.294 128.48 211.624C128.636 211.292 128.888 211.014 129.203 210.825C129.518 210.637 129.882 210.548 130.248 210.568C130.493 210.541 130.741 210.572 130.973 210.657C131.204 210.742 131.413 210.879 131.582 211.058C131.752 211.237 131.878 211.452 131.95 211.688C132.023 211.924 132.04 212.173 132 212.416Z" fill="#263238"/>
<path d="M137.4 212.888H133.6C133.627 213.254 133.76 213.603 133.983 213.894C134.207 214.184 134.51 214.403 134.855 214.524C135.201 214.645 135.575 214.662 135.93 214.573C136.286 214.484 136.607 214.294 136.856 214.024L137.096 214.296C136.892 214.531 136.638 214.717 136.353 214.84C136.068 214.963 135.758 215.021 135.448 215.008C135.151 215.024 134.854 214.978 134.576 214.873C134.298 214.767 134.044 214.605 133.832 214.397C133.62 214.189 133.454 213.938 133.343 213.662C133.233 213.386 133.182 213.09 133.192 212.792C133.173 212.506 133.214 212.219 133.311 211.95C133.408 211.68 133.559 211.433 133.756 211.224C133.953 211.016 134.19 210.85 134.454 210.737C134.717 210.624 135.001 210.567 135.288 210.568C135.572 210.566 135.855 210.622 136.117 210.733C136.379 210.844 136.615 211.008 136.811 211.214C137.007 211.42 137.158 211.665 137.255 211.932C137.352 212.2 137.394 212.484 137.376 212.768C137.408 212.8 137.4 212.848 137.4 212.888ZM133.64 212.56H137C137 212.115 136.823 211.688 136.508 211.373C136.193 211.057 135.765 210.88 135.32 210.88C134.874 210.88 134.447 211.057 134.132 211.373C133.817 211.688 133.64 212.115 133.64 212.56Z" fill="#263238"/>
<path d="M140.216 214.448L140.408 214.112C140.866 214.466 141.43 214.652 142.008 214.64C142.928 214.64 143.296 214.312 143.296 213.84C143.296 212.568 140.4 213.512 140.4 211.792C140.4 211.128 140.952 210.592 142.056 210.592C142.588 210.584 143.111 210.732 143.56 211.016L143.368 211.352C142.979 211.089 142.518 210.952 142.048 210.96C141.192 210.96 140.816 211.312 140.816 211.76C140.816 213.072 143.72 212.144 143.72 213.808C143.72 214.528 143.104 215.008 141.992 215.008C141.353 215.035 140.725 214.837 140.216 214.448Z" fill="#263238"/>
<path d="M144.384 212.799C144.372 212.504 144.421 212.21 144.528 211.935C144.634 211.66 144.797 211.41 145.005 211.202C145.213 210.993 145.463 210.829 145.737 210.721C146.012 210.613 146.305 210.563 146.6 210.575C146.922 210.558 147.243 210.623 147.534 210.763C147.825 210.902 148.076 211.113 148.264 211.375L147.952 211.607C147.798 211.395 147.594 211.225 147.358 211.11C147.122 210.996 146.862 210.941 146.6 210.951C146.132 210.982 145.693 211.189 145.373 211.532C145.052 211.874 144.874 212.326 144.874 212.795C144.874 213.264 145.052 213.715 145.373 214.058C145.693 214.4 146.132 214.608 146.6 214.639C146.862 214.648 147.122 214.594 147.358 214.479C147.594 214.365 147.798 214.194 147.952 213.983L148.264 214.215C148.075 214.476 147.824 214.685 147.533 214.825C147.243 214.965 146.922 215.03 146.6 215.015C146.306 215.026 146.013 214.976 145.739 214.869C145.465 214.762 145.216 214.599 145.008 214.391C144.8 214.183 144.637 213.934 144.53 213.66C144.423 213.386 144.373 213.093 144.384 212.799Z" fill="#263238"/>
<path d="M151.592 210.569V210.977H151.488C151.267 210.968 151.046 211.009 150.842 211.096C150.638 211.182 150.456 211.312 150.307 211.477C150.159 211.642 150.049 211.837 149.985 212.05C149.921 212.262 149.904 212.485 149.936 212.705V214.985H149.52V210.609H149.92V211.561C150.061 211.242 150.297 210.974 150.597 210.797C150.897 210.619 151.245 210.539 151.592 210.569Z" fill="#263238"/>
<path d="M156.4 212.888H152.632C152.659 213.254 152.793 213.603 153.016 213.894C153.239 214.184 153.542 214.403 153.888 214.524C154.234 214.645 154.607 214.662 154.963 214.573C155.318 214.484 155.64 214.294 155.888 214.024L156.136 214.296C155.93 214.53 155.675 214.716 155.388 214.839C155.102 214.962 154.792 215.02 154.48 215.008C154.183 215.024 153.886 214.978 153.608 214.873C153.33 214.767 153.077 214.605 152.864 214.397C152.652 214.189 152.486 213.938 152.376 213.662C152.265 213.386 152.214 213.09 152.224 212.792C152.205 212.506 152.246 212.219 152.343 211.95C152.44 211.68 152.592 211.433 152.788 211.224C152.985 211.016 153.222 210.85 153.486 210.737C153.749 210.624 154.033 210.567 154.32 210.568C154.605 210.566 154.887 210.622 155.149 210.733C155.411 210.844 155.647 211.008 155.843 211.214C156.039 211.42 156.19 211.665 156.287 211.932C156.385 212.2 156.426 212.484 156.408 212.768C156.408 212.8 156.4 212.848 156.4 212.888ZM152.64 212.56H156C156 212.115 155.823 211.688 155.508 211.373C155.193 211.057 154.766 210.88 154.32 210.88C153.875 210.88 153.447 211.057 153.132 211.373C152.817 211.688 152.64 212.115 152.64 212.56Z" fill="#263238"/>
<path d="M161.408 212.888H157.64C157.667 213.254 157.8 213.603 158.023 213.894C158.247 214.184 158.55 214.403 158.895 214.524C159.241 214.645 159.615 214.662 159.97 214.573C160.326 214.484 160.647 214.294 160.896 214.024L161.136 214.296C160.932 214.53 160.677 214.715 160.392 214.839C160.107 214.962 159.798 215.02 159.488 215.008C159.191 215.024 158.894 214.978 158.616 214.873C158.338 214.767 158.084 214.605 157.872 214.397C157.66 214.189 157.494 213.938 157.383 213.662C157.273 213.386 157.222 213.09 157.232 212.792C157.213 212.506 157.254 212.219 157.351 211.95C157.448 211.68 157.599 211.433 157.796 211.224C157.993 211.016 158.23 210.85 158.494 210.737C158.757 210.624 159.041 210.567 159.328 210.568C159.613 210.566 159.895 210.622 160.157 210.733C160.419 210.844 160.655 211.008 160.851 211.214C161.047 211.42 161.198 211.665 161.295 211.932C161.392 212.2 161.434 212.484 161.416 212.768C161.416 212.8 161.408 212.848 161.408 212.888ZM157.648 212.56H161C160.971 212.136 160.781 211.738 160.47 211.448C160.159 211.158 159.749 210.996 159.324 210.996C158.898 210.996 158.489 211.158 158.178 211.448C157.867 211.738 157.677 212.136 157.648 212.56Z" fill="#263238"/>
<path d="M166.624 212.416V214.976H166.208V212.456C166.236 212.259 166.22 212.058 166.16 211.869C166.1 211.679 165.998 211.505 165.863 211.36C165.727 211.215 165.56 211.102 165.375 211.03C165.189 210.958 164.99 210.929 164.792 210.944C164.567 210.934 164.343 210.972 164.135 211.055C163.926 211.138 163.737 211.264 163.58 211.424C163.423 211.585 163.301 211.777 163.224 211.988C163.146 212.199 163.113 212.424 163.128 212.648V214.976H162.712V210.6H163.112V211.544C163.274 211.229 163.525 210.969 163.833 210.795C164.142 210.622 164.495 210.543 164.848 210.568C165.092 210.548 165.338 210.583 165.567 210.67C165.797 210.757 166.004 210.894 166.174 211.071C166.344 211.248 166.472 211.46 166.55 211.693C166.628 211.925 166.653 212.172 166.624 212.416Z" fill="#263238"/>
<path d="M170.504 208.752H170.928V214.976H170.504V208.752Z" fill="#263238"/>
<path d="M172.216 212.799C172.221 212.366 172.354 211.944 172.598 211.587C172.842 211.229 173.186 210.952 173.588 210.79C173.989 210.628 174.429 210.589 174.853 210.677C175.277 210.764 175.665 210.976 175.969 211.284C176.273 211.592 176.479 211.984 176.561 212.409C176.642 212.834 176.596 213.274 176.429 213.673C176.261 214.072 175.979 214.412 175.618 214.651C175.257 214.89 174.833 215.016 174.4 215.015C174.109 215.023 173.818 214.971 173.548 214.862C173.277 214.753 173.032 214.589 172.827 214.381C172.622 214.174 172.462 213.926 172.357 213.654C172.252 213.381 172.204 213.09 172.216 212.799ZM176.168 212.799C176.154 212.453 176.039 212.118 175.836 211.837C175.633 211.556 175.352 211.34 175.028 211.218C174.704 211.095 174.351 211.07 174.013 211.146C173.675 211.222 173.367 211.396 173.127 211.646C172.887 211.896 172.725 212.211 172.663 212.552C172.6 212.892 172.639 213.244 172.775 213.563C172.91 213.882 173.137 214.154 173.426 214.345C173.715 214.536 174.054 214.639 174.4 214.639C174.64 214.642 174.877 214.597 175.098 214.505C175.319 214.413 175.519 214.276 175.684 214.103C175.85 213.931 175.979 213.726 176.062 213.501C176.145 213.277 176.181 213.038 176.168 212.799Z" fill="#263238"/>
<path d="M177.408 212.799C177.413 212.366 177.546 211.945 177.789 211.588C178.033 211.23 178.377 210.953 178.778 210.791C179.179 210.629 179.619 210.589 180.042 210.676C180.466 210.763 180.854 210.974 181.159 211.281C181.463 211.589 181.669 211.979 181.752 212.404C181.834 212.829 181.79 213.268 181.623 213.667C181.456 214.066 181.175 214.407 180.816 214.647C180.456 214.887 180.033 215.015 179.6 215.015C179.308 215.023 179.018 214.971 178.747 214.862C178.475 214.753 178.23 214.589 178.024 214.382C177.819 214.174 177.658 213.926 177.552 213.654C177.446 213.382 177.397 213.091 177.408 212.799ZM181.36 212.799C181.345 212.455 181.228 212.123 181.026 211.844C180.823 211.565 180.543 211.352 180.22 211.231C179.898 211.11 179.546 211.086 179.21 211.163C178.875 211.24 178.568 211.413 178.33 211.662C178.092 211.911 177.932 212.225 177.871 212.564C177.809 212.903 177.848 213.253 177.983 213.57C178.119 213.887 178.344 214.157 178.631 214.347C178.919 214.537 179.256 214.638 179.6 214.639C179.839 214.643 180.076 214.597 180.297 214.505C180.518 214.413 180.717 214.276 180.882 214.103C181.047 213.93 181.175 213.725 181.257 213.501C181.34 213.276 181.375 213.037 181.36 212.799Z" fill="#263238"/>
<path d="M187.448 212.799C187.461 213.089 187.415 213.379 187.311 213.651C187.207 213.923 187.049 214.17 186.845 214.378C186.642 214.586 186.398 214.75 186.129 214.859C185.86 214.969 185.571 215.022 185.28 215.015C184.917 215.024 184.559 214.932 184.246 214.75C183.932 214.568 183.675 214.302 183.504 213.983V216.615H183.088V210.607H183.488V211.639C183.656 211.31 183.913 211.036 184.23 210.848C184.547 210.659 184.911 210.565 185.28 210.575C185.571 210.569 185.86 210.623 186.129 210.734C186.399 210.844 186.643 211.009 186.846 211.217C187.049 211.426 187.207 211.674 187.311 211.946C187.414 212.218 187.461 212.508 187.448 212.799ZM187.024 212.799C187.01 212.453 186.894 212.118 186.692 211.837C186.489 211.556 186.208 211.341 185.884 211.218C185.56 211.095 185.207 211.07 184.869 211.146C184.531 211.222 184.223 211.396 183.982 211.646C183.742 211.896 183.581 212.211 183.518 212.552C183.456 212.893 183.495 213.244 183.63 213.563C183.766 213.882 183.993 214.154 184.282 214.345C184.571 214.537 184.909 214.639 185.256 214.639C185.495 214.643 185.733 214.597 185.954 214.505C186.175 214.413 186.374 214.276 186.54 214.103C186.706 213.931 186.835 213.726 186.918 213.502C187.001 213.277 187.037 213.038 187.024 212.799Z" fill="#263238"/>
<path d="M117.064 105.072H110.576" stroke="#263238" stroke-linecap="round" stroke-linejoin="round"/>
<path d="M114.472 101.768L110.576 105.072L114.28 108.088" stroke="#263238" stroke-linecap="round" stroke-linejoin="round"/>
<path d="M109.984 112.736H220.656" stroke="#D4D6D7" stroke-linecap="round" stroke-linejoin="round"/>
<path d="M109.984 148.68H220.656" stroke="#D4D6D7" stroke-linecap="round" stroke-linejoin="round"/>
<path d="M109.984 175.367H220.656" stroke="#D4D6D7" stroke-linecap="round" stroke-linejoin="round"/>
<path d="M109.984 202.055H220.656" stroke="#D4D6D7" stroke-linecap="round" stroke-linejoin="round"/>
<path d="M109.984 231.391H220.656" stroke="#D4D6D7" stroke-linecap="round" stroke-linejoin="round"/>
<path d="M109.984 263.391H220.656" stroke="#D4D6D7" stroke-linecap="round" stroke-linejoin="round"/>
<path d="M210.872 139.527H196.992C195.624 139.527 194.311 138.983 193.343 138.016C192.376 137.048 191.832 135.736 191.832 134.367C191.832 132.999 192.376 131.686 193.343 130.718C194.311 129.751 195.624 129.207 196.992 129.207H210.872C211.55 129.211 212.22 129.349 212.844 129.612C213.469 129.875 214.035 130.259 214.511 130.741C214.988 131.223 215.364 131.794 215.62 132.422C215.875 133.05 216.004 133.721 216 134.399C215.992 135.756 215.449 137.056 214.489 138.016C213.529 138.976 212.229 139.519 210.872 139.527Z" fill="#4779A8"/>
<path d="M214.888 134.4C214.888 133.593 214.649 132.805 214.2 132.134C213.752 131.463 213.115 130.94 212.369 130.631C211.624 130.322 210.804 130.241 210.012 130.399C209.221 130.556 208.494 130.945 207.923 131.515C207.352 132.086 206.964 132.813 206.806 133.604C206.649 134.396 206.73 135.216 207.039 135.962C207.347 136.707 207.87 137.344 208.541 137.793C209.212 138.241 210.001 138.48 210.808 138.48C211.89 138.48 212.928 138.05 213.693 137.285C214.458 136.52 214.888 135.482 214.888 134.4Z" fill="white"/>
<path d="M210.872 166.992H196.992C195.624 166.992 194.311 166.448 193.343 165.481C192.376 164.513 191.832 163.2 191.832 161.832C191.832 160.463 192.376 159.151 193.343 158.183C194.311 157.216 195.624 156.672 196.992 156.672H210.872C212.241 156.672 213.553 157.216 214.521 158.183C215.488 159.151 216.032 160.463 216.032 161.832C216.032 163.2 215.488 164.513 214.521 165.481C213.553 166.448 212.241 166.992 210.872 166.992Z" fill="#CCCCCC"/>
<path d="M201.288 161.832C201.288 161.025 201.049 160.236 200.6 159.565C200.152 158.894 199.515 158.371 198.769 158.063C198.024 157.754 197.203 157.673 196.412 157.83C195.621 157.988 194.894 158.376 194.323 158.947C193.752 159.518 193.364 160.245 193.206 161.036C193.049 161.827 193.13 162.648 193.439 163.393C193.747 164.139 194.27 164.776 194.941 165.224C195.612 165.673 196.401 165.912 197.208 165.912C198.289 165.91 199.326 165.479 200.091 164.715C200.855 163.95 201.286 162.913 201.288 161.832Z" fill="white" stroke="#D4D6D7" stroke-linecap="round" stroke-linejoin="round"/>
<path d="M210.872 193.695H196.992C195.624 193.695 194.311 193.151 193.343 192.184C192.376 191.216 191.832 189.904 191.832 188.535C191.832 187.166 192.376 185.854 193.343 184.886C194.311 183.919 195.624 183.375 196.992 183.375H210.872C212.241 183.375 213.553 183.919 214.521 184.886C215.488 185.854 216.032 187.166 216.032 188.535C216.032 189.904 215.488 191.216 214.521 192.184C213.553 193.151 212.241 193.695 210.872 193.695Z" fill="#4779A8"/>
<path d="M214.888 188.535C214.89 187.728 214.652 186.938 214.204 186.266C213.757 185.594 213.12 185.07 212.375 184.76C211.63 184.45 210.809 184.368 210.017 184.525C209.225 184.681 208.497 185.069 207.926 185.639C207.354 186.21 206.965 186.937 206.807 187.728C206.649 188.52 206.729 189.341 207.038 190.087C207.346 190.833 207.869 191.47 208.54 191.919C209.212 192.368 210.001 192.607 210.808 192.607C211.889 192.607 212.925 192.178 213.69 191.415C214.455 190.652 214.886 189.616 214.888 188.535Z" fill="white"/>
<path d="M210.872 218.224H196.992C195.624 218.224 194.311 217.681 193.343 216.713C192.376 215.745 191.832 214.433 191.832 213.064C191.832 211.696 192.376 210.383 193.343 209.416C194.311 208.448 195.624 207.904 196.992 207.904H210.872C212.241 207.904 213.553 208.448 214.521 209.416C215.488 210.383 216.032 211.696 216.032 213.064C216.032 214.433 215.488 215.745 214.521 216.713C213.553 217.681 212.241 218.224 210.872 218.224Z" fill="#4779A8"/>
<path d="M214.888 213.064C214.888 212.257 214.649 211.469 214.2 210.798C213.752 210.127 213.115 209.604 212.369 209.295C211.624 208.986 210.804 208.905 210.012 209.063C209.221 209.22 208.494 209.609 207.923 210.179C207.352 210.75 206.964 211.477 206.806 212.268C206.649 213.06 206.73 213.88 207.039 214.626C207.347 215.371 207.87 216.008 208.541 216.457C209.212 216.905 210.001 217.144 210.808 217.144C211.344 217.145 211.875 217.041 212.371 216.836C212.866 216.631 213.316 216.331 213.695 215.952C214.074 215.573 214.375 215.122 214.58 214.627C214.784 214.131 214.889 213.6 214.888 213.064Z" fill="white"/>
<path d="M167.28 273.223C167.28 272.591 167.093 271.972 166.741 271.446C166.389 270.919 165.89 270.509 165.305 270.267C164.72 270.025 164.077 269.961 163.456 270.085C162.835 270.208 162.265 270.513 161.818 270.961C161.37 271.408 161.065 271.978 160.942 272.599C160.818 273.22 160.882 273.863 161.124 274.448C161.366 275.033 161.776 275.533 162.303 275.884C162.829 276.236 163.447 276.423 164.08 276.423C164.929 276.423 165.743 276.086 166.343 275.486C166.943 274.886 167.28 274.072 167.28 273.223Z" fill="white" stroke="#D4D6D7" stroke-linecap="round" stroke-linejoin="round"/>
<path d="M139.776 273.809L144.032 276.265C144.154 276.335 144.292 276.372 144.433 276.372C144.574 276.372 144.712 276.334 144.833 276.264C144.955 276.193 145.056 276.092 145.126 275.97C145.196 275.848 145.233 275.709 145.232 275.569V270.665C145.233 270.524 145.196 270.385 145.126 270.263C145.056 270.141 144.955 270.04 144.833 269.969C144.712 269.899 144.574 269.861 144.433 269.861C144.292 269.861 144.154 269.898 144.032 269.969L139.776 272.425C139.655 272.495 139.554 272.596 139.484 272.717C139.414 272.839 139.377 272.976 139.377 273.117C139.377 273.257 139.414 273.394 139.484 273.516C139.554 273.637 139.655 273.738 139.776 273.809Z" fill="white" stroke="#D4D6D7" stroke-linecap="round" stroke-linejoin="round"/>
<path d="M187.208 270.023H180.448V276.783H187.208V270.023Z" fill="white" stroke="#D4D6D7" stroke-linecap="round" stroke-linejoin="round"/>
<path d="M300.104 326.16H228V340.824H300.104V326.16Z" fill="#263238" stroke="#263238" stroke-linecap="round" stroke-linejoin="round"/>
<path d="M260.408 216.04C260.408 216.04 250.048 218.064 248.024 218.512C246 218.96 244.872 247.096 246 257.448C247.128 267.8 248.248 331.048 248.248 331.048H281.336C281.336 331.048 282.464 247.992 283.592 239.664C284.72 231.336 286.968 219.856 286.968 219.856C286.968 219.856 267.608 214.912 260.408 216.04Z" fill="white"/>
<path opacity="0.3" d="M256.408 291.929C256.408 271.233 259.136 222.817 259.136 222.817L254.056 217.289C251.496 217.801 248.928 218.313 248.024 218.513C246 218.961 244.872 247.097 246 257.449C247.128 267.801 248.248 331.049 248.248 331.049H255.2C255.736 320.001 256.408 304.073 256.408 291.929Z" fill="black"/>
<path d="M260.408 216.04C260.408 216.04 250.048 218.064 248.024 218.512C246 218.96 244.872 247.096 246 257.448C247.128 267.8 248.248 331.048 248.248 331.048H281.336C281.336 331.048 282.464 247.992 283.592 239.664C284.72 231.336 286.968 219.856 286.968 219.856C286.968 219.856 267.608 214.912 260.408 216.04Z" stroke="#263238" stroke-linecap="round" stroke-linejoin="round"/>
<path d="M273.008 295.264C272.8 300.616 272.8 331.592 272.8 340.8H305.6L298.248 277.008C301.256 278.46 304.119 280.193 306.8 282.184C312.208 286.016 314.456 291.192 322.112 291.416C329.768 291.64 331.112 286.464 331.336 283.536C331.56 280.608 328.864 272.056 326.384 266.656C323.904 261.256 319.184 244.376 319.184 240.768C319.184 237.16 316.976 235.128 315.624 234.904C314.272 234.68 295.776 222.768 295.776 222.768L286.976 219.84L284.72 222.768C284.72 222.768 277.744 239.648 276.84 248.648C275.936 257.648 272.8 281.536 272.8 281.536C272.8 281.536 273.232 288.96 273.008 295.264Z" fill="#4779A8"/>
<g opacity="0.3">
<path opacity="0.3" d="M274.712 266.599C275.214 263.939 275.882 261.312 276.712 258.735C279.832 249.367 286.864 242.335 293.512 235.311C297.84 230.727 299.672 227.487 300.432 225.775L295.76 222.791L286.96 219.863L284.704 222.791C284.704 222.791 277.728 239.671 276.824 248.671C276.424 252.799 275.544 259.999 274.712 266.599Z" fill="black"/>
<path opacity="0.3" d="M298.217 277.031C301.024 278.384 303.702 279.991 306.217 281.831C305.849 280.871 305.393 279.948 304.857 279.071L298.217 263.871C298.217 263.871 288.065 280.671 286.897 290.031C285.929 297.743 288.929 329.783 290.025 340.879H305.601L298.217 277.031Z" fill="black"/>
<path opacity="0.3" d="M322.08 291.439C329.728 291.663 331.08 286.487 331.304 283.559C331.528 280.631 328.832 272.079 326.352 266.679C323.872 261.279 319.152 244.399 319.152 240.791C319.152 237.183 316.944 235.151 315.592 234.927C313.628 233.996 311.733 232.927 309.92 231.727C313.04 235.143 316.144 239.615 316.144 243.903C316.144 252.487 324.736 281.383 324.736 281.383C323.144 284.573 321.877 287.915 320.952 291.359C321.32 291.391 321.688 291.423 322.08 291.439Z" fill="black"/>
</g>
<path d="M273.008 295.264C272.8 300.616 272.8 331.592 272.8 340.8H305.6L298.248 277.008C301.256 278.46 304.119 280.193 306.8 282.184C312.208 286.016 314.456 291.192 322.112 291.416C329.768 291.64 331.112 286.464 331.336 283.536C331.56 280.608 328.864 272.056 326.384 266.656C323.904 261.256 319.184 244.376 319.184 240.768C319.184 237.16 316.976 235.128 315.624 234.904C314.272 234.68 295.776 222.768 295.776 222.768L286.976 219.84L284.72 222.768C284.72 222.768 277.744 239.648 276.84 248.648C275.936 257.648 272.8 281.536 272.8 281.536C272.8 281.536 273.232 288.96 273.008 295.264Z" stroke="#263238" stroke-linecap="round" stroke-linejoin="round"/>
<path d="M299.792 265.553C299.792 265.553 301.592 253.401 305.648 245.977" stroke="#263238" stroke-linecap="round" stroke-linejoin="round"/>
<path d="M204.664 284.56C206.464 282.088 224.168 249.12 224.168 249.12L223.288 340.8H253.984L251.4 283.312V247.776C251.4 235.168 252.08 214.912 252.08 214.912C252.08 214.912 249.152 213.784 246.904 215.136C246.904 215.136 222.592 221.44 219.44 222.336C216.288 223.232 213.36 224.592 213.136 225.944C212.912 227.296 190.296 265.376 187.592 269.88C184.888 274.384 182.4 278.88 182.864 281.6C183.328 284.32 191.16 289.752 195.664 289.528C197.451 289.473 199.199 288.994 200.764 288.13C202.329 287.266 203.666 286.043 204.664 284.56Z" fill="#4779A8"/>
<path opacity="0.3" d="M251.4 247.776C251.4 245.472 251.4 242.912 251.464 240.264C250.319 241.145 249.231 242.099 248.208 243.12C246.488 244.832 231.816 254.496 224.064 259.552L223.688 299.504L251.4 262.544V247.776Z" fill="black"/>
<path d="M204.664 284.56C206.464 282.088 224.168 249.12 224.168 249.12L223.288 340.8H253.984L251.4 283.312V247.776C251.4 235.168 252.08 214.912 252.08 214.912C252.08 214.912 249.152 213.784 246.904 215.136C246.904 215.136 222.592 221.44 219.44 222.336C216.288 223.232 213.36 224.592 213.136 225.944C212.912 227.296 190.296 265.376 187.592 269.88C184.888 274.384 182.4 278.88 182.864 281.6C183.328 284.32 191.16 289.752 195.664 289.528C197.451 289.473 199.199 288.994 200.764 288.13C202.329 287.266 203.666 286.043 204.664 284.56V284.56Z" stroke="#263238" stroke-linecap="round" stroke-linejoin="round"/>
<path d="M279.76 217.6C279.76 217.6 280.664 226.824 277.288 241.232C273.912 255.64 273.008 262.616 272.56 268.24C272.112 273.864 273.008 285.12 273.008 285.12C273.008 285.12 276.832 252.48 278.608 247.52C280.384 242.56 281.304 238.288 287.832 234.008C294.36 229.728 298.408 224.56 298.64 223.656C298.872 222.752 298.184 218.928 295.936 216.68C293.688 214.432 289.632 215.08 288.056 213.752C286.48 212.424 284.008 208.576 282.656 208.576C281.304 208.576 279.728 211.728 279.728 211.728L279.76 217.6Z" fill="white"/>
<path opacity="0.3" d="M282.688 208.607C281.336 208.607 279.76 211.759 279.76 211.759V217.599C279.76 217.599 280.664 226.823 277.288 241.231C277.288 241.319 277.248 241.399 277.224 241.487C278.353 239.094 279.614 236.765 281 234.511C284.52 229.047 287.64 228.263 289.2 221.631C289.703 219.135 289.529 216.55 288.696 214.143C288.477 214.047 288.272 213.92 288.088 213.767C286.512 212.431 284.04 208.607 282.688 208.607Z" fill="black"/>
<path d="M279.76 217.6C279.76 217.6 280.664 226.824 277.288 241.232C273.912 255.64 273.008 262.616 272.56 268.24C272.112 273.864 273.008 285.12 273.008 285.12C273.008 285.12 276.832 252.48 278.608 247.52C280.384 242.56 281.304 238.288 287.832 234.008C294.36 229.728 298.408 224.56 298.64 223.656C298.872 222.752 298.184 218.928 295.936 216.68C293.688 214.432 289.632 215.08 288.056 213.752C286.48 212.424 284.008 208.576 282.656 208.576C281.304 208.576 279.728 211.728 279.728 211.728L279.76 217.6Z" stroke="#263238" stroke-linecap="round" stroke-linejoin="round"/>
<path d="M253.88 210.184C253.88 210.184 248.024 212.432 247.352 213.112C246.68 213.792 239.024 214.008 238.344 217.384C237.664 220.76 234.968 221.216 236.744 225.04C238.52 228.864 245.976 238.768 247.776 240.568C249.576 242.368 246.424 255.648 246.176 262.856C245.928 270.064 251.352 285.36 251.352 285.36L254.504 219.64L253.88 210.184Z" fill="white"/>
<path opacity="0.3" d="M253.384 244V237.904L248.312 243.008C248.392 247.592 246.368 257.16 246.184 262.888C246.178 264.73 246.352 266.568 246.704 268.376L252.56 260.48L253.384 244Z" fill="black"/>
<path d="M253.88 210.184C253.88 210.184 248.024 212.432 247.352 213.112C246.68 213.792 239.024 214.008 238.344 217.384C237.664 220.76 234.968 221.216 236.744 225.04C238.52 228.864 245.976 238.768 247.776 240.568C249.576 242.368 246.424 255.648 246.176 262.856C245.928 270.064 251.352 285.36 251.352 285.36L254.504 219.64L253.88 210.184Z" stroke="#263238" stroke-linecap="round" stroke-linejoin="round"/>
<path d="M252.304 203.432C252.304 203.432 254.328 218.512 254.328 221.44C254.328 224.368 263.328 238.544 265.36 239.448C267.392 240.352 275.032 231.12 277.288 227.52C278.76 225.187 279.752 222.584 280.208 219.864C280.664 218.064 280.888 205.464 280.888 205.464C276.508 207.451 271.745 208.45 266.936 208.392C261.67 208.254 256.569 206.524 252.304 203.432Z" fill="white" stroke="#263238" stroke-linecap="round" stroke-linejoin="round"/>
<path d="M247.576 185.649L244.872 185.425C244.872 185.425 243.528 188.129 245.096 192.401C246.007 194.927 247.654 197.123 249.824 198.705C249.824 198.705 251.424 205.681 253.656 207.937C255.888 210.193 261.08 217.161 263.56 217.617C266.04 218.073 271.432 218.737 274.808 217.617C278.184 216.497 281.784 209.289 283.608 206.137C285.432 202.985 285.408 197.129 285.408 197.129C285.408 197.129 289.232 194.433 290.584 190.833C291.936 187.233 291.704 184.305 290.808 183.177C289.912 182.049 287.208 182.953 287.208 182.953C287.208 182.953 287.208 178.001 286.984 173.273C286.76 168.545 282.256 166.297 272.584 167.873C262.912 169.449 251.856 174.401 249.6 178.001C248.23 180.313 247.529 182.961 247.576 185.649Z" fill="white"/>
<path opacity="0.3" d="M290.792 183.2C289.888 182.072 287.192 182.976 287.192 182.976C287.192 182.976 287.192 178.024 286.968 173.296C286.956 172.283 286.656 171.294 286.104 170.444C285.552 169.594 284.769 168.919 283.848 168.496L281.392 171.312C281.392 171.312 282.192 190.048 279.44 200.984C277.328 209.432 273.584 215.296 269.656 218.256C271.395 218.329 273.134 218.123 274.808 217.648C278.184 216.52 281.784 209.32 283.608 206.168C285.432 203.016 285.408 197.16 285.408 197.16C285.408 197.16 289.232 194.464 290.584 190.864C291.936 187.264 291.688 184.304 290.792 183.2Z" fill="black"/>
<path d="M247.576 185.649L244.872 185.425C244.872 185.425 243.528 188.129 245.096 192.401C246.007 194.927 247.654 197.123 249.824 198.705C249.824 198.705 251.424 205.681 253.656 207.937C255.888 210.193 261.08 217.161 263.56 217.617C266.04 218.073 271.432 218.737 274.808 217.617C278.184 216.497 281.784 209.289 283.608 206.137C285.432 202.985 285.408 197.129 285.408 197.129C285.408 197.129 289.232 194.433 290.584 190.833C291.936 187.233 291.704 184.305 290.808 183.177C289.912 182.049 287.208 182.953 287.208 182.953C287.208 182.953 287.208 178.001 286.984 173.273C286.76 168.545 282.256 166.297 272.584 167.873C262.912 169.449 251.856 174.401 249.6 178.001C248.23 180.313 247.529 182.961 247.576 185.649Z" stroke="#263238" stroke-linecap="round" stroke-linejoin="round"/>
<path d="M264.904 199.607C266 200.535 267.322 201.156 268.736 201.407C270.76 201.599 272.8 199.199 272.8 199.199" stroke="#263238" stroke-linecap="round" stroke-linejoin="round"/>
<path d="M262.4 204.801C264.45 205.648 266.662 206.026 268.877 205.908C271.091 205.791 273.252 205.18 275.2 204.121" stroke="#263238" stroke-linecap="round" stroke-linejoin="round"/>
<path d="M261.08 191.392C261.08 192.448 260.576 193.304 259.952 193.304C259.328 193.304 258.832 192.448 258.832 191.392C258.832 190.336 259.336 189.48 259.952 189.48C260.568 189.48 261.08 190.336 261.08 191.392Z" fill="#263238"/>
<path d="M277.064 191.392C277.064 192.448 276.56 193.304 275.936 193.304C275.312 193.304 274.808 192.448 274.808 191.392C274.808 190.336 275.312 189.48 275.936 189.48C276.56 189.48 277.064 190.336 277.064 191.392Z" fill="#263238"/>
<path d="M272.8 185.879C274.424 184.352 276.46 183.334 278.656 182.951C282.032 182.503 282.256 183.623 282.256 183.623" stroke="#263238" stroke-width="2" stroke-linecap="round" stroke-linejoin="round"/>
<path d="M263.56 185.88C263.56 185.88 258.376 182.272 254.552 184.976" stroke="#263238" stroke-width="2" stroke-linecap="round" stroke-linejoin="round"/>
<path d="M251.856 186.775H266.04V192.591C266.04 193.139 265.823 193.664 265.436 194.051C265.049 194.438 264.524 194.655 263.976 194.655H253.912C253.365 194.655 252.84 194.438 252.453 194.051C252.066 193.664 251.848 193.139 251.848 192.591V186.775H251.856Z" stroke="#263238" stroke-linecap="round" stroke-linejoin="round"/>
<path d="M270.76 186.775H284.936V192.591C284.936 193.139 284.719 193.664 284.332 194.051C283.945 194.438 283.42 194.655 282.872 194.655H272.8C272.253 194.655 271.728 194.438 271.341 194.051C270.954 193.664 270.736 193.139 270.736 192.591V186.775H270.76Z" stroke="#263238" stroke-linecap="round" stroke-linejoin="round"/>
<path d="M258.152 190.152C258.152 190.152 259.504 189.024 261.528 190.376" stroke="#263238" stroke-linecap="round" stroke-linejoin="round"/>
<path d="M274.472 190.152C274.472 190.152 275.824 189.024 277.848 190.376" stroke="#263238" stroke-linecap="round" stroke-linejoin="round"/>
<path d="M266.032 186.775H270.76" stroke="#263238" stroke-linecap="round" stroke-linejoin="round"/>
<path d="M251.856 186.775H248.512" stroke="#263238" stroke-linecap="round" stroke-linejoin="round"/>
<path d="M284.936 186.775H286.968" stroke="#263238" stroke-linecap="round" stroke-linejoin="round"/>
<path d="M246.672 185.2C246.672 185.2 249.6 193.752 250.28 193.752C250.96 193.752 250.048 184.072 250.048 184.072C250.048 184.072 264.448 177.776 270.312 176.648C276.176 175.52 278.64 173.72 278.64 173.72L268.96 179.8C268.96 179.8 274.36 180.696 277.96 178.896C280.181 177.77 282.228 176.332 284.04 174.624C284.04 174.624 284.712 191.952 285.84 191.728C286.968 191.504 286.968 187.456 286.968 186.552C286.968 185.648 286.736 182.272 289.664 176.872C292.592 171.472 293.264 167.872 291.688 162.696C290.112 157.52 284.488 152.792 282.888 152.792H280.184C280.184 152.792 278.84 149.192 271.632 149.64C264.424 150.088 248.904 153.464 245.072 159.768C241.24 166.072 240.8 168.8 241.048 171.024C241.296 173.248 246.672 185.2 246.672 185.2Z" fill="#263238" stroke="#263238" stroke-linecap="round" stroke-linejoin="round"/>
<path d="M246.184 179.72C246.184 179.72 246.912 181.664 259.544 174.12C272.176 166.576 284.56 163.72 284.8 169.752" stroke="white" stroke-linecap="round" stroke-linejoin="round"/>
<path d="M284.072 164.905C284.072 164.905 284.072 155.921 277.272 155.681C270.472 155.441 263.912 159.081 255.416 164.905C246.92 170.729 245.216 172.681 243.024 170.737" stroke="white" stroke-linecap="round" stroke-linejoin="round"/>
<path d="M286.016 170.737C286.016 170.737 290.184 169.697 288.688 176.337" stroke="white" stroke-linecap="round" stroke-linejoin="round"/>
<path d="M283.832 160.048C283.832 160.048 286.744 155.92 290.144 164.176" stroke="white" stroke-linecap="round" stroke-linejoin="round"/>
<path d="M216.064 241.921L221.92 232.465C221.92 232.465 223.944 219.193 224.84 218.065C225.736 216.937 239.24 212.465 240.6 211.985C241.96 211.505 246.2 205.457 247.352 205.457C248.504 205.457 250.28 206.809 250.728 208.833C251.176 210.857 254.552 214.689 254.552 216.489C254.552 218.289 254.104 218.737 252.952 218.289C251.454 217.502 250.265 216.234 249.576 214.689C249.128 213.337 247.328 213.089 247.328 213.089L242.824 216.913C243.291 218.693 243.667 220.495 243.952 222.313C243.952 223.217 245.752 222.993 246.88 221.417C248.008 219.841 252.48 219.169 253.176 219.393C253.872 219.617 254.776 220.737 252.056 222.545C249.336 224.353 245.752 226.817 243.952 230.641C242.152 234.465 241.248 237.169 237.872 238.073C235.954 238.595 233.999 238.972 232.024 239.201L223.696 248.001L216.064 241.921Z" fill="white" stroke="#263238" stroke-linecap="round" stroke-linejoin="round"/>
<path d="M226.4 220.993L230.904 225.489C230.904 225.489 229.104 230.441 229.104 232.689C229.104 234.937 231.128 234.289 232.032 232.689C232.936 231.089 234.504 227.281 234.28 225.033C234.016 223.378 233.475 221.78 232.68 220.305" stroke="#263238" stroke-linecap="round" stroke-linejoin="round"/>
<path d="M234.296 227.744C234.296 227.744 233.392 233.592 234.744 233.592C236.096 233.592 236.544 232.696 237.672 230.216C238.8 227.736 239.272 223.24 239.272 222.112C239.272 220.984 236.32 217.6 236.32 217.6" stroke="#263238" stroke-linecap="round" stroke-linejoin="round"/>
<path d="M241.048 214.465C241.048 214.465 244.648 221.217 244.872 223.017C245.096 224.817 241.272 230.897 240.6 231.345C239.928 231.793 238.8 232.241 238.8 230.665V227.745" stroke="#263238" stroke-linecap="round" stroke-linejoin="round"/>
<path d="M214.488 238.992L227.096 248.224C227.096 248.224 208.488 287.488 205.792 291.312C203.096 295.136 197.24 296.04 191.392 295.592C185.544 295.144 179.944 285.632 181.072 282.256C182.2 278.88 214.488 238.992 214.488 238.992Z" fill="#4779A8" stroke="#263238" stroke-linecap="round" stroke-linejoin="round"/>
<path d="M273.872 211.312H257.296C256.156 211.312 255.232 212.237 255.232 213.376V246.608C255.232 247.748 256.156 248.672 257.296 248.672H273.872C275.012 248.672 275.936 247.748 275.936 246.608V213.376C275.936 212.237 275.012 211.312 273.872 211.312Z" fill="#263238" stroke="#263238" stroke-linecap="round" stroke-linejoin="round"/>
<path d="M259.952 214.465H257.48V218.289H259.952V214.465Z" fill="white"/>
<path d="M293.04 259.704C293.04 259.704 286.288 252.048 284.24 248.896C282.192 245.744 280.184 236.096 279.064 234.04C277.944 231.984 268.712 227.064 266.264 226.392C263.816 225.72 255.464 226.616 254.336 227.064C253.208 227.512 252.088 227.968 253.208 229.088C253.76 229.674 254.362 230.209 255.008 230.688C255.008 230.688 252.312 231.144 252.984 232.944C253.187 233.467 253.522 233.929 253.957 234.284C254.392 234.639 254.911 234.874 255.464 234.968C255.464 234.968 252.536 236.568 253.432 237.896C254.328 239.224 261.992 240.592 261.992 240.592L264.912 242.848C264.912 242.848 255.464 242.624 254.112 242.848C252.76 243.072 252.312 244.648 253.664 244.872C255.016 245.096 264.464 245.544 264.464 245.544C264.464 245.544 270.544 252.976 271.888 254.344C273.232 255.712 276.616 256.144 276.616 256.144L287.648 268.944L293.04 259.704Z" fill="white" stroke="#263238" stroke-linecap="round" stroke-linejoin="round"/>
<path d="M255.456 234.943C255.456 234.943 262.584 235.671 264.184 235.991C265.784 236.311 269.784 239.191 269.784 239.191" stroke="#263238" stroke-linecap="round" stroke-linejoin="round"/>
<path d="M255 230.663C255 230.663 263.704 230.231 266.104 231.031C268.257 231.882 270.341 232.898 272.336 234.071" stroke="#263238" stroke-linecap="round" stroke-linejoin="round"/>
<path d="M290.344 251.824L281.544 267.824C281.544 267.824 313.056 292.352 317.336 294.384C321.616 296.416 326.336 293.928 329.712 291.008C333.088 288.088 332.64 281.104 331.512 278.4C330.384 275.696 325.208 270.744 318.912 267.6C312.616 264.456 290.344 251.824 290.344 251.824Z" fill="#4779A8" stroke="#263238" stroke-linecap="round" stroke-linejoin="round"/>
<path d="M344.552 340.824H47.7759" stroke="#263238" stroke-linecap="round" stroke-linejoin="round"/>
</svg>
