<svg width="435" height="498" viewBox="0 0 435 498" fill="none" xmlns="http://www.w3.org/2000/svg">
<g clip-path="url(#clip0)" filter="url(#filter0_d)">
<path d="M119.528 12L415.159 91.2143C416.776 91.6475 417.735 93.3091 417.302 94.9257L315.343 475.442C314.91 477.059 313.248 478.018 311.632 477.585L16 398.37L119.528 12Z" fill="#4779A8"/>
<path d="M-30.7764 390.205L92.9354 318.78" stroke="black"/>
<path d="M-4.63306 292.639L119.079 221.214" stroke="black"/>
<path d="M21.5103 195.068L145.222 123.643" stroke="black"/>
<path d="M47.6536 97.5L171.365 26.075" stroke="black"/>
<path d="M164.36 442.492L288.072 371.067" stroke="black"/>
<path d="M190.503 344.924L314.215 273.499" stroke="black"/>
<path d="M216.647 247.355L340.358 175.93" stroke="black"/>
<path d="M242.79 149.787L366.502 78.3621" stroke="black"/>
<path d="M66.7917 416.35L190.503 344.925" stroke="black"/>
<path d="M92.9351 318.781L216.647 247.356" stroke="black"/>
<path d="M119.078 221.213L242.79 149.788" stroke="black"/>
<path d="M145.222 123.645L268.934 52.2195" stroke="black"/>
<path d="M261.928 468.637L385.64 397.212" stroke="black"/>
<path d="M288.072 371.066L411.783 299.641" stroke="black"/>
<path d="M314.215 273.498L437.927 202.073" stroke="black"/>
<path d="M340.358 175.932L464.07 104.507" stroke="black"/>
<path d="M249.738 336.494C245.8 329.768 240.762 323.751 234.833 318.692C225.981 311.246 215.441 305.98 204.329 302.854C171.847 293.728 159.107 331.356 147.665 333.981C136.224 336.607 117.893 332.379 111.56 353.504C107.58 366.792 107.014 381.399 113.01 394.188C118.499 405.9 129.032 413.913 139.726 420.613C151.733 428.136 164.555 435.797 179.042 436.786C193.926 437.793 206.837 429.263 220.462 424.816C229.04 422.011 236.939 418.757 243.493 412.33C244.277 411.56 245.035 410.767 245.766 409.951C254.982 399.701 259.847 386.334 259.947 372.599C260.049 360.26 256.246 347.478 249.738 336.494Z" fill="#4779A8"/>
<path opacity="0.7" d="M249.738 336.494C245.8 329.768 240.762 323.751 234.833 318.692C225.981 311.246 215.441 305.98 204.329 302.854C171.847 293.728 159.107 331.356 147.665 333.981C136.224 336.607 117.893 332.379 111.56 353.504C107.58 366.792 107.014 381.399 113.01 394.188C118.499 405.9 129.032 413.913 139.726 420.613C151.733 428.136 164.555 435.797 179.042 436.786C193.926 437.793 206.837 429.263 220.462 424.816C229.04 422.011 236.939 418.757 243.493 412.33C244.277 411.56 245.035 410.767 245.766 409.951C254.982 399.701 259.847 386.334 259.947 372.599C260.049 360.26 256.246 347.478 249.738 336.494Z" fill="white"/>
<path d="M207.471 327.493L185.154 321.514L177.248 336.765L206.692 344.655L207.471 327.493Z" fill="#F0F0F0" stroke="#263238" stroke-linecap="round" stroke-linejoin="round"/>
<path d="M210.326 345.311L173.773 335.517L161.457 358.137L209.682 371.059L210.326 345.311Z" fill="#E3E3E3" stroke="#263238" stroke-linecap="round" stroke-linejoin="round"/>
<path d="M203.173 343.441L180.906 337.475L180.119 340.411L202.387 346.377L203.173 343.441Z" fill="white" stroke="#263238" stroke-linecap="round" stroke-linejoin="round"/>
<path d="M203.058 346.264L179.591 339.977L178.788 342.975L202.254 349.263L203.058 346.264Z" fill="white" stroke="#263238" stroke-linecap="round" stroke-linejoin="round"/>
<path d="M202.905 349.244L178.237 342.635L177.418 345.693L202.085 352.302L202.905 349.244Z" fill="white" stroke="#263238" stroke-linecap="round" stroke-linejoin="round"/>
<path d="M202.726 352.302L176.86 345.371L176.024 348.491L201.89 355.422L202.726 352.302Z" fill="white" stroke="#263238" stroke-linecap="round" stroke-linejoin="round"/>
<path d="M202.532 355.434L175.465 348.182L174.613 351.361L201.68 358.614L202.532 355.434Z" fill="white" stroke="#263238" stroke-linecap="round" stroke-linejoin="round"/>
<path d="M202.314 358.643L174.046 351.068L173.178 354.311L201.445 361.885L202.314 358.643Z" fill="white" stroke="#263238" stroke-linecap="round" stroke-linejoin="round"/>
<path d="M202.054 362.005L172.586 354.109L171.701 357.414L201.168 365.309L202.054 362.005Z" fill="white" stroke="#263238" stroke-linecap="round" stroke-linejoin="round"/>
<path d="M201.818 365.294L171.15 357.076L170.249 360.44L200.917 368.657L201.818 365.294Z" fill="white" stroke="#263238" stroke-linecap="round" stroke-linejoin="round"/>
<path d="M201.506 325.937L191.099 323.148L190.579 325.088L200.986 327.877L201.506 325.937Z" fill="white" stroke="#263238" stroke-linecap="round" stroke-linejoin="round"/>
<path d="M201.316 327.775L190.347 324.836L189.817 326.815L200.785 329.754L201.316 327.775Z" fill="white" stroke="#263238" stroke-linecap="round" stroke-linejoin="round"/>
<path d="M201.093 329.71L189.566 326.621L189.025 328.64L200.552 331.729L201.093 329.71Z" fill="white" stroke="#263238" stroke-linecap="round" stroke-linejoin="round"/>
<path d="M200.865 331.697L188.774 328.457L188.222 330.519L200.312 333.758L200.865 331.697Z" fill="white" stroke="#263238" stroke-linecap="round" stroke-linejoin="round"/>
<path d="M200.621 333.736L187.969 330.346L187.406 332.447L200.058 335.837L200.621 333.736Z" fill="white" stroke="#263238" stroke-linecap="round" stroke-linejoin="round"/>
<path d="M200.357 335.825L187.146 332.285L186.573 334.425L199.784 337.965L200.357 335.825Z" fill="white" stroke="#263238" stroke-linecap="round" stroke-linejoin="round"/>
<path d="M200.074 338.015L186.3 334.324L185.715 336.507L199.489 340.198L200.074 338.015Z" fill="white" stroke="#263238" stroke-linecap="round" stroke-linejoin="round"/>
<path d="M199.8 340.155L185.467 336.314L184.872 338.537L199.204 342.377L199.8 340.155Z" fill="white" stroke="#263238" stroke-linecap="round" stroke-linejoin="round"/>
<path d="M216.428 372.688L154.8 356.175L135.234 389.846L216.538 411.631L216.428 372.688Z" fill="#C7C7C7" stroke="#263238" stroke-linecap="round" stroke-linejoin="round"/>
<path d="M229.969 414.009L122.413 385.189L101.054 423.356L229.383 457.741L229.969 414.009Z" fill="#C7C7C7" stroke="#263238" stroke-linecap="round" stroke-linejoin="round"/>
<path d="M215.568 414.552L134.613 392.861L135.973 388.89L216.376 410.434L215.568 414.552Z" fill="white" stroke="#263238" stroke-linecap="round" stroke-linejoin="round"/>
<path d="M215.466 419.049L132.453 396.806L133.862 392.704L216.296 414.793L215.466 419.049Z" fill="white" stroke="#263238" stroke-linecap="round" stroke-linejoin="round"/>
<path d="M215.364 423.612L130.26 400.808L131.722 396.576L216.215 419.216L215.364 423.612Z" fill="white" stroke="#263238" stroke-linecap="round" stroke-linejoin="round"/>
<path d="M215.26 428.239L128.038 404.868L129.55 400.502L216.134 423.702L215.26 428.239Z" fill="white" stroke="#263238" stroke-linecap="round" stroke-linejoin="round"/>
<path d="M215.154 432.933L125.782 408.986L127.348 404.482L216.049 428.25L215.154 432.933Z" fill="white" stroke="#263238" stroke-linecap="round" stroke-linejoin="round"/>
<path d="M214.986 438.016L123.385 413.471L125.008 408.821L215.906 433.177L214.986 438.016Z" fill="white" stroke="#263238" stroke-linecap="round" stroke-linejoin="round"/>
<path d="M214.817 443.175L120.952 418.024L122.632 413.228L215.76 438.181L214.817 443.175Z" fill="white" stroke="#263238" stroke-linecap="round" stroke-linejoin="round"/>
<path d="M214.645 448.418L118.479 422.651L120.223 417.698L215.612 443.257L214.645 448.418Z" fill="white" stroke="#263238" stroke-linecap="round" stroke-linejoin="round"/>
<path d="M214.469 453.746L115.968 427.353L117.774 422.244L215.459 448.419L214.469 453.746Z" fill="white" stroke="#263238" stroke-linecap="round" stroke-linejoin="round"/>
<path d="M206.979 370.141L164.257 358.693L163.106 362.991L205.827 374.438L206.979 370.141Z" fill="white" stroke="#263238" stroke-linecap="round" stroke-linejoin="round"/>
<path d="M207.085 374.345L162.062 362.281L160.887 366.668L205.91 378.731L207.085 374.345Z" fill="white" stroke="#263238" stroke-linecap="round" stroke-linejoin="round"/>
<path d="M207.135 378.779L159.806 366.098L158.607 370.573L205.936 383.254L207.135 378.779Z" fill="white" stroke="#263238" stroke-linecap="round" stroke-linejoin="round"/>
<path d="M207.147 383.324L157.517 370.025L156.294 374.589L205.924 387.887L207.147 383.324Z" fill="white" stroke="#263238" stroke-linecap="round" stroke-linejoin="round"/>
<path d="M207.136 387.98L155.202 374.064L153.955 378.717L205.89 392.633L207.136 387.98Z" fill="white" stroke="#263238" stroke-linecap="round" stroke-linejoin="round"/>
<path d="M207.091 392.751L152.855 378.219L151.584 382.963L205.82 397.496L207.091 392.751Z" fill="white" stroke="#263238" stroke-linecap="round" stroke-linejoin="round"/>
<path d="M206.99 397.744L150.448 382.594L149.153 387.427L205.695 402.577L206.99 397.744Z" fill="white" stroke="#263238" stroke-linecap="round" stroke-linejoin="round"/>
<path d="M206.911 402.63L148.068 386.863L146.75 391.785L205.592 407.552L206.911 402.63Z" fill="white" stroke="#263238" stroke-linecap="round" stroke-linejoin="round"/>
<path d="M183.766 357.668C183.766 357.668 182.555 356.928 182.319 358.112C182.082 359.297 183.27 360.443 183.27 360.443L183.766 357.668Z" fill="white" stroke="#263238" stroke-linecap="round" stroke-linejoin="round"/>
<path d="M191.822 359.828C191.822 359.828 193.052 359.576 192.782 360.586C192.511 361.595 191.082 362.287 191.082 362.287L191.822 359.828Z" fill="white" stroke="#263238" stroke-linecap="round" stroke-linejoin="round"/>
<path d="M184.463 354.451C184.463 354.451 183.064 359.972 183.103 361.065C183.142 362.157 183.72 363.722 184.574 363.951C185.43 364.18 188.356 364.714 188.994 364.554C189.494 364.364 189.943 364.061 190.308 363.67C190.672 363.279 190.941 362.809 191.093 362.297C191.426 361.057 192.41 358.001 192.41 358.001C192.822 357.828 193.182 357.552 193.457 357.2C193.952 356.585 193.137 355.289 192.924 355.147C192.712 355.006 191.922 354.547 191.922 354.547C191.922 354.547 192.589 354.229 192.539 353.8C192.488 353.37 191.077 352.742 190.459 352.576C189.952 352.495 189.434 352.527 188.94 352.67C188.94 352.67 186.482 351.927 185.457 352.649C185.161 352.85 184.916 353.118 184.743 353.431C184.571 353.744 184.474 354.094 184.463 354.451Z" fill="#263238" stroke="#263238" stroke-linecap="round" stroke-linejoin="round"/>
<path d="M190.483 366.694L180.521 364.194C180.521 364.194 181.382 362.845 181.97 362.82C182.559 362.794 188.173 364.147 189.295 364.617C190.417 365.086 190.483 366.694 190.483 366.694Z" fill="#4779A8" stroke="#263238" stroke-linecap="round" stroke-linejoin="round"/>
<path d="M169.492 431.21C169.492 431.21 167.864 435.602 168.184 435.839C168.505 436.077 169.438 436.88 172.189 436.912C172.919 436.925 172.901 431.968 172.901 431.968C172.901 431.968 170.967 432.528 169.492 431.21Z" fill="#263238" stroke="#263238" stroke-linecap="round" stroke-linejoin="round"/>
<path d="M166.919 393.136L162.98 413.095C162.98 413.095 161.222 416.5 161.087 419.897C160.952 423.293 159.105 434.897 159.105 434.897C159.105 434.897 159.992 433.939 162.015 434.267C164.039 434.594 164.215 435.487 164.215 435.487C164.215 435.487 166.371 426.93 166.634 425.947C166.897 424.964 169.352 418.947 169.796 417.025C170.088 415.64 170.276 414.234 170.359 412.82L173.999 401.077L175.084 401.227C175.084 401.227 171.745 410.803 171.605 413.154C171.465 415.506 170.721 422.756 170.632 423.364C170.543 423.971 169.512 431.215 169.512 431.215C169.512 431.215 171.091 432.131 171.898 432.277C172.415 432.351 172.943 432.243 173.39 431.972C173.39 431.972 177.659 421.8 177.973 420.129C178.286 418.458 177.822 414.115 177.91 413.786C177.998 413.457 178.201 411.123 178.201 411.123C178.201 411.123 183.012 404.19 184.206 401.56C185.401 398.93 185.781 397.707 185.781 397.707C185.781 397.707 177.645 396.863 173.775 395.826C171.4 395.177 169.101 394.275 166.919 393.136Z" fill="#4779A8" stroke="#263238" stroke-linecap="round" stroke-linejoin="round"/>
<path d="M165.208 413.58C166.473 412.995 167.781 412.509 169.122 412.127" stroke="#263238" stroke-linecap="round" stroke-linejoin="round"/>
<path d="M163.257 414.547C163.257 414.547 163.674 414.306 164.384 413.972" stroke="#263238" stroke-linecap="round" stroke-linejoin="round"/>
<path d="M165.404 412.259L170.252 410.591" stroke="#263238" stroke-linecap="round" stroke-linejoin="round"/>
<path d="M185.781 397.707C185.781 397.707 177.645 396.863 173.775 395.826C171.4 395.177 169.101 394.275 166.919 393.136L166.685 394.324C167.59 395.483 169.189 397.589 170.438 399.559C171.912 401.871 172.946 402.955 173.312 403.3L173.997 401.084L175.082 401.233C175.082 401.233 171.744 410.809 171.603 413.161C171.542 414.244 171.348 416.366 171.147 418.402C172.038 417.009 173.451 415.435 175.194 415.716C176.296 415.907 177.301 416.465 178.047 417.298C177.989 415.647 177.848 413.992 177.901 413.794C177.989 413.465 178.191 411.131 178.191 411.131C178.191 411.131 183.003 404.198 184.197 401.568C185.391 398.939 185.781 397.707 185.781 397.707Z" fill="#263238" stroke="#263238" stroke-linecap="round" stroke-linejoin="round"/>
<path d="M165.648 388.673C165.648 388.673 165.886 389.716 166.179 389.911C166.473 390.106 166.483 391.145 166.224 392.112C165.965 393.079 165.608 393.099 165.608 393.099C165.698 393.318 165.738 393.554 165.725 393.79C165.711 394.026 165.644 394.256 165.527 394.462C165.127 395.102 163.6 395.211 162.95 395.27C162.3 395.328 161.646 394.113 161.4 393.529C161.155 392.946 162.459 389.144 162.459 389.144C162.459 389.144 165.29 389.155 165.648 388.673Z" fill="white" stroke="#263238" stroke-linecap="round" stroke-linejoin="round"/>
<path d="M165.617 393.101C165.617 393.101 164.427 393.244 164.236 393.309C164.046 393.374 163.642 392.516 163.913 392.359C164.311 392.175 164.72 392.016 165.137 391.88" stroke="#263238" stroke-linecap="round" stroke-linejoin="round"/>
<path d="M163.929 390.576C163.929 390.576 164.989 391.146 164.337 392.067" stroke="#263238" stroke-linecap="round" stroke-linejoin="round"/>
<path d="M163.954 393.06C163.954 393.06 162.711 393.189 162.596 393.616C162.481 394.044 162.871 394.747 163.213 394.761C163.554 394.775 163.286 394.263 163.286 394.263" stroke="#263238" stroke-linecap="round" stroke-linejoin="round"/>
<path d="M191.456 397.952C190.871 398.349 190.325 398.801 189.826 399.302C189.402 399.819 188.718 400.214 188.726 400.618C188.734 401.022 188.711 401.319 188.711 401.319C188.711 401.319 187.926 402.317 188.323 402.769C188.573 403.083 188.913 403.315 189.296 403.435C189.51 403.492 190.185 404.42 190.806 404.47C191.427 404.52 192.356 404.484 192.902 402.671C193.448 400.857 194.22 398.816 194.22 398.816C194.22 398.816 192.318 398.183 191.456 397.952Z" stroke="#263238" stroke-linecap="round" stroke-linejoin="round"/>
<path d="M188.713 401.312C188.713 401.312 189.918 402.614 190.349 402.73C190.78 402.845 191.278 402.274 191.04 401.875C190.738 401.438 190.407 401.021 190.048 400.63" stroke="#263238" stroke-linecap="round" stroke-linejoin="round"/>
<path d="M192.123 399.975C192.123 399.975 191.006 400.712 191.04 401.874" stroke="#263238" stroke-linecap="round" stroke-linejoin="round"/>
<path d="M191.115 402.238C191.115 402.238 192.065 402.782 192.032 403.118C191.998 403.455 191.748 403.966 191.531 403.907C191.315 403.849 191.304 403.441 191.304 403.441" stroke="#263238" stroke-linecap="round" stroke-linejoin="round"/>
<path d="M195.162 398.512C194.726 399.032 194.133 399.398 193.473 399.554C192.415 399.767 191.123 398.092 191.123 398.092L192.095 387.64L189.874 381.054L187.378 389.117C187.378 389.117 186.443 398.498 186.171 398.594C185.898 398.691 182.071 399.322 176.17 398.407C170.27 397.491 165.963 393.43 165.963 393.43L170.855 384.771L171.62 377.575L167.825 381.048L166.244 388.343C166.244 388.343 165.189 389.804 164.042 389.747C163.314 389.697 162.602 389.507 161.947 389.186C161.95 389.177 161.953 389.169 161.954 389.16C161.967 389.113 161.972 389.002 161.987 388.841C162.006 388.771 162.005 388.683 162.013 388.587C162.031 388.44 162.046 388.265 162.066 388.072C162.085 387.88 162.099 387.767 162.115 387.599C162.132 387.431 162.151 387.256 162.169 387.071C162.449 384.355 162.904 379.962 162.951 379.573L162.956 379.557C163.151 378.83 171.664 367.205 172.052 366.982C172.44 366.758 172.733 365.754 173.99 365.34C175.246 364.926 181.724 364.093 181.724 364.093C184.154 363.993 190.106 366.586 190.106 366.586C190.106 366.586 192.136 368.624 192.403 368.865C192.67 369.105 195.462 372.007 196.114 372.678C196.766 373.35 196.613 374.222 196.652 375.314C196.691 376.406 196.947 384.446 197.291 385.948C197.636 387.45 195.162 398.512 195.162 398.512Z" fill="#4779A8" stroke="#263238" stroke-linecap="round" stroke-linejoin="round"/>
<path d="M167.822 381.057L166.241 388.352C166.241 388.352 165.187 389.814 164.039 389.757C163.312 389.707 162.6 389.516 161.945 389.195C161.948 389.187 161.95 389.178 161.952 389.169C161.964 389.123 161.969 389.012 161.985 388.85C162.003 388.781 162.003 388.689 162.01 388.596C162.028 388.45 162.044 388.274 162.063 388.082C162.083 387.89 162.096 387.777 162.113 387.609C162.13 387.441 162.148 387.266 162.166 387.08C162.446 384.364 162.901 379.972 162.949 379.583L162.953 379.566C163.332 379.939 164.056 380.567 164.613 380.621C165.037 380.653 165.672 380.245 166.157 379.868C166.287 379.67 166.39 379.525 166.448 379.439C167.115 378.5 171.08 372.793 171.08 372.793L171.62 377.589L167.822 381.057Z" fill="#263238" stroke="#263238" stroke-linecap="round" stroke-linejoin="round"/>
<path d="M172.155 370.004L171.618 377.585" stroke="#263238" stroke-linecap="round" stroke-linejoin="round"/>
<path d="M192.321 376.364L189.871 381.064L193.524 376.729" stroke="#263238" stroke-linecap="round" stroke-linejoin="round"/>
<path d="M193.288 374.507L192.897 375.255" stroke="#263238" stroke-linecap="round" stroke-linejoin="round"/>
<path d="M182.023 374.393C182.023 374.393 184.316 383.817 185.024 384.581" stroke="#263238" stroke-linecap="round" stroke-linejoin="round"/>
<path d="M184.304 385.137L184.77 385.843" stroke="#263238" stroke-linecap="round" stroke-linejoin="round"/>
<path d="M181.639 381.102L183.819 384.407" stroke="#263238" stroke-linecap="round" stroke-linejoin="round"/>
<path d="M195.162 398.512C195.162 398.512 195.825 395.54 196.412 392.465C195.194 391.645 193.824 390.588 193.441 389.745C192.708 388.139 190.189 381.73 190.189 381.73L190.144 381.898L192.085 387.637L191.11 398.089C191.11 398.089 192.405 399.765 193.46 399.551C194.125 399.398 194.722 399.034 195.162 398.512Z" fill="#263238" stroke="#263238" stroke-linecap="round" stroke-linejoin="round"/>
<path d="M159.089 434.888L158.32 437.181C158.32 437.181 156.754 438.449 156.81 439.384C156.866 440.319 158.049 440.481 159.766 440.941C161.482 441.401 163.024 440.514 163.315 439.425C163.607 438.337 164.202 435.469 164.202 435.469C164.202 435.469 163.649 434.616 162.003 434.249C161.499 434.15 160.981 434.156 160.48 434.266C159.979 434.376 159.505 434.588 159.089 434.888Z" fill="#263238" stroke="#263238" stroke-linecap="round" stroke-linejoin="round"/>
<path d="M199.781 315.066L198.019 314.594L196.008 322.097L197.771 322.57L199.781 315.066Z" fill="#4779A8" stroke="#263238" stroke-linecap="round" stroke-linejoin="round"/>
<path d="M199.063 324.637L193.854 323.242L195.249 320.497L199.227 321.563L199.063 324.637Z" fill="#4779A8" stroke="#263238" stroke-linecap="round" stroke-linejoin="round"/>
<path d="M201.874 326.707L190.389 323.629L192.33 321.277L201.366 323.698L201.874 326.707Z" fill="#4779A8" stroke="#263238" stroke-linecap="round" stroke-linejoin="round"/>
<path d="M195.208 305.329C194.391 305.094 193.524 305.109 192.715 305.369C191.906 305.63 191.194 306.125 190.668 306.792C190.142 307.459 189.826 308.268 189.761 309.115C189.697 309.962 189.885 310.809 190.304 311.548C190.722 312.288 191.351 312.886 192.11 313.267C192.87 313.647 193.725 313.794 194.567 313.686C195.41 313.579 196.202 313.224 196.842 312.665C197.482 312.106 197.941 311.37 198.161 310.55C198.31 310.013 198.352 309.452 198.284 308.899C198.216 308.347 198.04 307.812 197.766 307.328C197.491 306.843 197.124 306.416 196.686 306.073C196.247 305.731 195.745 305.477 195.208 305.329ZM193.27 312.562C192.654 312.409 192.098 312.077 191.673 311.607C191.247 311.137 190.971 310.551 190.88 309.923C190.789 309.296 190.886 308.656 191.16 308.084C191.434 307.512 191.872 307.035 192.418 306.713C192.964 306.391 193.594 306.239 194.227 306.276C194.859 306.313 195.467 306.538 195.972 306.921C196.476 307.305 196.855 307.83 197.061 308.43C197.266 309.03 197.288 309.677 197.124 310.29C196.911 311.098 196.386 311.79 195.665 312.212C194.943 312.636 194.084 312.756 193.274 312.546L193.27 312.562Z" fill="#4779A8" stroke="#263238" stroke-linecap="round" stroke-linejoin="round"/>
<path d="M207.459 308.613C206.643 308.378 205.775 308.392 204.966 308.652C204.157 308.912 203.444 309.407 202.918 310.074C202.391 310.74 202.075 311.549 202.01 312.396C201.944 313.243 202.133 314.09 202.551 314.83C202.969 315.569 203.598 316.168 204.357 316.549C205.116 316.93 205.972 317.076 206.815 316.97C207.657 316.863 208.449 316.507 209.09 315.949C209.73 315.39 210.189 314.653 210.409 313.833C210.71 312.75 210.568 311.591 210.014 310.612C209.462 309.634 208.542 308.914 207.459 308.613ZM205.521 315.847C204.907 315.692 204.352 315.359 203.928 314.89C203.504 314.42 203.229 313.835 203.138 313.209C203.047 312.582 203.144 311.943 203.417 311.372C203.691 310.801 204.127 310.324 204.672 310.001C205.216 309.679 205.844 309.526 206.476 309.562C207.108 309.597 207.716 309.819 208.221 310.2C208.726 310.582 209.107 311.104 209.314 311.703C209.522 312.301 209.547 312.947 209.386 313.559C209.283 313.962 209.1 314.34 208.85 314.673C208.599 315.005 208.286 315.285 207.927 315.496C207.569 315.707 207.172 315.845 206.76 315.902C206.347 315.96 205.928 315.935 205.525 315.83L205.521 315.847Z" fill="#4779A8" stroke="#263238" stroke-linecap="round" stroke-linejoin="round"/>
<path d="M198.345 316.897C196.985 316.532 195.825 315.643 195.121 314.423C194.417 313.203 194.226 311.753 194.591 310.393L196.006 305.109L206.265 307.858L204.849 313.142C204.485 314.502 203.595 315.662 202.375 316.366C201.155 317.071 199.706 317.261 198.345 316.897Z" fill="#4779A8" stroke="#263238" stroke-linecap="round" stroke-linejoin="round"/>
<path d="M202.107 364.979C202.244 363.416 202.843 359.601 205.598 358.391C209.079 356.856 209.999 361.55 213.361 358.987C216.723 356.424 219.341 349.598 226.705 351.669C234.068 353.741 233.51 358.049 233.139 359.434C232.768 360.818 234.712 362.428 235.175 362.552C235.639 362.676 238.545 362.169 238.751 365.096C238.957 368.023 237.914 369.404 239.371 369.843C240.828 370.283 243.18 368.778 244.911 370.317C246.641 371.855 246.073 373.976 246.707 374.938C247.341 375.902 249.071 374.98 250.721 376.212C251.72 376.958 251.865 377.769 251.825 378.29L202.107 364.979Z" fill="white" stroke="black" stroke-miterlimit="10"/>
<path d="M218.757 316.622C218.803 316.109 219.005 314.855 219.903 314.462C221.051 313.955 221.352 315.499 222.456 314.656C223.559 313.813 224.42 311.573 226.838 312.253C229.257 312.933 229.076 314.347 228.953 314.804C228.831 315.261 229.472 315.789 229.623 315.829C229.774 315.87 230.732 315.704 230.808 316.668C230.884 317.633 230.534 318.082 231.009 318.231C231.484 318.379 232.267 317.863 232.837 318.368C233.406 318.873 233.219 319.573 233.426 319.89C233.634 320.206 234.203 319.9 234.746 320.307C234.861 320.379 234.954 320.48 235.018 320.599C235.082 320.719 235.113 320.854 235.109 320.989L218.757 316.622Z" fill="white" stroke="black" stroke-miterlimit="10"/>
<path d="M209.262 336.382C209.345 335.425 209.721 333.104 211.393 332.372C213.516 331.433 214.077 334.3 216.128 332.735C218.179 331.17 219.775 327.016 224.269 328.273C228.764 329.531 228.422 332.163 228.195 333.008C227.969 333.853 229.153 334.837 229.446 334.915C229.739 334.994 231.5 334.68 231.625 336.465C231.749 338.249 231.117 339.095 231.998 339.384C232.88 339.673 234.322 338.734 235.378 339.673C236.434 340.611 236.087 341.907 236.473 342.493C236.859 343.079 237.912 342.526 238.922 343.269C239.137 343.402 239.313 343.59 239.431 343.813C239.55 344.036 239.607 344.286 239.597 344.538L209.262 336.382Z" fill="white" stroke="black" stroke-miterlimit="10"/>
<path d="M191.45 302.268C191.742 301.641 192.35 300.042 191.568 298.987C190.579 297.629 189.193 299.221 188.477 297.503C187.76 295.785 188.263 292.607 184.997 291.774C181.732 290.942 180.997 292.708 180.833 293.32C180.67 293.931 179.563 294.114 179.369 294.062C179.176 294.01 178.169 293.173 177.444 294.251C176.718 295.329 176.814 296.077 176.163 295.927C175.513 295.777 174.942 294.684 173.943 294.888C172.944 295.093 172.693 296.03 172.24 296.257C171.788 296.485 171.32 295.747 170.43 295.857C170.248 295.861 170.07 295.915 169.915 296.012C169.76 296.108 169.634 296.245 169.55 296.407L191.45 302.268Z" fill="white" stroke="black" stroke-miterlimit="10"/>
<path d="M184.85 349.311C185.671 347.561 187.358 343.122 185.193 340.141C182.429 336.353 178.556 340.799 176.552 335.997C174.547 331.196 175.953 322.304 166.819 319.998C157.686 317.692 155.636 322.608 155.179 324.315C154.721 326.021 151.657 326.543 151.098 326.393C150.539 326.243 147.742 323.908 145.72 326.905C143.698 329.901 143.957 332.011 142.137 331.583C140.317 331.155 138.703 328.09 135.913 328.664C133.124 329.238 132.422 331.855 131.155 332.492C129.889 333.129 128.606 331.076 126.09 331.378C124.562 331.557 123.911 332.331 123.632 332.912L184.85 349.311Z" fill="white" stroke="black" stroke-miterlimit="10"/>
<path d="M166.931 324.542C167.188 323.987 167.724 322.58 167.036 321.638C166.159 320.438 164.932 321.846 164.297 320.323C163.663 318.799 164.109 315.987 161.215 315.268C158.321 314.549 157.677 316.082 157.528 316.638C157.379 317.194 156.413 317.34 156.232 317.292C156.051 317.243 155.171 316.507 154.529 317.455C153.887 318.404 153.973 319.068 153.394 318.941C152.815 318.814 152.315 317.838 151.431 318.021C150.547 318.203 150.326 319.028 149.923 319.231C149.52 319.433 149.116 318.782 148.318 318.878C148.156 318.883 147.997 318.932 147.86 319.019C147.722 319.106 147.611 319.229 147.537 319.374L166.931 324.542Z" fill="white" stroke="black" stroke-miterlimit="10"/>
<path d="M313.622 228.189L212.639 201.131L207.149 221.62L308.132 248.679L313.622 228.189Z" fill="white"/>
<path d="M212.639 201.131L100.923 171.197L95.4332 191.687L207.149 221.621L212.639 201.131Z" fill="#4779A8"/>
<path d="M372.899 200.152L111.416 130.088L102.004 165.212L363.487 235.277L372.899 200.152Z" fill="#4779A8"/>
<path d="M178.625 242.212L83.4961 216.723L78.006 237.212L173.135 262.702L178.625 242.212Z" fill="#4779A8"/>
<path d="M350.278 263.109L94.6489 194.613L89.1588 215.103L344.788 283.598L350.278 263.109Z" fill="white"/>
<path d="M104.708 190.512L106.921 191.105L109.66 180.884L113.488 181.909L114.029 179.89L104.159 177.245L103.618 179.265L107.447 180.291L104.708 190.512ZM117.029 194.096C120.506 195.027 123.56 193.116 124.585 189.288C125.616 185.441 123.945 182.264 120.45 181.328C116.973 180.396 113.919 182.307 112.889 186.153C111.863 189.982 113.551 193.164 117.029 194.096ZM117.589 192.006C115.358 191.408 114.373 189.394 115.084 186.742C115.799 184.072 117.659 182.82 119.89 183.418C122.12 184.015 123.1 186.047 122.39 188.699C121.684 191.334 119.819 192.603 117.589 192.006ZM129.451 197.142L134.263 198.431C136.757 199.099 138.608 198.165 139.21 195.917C139.619 194.389 139.207 193.187 138.017 192.36C139.01 192.098 139.746 191.317 140.052 190.175C140.569 188.244 139.44 186.699 136.999 186.044L132.731 184.901L129.451 197.142ZM133.623 190.354L134.385 187.509L136.458 188.064C137.529 188.351 138.002 189.043 137.753 189.974C137.508 190.887 136.802 191.206 135.695 190.909L133.623 190.354ZM132.188 195.71L133.082 192.374L135.523 193.028C136.805 193.371 137.339 194.117 137.062 195.153C136.775 196.224 135.858 196.694 134.629 196.365L132.188 195.71ZM144.851 201.551C147.942 202.379 149.968 201.209 150.82 198.03L152.891 190.303L150.695 189.714L148.667 197.284C148.117 199.339 147.229 199.91 145.42 199.426C143.612 198.941 143.142 198.024 143.697 195.952L145.725 188.383L143.53 187.794L141.436 195.61C140.598 198.736 141.778 200.727 144.851 201.551ZM152.45 203.304L154.645 203.893L157.925 191.652L155.73 191.063L152.45 203.304ZM157.732 204.72L165.161 206.71L165.702 204.691L160.469 203.288L163.208 193.067L161.012 192.479L157.732 204.72ZM166.856 207.165L170.386 208.11C174.531 209.221 177.349 207.698 178.393 203.799C179.457 199.83 177.741 196.961 173.684 195.874L170.136 194.924L166.856 207.165ZM169.593 205.733L171.791 197.532L173.108 197.884C176.005 198.661 176.962 200.291 176.204 203.119C175.432 205.999 173.808 206.863 170.717 206.034L169.593 205.733ZM190.839 213.591L193.228 214.231L191.625 200.682L189.974 200.239L181.795 211.167L184.183 211.807L185.792 209.528L190.586 210.812L190.839 213.591ZM187.088 207.71L189.934 203.692L190.39 208.595L187.088 207.71ZM205.538 204.409L203.279 212.839L200.392 203.031L198.126 202.424L194.846 214.664L197.042 215.253L199.31 206.788L202.17 216.627L204.453 217.239L207.733 204.998L205.538 204.409ZM211.809 219.209L219.957 221.393L220.499 219.373L214.545 217.778L215.42 214.511L220.952 215.994L221.494 213.974L215.961 212.492L216.743 209.576L222.696 211.172L223.237 209.152L215.089 206.969L211.809 219.209ZM222.527 222.082L224.723 222.67L226.139 217.384L231.847 218.913L232.388 216.893L226.68 215.364L227.462 212.449L233.942 214.185L234.483 212.165L225.807 209.841L222.527 222.082ZM233.161 224.931L235.356 225.519L236.773 220.233L242.48 221.762L243.022 219.742L237.314 218.213L238.095 215.298L244.575 217.034L245.117 215.015L236.441 212.69L233.161 224.931ZM243.794 227.78L245.99 228.368L249.27 216.127L247.074 215.539L243.794 227.78ZM254.099 230.824C256.716 231.525 259.026 230.77 260.54 228.634L258.692 227.311C257.751 228.715 256.345 229.185 254.659 228.734C252.306 228.103 251.337 226.168 252.076 223.411C252.81 220.671 254.594 219.493 256.965 220.128C258.633 220.575 259.625 221.65 259.76 223.324L261.992 223.075C261.722 220.499 260.107 218.73 257.525 218.038C253.907 217.069 250.925 218.924 249.876 222.84C248.827 226.757 250.481 229.854 254.099 230.824ZM261.563 232.541L263.758 233.129L267.038 220.888L264.842 220.3L261.563 232.541ZM266.845 233.956L274.994 236.14L275.535 234.12L269.581 232.525L270.457 229.258L275.989 230.741L276.53 228.721L270.998 227.239L271.779 224.323L277.733 225.919L278.274 223.899L270.125 221.715L266.845 233.956ZM288.255 226.574L285.997 235.003L283.11 225.195L280.844 224.588L277.564 236.829L279.76 237.417L282.028 228.952L284.888 238.791L287.171 239.403L290.451 227.162L288.255 226.574ZM292.68 240.879L294.892 241.472L297.631 231.25L301.46 232.276L302.001 230.257L292.131 227.612L291.59 229.632L295.418 230.658L292.68 240.879ZM106.955 202.569L101.351 210.347L100.369 200.804L97.9453 200.155L99.5653 213.709L101.216 214.151L109.378 203.218L106.955 202.569ZM107.717 215.893L115.866 218.077L116.407 216.057L110.454 214.462L111.329 211.195L116.861 212.677L117.402 210.658L111.87 209.175L112.651 206.26L118.605 207.855L119.146 205.836L110.997 203.652L107.717 215.893ZM129.128 208.51L126.869 216.94L123.982 207.131L121.716 206.524L118.436 218.765L120.632 219.353L122.9 210.888L125.76 220.728L128.043 221.339L131.323 209.098L129.128 208.51ZM131.128 222.166L134.658 223.112C138.803 224.222 141.62 222.7 142.665 218.801C143.728 214.832 142.013 211.963 137.956 210.876L134.408 209.925L131.128 222.166ZM133.865 220.734L136.062 212.533L137.379 212.886C140.277 213.662 141.233 215.293 140.476 218.12C139.704 221 138.08 221.864 134.989 221.036L133.865 220.734ZM148.188 227.019C151.665 227.951 154.718 226.04 155.744 222.211C156.775 218.365 155.104 215.188 151.609 214.252C148.131 213.32 145.078 215.231 144.048 219.077C143.022 222.906 144.71 226.088 148.188 227.019ZM148.748 224.929C146.517 224.332 145.532 222.317 146.243 219.665C146.958 216.996 148.818 215.744 151.049 216.341C153.279 216.939 154.259 218.971 153.549 221.623C152.843 224.257 150.978 225.527 148.748 224.929ZM165.542 231.387L163.671 225.163C165.26 225.062 166.369 224.155 166.84 222.399C167.428 220.203 166.539 218.534 163.623 217.753L159.619 216.68L156.339 228.921L158.517 229.505L159.877 224.429L160.685 224.646L161.422 224.843L162.995 230.705L165.542 231.387ZM160.418 222.41L161.256 219.284L162.854 219.712C164.276 220.093 164.955 220.651 164.635 221.845C164.315 223.04 163.439 223.219 162.016 222.838L160.418 222.41ZM180.738 235.459L178.867 229.235C180.456 229.134 181.565 228.226 182.036 226.47C182.624 224.275 181.735 222.606 178.819 221.825L174.815 220.752L171.535 232.993L173.713 233.576L175.073 228.501L175.881 228.717L176.618 228.915L178.191 234.776L180.738 235.459ZM175.614 226.481L176.452 223.355L178.05 223.783C179.472 224.165 180.151 224.723 179.831 225.917C179.511 227.111 178.635 227.291 177.212 226.91L175.614 226.481ZM182.46 235.92L184.655 236.508L187.935 224.268L185.74 223.679L182.46 235.92ZM191.194 238.505C193.705 239.178 195.849 238.134 196.46 235.851C196.926 234.112 196.315 232.95 193.967 231.248C192.315 230.034 191.841 229.418 192.057 228.61C192.26 227.854 193.082 227.454 193.96 227.689C194.786 227.91 195.374 228.595 195.551 229.621L197.678 228.986C197.301 227.304 196.204 226.201 194.553 225.758C192.27 225.147 190.38 226.09 189.848 228.074C189.372 229.848 190.036 231.023 192.332 232.711C193.948 233.916 194.439 234.613 194.213 235.456C193.936 236.492 192.981 236.895 191.751 236.565C190.329 236.184 189.584 235.1 189.817 233.6L187.493 233.561C187.247 235.885 188.753 237.851 191.194 238.505ZM208.231 242.826L205.597 233.969L211.388 230.552L208.508 229.78L201.467 234.067L203.011 228.307L200.815 227.719L197.536 239.96L199.731 240.548L200.728 236.825L203.699 235.08L205.684 242.143L208.231 242.826ZM226.9 234.708L221.428 242.484L220.595 233.019L217.451 232.176L214.171 244.417L216.367 245.006L218.818 235.856L219.692 244.748L221.817 245.318L227.02 238.053L224.568 247.203L226.764 247.791L230.043 235.55L226.9 234.708ZM237.417 250.646L239.805 251.286L238.203 237.737L236.552 237.294L228.372 248.222L230.76 248.862L232.369 246.583L237.163 247.867L237.417 250.646ZM233.665 244.765L236.511 240.747L236.967 245.65L233.665 244.765ZM252.115 241.465L249.857 249.894L246.97 240.086L244.704 239.479L241.424 251.72L243.619 252.308L245.888 243.843L248.748 253.682L251.031 254.294L254.311 242.053L252.115 241.465ZM261.685 257.148L264.073 257.788L262.471 244.239L260.82 243.797L252.64 254.725L255.029 255.365L256.637 253.085L261.432 254.37L261.685 257.148ZM257.933 251.268L260.78 247.25L261.235 252.153L257.933 251.268ZM272.556 252.965L272.015 254.985L274.755 255.719L274.712 255.877C274.27 257.528 272.852 258.183 270.885 257.656C268.391 256.988 267.312 255.042 268.061 252.25C268.781 249.563 270.592 248.354 272.945 248.985C274.596 249.427 275.601 250.524 275.74 252.181L277.972 251.932C277.697 249.373 276.034 247.572 273.54 246.904C269.87 245.921 266.835 248.044 265.861 251.679C264.821 255.561 266.76 258.791 270.185 259.708C271.765 260.132 273.228 259.94 274.212 259.15L274.136 260.485L275.699 260.904L277.473 254.283L272.556 252.965ZM278.349 261.614L286.498 263.797L287.039 261.778L281.086 260.182L281.961 256.916L287.493 258.398L288.034 256.378L282.502 254.896L283.283 251.981L289.237 253.576L289.778 251.556L281.629 249.373L278.349 261.614ZM301.797 254.777L296.325 262.553L295.492 253.087L292.349 252.245L289.069 264.486L291.264 265.074L293.716 255.924L294.589 264.817L296.714 265.386L301.917 258.122L299.466 267.272L301.661 267.86L304.941 255.619L301.797 254.777ZM304.744 268.686L312.893 270.87L313.434 268.85L307.48 267.255L308.356 263.988L313.888 265.47L314.429 263.451L308.897 261.968L309.678 259.053L315.632 260.648L316.173 258.629L308.024 256.445L304.744 268.686ZM326.155 261.303L323.896 269.733L321.009 259.925L318.743 259.317L315.463 271.558L317.659 272.147L319.927 263.682L322.787 273.521L325.07 274.132L328.35 261.892L326.155 261.303ZM330.579 275.609L332.791 276.201L335.53 265.98L339.359 267.006L339.9 264.986L330.03 262.342L329.489 264.361L333.317 265.387L330.579 275.609ZM89.9969 235.72L92.1747 236.303L93.5346 231.228L95.3611 231.717C98.0657 232.442 99.8622 231.568 100.497 229.197C101.123 226.861 100.021 225.286 97.2811 224.552L93.2769 223.479L89.9969 235.72ZM94.0758 229.208L94.9134 226.082L96.5116 226.51C98.0746 226.929 98.5892 227.537 98.2928 228.644C97.9963 229.75 97.2194 230.05 95.674 229.636L94.0758 229.208ZM109.473 240.938L107.602 234.715C109.191 234.613 110.3 233.706 110.771 231.95C111.359 229.754 110.47 228.085 107.554 227.304L103.55 226.231L100.27 238.472L102.448 239.056L103.808 233.98L104.616 234.197L105.353 234.394L106.926 240.256L109.473 240.938ZM104.349 231.961L105.187 228.835L106.785 229.263C108.207 229.644 108.886 230.202 108.566 231.397C108.246 232.591 107.37 232.77 105.947 232.389L104.349 231.961ZM116.026 242.977C119.504 243.908 122.557 241.997 123.583 238.168C124.613 234.322 122.942 231.145 119.447 230.209C115.97 229.277 112.917 231.188 111.886 235.034C110.861 238.863 112.549 242.045 116.026 242.977ZM116.586 240.887C114.356 240.289 113.371 238.274 114.082 235.623C114.797 232.953 116.657 231.701 118.887 232.299C121.118 232.896 122.098 234.928 121.388 237.58C120.682 240.215 118.817 241.484 116.586 240.887ZM131.642 239.782L131.101 241.802L133.841 242.536L133.798 242.694C133.356 244.345 131.938 245 129.971 244.473C127.477 243.805 126.399 241.859 127.147 239.067C127.867 236.38 129.678 235.171 132.031 235.802C133.682 236.244 134.687 237.341 134.827 238.998L137.058 238.749C136.783 236.19 135.12 234.389 132.626 233.721C128.956 232.738 125.921 234.861 124.947 238.496C123.907 242.378 125.846 245.608 129.271 246.525C130.851 246.949 132.314 246.757 133.298 245.967L133.223 247.302L134.786 247.721L136.56 241.1L131.642 239.782ZM146.638 250.897L144.767 244.673C146.357 244.572 147.466 243.664 147.936 241.908C148.524 239.713 147.635 238.044 144.72 237.263L140.716 236.19L137.436 248.431L139.613 249.014L140.973 243.939L141.781 244.155L142.519 244.353L144.092 250.214L146.638 250.897ZM141.514 241.919L142.352 238.793L143.95 239.221C145.373 239.602 146.051 240.161 145.731 241.355C145.411 242.549 144.535 242.729 143.113 242.347L141.514 241.919ZM155.896 253.377L158.284 254.017L156.682 240.468L155.031 240.026L146.851 250.954L149.239 251.594L150.848 249.314L155.642 250.599L155.896 253.377ZM152.144 247.497L154.99 243.478L155.446 248.381L152.144 247.497ZM172.632 244.742L167.16 252.518L166.327 243.052L163.183 242.21L159.903 254.451L162.098 255.039L164.55 245.889L165.424 254.782L167.549 255.351L172.752 248.087L170.3 257.237L172.495 257.825L175.775 245.584L172.632 244.742Z" fill="black"/>
<path d="M116.506 137.628L115.151 142.686L126.18 145.642L111.386 162.496L117.498 164.134L133.519 145.086L134.244 142.381L116.506 137.628ZM147.488 172.734C152.476 174.071 157.215 171.839 158.514 166.992C159.445 163.515 158.23 161.307 153.507 157.858C150.362 155.547 149.639 154.45 149.959 153.256C150.27 152.096 151.54 151.571 152.805 151.91C154.209 152.286 155.159 153.519 155.417 155.508L160.745 153.887C160.012 150.302 157.695 147.987 154.288 147.074C149.476 145.785 145.508 147.809 144.416 151.883C143.409 155.642 144.788 158.082 149.457 161.592C152.305 163.748 153.204 164.892 152.902 166.016C152.404 167.877 150.693 168.36 148.902 167.88C146.443 167.221 145.044 165.416 145.57 162.47L139.724 162.372C139.21 167.241 142.395 171.37 147.488 172.734ZM159.357 175.35L164.872 176.827L171.431 152.346L165.917 150.868L159.357 175.35ZM194.854 158.622L185.317 172.857L184.281 155.789L176.413 153.68L169.853 178.162L175.368 179.64L179.782 163.166L180.949 178.764L186.252 180.185L195.08 167.19L190.647 183.734L196.162 185.212L202.722 160.73L194.854 158.622ZM201.136 186.545L206.616 188.013L209.251 178.178L212.377 179.015C217.962 180.512 221.564 178.729 222.872 173.847C224.171 168.999 221.957 165.884 216.302 164.369L207.696 162.063L201.136 186.545ZM210.606 173.12L211.82 168.589L214.384 169.276C216.808 169.925 217.838 170.578 217.339 172.439C216.812 174.406 215.418 174.409 213.17 173.807L210.606 173.12ZM221.271 191.94L236.831 196.109L238.186 191.051L228.141 188.359L233.346 168.936L227.831 167.458L221.271 191.94ZM239.142 196.728L255.58 201.133L256.936 196.075L246.012 193.148L247.367 188.09L257.764 190.876L259.129 185.783L248.732 182.997L249.861 178.782L260.785 181.709L262.14 176.651L245.702 172.246L239.142 196.728ZM275.775 207.109C280.763 208.445 285.502 206.214 286.801 201.367C287.733 197.889 286.517 195.681 281.794 192.232C278.649 189.921 277.926 188.824 278.246 187.63C278.557 186.471 279.827 185.945 281.092 186.284C282.497 186.661 283.446 187.894 283.704 189.883L289.032 188.261C288.299 184.677 285.983 182.362 282.576 181.449C277.763 180.16 273.795 182.183 272.704 186.258C271.697 190.016 273.076 192.456 277.745 195.966C280.593 198.122 281.491 199.266 281.19 200.39C280.691 202.252 278.98 202.735 277.189 202.255C274.73 201.596 273.332 199.79 273.857 196.844L268.011 196.746C267.497 201.615 270.682 205.744 275.775 207.109ZM292.072 210.911L297.657 212.407L302.861 192.983L309.992 194.894L311.347 189.836L291.466 184.509L290.111 189.567L297.276 191.487L292.072 210.911ZM307.093 214.936L323.531 219.34L324.887 214.282L313.963 211.355L315.318 206.297L325.715 209.083L327.08 203.99L316.683 201.204L317.812 196.989L328.736 199.916L330.091 194.858L313.653 190.454L307.093 214.936ZM327.88 220.505L333.359 221.974L335.995 212.139L339.121 212.976C344.705 214.473 348.308 212.69 349.616 207.808C350.915 202.96 348.7 199.845 343.045 198.329L334.44 196.024L327.88 220.505ZM337.35 207.081L338.564 202.55L341.128 203.237C343.552 203.886 344.581 204.539 344.083 206.4C343.556 208.367 342.162 208.37 339.914 207.768L337.35 207.081ZM354.977 228.331C359.964 229.667 364.704 227.436 366.002 222.589C366.934 219.111 365.719 216.903 360.996 213.454C357.85 211.143 357.128 210.046 357.448 208.852C357.758 207.693 359.029 207.167 360.293 207.506C361.698 207.883 362.648 209.116 362.905 211.105L368.234 209.483C367.5 205.899 365.184 203.584 361.777 202.671C356.965 201.382 352.997 203.405 351.905 207.48C350.898 211.238 352.277 213.678 356.946 217.188C359.794 219.344 360.692 220.488 360.391 221.612C359.892 223.474 358.182 223.957 356.39 223.477C353.932 222.818 352.533 221.012 353.059 218.066L347.212 217.968C346.698 222.837 349.884 226.966 354.977 228.331Z" fill="black"/>
<path d="M191.24 31.2154L119.528 12L16 398.37L87.7127 417.586L191.24 31.2154Z" fill="url(#paint0_linear)"/>
<path d="M128.797 14.486L127.821 14.2246L24.2934 400.595L25.2691 400.856L128.797 14.486Z" fill="#575757" fill-opacity="0.2"/>
</g>
<defs>
<filter id="filter0_d" x="0" y="0" width="434.086" height="498.369" filterUnits="userSpaceOnUse" color-interpolation-filters="sRGB">
<feFlood flood-opacity="0" result="BackgroundImageFix"/>
<feColorMatrix in="SourceAlpha" type="matrix" values="0 0 0 0 0 0 0 0 0 0 0 0 0 0 0 0 0 0 127 0" result="hardAlpha"/>
<feOffset dy="4"/>
<feGaussianBlur stdDeviation="8"/>
<feComposite in2="hardAlpha" operator="out"/>
<feColorMatrix type="matrix" values="0 0 0 0 0 0 0 0 0 0 0 0 0 0 0 0 0 0 0.25 0"/>
<feBlend mode="normal" in2="BackgroundImageFix" result="effect1_dropShadow"/>
<feBlend mode="normal" in="SourceGraphic" in2="effect1_dropShadow" result="shape"/>
</filter>
<linearGradient id="paint0_linear" x1="86.084" y1="136.813" x2="157.797" y2="156.029" gradientUnits="userSpaceOnUse">
<stop stop-color="#5B5B5B" stop-opacity="0.5"/>
<stop offset="1" stop-color="#C4C4C4" stop-opacity="0"/>
</linearGradient>
<clipPath id="clip0">
<rect width="309.091" height="400" fill="white" transform="translate(119.528 12) rotate(15)"/>
</clipPath>
</defs>
</svg>
