<svg width="161" height="30" viewBox="0 0 161 30" fill="none" xmlns="http://www.w3.org/2000/svg">
<g clip-path="url(#clip0)">
<path d="M97.4658 14.7985V10.9759C97.4658 10.3985 97.9083 10.0018 98.4323 10.0018H115.59C116.137 10.0018 116.579 10.4086 116.579 10.9759V14.2416C116.579 14.7985 116.112 15.5135 115.28 16.6554L106.401 29.3242C109.702 29.2449 113.187 29.7413 116.183 31.4275C116.864 31.8015 117.048 32.3658 117.091 32.9203V36.9922C117.091 37.5568 116.478 38.2055 115.829 37.862C110.557 35.105 103.545 34.7974 97.7049 37.9008C97.1123 38.2161 96.4866 37.5827 96.4866 37.018V33.1344C96.4866 32.5138 96.4967 31.4608 97.1224 30.512L107.416 15.7602H98.4552C97.9084 15.7602 97.4658 15.3764 97.4658 14.799" fill="#221F1F"/>
<path d="M34.8955 38.6666H29.6714C29.1805 38.6442 28.7811 38.2698 28.7354 37.7967L28.7475 11.0453C28.7475 10.5111 29.1876 10.0815 29.7471 10.0815H34.6075C35.1213 10.1039 35.5308 10.4908 35.5562 10.9767V14.4714H35.6581C36.9196 11.0887 39.3129 9.51672 42.5227 9.51672C45.7884 9.51672 47.8383 11.0887 49.2957 14.4714C50.5598 11.0887 53.439 9.51672 56.5038 9.51672C58.6988 9.51672 61.0896 10.4092 62.5495 12.4466C64.1976 14.6974 63.8669 17.9555 63.8669 20.8269L63.8567 37.7053C63.8567 38.2496 63.4142 38.6666 62.8546 38.6666H57.6407C57.1167 38.634 56.7072 38.2268 56.7072 37.7053V23.5308C56.7072 22.3989 56.7988 19.5962 56.5571 18.5205C56.1603 16.7222 55.0005 16.2135 53.4846 16.2135C52.2206 16.2135 50.9006 17.0602 50.3665 18.4082C49.8298 19.7562 49.8882 22.0048 49.8882 23.5308V37.7053C49.8882 38.2496 49.433 38.6666 48.8735 38.6666H43.6595C43.1355 38.634 42.7261 38.2268 42.7261 37.7053L42.7159 23.5308C42.7159 20.5448 43.2042 16.1549 39.5061 16.1549C35.7596 16.1549 35.897 20.4329 35.897 23.5308V37.7053C35.897 38.2496 35.4519 38.6666 34.8949 38.6666" fill="#221F1F"/>
<path d="M131.393 14.9681C127.542 14.9681 127.305 20.2049 127.305 23.4731C127.305 26.7337 127.26 33.7232 131.344 33.7232C135.386 33.7232 135.579 28.0896 135.579 24.6509C135.579 22.3999 135.487 19.6963 134.806 17.5572C134.213 15.7031 133.053 14.9681 131.393 14.9681V14.9681ZM131.344 9.51764C139.086 9.51764 143.275 16.1558 143.275 24.5948C143.275 32.7616 138.654 39.2323 131.344 39.2323C123.752 39.2323 119.606 32.5937 119.606 24.3226C119.606 15.9853 123.796 9.51764 131.344 9.51764Z" fill="#221F1F"/>
<path d="M153.329 38.6666H148.125C147.602 38.634 147.189 38.2268 147.189 37.7053L147.181 10.9538C147.225 10.4655 147.657 10.0815 148.183 10.0815H153.021C153.476 10.1039 153.853 10.4094 153.954 10.8292V14.9239H154.044C155.514 11.2588 157.551 9.51672 161.16 9.51672C163.495 9.51672 165.794 10.3532 167.251 12.6602C168.617 14.8093 168.617 18.4086 168.617 20.9978V37.83C168.561 38.3082 168.126 38.6666 167.615 38.6666H162.378C161.9 38.6442 161.514 38.2827 161.455 37.83V23.3043C161.455 20.3769 161.798 16.1013 158.189 16.1013C156.925 16.1013 155.753 16.9484 155.173 18.2378C154.443 19.8656 154.341 21.5062 154.341 23.3043V37.7053C154.331 38.2496 153.886 38.6666 153.329 38.6666" fill="#221F1F"/>
<path d="M24.6711 33.7688C23.7147 32.4564 22.6999 31.3804 22.6999 28.9388V20.8148C22.6999 17.3761 22.939 14.2228 20.4007 11.8473C18.4092 9.93199 15.085 9.25519 12.5466 9.25519C7.58192 9.25519 2.03725 11.1091 0.874917 17.2312C0.752834 17.8847 1.22853 18.2256 1.65073 18.3275L6.71718 18.872C7.18517 18.8475 7.52599 18.3859 7.61755 17.9077C8.04993 15.8042 9.82269 14.7871 11.8193 14.7871C12.8875 14.7871 14.1058 15.1836 14.7442 16.1348C15.4716 17.2081 15.3825 18.6785 15.3825 19.9122V20.5888C12.3533 20.9269 8.40345 21.1583 5.56755 22.3994C2.30182 23.8136 0 26.6876 0 30.9174C0 36.3373 3.41579 39.0409 7.81079 39.0409C11.5216 39.0409 13.5487 38.1688 16.4176 35.2516C17.3612 36.6197 17.669 37.286 19.4112 38.7229C19.7978 38.9366 20.299 38.9162 20.6423 38.5988H20.6525C21.6877 37.6858 23.5876 36.0327 24.6584 35.1398C25.0806 34.799 24.9992 34.2343 24.6706 33.7588L24.6711 33.7688ZM15.382 25.8847C15.382 27.9219 15.4253 29.6055 14.4028 31.4191C13.5711 32.8892 12.2511 33.7817 10.7912 33.7817C8.78956 33.7817 7.61706 32.266 7.61706 30.0048C7.61706 25.5718 11.6 24.7556 15.382 24.7556V25.8847V25.8847Z" fill="#221F1F"/>
<path d="M93.0815 33.7688C92.1251 32.4564 91.1128 31.3804 91.1128 28.9388V20.8148C91.1128 17.3761 91.3621 14.2228 88.8237 11.8473C86.8195 9.93199 83.4954 9.25519 80.9571 9.25519C75.9923 9.25519 70.4501 11.1091 69.2878 17.2312C69.1631 17.8847 69.6389 18.2256 70.0738 18.3275L75.1301 18.872C75.5955 18.8475 75.949 18.3859 76.0278 17.9077C76.4729 15.8042 78.2355 14.7871 80.2295 14.7871C81.2978 14.7871 82.5135 15.1836 83.1545 16.1348C83.8946 17.2081 83.7903 18.6785 83.7903 19.9122V20.5888C80.7637 20.9269 76.8112 21.1583 73.9778 22.3994C70.7121 23.8136 68.4104 26.6876 68.4104 30.9174C68.4104 36.3373 71.8262 39.0409 76.2212 39.0409C79.9346 39.0409 81.9617 38.1688 84.8256 35.2516C85.7743 36.6197 86.0896 37.286 87.8216 38.7229C88.2082 38.9366 88.7118 38.9162 89.0526 38.5988H89.0628C90.1107 37.6858 92.0005 36.0327 93.0713 35.1398C93.4909 34.799 93.4121 34.2343 93.0815 33.7588V33.7688ZM83.7903 25.8847C83.7903 27.9219 83.8361 29.6055 82.8111 31.4191C81.9819 32.8892 80.6722 33.7817 79.2046 33.7817C77.2004 33.7817 76.0278 32.266 76.0278 30.0048C76.0278 25.5718 80.0134 24.7556 83.7903 24.7556V25.8847V25.8847Z" fill="#221F1F"/>
</g>
<defs>
<clipPath id="clip0">
<rect width="161" height="30" fill="white"/>
</clipPath>
</defs>
</svg>
