<svg width="161" height="30" viewBox="0 0 161 30" fill="none" xmlns="http://www.w3.org/2000/svg">
<g clip-path="url(#clip0)">
<path d="M94.0589 26.385V21.8143C94.0589 19.838 93.8096 17.8084 92.7872 16.112C91.6096 14.156 89.5291 12.9838 87.4613 12.9024C85.4012 12.996 83.6818 14.4841 82.6415 16.5084C81.5199 18.7645 81.1766 21.3614 81.1766 23.9608C81.1766 28.577 82.2193 35.4952 87.3417 35.6962C89.4502 35.6047 91.3654 34.2238 92.5914 32.2552C93.7639 30.3961 94.0589 28.5343 94.0589 26.385V26.385ZM97.4161 38.807H95.3051C94.8575 38.807 94.4022 38.4152 94.3997 37.9828V34.4832C92.8177 37.6215 90.4472 39.3688 86.7695 39.3688C83.1171 39.3688 80.7721 37.5654 78.9689 34.5184C77.2597 31.5807 76.6238 27.9692 76.6238 24.467C76.6238 17.2997 79.5055 9.3998 87.0976 9.3998C90.3887 9.3998 92.3675 10.8671 94.0589 13.3292V0.910183C94.0589 0.475159 94.5116 0.0860596 94.9593 0.0860596H97.411C97.8612 0.0860596 98.3165 0.475159 98.3165 0.910183V37.9878C98.3165 38.4202 97.8688 38.8044 97.4161 38.8094" fill="#FF9900"/>
<path d="M124.894 39.3667C117.475 39.3667 114.156 31.8433 114.156 24.3199C114.156 16.4021 118.062 9.54773 125.532 9.54773H125.723H125.929C133.201 9.54773 136.815 16.8503 136.815 24.3735C136.815 32.3496 132.812 39.3667 125.293 39.3667H125.1H124.894H124.894ZM125.443 35.7145C127.888 35.6331 129.81 34.1323 130.95 31.6168C131.977 29.3735 132.171 26.787 132.171 24.3199C132.171 21.6238 131.878 18.8161 130.609 16.5118C129.472 14.4999 127.511 13.2206 125.436 13.1468C123.124 13.2281 121.064 14.7874 120.021 17.1884C119.092 19.2638 118.8 22.0155 118.8 24.3199C118.8 26.904 119.141 29.8771 120.214 32.1254C121.257 34.2517 123.271 35.6407 125.443 35.7145Z" fill="#FF9900"/>
<path d="M155.739 16.8354C155.915 17.2348 156.357 17.5349 156.79 17.4305L159.043 16.8861C159.481 16.7803 159.86 16.2913 159.727 15.8717C158.257 11.1739 154.419 9.44926 149.938 9.46452C144.983 9.48486 140.446 11.9418 140.446 17.8553C140.446 22.9217 143.905 24.9516 147.707 25.796L151.751 26.6405C153.895 27.0881 156.573 27.9374 156.573 30.9767C156.573 34.5324 153.402 35.6438 150.808 35.7048C148.056 35.6418 144.584 34.3368 143.714 31.0711C143.612 30.6489 143.111 30.3639 142.676 30.463L140.321 30.9946C139.879 31.0963 139.522 31.5768 139.632 31.999C140.947 37.1597 145.627 39.3267 150.51 39.3674C155.66 39.4081 161.014 37.0021 161.014 30.5266C161.014 27.9374 159.989 25.5697 158.041 24.0514C156.533 22.8661 154.676 22.4714 152.878 22.0772L149.271 21.345C147.079 20.9507 144.838 20.2766 144.838 17.1787C144.838 14.124 147.672 13.0739 149.887 13.0129C152.41 13.078 154.635 14.2387 155.739 16.8354Z" fill="#FF9900"/>
<path d="M104.258 2.48231C104.258 1.10887 105.438 0 106.887 0C108.34 0 109.517 1.10887 109.517 2.48231C109.517 3.8533 108.34 4.96213 106.887 4.96213C105.438 4.96213 104.258 3.8533 104.258 2.48231ZM108.134 38.6419H105.649C105.199 38.6419 104.743 38.2502 104.743 37.8203L104.753 10.8448C104.753 10.4097 105.209 10.0181 105.656 10.0181H108.129C108.579 10.0181 109.034 10.4072 109.034 10.8423V37.8203C109.034 38.25 108.589 38.6345 108.134 38.6394" fill="#FF9900"/>
<path d="M71.8351 38.8068H69.7215C69.2739 38.8068 68.8185 38.4151 68.8185 37.9802V33.9873C67.3408 37.1006 64.9603 39.3667 61.2901 39.3667C58.4339 39.3667 56.2847 38.354 54.7205 36.1437C53.052 33.7682 52.7595 30.485 52.7595 27.5448V10.888C52.7595 10.4481 53.2148 10.0564 53.665 10.0564H56.1218C56.5746 10.0564 57.0273 10.4481 57.0273 10.888L57.0293 27.5448C57.0293 29.1852 57.1285 31.3344 57.8636 32.8045C58.5656 34.3279 60.1705 35.5209 61.6838 35.5183C63.2607 35.5183 65.298 34.3689 66.5646 32.581C68.0855 30.4292 68.4746 28.0536 68.4746 25.3372V10.8626C68.4787 10.4504 68.9274 10.054 69.3776 10.0564H71.8295C72.2848 10.0564 72.7425 10.4684 72.7399 10.888L72.7461 37.9753C72.7461 38.4129 72.2858 38.8068 71.8356 38.8068" fill="#FF9900"/>
<path d="M29.3813 16.834C29.5543 17.2334 29.9967 17.5335 30.4342 17.4291L32.6852 16.8847C33.1226 16.7809 33.5016 16.287 33.3693 15.8723C31.8967 11.1747 28.0587 9.44785 23.5798 9.46311C18.6252 9.48346 14.0877 11.9406 14.0877 17.8539C14.0877 22.9179 17.5494 24.9498 21.3492 25.7916L25.3906 26.6391C27.5373 27.0867 30.2155 27.936 30.2155 30.9753C30.2155 34.5336 27.0414 35.6424 24.4496 35.7034C21.6977 35.6404 18.2234 34.3378 17.3535 31.0697C17.2545 30.6475 16.7533 30.3625 16.3158 30.4616L13.9632 30.9932C13.5206 31.0949 13.1645 31.5754 13.2713 31.9976C14.5862 37.1583 19.2662 39.3278 24.1521 39.366C29.305 39.4067 34.6538 37.0032 34.6538 30.5252C34.6538 27.936 33.6314 25.5679 31.6806 24.047C30.1723 22.8644 28.3207 22.47 26.5174 22.0758L22.9134 21.3436C20.7184 20.9493 18.4777 20.2752 18.4777 17.1773C18.4777 14.1226 21.3136 13.0749 23.5289 13.0115C26.0519 13.0786 28.2775 14.2373 29.3813 16.834" fill="#FF9900"/>
<path d="M35.9034 13.462H39.4132V30.0195C39.4132 35.7092 41.0232 39.3665 46.494 39.364H46.8731L49.6886 39.1097C50.1209 39.0568 50.5203 38.6801 50.5203 38.2349L50.5285 36.4699C50.5285 36.0196 50.147 35.534 49.7069 35.5747L47.2449 35.8112C44.4192 35.6789 43.6586 33.9391 43.6586 30.7497V13.4595H48.3309C48.7658 13.4595 49.16 13.0299 49.16 12.5847L49.1621 10.8346C49.1621 10.3845 48.7653 9.96228 48.3304 9.95984H43.6582V3.28836C43.6561 2.85354 43.213 2.40564 42.7755 2.46424L40.3238 2.75683C39.8507 2.80769 39.4158 3.14597 39.4132 3.58343V9.95984H35.8575C35.4201 9.95984 35.0487 10.3976 35.0487 10.8426L35.0283 12.5643C35.0283 13.012 35.4659 13.4571 35.9034 13.4595" fill="#FF9900"/>
<path d="M-6.67071 38.6666H-11.8745C-12.3985 38.634 -12.8105 38.2268 -12.8105 37.7053L-12.8186 10.9538C-12.7753 10.4655 -12.343 10.0815 -11.8165 10.0815H-6.97895C-6.52368 10.1039 -6.14727 10.4094 -6.04554 10.8292V14.9239H-5.95649C-4.4864 11.2588 -2.44914 9.51672 1.15996 9.51672C3.49481 9.51672 5.7941 10.3532 7.25147 12.6602C8.61728 14.8093 8.61731 18.4086 8.61731 20.9978V37.83C8.56135 38.3082 8.12645 38.6666 7.61522 38.6666H2.37826C1.9001 38.6442 1.51353 38.2827 1.45503 37.83V23.3043C1.45503 20.3769 1.79843 16.1013 -1.81066 16.1013C-3.07474 16.1013 -4.24721 16.9484 -4.82711 18.2378C-5.55707 19.8656 -5.65881 21.5062 -5.65881 23.3043V37.7053C-5.66898 38.2496 -6.11408 38.6666 -6.67108 38.6666" fill="#221F1F"/>
</g>
<defs>
<clipPath id="clip0">
<rect width="161" height="30" fill="white"/>
</clipPath>
</defs>
</svg>
