<svg width="30" height="30" viewBox="0 0 30 30" fill="none" xmlns="http://www.w3.org/2000/svg">
<g clip-path="url(#clip0)">
<path d="M54.48 46.7582C53.5726 48.8544 52.4986 50.784 51.2542 52.558C49.5579 54.9765 48.1691 56.6505 47.0987 57.5801C45.4395 59.106 43.6618 59.8874 41.7581 59.9319C40.3915 59.9319 38.7434 59.543 36.825 58.7541C34.9002 57.969 33.1314 57.5801 31.514 57.5801C29.8178 57.5801 27.9986 57.969 26.0527 58.7541C24.1039 59.543 22.5339 59.9541 21.3336 59.9948C19.5081 60.0726 17.6885 59.2689 15.8723 57.5801C14.713 56.569 13.2631 54.8357 11.5261 52.3803C9.66245 49.7581 8.13028 46.7175 6.92994 43.2509C5.64442 39.5066 5 35.8808 5 32.3705C5 28.3495 5.86886 24.8815 7.60918 21.9753C8.97692 19.6409 10.7965 17.7995 13.0738 16.4477C15.3512 15.0958 17.8118 14.407 20.4618 14.3629C21.9117 14.3629 23.8131 14.8114 26.176 15.6929C28.5322 16.5773 30.0452 17.0258 30.7085 17.0258C31.2044 17.0258 32.8851 16.5014 35.7343 15.4558C38.4286 14.4862 40.7026 14.0848 42.5655 14.2429C47.6135 14.6503 51.406 16.6402 53.9281 20.2253C49.4135 22.9608 47.1802 26.7922 47.2246 31.7072C47.2654 35.5356 48.6542 38.7214 51.3838 41.251C52.6208 42.425 54.0022 43.3324 55.5392 43.9768C55.2059 44.9435 54.854 45.8694 54.48 46.7582ZM42.9026 1.20034C42.9026 4.20103 41.8063 7.00276 39.6212 9.59601C36.9842 12.6789 33.7947 14.4603 30.3359 14.1792C30.2918 13.8192 30.2663 13.4403 30.2663 13.0422C30.2663 10.1615 31.5203 7.07868 33.7473 4.55802C34.8591 3.28176 36.2731 2.22057 37.9879 1.37404C39.6989 0.540137 41.3174 0.0789726 42.8396 0C42.884 0.401145 42.9026 0.802315 42.9026 1.2003V1.20034Z" fill="#B3B3B3"/>
</g>
<defs>
<clipPath id="clip0">
<rect width="30" height="30" fill="white"/>
</clipPath>
</defs>
</svg>
