<svg width="30" height="30" viewBox="0 0 30 30" fill="none" xmlns="http://www.w3.org/2000/svg">
<g clip-path="url(#clip0)">
<path d="M24.48 16.7582C23.5726 18.8544 22.4986 20.784 21.2542 22.558C19.5579 24.9765 18.1691 26.6505 17.0987 27.5801C15.4395 29.106 13.6618 29.8874 11.7581 29.9319C10.3915 29.9319 8.74342 29.543 6.82496 28.7541C4.9002 27.969 3.13137 27.5801 1.51401 27.5801C-0.182236 27.5801 -2.00144 27.969 -3.94731 28.7541C-5.89614 29.543 -7.46609 29.9541 -8.66642 29.9948C-10.4919 30.0726 -12.3115 29.2689 -14.1277 27.5801C-15.287 26.569 -16.7369 24.8357 -18.4739 22.3803C-20.3375 19.7581 -21.8697 16.7175 -23.0701 13.2509C-24.3556 9.50658 -25 5.88076 -25 2.3705C-25 -1.65049 -24.1311 -5.11853 -22.3908 -8.02474C-21.0231 -10.3591 -19.2035 -12.2005 -16.9262 -13.5523C-14.6488 -14.9042 -12.1882 -15.593 -9.53825 -15.6371C-8.08829 -15.6371 -6.18687 -15.1886 -3.82398 -14.3071C-1.46775 -13.4227 0.0451643 -12.9742 0.708476 -12.9742C1.20439 -12.9742 2.88508 -13.4986 5.73425 -14.5442C8.42861 -15.5138 10.7026 -15.9152 12.5655 -15.7571C17.6135 -15.3497 21.406 -13.3598 23.9281 -9.77468C19.4135 -7.03921 17.1802 -3.20784 17.2246 1.70719C17.2654 5.53559 18.6542 8.72142 21.3838 11.251C22.6208 12.425 24.0022 13.3324 25.5392 13.9768C25.2059 14.9435 24.854 15.8694 24.48 16.7582ZM12.9026 -28.7997C12.9026 -25.799 11.8063 -22.9972 9.62117 -20.404C6.98421 -17.3211 3.79468 -15.5397 0.335897 -15.8208C0.291825 -16.1808 0.266269 -16.5597 0.266269 -16.9578C0.266269 -19.8385 1.52031 -22.9213 3.74728 -25.442C4.85909 -26.7182 6.27312 -27.7794 7.98789 -28.626C9.69895 -29.4599 11.3174 -29.921 12.8396 -30C12.884 -29.5989 12.9026 -29.1977 12.9026 -28.7997V-28.7997Z" fill="#B3B3B3"/>
</g>
<defs>
<clipPath id="clip0">
<rect width="30" height="30" fill="white"/>
</clipPath>
</defs>
</svg>
