<svg width="30" height="30" viewBox="0 0 30 30" fill="none" xmlns="http://www.w3.org/2000/svg">
<g clip-path="url(#clip0)">
<path d="M-0.267844 0C-1.67202 0.299668 -14.03 1.91775 -15.5685 2.68656C-15.923 3.39643 -16.664 5.61119 -16.899 5.96161C-17.8921 6.17531 -21.9167 6.94086 -22.1697 7.08742C-22.3114 7.51317 -23.2362 9.33082 -23.4491 9.5437C-24.3014 9.75658 -28.2748 10.4933 -28.771 10.8486C-29.0543 12.5516 -30.1359 29.5925 -23.0397 40.7334C-15.9435 51.8743 -3.53225 59.2901 -0.267844 59.9999H-0.24226C3.02215 59.2901 15.4078 51.8743 22.504 40.7334C29.5994 29.5917 28.5458 12.5516 28.2609 10.8486C27.7639 10.4933 23.7897 9.75658 22.939 9.5437C22.7261 9.33082 21.8021 7.51317 21.6596 7.08742C21.4075 6.94086 17.3836 6.17449 16.3889 5.96161C16.1539 5.61119 15.4137 3.39643 15.0584 2.68656C13.5248 1.9202 1.15598 0.305398 -0.267844 0V0ZM-0.267844 4.34968C0.948837 4.61004 11.5215 6.02302 12.8324 6.67803C13.1345 7.28474 13.7584 9.16727 13.9582 9.46694C14.8072 9.64871 18.2708 10.2884 18.4869 10.4136C18.6081 10.7772 19.379 12.3555 19.5616 12.5373C20.2894 12.7191 23.6918 13.3346 24.1159 13.6375C24.3591 15.0933 25.2687 29.6505 19.2034 39.1727C13.138 48.6957 2.54809 55.0444 -0.242258 55.6503H-0.267839C-3.05818 55.0444 -13.6481 48.6949 -19.7135 39.1727C-25.778 29.6505 -24.8684 15.0933 -24.626 13.6375C-24.2011 13.3338 -20.7995 12.7191 -20.0717 12.5373C-19.8891 12.3555 -19.1182 10.7772 -18.997 10.4136C-18.7809 10.2884 -15.3429 9.64871 -14.4938 9.46694C-14.2932 9.16727 -13.6454 7.28474 -13.3425 6.67803C-12.0283 6.02057 -1.46815 4.60513 -0.267844 4.34968V4.34968Z" fill="#007AC2"/>
<path d="M1.67657 9.00605C1.27792 9.04535 1.21847 9.32435 1.21602 9.44102C1.13414 23.0701 1.17303 37.5289 1.0625 51.5305C1.15256 51.9735 1.85895 51.2927 2.26506 51.07C7.43472 48.2281 23.559 32.6118 14.2906 27.0188C21.3876 22.3781 20.1229 17.9492 16.9772 15.5306C10.4729 10.5271 3.05209 9.28484 2.1883 9.05722C1.97235 9.00032 1.80945 8.99295 1.67657 9.00605V9.00605ZM6.00065 14.6095C6.10136 14.5546 10.2705 16.1002 12.5507 17.6542C15.165 19.4359 14.28 21.1481 12.7554 22.183C11.9277 22.7471 6.80509 26.4262 5.94948 26.635C5.93065 25.9252 5.92696 17.9205 6.00065 14.6095V14.6095ZM9.81301 30.1915C10.3842 30.2091 10.9267 30.3917 11.3226 30.8056C11.6763 31.1438 13.2354 32.8245 9.91536 37.6372C8.67903 39.82 6.08662 42.5577 5.79596 42.8312C5.76075 42.841 5.74623 42.7868 5.71921 42.8056C5.74623 41.2409 5.70428 33.6666 5.79596 31.5476C5.97957 31.4518 8.09956 30.1388 9.81301 30.1915V30.1915Z" fill="#007AC2"/>
</g>
<defs>
<clipPath id="clip0">
<rect width="30" height="30" fill="white"/>
</clipPath>
</defs>
</svg>
