<svg width="30" height="30" viewBox="0 0 30 30" fill="none" xmlns="http://www.w3.org/2000/svg">
<g clip-path="url(#clip0)">
<path d="M29.7322 -30C28.328 -29.7003 15.97 -28.0823 14.4315 -27.3134C14.077 -26.6036 13.336 -24.3888 13.101 -24.0384C12.1079 -23.8247 8.08326 -23.0591 7.83026 -22.9126C7.68861 -22.4868 6.76382 -20.6692 6.55094 -20.4563C5.69861 -20.2434 1.72516 -19.5067 1.22899 -19.1514C0.945694 -17.4484 -0.135891 -0.407462 6.96032 10.7334C14.0565 21.8743 26.4677 29.2901 29.7322 29.9999H29.7577C33.0221 29.2901 45.4078 21.8743 52.504 10.7334C59.5994 -0.40828 58.5458 -17.4484 58.2609 -19.1514C57.7639 -19.5067 53.7897 -20.2434 52.939 -20.4563C52.7261 -20.6692 51.8021 -22.4868 51.6596 -22.9126C51.4075 -23.0591 47.3836 -23.8255 46.3889 -24.0384C46.1539 -24.3888 45.4137 -26.6036 45.0584 -27.3134C43.5248 -28.0798 31.156 -29.6946 29.7322 -30V-30ZM29.7322 -25.6503C30.9488 -25.39 41.5215 -23.977 42.8324 -23.322C43.1345 -22.7153 43.7584 -20.8327 43.9582 -20.5331C44.8072 -20.3513 48.2708 -19.7116 48.4869 -19.5864C48.6081 -19.2228 49.379 -17.6445 49.5616 -17.4627C50.2894 -17.2809 53.6918 -16.6654 54.1159 -16.3625C54.3591 -14.9067 55.2687 -0.349534 49.2034 9.17268C43.138 18.6957 32.5481 25.0444 29.7577 25.6503H29.7322C26.9418 25.0444 16.3519 18.6949 10.2865 9.17268C4.22197 -0.349534 5.13162 -14.9067 5.37397 -16.3625C5.79891 -16.6662 9.20046 -17.2809 9.92834 -17.4627C10.1109 -17.6445 10.8818 -19.2228 11.003 -19.5864C11.2191 -19.7116 14.6571 -20.3513 15.5062 -20.5331C15.7068 -20.8327 16.3546 -22.7153 16.6575 -23.322C17.9717 -23.9794 28.5319 -25.3949 29.7322 -25.6503V-25.6503Z" fill="#007AC2"/>
<path d="M14.053 -16.0863C13.6281 -15.9045 10.0083 -13.5997 9.64395 -13.2361C9.54325 -10.0233 10.4046 -1.35508 13.5773 5.41035C13.9785 6.26596 14.4141 7.06835 14.8857 7.79459C15.7904 9.35679 15.8412 9.23316 16.8941 7.73728C17.6236 6.75067 18.6757 5.28754 18.9394 4.98624C19.3029 6.19882 21.6536 13.7626 24.9597 18.3337C26.4253 20.3618 28.6761 22.2777 28.6671 21.4884C28.577 13.765 28.356 -19.6667 28.5983 -21.0291C27.6232 -21.0521 24.4243 -20.6353 23.7914 -20.307C23.739 -19.0846 24.231 3.83915 23.9281 6.44609C21.6871 0.986582 20.9224 -13.4204 21.3654 -19.3646C20.1528 -19.1222 17.1954 -17.9358 16.7713 -17.5109C16.226 -16.4195 16.9702 -4.44918 17.7448 -0.431516C17.4803 -0.0147659 16.7181 1.11677 16.5969 1.29853C15.0625 -1.46152 13.5961 -9.99466 14.053 -16.0863Z" fill="#007AC2"/>
</g>
<defs>
<clipPath id="clip0">
<rect width="30" height="30" fill="white"/>
</clipPath>
</defs>
</svg>
