<svg width="500" height="334" viewBox="0 0 500 334" fill="none" xmlns="http://www.w3.org/2000/svg">
<path d="M48.6667 252.921C61.5733 260.101 53.3333 270.921 42.6667 276.254C37.4917 278.785 33.1257 282.71 30.06 287.587H483.067C485.733 273.587 499.887 188.147 462.667 122.254C422 50.2539 362.667 38.2539 315.333 38.2539C268 38.2539 227.333 76.2539 208 102.921C188.667 129.587 157.853 142.841 109.593 138.214C61.3333 133.587 28.6667 179.587 26.6667 202.254C24.6667 224.921 35.76 245.747 48.6667 252.921Z" fill="#4779A8"/>
<path opacity="0.7" d="M48.6667 252.921C61.5733 260.101 53.3333 270.921 42.6667 276.254C37.4917 278.785 33.1257 282.71 30.06 287.587H483.067C485.733 273.587 499.887 188.147 462.667 122.254C422 50.2539 362.667 38.2539 315.333 38.2539C268 38.2539 227.333 76.2539 208 102.921C188.667 129.587 157.853 142.841 109.593 138.214C61.3333 133.587 28.6667 179.587 26.6667 202.254C24.6667 224.921 35.76 245.747 48.6667 252.921Z" fill="white"/>
<path d="M363.853 50.3928C362.213 48.6928 359.373 47.1328 354.44 47.0128C343.333 46.7395 346.333 54.5795 343.333 56.4728C340.333 58.3662 339.553 55.3862 336.58 57.2795C333.607 59.1728 334.953 62.9595 332.52 63.4995C330.087 64.0395 326.847 61.0662 323.853 62.9595C320.86 64.8528 320.88 66.4728 319.527 66.4728C318.173 66.4728 315.473 65.3862 313.853 66.4728C312.233 67.5595 310.34 68.9062 310.34 68.9062H339.36" stroke="#263238" stroke-linecap="round" stroke-linejoin="round"/>
<path d="M366.907 55.2333L366.067 54.8467C365.937 53.8382 365.596 52.8683 365.067 52" stroke="#263238" stroke-linecap="round" stroke-linejoin="round"/>
<path d="M343.127 68.9067H378.767C378.767 68.9067 379.58 66.4733 376.607 64.8467C373.633 63.22 372.28 64.58 371.2 63.2267C370.233 62 373.333 59.1067 368.313 56" stroke="#263238" stroke-linecap="round" stroke-linejoin="round"/>
<path d="M84.0533 58.2649C83.1133 57.2849 81.48 56.3916 78.6467 56.3183C72.28 56.1649 73.98 60.6716 72.28 61.7583C70.58 62.8449 70.1 61.1383 68.3933 62.2249C66.6867 63.3116 67.46 65.4849 66.0667 65.7983C64.6733 66.1116 62.8 64.3983 61.0933 65.4849C59.3867 66.5716 59.3867 67.4849 58.6067 67.4849C57.8267 67.4849 56.28 66.8649 55.3467 67.4849C54.4133 68.1049 53.3467 68.8849 53.3467 68.8849H70.0133" stroke="#263238" stroke-linecap="round" stroke-linejoin="round"/>
<path d="M85.8066 61.0455L85.3266 60.8255C85.2529 60.2447 85.0575 59.6859 84.7533 59.1855" stroke="#263238" stroke-linecap="round" stroke-linejoin="round"/>
<path d="M72.14 68.9063H92.6267C92.6267 68.9063 93.0933 67.5063 91.38 66.573C89.6667 65.6397 88.9 66.4197 88.2733 65.6397C87.6467 64.8597 89.5067 63.273 86.62 61.4863" stroke="#263238" stroke-linecap="round" stroke-linejoin="round"/>
<path d="M284.827 94.9795H298.933C298.933 94.9795 299.413 93.5395 297.647 92.5795C295.88 91.6195 295.087 92.4195 294.447 91.6195C293.807 90.8195 296.207 88.7329 291.4 86.6529C291.4 86.6529 291.08 82.1662 284.513 81.9862C281.68 81.9195 280.4 82.7462 279.713 83.7929" stroke="#263238" stroke-linecap="round" stroke-linejoin="round"/>
<path d="M280.527 94.9785H282.873" stroke="#263238" stroke-linecap="round" stroke-linejoin="round"/>
<path d="M278.86 86C278.756 86.6213 278.432 87.1844 277.947 87.5867C276.187 88.7067 275.707 86.92 273.947 88.0667C272.187 89.2133 272.987 91.4333 271.547 91.7533C270.107 92.0733 268.18 90.3067 266.42 91.4333C264.66 92.56 264.66 93.5133 263.86 93.5133C263.06 93.5133 261.453 92.8467 260.527 93.5133C259.6 94.18 258.447 94.9533 258.447 94.9533H276.447" stroke="#263238" stroke-linecap="round" stroke-linejoin="round"/>
<path d="M172.373 68.9058H212.987C212.987 68.9058 214.373 64.7524 209.333 61.9991C204.293 59.2458 201.953 61.5324 200.107 59.2258C198.26 56.9191 205.147 50.9124 191.333 44.9124C191.333 44.9124 190.413 31.9991 171.5 31.5391C163.333 31.3391 159.64 33.7191 157.673 36.7458" stroke="#263238" stroke-linecap="round" stroke-linejoin="round"/>
<path d="M159.98 68.9062H166.74" stroke="#263238" stroke-linecap="round" stroke-linejoin="round"/>
<path d="M155.18 43.1133C154.6 45.1133 153.98 46.7799 152.56 47.6799C147.487 50.9133 146.1 45.8399 141.027 49.0666C135.953 52.2933 138.26 58.7533 134.107 59.6799C129.953 60.6066 124.42 55.5266 119.333 58.7533C114.247 61.9799 114.253 64.7533 111.947 64.7533C109.64 64.7533 105.027 62.9066 102.26 64.7533C99.4933 66.5999 96.26 68.9066 96.26 68.9066H148.133" stroke="#263238" stroke-linecap="round" stroke-linejoin="round"/>
<path d="M412.807 287.586H468.98C467.9 280.713 463.487 281.926 462.9 271.279C462.607 265.946 467.567 259.279 467.14 252.239C466.787 246.439 461.067 240.493 460.62 233.853C460.22 227.853 465.107 221.219 464.62 214.766C464.173 208.659 458.38 202.806 457.86 196.466C457.36 190.279 462.147 183.559 461.58 177.306C461.013 171.053 455.113 165.306 454.487 159.139C453.82 152.799 458.487 145.973 457.767 139.906C457.013 133.466 450.933 127.906 450.113 121.966C449.193 115.359 453.5 108.306 452.493 102.633C451.26 95.6461 444.753 90.5861 443.387 85.4328C440.833 75.8261 441.153 66.5728 438.14 65.9661C434.927 65.2995 434.193 74.3995 431.76 84.5461C430.533 89.6395 424.173 94.8061 423.127 101.799C422.28 107.459 426.78 114.346 426.04 120.926C425.373 126.813 419.46 132.479 418.88 138.886C418.34 144.886 423.147 151.553 422.673 157.853C422.213 163.973 416.467 169.813 416.073 176.033C415.68 182.253 420.633 188.766 420.293 194.906C419.947 201.199 414.293 207.139 414.013 213.199C413.707 219.599 418.76 226.059 418.513 232.006C418.24 238.586 412.68 244.619 412.473 250.373C412.227 257.359 417.353 263.806 417.193 269.126C416.853 280.666 411.567 278.279 411.38 287.566L412.807 287.586Z" fill="#4779A8"/>
<path opacity="0.3" d="M412.807 287.586H468.98C467.9 280.713 463.487 281.926 462.9 271.279C462.607 265.946 467.567 259.279 467.14 252.239C466.787 246.439 461.067 240.493 460.62 233.853C460.22 227.853 465.107 221.219 464.62 214.766C464.173 208.659 458.38 202.806 457.86 196.466C457.36 190.279 462.147 183.559 461.58 177.306C461.013 171.053 455.113 165.306 454.487 159.139C453.82 152.799 458.487 145.973 457.767 139.906C457.013 133.466 450.933 127.906 450.113 121.966C449.193 115.359 453.5 108.306 452.493 102.633C451.26 95.6461 444.753 90.5861 443.387 85.4328C440.833 75.8261 441.153 66.5728 438.14 65.9661C434.927 65.2995 434.193 74.3995 431.76 84.5461C430.533 89.6395 424.173 94.8061 423.127 101.799C422.28 107.459 426.78 114.346 426.04 120.926C425.373 126.813 419.46 132.479 418.88 138.886C418.34 144.886 423.147 151.553 422.673 157.853C422.213 163.973 416.467 169.813 416.073 176.033C415.68 182.253 420.633 188.766 420.293 194.906C419.947 201.199 414.293 207.139 414.013 213.199C413.707 219.599 418.76 226.059 418.513 232.006C418.24 238.586 412.68 244.619 412.473 250.373C412.227 257.359 417.353 263.806 417.193 269.126C416.853 280.666 411.567 278.279 411.38 287.566L412.807 287.586Z" fill="white"/>
<path d="M436.92 84.3926V284.993" stroke="#263238" stroke-linecap="round" stroke-linejoin="round"/>
<path d="M445.693 105.426L436.547 113.319L429.067 103.346" stroke="#263238" stroke-linecap="round" stroke-linejoin="round"/>
<path d="M445.693 140.34L436.547 148.24L429.067 138.26" stroke="#263238" stroke-linecap="round" stroke-linejoin="round"/>
<path d="M445.693 173.18L436.547 181.08L429.067 171.1" stroke="#263238" stroke-linecap="round" stroke-linejoin="round"/>
<path d="M445.693 212.252L436.547 220.145L429.067 210.172" stroke="#263238" stroke-linecap="round" stroke-linejoin="round"/>
<path d="M445.693 251.74L436.547 259.64L429.067 249.66" stroke="#263238" stroke-linecap="round" stroke-linejoin="round"/>
<path d="M373.773 287.587H422.153C421.227 281.667 417.427 282.713 416.92 273.54C416.667 268.927 420.92 263.207 420.573 257.14C420.267 252.147 415.34 247.02 414.96 241.307C414.613 236.147 418.82 230.42 418.407 224.86C418.02 219.607 413.027 214.56 412.587 209.1C412.153 203.767 416.273 197.987 415.787 192.6C415.3 187.213 410.22 182.26 409.68 176.947C409.127 171.487 413.113 165.613 412.5 160.38C411.833 154.833 406.62 150.04 405.913 144.933C405.12 139.24 408.827 133.167 407.96 128.267C406.9 122.267 401.293 117.887 400.113 113.447C397.92 105.173 398.193 97.2 395.6 96.68C392.833 96.1267 392.2 103.947 390.1 112.68C389.047 117.073 383.567 121.52 382.667 127.54C381.94 132.42 385.813 138.353 385.18 144.02C384.607 149.093 379.507 153.973 379.013 159.487C378.547 164.68 382.687 170.4 382.28 175.827C381.88 181.1 376.947 186.127 376.587 191.487C376.227 196.847 380.513 202.453 380.227 207.74C379.927 213.16 375.067 218.28 374.82 223.5C374.553 229.013 378.907 234.58 378.693 239.693C378.46 245.367 373.667 250.56 373.487 255.52C373.273 261.52 377.693 267.087 377.56 271.667C377.26 281.613 372.707 279.553 372.547 287.553L373.773 287.587Z" fill="#4779A8"/>
<path opacity="0.3" d="M373.773 287.587H422.153C421.227 281.667 417.427 282.713 416.92 273.54C416.667 268.927 420.92 263.207 420.573 257.14C420.267 252.147 415.34 247.02 414.96 241.307C414.613 236.147 418.82 230.42 418.407 224.86C418.02 219.607 413.027 214.56 412.587 209.1C412.153 203.767 416.273 197.987 415.787 192.6C415.3 187.213 410.22 182.26 409.68 176.947C409.127 171.487 413.113 165.613 412.5 160.38C411.833 154.833 406.62 150.04 405.913 144.933C405.12 139.24 408.827 133.167 407.96 128.267C406.9 122.267 401.293 117.887 400.113 113.447C397.92 105.173 398.193 97.2 395.6 96.68C392.833 96.1267 392.2 103.947 390.1 112.68C389.047 117.073 383.567 121.52 382.667 127.54C381.94 132.42 385.813 138.353 385.18 144.02C384.607 149.093 379.507 153.973 379.013 159.487C378.547 164.68 382.687 170.4 382.28 175.827C381.88 181.1 376.947 186.127 376.587 191.487C376.227 196.847 380.513 202.453 380.227 207.74C379.927 213.16 375.067 218.28 374.82 223.5C374.553 229.013 378.907 234.58 378.693 239.693C378.46 245.367 373.667 250.56 373.487 255.52C373.273 261.52 377.693 267.087 377.56 271.667C377.26 281.613 372.707 279.553 372.547 287.553L373.773 287.587Z" fill="white"/>
<path d="M394.54 112.566V285.353" stroke="#263238" stroke-linecap="round" stroke-linejoin="round"/>
<path d="M402.1 130.679L394.22 137.486L387.773 128.893" stroke="#263238" stroke-linecap="round" stroke-linejoin="round"/>
<path d="M402.1 160.76L394.22 167.56L387.773 158.967" stroke="#263238" stroke-linecap="round" stroke-linejoin="round"/>
<path d="M402.1 189.039L394.22 195.845L387.773 187.252" stroke="#263238" stroke-linecap="round" stroke-linejoin="round"/>
<path d="M402.1 222.7L394.22 229.5L387.773 220.906" stroke="#263238" stroke-linecap="round" stroke-linejoin="round"/>
<path d="M402.1 256.713L394.22 263.513L387.773 254.92" stroke="#263238" stroke-linecap="round" stroke-linejoin="round"/>
<path d="M273.18 200.601H272.667C272.118 200.6 271.577 200.468 271.089 200.218C270.6 199.968 270.178 199.606 269.856 199.161C269.534 198.716 269.322 198.202 269.237 197.66C269.152 197.117 269.196 196.563 269.367 196.041C270.033 193.894 271.24 191.728 273.213 191.374C277.307 190.708 288.547 194.101 288.547 196.488C288.547 198.874 288.547 199.894 287.213 199.894H278.667L271.853 207.388L271.707 207.268C271.355 206.973 271.072 206.605 270.878 206.189C270.684 205.773 270.584 205.32 270.584 204.861C270.584 204.402 270.684 203.949 270.878 203.533C271.072 203.117 271.355 202.749 271.707 202.454C272.298 201.923 272.796 201.297 273.18 200.601Z" fill="#263238" stroke="#263238" stroke-linecap="round" stroke-linejoin="round"/>
<path d="M350.18 264.001H463.293C463.293 264.001 479.647 253.101 476.24 224.481C472.833 195.861 454.433 214.908 447.62 234.001H397.2C397.2 234.001 386.293 212.194 368.58 214.921C350.867 217.648 350.18 264.001 350.18 264.001Z" fill="#263238" stroke="#263238" stroke-linecap="round" stroke-linejoin="round"/>
<path d="M378 258.3C378 249.9 375.593 242.3 371.74 236.967V228.967H358.08C347.087 228.967 338.18 242.08 338.18 258.253C338.18 274.427 347.087 287.54 358.08 287.54H371.713V279.54C375.567 274.273 378 266.707 378 258.3Z" fill="#263238" stroke="#263238" stroke-linecap="round" stroke-linejoin="round"/>
<path d="M371.714 287.587C382.704 287.587 391.613 274.475 391.613 258.3C391.613 242.126 382.704 229.014 371.714 229.014C360.723 229.014 351.813 242.126 351.813 258.3C351.813 274.475 360.723 287.587 371.714 287.587Z" fill="#263238"/>
<path opacity="0.2" d="M371.714 287.587C382.704 287.587 391.613 274.475 391.613 258.3C391.613 242.126 382.704 229.014 371.714 229.014C360.723 229.014 351.813 242.126 351.813 258.3C351.813 274.475 360.723 287.587 371.714 287.587Z" fill="white" stroke="#263238" stroke-linecap="round" stroke-linejoin="round"/>
<path d="M371.714 287.587C382.704 287.587 391.613 274.475 391.613 258.3C391.613 242.126 382.704 229.014 371.714 229.014C360.723 229.014 351.813 242.126 351.813 258.3C351.813 274.475 360.723 287.587 371.714 287.587Z" stroke="#263238" stroke-linecap="round" stroke-linejoin="round"/>
<path d="M255.06 229.014H242.167C231.787 229.014 223.367 242.127 223.367 258.3C223.367 274.474 231.787 287.587 242.167 287.587H255.06C265.447 287.587 273.867 274.474 273.867 258.3C273.867 242.127 265.447 229.014 255.06 229.014Z" fill="#263238" stroke="#263238" stroke-linecap="round" stroke-linejoin="round"/>
<path d="M371.713 281.667C380.48 281.667 387.587 271.205 387.587 258.3C387.587 245.395 380.48 234.934 371.713 234.934C362.947 234.934 355.84 245.395 355.84 258.3C355.84 271.205 362.947 281.667 371.713 281.667Z" fill="white" stroke="#263238" stroke-linecap="round" stroke-linejoin="round"/>
<path d="M471.153 258.3C471.153 249.9 469.62 242.3 467.153 236.967V228.967H455.127C448.133 228.967 442.46 242.08 442.46 258.253C442.46 274.427 448.127 287.54 455.127 287.54H467.167V279.54C469.62 274.273 471.153 266.707 471.153 258.3Z" fill="#263238" stroke="#263238" stroke-linecap="round" stroke-linejoin="round"/>
<path d="M467.167 287.587C474.159 287.587 479.827 274.475 479.827 258.3C479.827 242.126 474.159 229.014 467.167 229.014C460.175 229.014 454.507 242.126 454.507 258.3C454.507 274.475 460.175 287.587 467.167 287.587Z" fill="#263238"/>
<path opacity="0.2" d="M467.167 287.587C474.159 287.587 479.827 274.475 479.827 258.3C479.827 242.126 474.159 229.014 467.167 229.014C460.175 229.014 454.507 242.126 454.507 258.3C454.507 274.475 460.175 287.587 467.167 287.587Z" fill="white" stroke="#263238" stroke-linecap="round" stroke-linejoin="round"/>
<path d="M467.167 287.587C474.159 287.587 479.827 274.475 479.827 258.3C479.827 242.126 474.159 229.014 467.167 229.014C460.175 229.014 454.507 242.126 454.507 258.3C454.507 274.475 460.175 287.587 467.167 287.587Z" stroke="#263238" stroke-linecap="round" stroke-linejoin="round"/>
<path d="M467.167 281.667C472.745 281.667 477.267 271.205 477.267 258.3C477.267 245.395 472.745 234.934 467.167 234.934C461.589 234.934 457.067 245.395 457.067 258.3C457.067 271.205 461.589 281.667 467.167 281.667Z" fill="white" stroke="#263238" stroke-linecap="round" stroke-linejoin="round"/>
<path d="M354.947 265.454C354.947 242.121 363.053 223.201 373.06 223.201C383.067 223.201 391.167 242.121 391.167 265.454C391.167 266.741 391.167 268.001 391.093 269.254H455.607C455.607 268.001 455.553 266.741 455.553 265.454C455.553 242.121 461.46 223.201 468.747 223.201C473.613 223.201 477.86 231.654 480.147 244.221V209.754C480.147 208.183 479.596 206.661 478.592 205.453C477.587 204.245 476.191 203.427 474.647 203.141L474.333 203.081C469.86 202.187 461.813 193.694 449.293 182.961C436.773 172.227 425.593 171.334 425.593 171.334H312.667C310.533 171.33 308.458 172.034 306.767 173.334L268.24 203.067C268.24 203.067 233.807 209.774 226.207 217.374C218.607 224.974 219.5 269.241 219.5 269.241H355.027C354.98 268.001 354.947 266.741 354.947 265.454Z" fill="white" stroke="#263238" stroke-linecap="round" stroke-linejoin="round"/>
<path d="M397.873 171.334H312.667C310.533 171.33 308.458 172.034 306.767 173.334L268.24 203.067H377.333L397.873 171.334Z" fill="white" stroke="#263238" stroke-linecap="round" stroke-linejoin="round"/>
<path d="M353.227 215.041C347.093 215.121 336.353 215.528 331.7 217.388C327.85 218.907 324.114 220.701 320.52 222.754H342.427L353.227 215.041Z" fill="#263238" stroke="#263238" stroke-linecap="round" stroke-linejoin="round"/>
<path d="M343.773 229.461V225.461H320.52L324.733 229.334C324.665 229.37 324.603 229.415 324.547 229.468L343.773 229.461Z" fill="#263238" stroke="#263238" stroke-linecap="round" stroke-linejoin="round"/>
<path d="M346 223.648V229.494C346.904 229.415 347.777 229.129 348.553 228.659C349.328 228.188 349.985 227.546 350.473 226.781C352.707 223.201 357.74 215.041 357.74 215.041L346 223.648Z" fill="#263238" stroke="#263238" stroke-linecap="round" stroke-linejoin="round"/>
<path d="M228.34 229.334L232.547 225.447H222.627C222.313 226.701 222.033 228.047 221.78 229.447H228.527C228.468 229.404 228.405 229.367 228.34 229.334Z" fill="#263238" stroke="#263238" stroke-linecap="round" stroke-linejoin="round"/>
<path d="M225.013 218.934C224.332 220.144 223.784 221.425 223.38 222.754H232.547C230.106 221.347 227.591 220.072 225.013 218.934Z" fill="#263238" stroke="#263238" stroke-linecap="round" stroke-linejoin="round"/>
<path d="M377.333 203.081H443.507C443.507 203.081 452.9 199.948 450.213 188.328C449.307 184.381 430.54 175.361 427.86 175.361H395.64L377.333 203.081Z" fill="#263238"/>
<path opacity="0.2" d="M377.333 203.081H443.507C443.507 203.081 452.9 199.948 450.213 188.328C449.307 184.381 430.54 175.361 427.86 175.361H395.64L377.333 203.081Z" fill="white" stroke="#263238" stroke-linecap="round" stroke-linejoin="round"/>
<path d="M377.333 203.081H443.507C443.507 203.081 452.9 199.948 450.213 188.328C449.307 184.381 430.54 175.361 427.86 175.361H395.64L377.333 203.081Z" stroke="#263238" stroke-linecap="round" stroke-linejoin="round"/>
<path d="M304.127 175.361L268.207 203.081H377.307L395.267 175.361H304.127Z" fill="#263238" stroke="#263238" stroke-linecap="round" stroke-linejoin="round"/>
<path d="M234.22 223.646V233.04L240.927 237.953H295.033L307.553 232.593V223.646H234.22Z" fill="#263238" stroke="#263238" stroke-linecap="round" stroke-linejoin="round"/>
<path opacity="0.3" d="M236.72 223.646H234.22V226.146H236.72V223.646Z" fill="white" stroke="#263238" stroke-linecap="round" stroke-linejoin="round"/>
<path opacity="0.3" d="M239.487 226.414H236.987V228.914H239.487V226.414Z" fill="white" stroke="#263238" stroke-linecap="round" stroke-linejoin="round"/>
<path opacity="0.3" d="M242.253 229.18H239.753V231.68H242.253V229.18Z" fill="white" stroke="#263238" stroke-linecap="round" stroke-linejoin="round"/>
<path opacity="0.3" d="M245.013 231.941H242.513V234.441H245.013V231.941Z" fill="white" stroke="#263238" stroke-linecap="round" stroke-linejoin="round"/>
<path opacity="0.3" d="M307.053 223.646H304.553V226.146H307.053V223.646Z" fill="white" stroke="#263238" stroke-linecap="round" stroke-linejoin="round"/>
<path opacity="0.3" d="M304.293 226.414H301.793V228.914H304.293V226.414Z" fill="white" stroke="#263238" stroke-linecap="round" stroke-linejoin="round"/>
<path opacity="0.3" d="M301.527 229.18H299.027V231.68H301.527V229.18Z" fill="white" stroke="#263238" stroke-linecap="round" stroke-linejoin="round"/>
<path opacity="0.3" d="M298.76 231.941H296.26V234.441H298.76V231.941Z" fill="white" stroke="#263238" stroke-linecap="round" stroke-linejoin="round"/>
<path opacity="0.3" d="M248.853 231.941H246.353V234.441H248.853V231.941Z" fill="white" stroke="#263238" stroke-linecap="round" stroke-linejoin="round"/>
<path opacity="0.3" d="M252.693 231.941H250.193V234.441H252.693V231.941Z" fill="white" stroke="#263238" stroke-linecap="round" stroke-linejoin="round"/>
<path opacity="0.3" d="M256.533 231.941H254.033V234.441H256.533V231.941Z" fill="white" stroke="#263238" stroke-linecap="round" stroke-linejoin="round"/>
<path opacity="0.3" d="M260.373 231.941H257.873V234.441H260.373V231.941Z" fill="white" stroke="#263238" stroke-linecap="round" stroke-linejoin="round"/>
<path opacity="0.3" d="M264.213 231.941H261.713V234.441H264.213V231.941Z" fill="white" stroke="#263238" stroke-linecap="round" stroke-linejoin="round"/>
<path opacity="0.3" d="M268.047 231.941H265.547V234.441H268.047V231.941Z" fill="white" stroke="#263238" stroke-linecap="round" stroke-linejoin="round"/>
<path opacity="0.3" d="M271.887 231.941H269.387V234.441H271.887V231.941Z" fill="white" stroke="#263238" stroke-linecap="round" stroke-linejoin="round"/>
<path opacity="0.3" d="M275.727 231.941H273.227V234.441H275.727V231.941Z" fill="white" stroke="#263238" stroke-linecap="round" stroke-linejoin="round"/>
<path opacity="0.3" d="M279.567 231.941H277.067V234.441H279.567V231.941Z" fill="white" stroke="#263238" stroke-linecap="round" stroke-linejoin="round"/>
<path opacity="0.3" d="M283.407 231.941H280.907V234.441H283.407V231.941Z" fill="white" stroke="#263238" stroke-linecap="round" stroke-linejoin="round"/>
<path opacity="0.3" d="M287.247 231.941H284.747V234.441H287.247V231.941Z" fill="white" stroke="#263238" stroke-linecap="round" stroke-linejoin="round"/>
<path opacity="0.3" d="M291.087 231.941H288.587V234.441H291.087V231.941Z" fill="white" stroke="#263238" stroke-linecap="round" stroke-linejoin="round"/>
<path opacity="0.3" d="M294.92 231.941H292.42V234.441H294.92V231.941Z" fill="white" stroke="#263238" stroke-linecap="round" stroke-linejoin="round"/>
<path d="M333.487 249.581H222.153L220.667 237.655C220 244.208 219.673 251.195 219.533 256.935L219.92 258.528L222.153 254.055H231.707L225.707 258.975H314.24L311.08 254.055H333.467L339.727 257.635H344.2V234.828L333.487 249.581Z" fill="#263238" stroke="#263238" stroke-linecap="round" stroke-linejoin="round"/>
<path d="M420.927 203.081H424.667C424.273 197.601 422.707 185.515 416.567 175.361H412.82C414.973 180.035 420.087 192.081 420.927 203.081Z" fill="#263238" stroke="#263238" stroke-linecap="round" stroke-linejoin="round"/>
<path d="M340.3 182.881L341.667 186.668C339.983 188.269 339.003 190.472 338.94 192.794V203.114H330.553L337.573 182.914L340.3 182.881ZM301.12 188.001C295.367 191.501 286.673 199.228 282.453 203.088H310.453L324.94 180.848L315.4 181.514C310.377 183.044 305.577 185.225 301.12 188.001ZM359.04 185.274L355.633 184.608H350.86L349.527 185.941C349.527 185.941 352.933 186.281 353.273 188.328C353.507 190.364 353.621 192.412 353.613 194.461H356C356 194.461 356 190.714 357.7 189.008C358.665 188.036 359.689 187.126 360.767 186.281L359.04 185.274Z" fill="#525252" stroke="#263238" stroke-linecap="round" stroke-linejoin="round"/>
<path d="M400.607 200.601H400.054C399.502 200.605 398.957 200.478 398.464 200.23C397.971 199.982 397.544 199.62 397.219 199.175C396.893 198.729 396.678 198.213 396.592 197.668C396.505 197.123 396.549 196.565 396.72 196.041C397.387 193.894 398.594 191.728 400.574 191.374C404.66 190.708 415.907 194.101 415.907 196.488C415.907 198.874 415.907 199.894 414.574 199.894H406.054L399.24 207.388L399.1 207.268C398.75 206.972 398.468 206.604 398.274 206.188C398.081 205.772 397.981 205.319 397.981 204.861C397.981 204.402 398.081 203.949 398.274 203.534C398.468 203.118 398.75 202.75 399.1 202.454C399.703 201.926 400.213 201.299 400.607 200.601Z" fill="white" stroke="#263238" stroke-linecap="round" stroke-linejoin="round"/>
<path d="M399.1 207.294L399.24 207.414L406.053 199.921H414.573C415.7 199.921 415.907 199.208 415.907 197.621H396.627C396.744 198.447 397.155 199.203 397.784 199.75C398.414 200.298 399.219 200.6 400.053 200.601H400.607C400.211 201.31 399.697 201.946 399.087 202.481C398.737 202.777 398.456 203.147 398.264 203.563C398.072 203.979 397.973 204.432 397.974 204.891C397.975 205.349 398.077 205.802 398.271 206.217C398.466 206.632 398.749 207 399.1 207.294Z" fill="#263238" stroke="#263238" stroke-linecap="round" stroke-linejoin="round"/>
<path d="M420.127 211.314H412.46V212.961H420.127V211.314Z" fill="#263238" stroke="#263238" stroke-linecap="round" stroke-linejoin="round"/>
<path d="M454.64 211.314H446.973V212.961H454.64V211.314Z" fill="#263238" stroke="#263238" stroke-linecap="round" stroke-linejoin="round"/>
<path d="M455.187 204.74C455.187 204.74 460.74 208.507 463.953 221.72C463.953 221.72 450.26 223.367 450.26 261.16" stroke="#263238" stroke-linecap="round" stroke-linejoin="round"/>
<path d="M448.613 262.807H391.127C391.127 263.68 391.167 264.567 391.167 265.473C391.167 266.76 391.167 268.02 391.094 269.273H455.607C455.607 268.02 455.554 266.76 455.554 265.473V265.213L448.613 262.807Z" fill="#263238" stroke="#263238" stroke-linecap="round" stroke-linejoin="round"/>
<path d="M354.947 265.454C354.947 264.567 354.947 263.68 354.987 262.787H219.44C219.44 266.72 219.44 269.234 219.44 269.234H355.027C354.98 268 354.947 266.74 354.947 265.454Z" fill="#263238" stroke="#263238" stroke-linecap="round" stroke-linejoin="round"/>
<path d="M477.74 208C477.059 208 476.39 208.177 475.798 208.514C475.206 208.851 474.712 209.337 474.364 209.922C474.017 210.508 473.827 211.174 473.815 211.855C473.802 212.536 473.967 213.209 474.293 213.807L480.147 224.54V209.753C480.14 209.169 480.055 208.588 479.893 208.027H477.74V208Z" fill="#263238" stroke="#263238" stroke-linecap="round" stroke-linejoin="round"/>
<path d="M425.133 208.773C425.133 208.773 437.4 226.493 425.133 256.473" stroke="#263238" stroke-linecap="round" stroke-linejoin="round"/>
<path d="M37.8267 287.586H485.333" stroke="#263238" stroke-linecap="round" stroke-linejoin="round"/>
<path d="M30.0599 287.586H34.4799" stroke="#263238" stroke-linecap="round" stroke-linejoin="round"/>
<path d="M18.6666 287.586H25.4" stroke="#263238" stroke-linecap="round" stroke-linejoin="round"/>
<path d="M46.7466 142.945L44.08 143.612L46.26 120.158L49.44 116.305V111.785L39.7266 114.132L40.72 119.998C40.72 119.998 35.0266 147.999 34.72 149.812C34.4133 151.625 35.2266 156.345 35.7266 156.512C36.2266 156.679 48.46 153.665 48.46 153.665L46.7466 142.945Z" fill="white" stroke="#263238" stroke-linecap="round" stroke-linejoin="round"/>
<path d="M111.233 130.053L126.813 102.92L126.473 94.54L127.48 92.2L137.027 91.6934C137.027 91.6934 135.027 98.7267 135.027 99.2334C135.027 99.74 132.013 104.567 132.013 104.567L119.613 137.393L110.733 139.933L111.233 130.053Z" fill="white" stroke="#263238" stroke-linecap="round" stroke-linejoin="round"/>
<path d="M30.7267 117.826L233.253 67.0059" stroke="#263238" stroke-width="3" stroke-linecap="round" stroke-linejoin="round"/>
<path d="M129.493 94.3729L136.693 93.7062L136.86 90.0195H127.987L127.813 93.0329L129.493 94.3729Z" fill="white" stroke="#263238" stroke-linecap="round" stroke-linejoin="round"/>
<path d="M127.813 100.239L124.133 93.3655L126.307 89.6855L130.667 87.6855C130.831 87.737 130.983 87.8245 131.109 87.9418C131.236 88.0591 131.335 88.2031 131.398 88.3635C131.462 88.5238 131.49 88.6963 131.478 88.8685C131.467 89.0407 131.418 89.2082 131.333 89.3589C130.833 90.6922 128.32 91.7055 128.32 91.7055C128.32 91.7055 130.32 95.2255 130.493 97.2322" fill="white"/>
<path d="M127.813 100.239L124.133 93.3655L126.307 89.6855L130.667 87.6855C130.831 87.737 130.983 87.8245 131.109 87.9418C131.236 88.0591 131.335 88.2031 131.398 88.3635C131.462 88.5238 131.49 88.6963 131.478 88.8685C131.467 89.0407 131.418 89.2082 131.333 89.3589C130.833 90.6922 128.32 91.7055 128.32 91.7055C128.32 91.7055 130.32 95.2255 130.493 97.2322" stroke="#263238" stroke-linecap="round" stroke-linejoin="round"/>
<path d="M64.8067 281.119C64.8067 281.119 57.4734 285.866 56.6067 288.886C55.74 291.906 58.5534 292.766 62 291.472C65.4467 290.179 69.12 286.292 69.12 286.292C69.12 286.292 71.4934 287.159 72.14 284.352C72.7867 281.546 70.6267 278.312 70.6267 278.312L64.8067 281.119Z" fill="white" stroke="#263238" stroke-linecap="round" stroke-linejoin="round"/>
<path d="M103.2 280.473C103.2 280.473 106.007 286.293 109.46 288.02C112.913 289.746 116.2 290.02 115.927 287.16C115.5 282.626 106.867 278.1 106.867 278.1L103.2 280.473Z" fill="white" stroke="#263238" stroke-linecap="round" stroke-linejoin="round"/>
<path d="M60.9867 189.512L61.14 231.285C61.14 231.285 61.3534 246.819 61.5734 257.172C61.7934 267.525 64.16 282.198 64.16 282.198C65.7675 282.695 67.4758 282.768 69.12 282.412C69.7911 282.248 70.4142 281.928 70.9389 281.479C71.4636 281.03 71.875 280.463 72.14 279.825L73.8667 254.372L77.3334 215.998L79.92 216.665L90.06 249.452L101.273 279.872C101.273 279.872 101.487 281.379 103.647 281.379C105.807 281.379 108.607 278.792 108.607 278.792C108.607 278.792 104.727 251.398 103.86 247.085C103.465 244.884 102.89 242.719 102.14 240.612L91.1334 190.998L90.2734 189.485L62 187.285L60.9867 189.512Z" fill="#263238" stroke="#263238" stroke-linecap="round" stroke-linejoin="round"/>
<path d="M72.7133 136.752L60.6666 137.586L45.9266 142.612L48.5933 158.359L59.6466 155.999L60.98 189.499C60.98 189.499 62.1533 190.832 68.3133 192.012C74.4733 193.192 83.0533 192.179 86.24 191.672C89.4266 191.166 90.4266 190.339 90.9066 189.672C91.3866 189.006 97.3333 151.486 97.3333 151.486L111.74 147.132L111.567 128.879L98.6666 133.232L79.74 136.752H72.7133Z" fill="white" stroke="#263238" stroke-linecap="round" stroke-linejoin="round"/>
<path d="M70.9534 131.1L71.6467 137.527L76.3934 150.473L82.92 138.413L83.2134 136.24L73.3267 127.34L70.9534 131.1Z" fill="white" stroke="#263238" stroke-linecap="round" stroke-linejoin="round"/>
<path d="M75.4534 134.967L80.1 142.833L82.96 137.287L75.4534 134.967Z" fill="#263238" stroke="#263238" stroke-linecap="round" stroke-linejoin="round"/>
<path d="M86.9733 117.159C86.9733 117.159 87.76 123.586 87.5667 125.366C87.3733 127.146 87.3667 131.986 86.9 133.573C86.4333 135.159 86.4067 136.733 85.3133 137.326C84.22 137.919 80.08 137.326 78.7933 137.226C77.5067 137.126 75.2333 135.353 74.74 134.166C74.2467 132.979 73.16 129.419 73.16 129.419C73.16 129.419 71.38 123.979 71.28 123.586C71.18 123.193 70.6867 119.533 73.4533 117.586C76.22 115.639 80.4733 115.586 81.8533 115.586C83.2333 115.586 86.9733 117.159 86.9733 117.159Z" fill="white" stroke="#263238" stroke-linecap="round" stroke-linejoin="round"/>
<path d="M86.04 131.779C86.04 131.779 84.08 132.566 82.7067 131.879" stroke="#263238" stroke-linecap="round" stroke-linejoin="round"/>
<path d="M82 126.099C82 126.585 81.82 126.979 81.6067 126.979C81.3934 126.979 81.2134 126.585 81.2134 126.099C81.2134 125.612 81.3934 125.219 81.6067 125.219C81.82 125.219 82 125.612 82 126.099Z" fill="#263238"/>
<path d="M87.1668 122.893L85.4868 124.473L86.5734 129.813L83.5134 130.113" stroke="#263238" stroke-linecap="round" stroke-linejoin="round"/>
<path d="M83.0067 123.553L79.5867 124.293" stroke="#263238" stroke-linecap="round" stroke-linejoin="round"/>
<path d="M73.5267 123.88C73.5267 123.88 75.5267 122.5 76 122.2C76.4733 121.9 75.0067 119.927 76 118.547C76.9933 117.167 82.52 117.36 84.7933 117.36C87.0667 117.36 89.34 117.46 88.4533 114.093C87.5667 110.727 83.2133 108.86 80.74 108.66C78.2667 108.46 73.4067 110.933 73.4067 110.933C73.4067 110.933 69.6533 111.6 67.4067 113.207C65.16 114.813 64.6333 118.54 66.22 121.513C67.8067 124.487 68.6867 125.96 68.6867 125.96L73.2333 124.973L73.5267 123.88Z" fill="#525252" stroke="#263238" stroke-linecap="round" stroke-linejoin="round"/>
<path d="M70.6067 123.192C70.6067 123.192 70.86 112.812 73.4266 110.932C73.4266 110.932 70.0933 110.139 67.8933 112.812C67.1211 116.814 67.4624 120.951 68.88 124.772L70.88 124.872L70.6067 123.192Z" fill="#263238" stroke="#263238" stroke-linecap="round" stroke-linejoin="round"/>
<path d="M74.9066 127.493C74.9066 128.344 74.6545 129.175 74.182 129.882C73.7095 130.589 73.0379 131.141 72.2522 131.466C71.4665 131.791 70.6019 131.877 69.7678 131.711C68.9336 131.545 68.1674 131.135 67.5661 130.534C66.9647 129.933 66.5552 129.166 66.3893 128.332C66.2234 127.498 66.3085 126.634 66.634 125.848C66.9594 125.062 67.5106 124.391 68.2177 123.918C68.9248 123.446 69.7562 123.193 70.6066 123.193C71.7471 123.193 72.8408 123.646 73.6472 124.453C74.4536 125.259 74.9066 126.353 74.9066 127.493Z" fill="#263238" stroke="#263238" stroke-linecap="round" stroke-linejoin="round"/>
<path d="M39.7134 112.465L40.72 116.652L49.0934 114.139L48.26 109.445L39.7134 112.465Z" fill="white" stroke="#263238" stroke-linecap="round" stroke-linejoin="round"/>
<path d="M45.0733 118.666C43.4 116.826 45.5733 115.153 45.5733 115.153L43.4 115.333L43.0667 114.16L49.26 112.486C49.26 112.486 48.9267 115.666 49.4267 116.333C49.9267 117 46.2467 120.186 46.2467 120.186" fill="white"/>
<path d="M45.0733 118.666C43.4 116.826 45.5733 115.153 45.5733 115.153L43.4 115.333L43.0667 114.16L49.26 112.486C49.26 112.486 48.9267 115.666 49.4267 116.333C49.9267 117 46.2467 120.186 46.2467 120.186" stroke="#263238" stroke-linecap="round" stroke-linejoin="round"/>
<path d="M241.453 105.572L237.513 105.859C237.061 105.894 236.612 105.754 236.259 105.469C235.906 105.184 235.675 104.775 235.613 104.326L232.327 80.6657C232.297 80.4257 232.317 80.1822 232.384 79.9499C232.451 79.7176 232.565 79.5015 232.718 79.3145C232.872 79.1275 233.061 78.9736 233.276 78.862C233.491 78.7505 233.726 78.6837 233.967 78.6657L240.267 78.2057C240.511 78.1883 240.756 78.2213 240.986 78.3024C241.217 78.3836 241.429 78.5112 241.608 78.6774C241.787 78.8437 241.931 79.045 242.029 79.2689C242.127 79.4927 242.179 79.7345 242.18 79.979L243.113 103.832C243.103 104.277 242.927 104.702 242.62 105.023C242.313 105.345 241.897 105.541 241.453 105.572Z" fill="#263238"/>
<path d="M230.18 67.2727L231.267 78.666C231.285 78.8521 231.34 79.0326 231.43 79.1966C231.52 79.3606 231.642 79.5046 231.789 79.62C231.936 79.7353 232.105 79.8195 232.286 79.8676C232.467 79.9156 232.655 79.9264 232.84 79.8993L236.173 79.3993C236.504 79.3475 236.805 79.1766 237.018 78.9188C237.232 78.661 237.344 78.334 237.333 77.9993L236.667 66.286C236.654 66.0895 236.599 65.8982 236.505 65.7247C236.412 65.5513 236.283 65.3998 236.126 65.2805C235.97 65.1611 235.789 65.0766 235.597 65.0328C235.405 64.9889 235.206 64.9866 235.013 65.026L231.3 65.7993C230.963 65.8611 230.662 66.0465 230.455 66.319C230.247 66.5916 230.149 66.9317 230.18 67.2727Z" fill="#263238"/>
<path d="M162.98 167.5L162.48 185.46" stroke="#263238" stroke-width="4" stroke-linecap="round" stroke-linejoin="round"/>
<path d="M161.46 179.599C161.46 179.599 156.547 180.853 155.213 181.559C153.88 182.266 150.493 182.339 150.493 182.339L150.853 175.133L159.007 175.726L160.767 175.853L161.46 179.599Z" fill="white" stroke="#263238" stroke-linecap="round" stroke-linejoin="round"/>
<path d="M159.753 176.586L160.247 180.8C160.912 181.061 161.596 181.273 162.293 181.433C162.773 181.466 164.293 180.293 164.293 180.293L164.733 174.213L159.72 174.653L159.753 176.586Z" fill="white" stroke="#263238" stroke-linecap="round" stroke-linejoin="round"/>
<path d="M158.187 175.986L158.947 178.779L160.067 178.859L159.727 174.652L158.187 175.986Z" fill="white" stroke="#263238" stroke-linecap="round" stroke-linejoin="round"/>
<path d="M128.267 278.286C128.267 278.286 125.233 284.666 125.78 285.999C126.327 287.332 129.867 287.259 129.867 287.259L130.013 278.592C130.013 278.592 129.213 276.266 128.267 278.286Z" fill="white" stroke="#263238" stroke-linecap="round" stroke-linejoin="round"/>
<path d="M136.607 282.907C136.607 282.907 140.453 285.281 141.54 285.841C142.627 286.401 147.213 287.374 147.307 288.347C147.4 289.321 142.847 289.954 140.573 290.267C138.3 290.581 128.3 288.894 127.847 288.541C127.393 288.187 129.093 282.367 129.093 282.367L136.607 282.907Z" fill="white" stroke="#263238" stroke-linecap="round" stroke-linejoin="round"/>
<path d="M151.653 199.62C151.653 199.62 149.653 233.873 149.807 238.38C149.96 242.886 148.287 245.986 148.193 247.266C148.1 248.546 137.333 275.086 137.333 275.086L135.28 281.206L131.087 274.793L135.513 244.74L131.18 200.386L142.373 198.953L151.653 199.62Z" fill="#525252" stroke="#263238" stroke-linecap="round" stroke-linejoin="round"/>
<path d="M116.54 200.612C116.54 200.612 119.007 215.412 121.6 221.712C124.193 228.012 127.467 244.959 127.467 244.959C127.467 244.959 125.407 253.486 126.76 256.959C128.113 260.432 128.187 279.406 128.187 279.406C128.024 280.509 127.941 281.623 127.94 282.739C128.053 283.406 128.133 284.526 128.133 284.526C128.133 284.526 131.387 283.952 132.52 283.859C133.653 283.766 137.56 283.099 137.56 283.099C137.56 283.099 137.733 280.699 137.993 279.272C138.253 277.846 137.327 275.526 137.327 275.046C137.327 274.566 138.913 261.979 138.913 261.979C138.913 261.979 141.273 244.959 141.507 241.759C141.74 238.559 138.1 204.546 138.1 204.546C138.1 204.546 127.973 197.879 124.153 197.426C120.333 196.972 116.54 200.612 116.54 200.612Z" fill="#525252" stroke="#263238" stroke-linecap="round" stroke-linejoin="round"/>
<path d="M128.047 139.712C128.047 139.712 113.94 147.626 113.887 148.379C113.833 149.132 118.733 180.132 118.733 180.132C118.733 180.132 114.94 197.219 114.8 199.119C114.73 200.484 114.759 201.852 114.887 203.212L122.947 199.459C122.947 199.459 137.173 205.719 139.06 206.126L142.833 206.912L144.74 203.472L144.933 207.832C146.573 206.608 148.085 205.221 149.447 203.692L152.547 199.692L151.153 180.192C151.153 180.192 152 149.106 152.1 147.712C152.2 146.319 152.333 144.539 151 143.546C149.667 142.552 139.873 140.312 139.873 140.312L130.18 138.459L128.047 139.712Z" fill="white" stroke="#263238" stroke-linecap="round" stroke-linejoin="round"/>
<path d="M138.113 142.347L146.047 144.82C146.29 144.895 146.546 144.918 146.798 144.888C147.051 144.858 147.295 144.776 147.513 144.647L149.953 143.207C149.981 142.844 149.886 142.484 149.684 142.182C149.482 141.879 149.185 141.654 148.84 141.54C146.84 140.873 142.84 139.6 141.893 139.613C140.62 139.64 137.927 140.14 138.113 142.347Z" fill="#828282" stroke="#263238" stroke-linecap="round" stroke-linejoin="round"/>
<path d="M129.727 128.852L130.9 137.365L138.933 144.459L140.7 137.692L132.267 127.252L129.727 128.852Z" fill="white" stroke="#263238" stroke-linecap="round" stroke-linejoin="round"/>
<path d="M135.687 136.1L139.327 141.14L140.307 138.48L135.687 136.1Z" fill="#263238"/>
<path d="M147.507 119.553L147.227 125.146L146.493 126.479L146.627 131.719L145.673 132.546C145.673 132.546 144.193 137.033 143.913 137.393C143.234 138.08 142.462 138.67 141.62 139.146C141.093 139.359 135.94 136.433 135.133 135.226C134.327 134.019 133.413 132.559 133.413 132.559L133.573 128.613L133.213 121.279L147.507 119.553Z" fill="white" stroke="#263238" stroke-linecap="round" stroke-linejoin="round"/>
<path d="M143.133 126.887V128.353C142.791 128.519 142.409 128.589 142.03 128.555C141.651 128.521 141.288 128.384 140.98 128.16" stroke="#263238" stroke-linecap="round" stroke-linejoin="round"/>
<path d="M143.82 134.52C143.82 134.52 143.333 134.62 142.253 133.934" stroke="#263238" stroke-linecap="round" stroke-linejoin="round"/>
<path d="M139.887 122.666L147.167 123.086L147.507 119.553L139.187 121.826L139.887 122.666Z" fill="#263238"/>
<path d="M144.347 126.213L140.287 125.793" stroke="#263238" stroke-linecap="round" stroke-linejoin="round"/>
<path d="M145.673 132.566L142.973 132.753" stroke="#263238" stroke-linecap="round" stroke-linejoin="round"/>
<path d="M147.507 119.553C147.507 119.553 147.913 112.18 146.12 110.513C144.327 108.846 135.947 108.246 135.02 108.686C134.369 109.016 133.744 109.397 133.153 109.826C131.337 110.864 129.589 112.018 127.92 113.28C126.427 114.573 125.58 115.66 125.413 117.946C125.247 120.233 125.96 124.5 125.96 124.5L147.507 119.553Z" fill="#4779A8" stroke="#263238" stroke-linecap="round" stroke-linejoin="round"/>
<path d="M133.213 121.332C133.213 121.332 147.08 118.386 149.767 118.326C152.453 118.266 155.28 117.959 155.28 117.959C155.28 117.959 148.367 120.006 144.84 121.159C141.602 122.061 138.311 122.76 134.987 123.252L133.213 121.332Z" fill="#4779A8" stroke="#263238" stroke-linecap="round" stroke-linejoin="round"/>
<path d="M132.06 120.473C132.06 120.473 132.007 116.766 132.187 114.353C132.315 112.809 132.64 111.288 133.153 109.826C133.153 109.826 129.533 110.46 128.887 112.326C128.24 114.193 129.847 121.999 129.847 121.999L132.287 121.793L132.093 120.886L132.06 120.473Z" fill="#263238" stroke="#263238" stroke-linecap="round" stroke-linejoin="round"/>
<path d="M136.827 126C136.753 127.016 136.379 127.988 135.753 128.792C135.127 129.596 134.276 130.197 133.309 130.517C132.341 130.838 131.301 130.865 130.318 130.594C129.335 130.323 128.455 129.767 127.789 128.996C127.122 128.225 126.699 127.274 126.573 126.263C126.447 125.251 126.624 124.225 127.081 123.314C127.538 122.403 128.255 121.648 129.142 121.145C130.028 120.642 131.043 120.412 132.06 120.486C133.423 120.587 134.69 121.224 135.583 122.257C136.477 123.291 136.924 124.637 136.827 126Z" fill="#263238" stroke="#263238" stroke-linecap="round" stroke-linejoin="round"/>
<path d="M128.273 134.879L136.673 138.679L139.253 145.372L126.66 139.479L128.273 134.879Z" fill="white" stroke="#263238" stroke-linecap="round" stroke-linejoin="round"/>
<path d="M150.493 171.252L149.993 189.219" stroke="#263238" stroke-width="4" stroke-linecap="round" stroke-linejoin="round"/>
<path d="M118.273 146C118.273 146 110.94 148.28 110.847 149.807C110.753 151.333 115.887 184.127 116.94 185.48C117.993 186.833 124.34 187.293 124.34 187.293L127.853 177.587L125.893 176.427L124.78 151.333" fill="white"/>
<path d="M118.273 146C118.273 146 110.94 148.28 110.847 149.807C110.753 151.333 115.887 184.127 116.94 185.48C117.993 186.833 124.34 187.293 124.34 187.293L127.853 177.587L125.893 176.427L124.78 151.333" stroke="#263238" stroke-linecap="round" stroke-linejoin="round"/>
<path d="M129.74 178L144.407 179.58L147.32 176.34L153.773 177.067C154 177.26 154.179 177.503 154.294 177.777C154.41 178.052 154.46 178.349 154.44 178.647C154.356 179.308 154.039 179.917 153.547 180.366C153.547 180.366 152.64 184.133 152.087 184.726C151.533 185.32 143.867 185.393 143.867 185.393L125.867 187.28C125.867 187.28 127.073 182.9 127.813 181.553C128.553 180.206 129.74 178 129.74 178Z" fill="white" stroke="#263238" stroke-linecap="round" stroke-linejoin="round"/>
<path d="M125.833 175.547C125.833 175.547 123.033 178.92 122.78 180.687C122.527 182.454 122.067 188.687 122.707 188.727C123.347 188.767 125.6 189.314 126.127 189.1C126.653 188.887 127.52 183.967 127.52 183.967C127.52 183.967 131.133 178.1 130.78 177.694C130.427 177.287 125.833 175.547 125.833 175.547Z" fill="white" stroke="#263238" stroke-linecap="round" stroke-linejoin="round"/>
<path d="M114.94 145.206L126 148.666C126.338 148.772 126.694 148.805 127.046 148.763C127.397 148.722 127.736 148.607 128.04 148.426L131.44 146.426C131.476 145.922 131.343 145.42 131.061 145C130.78 144.579 130.367 144.265 129.887 144.106C127.06 143.173 121.533 141.439 120.227 141.439C118.427 141.446 114.667 142.133 114.94 145.206Z" fill="#828282" stroke="#263238" stroke-linecap="round" stroke-linejoin="round"/>
<path d="M127.82 147.106L141.8 151.5L157.433 146.52L149.087 144.146" stroke="#263238" stroke-width="2" stroke-linecap="round" stroke-linejoin="round"/>
<path d="M155.107 171.906L150.107 169.94L146.313 171.273L141.633 169.326L142.207 156.993L149.6 154.793L160.48 157.673L160.16 170.986L155.107 171.906Z" fill="#828282" stroke="#263238" stroke-linecap="round" stroke-linejoin="round"/>
<path d="M142.207 156.993L146.76 158.446L150.353 157.74L155.827 159.746L161.107 157.88L149.6 154.793L142.207 156.993Z" stroke="#263238" stroke-linecap="round" stroke-linejoin="round"/>
<path d="M146.313 171.274L146.76 158.447L150.353 157.74L150.107 169.94L146.313 171.274Z" fill="#263238" stroke="#263238" stroke-linecap="round" stroke-linejoin="round"/>
<path d="M157.36 157.619L165.167 155.119L164.247 169.999L157.347 173.159L157.36 157.619Z" fill="#828282" stroke="#263238" stroke-linecap="round" stroke-linejoin="round"/>
<path d="M157.627 154.892L167.18 151.732L165.167 155.119L157.913 157.646L157.627 154.892Z" fill="#263238" stroke="#263238" stroke-linecap="round" stroke-linejoin="round"/>
<path d="M167.18 151.732L166.753 173.072L164.247 169.999L165.167 155.119L167.18 151.732Z" fill="#263238" stroke="#263238" stroke-linecap="round" stroke-linejoin="round"/>
<path d="M155.093 174.32L164.247 170L166.753 173.073L157.1 177.68L155.093 174.32Z" fill="#263238" stroke="#263238" stroke-linecap="round" stroke-linejoin="round"/>
<path d="M154.46 158.686L154.133 174.246L157.1 177.679L157.627 154.893L154.46 158.686Z" fill="#263238" stroke="#263238" stroke-linecap="round" stroke-linejoin="round"/>
<path d="M163.194 164.62C163.456 160.999 162.523 157.981 161.109 157.878C159.696 157.776 158.336 160.628 158.074 164.249C157.811 167.869 158.744 170.888 160.158 170.99C161.572 171.093 162.931 168.241 163.194 164.62Z" fill="#263238" stroke="#263238" stroke-linecap="round" stroke-linejoin="round"/>
<path d="M151.18 148.48L151.253 156.36" stroke="#263238" stroke-width="2" stroke-linecap="round" stroke-linejoin="round"/>
<path d="M154.607 147.767L154.68 137.967" stroke="#263238" stroke-width="2" stroke-linecap="round" stroke-linejoin="round"/>
<path d="M156.287 129.08L156.053 143.374L166.047 140.72L166.74 126.787L156.287 129.08Z" fill="#828282" stroke="#263238" stroke-linecap="round" stroke-linejoin="round"/>
<path d="M156.287 129.08L154.767 130.1L151.033 130.627L151.02 137.38L154.607 138.927L156.053 143.373L156.287 129.08Z" fill="#263238" stroke="#263238" stroke-linecap="round" stroke-linejoin="round"/>
<path d="M93.0999 114.207C93.0999 114.207 88.8533 117.007 88.3066 118.874C87.7599 120.74 86.5199 124.3 87.4333 126.1C88.3466 127.9 89.8133 132.507 90.3466 133.267C90.8799 134.027 92.7066 137.634 92.7066 137.634L92.7599 141.567L106.22 142.96C106.22 142.96 107.913 141.46 108.287 140.027C108.66 138.594 109.62 135.3 109.62 135.3C109.62 135.3 111.573 134.254 111.62 133.527C111.667 132.8 110.387 129.814 110.387 129.814L111.873 126.847L111.98 125.107C111.98 125.107 115.313 125.16 114.647 122.06C113.98 118.96 109.647 115.647 104.647 113.6C99.6466 111.554 94.8866 113.587 93.0999 114.207Z" fill="white" stroke="#263238" stroke-linecap="round" stroke-linejoin="round"/>
<path d="M105.127 141.219L104.233 138.553L107.453 141.413C107.453 141.413 106.74 142.306 105.127 141.233" fill="#263238"/>
<path d="M105.127 141.219L104.233 138.553L107.453 141.413C107.453 141.413 106.74 142.306 105.127 141.233" stroke="#263238" stroke-linecap="round" stroke-linejoin="round"/>
<path d="M104.667 113.594C99.6933 111.547 94.9133 113.594 93.1267 114.207C93.1267 114.207 88.88 117.007 88.3333 118.874C87.7867 120.74 86.5467 124.3 87.46 126.1C88.3733 127.9 89.84 132.507 90.3733 133.267C90.9067 134.027 92.7333 137.634 92.7333 137.634V137.674C94.2867 137.247 97.8667 136.307 99.22 136.274C100.973 136.234 104.113 134.82 104.113 134.82C104.113 134.82 102.827 134.454 102.213 132.527C101.6 130.6 102.373 127.44 102.98 127.04C103.587 126.64 104.893 129.194 104.893 129.194L106.76 127.12C106.76 127.12 108.4 126.494 108.88 125.787C109.36 125.08 107.507 122.06 107.507 122.06L111.98 125.1C111.98 125.1 115.313 125.154 114.647 122.054C113.98 118.954 109.613 115.64 104.667 113.594Z" fill="#263238" stroke="#263238" stroke-linecap="round" stroke-linejoin="round"/>
<path d="M89.6 145.74C89.6 145.74 94.7733 144.447 98.0066 143.913C101.24 143.38 108.24 143.247 108.24 143.247C106.395 141.975 104.406 140.928 102.313 140.127C99.6 139.233 93.5933 139.887 92.0733 140.96C90.5533 142.033 89.6 145.74 89.6 145.74Z" fill="#4779A8" stroke="#263238" stroke-linecap="round" stroke-linejoin="round"/>
<path d="M81.7267 184.573C81.7267 184.573 82.3067 186.94 83.8667 187.62C85.4267 188.3 88.82 187.62 89.8667 185.066C90.9133 182.513 88.5333 180.906 88.5333 180.906L81.26 182.666L81.7267 184.573Z" fill="white" stroke="#263238" stroke-linecap="round" stroke-linejoin="round"/>
<path d="M79.3867 177.447C79.3867 177.447 78.1667 178.394 78.12 179.12C78.0734 179.847 79.66 185.034 80.38 185.08C81.1 185.127 84.38 185.9 86.38 185C87.6973 184.269 88.7742 183.172 89.48 181.84L88.6667 175.674L79.3867 177.447Z" fill="#4779A8" stroke="#263238" stroke-linecap="round" stroke-linejoin="round"/>
<path d="M83.5533 284.719L82.9467 289.919C83.6224 290.389 84.4029 290.687 85.22 290.786C86.3867 290.859 90.5 290.233 90.9333 290.259L94.7067 290.486C95.5733 290.539 95.8867 290.266 95.7733 289.673C95.66 289.079 91.92 285.946 91.92 285.946L91.18 283.719L84.0667 283.439L83.5533 284.719Z" fill="white" stroke="#263238" stroke-linecap="round" stroke-linejoin="round"/>
<path d="M126.473 285.267C126.473 285.267 125.56 290.747 126.24 291.513C126.92 292.28 128.68 292.093 129.693 292.18C130.707 292.267 135.987 291.68 137.027 291.747C138.067 291.813 143.427 291.84 144.8 290.9C146.173 289.96 145.047 289.167 143.467 288.64C141.887 288.113 136.613 286.333 135.627 285.833C134.751 285.352 133.907 284.815 133.1 284.227L126.473 285.267Z" fill="white" stroke="#263238" stroke-linecap="round" stroke-linejoin="round"/>
<path d="M89.1933 191.141C89.1933 191.141 88.18 203.021 88.9466 204.814C89.7133 206.607 89.76 217.967 89.66 219.561C89.56 221.154 90.1066 245.947 90.1066 245.947C90.1066 245.947 86.2066 264.787 85.72 268.101C85.2333 271.414 84.5133 280.847 84.5133 280.847C84.5133 280.847 88.5133 281.667 89.2666 281.714C90.1124 281.654 90.95 281.509 91.7666 281.281C91.7666 281.281 100 256.294 100.667 254.001C101.333 251.707 102.1 244.767 102.147 244.047C102.193 243.327 107.447 216.407 107.447 216.407L110.607 221.987L120.367 250.967L125.7 282.741L132.2 282.001C132.2 282.001 132.867 259.334 133.067 255.547C133.126 252.657 132.903 249.768 132.4 246.921C132.4 246.921 130.667 222.501 129 218.761C127.333 215.021 123.073 201.074 123.073 201.074L120.84 192.207C115.828 193.078 110.73 193.355 105.653 193.034C97.12 192.494 89.1933 191.141 89.1933 191.141Z" fill="#6B6B6B" stroke="#263238" stroke-linecap="round" stroke-linejoin="round"/>
<path d="M107.467 216.414L100.267 211.447L105.02 217.347L103.967 233.834L107.467 216.414Z" fill="#263238" stroke="#263238" stroke-linecap="round" stroke-linejoin="round"/>
<path d="M132.993 278.527C132.993 278.527 128.86 279.441 127.54 279.654L124.16 280.174L125.547 286.087C125.547 286.087 131.673 285.874 134.387 284.434L132.993 278.527Z" fill="#A6A6A6" stroke="#263238" stroke-linecap="round" stroke-linejoin="round"/>
<path d="M83.9001 278.914C83.9001 278.914 89.06 280.247 90.08 280.307L93.56 280.514L92.8934 284.694C91.2165 285.145 89.4898 285.385 87.7534 285.407C85.7534 285.287 82.9734 284.974 82.9734 284.974L83.9001 278.914Z" fill="#A6A6A6" stroke="#263238" stroke-linecap="round" stroke-linejoin="round"/>
<path d="M134.16 155.267L140.247 150.974L128.447 146.188C128.447 146.188 121.067 150.254 119.007 153.041C116.947 155.827 116.62 156.374 116.62 156.374L125.127 165.041C125.127 165.041 131.613 156.427 134.16 155.267Z" fill="white" stroke="#263238" stroke-linecap="round" stroke-linejoin="round"/>
<path d="M125.133 169.721L128.32 162.781C128.32 162.781 128.113 158.981 128.727 158.434C129.334 157.748 129.868 156.999 130.32 156.201C130.32 156.201 130.593 154.034 131.187 153.921C131.78 153.808 132.04 154.268 131.973 155.254C131.821 156.152 131.523 157.019 131.093 157.821L134.16 155.241C134.284 156.5 134.306 157.766 134.227 159.028C134.033 159.748 132 162.101 132 162.101C132 162.101 129.507 176.948 129.287 178.101C129.067 179.254 125.093 182.508 123.453 183.134C121.813 183.761 119.5 183.481 119.987 177.801L125.133 169.721Z" fill="white" stroke="#263238" stroke-linecap="round" stroke-linejoin="round"/>
<path d="M90.36 145.2C90.36 145.2 77.42 152.14 77.3333 153.734C77.2467 155.327 78.98 160.24 78.98 160.24C78.98 160.24 79.4933 173.52 79.5133 175.574C79.5333 177.627 79.0067 179.18 80.9333 181.047C82.86 182.914 85.1267 181.447 86.3333 180.787C87.0285 180.434 87.5781 179.849 87.8867 179.134C87.8867 179.134 89.3067 184.607 89.06 186.34C88.8133 188.074 87.7267 191.794 87.9467 192.68C88.1667 193.567 90.5667 195.167 99.28 195.4C107.993 195.634 116.467 195.274 119.28 194.567C122.093 193.86 122.727 192.887 122.787 191.867C122.847 190.847 121.193 182 121.193 182L120.58 180.067C120.58 180.067 125.62 178.627 126.38 178.067C127.14 177.507 127.787 174.067 127.407 173.034C127.027 172 126.513 170.94 126.513 170.94C126.513 170.94 123.733 154.32 123.64 153.44C123.547 152.56 124.627 149.134 123.86 147.34C123.093 145.547 108.087 143.34 106.813 142.674C105.54 142.007 94.2333 143.687 90.36 145.2Z" fill="#4779A8" stroke="#263238" stroke-linecap="round" stroke-linejoin="round"/>
<path d="M87.8734 179.12L83.16 163.113" stroke="#263238" stroke-linecap="round" stroke-linejoin="round"/>
<path d="M92.1266 190.734L107.093 181.594" stroke="#263238" stroke-linecap="round" stroke-linejoin="round"/>
<path d="M102.833 181.893L95.4934 188.026" stroke="#263238" stroke-linecap="round" stroke-linejoin="round"/>
<path d="M106.38 178.928L104.373 180.601" stroke="#263238" stroke-linecap="round" stroke-linejoin="round"/>
<path d="M120.58 180.074L118.687 155.934" stroke="#263238" stroke-linecap="round" stroke-linejoin="round"/>
<path d="M120.133 174.893C120.133 174.893 124.747 173.773 125.18 173.8C125.613 173.826 126.4 170.526 126.4 170.526C126.4 170.526 126.4 170.086 127.267 170.573C128.133 171.06 128.727 172.993 128.167 175C127.607 177.006 127.547 178.02 125.747 178.926C124.088 179.683 122.384 180.34 120.647 180.893L120.133 174.893Z" fill="#4779A8" stroke="#263238" stroke-linecap="round" stroke-linejoin="round"/>
<path d="M219.14 136.02L218.9 141.234L216.027 141.1L211.987 140.92L208.493 140.76L204.46 140.58L200.967 140.42L196.927 140.24L195.08 140.154L195.32 134.934L199.487 135.127L203.693 135.314L207.013 135.467L211.22 135.66L214.54 135.814L218.747 136L219.14 136.02Z" fill="#263238" stroke="#263238" stroke-linecap="round" stroke-linejoin="round"/>
<path d="M200.967 140.42L203.693 135.314L199.487 135.127L196.927 140.24" fill="white"/>
<path d="M200.967 140.42L203.693 135.314L199.487 135.127L196.927 140.24" stroke="#263238" stroke-linecap="round" stroke-linejoin="round"/>
<path d="M208.493 140.76L211.22 135.66L207.013 135.467L204.46 140.58" fill="white"/>
<path d="M208.493 140.76L211.22 135.66L207.013 135.467L204.46 140.58" stroke="#263238" stroke-linecap="round" stroke-linejoin="round"/>
<path d="M216.027 141.099L218.747 135.999L214.54 135.812L211.987 140.919" fill="white"/>
<path d="M216.027 141.099L218.747 135.999L214.54 135.812L211.987 140.919" stroke="#263238" stroke-linecap="round" stroke-linejoin="round"/>
<path d="M219.05 141.502L195.233 142.684L195.896 156.06L219.714 154.879L219.05 141.502Z" fill="#263238" stroke="#263238" stroke-linecap="round" stroke-linejoin="round"/>
<path d="M219.267 145.927L215.973 146.093L212.687 146.26L209.44 146.42L206.18 146.587L202.92 146.753L199.68 146.913L195.453 147.127L195.233 142.68L197.56 142.567L201.107 142.387L204.073 142.24L207.64 142.067L210.573 141.92L214.16 141.74L219.047 141.5L219.267 145.927Z" fill="#263238" stroke="#263238" stroke-linecap="round" stroke-linejoin="round"/>
<path d="M202.92 146.753L201.107 142.387L197.56 142.567L199.68 146.913" fill="white"/>
<path d="M202.92 146.753L201.107 142.387L197.56 142.567L199.68 146.913" stroke="#263238" stroke-linecap="round" stroke-linejoin="round"/>
<path d="M209.44 146.42L206.18 146.586L204.073 142.24L207.64 142.066L209.44 146.42Z" fill="white" stroke="#263238" stroke-linecap="round" stroke-linejoin="round"/>
<path d="M215.973 146.094L212.687 146.26L210.573 141.92L214.16 141.74L215.973 146.094Z" fill="white" stroke="#263238" stroke-linecap="round" stroke-linejoin="round"/>
<path d="M221.627 134.386C221.627 134.386 217.68 132.733 217.133 132.973C216.587 133.213 209.693 135.333 209.693 135.333L213.933 135.513C212.91 136.059 211.857 136.549 210.78 136.98C210.24 137.086 211.647 138.626 212.593 138.4C213.635 138.043 214.643 137.597 215.607 137.066L218.547 137.2C219.347 137.176 220.133 136.983 220.853 136.633L238.22 155.793L241.327 158.346L248.42 152.766L231.707 139.806L221.627 134.386Z" fill="white" stroke="#263238" stroke-linecap="round" stroke-linejoin="round"/>
<path d="M224.273 176.513C224.273 176.513 214.807 158.739 213.667 157.333C212.527 155.926 211.393 154.766 210.447 154.666C209.5 154.566 206.64 153.646 205.44 153.706C204.24 153.766 203.593 154.333 204.287 154.839C205.057 155.238 205.885 155.512 206.74 155.653L200.32 155.973C200.32 155.973 201.927 158.573 202.9 159.306C203.873 160.039 210.413 159.306 210.413 159.306C210.413 159.306 216.353 178.999 216.887 181.653C217.42 184.306 220.1 186.859 220.5 186.839C220.9 186.819 226.5 183.193 226.5 183.193L224.273 176.513Z" fill="white" stroke="#263238" stroke-linecap="round" stroke-linejoin="round"/>
<path d="M251.16 285.22C251.16 285.22 251.64 289.326 251.567 289.7C251.493 290.073 249.873 290.793 249.42 290.813C248.967 290.833 243.607 290.186 243.327 290.2C243.047 290.213 242.767 284.44 242.767 284.44L247.347 284.213C247.713 284.2 251.16 285.22 251.16 285.22Z" fill="white" stroke="#263238" stroke-linecap="round" stroke-linejoin="round"/>
<path d="M237.547 284.613C237.547 284.613 235.547 285.627 233.7 286.613C231.853 287.6 228.587 289.067 228.153 289.547C227.72 290.027 228.687 291.08 229.06 291.247C232.248 291.89 235.495 292.192 238.747 292.147C242.407 291.96 245.247 291.82 245.473 290.813C245.596 289.838 245.607 288.851 245.507 287.873C245.507 287.873 239.673 286.893 237.547 284.613Z" fill="white" stroke="#263238" stroke-linecap="round" stroke-linejoin="round"/>
<path d="M232.3 197.386C232.3 197.386 232.253 197.48 232.18 197.646C231.513 199.126 228.307 206.66 227.547 214.513C227.026 219.677 227.223 224.889 228.133 230L232.927 252.62C232.927 252.62 232.56 259.953 233.74 263.413C234.92 266.873 238.1 282.933 238.1 282.933C238.1 282.933 237.193 283.066 237.213 283.526C237.18 283.972 237.079 284.411 236.913 284.826C236.913 284.826 237.26 284.44 238.813 286.106C240.367 287.773 243.56 289.266 244.2 289.24L245.573 289.166V285.04C245.573 285.04 248.027 286.373 249.493 286.313C250.321 286.288 251.129 286.059 251.847 285.646C251.847 285.646 251.713 281.153 251.773 280.506C251.833 279.86 252.973 264.02 252.127 259.84C251.28 255.66 249.667 247.293 249.667 247.293C249.667 247.293 257.433 224.413 258.253 220.626C259.073 216.84 259.46 207.893 258.84 204.626C258.328 202.238 257.66 199.887 256.84 197.586L255.14 195.266C255.14 195.266 248.04 198.373 242.193 197.1C236.347 195.826 233.933 195.213 233.933 195.213L232.3 197.386Z" fill="#525252" stroke="#263238" stroke-linecap="round" stroke-linejoin="round"/>
<path d="M255.513 215.699L245.84 220.586C245.84 220.586 243.513 242.086 243.34 242.373C243.167 242.659 243.707 249.706 243.76 250.793C243.766 251.661 243.685 252.527 243.52 253.379C244.333 255.978 244.837 258.663 245.02 261.379C245.34 265.953 245.3 276.239 245.3 276.239L245.887 284.379" stroke="#263238" stroke-linecap="round" stroke-linejoin="round"/>
<path d="M242.127 157.919C242.127 157.919 233.747 161.959 233.653 162.766C233.56 163.572 225.253 174.586 225.253 174.586C225.253 174.586 225.467 178.866 226.233 180.839L227.46 183.999L233.707 180.066L234.727 189.806L232.173 197.846C232.173 197.846 235.453 201.712 240.013 201.752C244.573 201.792 251.087 200.532 252.92 199.639C254.753 198.746 256.84 197.566 256.84 197.566L254.507 188.426C254.507 188.426 261.88 172.099 262.16 166.986C262.44 161.872 260.873 154.579 259.773 153.959C259.294 153.668 258.787 153.425 258.26 153.232L242.127 157.919Z" fill="white" stroke="#263238" stroke-linecap="round" stroke-linejoin="round"/>
<path d="M227.033 172.621C227.033 172.621 226.16 176.687 227.207 178.781C228.253 180.874 229.473 183.901 229.473 183.901L225.94 185.687C225.94 185.687 223.693 183.687 223.553 180.841C223.413 177.994 223.413 175.347 223.413 175.347C223.413 175.347 225.92 171.874 227.033 172.621Z" fill="white" stroke="#263238" stroke-linecap="round" stroke-linejoin="round"/>
<path d="M233.707 180.067L240.12 176.934" stroke="#263238" stroke-linecap="round" stroke-linejoin="round"/>
<path d="M237.573 130.921C237.573 130.921 236.367 133.661 236.44 135.134C236.513 136.607 236.2 138.367 236.22 138.901C236.24 139.434 234.7 140.587 234.76 141.794C234.875 142.612 235.294 143.357 235.933 143.881C235.933 143.881 236.493 149.754 237.353 150.914C238.213 152.074 241.6 149.901 241.6 149.901L243.773 155.961L249.613 154.627C249.613 154.627 248.687 144.081 247.78 139.427C246.873 134.774 243.84 130.234 241.953 130.094C240.067 129.954 237.573 130.921 237.573 130.921Z" fill="white" stroke="#263238" stroke-linecap="round" stroke-linejoin="round"/>
<path d="M236.713 144.887C236.713 144.887 237.867 144.787 238.047 144.113" stroke="#263238" stroke-linecap="round" stroke-linejoin="round"/>
<path d="M237 136.78C237 136.78 237.58 135.913 238.333 137.553" stroke="#263238" stroke-linecap="round" stroke-linejoin="round"/>
<path d="M237.533 140.447C237.773 140.447 237.967 139.906 237.967 139.24C237.967 138.573 237.773 138.033 237.533 138.033C237.294 138.033 237.1 138.573 237.1 139.24C237.1 139.906 237.294 140.447 237.533 140.447Z" fill="#263238"/>
<path d="M248.467 153.18C248.467 153.18 240.427 155.993 239.913 156.56C239.4 157.127 239.52 159.393 239.52 159.393L250.887 156L249.8 152.967L248.467 153.18Z" fill="white" stroke="#263238" stroke-linecap="round" stroke-linejoin="round"/>
<path d="M238.78 125.493C238.78 125.493 236.253 126.027 236.413 129.233C236.573 132.44 238.56 134.627 239.7 136.047C240.84 137.467 244.84 139.547 244.84 139.547C244.84 139.547 245.027 145.973 244.76 148.807C244.493 151.64 241.427 154.2 241.427 154.2C243.895 155.652 246.716 156.394 249.58 156.347C252.948 156.091 256.255 155.299 259.373 154C260.42 153.547 261.28 151.893 261.28 151.893C261.28 151.893 259.947 146.593 259.913 146.06C259.88 145.527 259.347 142.727 259.347 142.727L258.313 138.06C259.079 137.152 259.537 136.026 259.624 134.841C259.71 133.657 259.419 132.476 258.793 131.467C256.6 127.82 252.313 125.213 246.793 124.28C241.273 123.347 238.78 125.493 238.78 125.493Z" fill="#263238" stroke="#263238" stroke-linecap="round" stroke-linejoin="round"/>
<path d="M256.06 135.906C256.564 137.316 256.862 138.791 256.947 140.286C257.041 141.546 256.969 142.812 256.733 144.053C256.733 144.053 259.84 144.566 261.113 143.166C262.387 141.766 261.253 137.793 259.567 136.266C257.88 134.74 256.107 134.16 256.06 135.906Z" fill="#263238" stroke="#263238" stroke-linecap="round" stroke-linejoin="round"/>
<path d="M362.287 281.399C363.444 282.143 364.515 283.012 365.48 283.992C366.547 285.206 371.893 288.599 372.2 290.119C372.507 291.639 371.587 291.946 371.587 291.946C371.587 291.946 370.253 292.559 367.173 292.099C364.093 291.639 358.933 288.859 358.787 288.252C358.64 287.646 357.413 287.186 357.413 287.186L357.26 288.099C356.35 287.805 355.481 287.398 354.673 286.886C354.157 286.386 353.788 285.754 353.607 285.059C353.607 285.059 355.127 282.012 355.127 281.552C355.127 281.092 362.287 281.399 362.287 281.399Z" fill="#263238" stroke="#263238" stroke-linecap="round" stroke-linejoin="round"/>
<path d="M316.913 285.458C316.913 285.458 315.24 288.792 314.327 290.332C313.413 291.872 310.993 293.072 309.453 293.532C307.913 293.992 305.953 293.985 305.653 292.618C305.353 291.252 306.567 288.658 308.393 286.832C309.747 285.584 311.288 284.556 312.96 283.785L316.913 285.458Z" fill="#263238" stroke="#263238" stroke-linecap="round" stroke-linejoin="round"/>
<path d="M363.807 184.271C363.807 184.271 365.48 201.318 365.48 201.931C365.48 202.545 366.7 222.025 366.547 229.791C366.393 237.558 363.333 252.931 363.333 252.931C363.333 252.931 363.48 269.678 363.48 271.051C363.48 272.425 364.093 282.165 364.093 282.165C364.093 282.165 358.307 282.925 357.24 282.925C356.173 282.925 352.98 281.398 352.98 281.398C352.98 281.398 351.76 267.245 351.76 264.198C351.76 261.151 352.067 245.471 352.067 245.471L349.327 219.471L348.107 211.405L344.3 212.618C344.3 212.618 336.08 236.525 334.253 239.871C332.427 243.218 328.92 261.745 326.92 265.551C324.92 269.358 322.547 275.998 322.547 275.998L321.487 285.891C321.487 285.891 318.44 285.891 317.373 286.045C316.307 286.198 311.893 283.911 311.893 283.911C311.893 283.911 313.893 275.385 314.173 272.951C314.453 270.518 317.827 247.578 318.287 245.445C318.747 243.311 320.573 239.051 320.573 238.291C320.573 237.531 328.033 201.625 328.033 201.625L333.967 186.551C333.967 186.551 340.973 188.225 346.753 188.225C352.533 188.225 363.807 184.271 363.807 184.271Z" fill="#525252" stroke="#263238" stroke-linecap="round" stroke-linejoin="round"/>
<path d="M322.547 276.025L323.767 265.672" stroke="#263238" stroke-linecap="round" stroke-linejoin="round"/>
<path d="M332.88 189.333L333.967 186.573C333.967 186.573 340.973 188.246 346.753 188.246C352.533 188.246 363.807 184.293 363.807 184.293C363.807 184.293 364.02 186.453 364.293 189.266C362.727 190.333 359.393 191.973 353.3 192.486C344.027 193.273 335.3 190.14 334.88 190.14C334.198 189.912 333.53 189.642 332.88 189.333Z" fill="#263238"/>
<path d="M361.533 191.813L361.267 187.113L359.833 187.24L360.094 192.08" fill="#525252"/>
<path d="M361.533 191.813L361.267 187.113L359.833 187.24L360.094 192.08" stroke="#263238" stroke-linecap="round" stroke-linejoin="round"/>
<path d="M341.673 192.993L342.067 188.286L340.887 187.893L340.233 193.119" fill="#525252"/>
<path d="M341.673 192.993L342.067 188.286L340.887 187.893L340.233 193.119" stroke="#263238" stroke-linecap="round" stroke-linejoin="round"/>
<path d="M349.277 192.904L353.456 192.818L353.402 190.206L349.223 190.292L349.277 192.904Z" fill="white" stroke="#263238" stroke-linecap="round" stroke-linejoin="round"/>
<path d="M348.28 139.152C348.28 139.152 351.427 140.979 352.24 142.912C353.054 144.846 358.24 157.526 359.04 160.772C359.84 164.019 363.1 174.772 363.3 177.726C363.5 180.679 364 186.352 364 186.352C361.187 188.46 357.851 189.758 354.354 190.106C348.267 190.819 338.827 189.092 338.827 189.092C338.827 189.092 338.114 168.079 337.814 165.139C337.514 162.199 333.854 143.419 333.854 143.419C333.854 143.419 336.794 140.579 339.64 140.172C342.487 139.766 348.28 139.152 348.28 139.152Z" fill="white" stroke="#263238" stroke-linecap="round" stroke-linejoin="round"/>
<path d="M338.84 146.819C338.84 146.819 343.713 168.585 343.713 172.092C343.713 175.599 334.427 207.719 334.427 207.719C334.427 207.719 324.373 206.345 322.547 205.432C320.72 204.519 315.7 200.712 315.7 200.712C315.7 200.712 326.967 173.305 327.12 172.712C327.273 172.119 324.073 161.752 324.073 161.752C324.073 161.752 317.68 162.512 315.24 162.359C313.325 162.151 311.436 161.742 309.607 161.139C309.607 161.139 309.913 154.472 309.307 152.919C308.7 151.365 307.173 148.659 307.173 148.659C307.173 148.659 314.327 149.112 315.087 149.419C315.847 149.725 320.42 147.899 320.42 147.899C320.42 147.899 321.027 144.245 322.093 143.332C323.16 142.419 334 141.639 334 141.639C334 141.639 338.38 143.165 338.84 146.819Z" fill="#4779A8" stroke="#263238" stroke-linecap="round" stroke-linejoin="round"/>
<path d="M333.967 141.639L334.433 149.425L337.887 151.859L335.653 153.892L342.76 171.145" fill="#4779A8"/>
<path d="M333.967 141.639L334.433 149.425L337.887 151.859L335.653 153.892L342.76 171.145" stroke="#263238" stroke-linecap="round" stroke-linejoin="round"/>
<path d="M376 200.107L372.347 202.847L371.74 208.18H372.5C372.5 208.18 372.5 210.18 372.953 210.313C373.507 210.422 374.07 210.473 374.633 210.467L376 209.7H379.2C379.807 209.7 380.413 204.68 380.413 203.033V199.527L376.607 198.92L376 200.107Z" fill="white" stroke="#263238" stroke-linecap="round" stroke-linejoin="round"/>
<path d="M380.553 194.625L380.86 200.405L375.987 200.105L375.68 196.298L380.553 194.625Z" fill="white" stroke="#263238" stroke-linecap="round" stroke-linejoin="round"/>
<path d="M348.887 138.898L352.22 142.898L357.553 161.565L366.08 192.165L365.927 172.678L371.1 176.332L374 197.212L381.333 196.752L380.727 172.852L368.527 148.798C368.527 148.798 367.767 140.878 366.853 140.725C365.94 140.572 353.3 140.425 353.3 140.425L348.887 138.898Z" fill="#4779A8" stroke="#263238" stroke-linecap="round" stroke-linejoin="round"/>
<path d="M353.927 141.307L358.187 147.6L355.753 150.44L360.62 153.287L360.42 167.693" fill="#4779A8"/>
<path d="M353.927 141.307L358.187 147.6L355.753 150.44L360.62 153.287L360.42 167.693" stroke="#263238" stroke-linecap="round" stroke-linejoin="round"/>
<path d="M362.133 177.266C362.133 177.266 363.807 194.012 363.807 196.146C363.961 198.386 364.266 200.613 364.72 202.812C366.121 202.333 367.545 201.926 368.987 201.592C370.047 201.439 371.42 199.919 371.42 199.919C371.42 199.919 365.787 188.192 365.027 186.366C364.267 184.539 362.133 177.266 362.133 177.266Z" fill="#4779A8" stroke="#263238" stroke-linecap="round" stroke-linejoin="round"/>
<path d="M350.553 148.853L349.887 153.973L358.553 168.053C361.22 172.386 368.553 177.906 368.553 177.906L369 187.06L361.667 182.14C359.83 180.498 358.155 178.683 356.667 176.72C354.893 174.16 348.9 157.42 348.787 156.72C348.673 156.02 348.233 154.053 348.233 154.053L344.793 152.38L344.127 149.326L346.793 147.326L350.553 148.853Z" fill="#263238"/>
<path d="M348.2 138.599C348.2 138.599 351.093 141.033 351.627 142.479C352.16 143.926 354.213 149.939 354.293 150.479C354.33 150.762 354.381 151.042 354.447 151.319L347.593 148.806L345.767 150.253L343.407 155.959C343.407 155.959 340.593 153.066 340.133 152.153C339.456 150.151 338.965 148.091 338.667 145.999C338.667 145.333 343.08 139.759 344.667 138.313C346.253 136.866 348.2 138.599 348.2 138.599Z" fill="white" stroke="#263238" stroke-linecap="round" stroke-linejoin="round"/>
<path d="M347.9 137.833C348.337 139.378 348.643 140.957 348.813 142.553C348.749 144.724 348.526 146.888 348.147 149.026C347.92 149.56 347.613 151.026 347.08 151.026C346.547 151.026 340.76 147.693 340.307 147.066C339.853 146.44 347.233 136.793 347.233 136.793L347.9 137.833Z" fill="white" stroke="#263238" stroke-linecap="round" stroke-linejoin="round"/>
<path d="M347.473 138.986L344.58 149.393L341.147 147.679L346.08 138.133L347.473 138.986Z" fill="#263238" stroke="#263238" stroke-linecap="round" stroke-linejoin="round"/>
<path d="M331.914 138.219C331.914 138.219 330.394 136.886 329.707 136.392C329.02 135.899 327.88 131.726 327.88 131.726V134.926C327.053 133.845 326.315 132.699 325.674 131.499C325.14 130.279 326.28 126.399 326.587 125.559C326.894 124.719 327.5 121.372 328.64 120.306C329.78 119.239 334.807 116.346 337.014 116.346C339.22 116.346 346.3 118.252 347.367 119.092C348.434 119.932 352.24 125.639 352.24 126.852C352.24 128.066 352.467 131.119 352.847 131.726C353.227 132.332 354.6 133.399 354.214 134.539C353.908 135.343 353.471 136.091 352.92 136.752L352.387 135.912C351.859 136.625 351.275 137.293 350.64 137.912C350.121 138.345 349.527 138.68 348.887 138.899C348.081 139.022 347.268 139.1 346.454 139.132L346.754 136.312C346.754 136.312 337.167 129.332 336.934 129.232C336.7 129.132 332.22 134.332 332.22 134.332L331.914 138.219Z" fill="#263238" stroke="#263238" stroke-linecap="round" stroke-linejoin="round"/>
<path d="M347.953 133.793C347.953 133.793 348.62 131.213 349.887 131.693C351.153 132.173 351.34 135.399 350.213 136.693C349.508 137.481 348.623 138.087 347.633 138.459C347.633 138.459 343.633 146.519 342.48 147.159C341.327 147.799 338.287 148.453 337.647 148.126C337.007 147.799 333.133 144.426 333.133 144.426L330.393 133.333L336.033 126.666L346.667 131.333L347.953 133.793Z" fill="white" stroke="#263238" stroke-linecap="round" stroke-linejoin="round"/>
<path d="M335.033 134.486L335.64 140.12L338.533 139.666" stroke="#263238" stroke-linecap="round" stroke-linejoin="round"/>
<path d="M335.72 142.552L340.36 141.719L341.96 142.172" stroke="#263238" stroke-linecap="round" stroke-linejoin="round"/>
<path d="M340.133 143.238L336.48 143.925" stroke="#263238" stroke-linecap="round" stroke-linejoin="round"/>
<path d="M336.933 134.179L338.153 137.226L341.947 136.879C342.297 136.846 342.631 136.718 342.914 136.508C343.197 136.299 343.418 136.017 343.553 135.692C343.853 134.959 344.22 134.086 344.22 133.879C344.293 133.499 343.987 132.812 343.76 132.812C343.533 132.812 336.833 133.799 336.833 133.799L336.933 134.179Z" fill="#263238" stroke="#263238" stroke-linecap="round" stroke-linejoin="round"/>
<path d="M336.86 133.799L334.807 134.179L335.033 137.512L331.307 138.046L329.86 136.046C329.86 136.046 329.86 134.905 330.16 134.905C330.46 134.905 334.12 134.239 334.12 134.239L336.86 133.799Z" fill="#263238" stroke="#263238" stroke-linecap="round" stroke-linejoin="round"/>
<path d="M343.787 132.812L348.587 132.125" stroke="#263238" stroke-linecap="round" stroke-linejoin="round"/>
<path d="M343.48 131.898H341.047C340.82 131.898 337.713 133.418 337.713 133.418" stroke="#263238" stroke-linecap="round" stroke-linejoin="round"/>
<path d="M334.807 134.179C333.759 133.511 332.548 133.145 331.307 133.119" stroke="#263238" stroke-linecap="round" stroke-linejoin="round"/>
<path d="M365.94 172.699L365.333 149.865L367.847 173.559L365.94 172.699Z" fill="#263238"/>
<path d="M323.92 148.039C323.92 148.039 329.553 154.706 330.16 158.386C330.767 162.066 331.38 164.632 331.38 164.632" stroke="#263238" stroke-linecap="round" stroke-linejoin="round"/>
<path d="M320.42 147.885C320.42 147.885 324.227 149.405 325.287 151.691" stroke="#263238" stroke-linecap="round" stroke-linejoin="round"/>
<path d="M328.793 160.52L324.073 161.74" stroke="#263238" stroke-linecap="round" stroke-linejoin="round"/>
<path d="M315.7 149.865C317.491 150.948 318.92 152.537 319.807 154.432" stroke="#263238" stroke-linecap="round" stroke-linejoin="round"/>
<path d="M308.54 148.953L301.047 148.18C301.047 148.18 303.827 151.993 303.827 153.82C303.827 155.646 301.047 156.673 301.047 156.673L310.52 159.606C310.991 158.023 311.249 156.384 311.287 154.733C311.287 152.3 308.54 148.953 308.54 148.953Z" fill="white" stroke="#263238" stroke-linecap="round" stroke-linejoin="round"/>
<path d="M301.453 149.007C301.453 149.007 299.813 145.307 299.4 144.073C298.987 142.84 293.647 142.84 292.273 142.84C290.9 142.84 290.493 145.027 290.493 146.673C290.493 148.32 291.313 154.487 293.78 155.033C295.956 155.434 298.153 155.708 300.36 155.853L304.887 156.867C304.887 156.867 305.653 153.533 305.347 151.993C305.04 150.453 301.453 149.007 301.453 149.007Z" fill="white" stroke="#263238" stroke-linecap="round" stroke-linejoin="round"/>
<path d="M297.753 139.547L297.207 144.62L298.987 151.607L295.153 152.567L292.413 144.207L283.92 142.973L283.78 136.807L297.753 139.547Z" fill="#525252" stroke="#263238" stroke-linecap="round" stroke-linejoin="round"/>
<path d="M283.92 142.973L281.727 143.113L280.767 137.493L283.78 136.807L283.92 142.973Z" fill="#263238" stroke="#263238" stroke-linecap="round" stroke-linejoin="round"/>
<path d="M283.333 139.093C283.333 139.899 282.987 140.559 282.567 140.559C282.147 140.559 281.8 139.893 281.8 139.093C281.8 138.293 282.14 137.633 282.567 137.633C282.993 137.633 283.333 138.286 283.333 139.093Z" fill="white"/>
<path d="M294.333 139.959L290.493 139.272L290.047 138.039L295.06 139.019L294.333 139.959Z" fill="#263238" stroke="#263238" stroke-linecap="round" stroke-linejoin="round"/>
<path d="M290.22 144.48C290.22 144.48 293.647 144.073 293.78 144.893C293.913 145.713 294.193 146.54 293.78 146.54C293.367 146.54 290.493 146.673 290.493 146.673L290.22 144.48Z" fill="white" stroke="#263238" stroke-linecap="round" stroke-linejoin="round"/>
<path d="M290.36 143.933L290.493 146.673H293.233L293.373 147.906L288.847 147.493L288.3 143.793L290.36 143.933Z" fill="#263238" stroke="#263238" stroke-linecap="round" stroke-linejoin="round"/>
<path d="M288.853 147.492C288.853 147.492 288.3 147.219 288.187 147.772C288.073 148.325 288.733 149.959 288.733 149.959L294.213 150.512C294.213 150.512 296.54 149.139 296.54 148.725C296.397 148.192 296.172 147.683 295.873 147.219L293.407 147.885L288.853 147.492Z" fill="white" stroke="#263238" stroke-linecap="round" stroke-linejoin="round"/>
<path d="M288.713 149.959C288.787 150.459 288.834 150.962 288.853 151.466C288.853 152.019 290.907 152.566 290.907 152.566C290.907 152.566 294.74 152.979 295.153 152.566C295.567 152.153 296.8 151.059 296.8 150.513C296.8 149.966 295.973 149.279 295.973 149.279L294.193 150.513L288.713 149.959Z" fill="white" stroke="#263238" stroke-linecap="round" stroke-linejoin="round"/>
<path d="M289.4 152.151L290.733 154.071C290.733 154.071 294.027 154.485 294.573 154.485C295.12 154.485 296.9 152.838 296.9 152.838L296.627 151.191L295.12 152.565H290.873L289.4 152.151Z" fill="white" stroke="#263238" stroke-linecap="round" stroke-linejoin="round"/>
<path d="M300.907 148.725C300.907 148.725 300.773 144.478 300.773 143.518C300.773 142.558 300.22 141.465 299.673 141.465C299.127 141.465 295.567 141.738 295.153 142.012C294.74 142.285 294.487 145.852 294.487 145.852L295.86 147.218L297.227 145.305L298.46 149.685" fill="white"/>
<path d="M300.907 148.725C300.907 148.725 300.773 144.478 300.773 143.518C300.773 142.558 300.22 141.465 299.673 141.465C299.127 141.465 295.567 141.738 295.153 142.012C294.74 142.285 294.487 145.852 294.487 145.852L295.86 147.218L297.227 145.305L298.46 149.685" stroke="#263238" stroke-linecap="round" stroke-linejoin="round"/>
<path d="M297.207 145.305L298.58 143.658" stroke="#263238" stroke-linecap="round" stroke-linejoin="round"/>
</svg>
