<svg width="500" height="500" viewBox="0 0 500 500" fill="none" xmlns="http://www.w3.org/2000/svg">
<path d="M335.81 76.3008C299.81 70.7508 262.66 76.8008 234.9 99.3008C207.9 121.191 195.65 157.831 167.49 178.181C124 209.671 62.2299 199.211 36.9999 255.741C27.9999 275.921 25.6799 298.471 25.9999 320.561C26.3699 348.231 30.8799 376.231 42.8299 401.181C54.7799 426.131 74.6799 447.901 100.14 458.721C137.72 474.721 181.27 465.151 218.99 449.541C234.55 443.111 250.17 435.541 266.99 434.681C288.17 433.571 308.22 443.121 328.34 449.831C352.48 457.901 379.22 461.961 403.19 453.381C421.95 446.671 437.37 432.761 449.74 417.141C471.841 389.12 485.43 355.341 488.89 319.821C498.48 219.181 446.55 93.3508 335.81 76.3008Z" fill="#4779A8"/>
<path opacity="0.7" d="M335.81 76.3008C299.81 70.7508 262.66 76.8008 234.9 99.3008C207.9 121.191 195.65 157.831 167.49 178.181C124 209.671 62.2299 199.211 36.9999 255.741C27.9999 275.921 25.6799 298.471 25.9999 320.561C26.3699 348.231 30.8799 376.231 42.8299 401.181C54.7799 426.131 74.6799 447.901 100.14 458.721C137.72 474.721 181.27 465.151 218.99 449.541C234.55 443.111 250.17 435.541 266.99 434.681C288.17 433.571 308.22 443.121 328.34 449.831C352.48 457.901 379.22 461.961 403.19 453.381C421.95 446.671 437.37 432.761 449.74 417.141C471.841 389.12 485.43 355.341 488.89 319.821C498.48 219.181 446.55 93.3508 335.81 76.3008Z" fill="white"/>
<path d="M284.05 234.34C278.39 236.42 264.92 235.34 264.91 235.34C264.9 235.34 268.34 226.68 268.63 226.16C271.96 220.16 281.94 210.49 289.49 211.98C294.94 213.05 297.66 218.73 296.11 223.82C294.56 228.91 288.87 232.57 284.05 234.34Z" fill="#4779A8"/>
<path d="M110.11 177.77C117.8 177.41 126.25 188.43 128.67 194.86C128.87 195.42 131.14 204.5 131 204.49H130.83C132.18 206.22 133.61 208.09 135.12 210.17C137.89 214.02 140.98 218.4 144.02 223.39C147.364 228.73 150.389 234.263 153.08 239.96C156.13 246.32 158.607 252.939 160.48 259.74L160.54 259.99C160.63 257.74 161.11 251.45 161.2 250.99C162.5 244.24 168.96 231.99 176.6 230.99C182.11 230.31 186.46 234.85 186.6 240.17C186.74 245.49 182.47 250.78 178.44 253.97C173.9 257.56 161.7 260.56 160.73 260.8C162.467 267.767 163.737 274.843 164.53 281.98C165.02 286.14 165.38 290.34 165.68 294.56C165.83 292.56 165.97 290.87 166.02 290.63C167.31 283.88 173.78 271.63 181.42 270.63C186.93 269.95 191.28 274.5 191.42 279.82C191.56 285.14 187.29 290.42 183.27 293.61C179.25 296.8 168.84 299.61 166.09 300.31C166.19 301.93 166.31 303.54 166.4 305.16C166.86 312.93 167.28 320.69 167.93 328.28C168.16 330.95 168.48 333.58 168.79 336.21C168.92 334.48 169.05 333.03 169.09 332.81C170.38 326.06 176.85 313.81 184.49 312.81C189.99 312.13 194.35 316.67 194.49 321.99C194.63 327.31 190.36 332.6 186.33 335.79C182.3 338.98 172.91 341.52 169.65 342.36C170.05 345.04 170.45 347.73 170.96 350.31C171.34 352.07 171.6 353.78 172.08 355.53C172.56 357.28 172.97 358.98 173.41 360.68C174.41 363.92 175.35 367.27 176.36 370.41C177.06 372.6 177.76 374.67 178.46 376.76C178.2 374.1 177.81 368.88 177.82 368.44C178.272 362.41 180.258 356.596 183.59 351.55C183.613 350.877 183.697 350.208 183.84 349.55C185 344.35 190.16 340.75 195.43 342.5C202.74 344.93 206.66 358.25 206.6 365.12C206.6 365.53 206.06 369.92 205.68 372.69C206.16 371.1 206.59 369.55 207.1 367.91C208.1 364.67 209.1 361.47 210.28 358.02L212.13 353.02C212.71 351.34 213.53 349.65 214.24 347.94C215.95 344.01 217.87 340.11 219.9 336.23C217.06 335.37 207.05 332.16 203.15 328.78C199.25 325.4 195.27 320.05 195.63 314.63C195.99 309.21 200.55 304.98 206.02 305.91C213.61 307.2 219.51 319.77 220.49 326.57C220.55 327 220.7 331.96 220.74 334.69C221.97 332.36 223.19 330.04 224.52 327.69C228.35 321.01 232.43 314.38 236.52 307.74C237.76 305.74 238.97 303.67 240.19 301.64C239.19 301.34 227.19 297.79 222.83 294C218.95 290.63 214.94 285.27 215.31 279.85C215.68 274.43 220.22 270.2 225.69 271.13C233.28 272.42 239.18 284.99 240.16 291.79C240.24 292.31 240.45 299.45 240.41 301.26C243.1 296.78 245.73 292.26 248.15 287.74C251.449 281.628 254.345 275.308 256.82 268.82C256.35 268.68 243.82 265.03 239.35 261.15C235.47 257.79 231.47 252.42 231.83 247C232.19 241.58 236.75 237.35 242.22 238.28C249.81 239.57 255.7 252.14 256.69 258.95C256.76 259.48 256.99 267.16 256.93 268.56C257.07 268.18 257.26 267.81 257.4 267.43C259.701 260.854 261.414 254.088 262.52 247.21C263.18 243.42 263.59 239.76 263.92 236.21C261.52 235.77 250.56 233.63 246.15 230.58C241.92 227.66 237.35 222.77 237.15 217.34C236.95 211.91 240.98 207.21 246.51 207.53C254.2 207.98 261.44 219.83 263.16 226.53C263.26 226.89 263.8 230.67 264.16 233.44C264.28 231.82 264.44 230.16 264.53 228.61C264.87 222.8 264.82 217.46 264.74 212.72C264.67 210.03 264.56 207.6 264.43 205.33C262.3 203.66 253.79 196.85 251.32 192.21C248.85 187.57 247.12 181.21 249.41 176.29C251.7 171.37 257.48 169.07 262.24 171.9C268.86 175.9 269.83 189.7 268.29 196.4C268.15 196.98 265.04 205.79 264.92 205.71L264.79 205.61C264.96 207.79 265.12 210.14 265.24 212.71C265.42 217.45 265.59 222.8 265.37 228.64C265.208 234.938 264.68 241.222 263.79 247.46C262.82 254.45 261.231 261.341 259.04 268.05C259.016 268.129 258.986 268.205 258.95 268.28C260.27 266.46 264.15 261.47 264.49 261.12C269.29 256.21 281.49 249.52 288.35 252.95C293.35 255.43 294.45 261.62 291.6 266.12C288.75 270.62 282.31 272.69 277.19 273.12C271.42 273.61 259.59 269.39 258.65 269.05C256.211 275.829 253.321 282.437 250 288.83C248.12 292.56 246.1 296.26 244 299.95C245.19 298.41 246.28 297.04 246.45 296.86C251.25 291.94 263.45 285.26 270.31 288.69C275.31 291.16 276.4 297.35 273.57 301.86C270.74 306.37 264.27 308.43 259.15 308.86C254.03 309.29 243.8 305.91 241.15 304.97C240.34 306.38 239.55 307.79 238.73 309.2C234.83 315.93 230.9 322.63 227.25 329.32C225.97 331.67 224.79 334.04 223.59 336.41C224.66 335.04 225.59 333.9 225.72 333.73C230.52 328.82 242.72 322.13 249.59 325.56C254.59 328.04 255.68 334.23 252.84 338.73C250 343.23 243.54 345.3 238.43 345.73C233.43 346.15 224.07 343.1 220.88 342.01C219.74 344.47 218.59 346.93 217.59 349.36C216.94 351.04 216.2 352.61 215.65 354.36C215.1 356.11 214.49 357.73 213.92 359.36C212.92 362.6 211.92 365.93 211.01 369.11C210.38 371.32 209.82 373.44 209.25 375.57C210.5 373.2 213.06 368.63 213.31 368.28C217.31 362.69 228.31 354.28 235.67 356.58C240.95 358.28 243 364.22 240.87 369.1C238.74 373.98 232.68 377.01 227.69 378.21C222.19 379.53 210.33 377.31 208.85 377.02C207.92 380.55 207.05 384.02 206.28 387.24C206.11 387.94 205.97 388.57 205.81 389.24H201C201.26 388.24 201.52 387.18 201.8 386.12C202.73 382.53 203.8 378.72 204.93 374.82C201.423 373.155 198.014 371.292 194.72 369.24C190.53 373.24 180.15 377.64 178.81 378.24C179.98 381.69 181.15 385.04 182.3 388.18L182.71 389.28H177.9C176.74 385.89 175.58 382.28 174.42 378.55C172.95 378.76 160.98 380.45 155.54 378.88C150.61 377.45 144.72 374.25 142.78 369.17C140.84 364.09 143.21 358.35 148.56 356.91C155.99 354.91 166.61 363.84 170.36 369.61C170.58 369.95 172.56 373.91 173.77 376.43C173.28 374.84 172.77 373.3 172.31 371.66C171.31 368.42 170.47 365.16 169.52 361.66C169.11 359.95 168.71 358.22 168.3 356.48C167.89 354.74 167.61 352.89 167.25 351.07C166.51 346.85 165.97 342.54 165.51 338.19C162.68 339.03 152.51 341.88 147.44 341.19C142.37 340.5 136.05 338.26 133.36 333.53C130.67 328.8 132.14 322.77 137.21 320.53C144.21 317.42 156.11 324.65 160.68 329.79C160.97 330.11 163.83 334.16 165.36 336.42C165.11 333.8 164.85 331.18 164.68 328.52C164.19 320.85 163.94 313.06 163.68 305.29C163.6 302.91 163.48 300.54 163.38 298.17C162.38 298.48 150.38 302.17 144.68 301.38C139.59 300.72 133.29 298.45 130.6 293.72C127.91 288.99 129.38 282.96 134.45 280.72C141.5 277.61 153.35 284.84 157.92 289.98C158.27 290.37 162.38 296.2 163.36 297.74C163.12 292.51 162.84 287.31 162.36 282.19C161.741 275.273 160.669 268.405 159.15 261.63C158.69 261.78 146.22 265.63 140.35 264.87C135.26 264.2 128.96 261.94 126.28 257.21C123.6 252.48 125.05 246.45 130.13 244.21C137.13 241.1 149.02 248.33 153.6 253.47C153.95 253.87 158.38 260.15 159.1 261.35C159.01 260.96 158.96 260.54 158.86 260.15C157.159 253.394 154.856 246.804 151.98 240.46C150.44 236.94 148.77 233.65 147.07 230.46C144.82 231.46 134.5 235.69 129.15 235.58C124.01 235.47 117.5 233.91 114.31 229.51C111.12 225.11 111.92 218.95 116.71 216.17C123.37 212.3 135.95 218.17 141.06 222.79C141.33 223.04 143.88 225.9 145.7 228C144.91 226.59 144.12 225.12 143.34 223.78C140.42 218.78 137.43 214.31 134.76 210.41C133.22 208.2 131.76 206.24 130.41 204.41C127.72 204.2 116.87 203.21 112.24 200.7C107.61 198.19 102.68 193.85 101.87 188.48C101.06 183.11 104.57 178 110.11 177.77Z" fill="#4779A8"/>
<path d="M147.43 229.08C147.31 229.15 145.52 219.97 145.43 219.38C144.89 212.52 147.89 198.96 155.01 196.04C160.14 193.93 165.54 197.16 167.01 202.26C168.48 207.36 165.83 213.59 162.79 217.72C159.29 222.58 147.44 229.07 147.43 229.08Z" fill="#4779A8"/>
<path d="M143.17 372.521C143.17 372.521 112.85 372.141 105.76 360.801H26.5601C26.5601 360.801 33.0001 372.421 43.0001 372.521H143.17Z" fill="white" stroke="#263238" stroke-miterlimit="10"/>
<path d="M103.46 364.541H38.9401C38.9401 364.541 40.1401 367.161 36.8501 368.601C38.9241 370.517 41.5271 371.765 44.3201 372.181H126.46C126.46 372.181 116 371.181 110.33 367.881C110.33 367.881 103.76 368.841 103.46 364.541Z" fill="white" stroke="#263238" stroke-miterlimit="10"/>
<path d="M131.21 463.17H313.23V440.65H131.21V463.17Z" fill="#263238" stroke="#263238" stroke-miterlimit="10"/>
<path d="M31.0401 463.17H213.06V440.65H31.0401V463.17Z" fill="white" stroke="#263238" stroke-miterlimit="10"/>
<path d="M211.8 446.66H167.35" stroke="#263238" stroke-miterlimit="10"/>
<path d="M203.03 451.67H138.55" stroke="#263238" stroke-miterlimit="10"/>
<path d="M177.36 456.17H188.63" stroke="#263238" stroke-miterlimit="10"/>
<path d="M193.02 456.17H211.17" stroke="#263238" stroke-miterlimit="10"/>
<path d="M32.1099 455.17H89.0799" stroke="#263238" stroke-miterlimit="10"/>
<path d="M37.1201 452.17H44.6301" stroke="#263238" stroke-miterlimit="10"/>
<path d="M79.6899 451.67H54.6499" stroke="#263238" stroke-miterlimit="10"/>
<path d="M32.1099 445.66H54.0199" stroke="#263238" stroke-miterlimit="10"/>
<path d="M310.72 450.16H299.45" stroke="#8A8A8A" stroke-miterlimit="10"/>
<path d="M313.23 455.17H278.17" stroke="#8A8A8A" stroke-miterlimit="10"/>
<path d="M214.93 458.17H231.84" stroke="#8A8A8A" stroke-miterlimit="10"/>
<path d="M213.05 450.16H258.76" stroke="#8A8A8A" stroke-miterlimit="10"/>
<path d="M298.2 443.66H271.91" stroke="#8A8A8A" stroke-miterlimit="10"/>
<path d="M114.12 462.67H135.41V440.65H114.12V462.67Z" fill="white" stroke="#263238" stroke-miterlimit="10"/>
<path d="M128.87 440.471H310.89V417.951H128.87V440.471Z" fill="#263238" stroke="#263238" stroke-miterlimit="10"/>
<path d="M28.7002 440.471H210.72V417.951H28.7002V440.471Z" fill="white" stroke="#263238" stroke-miterlimit="10"/>
<path d="M209.46 423.951H165.01" stroke="#263238" stroke-miterlimit="10"/>
<path d="M200.7 428.951H136.21" stroke="#263238" stroke-miterlimit="10"/>
<path d="M175.03 433.461H186.3" stroke="#263238" stroke-miterlimit="10"/>
<path d="M190.68 433.461H208.84" stroke="#263238" stroke-miterlimit="10"/>
<path d="M29.77 432.461H86.75" stroke="#263238" stroke-miterlimit="10"/>
<path d="M34.7803 429.451H42.2903" stroke="#263238" stroke-miterlimit="10"/>
<path d="M77.3601 428.951H52.3101" stroke="#263238" stroke-miterlimit="10"/>
<path d="M29.77 422.951H51.69" stroke="#263238" stroke-miterlimit="10"/>
<path d="M308.39 427.451H297.12" stroke="#8A8A8A" stroke-miterlimit="10"/>
<path d="M310.89 432.461H275.83" stroke="#8A8A8A" stroke-miterlimit="10"/>
<path d="M212.6 435.461H229.5" stroke="#8A8A8A" stroke-miterlimit="10"/>
<path d="M210.72 427.451H256.42" stroke="#8A8A8A" stroke-miterlimit="10"/>
<path d="M295.87 420.951H269.57" stroke="#8A8A8A" stroke-miterlimit="10"/>
<path d="M111.79 439.971H133.08V417.951H111.79V439.971Z" fill="white" stroke="#263238" stroke-miterlimit="10"/>
<path d="M136.27 417.762H318.29V395.242H136.27V417.762Z" fill="#263238" stroke="#263238" stroke-miterlimit="10"/>
<path d="M36.1001 417.762H218.12V395.242H36.1001V417.762Z" fill="white" stroke="#263238" stroke-miterlimit="10"/>
<path d="M216.86 401.24H172.41" stroke="#263238" stroke-miterlimit="10"/>
<path d="M208.09 406.24H143.61" stroke="#263238" stroke-miterlimit="10"/>
<path d="M182.42 410.75H193.69" stroke="#263238" stroke-miterlimit="10"/>
<path d="M198.08 410.75H216.23" stroke="#263238" stroke-miterlimit="10"/>
<path d="M37.1699 409.75H94.1399" stroke="#263238" stroke-miterlimit="10"/>
<path d="M42.1802 406.74H49.6902" stroke="#263238" stroke-miterlimit="10"/>
<path d="M84.75 406.24H59.71" stroke="#263238" stroke-miterlimit="10"/>
<path d="M37.1699 400.24H59.0799" stroke="#263238" stroke-miterlimit="10"/>
<path d="M315.78 404.74H304.51" stroke="#8A8A8A" stroke-miterlimit="10"/>
<path d="M318.29 409.75H283.23" stroke="#8A8A8A" stroke-miterlimit="10"/>
<path d="M219.99 412.75H236.9" stroke="#8A8A8A" stroke-miterlimit="10"/>
<path d="M218.11 404.74H263.82" stroke="#8A8A8A" stroke-miterlimit="10"/>
<path d="M303.26 398.24H276.97" stroke="#8A8A8A" stroke-miterlimit="10"/>
<path d="M119.18 417.262H140.47V395.242H119.18V417.262Z" fill="white" stroke="#263238" stroke-miterlimit="10"/>
<path d="M130.62 395.041H312.64V372.521H130.62V395.041Z" fill="#263238" stroke="#263238" stroke-miterlimit="10"/>
<path d="M30.4502 395.041H212.47V372.521H30.4502V395.041Z" fill="white" stroke="#263238" stroke-miterlimit="10"/>
<path d="M211.22 378.531H166.76" stroke="#263238" stroke-miterlimit="10"/>
<path d="M202.45 383.531H137.96" stroke="#263238" stroke-miterlimit="10"/>
<path d="M176.78 388.031H188.05" stroke="#263238" stroke-miterlimit="10"/>
<path d="M192.43 388.031H210.59" stroke="#263238" stroke-miterlimit="10"/>
<path d="M31.52 387.031H88.5" stroke="#263238" stroke-miterlimit="10"/>
<path d="M36.5303 384.031H44.0503" stroke="#263238" stroke-miterlimit="10"/>
<path d="M79.1101 383.531H54.0601" stroke="#263238" stroke-miterlimit="10"/>
<path d="M31.52 377.531H53.44" stroke="#263238" stroke-miterlimit="10"/>
<path d="M310.14 382.031H298.87" stroke="#8A8A8A" stroke-miterlimit="10"/>
<path d="M312.64 387.031H277.58" stroke="#8A8A8A" stroke-miterlimit="10"/>
<path d="M214.35 390.041H231.25" stroke="#8A8A8A" stroke-miterlimit="10"/>
<path d="M212.47 382.031H258.17" stroke="#8A8A8A" stroke-miterlimit="10"/>
<path d="M297.62 375.521H271.32" stroke="#8A8A8A" stroke-miterlimit="10"/>
<path d="M113.54 394.541H134.83V372.521H113.54V394.541Z" fill="white" stroke="#263238" stroke-miterlimit="10"/>
<path d="M457.52 118.619H283.28V463.179H457.52V118.619Z" fill="#263238" stroke="#263238" stroke-miterlimit="10"/>
<path d="M438.68 120.189V179.839" stroke="#8A8A8A" stroke-miterlimit="10"/>
<path d="M449.67 135.1V160.22" stroke="#8A8A8A" stroke-miterlimit="10"/>
<path d="M444.18 129.609V219.079" stroke="#8A8A8A" stroke-miterlimit="10"/>
<path d="M453.6 118.619V235.569" stroke="#8A8A8A" stroke-miterlimit="10"/>
<path d="M440.25 462.39V401.17" stroke="#8A8A8A" stroke-miterlimit="10"/>
<path d="M446.53 463.18V449.83" stroke="#8A8A8A" stroke-miterlimit="10"/>
<path d="M448.1 445.119V390.969" stroke="#8A8A8A" stroke-miterlimit="10"/>
<path d="M441.04 393.319V304.629" stroke="#8A8A8A" stroke-miterlimit="10"/>
<path d="M433.19 118.619H258.95V463.179H433.19V118.619Z" fill="#4779A8" stroke="#263238" stroke-miterlimit="10"/>
<path d="M418.28 142.999C414.875 142.991 411.602 141.68 409.132 139.335C406.663 136.99 405.184 133.789 405 130.389H287.16C286.981 133.794 285.501 137.001 283.026 139.347C280.552 141.694 277.271 143.001 273.86 142.999C273.072 142.997 272.285 142.923 271.51 142.779V431.999C272.286 431.859 273.072 431.786 273.86 431.779C276.164 431.779 278.429 432.375 280.434 433.51C282.438 434.645 284.115 436.28 285.3 438.256C286.486 440.232 287.139 442.481 287.197 444.784C287.255 447.087 286.715 449.366 285.63 451.399H406.51C405.423 449.366 404.88 447.087 404.937 444.783C404.993 442.478 405.646 440.228 406.832 438.251C408.018 436.275 409.696 434.639 411.702 433.505C413.709 432.37 415.975 431.776 418.28 431.779C419.068 431.786 419.855 431.859 420.63 431.999V142.729C419.857 142.89 419.07 142.98 418.28 142.999ZM342.54 343.089C315.01 343.089 292.7 318.849 292.7 288.939C292.7 259.029 315.01 234.779 342.54 234.779C370.07 234.779 392.38 259.029 392.38 288.939C392.38 318.849 370.06 343.089 342.54 343.089Z" fill="white" stroke="#263238" stroke-miterlimit="10"/>
<path d="M457.2 270.1H259.73V305.42H457.2V270.1Z" fill="white" stroke="#263238" stroke-miterlimit="10"/>
<path d="M457.2 270.1H433.57V305.42H457.2V270.1Z" fill="#3D3D3D" stroke="#8A8A8A" stroke-miterlimit="10"/>
<path d="M68.6802 441.751L62.8602 450.481L51.4902 459.481V463.191H90.3802L89.0502 450.191V444.37C89.0502 444.37 73.1802 437.511 68.6802 441.751Z" fill="#263238" stroke="#263238" stroke-miterlimit="10"/>
<path d="M90.0302 459.74H51.4902V463.18H90.3802L90.0302 459.74Z" fill="white" stroke="#263238" stroke-miterlimit="10"/>
<path d="M132.9 441.751L139.1 450.481L151.23 459.481V463.191H109.78L111.19 450.191V444.37C111.19 444.37 128.11 437.511 132.9 441.751Z" fill="#263238" stroke="#263238" stroke-miterlimit="10"/>
<path d="M110.15 459.74H151.23V463.18H109.78L110.15 459.74Z" fill="white" stroke="#263238" stroke-miterlimit="10"/>
<path d="M51.3301 260.68C51.3301 260.68 60.4101 363.16 61.0601 382.62C61.7101 402.08 67.8701 428.35 67.8701 428.35L65.0001 432.89L67.9201 442.94C67.9201 442.94 74.7301 441.32 78.3001 442.62C81.8701 443.92 88.3001 445.54 88.3001 445.54C88.3001 445.54 91.5501 436.78 91.8701 432.89C92.1901 429 88.0001 419.59 88.0001 419.59L87.3501 302.52H93.1901L108.09 426.4L107.44 433.86L110.36 445.54C110.36 445.54 127.55 441.97 128.84 441.64C129.825 441.491 130.833 441.605 131.76 441.97C131.76 441.97 133.76 437.75 133.76 436.45C133.76 435.15 131.16 427.7 131.16 427.7L130.51 369.65V259.71L51.3801 258.09L51.3301 260.68Z" fill="#4779A8" stroke="#263238" stroke-miterlimit="10"/>
<path d="M127.72 305.941L129.49 344.711L121.94 345.391V350.201L127.43 350.541" stroke="#263238" stroke-linecap="round" stroke-linejoin="round"/>
<path d="M126.4 277.1L127.55 302.14" stroke="#263238" stroke-linecap="round" stroke-linejoin="round"/>
<path d="M123.1 373.211C123.35 380.141 123.9 386.151 125.03 386.571C127.78 387.571 128.46 388.631 128.46 388.631" stroke="#263238" stroke-linecap="round" stroke-linejoin="round"/>
<path d="M123 351.57C123 351.57 122.82 360.33 123 369.09" stroke="#263238" stroke-linecap="round" stroke-linejoin="round"/>
<path d="M79.3901 299.061L93.1101 300.091" stroke="#263238" stroke-linecap="round" stroke-linejoin="round"/>
<path d="M83.8501 266.121L84.1901 285.331L90.3701 289.801" stroke="#263238" stroke-linecap="round" stroke-linejoin="round"/>
<path d="M90.3701 272.98L91.4001 296.66" stroke="#263238" stroke-linecap="round" stroke-linejoin="round"/>
<path d="M86.1299 382.811L86.5899 406.481" stroke="#263238" stroke-linecap="round" stroke-linejoin="round"/>
<path d="M84.5303 300.43L86.0203 376.96" stroke="#263238" stroke-linecap="round" stroke-linejoin="round"/>
<path d="M112.33 276.07C112.33 276.07 117.14 286.02 126.06 282.93" stroke="#263238" stroke-linecap="round" stroke-linejoin="round"/>
<path d="M64.2904 276.07C64.2904 276.07 60.8504 283.62 55.3604 284.65" stroke="#263238" stroke-linecap="round" stroke-linejoin="round"/>
<path d="M84.6702 146.33L74.3602 149.45L65.7202 260.25L111.29 260.98L113.69 147.05L84.6702 146.33Z" fill="white" stroke="#263238" stroke-miterlimit="10"/>
<path d="M81.0004 142.001H78.5804L77.3604 145.161L77.8503 171.911L92.9304 162.191L107.76 176.291L109.71 144.431C109.71 144.431 110.44 142.971 108.25 142.001C106.06 141.031 105.33 140.781 105.33 140.781L81.0004 142.001Z" fill="white" stroke="#263238" stroke-miterlimit="10"/>
<path d="M79.5503 134.201L80.2803 145.201C80.2803 145.201 87.2803 160.521 91.9503 162.711C96.6203 164.901 107.28 144.471 107.28 144.471L106.55 132.311H79.3003L79.5503 134.201Z" fill="white" stroke="#263238" stroke-miterlimit="10"/>
<path d="M79.5503 134.201C79.5503 134.201 88.3003 153.201 93.4103 153.911C98.5203 154.621 106.79 136.391 106.79 134.691C106.79 132.991 79.5503 134.201 79.5503 134.201Z" fill="#263238" stroke="#263238" stroke-miterlimit="10"/>
<path d="M74.9299 117.921C74.9299 117.921 70.7099 114.461 70.1299 119.261C69.5499 124.061 75.6999 128.481 75.6999 128.481L74.9299 117.921Z" fill="white" stroke="#263238" stroke-miterlimit="10"/>
<path d="M109.23 117.921C109.23 117.921 113.46 114.461 114.04 119.261C114.62 124.061 108.47 128.481 108.47 128.481L109.23 117.921Z" fill="white" stroke="#263238" stroke-miterlimit="10"/>
<path d="M74.1599 118.49C74.1599 118.49 76.4699 131.94 78.3899 134.43C80.3099 136.92 86.2599 145.57 91.8299 147.11C97.3999 148.65 106.05 137.89 107.77 134.24C109.49 130.59 110.08 114.46 110.08 114.46L109.89 105.82C109.89 105.82 109.31 99.4798 106.81 96.0198C104.31 92.5598 93.5599 90.2598 86.4599 92.9998C79.3599 95.7398 73.3999 108.12 73.3999 110.62C73.3999 113.12 74.1599 118.49 74.1599 118.49Z" fill="white" stroke="#263238" stroke-miterlimit="10"/>
<path d="M86.8402 103.51C86.8402 103.51 80.8402 110.43 78.2002 111.77C77.0005 112.323 75.844 112.965 74.7402 113.69L75.1202 121.76L72.0502 110.76C72.0502 110.76 68.2102 99.0904 69.0002 93.9104C69.7902 88.7304 87.2402 83.7304 93.3902 81.8104C99.5402 79.8904 101.84 83.7304 105.87 86.8104C109.9 89.8904 114.13 92.1904 113.56 97.3804C113.064 100.99 112.161 104.533 110.87 107.94C110.87 107.94 109.87 122.34 109.87 122.94C109.87 123.54 108.14 108.73 108.14 108.73C107.159 108.473 106.275 107.936 105.593 107.185C104.911 106.434 104.462 105.501 104.3 104.5C103.79 101.967 103.456 99.4005 103.3 96.8204C103.3 96.8204 100.8 102.01 98.3002 104.5C95.8002 106.99 89.6602 109.3 88.7002 109.11C87.7402 108.92 89.7002 104.31 89.7002 104.31L86.2402 107.58L86.8402 103.51Z" fill="#263238" stroke="#263238" stroke-miterlimit="10"/>
<path d="M88.3799 130.4C89.3311 131.247 90.4385 131.899 91.6399 132.32C93.1799 132.7 95.8699 130.4 96.6399 129.82" stroke="#263238" stroke-miterlimit="10"/>
<path d="M87.8003 135.781C87.8003 135.781 92.2203 139.231 98.1703 135.201L87.8003 135.781Z" fill="white"/>
<path d="M87.8003 135.781C87.8003 135.781 92.2203 139.231 98.1703 135.201" stroke="#263238" stroke-miterlimit="10"/>
<path d="M84.8203 123.48C85.5107 123.48 86.0703 122.535 86.0703 121.37C86.0703 120.204 85.5107 119.26 84.8203 119.26C84.13 119.26 83.5703 120.204 83.5703 121.37C83.5703 122.535 84.13 123.48 84.8203 123.48Z" fill="#263238"/>
<path d="M99.4199 123.48C100.11 123.48 100.67 122.535 100.67 121.37C100.67 120.204 100.11 119.26 99.4199 119.26C98.7296 119.26 98.1699 120.204 98.1699 121.37C98.1699 122.535 98.7296 123.48 99.4199 123.48Z" fill="#263238"/>
<path d="M96.4399 114.651C97.678 114.002 99.0903 113.764 100.473 113.971C101.855 114.178 103.136 114.819 104.13 115.801" stroke="#263238" stroke-miterlimit="10"/>
<path d="M86.2601 114.46C85.2818 113.881 84.131 113.664 83.0087 113.846C81.8864 114.029 80.864 114.6 80.1201 115.46" stroke="#263238" stroke-miterlimit="10"/>
<path d="M99.8999 125.021L104.13 124.061" stroke="#263238" stroke-miterlimit="10"/>
<path d="M80.5 123.871L83.96 125.021" stroke="#263238" stroke-miterlimit="10"/>
<path d="M77.6 170L75.41 275L50.41 273.79L48.9 270.9C48.9 270.9 45.5 270.9 45.01 268.22C44.52 265.54 48.41 206.69 48.41 206.69L27 204.74L41.35 176.74C41.35 176.74 45.73 157.28 46.7 155.82C47.67 154.36 78.08 143.9 78.08 143.9L77.6 170Z" fill="#263238" stroke="#263238" stroke-miterlimit="10"/>
<path d="M108.74 143.281L105.17 275.281L137.27 274.951L138.57 270.091L141.81 267.821V257.441C141.81 252.251 135.65 214.631 135.65 214.631C135.65 214.631 151.87 212.361 152.19 209.121C152.51 205.881 145.38 156.911 141.49 153.341C137.6 149.771 108.74 143.281 108.74 143.281Z" fill="#263238" stroke="#263238" stroke-miterlimit="10"/>
<path d="M116.79 218.55L121.06 230.85C121.06 230.85 123.53 224.91 123.16 221.17C122.79 217.43 122.78 216.3 121.66 216.11C120.54 215.92 117 215.18 116.79 218.55Z" fill="white" stroke="#263238" stroke-miterlimit="10"/>
<path d="M74.1201 186.59L87.7901 213.75L102.21 206.63L90.0401 177.98L74.1201 186.59Z" fill="#4779A8" stroke="#263238" stroke-miterlimit="10"/>
<path d="M97.8303 205.539C97.6666 205.107 97.6798 204.627 97.8669 204.204C98.0541 203.781 98.4001 203.449 98.8303 203.279C98.91 203.27 98.9906 203.27 99.0703 203.279L90.0703 182.189C89.9884 182.386 89.8632 182.562 89.7039 182.704C89.5446 182.846 89.3554 182.951 89.1503 183.009C88.8428 183.081 88.5209 183.058 88.2265 182.944C87.9322 182.83 87.6791 182.63 87.5003 182.369L78.0003 187.479C78.1228 187.663 78.214 187.866 78.2703 188.079C78.4029 188.462 78.4062 188.878 78.2797 189.263C78.1533 189.647 77.9041 189.98 77.5703 190.209L87.0603 208.999C87.2299 208.811 87.4478 208.673 87.6903 208.599C88.0929 208.523 88.5095 208.593 88.8652 208.796C89.2208 209 89.4922 209.324 89.6303 209.709L97.8603 205.649L97.8303 205.539ZM89.7103 200.679C87.9603 201.169 86.0703 199.879 85.4803 197.789C84.8903 195.699 85.8203 193.599 87.5603 193.109C89.3003 192.619 91.2003 193.909 91.7903 195.999C92.3803 198.089 91.4503 200.179 89.7103 200.679Z" fill="white" stroke="#263238" stroke-miterlimit="10"/>
<path d="M79.9702 183.251L87.2702 212.761L102.91 209.021L97.4002 178.391L79.9702 183.251Z" fill="#4779A8" stroke="#263238" stroke-miterlimit="10"/>
<path d="M98.8803 207.001C98.8463 206.772 98.858 206.538 98.9145 206.313C98.9711 206.088 99.0715 205.877 99.2099 205.691C99.3484 205.505 99.5221 205.349 99.7213 205.23C99.9204 205.112 100.141 205.034 100.37 205.001C100.45 204.991 100.531 204.991 100.61 205.001L96.6103 182.451C96.4851 182.624 96.3235 182.767 96.1369 182.871C95.9503 182.974 95.7432 183.036 95.5303 183.051C95.2125 183.049 94.9023 182.953 94.6389 182.775C94.3755 182.597 94.1707 182.345 94.0503 182.051L83.5903 185.001C83.6729 185.208 83.7202 185.428 83.7303 185.651C83.774 186.054 83.6841 186.46 83.4745 186.807C83.2649 187.154 82.9473 187.422 82.5703 187.571L87.6203 208.001C87.8265 207.857 88.0691 207.773 88.3203 207.761C88.7288 207.77 89.12 207.927 89.4216 208.203C89.7231 208.479 89.9145 208.855 89.9603 209.261L98.8903 207.131L98.8803 207.001ZM92.0003 200.441C90.1903 200.541 88.6303 198.861 88.5203 196.691C88.4103 194.521 89.7803 192.691 91.5903 192.591C93.4003 192.491 94.9503 194.181 95.0703 196.351C95.1903 198.521 93.8503 200.351 92.0003 200.441Z" fill="white" stroke="#263238" stroke-miterlimit="10"/>
<path d="M88.6199 180.971L86.9399 211.321L102.99 212.341L106.71 181.431L88.6199 180.971Z" fill="#4779A8" stroke="#263238" stroke-miterlimit="10"/>
<path d="M99.7302 209.209C99.804 208.752 100.056 208.342 100.43 208.068C100.804 207.795 101.272 207.68 101.73 207.749C101.814 207.769 101.894 207.799 101.97 207.839L104.71 185.079C104.541 185.211 104.344 185.302 104.135 185.347C103.925 185.392 103.708 185.39 103.5 185.339C103.197 185.248 102.927 185.068 102.728 184.822C102.528 184.576 102.407 184.275 102.38 183.959L91.5702 183.689C91.5895 183.908 91.5692 184.128 91.5102 184.339C91.4347 184.738 91.2304 185.101 90.9287 185.372C90.6269 185.643 90.2445 185.807 89.8402 185.839L88.6802 206.839C88.9252 206.769 89.1851 206.769 89.4302 206.839C89.8182 206.972 90.1453 207.24 90.3512 207.595C90.557 207.95 90.6277 208.367 90.5502 208.769L99.7202 209.349C99.7116 209.303 99.715 209.255 99.7302 209.209ZM95.1102 200.939C93.3602 200.499 92.3602 198.439 92.8902 196.329C93.4202 194.219 95.2702 192.869 97.0302 193.329C98.7902 193.789 99.7702 195.839 99.2502 197.949C98.7302 200.059 96.8702 201.379 95.1102 200.939Z" fill="white" stroke="#263238" stroke-miterlimit="10"/>
<path d="M121.66 210.68C119.892 210.414 118.142 210.04 116.42 209.56C115.67 209.19 110.24 207.31 105.93 205.07C101.62 202.83 98.0701 205.07 91.9301 206.19C85.7901 207.31 84.0601 207.69 84.0601 209.19C84.0601 210.69 87.2501 211.06 87.2501 211.06C87.2501 211.06 84.2501 211.43 85.7501 213.49C86.6336 214.714 87.8787 215.63 89.3101 216.11C90.1394 217.484 91.2178 218.691 92.4901 219.67C94.3601 220.98 95.6701 222.11 95.6701 222.11C96.8427 223.57 98.4019 224.672 100.17 225.29C102.79 226.04 117.58 221.54 117.58 221.54C117.58 221.54 122.07 222.85 123.2 220.42C124.33 217.99 121.66 210.68 121.66 210.68Z" fill="white" stroke="#263238" stroke-linecap="round" stroke-linejoin="round"/>
<path d="M87.21 211.061C87.21 211.061 98.44 210.681 102 209.561" stroke="#263238" stroke-linecap="round" stroke-linejoin="round"/>
<path d="M89.27 216.111C92.3654 216.607 95.4952 216.858 98.63 216.861C100.476 216.824 102.281 216.311 103.87 215.371" stroke="#263238" stroke-linecap="round" stroke-linejoin="round"/>
<path d="M94 220.801C94 220.801 100.55 222.801 105 221.361" stroke="#263238" stroke-linecap="round" stroke-linejoin="round"/>
<path d="M127.22 178.631L130.79 206.521L120.73 209.441C120.73 209.441 122.36 217.871 121.73 221.771C121.307 224.779 121.09 227.813 121.08 230.851C121.08 230.851 132.08 227.281 139.24 226.631C146.4 225.981 152.54 222.741 154.48 217.551C156.42 212.361 150.27 194.551 150.27 194.551" fill="#263238"/>
<path d="M127.22 178.631L130.79 206.521L120.73 209.441C120.73 209.441 122.36 217.871 121.73 221.771C121.307 224.779 121.09 227.813 121.08 230.851C121.08 230.851 132.08 227.281 139.24 226.631C146.4 225.981 152.54 222.741 154.48 217.551C156.42 212.361 150.27 194.551 150.27 194.551" stroke="#263238" stroke-miterlimit="10"/>
<path d="M125.89 208.619L130.79 206.519L143.19 203.189" stroke="#6B6B6B" stroke-miterlimit="10"/>
<path d="M130.79 206.52L126.94 173.58" stroke="#6B6B6B" stroke-miterlimit="10"/>
<path d="M67.3802 205.88C67.3802 205.88 65.1402 195.96 64.2002 194.08C63.2602 192.2 58.2002 197.46 57.8302 199.14C57.4602 200.82 65.8802 206.07 67.3802 205.88Z" fill="white" stroke="#263238" stroke-miterlimit="10"/>
<path d="M62.4899 185L57.6499 190.68C57.6499 190.68 58.9999 199 60.0799 199.33C61.1599 199.66 68.8799 193.71 68.8799 193.71L62.4899 185Z" fill="white" stroke="#263238" stroke-miterlimit="10"/>
<path d="M71.48 173.61C71.48 173.61 63.05 181.85 62.48 185.03C61.91 188.21 67.91 194.21 68.66 194.77C69.41 195.33 74.84 191.02 75.02 190.27C75.2 189.52 71.47 183.72 71.47 183.72C73.1882 184.562 74.8576 185.5 76.47 186.53C77.03 187.09 80.59 192.15 81.9 191.77C83.21 191.39 82.65 188.96 81.9 186.72C81.15 184.48 73.1 176.98 73.1 176.98L78.53 178.29C78.53 178.29 84.9 184.47 86.4 184.47C87.9 184.47 87.15 182.97 86.21 181.66C85.27 180.35 80.78 175.11 79.66 173.8C78.54 172.49 74.23 171.74 73.66 171.74C73.09 171.74 71.48 173.61 71.48 173.61Z" fill="white" stroke="#263238" stroke-linecap="round" stroke-linejoin="round"/>
<path d="M71.4804 183.72L68.8604 181.1" stroke="#263238" stroke-linecap="round" stroke-linejoin="round"/>
<path d="M65.4902 184.281L72.2302 192.521" stroke="#263238" stroke-linecap="round" stroke-linejoin="round"/>
<path d="M57.4601 189.781C57.4601 189.781 58.7701 194.271 59.5201 197.081C60.2701 199.891 67.3801 205.881 67.3801 205.881C67.3801 205.881 57.2701 216.551 48.2801 221.231C39.2901 225.911 28.7301 223.561 25.5501 219.821C22.3701 216.081 23.6801 205.221 26.3001 202.971C28.9201 200.721 44.1601 197.831 47.9101 195.771C51.6601 193.711 57.4601 189.781 57.4601 189.781Z" fill="#263238" stroke="#263238" stroke-miterlimit="10"/>
<path d="M57.4603 189.781L32.8203 201.821" stroke="#6B6B6B" stroke-miterlimit="10"/>
<path d="M54.2603 191.361V179.861" stroke="#6B6B6B" stroke-miterlimit="10"/>
<path d="M218.24 444.299C218.24 444.299 215.24 445.149 207.24 439.219C199.24 433.289 189.88 424.819 189.88 424.819C189.88 424.819 199.12 423.579 203.39 421.329C208.09 418.839 213.59 412.959 213.59 412.959C213.59 412.959 232.22 438.369 255.52 436.679C255.116 438.845 254.17 440.874 252.772 442.577C251.373 444.28 249.566 445.602 247.52 446.419C240.26 449.379 218.24 444.299 218.24 444.299Z" fill="#4779A8" stroke="#263238" stroke-linejoin="round"/>
<path d="M248.47 439.591C248.47 439.591 228.69 434.401 218 423.051C217.485 423.191 216.945 423.215 216.419 423.121C215.894 423.028 215.395 422.818 214.961 422.508C214.526 422.198 214.166 421.795 213.907 421.328C213.647 420.862 213.494 420.343 213.46 419.811C209.723 423.319 204.931 425.496 199.83 426.001C199.83 426.001 200.15 428.271 199.18 428.921C199.18 428.921 214.42 442.221 223.18 443.841C229.26 445.057 235.484 445.394 241.66 444.841C244.327 444.559 246.832 443.423 248.8 441.601C248.8 441.601 245.55 440.891 248.47 439.591ZM229.79 438.861C229.08 440.611 225.55 440.861 221.9 439.341C218.25 437.821 215.9 435.251 216.56 433.511C217.22 431.771 220.8 431.511 224.45 433.031C228.1 434.551 230.49 437.121 229.79 438.861Z" fill="white" stroke="#263238" stroke-miterlimit="10"/>
<path d="M215.24 443.77C215.24 443.77 225.44 447.97 233.49 447.97C238.201 447.996 242.899 447.476 247.49 446.42C247.49 446.42 244.74 447.92 240.27 445.05C237.72 443.41 236.08 439.76 236.08 439.76C229.352 442.055 222.339 443.405 215.24 443.77Z" fill="#4779A8" stroke="#263238" stroke-linejoin="round"/>
<path d="M329.82 401.059C329.82 401.059 348.39 394.949 359.25 387.699L370.8 406.699C370.8 406.699 343.18 428.209 335.93 422.549L329.82 401.059Z" fill="#4779A8" stroke="#263238" stroke-linejoin="round"/>
<path d="M362.88 405.589C362.903 405.041 363.104 404.515 363.452 404.092C363.8 403.668 364.277 403.368 364.81 403.239L359.68 394.729C359.251 394.875 358.802 394.949 358.35 394.949C357.8 394.978 357.252 394.874 356.752 394.644C356.252 394.414 355.815 394.065 355.48 393.629C345.89 400.339 331.18 403.779 331.18 403.779L334.12 415.329C334.12 415.329 333.67 421.669 341.59 420.079C347.73 418.849 359.28 411.079 364.19 407.689C363.804 407.488 363.479 407.187 363.249 406.817C363.018 406.448 362.891 406.024 362.88 405.589ZM343.09 414.089C339.62 414.879 336.39 413.699 335.87 411.449C335.35 409.199 337.75 406.719 341.22 405.919C344.69 405.119 347.93 406.309 348.45 408.559C348.97 410.809 346.57 413.289 343.09 414.089Z" fill="white" stroke="#263238" stroke-miterlimit="10"/>
<path d="M327.1 392.459L339.78 417.589C339.78 417.589 335.48 419.849 335.93 422.589L323.71 398.589C323.71 398.589 322.12 394.719 327.1 392.459Z" fill="#4779A8" stroke="#263238" stroke-linejoin="round"/>
<path d="M324.79 400.699L334.21 419.179C334.611 418.291 335.322 417.58 336.21 417.179L325.74 398.799L324.79 400.699Z" fill="white" stroke="#263238" stroke-miterlimit="10"/>
<path d="M189.49 260.789L189.69 308.959L214.83 308.849L214.91 259.699L189.49 260.789Z" fill="#4779A8" stroke="#263238" stroke-miterlimit="10"/>
<path d="M209.32 304.23C209.342 303.87 209.435 303.518 209.594 303.195C209.753 302.872 209.975 302.583 210.247 302.347C210.519 302.11 210.835 301.93 211.177 301.818C211.52 301.705 211.881 301.661 212.24 301.69C212.366 301.716 212.49 301.753 212.61 301.8L212.56 265.13C212.338 265.331 212.073 265.479 211.786 265.564C211.499 265.649 211.196 265.668 210.9 265.62C210.459 265.512 210.06 265.277 209.751 264.945C209.442 264.612 209.237 264.197 209.16 263.75L194 264.4C194.049 264.711 194.049 265.029 194 265.34C193.95 265.909 193.711 266.446 193.321 266.864C192.932 267.282 192.414 267.559 191.85 267.65V301.65C192.218 301.502 192.619 301.457 193.01 301.52C193.633 301.701 194.174 302.094 194.539 302.63C194.904 303.167 195.071 303.814 195.01 304.46L209.37 304.4C209.32 304.32 209.31 304.27 209.32 304.23ZM201 291.57C198.21 291.06 196.37 287.89 196.89 284.48C197.41 281.07 200.12 278.72 202.89 279.24C205.66 279.76 207.53 282.92 207 286.33C206.47 289.74 203.76 292.09 201 291.57Z" fill="white" stroke="#263238" stroke-miterlimit="10"/>
<path d="M424.56 56.9688L389.5 92.0287L407.8 110.329L443.78 74.7687L424.56 56.9688Z" fill="#4779A8" stroke="#263238" stroke-miterlimit="10"/>
<path d="M407.18 102.999C407.459 102.75 407.785 102.559 408.139 102.438C408.494 102.318 408.868 102.269 409.242 102.296C409.615 102.324 409.979 102.425 410.312 102.596C410.645 102.767 410.94 103.002 411.18 103.289C411.256 103.403 411.319 103.523 411.37 103.649L438.12 76.9994C437.811 76.9834 437.509 76.8977 437.237 76.7488C436.965 76.5999 436.73 76.3916 436.55 76.1394C436.31 75.7379 436.193 75.2752 436.212 74.8079C436.232 74.3407 436.388 73.8894 436.66 73.5094L425.18 62.8594C424.984 63.1207 424.751 63.353 424.49 63.5494C424.037 63.9265 423.47 64.1404 422.881 64.1567C422.291 64.1731 421.714 63.9908 421.24 63.6394L396.37 88.2394C396.743 88.3942 397.065 88.6506 397.3 88.9794C397.629 89.5652 397.741 90.2479 397.616 90.908C397.492 91.568 397.139 92.1633 396.62 92.5894L407.07 103.049L407.18 102.999ZM410.38 87.7194C408.72 85.3094 409.71 81.6594 412.58 79.5694C415.45 77.4794 419.13 77.7594 420.78 80.1694C422.43 82.5794 421.44 86.2394 418.57 88.3194C415.7 90.3994 412 90.0894 410.38 87.6694V87.7194Z" fill="white" stroke="#263238" stroke-miterlimit="10"/>
<path d="M183 203.939L231.78 184.649L221.71 159.189L171.82 178.579L183 203.939Z" fill="#4779A8" stroke="#263238" stroke-miterlimit="10"/>
<path d="M219.2 166.61C217.43 167 215.76 166.13 215.47 164.61C215.46 164.467 215.46 164.323 215.47 164.18L178.28 178.76C178.574 178.906 178.831 179.117 179.032 179.377C179.232 179.637 179.372 179.938 179.44 180.26C179.503 180.749 179.422 181.246 179.207 181.69C178.992 182.134 178.653 182.505 178.23 182.76L184.88 198C185.194 197.828 185.53 197.704 185.88 197.63C186.477 197.454 187.116 197.483 187.694 197.713C188.273 197.944 188.757 198.361 189.07 198.9L223.56 185.48C223.26 185.174 223.056 184.789 222.97 184.37C222.892 183.662 223.068 182.949 223.468 182.359C223.867 181.769 224.463 181.34 225.15 181.15L219.39 166.6L219.2 166.61ZM209.68 180.1C210.27 183.1 207.78 186.27 204.11 187.1C200.44 187.93 197 186.1 196.41 183.1C195.82 180.1 198.31 176.94 201.98 176.1C205.65 175.26 209.09 177.06 209.68 180.1Z" fill="white" stroke="#263238" stroke-miterlimit="10"/>
<path d="M355.17 56.8089C355.17 56.8089 358.17 57.5989 362.03 66.8089C365.89 76.0189 369.59 88.0589 369.59 88.0589C369.59 88.0589 361.01 84.3989 356.19 84.1489C350.87 83.8789 343.14 86.1489 343.14 86.1489C343.14 86.1489 340.14 54.7789 319.25 44.3289C320.703 42.6571 322.558 41.3826 324.64 40.6251C326.722 39.8676 328.962 39.6521 331.15 39.9989C338.85 41.1789 355.17 56.8089 355.17 56.8089Z" fill="#4779A8" stroke="#263238" stroke-linejoin="round"/>
<path d="M326.79 45.3887C326.79 45.3887 341.13 59.9987 344.52 75.1887C345.034 75.3333 345.509 75.59 345.911 75.9402C346.314 76.2904 346.634 76.7256 346.848 77.2142C347.062 77.7029 347.165 78.233 347.15 78.7663C347.135 79.2996 347.002 79.823 346.76 80.2987C351.765 79.2124 356.989 79.81 361.62 81.9987C361.62 81.9987 362.5 79.8787 363.67 79.8187C363.67 79.8187 357.37 60.5987 350.67 54.7287C346.058 50.5784 340.875 47.1099 335.28 44.4287C332.843 43.3143 330.112 43.0129 327.49 43.5687C327.49 43.5687 330 45.7687 326.79 45.3887ZM342.47 55.5687C343.96 54.4387 347.11 56.0587 349.47 59.1987C351.83 62.3387 352.57 65.7987 351.07 66.9387C349.57 68.0787 346.43 66.4487 344.07 63.3087C341.71 60.1687 341 56.7087 342.47 55.5687Z" fill="white" stroke="#263238" stroke-miterlimit="10"/>
<path d="M357.48 58.8C357.48 58.8 350.86 50 343.94 45.85C339.916 43.4142 335.624 41.4512 331.15 40C331.15 40 334.28 40.12 336.65 44.87C338 47.59 337.55 51.56 337.55 51.56C344.496 53.0407 351.203 55.4772 357.48 58.8Z" fill="#4779A8" stroke="#263238" stroke-linejoin="round"/>
<path d="M96.3899 31.5996L101.22 49.2996C101.22 49.2996 77.0799 67.1796 40.6099 62.1696L42.6099 43.0396C42.6099 43.0396 56.9099 45.8996 69.9599 43.2196C83.0099 40.5396 96.3899 31.5996 96.3899 31.5996Z" fill="#4779A8" stroke="#263238" stroke-miterlimit="10"/>
<path d="M93.6298 48.5191C93.6801 48.0839 93.8623 47.6745 94.1518 47.3456C94.4413 47.0168 94.8244 46.7842 95.2498 46.6791L92.3998 38.8091C91.9839 38.9483 91.5483 39.0193 91.1098 39.0191C90.3553 39.0316 89.6164 38.8039 88.9998 38.3691C84.9998 40.4691 77.4898 44.1291 69.9998 45.6791C63.1773 46.9034 56.2191 47.186 49.3198 46.5191C49.0526 46.8054 48.7238 47.0271 48.3582 47.1675C47.9926 47.3078 47.5999 47.3631 47.2098 47.3291L46.2598 58.0491C46.4998 58.0491 46.7498 58.0491 46.9998 58.0491C48.9998 58.0491 50.5698 58.6491 50.5698 59.3891C50.5573 59.5079 50.5174 59.6221 50.4531 59.7228C50.3889 59.8234 50.3022 59.9078 50.1998 59.9691C73.3698 60.8491 89.5898 52.8391 94.5098 50.0391C94.2486 49.8785 94.0315 49.6556 93.8779 49.3902C93.7243 49.1249 93.639 48.8256 93.6298 48.5191ZM70.6998 54.1091C67.1598 54.8191 64.0598 54.2191 63.7698 52.7691C63.4798 51.3191 66.1098 49.5791 69.6498 48.8691C73.1898 48.1591 76.2898 48.7591 76.5798 50.2091C76.8698 51.6591 74.2398 53.3991 70.6998 54.1091Z" fill="white" stroke="#263238" stroke-miterlimit="10"/>
<path d="M422.08 425.77L426.9 443.47C426.9 443.47 402.77 461.35 366.29 456.34L368.29 437.21C368.29 437.21 382.59 440.07 395.65 437.39C408.71 434.71 422.08 425.77 422.08 425.77Z" fill="#4779A8" stroke="#263238" stroke-miterlimit="10"/>
<path d="M419.31 442.701C419.358 442.264 419.54 441.852 419.829 441.521C420.119 441.19 420.503 440.956 420.93 440.851L418.08 433.001C417.662 433.132 417.228 433.199 416.79 433.201C416.02 433.221 415.264 432.997 414.63 432.561C410.72 434.651 403.17 438.311 395.69 439.861C388.868 441.085 381.909 441.368 375.01 440.701C374.743 440.987 374.414 441.209 374.048 441.349C373.683 441.489 373.29 441.545 372.9 441.511L372 452.231C372.24 452.231 372.49 452.231 372.75 452.231C374.75 452.231 376.31 452.821 376.31 453.561C376.298 453.679 376.258 453.794 376.193 453.894C376.129 453.995 376.042 454.079 375.94 454.141C399.11 455.031 415.33 447.021 420.26 444.211C419.987 444.059 419.757 443.842 419.591 443.578C419.425 443.314 419.328 443.012 419.31 442.701ZM396.38 448.281C392.84 448.991 389.74 448.391 389.45 446.951C389.16 445.511 391.79 443.751 395.33 443.041C398.87 442.331 401.97 442.941 402.26 444.381C402.55 445.821 399.92 447.581 396.38 448.281Z" fill="white" stroke="#263238" stroke-miterlimit="10"/>
<path d="M169.24 54.1588C169.24 54.1588 187.8 48.0488 198.67 40.7988L210.22 59.7988C210.22 59.7988 182.6 81.3288 175.35 75.6688L169.24 54.1588Z" fill="#4779A8" stroke="#263238" stroke-linejoin="round"/>
<path d="M202.29 58.6905C202.316 58.1416 202.519 57.6159 202.869 57.1922C203.218 56.7685 203.696 56.4697 204.23 56.3405L199.09 47.8305C198.666 47.9774 198.219 48.0518 197.77 48.0505C197.22 48.08 196.672 47.9752 196.172 47.7452C195.672 47.5152 195.235 47.1669 194.9 46.7305C185.31 53.4405 170.6 56.8805 170.6 56.8805L173.54 68.4305C173.54 68.4305 173.09 74.7705 181.01 73.1805C187.14 71.9505 198.69 64.1805 203.61 60.7905C203.222 60.5904 202.896 60.2901 202.663 59.9207C202.431 59.5514 202.302 59.1265 202.29 58.6905ZM182.51 67.1905C179.04 67.9805 175.8 66.8005 175.29 64.5505C174.78 62.3005 177.17 59.8205 180.64 59.0205C184.11 58.2205 187.35 59.4105 187.87 61.6705C188.39 63.9305 186 66.3905 182.51 67.1905Z" fill="white" stroke="#263238" stroke-miterlimit="10"/>
<path d="M166.52 45.5605L179.2 70.6905C179.2 70.6905 174.9 72.9505 175.35 75.6905L163.12 51.6905C163.12 51.6905 161.54 47.8205 166.52 45.5605Z" fill="#4779A8" stroke="#263238" stroke-linejoin="round"/>
<path d="M164.21 53.8004L173.62 72.2804C174.021 71.3924 174.732 70.6812 175.62 70.2804L165.16 51.9004L164.21 53.8004Z" fill="white" stroke="#263238" stroke-miterlimit="10"/>
<path d="M324.51 165.619L289.45 200.679L307.75 218.969L343.74 183.409L324.51 165.619Z" fill="#4779A8" stroke="#263238" stroke-miterlimit="10"/>
<path d="M307.14 211.6C307.419 211.35 307.745 211.16 308.099 211.039C308.454 210.918 308.828 210.87 309.202 210.897C309.575 210.924 309.939 211.026 310.272 211.196C310.605 211.367 310.9 211.603 311.14 211.89C311.212 212.003 311.272 212.124 311.32 212.25L338.1 185.63C337.791 185.617 337.49 185.532 337.219 185.383C336.948 185.234 336.716 185.024 336.54 184.77C336.299 184.369 336.18 183.907 336.197 183.44C336.215 182.973 336.369 182.521 336.64 182.14L325.16 171.51C324.966 171.77 324.733 172 324.47 172.19C324.019 172.57 323.452 172.787 322.862 172.805C322.273 172.823 321.694 172.642 321.22 172.29L296.35 196.88C296.723 197.039 297.045 197.299 297.28 197.63C297.609 198.216 297.721 198.898 297.596 199.558C297.472 200.218 297.119 200.814 296.6 201.24L307 211.69L307.14 211.6ZM310.33 196.32C308.68 193.9 309.67 190.26 312.54 188.17C315.41 186.08 319.08 186.36 320.73 188.77C322.38 191.18 321.4 194.83 318.52 196.92C315.64 199.01 312 198.73 310.33 196.32Z" fill="white" stroke="#263238" stroke-miterlimit="10"/>
<path d="M388.6 251.16L436.51 256.16L439.11 231.16L390.26 225.77L388.6 251.16Z" fill="#4779A8" stroke="#263238" stroke-miterlimit="10"/>
<path d="M433.92 236.129C433.565 236.069 433.226 235.939 432.923 235.746C432.619 235.554 432.356 235.303 432.151 235.008C431.945 234.712 431.8 234.379 431.724 234.028C431.649 233.676 431.644 233.313 431.71 232.959C431.753 232.835 431.807 232.715 431.87 232.599L395.4 228.689C395.577 228.933 395.697 229.213 395.75 229.509C395.804 229.805 395.79 230.109 395.71 230.399C395.559 230.819 395.29 231.185 394.935 231.455C394.58 231.725 394.154 231.886 393.71 231.919L392.71 247.089C393.026 247.079 393.343 247.112 393.65 247.189C394.212 247.303 394.72 247.6 395.093 248.035C395.466 248.47 395.683 249.017 395.71 249.589L429.48 253.299C429.37 252.921 429.37 252.518 429.48 252.139C429.72 251.532 430.167 251.03 430.741 250.719C431.315 250.408 431.98 250.309 432.62 250.439L434.1 236.159L433.92 236.129ZM420.44 243.129C419.63 245.849 416.28 247.339 412.95 246.449C409.62 245.559 407.57 242.619 408.38 239.899C409.19 237.179 412.55 235.689 415.88 236.579C419.21 237.469 421.25 240.349 420.44 243.079V243.129Z" fill="white" stroke="#263238" stroke-miterlimit="10"/>
<path d="M443.18 296.43C443.18 296.43 446.18 297.22 450.04 306.43C453.9 315.64 457.59 327.68 457.59 327.68C457.59 327.68 449.02 324.02 444.19 323.77C438.88 323.5 431.19 325.77 431.19 325.77C431.19 325.77 428.19 294.4 407.3 283.95C408.759 282.292 410.616 281.031 412.695 280.286C414.775 279.541 417.009 279.336 419.19 279.69C426.85 280.8 443.18 296.43 443.18 296.43Z" fill="#4779A8" stroke="#263238" stroke-linejoin="round"/>
<path d="M414.79 284.999C414.79 284.999 429.14 299.579 432.53 314.809C433.044 314.951 433.521 315.205 433.924 315.554C434.328 315.903 434.648 316.338 434.863 316.826C435.078 317.315 435.181 317.845 435.164 318.378C435.148 318.911 435.014 319.434 434.77 319.909C439.77 318.816 444.991 319.407 449.62 321.589C449.62 321.589 450.51 319.469 451.67 319.409C451.67 319.409 445.38 300.189 438.67 294.319C434.067 290.161 428.891 286.685 423.3 283.999C420.863 282.885 418.132 282.583 415.51 283.139C415.51 283.139 418 285.389 414.79 284.999ZM430.47 295.179C431.97 294.049 435.11 295.669 437.47 298.809C439.83 301.949 440.57 305.409 439.07 306.549C437.57 307.689 434.43 306.059 432.07 302.919C429.71 299.779 429 296.329 430.47 295.189V295.179Z" fill="white" stroke="#263238" stroke-miterlimit="10"/>
<path d="M445.48 298.42C445.48 298.42 438.86 289.59 431.95 285.47C427.921 283.047 423.626 281.097 419.15 279.66C419.15 279.66 422.29 279.78 424.65 284.53C426.01 287.25 425.55 291.22 425.55 291.22C432.494 292.687 439.202 295.11 445.48 298.42Z" fill="#4779A8" stroke="#263238" stroke-linejoin="round"/>
<path d="M420 180.829C420 180.829 403.81 191.779 395.33 201.719L379 186.579C379 186.579 399.69 158.339 408.21 161.809L420 180.829Z" fill="#4779A8" stroke="#263238" stroke-linejoin="round"/>
<path d="M387 185.51C387.126 186.043 387.076 186.602 386.856 187.104C386.635 187.606 386.258 188.022 385.78 188.29L393.04 195.08C393.413 194.824 393.825 194.632 394.26 194.51C394.78 194.331 395.336 194.281 395.879 194.364C396.423 194.448 396.938 194.663 397.38 194.99C404.78 185.92 417.99 178.59 417.99 178.59L411.99 168.28C411.99 168.28 410.69 162.06 403.5 165.75C397.94 168.61 388.94 179.2 385.15 183.85C385.579 183.934 385.978 184.133 386.303 184.425C386.629 184.717 386.87 185.092 387 185.51ZM403.71 171.93C406.83 170.21 410.27 170.47 411.38 172.49C412.49 174.51 410.86 177.56 407.74 179.27C404.62 180.98 401.18 180.73 400.06 178.7C398.94 176.67 400.55 173.64 403.68 171.93H403.71Z" fill="white" stroke="#263238" stroke-miterlimit="10"/>
<path d="M425 188.361L405.94 167.651C405.94 167.651 409.46 164.301 408.28 161.811L426.6 181.551C426.6 181.551 429.14 184.821 425 188.361Z" fill="#4779A8" stroke="#263238" stroke-linejoin="round"/>
<path d="M424.94 179.8L410.84 164.6C410.711 165.566 410.239 166.453 409.51 167.1L424.51 181.89L424.94 179.8Z" fill="white" stroke="#263238" stroke-miterlimit="10"/>
<path d="M9.65991 463.18H488" stroke="#263238" stroke-linecap="round" stroke-linejoin="round"/>
</svg>
