<svg width="500" height="391" viewBox="0 0 500 391" fill="none" xmlns="http://www.w3.org/2000/svg">
<g clip-path="url(#clip0)">
<path d="M500 345.541H0V345.791H500V345.541Z" fill="#EBEBEB"/>
<path d="M362 353.48H328.88V353.73H362V353.48Z" fill="#EBEBEB"/>
<path d="M440.92 353.611H399.78V353.861H440.92V353.611Z" fill="#EBEBEB"/>
<path d="M375.95 360.141H356.76V360.391H375.95V360.141Z" fill="#EBEBEB"/>
<path d="M225.67 358.25H174V358.5H225.67V358.25Z" fill="#EBEBEB"/>
<path d="M165.1 358.25H130.71V358.5H165.1V358.25Z" fill="#EBEBEB"/>
<path d="M110.13 354.031H63.29V354.281H110.13V354.031Z" fill="#EBEBEB"/>
<path d="M237 300.941H43.91C42.3973 300.938 40.9475 300.335 39.8788 299.265C38.8102 298.194 38.21 296.743 38.21 295.231V23.8006C38.2231 22.2966 38.8292 20.8586 39.8964 19.7988C40.9637 18.7391 42.4059 18.1432 43.91 18.1406H237C238.514 18.1406 239.967 18.7422 241.038 19.813C242.108 20.8839 242.71 22.3362 242.71 23.8506V295.231C242.71 296.745 242.108 298.197 241.038 299.268C239.967 300.339 238.514 300.941 237 300.941ZM43.91 18.3406C42.4636 18.3433 41.0774 18.9197 40.0556 19.9434C39.0338 20.967 38.46 22.3543 38.46 23.8006V295.231C38.46 296.677 39.0338 298.064 40.0556 299.088C41.0774 300.112 42.4636 300.688 43.91 300.691H237C238.446 300.685 239.832 300.108 240.855 299.086C241.878 298.063 242.455 296.677 242.46 295.231V23.8006C242.455 22.3542 241.878 20.9685 240.855 19.9456C239.832 18.9228 238.446 18.3459 237 18.3406H43.91Z" fill="#EBEBEB"/>
<path d="M453.31 300.941H260.21C258.697 300.935 257.248 300.332 256.178 299.262C255.109 298.193 254.505 296.743 254.5 295.231V23.8006C254.516 22.2957 255.124 20.8577 256.193 19.7982C257.262 18.7387 258.705 18.1432 260.21 18.1406H453.31C454.812 18.1458 456.252 18.7429 457.317 19.8024C458.382 20.8618 458.987 22.2984 459 23.8006V295.231C459.001 295.979 458.855 296.721 458.57 297.413C458.285 298.105 457.866 298.734 457.338 299.264C456.809 299.794 456.182 300.215 455.491 300.503C454.799 300.791 454.059 300.939 453.31 300.941ZM260.21 18.3406C258.764 18.3459 257.378 18.9228 256.355 19.9456C255.332 20.9685 254.755 22.3542 254.75 23.8006V295.231C254.755 296.677 255.332 298.063 256.355 299.086C257.378 300.108 258.764 300.685 260.21 300.691H453.31C454.756 300.685 456.142 300.108 457.165 299.086C458.188 298.063 458.765 296.677 458.77 295.231V23.8006C458.765 22.3542 458.188 20.9685 457.165 19.9456C456.142 18.9228 454.756 18.3459 453.31 18.3406H260.21Z" fill="#EBEBEB"/>
<path d="M119.31 137.541H54C53.6022 137.541 53.2206 137.383 52.9393 137.102C52.658 136.821 52.5 136.439 52.5 136.041V70.7012C52.5 70.3033 52.658 69.9218 52.9393 69.6405C53.2206 69.3592 53.6022 69.2012 54 69.2012H119.35C119.748 69.2012 120.129 69.3592 120.411 69.6405C120.692 69.9218 120.85 70.3033 120.85 70.7012V136.001C120.85 136.399 120.692 136.781 120.411 137.062C120.129 137.343 119.748 137.501 119.35 137.501L119.31 137.541ZM55.46 134.541H117.81V72.2012H55.46V134.541Z" fill="#EBEBEB"/>
<path d="M119.31 137.541C118.912 137.541 118.531 137.383 118.25 137.101L52.9001 71.7615C52.6521 71.4763 52.521 71.108 52.5328 70.7303C52.5447 70.3526 52.6986 69.9933 52.9639 69.7242C53.2292 69.4551 53.5863 69.2961 53.9638 69.2789C54.3413 69.2617 54.7114 69.3876 55.0001 69.6315L120.35 135.001C120.489 135.14 120.599 135.304 120.674 135.485C120.749 135.666 120.788 135.86 120.788 136.056C120.788 136.252 120.749 136.447 120.674 136.628C120.599 136.809 120.489 136.973 120.35 137.111C120.072 137.383 119.699 137.537 119.31 137.541Z" fill="#EBEBEB"/>
<path d="M54 137.54C53.5949 137.558 53.1992 137.414 52.9 137.14C52.6216 136.857 52.4655 136.477 52.4655 136.08C52.4655 135.683 52.6216 135.303 52.9 135.02L118.25 69.67C118.39 69.5308 118.556 69.4205 118.738 69.3454C118.921 69.2704 119.116 69.232 119.314 69.2324C119.511 69.2329 119.706 69.2722 119.888 69.3482C120.07 69.4241 120.236 69.5352 120.375 69.675C120.514 69.8149 120.625 69.9808 120.7 70.1633C120.775 70.3458 120.813 70.5412 120.813 70.7386C120.812 70.9359 120.773 71.1312 120.697 71.3133C120.621 71.4954 120.51 71.6608 120.37 71.8L55 137.14C54.7282 137.393 54.3716 137.536 54 137.54Z" fill="#EBEBEB"/>
<path d="M184.65 137.541H119.31C118.912 137.541 118.531 137.383 118.249 137.102C117.968 136.821 117.81 136.439 117.81 136.041V70.7012C117.81 70.3033 117.968 69.9218 118.249 69.6405C118.531 69.3592 118.912 69.2012 119.31 69.2012H184.65C185.048 69.2012 185.429 69.3592 185.711 69.6405C185.992 69.9218 186.15 70.3033 186.15 70.7012V136.001C186.155 136.201 186.121 136.401 186.048 136.587C185.975 136.774 185.865 136.944 185.725 137.088C185.585 137.231 185.418 137.345 185.233 137.423C185.049 137.501 184.85 137.541 184.65 137.541ZM120.81 134.541H183.15V72.2012H120.81V134.541Z" fill="#EBEBEB"/>
<path d="M184.65 137.541C184.252 137.541 183.871 137.382 183.59 137.101L118.25 71.761C118.11 71.6218 117.999 71.4564 117.923 71.2743C117.847 71.0921 117.808 70.8968 117.807 70.6995C117.807 70.5022 117.845 70.3067 117.92 70.1242C117.995 69.9417 118.106 69.7758 118.245 69.636C118.384 69.4961 118.55 69.385 118.732 69.3091C118.914 69.2332 119.109 69.1938 119.306 69.1934C119.504 69.1929 119.699 69.2313 119.882 69.3064C120.064 69.3815 120.23 69.4918 120.37 69.631L185.72 135.001C185.998 135.284 186.155 135.664 186.155 136.061C186.155 136.458 185.998 136.838 185.72 137.121C185.431 137.394 185.047 137.544 184.65 137.541Z" fill="#EBEBEB"/>
<path d="M119.31 137.54C119.015 137.54 118.726 137.453 118.48 137.289C118.234 137.125 118.042 136.893 117.928 136.621C117.814 136.348 117.782 136.048 117.838 135.758C117.893 135.468 118.033 135.201 118.24 134.99L183.58 69.6402C183.869 69.3902 184.241 69.2588 184.623 69.2725C185.004 69.2861 185.366 69.4438 185.636 69.7138C185.906 69.9837 186.064 70.3459 186.078 70.7275C186.091 71.109 185.96 71.4816 185.71 71.7702L120.36 137.15C120.073 137.411 119.697 137.551 119.31 137.54Z" fill="#EBEBEB"/>
<path d="M250 137.541H184.65C184.252 137.541 183.871 137.383 183.589 137.102C183.308 136.821 183.15 136.439 183.15 136.041V70.7012C183.15 70.3033 183.308 69.9218 183.589 69.6405C183.871 69.3592 184.252 69.2012 184.65 69.2012H250C250.398 69.2012 250.779 69.3592 251.061 69.6405C251.342 69.9218 251.5 70.3033 251.5 70.7012V136.001C251.505 136.201 251.471 136.401 251.398 136.587C251.325 136.774 251.215 136.944 251.075 137.088C250.935 137.231 250.768 137.345 250.583 137.423C250.399 137.501 250.2 137.541 250 137.541ZM186.15 134.541H248.5V72.2012H186.15V134.541Z" fill="#EBEBEB"/>
<path d="M250 137.54C249.602 137.54 249.221 137.382 248.94 137.1L183.59 71.7604C183.34 71.4718 183.209 71.0993 183.222 70.7177C183.236 70.3362 183.394 69.974 183.664 69.704C183.934 69.434 184.296 69.2763 184.677 69.2627C185.059 69.249 185.431 69.3804 185.72 69.6304L251.06 135C251.199 135.139 251.309 135.303 251.384 135.484C251.459 135.665 251.498 135.859 251.498 136.055C251.498 136.251 251.459 136.445 251.384 136.627C251.309 136.808 251.199 136.972 251.06 137.11C250.777 137.388 250.396 137.543 250 137.54Z" fill="#EBEBEB"/>
<path d="M184.65 137.541C184.354 137.541 184.064 137.453 183.817 137.288C183.571 137.123 183.379 136.889 183.265 136.615C183.152 136.341 183.122 136.039 183.18 135.749C183.238 135.458 183.381 135.191 183.59 134.981L248.94 69.631C249.08 69.4918 249.246 69.3815 249.428 69.3064C249.611 69.2313 249.806 69.1929 250.004 69.1934C250.201 69.1938 250.396 69.2332 250.578 69.3091C250.76 69.385 250.926 69.4961 251.065 69.636C251.204 69.7758 251.315 69.9417 251.39 70.1242C251.465 70.3067 251.503 70.5022 251.503 70.6995C251.502 70.8968 251.463 71.0921 251.387 71.2743C251.311 71.4564 251.2 71.6218 251.06 71.761L185.72 137.141C185.429 137.408 185.045 137.552 184.65 137.541Z" fill="#EBEBEB"/>
<path d="M315.35 137.541H250C249.602 137.541 249.221 137.383 248.939 137.102C248.658 136.821 248.5 136.439 248.5 136.041V70.7012C248.5 70.3033 248.658 69.9218 248.939 69.6405C249.221 69.3592 249.602 69.2012 250 69.2012H315.35C315.748 69.2012 316.129 69.3592 316.411 69.6405C316.692 69.9218 316.85 70.3033 316.85 70.7012V136.001C316.855 136.201 316.82 136.401 316.747 136.587C316.675 136.774 316.565 136.944 316.425 137.088C316.285 137.231 316.118 137.345 315.933 137.423C315.749 137.501 315.55 137.541 315.35 137.541ZM251.5 134.541H313.85V72.2012H251.5V134.541Z" fill="#EBEBEB"/>
<path d="M315.35 137.541C314.95 137.539 314.566 137.381 314.28 137.101L248.94 71.761C248.8 71.6218 248.689 71.4564 248.613 71.2743C248.537 71.0921 248.498 70.8968 248.497 70.6995C248.497 70.5022 248.535 70.3067 248.61 70.1242C248.686 69.9417 248.796 69.7758 248.935 69.636C249.074 69.4961 249.24 69.385 249.422 69.3091C249.604 69.2332 249.799 69.1938 249.997 69.1934C250.194 69.1929 250.389 69.2313 250.572 69.3064C250.754 69.3815 250.92 69.4918 251.06 69.631L316.41 135.001C316.62 135.211 316.762 135.478 316.82 135.769C316.878 136.059 316.848 136.361 316.735 136.635C316.621 136.909 316.429 137.143 316.183 137.308C315.936 137.473 315.647 137.561 315.35 137.561V137.541Z" fill="#EBEBEB"/>
<path d="M250 137.541C249.705 137.541 249.416 137.454 249.17 137.29C248.924 137.127 248.732 136.894 248.618 136.622C248.504 136.35 248.472 136.05 248.528 135.76C248.583 135.47 248.723 135.202 248.93 134.991L314.27 69.6414C314.401 69.4917 314.561 69.3694 314.739 69.2813C314.918 69.1932 315.112 69.1412 315.311 69.1282C315.51 69.1152 315.709 69.1415 315.898 69.2055C316.086 69.2696 316.26 69.3701 316.41 69.5014C316.56 69.6328 316.682 69.7923 316.77 69.9709C316.858 70.1495 316.91 70.3437 316.923 70.5424C316.936 70.7412 316.91 70.9405 316.846 71.1291C316.782 71.3176 316.681 71.4917 316.55 71.6414L316.4 71.7914L251.05 137.171C250.76 137.425 250.385 137.557 250 137.541Z" fill="#EBEBEB"/>
<path d="M380.69 137.541H315.35C314.952 137.541 314.571 137.383 314.289 137.102C314.008 136.821 313.85 136.439 313.85 136.041V70.7012C313.85 70.3033 314.008 69.9218 314.289 69.6405C314.571 69.3592 314.952 69.2012 315.35 69.2012H380.69C381.088 69.2012 381.469 69.3592 381.751 69.6405C382.032 69.9218 382.19 70.3033 382.19 70.7012V136.001C382.195 136.201 382.161 136.401 382.088 136.587C382.015 136.774 381.905 136.944 381.765 137.088C381.625 137.231 381.458 137.345 381.273 137.423C381.089 137.501 380.89 137.541 380.69 137.541ZM316.85 134.541H379.19V72.2012H316.85V134.541Z" fill="#EBEBEB"/>
<path d="M380.69 137.54C380.292 137.54 379.911 137.382 379.63 137.1L314.28 71.7604C314.03 71.4718 313.899 71.0993 313.912 70.7177C313.926 70.3362 314.084 69.974 314.354 69.704C314.624 69.434 314.986 69.2763 315.367 69.2627C315.749 69.249 316.121 69.3804 316.41 69.6304L381.75 135C381.889 135.139 381.999 135.303 382.074 135.484C382.149 135.665 382.188 135.859 382.188 136.055C382.188 136.251 382.149 136.445 382.074 136.627C381.999 136.808 381.889 136.972 381.75 137.11C381.467 137.388 381.086 137.543 380.69 137.54Z" fill="#EBEBEB"/>
<path d="M315.35 137.541C314.95 137.539 314.566 137.381 314.28 137.101C314.002 136.818 313.845 136.438 313.845 136.041C313.845 135.644 314.002 135.263 314.28 134.981L379.63 69.631C379.913 69.3498 380.295 69.1924 380.694 69.1934C381.092 69.1943 381.474 69.3535 381.755 69.636C382.036 69.9184 382.194 70.301 382.193 70.6995C382.192 71.098 382.033 71.4798 381.75 71.761L316.41 137.141C316.12 137.404 315.741 137.547 315.35 137.541Z" fill="#EBEBEB"/>
<path d="M446 137.541H380.69C380.292 137.541 379.911 137.383 379.629 137.102C379.348 136.821 379.19 136.439 379.19 136.041V70.7012C379.19 70.3033 379.348 69.9218 379.629 69.6405C379.911 69.3592 380.292 69.2012 380.69 69.2012H446C446.398 69.2012 446.779 69.3592 447.061 69.6405C447.342 69.9218 447.5 70.3033 447.5 70.7012V136.001C447.505 136.201 447.47 136.401 447.397 136.587C447.324 136.774 447.215 136.944 447.075 137.088C446.935 137.231 446.768 137.345 446.583 137.423C446.399 137.501 446.2 137.541 446 137.541ZM382.15 134.541H444.5V72.2012H382.19L382.15 134.541Z" fill="#EBEBEB"/>
<path d="M446 137.54C445.629 137.536 445.272 137.393 445 137.14L379.65 71.8C379.51 71.6608 379.399 71.4954 379.323 71.3133C379.247 71.1312 379.208 70.9359 379.208 70.7386C379.207 70.5412 379.245 70.3458 379.321 70.1633C379.396 69.9808 379.506 69.8149 379.645 69.675C379.784 69.5352 379.95 69.4241 380.132 69.3482C380.314 69.2722 380.509 69.2329 380.707 69.2324C380.904 69.232 381.099 69.2704 381.282 69.3454C381.464 69.4205 381.63 69.5308 381.77 69.67L447.12 135C447.399 135.283 447.555 135.663 447.555 136.06C447.555 136.457 447.399 136.837 447.12 137.12C446.971 137.261 446.795 137.371 446.603 137.443C446.41 137.515 446.205 137.548 446 137.54Z" fill="#EBEBEB"/>
<path d="M380.69 137.541C380.395 137.541 380.106 137.453 379.86 137.29C379.614 137.126 379.422 136.894 379.308 136.621C379.194 136.349 379.162 136.049 379.218 135.759C379.273 135.469 379.413 135.202 379.62 134.991L445 69.631C445.14 69.4918 445.306 69.3815 445.488 69.3064C445.671 69.2313 445.866 69.1929 446.063 69.1934C446.261 69.1938 446.456 69.2332 446.638 69.3091C446.82 69.385 446.986 69.4961 447.125 69.636C447.264 69.7758 447.374 69.9417 447.45 70.1242C447.525 70.3067 447.563 70.5022 447.563 70.6995C447.562 70.8968 447.523 71.0921 447.447 71.2743C447.371 71.4564 447.26 71.6218 447.12 71.761L381.75 137.141C381.463 137.408 381.082 137.551 380.69 137.541Z" fill="#EBEBEB"/>
<path d="M82.5199 170.212L98.8599 171.022L90.2699 150.352L79.3199 162.522L82.5199 170.212Z" fill="#E0E0E0"/>
<path d="M83.17 160.37L82.86 145.08L73.83 154.39L78.16 164.52L83.17 160.37Z" fill="#E0E0E0"/>
<path d="M86.75 169L97.39 179.99L84.41 179.84L80.28 169.63L86.75 169Z" fill="#E0E0E0"/>
<path d="M65.83 183.141L88.09 173.881L80.62 155.881L58.36 165.141C55.9823 166.138 54.0961 168.035 53.1141 170.419C52.1321 172.803 52.1342 175.479 53.12 177.861C54.1091 180.243 56.0021 182.137 58.3843 183.126C60.7666 184.116 63.4439 184.121 65.83 183.141Z" fill="#EBEBEB"/>
<path d="M60.71 306.751C60.3121 306.751 59.9306 306.593 59.6493 306.312C59.368 306.031 59.21 305.649 59.21 305.251V174.781C59.21 174.383 59.368 174.002 59.6493 173.721C59.9306 173.439 60.3121 173.281 60.71 173.281C61.1078 173.281 61.4893 173.439 61.7706 173.721C62.0519 174.002 62.21 174.383 62.21 174.781V305.251C62.21 305.649 62.0519 306.031 61.7706 306.312C61.4893 306.593 61.1078 306.751 60.71 306.751Z" fill="#EBEBEB"/>
<path d="M54.83 299.14H66.59C67.7995 299.135 68.9578 298.651 69.8121 297.795C70.6664 296.939 71.1474 295.78 71.15 294.57C71.15 293.36 70.6699 292.199 69.815 291.342C68.9601 290.485 67.8003 290.003 66.59 290H54.83C53.6205 290.003 52.4612 290.484 51.605 291.338C50.7488 292.192 50.2653 293.351 50.26 294.56C50.2626 295.772 50.7446 296.934 51.6008 297.792C52.457 298.65 53.6179 299.135 54.83 299.14Z" fill="#E0E0E0"/>
<path d="M83.71 345.541H86.27L66.27 297.141H63.71L83.71 345.541Z" fill="#E0E0E0"/>
<path d="M37.71 345.541H35.15L55.15 297.141H57.71L37.71 345.541Z" fill="#E0E0E0"/>
<path d="M52.4901 345.541H49.9301L59.6001 297.141H62.1501L52.4901 345.541Z" fill="#E0E0E0"/>
<path d="M443.29 235.831L449.81 250.841L464.52 233.971L448.76 229.561L443.29 235.831Z" fill="#E0E0E0"/>
<path d="M452.39 232.051L465.96 224.991L453.61 221.031L446.45 229.401L452.39 232.051Z" fill="#E0E0E0"/>
<path d="M446.26 239.09L441.13 253.5L435.5 241.8L442.82 233.57L446.26 239.09Z" fill="#E0E0E0"/>
<path d="M424.26 226.64L442.44 242.48L455.22 227.81L437 212C435.051 210.316 432.514 209.47 429.944 209.648C427.374 209.826 424.978 211.013 423.28 212.95C421.608 214.902 420.774 217.434 420.957 219.997C421.141 222.56 422.327 224.947 424.26 226.64Z" fill="#EBEBEB"/>
<path d="M429.52 306.75C429.122 306.75 428.741 306.592 428.459 306.311C428.178 306.03 428.02 305.648 428.02 305.25V218.32C428.02 217.922 428.178 217.541 428.459 217.26C428.741 216.978 429.122 216.82 429.52 216.82C429.918 216.82 430.299 216.978 430.581 217.26C430.862 217.541 431.02 217.922 431.02 218.32V305.25C431.02 305.648 430.862 306.03 430.581 306.311C430.299 306.592 429.918 306.75 429.52 306.75Z" fill="#EBEBEB"/>
<path d="M423.64 299.14H435.4C436.61 299.135 437.768 298.651 438.622 297.795C439.476 296.939 439.957 295.78 439.96 294.57C439.96 293.36 439.48 292.199 438.625 291.342C437.77 290.485 436.61 290.003 435.4 290H423.64C422.431 290.003 421.271 290.484 420.415 291.338C419.559 292.192 419.075 293.351 419.07 294.56C419.073 295.772 419.555 296.934 420.411 297.792C421.267 298.65 422.428 299.135 423.64 299.14Z" fill="#E0E0E0"/>
<path d="M452.52 345.541H455.07L435.07 297.141H432.52L452.52 345.541Z" fill="#E0E0E0"/>
<path d="M406.52 345.541H403.96L423.96 297.141H426.52L406.52 345.541Z" fill="#E0E0E0"/>
<path d="M421.3 345.541H418.74L428.41 297.141H430.96L421.3 345.541Z" fill="#E0E0E0"/>
<path d="M250 390.701C357.082 390.701 443.89 385.632 443.89 379.381C443.89 373.129 357.082 368.061 250 368.061C142.917 368.061 56.11 373.129 56.11 379.381C56.11 385.632 142.917 390.701 250 390.701Z" fill="#F5F5F5"/>
<path d="M129.53 16.4707H127.33C126.452 16.4707 125.74 17.1826 125.74 18.0607V322.581C125.74 323.459 126.452 324.171 127.33 324.171H129.53C130.408 324.171 131.12 323.459 131.12 322.581V18.0607C131.12 17.1826 130.408 16.4707 129.53 16.4707Z" fill="#263238"/>
<path opacity="0.8" d="M129.53 16.4707H127.33C126.452 16.4707 125.74 17.1826 125.74 18.0607V322.581C125.74 323.459 126.452 324.171 127.33 324.171H129.53C130.408 324.171 131.12 323.459 131.12 322.581V18.0607C131.12 17.1826 130.408 16.4707 129.53 16.4707Z" fill="white"/>
<path d="M146.33 51.7812H90.83C89.9519 51.7812 89.24 52.4931 89.24 53.3713V55.5713C89.24 56.4494 89.9519 57.1613 90.83 57.1613H146.33C147.208 57.1613 147.92 56.4494 147.92 55.5713V53.3713C147.92 52.4931 147.208 51.7812 146.33 51.7812Z" fill="#263238"/>
<path opacity="0.8" d="M146.33 51.7812H90.83C89.9519 51.7812 89.24 52.4931 89.24 53.3713V55.5713C89.24 56.4494 89.9519 57.1613 90.83 57.1613H146.33C147.208 57.1613 147.92 56.4494 147.92 55.5713V53.3713C147.92 52.4931 147.208 51.7812 146.33 51.7812Z" fill="white"/>
<path d="M139.37 373.06H117.49C117.191 373.066 116.895 373.005 116.623 372.881C116.35 372.757 116.11 372.573 115.918 372.344C115.726 372.115 115.588 371.845 115.514 371.556C115.44 371.266 115.432 370.963 115.49 370.67L121.76 318C121.842 317.263 122.193 316.582 122.747 316.089C123.301 315.596 124.018 315.326 124.76 315.33H132.13C132.872 315.326 133.589 315.596 134.143 316.089C134.697 316.582 135.048 317.263 135.13 318L141.4 370.67C141.503 371.19 141.396 371.729 141.101 372.17C140.807 372.611 140.35 372.916 139.83 373.02C139.679 373.053 139.524 373.067 139.37 373.06Z" fill="#263238"/>
<path opacity="0.6" d="M139.37 373.06H117.49C117.191 373.066 116.895 373.005 116.623 372.881C116.35 372.757 116.11 372.573 115.918 372.344C115.726 372.115 115.588 371.845 115.514 371.556C115.44 371.266 115.432 370.963 115.49 370.67L121.76 318C121.842 317.263 122.193 316.582 122.747 316.089C123.301 315.596 124.018 315.326 124.76 315.33H132.13C132.872 315.326 133.589 315.596 134.143 316.089C134.697 316.582 135.048 317.263 135.13 318L141.4 370.67C141.503 371.19 141.396 371.729 141.101 372.17C140.807 372.611 140.35 372.916 139.83 373.02C139.679 373.053 139.524 373.067 139.37 373.06Z" fill="white"/>
<path d="M187.08 119.021H113.76L134.73 22.3711H208.05L187.08 119.021Z" fill="#263238"/>
<path d="M103.47 100.282L113.76 119.002L134.76 22.3516L117.08 36.1416C113.199 39.1728 110.502 43.4684 109.46 48.2816L101.35 85.6716C100.265 90.6376 101.018 95.8286 103.47 100.282Z" fill="#263238"/>
<path opacity="0.3" d="M116.84 116.531L136.73 24.8613H204.97L185.08 116.531H116.84Z" fill="white"/>
<path opacity="0.3" d="M120.92 114.05L139.74 27.3398H202.89L184.07 114.05H120.92Z" fill="white"/>
<path d="M125 111.56L142.74 29.8301H200.81L183.07 111.56H125Z" fill="white"/>
<path d="M404.74 87.2598H223.94C218.544 87.2598 214.17 91.6339 214.17 97.0298V369.61C214.17 375.006 218.544 379.38 223.94 379.38H404.74C410.136 379.38 414.51 375.006 414.51 369.61V97.0298C414.51 91.6339 410.136 87.2598 404.74 87.2598Z" fill="#4779A8"/>
<path opacity="0.2" d="M412.4 369.61C412.678 369.611 412.953 369.557 413.209 369.452C413.466 369.346 413.699 369.191 413.895 368.995C414.091 368.798 414.247 368.565 414.352 368.309C414.458 368.052 414.511 367.777 414.51 367.5V99.1396C414.513 98.8621 414.46 98.5869 414.356 98.3298C414.252 98.0727 414.097 97.8388 413.902 97.6417C413.707 97.4446 413.475 97.2881 413.218 97.1813C412.962 97.0745 412.688 97.0195 412.41 97.0196C412.133 97.0182 411.858 97.0719 411.601 97.1775C411.345 97.283 411.111 97.4384 410.915 97.6346C410.719 97.8308 410.564 98.0639 410.458 98.3205C410.353 98.5771 410.299 98.8521 410.3 99.1296V367.49C410.298 367.767 410.35 368.042 410.454 368.299C410.559 368.556 410.713 368.79 410.908 368.987C411.103 369.185 411.336 369.341 411.592 369.448C411.848 369.555 412.123 369.61 412.4 369.61Z" fill="black"/>
<path d="M146 373C141.89 375 142.06 374.61 139.71 375.65C137.71 376.55 137.36 377.01 135.71 377.75C134.37 378.37 133.71 377.13 133.25 375.53C133.03 374.73 132.51 372.13 132.11 370.86L138.67 369.42C139.665 370.046 140.786 370.444 141.952 370.588C143.119 370.731 144.303 370.616 145.42 370.25C147.86 369.46 147.66 372.21 146 373Z" fill="#263238"/>
<path d="M114.5 257.439C114.5 257.439 119.82 291.879 123.27 309.439C126.88 327.909 134.58 356.669 138.27 367.979C137.27 368.839 133.5 369.879 131.2 369.829C131.2 369.829 114.32 342.129 111.5 316.369C98.71 288.369 95 267.139 96.93 258.699L114.5 257.439Z" fill="#263238"/>
<path d="M138.38 366.999C138.71 367.806 139.098 368.588 139.54 369.339C139.613 369.446 139.64 369.578 139.616 369.706C139.591 369.833 139.517 369.946 139.41 370.019H139.34C137.015 370.902 134.578 371.457 132.1 371.669C131.986 371.677 131.873 371.653 131.772 371.6C131.671 371.547 131.588 371.467 131.53 371.369L130.29 369.229C130.223 369.119 130.202 368.986 130.232 368.861C130.262 368.736 130.341 368.627 130.45 368.559C130.493 368.53 130.54 368.51 130.59 368.499L137.7 366.629C137.839 366.596 137.985 366.616 138.111 366.684C138.236 366.752 138.332 366.864 138.38 366.999Z" fill="#4779A8"/>
<path opacity="0.3" d="M138.38 366.999C138.71 367.806 139.098 368.588 139.54 369.339C139.613 369.446 139.64 369.578 139.616 369.706C139.591 369.833 139.517 369.946 139.41 370.019H139.34C137.015 370.902 134.578 371.457 132.1 371.669C131.986 371.677 131.873 371.653 131.772 371.6C131.671 371.547 131.588 371.467 131.53 371.369L130.29 369.229C130.223 369.119 130.202 368.986 130.232 368.861C130.262 368.736 130.341 368.627 130.45 368.559C130.493 368.53 130.54 368.51 130.59 368.499L137.7 366.629C137.839 366.596 137.985 366.616 138.111 366.684C138.236 366.752 138.332 366.864 138.38 366.999Z" fill="white"/>
<path d="M96.5 195.669C92.04 197.879 90.34 206.899 94.22 209.719C98.1 212.539 90.58 219.019 97.87 221.059C105.16 223.099 112.98 216.619 109.56 211.609C106.14 206.599 107.56 200.009 105.4 197.109C102 192.599 96.5 195.669 96.5 195.669Z" fill="#263238"/>
<path d="M108.74 379.379C104.17 379.459 104.49 379.179 101.92 379.139C99.7101 379.139 99.2101 379.379 97.4401 379.379C95.9701 379.379 95.8701 377.959 96.1401 376.329C96.2801 375.509 96.5301 374.509 96.7001 373.189L103.63 373.059C104.269 374.047 105.119 374.882 106.118 375.504C107.117 376.127 108.241 376.521 109.41 376.659C111.9 376.939 110.56 379.339 108.74 379.379Z" fill="#263238"/>
<path d="M107.48 258.699C107.48 258.699 105.9 293.499 105.8 311.429C105.7 330.249 102.07 359.959 103.43 371.769C102.34 372.419 98.4301 372.689 96.1401 372.189C96.1401 372.189 90.5601 341.699 92.8801 315.889C85.8801 285.889 85.6701 266.579 89.2701 258.699H107.48Z" fill="#263238"/>
<path d="M103.77 370.769C103.937 371.624 104.164 372.466 104.45 373.289C104.474 373.349 104.487 373.413 104.487 373.477C104.486 373.542 104.473 373.606 104.448 373.665C104.423 373.725 104.386 373.779 104.34 373.824C104.294 373.869 104.24 373.905 104.18 373.929H104.11C101.655 374.342 99.1533 374.406 96.68 374.119C96.5666 374.109 96.4587 374.066 96.3698 373.994C96.2809 373.923 96.2149 373.828 96.18 373.719L95.4 371.369C95.3775 371.31 95.367 371.247 95.3689 371.184C95.3708 371.121 95.3852 371.059 95.4112 371.001C95.4372 370.943 95.4743 370.892 95.5205 370.848C95.5666 370.805 95.6208 370.771 95.68 370.749H95.83L103.16 370.309C103.299 370.303 103.436 370.346 103.548 370.43C103.659 370.513 103.738 370.634 103.77 370.769Z" fill="#4779A8"/>
<path opacity="0.3" d="M103.77 370.769C103.937 371.624 104.164 372.466 104.45 373.289C104.474 373.349 104.487 373.413 104.487 373.477C104.486 373.542 104.473 373.606 104.448 373.665C104.423 373.725 104.386 373.779 104.34 373.824C104.294 373.869 104.24 373.905 104.18 373.929H104.11C101.655 374.342 99.1533 374.406 96.68 374.119C96.5666 374.109 96.4587 374.066 96.3698 373.994C96.2809 373.923 96.2149 373.828 96.18 373.719L95.4 371.369C95.3775 371.31 95.367 371.247 95.3689 371.184C95.3708 371.121 95.3852 371.059 95.4112 371.001C95.4372 370.943 95.4743 370.892 95.5205 370.848C95.5666 370.805 95.6208 370.771 95.68 370.749H95.83L103.16 370.309C103.299 370.303 103.436 370.346 103.548 370.43C103.659 370.513 103.738 370.634 103.77 370.769Z" fill="white"/>
<path d="M110.79 224.479L112.33 224.779C112.9 224.879 113.49 224.949 114.07 225.009C115.249 225.137 116.435 225.191 117.62 225.169C118.792 225.16 119.962 225.067 121.12 224.889C122.273 224.715 123.413 224.461 124.53 224.129L122.22 227.509C122.22 227.749 122.29 227.759 122.22 227.639C122.189 227.471 122.142 227.307 122.08 227.149C121.894 226.662 121.677 226.188 121.43 225.729C120.88 224.729 120.24 223.649 119.55 222.609C118.86 221.569 118.15 220.479 117.43 219.409L115.24 216.189C114.957 215.798 114.825 215.319 114.868 214.839C114.91 214.359 115.124 213.911 115.471 213.576C115.818 213.242 116.274 213.044 116.755 213.018C117.236 212.993 117.71 213.142 118.09 213.439C119.22 214.259 120.24 215.129 121.28 216.019C122.32 216.909 123.28 217.859 124.28 218.859C125.282 219.881 126.218 220.966 127.08 222.109C127.559 222.749 128 223.417 128.4 224.109C128.638 224.539 128.842 224.987 129.01 225.449C129.26 226.112 129.401 226.811 129.43 227.519C129.458 228.212 129.273 228.898 128.899 229.482C128.526 230.067 127.981 230.523 127.34 230.789L127.11 230.889C125.656 231.518 124.151 232.02 122.61 232.389C121.85 232.589 121.07 232.709 120.3 232.849C119.526 232.982 118.745 233.065 117.96 233.099C116.403 233.229 114.837 233.229 113.28 233.099C112.5 233.019 111.72 232.909 110.94 232.779C110.55 232.709 110.16 232.639 109.76 232.539C109.36 232.439 109.02 232.359 108.46 232.189C107.513 231.867 106.72 231.201 106.239 230.323C105.758 229.446 105.624 228.42 105.863 227.448C106.101 226.476 106.695 225.629 107.528 225.074C108.361 224.518 109.371 224.295 110.36 224.449L110.79 224.479Z" fill="#FFC3BD"/>
<path d="M102.27 224.739C102.27 222.599 107.68 222.339 115.08 224.389C117.82 228.149 117.23 235.669 117.23 235.669C117.23 235.669 101.73 234.259 102.27 224.739Z" fill="#4779A8"/>
<path d="M115.32 232.709C115.299 236.426 115.062 240.139 114.61 243.829C114.25 248.719 115.47 258.019 113.93 258.699C110.55 261.059 100.93 260.379 89.27 258.699C88.77 251.699 88.95 246.869 84.53 231.239C84.2965 230.52 84.2073 229.762 84.2675 229.009C84.3277 228.255 84.5362 227.521 84.8809 226.848C85.2256 226.175 85.6998 225.577 86.2763 225.089C86.8527 224.6 87.52 224.229 88.24 223.999C88.6293 223.871 89.0318 223.787 89.44 223.749C90.44 223.649 91.44 223.569 92.52 223.519C96.2484 223.249 99.9915 223.249 103.72 223.519C104.93 223.629 106.2 223.779 107.4 223.949C109.532 224.262 111.488 225.308 112.933 226.907C114.378 228.505 115.222 230.556 115.32 232.709Z" fill="#4779A8"/>
<path d="M93.31 210.93C94.31 214.53 95.48 221.13 93.14 223.54C93.14 223.54 96.55 223.02 103.79 227.54C105.89 224.54 104.33 223.54 104.33 223.54C100.24 222.54 100.13 219.6 100.62 216.8L93.31 210.93Z" fill="#FFC3BD"/>
<path d="M102.27 226.599C99.88 226.939 99.14 230.599 99.14 230.599C99.14 230.599 93.41 226.539 91.59 223.679C92.3112 223.28 93.0091 222.839 93.68 222.359C93.68 222.359 100.88 225.229 102.27 226.599Z" fill="white"/>
<path d="M104.54 226.22C105.222 226.451 105.837 226.845 106.332 227.367C106.827 227.89 107.187 228.526 107.38 229.22C107.93 223.97 105.44 223.49 105.44 223.49C104.786 223.115 104.015 223.001 103.28 223.17C103.813 223.451 104.231 223.91 104.461 224.467C104.692 225.024 104.719 225.644 104.54 226.22Z" fill="white"/>
<path opacity="0.2" d="M96.29 213.318L100.61 216.788C100.487 217.448 100.423 218.117 100.42 218.788C98.87 218.568 96.63 216.888 96.35 215.278C96.2101 214.634 96.1898 213.97 96.29 213.318Z" fill="black"/>
<path d="M88.4901 206.14C90.6101 211.67 91.3901 214.04 95.1601 216.19C100.83 219.42 107.16 215.99 106.75 210.04C106.37 204.69 102.96 196.55 96.7501 195.74C95.4123 195.513 94.0382 195.649 92.7711 196.134C91.504 196.62 90.3904 197.436 89.5466 198.499C88.7027 199.561 88.1595 200.831 87.9737 202.175C87.7878 203.519 87.9662 204.888 88.4901 206.14Z" fill="#FFC3BD"/>
<path d="M84.28 202.139C91.35 204.759 92.69 200.389 96.5 198.509C100.31 196.629 102.41 197.999 103 194.999C103.91 189.999 95.45 187.999 97 191.139C93.55 189.889 90.59 193.259 90.59 193.259C90.12 193.879 87.78 195.929 87.78 195.929C87.78 195.929 79.12 197.139 84.28 202.139Z" fill="#263238"/>
<path d="M84.1 201.139C79.64 203.349 79.52 209.949 83.39 212.779C87.26 215.609 79.85 220.509 87.14 222.559C94.43 224.609 99.69 219.689 96.27 214.679C92.85 209.669 95.14 202.139 92.1 200.139C89.06 198.139 84.1 201.139 84.1 201.139Z" fill="#263238"/>
<path opacity="0.2" d="M96.48 205.648C95.7243 205.429 94.9127 205.515 94.22 205.888C94.9818 205.959 95.75 205.877 96.48 205.648Z" fill="black"/>
<path opacity="0.2" d="M96.5001 206.19C96.1443 206.16 95.7865 206.211 95.4526 206.337C95.1187 206.463 94.8172 206.662 94.5701 206.92C95.259 206.82 95.9177 206.571 96.5001 206.19Z" fill="black"/>
<path d="M97.73 205.43C97.89 205.9 98.26 206.22 98.57 206.14C98.88 206.06 98.99 205.61 98.83 205.14C98.67 204.67 98.3 204.35 97.99 204.43C97.68 204.51 97.57 205 97.73 205.43Z" fill="#263238"/>
<path d="M103.51 203.999C103.67 204.469 104.04 204.779 104.35 204.699C104.66 204.619 104.77 204.179 104.62 203.699C104.47 203.219 104.08 202.909 103.78 202.989C103.48 203.069 103.35 203.539 103.51 203.999Z" fill="#263238"/>
<path d="M103.65 203.079L104.65 202.459C104.65 202.459 104.38 203.489 103.65 203.079Z" fill="#263238"/>
<path d="M102.16 205.209C102.94 206.177 103.84 207.041 104.84 207.779C104.653 208.013 104.415 208.202 104.145 208.331C103.875 208.461 103.58 208.529 103.28 208.529L102.16 205.209Z" fill="#ED847E"/>
<path d="M101.17 211C101.443 210.981 101.715 210.937 101.98 210.87C102.014 210.86 102.043 210.839 102.061 210.809C102.08 210.779 102.086 210.744 102.08 210.71C102.075 210.691 102.067 210.673 102.055 210.658C102.044 210.642 102.029 210.63 102.012 210.62C101.995 210.611 101.976 210.605 101.957 210.603C101.938 210.601 101.918 210.604 101.9 210.61C101.302 210.769 100.676 210.792 100.068 210.676C99.4607 210.56 98.8869 210.308 98.39 209.94C98.3794 209.922 98.3652 209.908 98.3484 209.896C98.3315 209.885 98.3125 209.878 98.2925 209.875C98.2725 209.872 98.2521 209.873 98.2326 209.878C98.2131 209.884 98.1951 209.894 98.1797 209.907C98.1644 209.92 98.1521 209.936 98.1436 209.955C98.1352 209.973 98.1308 209.993 98.1309 210.013C98.1309 210.033 98.1353 210.053 98.1438 210.072C98.1523 210.09 98.1647 210.106 98.18 210.12C99.0311 210.777 100.098 211.091 101.17 211Z" fill="#263238"/>
<path d="M88.3201 210.91C88.6292 211.398 89.0404 211.814 89.5255 212.128C90.0106 212.442 90.558 212.647 91.1301 212.73C92.5201 212.86 92.8201 211.14 92.1301 209.61C91.4401 208.08 89.9901 206.5 88.7501 207.08C87.5101 207.66 87.4101 209.61 88.3201 210.91Z" fill="#FFB573"/>
<path d="M96 203.33C96.0375 203.326 96.0736 203.314 96.105 203.293C96.1363 203.272 96.1621 203.243 96.18 203.21C96.3636 202.916 96.6163 202.671 96.916 202.497C97.2158 202.323 97.5535 202.224 97.9 202.21C97.9354 202.211 97.9708 202.206 98.0041 202.193C98.0373 202.181 98.0679 202.162 98.0939 202.138C98.1199 202.114 98.1409 202.085 98.1556 202.053C98.1704 202.02 98.1787 201.986 98.18 201.95C98.1727 201.872 98.1371 201.8 98.08 201.746C98.0229 201.693 97.9482 201.662 97.87 201.66C97.4249 201.675 96.9907 201.801 96.6078 202.029C96.2249 202.256 95.9057 202.576 95.68 202.96C95.6605 202.994 95.6478 203.03 95.6428 203.069C95.6378 203.107 95.6405 203.146 95.6508 203.183C95.661 203.221 95.6786 203.255 95.7025 203.286C95.7264 203.316 95.7561 203.341 95.79 203.36C95.8613 203.376 95.936 203.365 96 203.33Z" fill="#263238"/>
<path d="M104.15 200.549C104.186 200.549 104.222 200.541 104.255 200.525C104.288 200.51 104.317 200.487 104.34 200.459C104.367 200.433 104.388 200.402 104.402 200.368C104.417 200.334 104.424 200.297 104.424 200.259C104.424 200.222 104.417 200.185 104.402 200.151C104.388 200.117 104.367 200.086 104.34 200.059C104.004 199.733 103.597 199.49 103.151 199.35C102.705 199.209 102.232 199.175 101.77 199.249C101.736 199.257 101.705 199.27 101.676 199.29C101.648 199.309 101.624 199.334 101.605 199.363C101.587 199.392 101.574 199.424 101.568 199.458C101.562 199.491 101.563 199.526 101.57 199.559C101.593 199.633 101.643 199.695 101.709 199.734C101.776 199.773 101.855 199.785 101.93 199.769C102.292 199.726 102.66 199.763 103.005 199.879C103.351 199.995 103.667 200.186 103.93 200.439C103.958 200.471 103.991 200.498 104.029 200.516C104.067 200.535 104.108 200.547 104.15 200.549Z" fill="#263238"/>
<path d="M97.87 204.499L98.87 203.879C98.87 203.879 98.6 204.909 97.87 204.499Z" fill="#263238"/>
<path d="M100.52 242.449L98.6901 242.279C98.3512 242.244 98.0088 242.291 97.692 242.416C97.3752 242.542 97.0933 242.741 96.8701 242.999L94.7501 245.439C94.3319 245.92 94.0347 246.494 93.8834 247.113C93.7321 247.733 93.7309 248.379 93.8801 248.999L94.0701 249.779C97.0701 250.279 100.71 248.599 100.71 248.599L101.8 248.229C102.028 248.165 102.24 248.056 102.424 247.908C102.609 247.76 102.761 247.577 102.873 247.369C102.985 247.16 103.054 246.932 103.076 246.697C103.098 246.461 103.072 246.224 103 245.999L102.31 243.839C102.181 243.457 101.943 243.121 101.625 242.874C101.306 242.627 100.922 242.479 100.52 242.449Z" fill="#FFC3BD"/>
<path d="M115.3 207.24L116.89 208.17C117.172 208.353 117.408 208.597 117.582 208.885C117.755 209.172 117.86 209.496 117.89 209.83L118.18 213.05C118.236 213.684 118.141 214.323 117.901 214.912C117.661 215.502 117.283 216.026 116.8 216.44L116.19 216.96C113.45 215.6 111.49 212.11 111.49 212.11L110.82 211.18C110.678 210.995 110.574 210.783 110.514 210.557C110.454 210.331 110.44 210.096 110.471 209.864C110.503 209.633 110.58 209.41 110.698 209.208C110.817 209.007 110.973 208.831 111.16 208.69L112.99 207.34C113.321 207.094 113.718 206.953 114.13 206.936C114.542 206.918 114.949 207.024 115.3 207.24Z" fill="#FFC3BD"/>
<path d="M89.77 233.569L89.07 235.409C88.83 236.059 88.61 236.719 88.39 237.409C87.96 238.739 87.58 240.079 87.23 241.409C86.88 242.739 86.59 244.099 86.36 245.409C86.13 246.719 85.99 248.099 85.88 249.409L85.8 248.649C85.7291 248.469 85.6314 248.3 85.51 248.149C85.3487 247.958 85.1425 247.811 84.91 247.719C84.58 247.619 84.71 247.769 85 247.789C85.907 247.85 86.818 247.769 87.7 247.549C88.7 247.349 89.85 247.059 90.96 246.739C92.07 246.419 93.21 246.039 94.29 245.739H94.39C94.8362 245.594 95.3191 245.61 95.7544 245.785C96.1897 245.96 96.5497 246.283 96.7713 246.696C96.9929 247.11 97.0622 247.588 96.9669 248.047C96.8716 248.507 96.6178 248.918 96.25 249.209C95.2394 250.02 94.1845 250.775 93.09 251.469C91.9632 252.167 90.7906 252.789 89.58 253.329C88.1882 253.978 86.6977 254.391 85.17 254.549C83.9909 254.666 82.8017 254.473 81.72 253.989C80.9343 253.625 80.2482 253.076 79.72 252.389C79.2402 251.746 78.8996 251.011 78.72 250.229C78.678 250.048 78.6512 249.864 78.64 249.679V249.469C78.5699 247.802 78.61 246.131 78.76 244.469C78.8998 242.839 79.1402 241.219 79.48 239.619C79.802 238.033 80.2059 236.464 80.69 234.919C80.95 234.149 81.21 233.389 81.49 232.619C81.7776 231.817 82.1115 231.032 82.49 230.269C82.936 229.349 83.7174 228.635 84.6736 228.273C85.6299 227.911 86.6885 227.929 87.6319 228.323C88.5753 228.717 89.3319 229.458 89.7463 230.393C90.1607 231.327 90.2014 232.385 89.86 233.349L89.77 233.569Z" fill="#FFC3BD"/>
<path d="M89.2101 223.799C85.2101 224.419 83.5901 225.639 80.3101 233.709C81.8001 236.709 88.7701 239.599 88.7701 239.599C88.7701 239.599 94.2401 229.669 89.2101 223.799Z" fill="#4779A8"/>
<path d="M104.76 229.58C104.85 230.04 104.76 230.42 104.51 230.42C104.26 230.42 104.02 230.04 103.93 229.58C103.84 229.12 103.93 228.75 104.18 228.75C104.43 228.75 104.67 229.14 104.76 229.58Z" fill="white"/>
<path d="M105.2 233.499C105.2 233.969 105.05 234.319 104.82 234.289C104.59 234.259 104.4 233.839 104.38 233.379C104.36 232.919 104.53 232.549 104.75 232.589C104.97 232.629 105.18 232.999 105.2 233.499Z" fill="white"/>
<path d="M92.56 208.94C91.9 206.53 89.85 204.94 87.99 205.36C86.13 205.78 85.15 208.09 85.81 210.5C86.47 212.91 88.52 214.5 90.38 214.08C92.24 213.66 93.22 211.35 92.56 208.94Z" fill="#4779A8"/>
<path opacity="0.3" d="M90.1101 209.86C89.5401 208 88.1901 206.63 87.1101 206.79C86.0301 206.95 85.62 208.59 86.2 210.44C86.78 212.29 88.12 213.67 89.2 213.51C90.28 213.35 90.6901 211.71 90.1101 209.86Z" fill="black"/>
<path d="M89.6201 205.47C88.3701 201.35 87.9801 196.1 90.5201 193.18C89.3701 193.29 87.4401 195.52 87.4401 195.52C86.2501 197.42 85.6201 201.59 87.0801 206.19C87.5137 206.425 88.022 206.481 88.4966 206.347C88.9712 206.212 89.3744 205.897 89.6201 205.47Z" fill="#4779A8"/>
<path d="M180.5 203.16L132.49 215.86L138.72 219.81L181.88 208.39L180.5 203.16Z" fill="#263238"/>
<path d="M166.87 234.648H148.5L150.35 239.618H166.87V234.648Z" fill="#263238"/>
<path d="M182.44 190.707L179.975 191.359L182.136 199.528L184.602 198.876L182.44 190.707Z" fill="#263238"/>
<path d="M189.96 185.959L181.95 188.819L185.1 200.729L193.48 199.259L189.96 185.959Z" fill="#263238"/>
<path opacity="0.1" d="M189.96 185.959L181.95 188.819L185.1 200.729L193.48 199.259L189.96 185.959Z" fill="white"/>
<path opacity="0.1" d="M190.76 188.969L182.72 191.729L183.25 193.769L191.36 191.239L190.76 188.969Z" fill="white"/>
<path d="M192.98 186.616L191.68 186.965L194.61 197.897L195.91 197.548L192.98 186.616Z" fill="#263238"/>
<path d="M197.13 182.869L190.96 184.499L195.07 200.029L199.45 198.869L197.13 182.869Z" fill="#263238"/>
<path opacity="0.1" d="M197.13 182.869L190.96 184.499L195.07 200.029L199.45 198.869L197.13 182.869Z" fill="white"/>
<path d="M168.89 191.069L163.45 187.899L161.66 181.119L115.46 193.339L115.6 195.849L111.23 197.009L112.11 212.599L116.48 211.439L116.96 219.969L168.34 206.379L182.93 202.519L179.18 188.349L168.89 191.069Z" fill="#263238"/>
<path opacity="0.1" d="M137.56 191.079V211.759C137.56 212.1 137.447 212.431 137.239 212.7C137.031 212.97 136.74 213.163 136.41 213.249L120.22 217.529C120.024 217.582 119.82 217.595 119.619 217.568C119.419 217.541 119.225 217.475 119.05 217.372C118.875 217.27 118.722 217.134 118.6 216.972C118.479 216.81 118.39 216.626 118.34 216.429C118.331 216.33 118.331 216.229 118.34 216.129L118.07 211.369C118.042 210.959 117.853 210.576 117.544 210.305C117.235 210.033 116.831 209.895 116.42 209.919C116.322 209.926 116.225 209.943 116.13 209.969L115.41 210.159C115.214 210.212 115.01 210.225 114.809 210.198C114.609 210.171 114.415 210.105 114.24 210.002C114.065 209.9 113.912 209.764 113.79 209.602C113.669 209.44 113.58 209.256 113.53 209.059C113.521 208.96 113.521 208.859 113.53 208.759L113.01 199.429C112.987 199.075 113.088 198.723 113.296 198.434C113.504 198.146 113.806 197.939 114.15 197.849L116.09 197.339C116.434 197.248 116.736 197.041 116.945 196.753C117.155 196.466 117.259 196.115 117.24 195.759C117.219 195.405 117.321 195.054 117.528 194.766C117.736 194.478 118.037 194.271 118.38 194.179L135.73 189.589C135.926 189.538 136.13 189.526 136.33 189.553C136.53 189.581 136.723 189.648 136.898 189.75C137.073 189.852 137.225 189.988 137.347 190.149C137.47 190.31 137.559 190.494 137.61 190.689C137.608 190.821 137.591 190.952 137.56 191.079Z" fill="white"/>
<path opacity="0.1" d="M178.48 191.709L180.66 199.939C180.767 200.333 180.714 200.753 180.511 201.107C180.309 201.462 179.974 201.721 179.58 201.829L141.43 211.919C141.035 212.023 140.615 211.967 140.261 211.763C139.907 211.559 139.648 211.223 139.54 210.829C139.508 210.698 139.491 210.564 139.49 210.429V189.749C139.489 189.41 139.601 189.08 139.807 188.81C140.013 188.541 140.302 188.347 140.63 188.259L159.07 183.389C159.464 183.285 159.883 183.341 160.235 183.546C160.587 183.75 160.844 184.085 160.95 184.479L161.95 188.289C161.999 188.486 162.089 188.672 162.213 188.833C162.336 188.995 162.492 189.13 162.67 189.229L168.1 192.389C168.455 192.59 168.874 192.648 169.27 192.549L176.58 190.609C176.965 190.495 177.378 190.536 177.733 190.723C178.088 190.91 178.356 191.228 178.48 191.609C178.48 191.609 178.48 191.689 178.48 191.709Z" fill="white"/>
<path d="M157.68 236.18C162.38 236.18 166.19 232.37 166.19 227.67C166.19 222.97 162.38 219.16 157.68 219.16C152.98 219.16 149.17 222.97 149.17 227.67C149.17 232.37 152.98 236.18 157.68 236.18Z" fill="#263238"/>
<path opacity="0.1" d="M162.17 227.67C162.17 228.558 161.907 229.426 161.413 230.164C160.92 230.903 160.219 231.478 159.398 231.818C158.578 232.158 157.675 232.247 156.804 232.073C155.933 231.9 155.133 231.473 154.505 230.845C153.877 230.217 153.45 229.417 153.276 228.546C153.103 227.675 153.192 226.772 153.532 225.951C153.872 225.131 154.447 224.43 155.186 223.936C155.924 223.443 156.792 223.18 157.68 223.18C158.871 223.18 160.013 223.653 160.855 224.495C161.697 225.337 162.17 226.479 162.17 227.67Z" fill="white"/>
<path d="M157.68 239.619H160.07V378.209C160.07 378.522 159.946 378.822 159.724 379.044C159.503 379.265 159.203 379.389 158.89 379.389C158.577 379.389 158.277 379.265 158.056 379.044C157.834 378.822 157.71 378.522 157.71 378.209V239.619H157.68Z" fill="#263238"/>
<path d="M137.61 379.389C137.455 379.389 137.302 379.359 137.158 379.299C137.015 379.24 136.885 379.153 136.776 379.044C136.666 378.934 136.579 378.804 136.52 378.661C136.461 378.518 136.43 378.364 136.43 378.209C136.425 378.156 136.425 378.102 136.43 378.049L151.55 239.619H153.93L138.78 378.379C138.739 378.66 138.598 378.917 138.383 379.102C138.168 379.288 137.894 379.39 137.61 379.389Z" fill="#263238"/>
<path d="M180.13 379.389C179.848 379.392 179.575 379.292 179.362 379.108C179.148 378.924 179.009 378.668 178.97 378.389L163.8 239.619H166.19L181.3 378.049C181.343 378.358 181.262 378.671 181.074 378.92C180.887 379.17 180.609 379.335 180.3 379.379L180.13 379.389Z" fill="#263238"/>
<path d="M152.02 174.779L126.73 182.819L121.7 191.689L125.53 190.679L128.89 184.269L150.95 177.759L153.3 183.329L157.13 182.319L152.02 174.779Z" fill="#263238"/>
<path d="M164.74 219.279L147.83 223.749C147.284 223.892 146.703 223.812 146.215 223.527C145.728 223.242 145.373 222.775 145.23 222.229C145.17 221.984 145.15 221.73 145.17 221.479L145.51 218.019L165.23 212.799L166.23 216.669C166.304 216.937 166.325 217.218 166.291 217.495C166.257 217.771 166.169 218.038 166.031 218.281C165.894 218.523 165.71 218.736 165.49 218.907C165.27 219.079 165.019 219.205 164.75 219.279H164.74Z" fill="#263238"/>
<path opacity="0.1" d="M164.74 219.279L147.83 223.749C147.284 223.892 146.703 223.812 146.215 223.527C145.728 223.242 145.373 222.775 145.23 222.229C145.17 221.984 145.15 221.73 145.17 221.479L145.51 218.019L165.23 212.799L166.23 216.669C166.304 216.937 166.325 217.218 166.291 217.495C166.257 217.771 166.169 218.038 166.031 218.281C165.894 218.523 165.71 218.736 165.49 218.907C165.27 219.079 165.019 219.205 164.75 219.279H164.74Z" fill="white"/>
<path d="M173.9 281.07C173.18 283.87 172.49 286.8 171.9 289.66C171.31 292.52 170.73 295.43 170.41 298.22C170.32 298.93 170.28 299.6 170.22 300.29V301.44C170.202 301.317 170.168 301.196 170.12 301.08C170.064 300.911 169.986 300.75 169.89 300.6C169.672 300.239 169.366 299.94 169 299.73C168.667 299.517 168.275 299.415 167.88 299.44C168.098 299.422 168.312 299.379 168.52 299.31C169.06 299.14 169.69 298.88 170.33 298.61C172.89 297.48 175.57 296.03 178.23 294.68C178.442 294.588 178.67 294.539 178.901 294.535C179.132 294.531 179.362 294.573 179.577 294.659C179.792 294.744 179.987 294.872 180.153 295.033C180.318 295.195 180.45 295.388 180.54 295.6C180.677 295.91 180.72 296.253 180.665 296.587C180.61 296.921 180.459 297.231 180.23 297.48C179.132 298.6 177.978 299.661 176.77 300.66C175.558 301.699 174.282 302.661 172.95 303.54C172.227 304.03 171.468 304.464 170.68 304.84C170.191 305.078 169.683 305.272 169.16 305.42C168.778 305.524 168.386 305.588 167.99 305.61C167.214 305.658 166.441 305.474 165.77 305.08C165.243 304.773 164.8 304.34 164.48 303.82C164.343 303.587 164.226 303.343 164.13 303.09C164.061 302.878 164.008 302.661 163.97 302.44C163.94 302.278 163.92 302.115 163.91 301.95V301.46L163.85 300.17C163.85 299.35 163.85 298.5 163.91 297.7C164.111 294.544 164.518 291.404 165.13 288.3C165.7 285.22 166.4 282.3 167.26 279.2C167.556 278.373 168.152 277.688 168.929 277.28C169.707 276.872 170.61 276.771 171.459 276.997C172.307 277.224 173.04 277.761 173.51 278.503C173.981 279.245 174.156 280.136 174 281L173.9 281.07Z" fill="#B55B52"/>
<path d="M186.53 294.339L185.38 297.139C185.249 297.464 185.023 297.742 184.733 297.938C184.443 298.134 184.1 298.239 183.75 298.239H181C181 298.239 177.58 299.699 176.12 297.879L176.23 295.879L181.15 292.819C181.654 292.505 182.25 292.371 182.84 292.439L185.61 292.719C185.909 292.759 186.181 292.914 186.368 293.151C186.554 293.388 186.641 293.689 186.61 293.989C186.603 294.109 186.576 294.228 186.53 294.339Z" fill="#B55B52"/>
<path d="M178.55 259.369C179.26 262.899 180 269.369 177.55 271.749C181.633 273.841 185.242 276.751 188.15 280.299C189.321 279.352 190.11 278.014 190.372 276.531C190.635 275.049 190.354 273.521 189.58 272.229C185.58 271.319 185.91 267.499 186.4 264.709L178.55 259.369Z" fill="#B55B52"/>
<path d="M175.56 273.139C178.85 276.499 175.92 286.969 173.41 290.929L164.75 286.139C164.75 286.139 165.05 279.959 166.75 276.729C168.55 273.259 173.32 270.849 175.56 273.139Z" fill="#4779A8"/>
<path d="M199.31 280.61C199.12 285.76 199.82 294.98 197 309.55L172.81 308.83C173.45 299.9 170.92 293.72 168.16 278.18C167.924 276.857 168.224 275.494 168.993 274.392C169.761 273.289 170.937 272.537 172.26 272.3H172.46C174.01 272.08 175.77 271.88 177.54 271.78C181.2 271.497 184.876 271.474 188.54 271.71C189.73 271.81 190.95 271.95 192.12 272.11C194.16 272.382 196.025 273.403 197.354 274.974C198.683 276.545 199.38 278.554 199.31 280.61Z" fill="#4779A8"/>
<path d="M189.06 250.91C189.23 251.36 189.61 251.63 189.9 251.51C190.19 251.39 190.29 250.94 190.12 250.51C189.95 250.08 189.57 249.79 189.27 249.9C188.97 250.01 188.88 250.46 189.06 250.91Z" fill="#263238"/>
<path d="M189.15 250L190.15 249.27C190.15 249.27 189.88 250.29 189.15 250Z" fill="#263238"/>
<path d="M189.4 251.58C190.197 252.45 191.109 253.206 192.11 253.83C191.948 254.083 191.73 254.297 191.474 254.454C191.218 254.612 190.929 254.709 190.63 254.74L189.4 251.58Z" fill="#A02724"/>
<path d="M188.08 246.841C188.095 246.793 188.098 246.743 188.089 246.695C188.08 246.646 188.06 246.6 188.03 246.561C188.004 246.534 187.973 246.513 187.938 246.498C187.904 246.484 187.867 246.477 187.83 246.477C187.793 246.477 187.756 246.484 187.721 246.498C187.687 246.513 187.656 246.534 187.63 246.561C187.28 246.841 187.002 247.2 186.818 247.608C186.634 248.017 186.549 248.463 186.57 248.911C186.58 248.983 186.618 249.049 186.676 249.094C186.734 249.139 186.807 249.159 186.88 249.151C186.916 249.148 186.951 249.138 186.983 249.122C187.015 249.105 187.044 249.082 187.066 249.054C187.089 249.025 187.105 248.993 187.114 248.958C187.124 248.923 187.126 248.886 187.12 248.851C187.107 248.494 187.181 248.14 187.334 247.818C187.487 247.496 187.715 247.216 188 247.001C188.046 246.96 188.075 246.902 188.08 246.841Z" fill="#263238"/>
<path d="M173.4 255.42C175.76 260.84 176.64 263.19 180.47 265.02C186.24 267.77 192.39 263.69 191.71 257.67C191.09 252.26 187.34 244.29 181.1 244.06C178.965 243.968 176.881 244.727 175.306 246.171C173.731 247.615 172.793 249.625 172.7 251.76C172.642 253.018 172.882 254.272 173.4 255.42Z" fill="#B55B52"/>
<path d="M184.91 246.85C188.07 248.3 187.12 253.1 186.62 253.97C189.79 257.76 186.95 264.81 192.99 265.1C192.66 269.81 177.54 271.22 173.41 269.22C170.64 267.88 167.93 262.54 172.56 258.08C169.2 253.16 169.92 248.99 172.56 246.2C177.63 240.82 185.49 241.93 184.91 246.85Z" fill="#263238"/>
<path d="M173.52 254.9C168.45 260.75 164.3 272.72 174.39 263.71C180.69 258.08 185.39 248.15 185.39 248.15L173.52 254.9Z" fill="#4779A8"/>
<path opacity="0.7" d="M173.52 254.9C168.45 260.75 164.3 272.72 174.39 263.71C180.69 258.08 185.39 248.15 185.39 248.15L173.52 254.9Z" fill="white"/>
<path d="M172 259.86C179.45 258.21 186.76 247.7 187.3 245.77C185.85 243.5 182.1 241.45 179.07 241.93C176.624 242.384 174.373 243.568 172.613 245.327C170.853 247.085 169.667 249.334 169.21 251.78C168.79 254 172 259.86 172 259.86Z" fill="#4779A8"/>
<path d="M184.26 254.999C184.839 256.167 185.856 257.058 187.09 257.479C188.73 258.019 189.63 256.579 189.24 254.989C188.89 253.559 187.62 251.549 185.94 251.699C185.574 251.738 185.224 251.868 184.921 252.077C184.619 252.286 184.373 252.566 184.206 252.894C184.039 253.222 183.957 253.586 183.966 253.954C183.976 254.321 184.077 254.681 184.26 254.999Z" fill="#B55B52"/>
<path d="M226.37 376.13L232.08 375.59L228.24 361.52L222.52 362.06L226.37 376.13Z" fill="#B55B52"/>
<path d="M242.38 377.269C238.78 376.699 236.84 376.549 233.02 374.199C232.636 373.93 232.179 373.787 231.71 373.789L225.71 374.619C225.6 374.632 225.499 374.685 225.427 374.768C225.355 374.851 225.317 374.959 225.32 375.069L225.03 379.069C224.987 379.349 225 379.634 225.068 379.909C225.136 380.184 225.258 380.442 225.426 380.67C225.594 380.898 225.806 381.09 226.048 381.235C226.291 381.381 226.56 381.478 226.84 381.519H227.11C229 381.349 231.11 380.699 233.11 380.579C236.173 380.523 239.23 380.265 242.26 379.809C244.39 379.459 243.6 377.459 242.38 377.269Z" fill="#263238"/>
<path d="M246.16 358.77L250.72 356.43L244.73 344.85L240.08 349.64L246.16 358.77Z" fill="#B55B52"/>
<path d="M250.79 354.939L245.17 357.749C245.062 357.805 244.978 357.896 244.93 358.007C244.883 358.119 244.876 358.243 244.91 358.359L246.08 362.229C246.278 362.803 246.695 363.275 247.241 363.542C247.787 363.808 248.416 363.847 248.99 363.649L249.25 363.539C251.03 362.839 252.42 361.109 254.61 359.999C257.8 358.379 259.61 357.999 262.22 355.299C263.97 353.459 261.71 352.709 260.69 353.129C258.13 354.179 257.38 355.069 252.37 354.689C251.83 354.63 251.285 354.717 250.79 354.939Z" fill="#263238"/>
<path d="M188.57 309.14C188.57 309.14 227.73 303.34 231.79 313.39C238.84 330.85 249.33 352 249.33 352L243.14 355.31C243.14 355.31 226.92 339.04 220.84 321.49C213.59 323.84 192.71 329.03 184.26 329.03C175.26 329.03 169.33 323.69 172.59 310.91C172.734 310.356 173.058 309.867 173.51 309.517C173.963 309.168 174.518 308.979 175.09 308.98C180.78 309 188.57 309.14 188.57 309.14Z" fill="#4779A8"/>
<path opacity="0.5" d="M188.57 309.14C188.57 309.14 227.73 303.34 231.79 313.39C238.84 330.85 249.33 352 249.33 352L243.14 355.31C243.14 355.31 226.92 339.04 220.84 321.49C213.59 323.84 192.71 329.03 184.26 329.03C175.26 329.03 169.33 323.69 172.59 310.91C172.734 310.356 173.058 309.867 173.51 309.517C173.963 309.168 174.518 308.979 175.09 308.98C180.78 309 188.57 309.14 188.57 309.14Z" fill="white"/>
<path d="M196.27 310.24C196.27 310.24 224.47 313.24 224.74 324.65C225.19 343.48 230.96 370.43 230.96 370.43L224.63 371.02C224.63 371.02 213.63 349.78 211.14 331.38C199.68 332.13 191.34 331.93 182.98 330.63C173.62 329.18 166.8 322.63 173.45 308.94C179 307.82 196.27 310.24 196.27 310.24Z" fill="#4779A8"/>
<path opacity="0.7" d="M196.27 310.24C196.27 310.24 224.47 313.24 224.74 324.65C225.19 343.48 230.96 370.43 230.96 370.43L224.63 371.02C224.63 371.02 213.63 349.78 211.14 331.38C199.68 332.13 191.34 331.93 182.98 330.63C173.62 329.18 166.8 322.63 173.45 308.94C179 307.82 196.27 310.24 196.27 310.24Z" fill="white"/>
<path d="M172.49 307.399L171.81 309.549C171.72 309.709 171.91 309.889 172.19 309.899L197.09 310.639C197.31 310.639 197.49 310.539 197.51 310.409L197.79 308.249C197.79 308.099 197.63 307.969 197.39 307.959L172.89 307.229C172.814 307.221 172.738 307.233 172.668 307.262C172.598 307.292 172.537 307.339 172.49 307.399Z" fill="white"/>
<path d="M175.7 310.24H175C174.87 310.24 174.78 310.16 174.79 310.08L175.18 307.28C175.18 307.2 175.31 307.13 175.44 307.14H176.09C176.22 307.14 176.32 307.21 176.31 307.29L175.96 310.14C175.88 310.189 175.792 310.223 175.7 310.24Z" fill="#4779A8"/>
<path d="M195.24 310.82H194.58C194.45 310.82 194.36 310.75 194.37 310.66L194.76 307.86C194.76 307.78 194.89 307.71 195.02 307.72H195.67C195.8 307.72 195.9 307.79 195.89 307.87L195.5 310.68C195.49 310.76 195.37 310.82 195.24 310.82Z" fill="#4779A8"/>
<path d="M185.47 310.531H184.81C184.68 310.531 184.59 310.451 184.6 310.371L184.99 307.571C184.99 307.491 185.12 307.421 185.25 307.431H185.9C186.03 307.431 186.13 307.501 186.12 307.581L185.73 310.391C185.72 310.471 185.6 310.531 185.47 310.531Z" fill="#4779A8"/>
<path d="M200.94 283.91C201.06 284.99 201.23 286.32 201.46 287.52C201.69 288.72 201.94 289.95 202.23 291.14C202.521 292.305 202.885 293.451 203.32 294.57C203.729 295.627 204.22 296.65 204.79 297.63L204.9 297.81C204.928 297.854 204.961 297.895 205 297.93C205.157 298.1 205.324 298.26 205.5 298.41C205.91 298.76 206.4 299.14 206.91 299.5C207.91 300.22 209.01 300.97 210.12 301.67L216.84 306.04C217.195 306.27 217.454 306.62 217.57 307.027C217.687 307.433 217.652 307.868 217.473 308.251C217.294 308.633 216.982 308.938 216.596 309.109C216.209 309.28 215.774 309.305 215.37 309.18C212.733 308.372 210.143 307.421 207.61 306.33C206.34 305.76 205.06 305.19 203.79 304.49C203.15 304.14 202.51 303.78 201.79 303.33C201.422 303.084 201.068 302.817 200.73 302.53C200.509 302.349 200.302 302.152 200.11 301.94L199.76 301.52L199.58 301.28C197.789 298.787 196.436 296.008 195.58 293.06C195.162 291.661 194.828 290.239 194.58 288.8C194.45 288.09 194.33 287.37 194.23 286.65C194.13 285.93 194.06 285.24 194.01 284.39C193.969 283.931 194.02 283.467 194.158 283.027C194.296 282.587 194.52 282.178 194.816 281.824C195.112 281.471 195.475 281.179 195.884 280.965C196.293 280.752 196.74 280.621 197.2 280.58C197.66 280.539 198.123 280.59 198.563 280.728C199.003 280.866 199.412 281.09 199.766 281.386C200.12 281.682 200.411 282.045 200.625 282.454C200.838 282.863 200.969 283.31 201.01 283.77L200.94 283.91Z" fill="#B55B52"/>
<path d="M196.06 273.709C202.62 278.199 202.8 287.309 202.8 287.309L194.39 289.779C193.062 288.7 191.986 287.343 191.238 285.804C190.49 284.264 190.088 282.58 190.06 280.869C190 276.539 193.67 272.079 196.06 273.709Z" fill="#4779A8"/>
<path d="M223.13 307.209L221.13 305.819C220.655 305.477 220.074 305.314 219.49 305.359L214.49 305.829L213.07 307.999C214.332 309.1 215.897 309.797 217.56 309.999L220.1 311.419C220.292 311.532 220.516 311.578 220.737 311.549C220.958 311.52 221.164 311.418 221.32 311.259L223.38 309.119C223.492 308.982 223.576 308.824 223.628 308.654C223.679 308.484 223.696 308.306 223.679 308.13C223.661 307.953 223.609 307.782 223.525 307.626C223.441 307.469 223.327 307.331 223.19 307.219L223.13 307.209Z" fill="#B55B52"/>
<path d="M243.45 355.42L249.45 352.57C249.638 352.478 249.786 352.32 249.863 352.126C249.941 351.932 249.943 351.716 249.87 351.52L249.1 349.42C249.025 349.213 248.872 349.044 248.674 348.948C248.476 348.853 248.248 348.839 248.04 348.91C247.991 348.927 247.943 348.951 247.9 348.98L241.31 352.66C241.196 352.726 241.099 352.818 241.026 352.928C240.954 353.038 240.908 353.164 240.893 353.295C240.877 353.426 240.892 353.559 240.937 353.683C240.982 353.807 241.055 353.919 241.15 354.01L242.55 355.28C242.671 355.386 242.82 355.456 242.98 355.481C243.139 355.505 243.302 355.484 243.45 355.42Z" fill="white"/>
<path d="M224.43 372.379L231.02 371.789C231.228 371.767 231.42 371.669 231.56 371.514C231.701 371.359 231.779 371.158 231.78 370.949V368.709C231.78 368.487 231.693 368.274 231.538 368.115C231.383 367.956 231.172 367.865 230.95 367.859H230.78L223.32 368.999C223.102 369.032 222.905 369.148 222.773 369.324C222.64 369.5 222.581 369.721 222.61 369.939C222.622 370.034 222.652 370.126 222.7 370.209L223.57 371.889C223.644 372.051 223.767 372.185 223.921 372.272C224.076 372.36 224.253 372.398 224.43 372.379Z" fill="white"/>
<path d="M208.93 326.83H172.02C170.104 326.83 168.55 328.384 168.55 330.3V335.71C168.55 337.627 170.104 339.18 172.02 339.18H208.93C210.846 339.18 212.4 337.627 212.4 335.71V330.3C212.4 328.384 210.846 326.83 208.93 326.83Z" fill="#263238"/>
<path d="M192.88 339.189H188.06V384.829H192.88V339.189Z" fill="#263238"/>
<path opacity="0.6" d="M192.88 339.189H188.06V384.829H192.88V339.189Z" fill="white"/>
<path opacity="0.2" d="M188.07 339.189H192.89V343.849L188.07 342.079V339.189Z" fill="black"/>
<path d="M202.61 381.88L208.51 383.63C208.752 383.706 208.959 383.866 209.093 384.08C209.228 384.295 209.283 384.551 209.247 384.802C209.211 385.053 209.087 385.283 208.897 385.451C208.707 385.619 208.464 385.714 208.21 385.72H172.75C172.496 385.716 172.251 385.623 172.059 385.456C171.868 385.288 171.742 385.058 171.705 384.807C171.667 384.555 171.721 384.298 171.856 384.083C171.99 383.867 172.198 383.706 172.44 383.63L178.34 381.88C186.258 379.519 194.692 379.519 202.61 381.88Z" fill="#263238"/>
<path d="M169.47 317H199C200.091 317.029 201.149 316.625 201.942 315.875C202.736 315.125 203.199 314.091 203.23 313C203.24 312.664 203.21 312.328 203.14 312L200.52 296.52C200.253 295.15 199.53 293.911 198.47 293.003C197.41 292.096 196.075 291.573 194.68 291.52H165.16C164.619 291.502 164.079 291.592 163.572 291.784C163.066 291.976 162.602 292.266 162.208 292.638C161.814 293.01 161.497 293.456 161.276 293.95C161.055 294.445 160.934 294.978 160.92 295.52C160.915 295.856 160.948 296.191 161.02 296.52L163.64 312C163.905 313.369 164.626 314.608 165.684 315.515C166.742 316.423 168.077 316.946 169.47 317Z" fill="#263238"/>
<path d="M195.23 332.881C194.875 332.881 194.532 332.755 194.261 332.527C193.99 332.298 193.809 331.98 193.75 331.631L188.51 299.631C188.471 299.43 188.472 299.224 188.514 299.025C188.556 298.825 188.638 298.636 188.755 298.468C188.872 298.301 189.021 298.159 189.194 298.051C189.367 297.942 189.56 297.87 189.761 297.837C189.963 297.805 190.169 297.814 190.367 297.863C190.565 297.912 190.751 298 190.914 298.123C191.078 298.245 191.214 298.4 191.317 298.576C191.419 298.753 191.485 298.948 191.51 299.151L196.75 331.151C196.783 331.344 196.778 331.541 196.734 331.732C196.691 331.923 196.61 332.104 196.497 332.264C196.383 332.423 196.24 332.559 196.074 332.663C195.908 332.767 195.723 332.838 195.53 332.871C195.431 332.89 195.33 332.893 195.23 332.881Z" fill="#4779A8"/>
<path d="M175.32 332.881C174.967 332.88 174.625 332.755 174.355 332.526C174.086 332.297 173.907 331.979 173.85 331.631L168.61 299.631C168.571 299.43 168.572 299.224 168.614 299.025C168.657 298.825 168.738 298.636 168.855 298.468C168.972 298.301 169.121 298.159 169.294 298.051C169.467 297.942 169.66 297.87 169.862 297.837C170.063 297.805 170.269 297.814 170.467 297.863C170.665 297.912 170.851 298 171.014 298.123C171.178 298.245 171.314 298.4 171.417 298.576C171.519 298.753 171.585 298.948 171.61 299.151L176.85 331.151C176.913 331.543 176.819 331.945 176.586 332.267C176.354 332.59 176.002 332.807 175.61 332.871C175.514 332.889 175.417 332.892 175.32 332.881Z" fill="#4779A8"/>
<path d="M263 151.878C262.94 154.078 262.75 156.058 262.55 158.138C262.35 160.218 262.07 162.258 261.69 164.338C261.31 166.418 260.89 168.538 260.33 170.608C259.758 172.867 258.982 175.07 258.01 177.188L257.78 177.698C257.222 178.884 256.22 179.804 254.99 180.258C251.505 181.547 247.856 182.341 244.15 182.618C242.336 182.748 240.514 182.748 238.7 182.618C237.8 182.558 236.89 182.438 235.99 182.308L234.63 182.068C234.16 181.978 233.76 181.868 233.16 181.728C232.348 181.54 231.623 181.082 231.104 180.43C230.585 179.777 230.302 178.967 230.302 178.133C230.302 177.299 230.585 176.49 231.104 175.837C231.623 175.184 232.348 174.726 233.16 174.538L234.16 174.308C234.37 174.258 234.77 174.228 235.16 174.178L236.22 174.048C236.94 173.938 237.66 173.808 238.37 173.668C239.786 173.406 241.188 173.072 242.57 172.668C243.928 172.29 245.263 171.836 246.57 171.308C247.843 170.797 249.088 170.219 250.3 169.578L247.3 172.648C247.778 171.095 248.152 169.511 248.42 167.908C248.73 166.188 248.96 164.368 249.17 162.538C249.38 160.708 249.54 158.838 249.69 156.968C249.84 155.098 249.95 153.168 250.06 151.418V151.318C250.191 149.634 250.971 148.066 252.237 146.947C253.502 145.827 255.153 145.244 256.841 145.319C258.528 145.394 260.121 146.123 261.281 147.35C262.442 148.578 263.08 150.209 263.06 151.898L263 151.878Z" fill="#263238"/>
<path d="M233.9 174.798L229.9 172.908L228.78 179.818C229.662 180.09 230.571 180.267 231.49 180.348C232.413 180.397 233.317 180.079 234.005 179.462C234.693 178.845 235.108 177.981 235.16 177.058C235.165 176.992 235.165 176.925 235.16 176.858C235.162 176.432 235.045 176.013 234.822 175.65C234.6 175.286 234.28 174.991 233.9 174.798Z" fill="#FFB573"/>
<path d="M224.2 174.889V177.379C224.195 177.863 224.365 178.332 224.68 178.7C224.994 179.068 225.431 179.309 225.91 179.379L228.79 179.839L229.91 172.929L226.23 172.869C225.7 172.869 225.191 173.08 224.816 173.455C224.441 173.83 224.23 174.339 224.23 174.869L224.2 174.889Z" fill="#FFB573"/>
<path d="M317.11 240.679C311.65 222.519 305.58 199.199 296.03 180.809L284.19 187.489L275.1 192.629C275.1 192.629 291.88 226.629 304.18 250.159C307.58 256.669 319.39 267.839 329.45 280.469C333.1 285.049 339.65 292.669 342.65 295.169L351.07 291.839C348.92 288.179 350 288.049 345.37 279.669C338.18 267.389 326.49 252.379 317.11 240.679Z" fill="#263238"/>
<path d="M381.14 240.499C366.06 235.109 351.14 224.209 341.49 218.759C327.25 207.059 319.42 184.239 303.98 176.279L282.35 191.489C282.35 191.489 307.66 219.409 331.26 233.139C335.63 235.679 351.88 244.809 368.16 248.719C374.06 250.139 382.3 252.599 386.5 252.829L392.5 244.619C387.32 242.889 384.23 241.599 381.14 240.499Z" fill="#263238"/>
<path d="M349.6 288.68C351.07 291.84 357.15 293.96 354.69 296.97C351.26 301.15 352.49 310.1 344.49 310.1C341.9 310.1 337.49 309.98 339.17 308.1C341.71 305.16 345.41 298.84 342.65 295.19C343.62 290.34 349.6 288.68 349.6 288.68Z" fill="#263238"/>
<path d="M386.06 246.138C386.547 245.329 387.286 244.702 388.165 244.355C389.043 244.008 390.012 243.96 390.92 244.218C394.09 245.068 398.09 245.338 397.92 248.288C397.66 254.078 401.34 263.628 397.16 266.868C393.58 269.638 391.88 263.548 391.3 261.098C391.05 260.018 389.08 254.458 384.89 252.648C384.614 251.542 384.576 250.39 384.777 249.268C384.979 248.146 385.416 247.079 386.06 246.138Z" fill="#263238"/>
<path d="M272.9 133.319C266.319 136.276 260.06 139.902 254.22 144.139C252.274 145.576 250.894 147.65 250.322 150.001C249.75 152.351 250.022 154.828 251.09 156.999C256.47 167.739 265.51 176.219 275.09 192.589C279.61 194.079 294.49 186.979 303.99 176.229C300.73 171.909 292.46 156.579 285.22 138.299C284.782 137.177 284.126 136.153 283.292 135.285C282.457 134.418 281.46 133.723 280.356 133.241C279.253 132.759 278.065 132.499 276.861 132.476C275.657 132.454 274.461 132.669 273.34 133.109C273.189 133.168 273.041 133.238 272.9 133.319Z" fill="#263238"/>
<path d="M262.24 122.35L256.89 133.91C259.19 135.63 261.02 137.82 258.97 140.97C258.176 142.071 257.65 143.343 257.437 144.683C257.223 146.024 257.327 147.396 257.74 148.69C258.55 150.82 260 152.69 262.32 152.85C267.49 148.16 271.02 139.06 271.53 135.03C269.51 133.37 263.75 126.62 262.24 122.35Z" fill="#263238"/>
<path opacity="0.2" d="M260.06 127.059L256.89 133.909C257.541 134.378 258.138 134.918 258.67 135.519C260.87 134.419 262.67 130.859 261.85 129.179C261.412 128.352 260.802 127.629 260.06 127.059Z" fill="black"/>
<path d="M262.64 117.609C264.79 122.909 263.64 126.139 262.27 129.999C260.27 135.819 252.73 136.459 249.03 131.899C245.7 127.799 242.28 119.359 246.21 114.799C252.3 107.709 260.49 112.319 262.64 117.609Z" fill="#263238"/>
<path d="M256.41 121.14C258.24 125.02 259.5 127.22 258.71 130.06C257.52 134.34 252.07 134.83 249.15 131.5C246.52 128.5 243.96 122.64 246.72 119.38C249.48 116.12 254.57 117.25 256.41 121.14Z" fill="#FFB573"/>
<path d="M252.59 129.829C253.119 129.551 253.587 129.169 253.966 128.707C254.346 128.245 254.629 127.712 254.8 127.139C254.805 127.099 254.795 127.058 254.773 127.023C254.752 126.989 254.719 126.963 254.68 126.949C254.641 126.943 254.6 126.952 254.567 126.974C254.533 126.996 254.51 127.03 254.5 127.069C254.311 127.696 253.979 128.271 253.532 128.75C253.085 129.229 252.533 129.598 251.92 129.829C251.902 129.837 251.885 129.848 251.87 129.862C251.856 129.877 251.845 129.894 251.838 129.912C251.83 129.931 251.827 129.951 251.827 129.971C251.827 129.991 251.832 130.011 251.84 130.029C251.856 130.067 251.885 130.097 251.922 130.114C251.959 130.131 252.002 130.132 252.04 130.119L252.59 129.829Z" fill="#263238"/>
<path d="M252.3 122.409C252.5 122.829 252.44 123.269 252.17 123.409C251.9 123.549 251.51 123.309 251.31 122.889C251.11 122.469 251.17 122.019 251.44 121.889C251.71 121.759 252.1 121.999 252.3 122.409Z" fill="#263238"/>
<path d="M247.74 125.079C247.94 125.499 247.88 125.949 247.61 126.079C247.34 126.209 246.94 125.969 246.74 125.549C246.54 125.129 246.6 124.689 246.88 124.549C247.16 124.409 247.54 124.659 247.74 125.079Z" fill="#263238"/>
<path d="M249.63 124.699C249.739 126.215 249.641 127.739 249.34 129.229C249.725 129.298 250.12 129.283 250.498 129.185C250.876 129.086 251.228 128.907 251.53 128.659L249.63 124.699Z" fill="#ED893E"/>
<path d="M253.14 120.819C253.174 120.807 253.205 120.788 253.231 120.764C253.257 120.74 253.277 120.71 253.291 120.677C253.305 120.644 253.313 120.609 253.312 120.573C253.312 120.537 253.305 120.502 253.29 120.469C253.272 120.422 253.241 120.38 253.2 120.349C252.862 120.075 252.464 119.885 252.038 119.794C251.612 119.704 251.17 119.716 250.75 119.829C250.687 119.867 250.641 119.928 250.622 119.999C250.604 120.07 250.614 120.146 250.65 120.209C250.676 120.259 250.718 120.299 250.768 120.324C250.818 120.349 250.875 120.358 250.93 120.349C251.263 120.266 251.611 120.261 251.946 120.335C252.281 120.41 252.594 120.562 252.86 120.779C252.898 120.812 252.945 120.834 252.994 120.841C253.044 120.848 253.095 120.84 253.14 120.819Z" fill="#263238"/>
<path d="M245.2 124.64C245.24 124.618 245.272 124.586 245.295 124.548C245.318 124.509 245.33 124.465 245.33 124.42C245.326 124.078 245.404 123.739 245.557 123.433C245.71 123.127 245.934 122.862 246.21 122.66C246.241 122.642 246.269 122.619 246.29 122.59C246.312 122.562 246.327 122.529 246.336 122.494C246.344 122.46 246.345 122.424 246.339 122.388C246.333 122.353 246.32 122.32 246.3 122.29C246.261 122.228 246.199 122.185 246.128 122.168C246.057 122.151 245.983 122.162 245.92 122.2C245.565 122.448 245.276 122.779 245.077 123.164C244.879 123.549 244.777 123.977 244.78 124.41C244.78 124.482 244.808 124.552 244.859 124.604C244.909 124.657 244.978 124.687 245.05 124.69C245.104 124.689 245.156 124.671 245.2 124.64Z" fill="#263238"/>
<path d="M279.41 132.999C280.63 133.299 281.61 133.579 282.69 133.919L285.82 134.919C287.922 135.666 289.985 136.521 292 137.479C294.13 138.471 296.18 139.628 298.13 140.939C300.439 142.449 302.469 144.347 304.13 146.549L304.36 146.849C304.805 147.477 305.1 148.199 305.22 148.959C305.54 151.081 305.54 153.238 305.22 155.359C304.909 157.413 304.309 159.413 303.44 161.299C302.603 163.086 301.552 164.765 300.31 166.299C299.7 167.038 299.049 167.743 298.36 168.409L297.3 169.409L296.72 169.879L296.05 170.389C295.857 170.539 295.636 170.649 295.401 170.714C295.165 170.778 294.919 170.796 294.677 170.765C294.434 170.734 294.2 170.656 293.988 170.535C293.776 170.414 293.59 170.252 293.44 170.059C293.361 169.948 293.29 169.831 293.23 169.709L291 164.819L291.17 164.489L291.42 164.079C291.59 163.799 291.76 163.509 291.92 163.219C292.24 162.629 292.52 162.029 292.78 161.429C293.292 160.272 293.688 159.066 293.96 157.829C294.206 156.71 294.314 155.565 294.28 154.419C294.239 153.344 294.061 152.279 293.75 151.249L294.84 153.649C293.85 152.741 292.752 151.959 291.57 151.319C290.038 150.486 288.458 149.741 286.84 149.089C285.14 148.419 283.38 147.769 281.59 147.179C280.69 146.879 279.79 146.599 278.88 146.329L276.26 145.569L276.06 145.509C274.532 144.954 273.267 143.845 272.516 142.403C271.765 140.961 271.582 139.29 272.002 137.719C272.423 136.148 273.417 134.792 274.788 133.919C276.16 133.045 277.809 132.717 279.41 132.999Z" fill="#263238"/>
<path d="M291 166.759L287.42 169.299L292.9 173.649C293.571 173.012 294.171 172.305 294.69 171.539C294.935 171.154 295.102 170.723 295.181 170.273C295.259 169.822 295.248 169.361 295.148 168.915C295.047 168.469 294.86 168.047 294.596 167.674C294.332 167.3 293.997 166.983 293.61 166.739L293.43 166.629C293.054 166.418 292.626 166.318 292.196 166.341C291.766 166.364 291.351 166.509 291 166.759Z" fill="#FFB573"/>
<path d="M286.39 175.269L288.57 176.469C288.989 176.706 289.48 176.784 289.952 176.689C290.424 176.593 290.846 176.33 291.14 175.949L292.94 173.649L287.46 169.299L285.62 172.489C285.35 172.945 285.271 173.49 285.403 174.004C285.534 174.518 285.864 174.958 286.32 175.229L286.39 175.269Z" fill="#FFB573"/>
<path d="M271.29 162.21H271.24L252.59 154.35C252.54 154.35 252.52 154.35 252.51 154.25C252.51 154.228 252.515 154.206 252.526 154.187C252.536 154.168 252.552 154.152 252.57 154.14L262.39 147.53L276.28 137.14C276.3 137.125 276.325 137.117 276.35 137.117C276.375 137.117 276.4 137.125 276.42 137.14C276.444 137.151 276.463 137.17 276.474 137.194C276.485 137.217 276.487 137.244 276.48 137.27L271.41 162.14C271.402 162.176 271.381 162.208 271.35 162.23L271.29 162.21ZM252.9 154.21L271.2 161.92L276.2 137.58L262.57 147.73L252.9 154.21Z" fill="white"/>
<path d="M238.53 178.47C238.501 178.47 238.474 178.46 238.452 178.442C238.429 178.424 238.415 178.398 238.41 178.37C238.404 178.338 238.409 178.305 238.426 178.277C238.443 178.25 238.469 178.229 238.5 178.22L252.35 175.22L252.51 154.22C252.51 154.185 252.524 154.152 252.548 154.128C252.572 154.104 252.606 154.09 252.64 154.09C252.672 154.09 252.702 154.102 252.725 154.125C252.747 154.148 252.76 154.178 252.76 154.21L252.6 175.36C252.6 175.388 252.591 175.416 252.572 175.438C252.554 175.46 252.528 175.475 252.5 175.48L238.56 178.48L238.53 178.47Z" fill="white"/>
<path d="M296.26 164.399C296.227 164.39 296.199 164.368 296.182 164.338C296.165 164.308 296.161 164.273 296.17 164.239L300 148.529L276.3 137.379C276.286 137.373 276.273 137.364 276.262 137.352C276.251 137.34 276.242 137.327 276.237 137.312C276.231 137.297 276.228 137.281 276.229 137.265C276.23 137.249 276.233 137.234 276.24 137.219C276.253 137.19 276.277 137.166 276.307 137.153C276.336 137.141 276.37 137.139 276.4 137.149L300.13 148.339C300.144 148.344 300.157 148.351 300.168 148.361C300.179 148.37 300.188 148.382 300.194 148.395C300.201 148.408 300.205 148.422 300.206 148.436C300.207 148.451 300.205 148.466 300.2 148.479L296.37 164.289C296.368 164.318 296.356 164.344 296.335 164.365C296.315 164.385 296.289 164.397 296.26 164.399Z" fill="white"/>
<path d="M281.91 195.759H281.84C281.83 195.74 281.825 195.72 281.825 195.699C281.825 195.678 281.83 195.657 281.84 195.639L283.69 181.349L271.18 162.139C271.161 162.114 271.151 162.085 271.151 162.054C271.151 162.023 271.161 161.993 271.18 161.969C271.191 161.958 271.205 161.949 271.219 161.943C271.234 161.937 271.249 161.934 271.265 161.934C271.281 161.934 271.297 161.937 271.311 161.943C271.326 161.949 271.339 161.958 271.35 161.969L283.84 181.139L303.35 183.449C303.375 183.454 303.397 183.466 303.415 183.484C303.433 183.502 303.445 183.524 303.45 183.549C303.455 183.561 303.457 183.575 303.457 183.588C303.456 183.601 303.453 183.614 303.448 183.627C303.442 183.639 303.434 183.65 303.424 183.659C303.414 183.667 303.403 183.674 303.39 183.679L282 195.739L281.91 195.759ZM283.91 181.439L282.11 195.439L303 183.729L283.91 181.439Z" fill="white"/>
<path d="M344.43 291.049H344.34L324.41 267.469L308.82 245.689L292.23 217.449L281.8 195.689C281.779 195.661 281.77 195.626 281.774 195.591C281.779 195.556 281.797 195.525 281.825 195.504C281.853 195.482 281.888 195.473 281.923 195.478C281.957 195.482 281.989 195.501 282.01 195.529C282.01 195.529 282.01 195.529 282.01 195.579L292.43 217.289L309 245.519L324.58 267.269L344.5 290.849C344.511 290.86 344.52 290.873 344.526 290.888C344.532 290.902 344.535 290.918 344.535 290.934C344.535 290.949 344.532 290.965 344.526 290.98C344.52 290.994 344.511 291.007 344.5 291.019C344.491 291.028 344.48 291.036 344.468 291.041C344.456 291.047 344.443 291.049 344.43 291.049Z" fill="white"/>
<path d="M386 248.998L359.28 239.738L332.93 225.498L312.86 203.818L303.33 183.718C303.316 183.688 303.315 183.653 303.326 183.621C303.337 183.589 303.36 183.563 303.39 183.548C303.404 183.542 303.42 183.538 303.436 183.537C303.452 183.537 303.468 183.539 303.483 183.545C303.497 183.55 303.511 183.559 303.523 183.57C303.534 183.581 303.544 183.594 303.55 183.608L313 203.608L333 225.258L359.31 239.488L386.01 248.738C386.025 248.743 386.039 248.75 386.051 248.76C386.064 248.77 386.074 248.783 386.081 248.797C386.089 248.811 386.093 248.826 386.095 248.842C386.096 248.857 386.095 248.873 386.09 248.888C386.086 248.913 386.076 248.936 386.06 248.955C386.044 248.975 386.023 248.99 386 248.998Z" fill="white"/>
<path d="M247.72 116.519C247.717 116.607 247.698 116.694 247.661 116.774C247.625 116.855 247.574 116.927 247.51 116.987C247.446 117.048 247.37 117.095 247.288 117.126C247.206 117.157 247.118 117.172 247.03 117.169C246.943 117.168 246.856 117.149 246.776 117.114C246.696 117.079 246.623 117.029 246.563 116.965C246.502 116.902 246.455 116.828 246.424 116.746C246.392 116.664 246.377 116.577 246.38 116.489C246.383 116.34 246.436 116.196 246.53 116.08C246.624 115.964 246.754 115.883 246.9 115.849C247.098 115.83 247.295 115.889 247.449 116.015C247.602 116.141 247.7 116.322 247.72 116.519Z" fill="white"/>
<path d="M263 147.269C263.133 147.392 263.211 147.563 263.217 147.744C263.224 147.925 263.158 148.101 263.035 148.234C262.912 148.367 262.741 148.445 262.56 148.451C262.379 148.458 262.203 148.392 262.07 148.269C261.99 148.2 261.931 148.11 261.9 148.009C261.767 147.886 261.689 147.715 261.683 147.534C261.676 147.353 261.742 147.177 261.865 147.044C261.988 146.911 262.159 146.833 262.34 146.827C262.521 146.82 262.697 146.886 262.83 147.009C262.91 147.078 262.969 147.168 263 147.269Z" fill="white"/>
<path d="M271.81 161.688C271.881 161.851 271.886 162.036 271.822 162.203C271.758 162.369 271.632 162.504 271.47 162.578C271.318 162.647 271.145 162.657 270.986 162.606C270.827 162.554 270.693 162.445 270.61 162.3C270.527 162.154 270.502 161.983 270.539 161.82C270.576 161.657 270.673 161.514 270.81 161.418C270.98 161.328 271.178 161.306 271.363 161.356C271.549 161.406 271.708 161.525 271.81 161.688Z" fill="white"/>
<path d="M284.29 180.9C284.431 181.04 284.509 181.231 284.509 181.43C284.509 181.628 284.431 181.819 284.29 181.96C284.221 182.047 284.135 182.12 284.038 182.174C283.94 182.228 283.833 182.262 283.722 182.274C283.612 182.286 283.5 182.276 283.393 182.244C283.286 182.213 283.186 182.16 283.1 182.09C283.002 182.024 282.918 181.939 282.854 181.84C282.79 181.74 282.748 181.629 282.73 181.512C282.712 181.395 282.718 181.276 282.749 181.162C282.779 181.048 282.833 180.941 282.907 180.849C282.981 180.757 283.073 180.681 283.178 180.627C283.283 180.572 283.398 180.54 283.516 180.533C283.634 180.525 283.752 180.543 283.863 180.583C283.974 180.624 284.075 180.688 284.16 180.77L284.29 180.9Z" fill="white"/>
<path d="M303.85 183.218C303.997 183.318 304.099 183.471 304.134 183.645C304.17 183.818 304.136 183.999 304.04 184.148C303.941 184.295 303.787 184.397 303.612 184.431C303.438 184.465 303.257 184.428 303.11 184.328C302.99 184.254 302.898 184.141 302.85 184.008C302.769 183.948 302.702 183.87 302.656 183.779C302.61 183.689 302.585 183.59 302.584 183.488C302.582 183.387 302.604 183.287 302.647 183.195C302.691 183.104 302.755 183.023 302.834 182.96C302.914 182.898 303.007 182.854 303.106 182.833C303.205 182.812 303.308 182.814 303.406 182.839C303.504 182.864 303.595 182.911 303.672 182.977C303.749 183.042 303.81 183.125 303.85 183.218Z" fill="white"/>
<path d="M333.38 224.918C333.513 225.038 333.592 225.205 333.602 225.383C333.611 225.561 333.549 225.736 333.43 225.868C333.371 225.934 333.299 225.987 333.22 226.026C333.14 226.064 333.054 226.086 332.965 226.09C332.787 226.1 332.613 226.038 332.48 225.918C332.399 225.864 332.33 225.793 332.278 225.71C332.227 225.627 332.194 225.534 332.181 225.437C332.169 225.34 332.178 225.242 332.207 225.149C332.236 225.055 332.285 224.97 332.351 224.897C332.416 224.824 332.496 224.767 332.586 224.728C332.676 224.689 332.773 224.67 332.87 224.672C332.968 224.674 333.064 224.697 333.152 224.74C333.24 224.782 333.318 224.843 333.38 224.918Z" fill="white"/>
<path d="M359.71 239.139C359.864 239.229 359.977 239.376 360.023 239.548C360.07 239.72 360.047 239.904 359.96 240.059C359.916 240.136 359.857 240.203 359.786 240.256C359.716 240.309 359.636 240.349 359.55 240.371C359.465 240.393 359.376 240.398 359.288 240.386C359.2 240.374 359.116 240.344 359.04 240.299C358.947 240.245 358.869 240.17 358.81 240.079C358.656 239.989 358.544 239.843 358.497 239.67C358.45 239.498 358.473 239.315 358.56 239.159C358.605 239.083 358.664 239.016 358.734 238.963C358.804 238.909 358.885 238.87 358.97 238.848C359.056 238.826 359.145 238.82 359.232 238.833C359.32 238.845 359.404 238.874 359.48 238.919C359.573 238.974 359.652 239.049 359.71 239.139Z" fill="white"/>
<path d="M313.32 203.238C313.463 203.358 313.558 203.525 313.585 203.71C313.613 203.894 313.572 204.082 313.47 204.238C313.313 204.359 313.117 204.416 312.92 204.397C312.723 204.379 312.541 204.286 312.41 204.138C312.264 204.032 312.166 203.873 312.138 203.694C312.11 203.516 312.154 203.334 312.26 203.188C312.366 203.042 312.526 202.945 312.704 202.917C312.882 202.888 313.064 202.932 313.21 203.038C313.251 203.066 313.288 203.1 313.32 203.138V203.238Z" fill="white"/>
<path d="M386.36 248.348C386.459 248.484 386.504 248.651 386.487 248.818C386.47 248.985 386.392 249.139 386.268 249.252C386.144 249.365 385.983 249.428 385.815 249.429C385.648 249.43 385.485 249.369 385.36 249.258C385.258 249.143 385.197 248.996 385.188 248.842C385.179 248.688 385.222 248.535 385.31 248.408C385.445 248.267 385.628 248.182 385.823 248.171C386.018 248.16 386.21 248.223 386.36 248.348Z" fill="white"/>
<path d="M309.49 245.259C309.555 245.336 309.602 245.427 309.628 245.524C309.653 245.622 309.656 245.724 309.636 245.822C309.617 245.921 309.575 246.014 309.515 246.095C309.454 246.175 309.376 246.241 309.287 246.288C309.197 246.334 309.099 246.359 308.998 246.362C308.897 246.365 308.797 246.345 308.705 246.304C308.613 246.263 308.532 246.201 308.467 246.124C308.402 246.047 308.355 245.957 308.33 245.859C308.263 245.793 308.21 245.713 308.176 245.625C308.141 245.537 308.126 245.442 308.131 245.348C308.135 245.254 308.16 245.161 308.203 245.077C308.246 244.993 308.306 244.918 308.38 244.859C308.515 244.744 308.688 244.685 308.865 244.694C309.042 244.704 309.208 244.781 309.33 244.909C309.392 244.987 309.44 245.075 309.47 245.169L309.49 245.259Z" fill="white"/>
<path d="M325.07 266.999C325.136 267.067 325.186 267.148 325.219 267.236C325.252 267.324 325.266 267.419 325.26 267.513C325.254 267.607 325.229 267.698 325.186 267.782C325.143 267.866 325.083 267.94 325.01 267.999C324.874 268.113 324.7 268.171 324.523 268.159C324.346 268.148 324.181 268.069 324.06 267.939C324.002 267.869 323.957 267.787 323.93 267.699C323.831 267.542 323.793 267.353 323.823 267.169C323.852 266.986 323.947 266.819 324.09 266.699C324.261 266.616 324.457 266.6 324.639 266.656C324.821 266.712 324.975 266.834 325.07 266.999Z" fill="white"/>
<path d="M292.9 216.999C293.005 217.154 293.048 217.344 293.018 217.53C292.988 217.716 292.889 217.883 292.74 217.999C292.648 218.038 292.549 218.059 292.449 218.061C292.349 218.062 292.25 218.043 292.157 218.006C292.064 217.969 291.979 217.914 291.908 217.844C291.836 217.774 291.779 217.691 291.74 217.599C291.681 217.533 291.635 217.456 291.605 217.373C291.575 217.29 291.563 217.201 291.567 217.113C291.572 217.025 291.594 216.938 291.632 216.859C291.67 216.779 291.724 216.707 291.79 216.648C291.918 216.527 292.088 216.459 292.265 216.459C292.442 216.459 292.612 216.527 292.74 216.648C292.802 216.726 292.85 216.814 292.88 216.909L292.9 216.999Z" fill="white"/>
<path d="M345 290.52C345.076 290.679 345.086 290.862 345.028 291.028C344.97 291.195 344.848 291.332 344.69 291.41C344.54 291.48 344.37 291.492 344.211 291.444C344.053 291.397 343.918 291.292 343.832 291.15C343.746 291.009 343.716 290.84 343.747 290.678C343.778 290.515 343.868 290.37 344 290.27C344.168 290.18 344.363 290.157 344.548 290.203C344.733 290.249 344.894 290.362 345 290.52Z" fill="white"/>
<path d="M282.44 195.238C282.576 195.381 282.652 195.571 282.652 195.768C282.652 195.966 282.576 196.155 282.44 196.298C282.374 196.395 282.288 196.478 282.188 196.54C282.089 196.603 281.977 196.644 281.861 196.662C281.745 196.68 281.626 196.674 281.512 196.644C281.399 196.614 281.292 196.561 281.2 196.488C281.107 196.416 281.031 196.325 280.975 196.221C280.919 196.118 280.884 196.004 280.874 195.887C280.864 195.77 280.878 195.652 280.915 195.54C280.952 195.429 281.012 195.326 281.09 195.238C281.23 195.06 281.435 194.945 281.659 194.917C281.884 194.889 282.111 194.95 282.29 195.088C282.345 195.133 282.395 195.183 282.44 195.238Z" fill="white"/>
<path d="M276.91 136.918C276.981 136.981 277.037 137.058 277.076 137.144C277.114 137.231 277.134 137.324 277.134 137.418C277.134 137.513 277.114 137.606 277.076 137.692C277.037 137.778 276.981 137.856 276.91 137.918C276.831 137.997 276.733 138.055 276.626 138.086C276.518 138.117 276.405 138.12 276.296 138.095C276.187 138.07 276.086 138.018 276.003 137.943C275.92 137.868 275.857 137.774 275.82 137.668C275.715 137.516 275.669 137.332 275.689 137.148C275.709 136.964 275.795 136.794 275.93 136.668C276.095 136.58 276.287 136.557 276.469 136.603C276.65 136.65 276.807 136.762 276.91 136.918Z" fill="white"/>
<path d="M300.65 148.139C300.769 148.295 300.824 148.491 300.803 148.686C300.783 148.881 300.689 149.061 300.54 149.189C300.462 149.269 300.368 149.332 300.265 149.376C300.162 149.419 300.052 149.441 299.94 149.441C299.828 149.441 299.718 149.419 299.615 149.376C299.512 149.332 299.418 149.269 299.34 149.189C299.181 149.03 299.092 148.814 299.092 148.589C299.092 148.364 299.181 148.148 299.34 147.989C299.501 147.83 299.718 147.74 299.945 147.74C300.172 147.74 300.389 147.83 300.55 147.989C300.588 148.036 300.621 148.086 300.65 148.139Z" fill="white"/>
<path d="M296.81 163.92C296.943 164.043 297.021 164.214 297.027 164.395C297.034 164.576 296.968 164.752 296.845 164.885C296.722 165.017 296.551 165.096 296.37 165.102C296.189 165.109 296.013 165.043 295.88 164.92C295.8 164.851 295.741 164.761 295.71 164.66C295.599 164.51 295.548 164.324 295.569 164.138C295.589 163.953 295.679 163.782 295.82 163.66C295.988 163.574 296.182 163.553 296.364 163.601C296.547 163.649 296.705 163.763 296.81 163.92Z" fill="white"/>
<path d="M253.27 154.069C253.27 154.195 253.235 154.318 253.168 154.425C253.102 154.531 253.007 154.617 252.894 154.672C252.781 154.727 252.655 154.749 252.53 154.736C252.405 154.723 252.286 154.675 252.187 154.597C252.088 154.52 252.013 154.416 251.97 154.298C251.927 154.18 251.919 154.052 251.945 153.929C251.971 153.806 252.032 153.693 252.119 153.603C252.207 153.513 252.318 153.449 252.44 153.419C252.635 153.402 252.83 153.459 252.984 153.58C253.138 153.701 253.24 153.876 253.27 154.069Z" fill="white"/>
<path d="M253.11 175.219C253.191 175.404 253.195 175.612 253.122 175.8C253.049 175.987 252.904 176.138 252.72 176.219C252.527 176.224 252.338 176.162 252.184 176.045C252.031 175.928 251.922 175.762 251.875 175.574C251.829 175.387 251.847 175.189 251.928 175.014C252.009 174.838 252.147 174.696 252.32 174.609C252.504 174.596 252.686 174.651 252.831 174.764C252.977 174.876 253.076 175.038 253.11 175.219Z" fill="white"/>
<path d="M239.17 178.188C239.172 178.316 239.138 178.442 239.072 178.552C239.005 178.661 238.909 178.75 238.795 178.807C238.68 178.865 238.552 178.888 238.424 178.876C238.297 178.863 238.175 178.815 238.074 178.737C237.973 178.659 237.896 178.553 237.852 178.433C237.808 178.313 237.798 178.182 237.825 178.057C237.852 177.932 237.914 177.817 238.003 177.725C238.092 177.633 238.206 177.568 238.33 177.538C238.527 177.515 238.726 177.571 238.882 177.692C239.039 177.814 239.143 177.992 239.17 178.188Z" fill="white"/>
<path d="M381.06 310.1H338.83C334.721 310.1 331.39 313.431 331.39 317.54V374.92C331.39 379.029 334.721 382.36 338.83 382.36H381.06C385.169 382.36 388.5 379.029 388.5 374.92V317.54C388.5 313.431 385.169 310.1 381.06 310.1Z" fill="#4779A8"/>
<path opacity="0.2" d="M381.06 310.1H338.83C334.721 310.1 331.39 313.431 331.39 317.54V374.92C331.39 379.029 334.721 382.36 338.83 382.36H381.06C385.169 382.36 388.5 379.029 388.5 374.92V317.54C388.5 313.431 385.169 310.1 381.06 310.1Z" fill="black"/>
<path d="M364.88 310.1H322.65C318.541 310.1 315.21 313.431 315.21 317.54V374.92C315.21 379.029 318.541 382.36 322.65 382.36H364.88C368.989 382.36 372.32 379.029 372.32 374.92V317.54C372.32 313.431 368.989 310.1 364.88 310.1Z" fill="#4779A8"/>
<path opacity="0.3" d="M315.21 375.419C315.077 375.419 314.95 375.366 314.856 375.272C314.763 375.179 314.71 375.051 314.71 374.919V317.549C314.71 315.437 315.545 313.412 317.032 311.913C318.519 310.415 320.539 309.565 322.65 309.549H334.43C334.563 309.549 334.69 309.602 334.784 309.695C334.877 309.789 334.93 309.916 334.93 310.049C334.93 310.181 334.877 310.309 334.784 310.402C334.69 310.496 334.563 310.549 334.43 310.549H322.65C320.804 310.565 319.039 311.309 317.739 312.62C316.439 313.931 315.71 315.703 315.71 317.549V374.919C315.71 375.051 315.657 375.179 315.564 375.272C315.47 375.366 315.343 375.419 315.21 375.419Z" fill="white"/>
</g>
<defs>
<clipPath id="clip0">
<rect width="500" height="390.7" fill="white"/>
</clipPath>
</defs>
</svg>
